0
SECTION
2
HEADER
0
ENDSEC
0
SECTION
2
TABLES
0
TABLE
2
LTYPE
0
LTYPE
72
65
70
64
2
CONTINUOUS
3
______
73
0
40
0
0
ENDTAB
0
TABLE
2
LAYER
0
ENDTAB
0
ENDSEC
0
SECTION
2
ENTITIES
0
CIRCLE
8
0
10
0
20
0
40
4
0
CIRCLE
8
0
10
0
20
0
40
4
0
LINE
8
layer0
10
6.2511574
20
1.7486857
11
6.158306
21
1.6585407
0
LINE
8
layer0
10
6.158306
20
1.6585407
11
6.068963
21
1.5787824
0
LINE
8
layer0
10
6.068963
20
1.5787824
11
5.9840185
21
1.5090962
0
LINE
8
layer0
10
5.9840185
20
1.5090962
11
5.9044485
21
1.4492013
0
LINE
8
layer0
10
5.9044485
20
1.4492013
11
5.8301469
21
1.3979773
0
LINE
8
layer0
10
5.8301469
20
1.3979773
11
5.762045
21
1.355106
0
LINE
8
layer0
10
5.762045
20
1.355106
11
5.7005055
21
1.3198956
0
LINE
8
layer0
10
5.7005055
20
1.3198956
11
5.6466847
21
1.2920129
0
LINE
8
layer0
10
5.6466847
20
1.2920129
11
5.5644589
21
1.2554701
0
LINE
8
layer0
10
5.5644589
20
1.2554701
11
5.5128928
21
1.2374515
0
LINE
8
layer0
10
5.5128928
20
1.2374515
11
5.4809355
21
1.2288463
0
LINE
8
layer0
10
5.4809355
20
1.2288463
11
5.4128327
21
1.2062445
0
LINE
8
layer0
10
5.4128327
20
1.2062445
11
5.3562493
21
1.1805262
0
LINE
8
layer0
10
5.3562493
20
1.1805262
11
5.3323343
21
1.1667859
0
LINE
8
layer0
10
5.3323343
20
1.1667859
11
5.3113309
21
1.1526259
0
LINE
8
layer0
10
5.3113309
20
1.1526259
11
5.2932628
21
1.1381513
0
LINE
8
layer0
10
5.2932628
20
1.1381513
11
5.2781227
21
1.1234721
0
LINE
8
layer0
10
5.2781227
20
1.1234721
11
5.2659199
21
1.1087216
0
LINE
8
layer0
10
5.2659199
20
1.1087216
11
5.2566373
21
1.0940083
0
LINE
8
layer0
10
5.2566373
20
1.0940083
11
5.2502872
21
1.0794456
0
LINE
8
layer0
10
5.2502872
20
1.0794456
11
5.2468312
21
1.065149
0
LINE
8
layer0
10
5.2468312
20
1.065149
11
5.24628
21
1.0512415
0
LINE
8
layer0
10
5.24628
20
1.0512415
11
5.2524996
21
1.0168308
0
LINE
8
layer0
10
5.2524996
20
1.0168308
11
5.2841326
21
0.8369244
0
LINE
8
layer0
10
5.2841326
20
0.8369244
11
5.309642
21
0.656048
0
LINE
8
layer0
10
5.309642
20
0.656048
11
5.3143603
21
0.6213996
0
LINE
8
layer0
10
5.3143603
20
0.6213996
11
5.3191821
21
0.6083431
0
LINE
8
layer0
10
5.3191821
20
0.6083431
11
5.3268869
21
0.5958142
0
LINE
8
layer0
10
5.3268869
20
0.5958142
11
5.3374263
21
0.5839265
0
LINE
8
layer0
10
5.3374263
20
0.5839265
11
5.3508013
21
0.5728019
0
LINE
8
layer0
10
5.3508013
20
0.5728019
11
5.366965
21
0.5625441
0
LINE
8
layer0
10
5.366965
20
0.5625441
11
5.3859001
21
0.553262
0
LINE
8
layer0
10
5.3859001
20
0.553262
11
5.4075568
21
0.5450791
0
LINE
8
layer0
10
5.4075568
20
0.5450791
11
5.431908
21
0.5381026
0
LINE
8
layer0
10
5.431908
20
0.5381026
11
5.4588985
21
0.5324249
0
LINE
8
layer0
10
5.4588985
20
0.5324249
11
5.5206599
21
0.5254506
0
LINE
8
layer0
10
5.5206599
20
0.5254506
11
5.5924138
21
0.5249999
0
LINE
8
layer0
10
5.5924138
20
0.5249999
11
5.6254662
21
0.5266912
0
LINE
8
layer0
10
5.6254662
20
0.5266912
11
5.6800765
21
0.5254894
0
LINE
8
layer0
10
5.6800765
20
0.5254894
11
5.7695702
21
0.5161442
0
LINE
8
layer0
10
5.7695702
20
0.5161442
11
5.8293731
21
0.5062577
0
LINE
8
layer0
10
5.8293731
20
0.5062577
11
5.8987813
21
0.4917874
0
LINE
8
layer0
10
5.8987813
20
0.4917874
11
5.976798
21
0.472059
0
LINE
8
layer0
10
5.976798
20
0.472059
11
6.0632921
21
0.4463026
0
LINE
8
layer0
10
6.0632921
20
0.4463026
11
6.1574762
21
0.4139276
0
LINE
8
layer0
10
6.1574762
20
0.4139276
11
6.2597974
21
0.3739014
0
LINE
8
layer0
10
6.2597974
20
0.3739014
11
6.3694144
21
0.3256553
0
LINE
8
layer0
10
6.3694144
20
0.3256553
11
6.4855776
21
0.268615
0
LINE
8
layer0
10
6.4855776
20
0.268615
11
6.5967009
21
0.208361
0
ARC
8
layer0
10
-0.0000093
20
0
40
6.6
50
358.1908795
51
361.8091197
0
LINE
8
layer0
10
6.5967009
20
-0.208361
11
6.4855776
21
-0.268615
0
LINE
8
layer0
10
6.4855776
20
-0.268615
11
6.3694144
21
-0.3256553
0
LINE
8
layer0
10
6.3694144
20
-0.3256553
11
6.2597974
21
-0.3739014
0
LINE
8
layer0
10
6.2597974
20
-0.3739014
11
6.1574762
21
-0.4139276
0
LINE
8
layer0
10
6.1574762
20
-0.4139276
11
6.0632921
21
-0.4463026
0
LINE
8
layer0
10
6.0632921
20
-0.4463026
11
5.976798
21
-0.472059
0
LINE
8
layer0
10
5.976798
20
-0.472059
11
5.8987813
21
-0.4917874
0
LINE
8
layer0
10
5.8987813
20
-0.4917874
11
5.8293731
21
-0.5062577
0
LINE
8
layer0
10
5.8293731
20
-0.5062577
11
5.7695702
21
-0.5161442
0
LINE
8
layer0
10
5.7695702
20
-0.5161442
11
5.6800765
21
-0.5254894
0
LINE
8
layer0
10
5.6800765
20
-0.5254894
11
5.6254662
21
-0.5266912
0
LINE
8
layer0
10
5.6254662
20
-0.5266912
11
5.5924138
21
-0.5249999
0
LINE
8
layer0
10
5.5924138
20
-0.5249999
11
5.5206599
21
-0.5254506
0
LINE
8
layer0
10
5.5206599
20
-0.5254506
11
5.4588985
21
-0.5324249
0
LINE
8
layer0
10
5.4588985
20
-0.5324249
11
5.431908
21
-0.5381026
0
LINE
8
layer0
10
5.431908
20
-0.5381026
11
5.4075568
21
-0.5450791
0
LINE
8
layer0
10
5.4075568
20
-0.5450791
11
5.3859001
21
-0.553262
0
LINE
8
layer0
10
5.3859001
20
-0.553262
11
5.366965
21
-0.5625441
0
LINE
8
layer0
10
5.366965
20
-0.5625441
11
5.3508013
21
-0.5728019
0
LINE
8
layer0
10
5.3508013
20
-0.5728019
11
5.3374263
21
-0.5839265
0
LINE
8
layer0
10
5.3374263
20
-0.5839265
11
5.3268869
21
-0.5958142
0
LINE
8
layer0
10
5.3268869
20
-0.5958142
11
5.3191821
21
-0.6083431
0
LINE
8
layer0
10
5.3191821
20
-0.6083431
11
5.3143603
21
-0.6213996
0
LINE
8
layer0
10
5.3143603
20
-0.6213996
11
5.309642
21
-0.656048
0
LINE
8
layer0
10
5.309642
20
-0.656048
11
5.2841326
21
-0.8369244
0
LINE
8
layer0
10
5.2841326
20
-0.8369244
11
5.2524996
21
-1.0168308
0
LINE
8
layer0
10
5.2524996
20
-1.0168308
11
5.24628
21
-1.0512415
0
LINE
8
layer0
10
5.24628
20
-1.0512415
11
5.2468312
21
-1.065149
0
LINE
8
layer0
10
5.2468312
20
-1.065149
11
5.2502872
21
-1.0794456
0
LINE
8
layer0
10
5.2502872
20
-1.0794456
11
5.2566373
21
-1.0940083
0
LINE
8
layer0
10
5.2566373
20
-1.0940083
11
5.2659199
21
-1.1087216
0
LINE
8
layer0
10
5.2659199
20
-1.1087216
11
5.2781227
21
-1.1234721
0
LINE
8
layer0
10
5.2781227
20
-1.1234721
11
5.2932628
21
-1.1381513
0
LINE
8
layer0
10
5.2932628
20
-1.1381513
11
5.3113309
21
-1.1526259
0
LINE
8
layer0
10
5.3113309
20
-1.1526259
11
5.3323343
21
-1.1667859
0
LINE
8
layer0
10
5.3323343
20
-1.1667859
11
5.3562493
21
-1.1805262
0
LINE
8
layer0
10
5.3562493
20
-1.1805262
11
5.4128327
21
-1.2062445
0
LINE
8
layer0
10
5.4128327
20
-1.2062445
11
5.4809355
21
-1.2288463
0
LINE
8
layer0
10
5.4809355
20
-1.2288463
11
5.5128928
21
-1.2374515
0
LINE
8
layer0
10
5.5128928
20
-1.2374515
11
5.5644589
21
-1.2554701
0
LINE
8
layer0
10
5.5644589
20
-1.2554701
11
5.6466847
21
-1.2920129
0
LINE
8
layer0
10
5.6466847
20
-1.2920129
11
5.7005055
21
-1.3198956
0
LINE
8
layer0
10
5.7005055
20
-1.3198956
11
5.762045
21
-1.355106
0
LINE
8
layer0
10
5.762045
20
-1.355106
11
5.8301469
21
-1.3979773
0
LINE
8
layer0
10
5.8301469
20
-1.3979773
11
5.9044485
21
-1.4492013
0
LINE
8
layer0
10
5.9044485
20
-1.4492013
11
5.9840185
21
-1.5090962
0
LINE
8
layer0
10
5.9840185
20
-1.5090962
11
6.068963
21
-1.5787824
0
LINE
8
layer0
10
6.068963
20
-1.5787824
11
6.158306
21
-1.6585407
0
LINE
8
layer0
10
6.158306
20
-1.6585407
11
6.2511574
21
-1.7486857
0
LINE
8
layer0
10
6.2511574
20
-1.7486857
11
6.3382225
21
-1.8403296
0
ARC
8
layer0
10
-0.0000089
20
0.0000025
40
6.6
50
340.1908825
51
343.809123
0
LINE
8
layer0
10
6.2094483
20
-2.2366558
11
6.0851442
21
-2.2596217
0
LINE
8
layer0
10
6.0851442
20
-2.2596217
11
5.95704
21
-2.2779739
0
LINE
8
layer0
10
5.95704
20
-2.2779739
11
5.8378792
21
-2.2899852
0
LINE
8
layer0
10
5.8378792
20
-2.2899852
11
5.7281972
21
-2.2964334
0
LINE
8
layer0
10
5.7281972
20
-2.2964334
11
5.6286184
21
-2.2981193
0
LINE
8
layer0
10
5.6286184
20
-2.2981193
11
5.5383984
21
-2.295887
0
LINE
8
layer0
10
5.5383984
20
-2.295887
11
5.4581037
21
-2.2905413
0
LINE
8
layer0
10
5.4581037
20
-2.2905413
11
5.387621
21
-2.2828551
0
LINE
8
layer0
10
5.387621
20
-2.2828551
11
5.32769
21
-2.2737776
0
LINE
8
layer0
10
5.32769
20
-2.2737776
11
5.2396886
21
-2.2550103
0
LINE
8
layer0
10
5.2396886
20
-2.2550103
11
5.1873797
21
-2.2392778
0
LINE
8
layer0
10
5.1873797
20
-2.2392778
11
5.1564677
21
-2.2274555
0
LINE
8
layer0
10
5.1564677
20
-2.2274555
11
5.0880864
21
-2.205711
0
LINE
8
layer0
10
5.0880864
20
-2.205711
11
5.0271926
21
-2.1932586
0
LINE
8
layer0
10
5.0271926
20
-2.1932586
11
4.9997687
21
-2.1903178
0
LINE
8
layer0
10
4.9997687
20
-2.1903178
11
4.9744535
21
-2.189428
0
LINE
8
layer0
10
4.9744535
20
-2.189428
11
4.9513281
21
-2.1905181
0
LINE
8
layer0
10
4.9513281
20
-2.1905181
11
4.9304513
21
-2.1934947
0
LINE
8
layer0
10
4.9304513
20
-2.1934947
11
4.9119089
21
-2.1982555
0
LINE
8
layer0
10
4.9119089
20
-2.1982555
11
4.8957509
21
-2.2047026
0
LINE
8
layer0
10
4.8957509
20
-2.2047026
11
4.8820538
21
-2.2127515
0
LINE
8
layer0
10
4.8820538
20
-2.2127515
11
4.8708545
21
-2.2222864
0
LINE
8
layer0
10
4.8708545
20
-2.2222864
11
4.862234
21
-2.2332138
0
LINE
8
layer0
10
4.862234
20
-2.2332138
11
4.8470396
21
-2.2647084
0
LINE
8
layer0
10
4.8470396
20
-2.2647084
11
4.7668849
21
-2.4288492
0
LINE
8
layer0
10
4.7668849
20
-2.4288492
11
4.681206
21
-2.5901752
0
LINE
8
layer0
10
4.681206
20
-2.5901752
11
4.6646573
21
-2.6209798
0
LINE
8
layer0
10
4.6646573
20
-2.6209798
11
4.6608839
21
-2.6343769
0
LINE
8
layer0
10
4.6608839
20
-2.6343769
11
4.6597528
21
-2.6490418
0
LINE
8
layer0
10
4.6597528
20
-2.6490418
11
4.661292
21
-2.664854
0
LINE
8
layer0
10
4.661292
20
-2.664854
11
4.6655737
21
-2.6817156
0
LINE
8
layer0
10
4.6655737
20
-2.6817156
11
4.672621
21
-2.6995151
0
LINE
8
layer0
10
4.672621
20
-2.6995151
11
4.682484
21
-2.7181543
0
LINE
8
layer0
10
4.682484
20
-2.7181543
11
4.6951948
21
-2.7375039
0
LINE
8
layer0
10
4.6951948
20
-2.7375039
11
4.7107946
21
-2.7574613
0
LINE
8
layer0
10
4.7107946
20
-2.7574613
11
4.7292932
21
-2.7779192
0
LINE
8
layer0
10
4.7292932
20
-2.7779192
11
4.7751598
21
-2.819864
0
LINE
8
layer0
10
4.7751598
20
-2.819864
11
4.832945
21
-2.8624045
0
LINE
8
layer0
10
4.832945
20
-2.8624045
11
4.8606791
21
-2.8804639
0
LINE
8
layer0
10
4.8606791
20
-2.8804639
11
4.9041533
21
-2.9135354
0
LINE
8
layer0
10
4.9041533
20
-2.9135354
11
4.9710623
21
-2.9736988
0
LINE
8
layer0
10
4.9710623
20
-2.9736988
11
5.0136327
21
-3.0168484
0
LINE
8
layer0
10
5.0136327
20
-3.0168484
11
5.0612797
21
-3.0693523
0
LINE
8
layer0
10
5.0612797
20
-3.0693523
11
5.1128005
21
-3.1311699
0
LINE
8
layer0
10
5.1128005
20
-3.1311699
11
5.1676364
21
-3.2028473
0
LINE
8
layer0
10
5.1676364
20
-3.2028473
11
5.2248034
21
-3.2843992
0
LINE
8
layer0
10
5.2248034
20
-3.2843992
11
5.2840562
21
-3.376924
0
LINE
8
layer0
10
5.2840562
20
-3.376924
11
5.3443798
21
-3.4803872
0
LINE
8
layer0
10
5.3443798
20
-3.4803872
11
5.4048304
21
-3.5948128
0
LINE
8
layer0
10
5.4048304
20
-3.5948128
11
5.4593147
21
-3.7088759
0
ARC
8
layer0
10
-0.0000078
20
0.0000051
40
6.6
50
322.1908835
51
325.809124
0
LINE
8
layer0
10
5.2143716
20
-4.0460111
11
5.0890546
21
-4.0294409
0
LINE
8
layer0
10
5.0890546
20
-4.0294409
11
4.9615491
21
-4.0073085
0
LINE
8
layer0
10
4.9615491
20
-4.0073085
11
4.8445088
21
-3.9819092
0
LINE
8
layer0
10
4.8445088
20
-3.9819092
11
4.7382023
21
-3.9541482
0
LINE
8
layer0
10
4.7382023
20
-3.9541482
11
4.6429763
21
-3.92498
0
LINE
8
layer0
10
4.6429763
20
-3.92498
11
4.5578618
21
-3.8949775
0
LINE
8
layer0
10
4.5578618
20
-3.8949775
11
4.4831489
21
-3.865081
0
LINE
8
layer0
10
4.4831489
20
-3.865081
11
4.4184911
21
-3.8359906
0
LINE
8
layer0
10
4.4184911
20
-3.8359906
11
4.3642984
21
-3.8088377
0
LINE
8
layer0
10
4.3642984
20
-3.8088377
11
4.2864035
21
-3.763795
0
LINE
8
layer0
10
4.2864035
20
-3.763795
11
4.2415164
21
-3.7326682
0
LINE
8
layer0
10
4.2415164
20
-3.7326682
11
4.2157706
21
-3.7118722
0
LINE
8
layer0
10
4.2157706
20
-3.7118722
11
4.1574555
21
-3.670061
0
LINE
8
layer0
10
4.1574555
20
-3.670061
11
4.1033901
21
-3.6394008
0
LINE
8
layer0
10
4.1033901
20
-3.6394008
11
4.0782171
21
-3.6281295
0
LINE
8
layer0
10
4.0782171
20
-3.6281295
11
4.0544159
21
-3.6194604
0
LINE
8
layer0
10
4.0544159
20
-3.6194604
11
4.0320855
21
-3.613351
0
LINE
8
layer0
10
4.0320855
20
-3.613351
11
4.0113107
21
-3.6097306
0
LINE
8
layer0
10
4.0113107
20
-3.6097306
11
3.9922047
21
-3.6085285
0
LINE
8
layer0
10
3.9922047
20
-3.6085285
11
3.9748452
21
-3.609667
0
LINE
8
layer0
10
3.9748452
20
-3.609667
11
3.9593313
21
-3.6130894
0
LINE
8
layer0
10
3.9593313
20
-3.6130894
11
3.9457336
21
-3.6186967
0
LINE
8
layer0
10
3.9457336
20
-3.6186967
11
3.9341583
21
-3.6264254
0
LINE
8
layer0
10
3.9341583
20
-3.6264254
11
3.9099752
21
-3.6516833
0
LINE
8
layer0
10
3.9099752
20
-3.6516833
11
3.7830213
21
-3.7830213
0
LINE
8
layer0
10
3.7830213
20
-3.7830213
11
3.6516833
21
-3.9099752
0
LINE
8
layer0
10
3.6516833
20
-3.9099752
11
3.6264254
21
-3.9341583
0
LINE
8
layer0
10
3.6264254
20
-3.9341583
11
3.6186967
21
-3.9457336
0
LINE
8
layer0
10
3.6186967
20
-3.9457336
11
3.6130894
21
-3.9593313
0
LINE
8
layer0
10
3.6130894
20
-3.9593313
11
3.609667
21
-3.9748452
0
LINE
8
layer0
10
3.609667
20
-3.9748452
11
3.6085285
21
-3.9922047
0
LINE
8
layer0
10
3.6085285
20
-3.9922047
11
3.6097306
21
-4.0113107
0
LINE
8
layer0
10
3.6097306
20
-4.0113107
11
3.613351
21
-4.0320855
0
LINE
8
layer0
10
3.613351
20
-4.0320855
11
3.6194604
21
-4.0544159
0
LINE
8
layer0
10
3.6194604
20
-4.0544159
11
3.6281295
21
-4.0782171
0
LINE
8
layer0
10
3.6281295
20
-4.0782171
11
3.6394008
21
-4.1033901
0
LINE
8
layer0
10
3.6394008
20
-4.1033901
11
3.670061
21
-4.1574555
0
LINE
8
layer0
10
3.670061
20
-4.1574555
11
3.7118722
21
-4.2157706
0
LINE
8
layer0
10
3.7118722
20
-4.2157706
11
3.7326682
21
-4.2415164
0
LINE
8
layer0
10
3.7326682
20
-4.2415164
11
3.763795
21
-4.2864035
0
LINE
8
layer0
10
3.763795
20
-4.2864035
11
3.8088377
21
-4.3642984
0
LINE
8
layer0
10
3.8088377
20
-4.3642984
11
3.8359906
21
-4.4184911
0
LINE
8
layer0
10
3.8359906
20
-4.4184911
11
3.865081
21
-4.4831489
0
LINE
8
layer0
10
3.865081
20
-4.4831489
11
3.8949775
21
-4.5578618
0
LINE
8
layer0
10
3.8949775
20
-4.5578618
11
3.92498
21
-4.6429763
0
LINE
8
layer0
10
3.92498
20
-4.6429763
11
3.9541482
21
-4.7382023
0
LINE
8
layer0
10
3.9541482
20
-4.7382023
11
3.9819092
21
-4.8445088
0
LINE
8
layer0
10
3.9819092
20
-4.8445088
11
4.0073085
21
-4.9615491
0
LINE
8
layer0
10
4.0073085
20
-4.9615491
11
4.0294409
21
-5.0890546
0
LINE
8
layer0
10
4.0294409
20
-5.0890546
11
4.0460111
21
-5.2143716
0
ARC
8
layer0
10
-0.0000052
20
0.0000078
40
6.6
50
304.190876
51
307.8091165
0
LINE
8
layer0
10
3.7088759
20
-5.4593147
11
3.5948128
21
-5.4048304
0
LINE
8
layer0
10
3.5948128
20
-5.4048304
11
3.4803872
21
-5.3443798
0
LINE
8
layer0
10
3.4803872
20
-5.3443798
11
3.376924
21
-5.2840562
0
LINE
8
layer0
10
3.376924
20
-5.2840562
11
3.2843992
21
-5.2248034
0
LINE
8
layer0
10
3.2843992
20
-5.2248034
11
3.2028473
21
-5.1676364
0
LINE
8
layer0
10
3.2028473
20
-5.1676364
11
3.1311699
21
-5.1128005
0
LINE
8
layer0
10
3.1311699
20
-5.1128005
11
3.0693523
21
-5.0612797
0
LINE
8
layer0
10
3.0693523
20
-5.0612797
11
3.0168484
21
-5.0136327
0
LINE
8
layer0
10
3.0168484
20
-5.0136327
11
2.9736988
21
-4.9710623
0
LINE
8
layer0
10
2.9736988
20
-4.9710623
11
2.9135354
21
-4.9041533
0
LINE
8
layer0
10
2.9135354
20
-4.9041533
11
2.8804639
21
-4.8606791
0
LINE
8
layer0
10
2.8804639
20
-4.8606791
11
2.8624045
21
-4.832945
0
LINE
8
layer0
10
2.8624045
20
-4.832945
11
2.819864
21
-4.7751598
0
LINE
8
layer0
10
2.819864
20
-4.7751598
11
2.7779192
21
-4.7292932
0
LINE
8
layer0
10
2.7779192
20
-4.7292932
11
2.7574613
21
-4.7107946
0
LINE
8
layer0
10
2.7574613
20
-4.7107946
11
2.7375039
21
-4.6951948
0
LINE
8
layer0
10
2.7375039
20
-4.6951948
11
2.7181543
21
-4.682484
0
LINE
8
layer0
10
2.7181543
20
-4.682484
11
2.6995151
21
-4.672621
0
LINE
8
layer0
10
2.6995151
20
-4.672621
11
2.6817156
21
-4.6655737
0
LINE
8
layer0
10
2.6817156
20
-4.6655737
11
2.664854
21
-4.661292
0
LINE
8
layer0
10
2.664854
20
-4.661292
11
2.6490418
21
-4.6597528
0
LINE
8
layer0
10
2.6490418
20
-4.6597528
11
2.6343769
21
-4.6608839
0
LINE
8
layer0
10
2.6343769
20
-4.6608839
11
2.6209798
21
-4.6646573
0
LINE
8
layer0
10
2.6209798
20
-4.6646573
11
2.5901752
21
-4.681206
0
LINE
8
layer0
10
2.5901752
20
-4.681206
11
2.4288492
21
-4.7668849
0
LINE
8
layer0
10
2.4288492
20
-4.7668849
11
2.2647084
21
-4.8470396
0
LINE
8
layer0
10
2.2647084
20
-4.8470396
11
2.2332138
21
-4.862234
0
LINE
8
layer0
10
2.2332138
20
-4.862234
11
2.2222864
21
-4.8708545
0
LINE
8
layer0
10
2.2222864
20
-4.8708545
11
2.2127515
21
-4.8820538
0
LINE
8
layer0
10
2.2127515
20
-4.8820538
11
2.2047026
21
-4.8957509
0
LINE
8
layer0
10
2.2047026
20
-4.8957509
11
2.1982555
21
-4.9119089
0
LINE
8
layer0
10
2.1982555
20
-4.9119089
11
2.1934947
21
-4.9304513
0
LINE
8
layer0
10
2.1934947
20
-4.9304513
11
2.1905181
21
-4.9513281
0
LINE
8
layer0
10
2.1905181
20
-4.9513281
11
2.189428
21
-4.9744535
0
LINE
8
layer0
10
2.189428
20
-4.9744535
11
2.1903178
21
-4.9997687
0
LINE
8
layer0
10
2.1903178
20
-4.9997687
11
2.1932586
21
-5.0271926
0
LINE
8
layer0
10
2.1932586
20
-5.0271926
11
2.205711
21
-5.0880864
0
LINE
8
layer0
10
2.205711
20
-5.0880864
11
2.2274555
21
-5.1564677
0
LINE
8
layer0
10
2.2274555
20
-5.1564677
11
2.2392778
21
-5.1873797
0
LINE
8
layer0
10
2.2392778
20
-5.1873797
11
2.2550103
21
-5.2396886
0
LINE
8
layer0
10
2.2550103
20
-5.2396886
11
2.2737776
21
-5.32769
0
LINE
8
layer0
10
2.2737776
20
-5.32769
11
2.2828551
21
-5.387621
0
LINE
8
layer0
10
2.2828551
20
-5.387621
11
2.2905413
21
-5.4581037
0
LINE
8
layer0
10
2.2905413
20
-5.4581037
11
2.295887
21
-5.5383984
0
LINE
8
layer0
10
2.295887
20
-5.5383984
11
2.2981193
21
-5.6286184
0
LINE
8
layer0
10
2.2981193
20
-5.6286184
11
2.2964334
21
-5.7281972
0
LINE
8
layer0
10
2.2964334
20
-5.7281972
11
2.2899852
21
-5.8378792
0
LINE
8
layer0
10
2.2899852
20
-5.8378792
11
2.2779739
21
-5.95704
0
LINE
8
layer0
10
2.2779739
20
-5.95704
11
2.2596217
21
-6.0851442
0
LINE
8
layer0
10
2.2596217
20
-6.0851442
11
2.2366558
21
-6.2094483
0
ARC
8
layer0
10
-0.0000026
20
0.0000089
40
6.6
50
286.190877
51
289.8091175
0
LINE
8
layer0
10
1.8403296
20
-6.3382225
11
1.7486857
21
-6.2511574
0
LINE
8
layer0
10
1.7486857
20
-6.2511574
11
1.6585407
21
-6.158306
0
LINE
8
layer0
10
1.6585407
20
-6.158306
11
1.5787824
21
-6.068963
0
LINE
8
layer0
10
1.5787824
20
-6.068963
11
1.5090962
21
-5.9840185
0
LINE
8
layer0
10
1.5090962
20
-5.9840185
11
1.4492013
21
-5.9044485
0
LINE
8
layer0
10
1.4492013
20
-5.9044485
11
1.3979773
21
-5.8301469
0
LINE
8
layer0
10
1.3979773
20
-5.8301469
11
1.355106
21
-5.762045
0
LINE
8
layer0
10
1.355106
20
-5.762045
11
1.3198956
21
-5.7005055
0
LINE
8
layer0
10
1.3198956
20
-5.7005055
11
1.2920129
21
-5.6466847
0
LINE
8
layer0
10
1.2920129
20
-5.6466847
11
1.2554701
21
-5.5644589
0
LINE
8
layer0
10
1.2554701
20
-5.5644589
11
1.2374515
21
-5.5128928
0
LINE
8
layer0
10
1.2374515
20
-5.5128928
11
1.2288463
21
-5.4809355
0
LINE
8
layer0
10
1.2288463
20
-5.4809355
11
1.2062445
21
-5.4128327
0
LINE
8
layer0
10
1.2062445
20
-5.4128327
11
1.1805262
21
-5.3562493
0
LINE
8
layer0
10
1.1805262
20
-5.3562493
11
1.1667859
21
-5.3323343
0
LINE
8
layer0
10
1.1667859
20
-5.3323343
11
1.1526259
21
-5.3113309
0
LINE
8
layer0
10
1.1526259
20
-5.3113309
11
1.1381513
21
-5.2932628
0
LINE
8
layer0
10
1.1381513
20
-5.2932628
11
1.1234721
21
-5.2781227
0
LINE
8
layer0
10
1.1234721
20
-5.2781227
11
1.1087216
21
-5.2659199
0
LINE
8
layer0
10
1.1087216
20
-5.2659199
11
1.0940083
21
-5.2566373
0
LINE
8
layer0
10
1.0940083
20
-5.2566373
11
1.0794456
21
-5.2502872
0
LINE
8
layer0
10
1.0794456
20
-5.2502872
11
1.065149
21
-5.2468312
0
LINE
8
layer0
10
1.065149
20
-5.2468312
11
1.0512415
21
-5.24628
0
LINE
8
layer0
10
1.0512415
20
-5.24628
11
1.0168308
21
-5.2524996
0
LINE
8
layer0
10
1.0168308
20
-5.2524996
11
0.8369244
21
-5.2841326
0
LINE
8
layer0
10
0.8369244
20
-5.2841326
11
0.656048
21
-5.309642
0
LINE
8
layer0
10
0.656048
20
-5.309642
11
0.6213996
21
-5.3143603
0
LINE
8
layer0
10
0.6213996
20
-5.3143603
11
0.6083431
21
-5.3191821
0
LINE
8
layer0
10
0.6083431
20
-5.3191821
11
0.5958142
21
-5.3268869
0
LINE
8
layer0
10
0.5958142
20
-5.3268869
11
0.5839265
21
-5.3374263
0
LINE
8
layer0
10
0.5839265
20
-5.3374263
11
0.5728019
21
-5.3508013
0
LINE
8
layer0
10
0.5728019
20
-5.3508013
11
0.5625441
21
-5.366965
0
LINE
8
layer0
10
0.5625441
20
-5.366965
11
0.553262
21
-5.3859001
0
LINE
8
layer0
10
0.553262
20
-5.3859001
11
0.5450791
21
-5.4075568
0
LINE
8
layer0
10
0.5450791
20
-5.4075568
11
0.5381026
21
-5.431908
0
LINE
8
layer0
10
0.5381026
20
-5.431908
11
0.5324249
21
-5.4588985
0
LINE
8
layer0
10
0.5324249
20
-5.4588985
11
0.5254506
21
-5.5206599
0
LINE
8
layer0
10
0.5254506
20
-5.5206599
11
0.5249999
21
-5.5924138
0
LINE
8
layer0
10
0.5249999
20
-5.5924138
11
0.5266912
21
-5.6254662
0
LINE
8
layer0
10
0.5266912
20
-5.6254662
11
0.5254894
21
-5.6800765
0
LINE
8
layer0
10
0.5254894
20
-5.6800765
11
0.5161442
21
-5.7695702
0
LINE
8
layer0
10
0.5161442
20
-5.7695702
11
0.5062577
21
-5.8293731
0
LINE
8
layer0
10
0.5062577
20
-5.8293731
11
0.4917874
21
-5.8987813
0
LINE
8
layer0
10
0.4917874
20
-5.8987813
11
0.472059
21
-5.976798
0
LINE
8
layer0
10
0.472059
20
-5.976798
11
0.4463026
21
-6.0632921
0
LINE
8
layer0
10
0.4463026
20
-6.0632921
11
0.4139276
21
-6.1574762
0
LINE
8
layer0
10
0.4139276
20
-6.1574762
11
0.3739014
21
-6.2597974
0
LINE
8
layer0
10
0.3739014
20
-6.2597974
11
0.3256553
21
-6.3694144
0
LINE
8
layer0
10
0.3256553
20
-6.3694144
11
0.268615
21
-6.4855776
0
LINE
8
layer0
10
0.268615
20
-6.4855776
11
0.208361
21
-6.5967009
0
ARC
8
layer0
10
0
20
0.0000093
40
6.6
50
268.1908795
51
271.8091197
0
LINE
8
layer0
10
-0.208361
20
-6.5967009
11
-0.268615
21
-6.4855776
0
LINE
8
layer0
10
-0.268615
20
-6.4855776
11
-0.3256553
21
-6.3694144
0
LINE
8
layer0
10
-0.3256553
20
-6.3694144
11
-0.3739014
21
-6.2597974
0
LINE
8
layer0
10
-0.3739014
20
-6.2597974
11
-0.4139276
21
-6.1574762
0
LINE
8
layer0
10
-0.4139276
20
-6.1574762
11
-0.4463026
21
-6.0632921
0
LINE
8
layer0
10
-0.4463026
20
-6.0632921
11
-0.472059
21
-5.976798
0
LINE
8
layer0
10
-0.472059
20
-5.976798
11
-0.4917874
21
-5.8987813
0
LINE
8
layer0
10
-0.4917874
20
-5.8987813
11
-0.5062577
21
-5.8293731
0
LINE
8
layer0
10
-0.5062577
20
-5.8293731
11
-0.5161442
21
-5.7695702
0
LINE
8
layer0
10
-0.5161442
20
-5.7695702
11
-0.5254894
21
-5.6800765
0
LINE
8
layer0
10
-0.5254894
20
-5.6800765
11
-0.5266912
21
-5.6254662
0
LINE
8
layer0
10
-0.5266912
20
-5.6254662
11
-0.5249999
21
-5.5924138
0
LINE
8
layer0
10
-0.5249999
20
-5.5924138
11
-0.5254506
21
-5.5206599
0
LINE
8
layer0
10
-0.5254506
20
-5.5206599
11
-0.5324249
21
-5.4588985
0
LINE
8
layer0
10
-0.5324249
20
-5.4588985
11
-0.5381026
21
-5.431908
0
LINE
8
layer0
10
-0.5381026
20
-5.431908
11
-0.5450791
21
-5.4075568
0
LINE
8
layer0
10
-0.5450791
20
-5.4075568
11
-0.553262
21
-5.3859001
0
LINE
8
layer0
10
-0.553262
20
-5.3859001
11
-0.5625441
21
-5.366965
0
LINE
8
layer0
10
-0.5625441
20
-5.366965
11
-0.5728019
21
-5.3508013
0
LINE
8
layer0
10
-0.5728019
20
-5.3508013
11
-0.5839265
21
-5.3374263
0
LINE
8
layer0
10
-0.5839265
20
-5.3374263
11
-0.5958142
21
-5.3268869
0
LINE
8
layer0
10
-0.5958142
20
-5.3268869
11
-0.6083431
21
-5.3191821
0
LINE
8
layer0
10
-0.6083431
20
-5.3191821
11
-0.6213996
21
-5.3143603
0
LINE
8
layer0
10
-0.6213996
20
-5.3143603
11
-0.656048
21
-5.309642
0
LINE
8
layer0
10
-0.656048
20
-5.309642
11
-0.8369244
21
-5.2841326
0
LINE
8
layer0
10
-0.8369244
20
-5.2841326
11
-1.0168308
21
-5.2524996
0
LINE
8
layer0
10
-1.0168308
20
-5.2524996
11
-1.0512415
21
-5.24628
0
LINE
8
layer0
10
-1.0512415
20
-5.24628
11
-1.065149
21
-5.2468312
0
LINE
8
layer0
10
-1.065149
20
-5.2468312
11
-1.0794456
21
-5.2502872
0
LINE
8
layer0
10
-1.0794456
20
-5.2502872
11
-1.0940083
21
-5.2566373
0
LINE
8
layer0
10
-1.0940083
20
-5.2566373
11
-1.1087216
21
-5.2659199
0
LINE
8
layer0
10
-1.1087216
20
-5.2659199
11
-1.1234721
21
-5.2781227
0
LINE
8
layer0
10
-1.1234721
20
-5.2781227
11
-1.1381513
21
-5.2932628
0
LINE
8
layer0
10
-1.1381513
20
-5.2932628
11
-1.1526259
21
-5.3113309
0
LINE
8
layer0
10
-1.1526259
20
-5.3113309
11
-1.1667859
21
-5.3323343
0
LINE
8
layer0
10
-1.1667859
20
-5.3323343
11
-1.1805262
21
-5.3562493
0
LINE
8
layer0
10
-1.1805262
20
-5.3562493
11
-1.2062445
21
-5.4128327
0
LINE
8
layer0
10
-1.2062445
20
-5.4128327
11
-1.2288463
21
-5.4809355
0
LINE
8
layer0
10
-1.2288463
20
-5.4809355
11
-1.2374515
21
-5.5128928
0
LINE
8
layer0
10
-1.2374515
20
-5.5128928
11
-1.2554701
21
-5.5644589
0
LINE
8
layer0
10
-1.2554701
20
-5.5644589
11
-1.2920129
21
-5.6466847
0
LINE
8
layer0
10
-1.2920129
20
-5.6466847
11
-1.3198956
21
-5.7005055
0
LINE
8
layer0
10
-1.3198956
20
-5.7005055
11
-1.355106
21
-5.762045
0
LINE
8
layer0
10
-1.355106
20
-5.762045
11
-1.3979773
21
-5.8301469
0
LINE
8
layer0
10
-1.3979773
20
-5.8301469
11
-1.4492013
21
-5.9044485
0
LINE
8
layer0
10
-1.4492013
20
-5.9044485
11
-1.5090962
21
-5.9840185
0
LINE
8
layer0
10
-1.5090962
20
-5.9840185
11
-1.5787824
21
-6.068963
0
LINE
8
layer0
10
-1.5787824
20
-6.068963
11
-1.6585407
21
-6.158306
0
LINE
8
layer0
10
-1.6585407
20
-6.158306
11
-1.7486857
21
-6.2511574
0
LINE
8
layer0
10
-1.7486857
20
-6.2511574
11
-1.8403296
21
-6.3382225
0
ARC
8
layer0
10
0.0000025
20
0.0000089
40
6.6
50
250.1908825
51
253.809123
0
LINE
8
layer0
10
-2.2366558
20
-6.2094483
11
-2.2596217
21
-6.0851442
0
LINE
8
layer0
10
-2.2596217
20
-6.0851442
11
-2.2779739
21
-5.95704
0
LINE
8
layer0
10
-2.2779739
20
-5.95704
11
-2.2899852
21
-5.8378792
0
LINE
8
layer0
10
-2.2899852
20
-5.8378792
11
-2.2964334
21
-5.7281972
0
LINE
8
layer0
10
-2.2964334
20
-5.7281972
11
-2.2981193
21
-5.6286184
0
LINE
8
layer0
10
-2.2981193
20
-5.6286184
11
-2.295887
21
-5.5383984
0
LINE
8
layer0
10
-2.295887
20
-5.5383984
11
-2.2905413
21
-5.4581037
0
LINE
8
layer0
10
-2.2905413
20
-5.4581037
11
-2.2828551
21
-5.387621
0
LINE
8
layer0
10
-2.2828551
20
-5.387621
11
-2.2737776
21
-5.32769
0
LINE
8
layer0
10
-2.2737776
20
-5.32769
11
-2.2550103
21
-5.2396886
0
LINE
8
layer0
10
-2.2550103
20
-5.2396886
11
-2.2392778
21
-5.1873797
0
LINE
8
layer0
10
-2.2392778
20
-5.1873797
11
-2.2274555
21
-5.1564677
0
LINE
8
layer0
10
-2.2274555
20
-5.1564677
11
-2.205711
21
-5.0880864
0
LINE
8
layer0
10
-2.205711
20
-5.0880864
11
-2.1932586
21
-5.0271926
0
LINE
8
layer0
10
-2.1932586
20
-5.0271926
11
-2.1903178
21
-4.9997687
0
LINE
8
layer0
10
-2.1903178
20
-4.9997687
11
-2.189428
21
-4.9744535
0
LINE
8
layer0
10
-2.189428
20
-4.9744535
11
-2.1905181
21
-4.9513281
0
LINE
8
layer0
10
-2.1905181
20
-4.9513281
11
-2.1934947
21
-4.9304513
0
LINE
8
layer0
10
-2.1934947
20
-4.9304513
11
-2.1982555
21
-4.9119089
0
LINE
8
layer0
10
-2.1982555
20
-4.9119089
11
-2.2047026
21
-4.8957509
0
LINE
8
layer0
10
-2.2047026
20
-4.8957509
11
-2.2127515
21
-4.8820538
0
LINE
8
layer0
10
-2.2127515
20
-4.8820538
11
-2.2222864
21
-4.8708545
0
LINE
8
layer0
10
-2.2222864
20
-4.8708545
11
-2.2332138
21
-4.862234
0
LINE
8
layer0
10
-2.2332138
20
-4.862234
11
-2.2647084
21
-4.8470396
0
LINE
8
layer0
10
-2.2647084
20
-4.8470396
11
-2.4288492
21
-4.7668849
0
LINE
8
layer0
10
-2.4288492
20
-4.7668849
11
-2.5901752
21
-4.681206
0
LINE
8
layer0
10
-2.5901752
20
-4.681206
11
-2.6209798
21
-4.6646573
0
LINE
8
layer0
10
-2.6209798
20
-4.6646573
11
-2.6343769
21
-4.6608839
0
LINE
8
layer0
10
-2.6343769
20
-4.6608839
11
-2.6490418
21
-4.6597528
0
LINE
8
layer0
10
-2.6490418
20
-4.6597528
11
-2.664854
21
-4.661292
0
LINE
8
layer0
10
-2.664854
20
-4.661292
11
-2.6817156
21
-4.6655737
0
LINE
8
layer0
10
-2.6817156
20
-4.6655737
11
-2.6995151
21
-4.672621
0
LINE
8
layer0
10
-2.6995151
20
-4.672621
11
-2.7181543
21
-4.682484
0
LINE
8
layer0
10
-2.7181543
20
-4.682484
11
-2.7375039
21
-4.6951948
0
LINE
8
layer0
10
-2.7375039
20
-4.6951948
11
-2.7574613
21
-4.7107946
0
LINE
8
layer0
10
-2.7574613
20
-4.7107946
11
-2.7779192
21
-4.7292932
0
LINE
8
layer0
10
-2.7779192
20
-4.7292932
11
-2.819864
21
-4.7751598
0
LINE
8
layer0
10
-2.819864
20
-4.7751598
11
-2.8624045
21
-4.832945
0
LINE
8
layer0
10
-2.8624045
20
-4.832945
11
-2.8804639
21
-4.8606791
0
LINE
8
layer0
10
-2.8804639
20
-4.8606791
11
-2.9135354
21
-4.9041533
0
LINE
8
layer0
10
-2.9135354
20
-4.9041533
11
-2.9736988
21
-4.9710623
0
LINE
8
layer0
10
-2.9736988
20
-4.9710623
11
-3.0168484
21
-5.0136327
0
LINE
8
layer0
10
-3.0168484
20
-5.0136327
11
-3.0693523
21
-5.0612797
0
LINE
8
layer0
10
-3.0693523
20
-5.0612797
11
-3.1311699
21
-5.1128005
0
LINE
8
layer0
10
-3.1311699
20
-5.1128005
11
-3.2028473
21
-5.1676364
0
LINE
8
layer0
10
-3.2028473
20
-5.1676364
11
-3.2843992
21
-5.2248034
0
LINE
8
layer0
10
-3.2843992
20
-5.2248034
11
-3.376924
21
-5.2840562
0
LINE
8
layer0
10
-3.376924
20
-5.2840562
11
-3.4803872
21
-5.3443798
0
LINE
8
layer0
10
-3.4803872
20
-5.3443798
11
-3.5948128
21
-5.4048304
0
LINE
8
layer0
10
-3.5948128
20
-5.4048304
11
-3.7088759
21
-5.4593147
0
ARC
8
layer0
10
0.0000051
20
0.0000078
40
6.6
50
232.1908835
51
235.809124
0
LINE
8
layer0
10
-4.0460111
20
-5.2143716
11
-4.0294409
21
-5.0890546
0
LINE
8
layer0
10
-4.0294409
20
-5.0890546
11
-4.0073085
21
-4.9615491
0
LINE
8
layer0
10
-4.0073085
20
-4.9615491
11
-3.9819092
21
-4.8445088
0
LINE
8
layer0
10
-3.9819092
20
-4.8445088
11
-3.9541482
21
-4.7382023
0
LINE
8
layer0
10
-3.9541482
20
-4.7382023
11
-3.92498
21
-4.6429763
0
LINE
8
layer0
10
-3.92498
20
-4.6429763
11
-3.8949775
21
-4.5578618
0
LINE
8
layer0
10
-3.8949775
20
-4.5578618
11
-3.865081
21
-4.4831489
0
LINE
8
layer0
10
-3.865081
20
-4.4831489
11
-3.8359906
21
-4.4184911
0
LINE
8
layer0
10
-3.8359906
20
-4.4184911
11
-3.8088377
21
-4.3642984
0
LINE
8
layer0
10
-3.8088377
20
-4.3642984
11
-3.763795
21
-4.2864035
0
LINE
8
layer0
10
-3.763795
20
-4.2864035
11
-3.7326682
21
-4.2415164
0
LINE
8
layer0
10
-3.7326682
20
-4.2415164
11
-3.7118722
21
-4.2157706
0
LINE
8
layer0
10
-3.7118722
20
-4.2157706
11
-3.670061
21
-4.1574555
0
LINE
8
layer0
10
-3.670061
20
-4.1574555
11
-3.6394008
21
-4.1033901
0
LINE
8
layer0
10
-3.6394008
20
-4.1033901
11
-3.6281295
21
-4.0782171
0
LINE
8
layer0
10
-3.6281295
20
-4.0782171
11
-3.6194604
21
-4.0544159
0
LINE
8
layer0
10
-3.6194604
20
-4.0544159
11
-3.613351
21
-4.0320855
0
LINE
8
layer0
10
-3.613351
20
-4.0320855
11
-3.6097306
21
-4.0113107
0
LINE
8
layer0
10
-3.6097306
20
-4.0113107
11
-3.6085285
21
-3.9922047
0
LINE
8
layer0
10
-3.6085285
20
-3.9922047
11
-3.609667
21
-3.9748452
0
LINE
8
layer0
10
-3.609667
20
-3.9748452
11
-3.6130894
21
-3.9593313
0
LINE
8
layer0
10
-3.6130894
20
-3.9593313
11
-3.6186967
21
-3.9457336
0
LINE
8
layer0
10
-3.6186967
20
-3.9457336
11
-3.6264254
21
-3.9341583
0
LINE
8
layer0
10
-3.6264254
20
-3.9341583
11
-3.6516833
21
-3.9099752
0
LINE
8
layer0
10
-3.6516833
20
-3.9099752
11
-3.7830213
21
-3.7830213
0
LINE
8
layer0
10
-3.7830213
20
-3.7830213
11
-3.9099752
21
-3.6516833
0
LINE
8
layer0
10
-3.9099752
20
-3.6516833
11
-3.9341583
21
-3.6264254
0
LINE
8
layer0
10
-3.9341583
20
-3.6264254
11
-3.9457336
21
-3.6186967
0
LINE
8
layer0
10
-3.9457336
20
-3.6186967
11
-3.9593313
21
-3.6130894
0
LINE
8
layer0
10
-3.9593313
20
-3.6130894
11
-3.9748452
21
-3.609667
0
LINE
8
layer0
10
-3.9748452
20
-3.609667
11
-3.9922047
21
-3.6085285
0
LINE
8
layer0
10
-3.9922047
20
-3.6085285
11
-4.0113107
21
-3.6097306
0
LINE
8
layer0
10
-4.0113107
20
-3.6097306
11
-4.0320855
21
-3.613351
0
LINE
8
layer0
10
-4.0320855
20
-3.613351
11
-4.0544159
21
-3.6194604
0
LINE
8
layer0
10
-4.0544159
20
-3.6194604
11
-4.0782171
21
-3.6281295
0
LINE
8
layer0
10
-4.0782171
20
-3.6281295
11
-4.1033901
21
-3.6394008
0
LINE
8
layer0
10
-4.1033901
20
-3.6394008
11
-4.1574555
21
-3.670061
0
LINE
8
layer0
10
-4.1574555
20
-3.670061
11
-4.2157706
21
-3.7118722
0
LINE
8
layer0
10
-4.2157706
20
-3.7118722
11
-4.2415164
21
-3.7326682
0
LINE
8
layer0
10
-4.2415164
20
-3.7326682
11
-4.2864035
21
-3.763795
0
LINE
8
layer0
10
-4.2864035
20
-3.763795
11
-4.3642984
21
-3.8088377
0
LINE
8
layer0
10
-4.3642984
20
-3.8088377
11
-4.4184911
21
-3.8359906
0
LINE
8
layer0
10
-4.4184911
20
-3.8359906
11
-4.4831489
21
-3.865081
0
LINE
8
layer0
10
-4.4831489
20
-3.865081
11
-4.5578618
21
-3.8949775
0
LINE
8
layer0
10
-4.5578618
20
-3.8949775
11
-4.6429763
21
-3.92498
0
LINE
8
layer0
10
-4.6429763
20
-3.92498
11
-4.7382023
21
-3.9541482
0
LINE
8
layer0
10
-4.7382023
20
-3.9541482
11
-4.8445088
21
-3.9819092
0
LINE
8
layer0
10
-4.8445088
20
-3.9819092
11
-4.9615491
21
-4.0073085
0
LINE
8
layer0
10
-4.9615491
20
-4.0073085
11
-5.0890546
21
-4.0294409
0
LINE
8
layer0
10
-5.0890546
20
-4.0294409
11
-5.2143716
21
-4.0460111
0
ARC
8
layer0
10
0.0000078
20
0.0000052
40
6.6
50
214.190876
51
217.8091165
0
LINE
8
layer0
10
-5.4593147
20
-3.7088759
11
-5.4048304
21
-3.5948128
0
LINE
8
layer0
10
-5.4048304
20
-3.5948128
11
-5.3443798
21
-3.4803872
0
LINE
8
layer0
10
-5.3443798
20
-3.4803872
11
-5.2840562
21
-3.376924
0
LINE
8
layer0
10
-5.2840562
20
-3.376924
11
-5.2248034
21
-3.2843992
0
LINE
8
layer0
10
-5.2248034
20
-3.2843992
11
-5.1676364
21
-3.2028473
0
LINE
8
layer0
10
-5.1676364
20
-3.2028473
11
-5.1128005
21
-3.1311699
0
LINE
8
layer0
10
-5.1128005
20
-3.1311699
11
-5.0612797
21
-3.0693523
0
LINE
8
layer0
10
-5.0612797
20
-3.0693523
11
-5.0136327
21
-3.0168484
0
LINE
8
layer0
10
-5.0136327
20
-3.0168484
11
-4.9710623
21
-2.9736988
0
LINE
8
layer0
10
-4.9710623
20
-2.9736988
11
-4.9041533
21
-2.9135354
0
LINE
8
layer0
10
-4.9041533
20
-2.9135354
11
-4.8606791
21
-2.8804639
0
LINE
8
layer0
10
-4.8606791
20
-2.8804639
11
-4.832945
21
-2.8624045
0
LINE
8
layer0
10
-4.832945
20
-2.8624045
11
-4.7751598
21
-2.819864
0
LINE
8
layer0
10
-4.7751598
20
-2.819864
11
-4.7292932
21
-2.7779192
0
LINE
8
layer0
10
-4.7292932
20
-2.7779192
11
-4.7107946
21
-2.7574613
0
LINE
8
layer0
10
-4.7107946
20
-2.7574613
11
-4.6951948
21
-2.7375039
0
LINE
8
layer0
10
-4.6951948
20
-2.7375039
11
-4.682484
21
-2.7181543
0
LINE
8
layer0
10
-4.682484
20
-2.7181543
11
-4.672621
21
-2.6995151
0
LINE
8
layer0
10
-4.672621
20
-2.6995151
11
-4.6655737
21
-2.6817156
0
LINE
8
layer0
10
-4.6655737
20
-2.6817156
11
-4.661292
21
-2.664854
0
LINE
8
layer0
10
-4.661292
20
-2.664854
11
-4.6597528
21
-2.6490418
0
LINE
8
layer0
10
-4.6597528
20
-2.6490418
11
-4.6608839
21
-2.6343769
0
LINE
8
layer0
10
-4.6608839
20
-2.6343769
11
-4.6646573
21
-2.6209798
0
LINE
8
layer0
10
-4.6646573
20
-2.6209798
11
-4.681206
21
-2.5901752
0
LINE
8
layer0
10
-4.681206
20
-2.5901752
11
-4.7668849
21
-2.4288492
0
LINE
8
layer0
10
-4.7668849
20
-2.4288492
11
-4.8470396
21
-2.2647084
0
LINE
8
layer0
10
-4.8470396
20
-2.2647084
11
-4.862234
21
-2.2332138
0
LINE
8
layer0
10
-4.862234
20
-2.2332138
11
-4.8708545
21
-2.2222864
0
LINE
8
layer0
10
-4.8708545
20
-2.2222864
11
-4.8820538
21
-2.2127515
0
LINE
8
layer0
10
-4.8820538
20
-2.2127515
11
-4.8957509
21
-2.2047026
0
LINE
8
layer0
10
-4.8957509
20
-2.2047026
11
-4.9119089
21
-2.1982555
0
LINE
8
layer0
10
-4.9119089
20
-2.1982555
11
-4.9304513
21
-2.1934947
0
LINE
8
layer0
10
-4.9304513
20
-2.1934947
11
-4.9513281
21
-2.1905181
0
LINE
8
layer0
10
-4.9513281
20
-2.1905181
11
-4.9744535
21
-2.189428
0
LINE
8
layer0
10
-4.9744535
20
-2.189428
11
-4.9997687
21
-2.1903178
0
LINE
8
layer0
10
-4.9997687
20
-2.1903178
11
-5.0271926
21
-2.1932586
0
LINE
8
layer0
10
-5.0271926
20
-2.1932586
11
-5.0880864
21
-2.205711
0
LINE
8
layer0
10
-5.0880864
20
-2.205711
11
-5.1564677
21
-2.2274555
0
LINE
8
layer0
10
-5.1564677
20
-2.2274555
11
-5.1873797
21
-2.2392778
0
LINE
8
layer0
10
-5.1873797
20
-2.2392778
11
-5.2396886
21
-2.2550103
0
LINE
8
layer0
10
-5.2396886
20
-2.2550103
11
-5.32769
21
-2.2737776
0
LINE
8
layer0
10
-5.32769
20
-2.2737776
11
-5.387621
21
-2.2828551
0
LINE
8
layer0
10
-5.387621
20
-2.2828551
11
-5.4581037
21
-2.2905413
0
LINE
8
layer0
10
-5.4581037
20
-2.2905413
11
-5.5383984
21
-2.295887
0
LINE
8
layer0
10
-5.5383984
20
-2.295887
11
-5.6286184
21
-2.2981193
0
LINE
8
layer0
10
-5.6286184
20
-2.2981193
11
-5.7281972
21
-2.2964334
0
LINE
8
layer0
10
-5.7281972
20
-2.2964334
11
-5.8378792
21
-2.2899852
0
LINE
8
layer0
10
-5.8378792
20
-2.2899852
11
-5.95704
21
-2.2779739
0
LINE
8
layer0
10
-5.95704
20
-2.2779739
11
-6.0851442
21
-2.2596217
0
LINE
8
layer0
10
-6.0851442
20
-2.2596217
11
-6.2094483
21
-2.2366558
0
ARC
8
layer0
10
0.0000089
20
0.0000026
40
6.6
50
196.190877
51
199.8091175
0
LINE
8
layer0
10
-6.3382225
20
-1.8403296
11
-6.2511574
21
-1.7486857
0
LINE
8
layer0
10
-6.2511574
20
-1.7486857
11
-6.158306
21
-1.6585407
0
LINE
8
layer0
10
-6.158306
20
-1.6585407
11
-6.068963
21
-1.5787824
0
LINE
8
layer0
10
-6.068963
20
-1.5787824
11
-5.9840185
21
-1.5090962
0
LINE
8
layer0
10
-5.9840185
20
-1.5090962
11
-5.9044485
21
-1.4492013
0
LINE
8
layer0
10
-5.9044485
20
-1.4492013
11
-5.8301469
21
-1.3979773
0
LINE
8
layer0
10
-5.8301469
20
-1.3979773
11
-5.762045
21
-1.355106
0
LINE
8
layer0
10
-5.762045
20
-1.355106
11
-5.7005055
21
-1.3198956
0
LINE
8
layer0
10
-5.7005055
20
-1.3198956
11
-5.6466847
21
-1.2920129
0
LINE
8
layer0
10
-5.6466847
20
-1.2920129
11
-5.5644589
21
-1.2554701
0
LINE
8
layer0
10
-5.5644589
20
-1.2554701
11
-5.5128928
21
-1.2374515
0
LINE
8
layer0
10
-5.5128928
20
-1.2374515
11
-5.4809355
21
-1.2288463
0
LINE
8
layer0
10
-5.4809355
20
-1.2288463
11
-5.4128327
21
-1.2062445
0
LINE
8
layer0
10
-5.4128327
20
-1.2062445
11
-5.3562493
21
-1.1805262
0
LINE
8
layer0
10
-5.3562493
20
-1.1805262
11
-5.3323343
21
-1.1667859
0
LINE
8
layer0
10
-5.3323343
20
-1.1667859
11
-5.3113309
21
-1.1526259
0
LINE
8
layer0
10
-5.3113309
20
-1.1526259
11
-5.2932628
21
-1.1381513
0
LINE
8
layer0
10
-5.2932628
20
-1.1381513
11
-5.2781227
21
-1.1234721
0
LINE
8
layer0
10
-5.2781227
20
-1.1234721
11
-5.2659199
21
-1.1087216
0
LINE
8
layer0
10
-5.2659199
20
-1.1087216
11
-5.2566373
21
-1.0940083
0
LINE
8
layer0
10
-5.2566373
20
-1.0940083
11
-5.2502872
21
-1.0794456
0
LINE
8
layer0
10
-5.2502872
20
-1.0794456
11
-5.2468312
21
-1.065149
0
LINE
8
layer0
10
-5.2468312
20
-1.065149
11
-5.24628
21
-1.0512415
0
LINE
8
layer0
10
-5.24628
20
-1.0512415
11
-5.2524996
21
-1.0168308
0
LINE
8
layer0
10
-5.2524996
20
-1.0168308
11
-5.2841326
21
-0.8369244
0
LINE
8
layer0
10
-5.2841326
20
-0.8369244
11
-5.309642
21
-0.656048
0
LINE
8
layer0
10
-5.309642
20
-0.656048
11
-5.3143603
21
-0.6213996
0
LINE
8
layer0
10
-5.3143603
20
-0.6213996
11
-5.3191821
21
-0.6083431
0
LINE
8
layer0
10
-5.3191821
20
-0.6083431
11
-5.3268869
21
-0.5958142
0
LINE
8
layer0
10
-5.3268869
20
-0.5958142
11
-5.3374263
21
-0.5839265
0
LINE
8
layer0
10
-5.3374263
20
-0.5839265
11
-5.3508013
21
-0.5728019
0
LINE
8
layer0
10
-5.3508013
20
-0.5728019
11
-5.366965
21
-0.5625441
0
LINE
8
layer0
10
-5.366965
20
-0.5625441
11
-5.3859001
21
-0.553262
0
LINE
8
layer0
10
-5.3859001
20
-0.553262
11
-5.4075568
21
-0.5450791
0
LINE
8
layer0
10
-5.4075568
20
-0.5450791
11
-5.431908
21
-0.5381026
0
LINE
8
layer0
10
-5.431908
20
-0.5381026
11
-5.4588985
21
-0.5324249
0
LINE
8
layer0
10
-5.4588985
20
-0.5324249
11
-5.5206599
21
-0.5254506
0
LINE
8
layer0
10
-5.5206599
20
-0.5254506
11
-5.5924138
21
-0.5249999
0
LINE
8
layer0
10
-5.5924138
20
-0.5249999
11
-5.6254662
21
-0.5266912
0
LINE
8
layer0
10
-5.6254662
20
-0.5266912
11
-5.6800765
21
-0.5254894
0
LINE
8
layer0
10
-5.6800765
20
-0.5254894
11
-5.7695702
21
-0.5161442
0
LINE
8
layer0
10
-5.7695702
20
-0.5161442
11
-5.8293731
21
-0.5062577
0
LINE
8
layer0
10
-5.8293731
20
-0.5062577
11
-5.8987813
21
-0.4917874
0
LINE
8
layer0
10
-5.8987813
20
-0.4917874
11
-5.976798
21
-0.472059
0
LINE
8
layer0
10
-5.976798
20
-0.472059
11
-6.0632921
21
-0.4463026
0
LINE
8
layer0
10
-6.0632921
20
-0.4463026
11
-6.1574762
21
-0.4139276
0
LINE
8
layer0
10
-6.1574762
20
-0.4139276
11
-6.2597974
21
-0.3739014
0
LINE
8
layer0
10
-6.2597974
20
-0.3739014
11
-6.3694144
21
-0.3256553
0
LINE
8
layer0
10
-6.3694144
20
-0.3256553
11
-6.4855776
21
-0.268615
0
LINE
8
layer0
10
-6.4855776
20
-0.268615
11
-6.5967009
21
-0.208361
0
ARC
8
layer0
10
0.0000093
20
0
40
6.6
50
178.1908795
51
181.8091197
0
LINE
8
layer0
10
-6.5967009
20
0.208361
11
-6.4855776
21
0.268615
0
LINE
8
layer0
10
-6.4855776
20
0.268615
11
-6.3694144
21
0.3256553
0
LINE
8
layer0
10
-6.3694144
20
0.3256553
11
-6.2597974
21
0.3739014
0
LINE
8
layer0
10
-6.2597974
20
0.3739014
11
-6.1574762
21
0.4139276
0
LINE
8
layer0
10
-6.1574762
20
0.4139276
11
-6.0632921
21
0.4463026
0
LINE
8
layer0
10
-6.0632921
20
0.4463026
11
-5.976798
21
0.472059
0
LINE
8
layer0
10
-5.976798
20
0.472059
11
-5.8987813
21
0.4917874
0
LINE
8
layer0
10
-5.8987813
20
0.4917874
11
-5.8293731
21
0.5062577
0
LINE
8
layer0
10
-5.8293731
20
0.5062577
11
-5.7695702
21
0.5161442
0
LINE
8
layer0
10
-5.7695702
20
0.5161442
11
-5.6800765
21
0.5254894
0
LINE
8
layer0
10
-5.6800765
20
0.5254894
11
-5.6254662
21
0.5266912
0
LINE
8
layer0
10
-5.6254662
20
0.5266912
11
-5.5924138
21
0.5249999
0
LINE
8
layer0
10
-5.5924138
20
0.5249999
11
-5.5206599
21
0.5254506
0
LINE
8
layer0
10
-5.5206599
20
0.5254506
11
-5.4588985
21
0.5324249
0
LINE
8
layer0
10
-5.4588985
20
0.5324249
11
-5.431908
21
0.5381026
0
LINE
8
layer0
10
-5.431908
20
0.5381026
11
-5.4075568
21
0.5450791
0
LINE
8
layer0
10
-5.4075568
20
0.5450791
11
-5.3859001
21
0.553262
0
LINE
8
layer0
10
-5.3859001
20
0.553262
11
-5.366965
21
0.5625441
0
LINE
8
layer0
10
-5.366965
20
0.5625441
11
-5.3508013
21
0.5728019
0
LINE
8
layer0
10
-5.3508013
20
0.5728019
11
-5.3374263
21
0.5839265
0
LINE
8
layer0
10
-5.3374263
20
0.5839265
11
-5.3268869
21
0.5958142
0
LINE
8
layer0
10
-5.3268869
20
0.5958142
11
-5.3191821
21
0.6083431
0
LINE
8
layer0
10
-5.3191821
20
0.6083431
11
-5.3143603
21
0.6213996
0
LINE
8
layer0
10
-5.3143603
20
0.6213996
11
-5.309642
21
0.656048
0
LINE
8
layer0
10
-5.309642
20
0.656048
11
-5.2841326
21
0.8369244
0
LINE
8
layer0
10
-5.2841326
20
0.8369244
11
-5.2524996
21
1.0168308
0
LINE
8
layer0
10
-5.2524996
20
1.0168308
11
-5.24628
21
1.0512415
0
LINE
8
layer0
10
-5.24628
20
1.0512415
11
-5.2468312
21
1.065149
0
LINE
8
layer0
10
-5.2468312
20
1.065149
11
-5.2502872
21
1.0794456
0
LINE
8
layer0
10
-5.2502872
20
1.0794456
11
-5.2566373
21
1.0940083
0
LINE
8
layer0
10
-5.2566373
20
1.0940083
11
-5.2659199
21
1.1087216
0
LINE
8
layer0
10
-5.2659199
20
1.1087216
11
-5.2781227
21
1.1234721
0
LINE
8
layer0
10
-5.2781227
20
1.1234721
11
-5.2932628
21
1.1381513
0
LINE
8
layer0
10
-5.2932628
20
1.1381513
11
-5.3113309
21
1.1526259
0
LINE
8
layer0
10
-5.3113309
20
1.1526259
11
-5.3323343
21
1.1667859
0
LINE
8
layer0
10
-5.3323343
20
1.1667859
11
-5.3562493
21
1.1805262
0
LINE
8
layer0
10
-5.3562493
20
1.1805262
11
-5.4128327
21
1.2062445
0
LINE
8
layer0
10
-5.4128327
20
1.2062445
11
-5.4809355
21
1.2288463
0
LINE
8
layer0
10
-5.4809355
20
1.2288463
11
-5.5128928
21
1.2374515
0
LINE
8
layer0
10
-5.5128928
20
1.2374515
11
-5.5644589
21
1.2554701
0
LINE
8
layer0
10
-5.5644589
20
1.2554701
11
-5.6466847
21
1.2920129
0
LINE
8
layer0
10
-5.6466847
20
1.2920129
11
-5.7005055
21
1.3198956
0
LINE
8
layer0
10
-5.7005055
20
1.3198956
11
-5.762045
21
1.355106
0
LINE
8
layer0
10
-5.762045
20
1.355106
11
-5.8301469
21
1.3979773
0
LINE
8
layer0
10
-5.8301469
20
1.3979773
11
-5.9044485
21
1.4492013
0
LINE
8
layer0
10
-5.9044485
20
1.4492013
11
-5.9840185
21
1.5090962
0
LINE
8
layer0
10
-5.9840185
20
1.5090962
11
-6.068963
21
1.5787824
0
LINE
8
layer0
10
-6.068963
20
1.5787824
11
-6.158306
21
1.6585407
0
LINE
8
layer0
10
-6.158306
20
1.6585407
11
-6.2511574
21
1.7486857
0
LINE
8
layer0
10
-6.2511574
20
1.7486857
11
-6.3382225
21
1.8403296
0
ARC
8
layer0
10
0.0000089
20
-0.0000025
40
6.6
50
160.1908825
51
163.809123
0
LINE
8
layer0
10
-6.2094483
20
2.2366558
11
-6.0851442
21
2.2596217
0
LINE
8
layer0
10
-6.0851442
20
2.2596217
11
-5.95704
21
2.2779739
0
LINE
8
layer0
10
-5.95704
20
2.2779739
11
-5.8378792
21
2.2899852
0
LINE
8
layer0
10
-5.8378792
20
2.2899852
11
-5.7281972
21
2.2964334
0
LINE
8
layer0
10
-5.7281972
20
2.2964334
11
-5.6286184
21
2.2981193
0
LINE
8
layer0
10
-5.6286184
20
2.2981193
11
-5.5383984
21
2.295887
0
LINE
8
layer0
10
-5.5383984
20
2.295887
11
-5.4581037
21
2.2905413
0
LINE
8
layer0
10
-5.4581037
20
2.2905413
11
-5.387621
21
2.2828551
0
LINE
8
layer0
10
-5.387621
20
2.2828551
11
-5.32769
21
2.2737776
0
LINE
8
layer0
10
-5.32769
20
2.2737776
11
-5.2396886
21
2.2550103
0
LINE
8
layer0
10
-5.2396886
20
2.2550103
11
-5.1873797
21
2.2392778
0
LINE
8
layer0
10
-5.1873797
20
2.2392778
11
-5.1564677
21
2.2274555
0
LINE
8
layer0
10
-5.1564677
20
2.2274555
11
-5.0880864
21
2.205711
0
LINE
8
layer0
10
-5.0880864
20
2.205711
11
-5.0271926
21
2.1932586
0
LINE
8
layer0
10
-5.0271926
20
2.1932586
11
-4.9997687
21
2.1903178
0
LINE
8
layer0
10
-4.9997687
20
2.1903178
11
-4.9744535
21
2.189428
0
LINE
8
layer0
10
-4.9744535
20
2.189428
11
-4.9513281
21
2.1905181
0
LINE
8
layer0
10
-4.9513281
20
2.1905181
11
-4.9304513
21
2.1934947
0
LINE
8
layer0
10
-4.9304513
20
2.1934947
11
-4.9119089
21
2.1982555
0
LINE
8
layer0
10
-4.9119089
20
2.1982555
11
-4.8957509
21
2.2047026
0
LINE
8
layer0
10
-4.8957509
20
2.2047026
11
-4.8820538
21
2.2127515
0
LINE
8
layer0
10
-4.8820538
20
2.2127515
11
-4.8708545
21
2.2222864
0
LINE
8
layer0
10
-4.8708545
20
2.2222864
11
-4.862234
21
2.2332138
0
LINE
8
layer0
10
-4.862234
20
2.2332138
11
-4.8470396
21
2.2647084
0
LINE
8
layer0
10
-4.8470396
20
2.2647084
11
-4.7668849
21
2.4288492
0
LINE
8
layer0
10
-4.7668849
20
2.4288492
11
-4.681206
21
2.5901752
0
LINE
8
layer0
10
-4.681206
20
2.5901752
11
-4.6646573
21
2.6209798
0
LINE
8
layer0
10
-4.6646573
20
2.6209798
11
-4.6608839
21
2.6343769
0
LINE
8
layer0
10
-4.6608839
20
2.6343769
11
-4.6597528
21
2.6490418
0
LINE
8
layer0
10
-4.6597528
20
2.6490418
11
-4.661292
21
2.664854
0
LINE
8
layer0
10
-4.661292
20
2.664854
11
-4.6655737
21
2.6817156
0
LINE
8
layer0
10
-4.6655737
20
2.6817156
11
-4.672621
21
2.6995151
0
LINE
8
layer0
10
-4.672621
20
2.6995151
11
-4.682484
21
2.7181543
0
LINE
8
layer0
10
-4.682484
20
2.7181543
11
-4.6951948
21
2.7375039
0
LINE
8
layer0
10
-4.6951948
20
2.7375039
11
-4.7107946
21
2.7574613
0
LINE
8
layer0
10
-4.7107946
20
2.7574613
11
-4.7292932
21
2.7779192
0
LINE
8
layer0
10
-4.7292932
20
2.7779192
11
-4.7751598
21
2.819864
0
LINE
8
layer0
10
-4.7751598
20
2.819864
11
-4.832945
21
2.8624045
0
LINE
8
layer0
10
-4.832945
20
2.8624045
11
-4.8606791
21
2.8804639
0
LINE
8
layer0
10
-4.8606791
20
2.8804639
11
-4.9041533
21
2.9135354
0
LINE
8
layer0
10
-4.9041533
20
2.9135354
11
-4.9710623
21
2.9736988
0
LINE
8
layer0
10
-4.9710623
20
2.9736988
11
-5.0136327
21
3.0168484
0
LINE
8
layer0
10
-5.0136327
20
3.0168484
11
-5.0612797
21
3.0693523
0
LINE
8
layer0
10
-5.0612797
20
3.0693523
11
-5.1128005
21
3.1311699
0
LINE
8
layer0
10
-5.1128005
20
3.1311699
11
-5.1676364
21
3.2028473
0
LINE
8
layer0
10
-5.1676364
20
3.2028473
11
-5.2248034
21
3.2843992
0
LINE
8
layer0
10
-5.2248034
20
3.2843992
11
-5.2840562
21
3.376924
0
LINE
8
layer0
10
-5.2840562
20
3.376924
11
-5.3443798
21
3.4803872
0
LINE
8
layer0
10
-5.3443798
20
3.4803872
11
-5.4048304
21
3.5948128
0
LINE
8
layer0
10
-5.4048304
20
3.5948128
11
-5.4593147
21
3.7088759
0
ARC
8
layer0
10
0.0000078
20
-0.0000051
40
6.6
50
142.1908835
51
145.809124
0
LINE
8
layer0
10
-5.2143716
20
4.0460111
11
-5.0890546
21
4.0294409
0
LINE
8
layer0
10
-5.0890546
20
4.0294409
11
-4.9615491
21
4.0073085
0
LINE
8
layer0
10
-4.9615491
20
4.0073085
11
-4.8445088
21
3.9819092
0
LINE
8
layer0
10
-4.8445088
20
3.9819092
11
-4.7382023
21
3.9541482
0
LINE
8
layer0
10
-4.7382023
20
3.9541482
11
-4.6429763
21
3.92498
0
LINE
8
layer0
10
-4.6429763
20
3.92498
11
-4.5578618
21
3.8949775
0
LINE
8
layer0
10
-4.5578618
20
3.8949775
11
-4.4831489
21
3.865081
0
LINE
8
layer0
10
-4.4831489
20
3.865081
11
-4.4184911
21
3.8359906
0
LINE
8
layer0
10
-4.4184911
20
3.8359906
11
-4.3642984
21
3.8088377
0
LINE
8
layer0
10
-4.3642984
20
3.8088377
11
-4.2864035
21
3.763795
0
LINE
8
layer0
10
-4.2864035
20
3.763795
11
-4.2415164
21
3.7326682
0
LINE
8
layer0
10
-4.2415164
20
3.7326682
11
-4.2157706
21
3.7118722
0
LINE
8
layer0
10
-4.2157706
20
3.7118722
11
-4.1574555
21
3.670061
0
LINE
8
layer0
10
-4.1574555
20
3.670061
11
-4.1033901
21
3.6394008
0
LINE
8
layer0
10
-4.1033901
20
3.6394008
11
-4.0782171
21
3.6281295
0
LINE
8
layer0
10
-4.0782171
20
3.6281295
11
-4.0544159
21
3.6194604
0
LINE
8
layer0
10
-4.0544159
20
3.6194604
11
-4.0320855
21
3.613351
0
LINE
8
layer0
10
-4.0320855
20
3.613351
11
-4.0113107
21
3.6097306
0
LINE
8
layer0
10
-4.0113107
20
3.6097306
11
-3.9922047
21
3.6085285
0
LINE
8
layer0
10
-3.9922047
20
3.6085285
11
-3.9748452
21
3.609667
0
LINE
8
layer0
10
-3.9748452
20
3.609667
11
-3.9593313
21
3.6130894
0
LINE
8
layer0
10
-3.9593313
20
3.6130894
11
-3.9457336
21
3.6186967
0
LINE
8
layer0
10
-3.9457336
20
3.6186967
11
-3.9341583
21
3.6264254
0
LINE
8
layer0
10
-3.9341583
20
3.6264254
11
-3.9099752
21
3.6516833
0
LINE
8
layer0
10
-3.9099752
20
3.6516833
11
-3.7830213
21
3.7830213
0
LINE
8
layer0
10
-3.7830213
20
3.7830213
11
-3.6516833
21
3.9099752
0
LINE
8
layer0
10
-3.6516833
20
3.9099752
11
-3.6264254
21
3.9341583
0
LINE
8
layer0
10
-3.6264254
20
3.9341583
11
-3.6186967
21
3.9457336
0
LINE
8
layer0
10
-3.6186967
20
3.9457336
11
-3.6130894
21
3.9593313
0
LINE
8
layer0
10
-3.6130894
20
3.9593313
11
-3.609667
21
3.9748452
0
LINE
8
layer0
10
-3.609667
20
3.9748452
11
-3.6085285
21
3.9922047
0
LINE
8
layer0
10
-3.6085285
20
3.9922047
11
-3.6097306
21
4.0113107
0
LINE
8
layer0
10
-3.6097306
20
4.0113107
11
-3.613351
21
4.0320855
0
LINE
8
layer0
10
-3.613351
20
4.0320855
11
-3.6194604
21
4.0544159
0
LINE
8
layer0
10
-3.6194604
20
4.0544159
11
-3.6281295
21
4.0782171
0
LINE
8
layer0
10
-3.6281295
20
4.0782171
11
-3.6394008
21
4.1033901
0
LINE
8
layer0
10
-3.6394008
20
4.1033901
11
-3.670061
21
4.1574555
0
LINE
8
layer0
10
-3.670061
20
4.1574555
11
-3.7118722
21
4.2157706
0
LINE
8
layer0
10
-3.7118722
20
4.2157706
11
-3.7326682
21
4.2415164
0
LINE
8
layer0
10
-3.7326682
20
4.2415164
11
-3.763795
21
4.2864035
0
LINE
8
layer0
10
-3.763795
20
4.2864035
11
-3.8088377
21
4.3642984
0
LINE
8
layer0
10
-3.8088377
20
4.3642984
11
-3.8359906
21
4.4184911
0
LINE
8
layer0
10
-3.8359906
20
4.4184911
11
-3.865081
21
4.4831489
0
LINE
8
layer0
10
-3.865081
20
4.4831489
11
-3.8949775
21
4.5578618
0
LINE
8
layer0
10
-3.8949775
20
4.5578618
11
-3.92498
21
4.6429763
0
LINE
8
layer0
10
-3.92498
20
4.6429763
11
-3.9541482
21
4.7382023
0
LINE
8
layer0
10
-3.9541482
20
4.7382023
11
-3.9819092
21
4.8445088
0
LINE
8
layer0
10
-3.9819092
20
4.8445088
11
-4.0073085
21
4.9615491
0
LINE
8
layer0
10
-4.0073085
20
4.9615491
11
-4.0294409
21
5.0890546
0
LINE
8
layer0
10
-4.0294409
20
5.0890546
11
-4.0460111
21
5.2143716
0
ARC
8
layer0
10
0.0000052
20
-0.0000078
40
6.6
50
124.190876
51
127.8091165
0
LINE
8
layer0
10
-3.7088759
20
5.4593147
11
-3.5948128
21
5.4048304
0
LINE
8
layer0
10
-3.5948128
20
5.4048304
11
-3.4803872
21
5.3443798
0
LINE
8
layer0
10
-3.4803872
20
5.3443798
11
-3.376924
21
5.2840562
0
LINE
8
layer0
10
-3.376924
20
5.2840562
11
-3.2843992
21
5.2248034
0
LINE
8
layer0
10
-3.2843992
20
5.2248034
11
-3.2028473
21
5.1676364
0
LINE
8
layer0
10
-3.2028473
20
5.1676364
11
-3.1311699
21
5.1128005
0
LINE
8
layer0
10
-3.1311699
20
5.1128005
11
-3.0693523
21
5.0612797
0
LINE
8
layer0
10
-3.0693523
20
5.0612797
11
-3.0168484
21
5.0136327
0
LINE
8
layer0
10
-3.0168484
20
5.0136327
11
-2.9736988
21
4.9710623
0
LINE
8
layer0
10
-2.9736988
20
4.9710623
11
-2.9135354
21
4.9041533
0
LINE
8
layer0
10
-2.9135354
20
4.9041533
11
-2.8804639
21
4.8606791
0
LINE
8
layer0
10
-2.8804639
20
4.8606791
11
-2.8624045
21
4.832945
0
LINE
8
layer0
10
-2.8624045
20
4.832945
11
-2.819864
21
4.7751598
0
LINE
8
layer0
10
-2.819864
20
4.7751598
11
-2.7779192
21
4.7292932
0
LINE
8
layer0
10
-2.7779192
20
4.7292932
11
-2.7574613
21
4.7107946
0
LINE
8
layer0
10
-2.7574613
20
4.7107946
11
-2.7375039
21
4.6951948
0
LINE
8
layer0
10
-2.7375039
20
4.6951948
11
-2.7181543
21
4.682484
0
LINE
8
layer0
10
-2.7181543
20
4.682484
11
-2.6995151
21
4.672621
0
LINE
8
layer0
10
-2.6995151
20
4.672621
11
-2.6817156
21
4.6655737
0
LINE
8
layer0
10
-2.6817156
20
4.6655737
11
-2.664854
21
4.661292
0
LINE
8
layer0
10
-2.664854
20
4.661292
11
-2.6490418
21
4.6597528
0
LINE
8
layer0
10
-2.6490418
20
4.6597528
11
-2.6343769
21
4.6608839
0
LINE
8
layer0
10
-2.6343769
20
4.6608839
11
-2.6209798
21
4.6646573
0
LINE
8
layer0
10
-2.6209798
20
4.6646573
11
-2.5901752
21
4.681206
0
LINE
8
layer0
10
-2.5901752
20
4.681206
11
-2.4288492
21
4.7668849
0
LINE
8
layer0
10
-2.4288492
20
4.7668849
11
-2.2647084
21
4.8470396
0
LINE
8
layer0
10
-2.2647084
20
4.8470396
11
-2.2332138
21
4.862234
0
LINE
8
layer0
10
-2.2332138
20
4.862234
11
-2.2222864
21
4.8708545
0
LINE
8
layer0
10
-2.2222864
20
4.8708545
11
-2.2127515
21
4.8820538
0
LINE
8
layer0
10
-2.2127515
20
4.8820538
11
-2.2047026
21
4.8957509
0
LINE
8
layer0
10
-2.2047026
20
4.8957509
11
-2.1982555
21
4.9119089
0
LINE
8
layer0
10
-2.1982555
20
4.9119089
11
-2.1934947
21
4.9304513
0
LINE
8
layer0
10
-2.1934947
20
4.9304513
11
-2.1905181
21
4.9513281
0
LINE
8
layer0
10
-2.1905181
20
4.9513281
11
-2.189428
21
4.9744535
0
LINE
8
layer0
10
-2.189428
20
4.9744535
11
-2.1903178
21
4.9997687
0
LINE
8
layer0
10
-2.1903178
20
4.9997687
11
-2.1932586
21
5.0271926
0
LINE
8
layer0
10
-2.1932586
20
5.0271926
11
-2.205711
21
5.0880864
0
LINE
8
layer0
10
-2.205711
20
5.0880864
11
-2.2274555
21
5.1564677
0
LINE
8
layer0
10
-2.2274555
20
5.1564677
11
-2.2392778
21
5.1873797
0
LINE
8
layer0
10
-2.2392778
20
5.1873797
11
-2.2550103
21
5.2396886
0
LINE
8
layer0
10
-2.2550103
20
5.2396886
11
-2.2737776
21
5.32769
0
LINE
8
layer0
10
-2.2737776
20
5.32769
11
-2.2828551
21
5.387621
0
LINE
8
layer0
10
-2.2828551
20
5.387621
11
-2.2905413
21
5.4581037
0
LINE
8
layer0
10
-2.2905413
20
5.4581037
11
-2.295887
21
5.5383984
0
LINE
8
layer0
10
-2.295887
20
5.5383984
11
-2.2981193
21
5.6286184
0
LINE
8
layer0
10
-2.2981193
20
5.6286184
11
-2.2964334
21
5.7281972
0
LINE
8
layer0
10
-2.2964334
20
5.7281972
11
-2.2899852
21
5.8378792
0
LINE
8
layer0
10
-2.2899852
20
5.8378792
11
-2.2779739
21
5.95704
0
LINE
8
layer0
10
-2.2779739
20
5.95704
11
-2.2596217
21
6.0851442
0
LINE
8
layer0
10
-2.2596217
20
6.0851442
11
-2.2366558
21
6.2094483
0
ARC
8
layer0
10
0.0000026
20
-0.0000089
40
6.6
50
106.190877
51
109.8091175
0
LINE
8
layer0
10
-1.8403296
20
6.3382225
11
-1.7486857
21
6.2511574
0
LINE
8
layer0
10
-1.7486857
20
6.2511574
11
-1.6585407
21
6.158306
0
LINE
8
layer0
10
-1.6585407
20
6.158306
11
-1.5787824
21
6.068963
0
LINE
8
layer0
10
-1.5787824
20
6.068963
11
-1.5090962
21
5.9840185
0
LINE
8
layer0
10
-1.5090962
20
5.9840185
11
-1.4492013
21
5.9044485
0
LINE
8
layer0
10
-1.4492013
20
5.9044485
11
-1.3979773
21
5.8301469
0
LINE
8
layer0
10
-1.3979773
20
5.8301469
11
-1.355106
21
5.762045
0
LINE
8
layer0
10
-1.355106
20
5.762045
11
-1.3198956
21
5.7005055
0
LINE
8
layer0
10
-1.3198956
20
5.7005055
11
-1.2920129
21
5.6466847
0
LINE
8
layer0
10
-1.2920129
20
5.6466847
11
-1.2554701
21
5.5644589
0
LINE
8
layer0
10
-1.2554701
20
5.5644589
11
-1.2374515
21
5.5128928
0
LINE
8
layer0
10
-1.2374515
20
5.5128928
11
-1.2288463
21
5.4809355
0
LINE
8
layer0
10
-1.2288463
20
5.4809355
11
-1.2062445
21
5.4128327
0
LINE
8
layer0
10
-1.2062445
20
5.4128327
11
-1.1805262
21
5.3562493
0
LINE
8
layer0
10
-1.1805262
20
5.3562493
11
-1.1667859
21
5.3323343
0
LINE
8
layer0
10
-1.1667859
20
5.3323343
11
-1.1526259
21
5.3113309
0
LINE
8
layer0
10
-1.1526259
20
5.3113309
11
-1.1381513
21
5.2932628
0
LINE
8
layer0
10
-1.1381513
20
5.2932628
11
-1.1234721
21
5.2781227
0
LINE
8
layer0
10
-1.1234721
20
5.2781227
11
-1.1087216
21
5.2659199
0
LINE
8
layer0
10
-1.1087216
20
5.2659199
11
-1.0940083
21
5.2566373
0
LINE
8
layer0
10
-1.0940083
20
5.2566373
11
-1.0794456
21
5.2502872
0
LINE
8
layer0
10
-1.0794456
20
5.2502872
11
-1.065149
21
5.2468312
0
LINE
8
layer0
10
-1.065149
20
5.2468312
11
-1.0512415
21
5.24628
0
LINE
8
layer0
10
-1.0512415
20
5.24628
11
-1.0168308
21
5.2524996
0
LINE
8
layer0
10
-1.0168308
20
5.2524996
11
-0.8369244
21
5.2841326
0
LINE
8
layer0
10
-0.8369244
20
5.2841326
11
-0.656048
21
5.309642
0
LINE
8
layer0
10
-0.656048
20
5.309642
11
-0.6213996
21
5.3143603
0
LINE
8
layer0
10
-0.6213996
20
5.3143603
11
-0.6083431
21
5.3191821
0
LINE
8
layer0
10
-0.6083431
20
5.3191821
11
-0.5958142
21
5.3268869
0
LINE
8
layer0
10
-0.5958142
20
5.3268869
11
-0.5839265
21
5.3374263
0
LINE
8
layer0
10
-0.5839265
20
5.3374263
11
-0.5728019
21
5.3508013
0
LINE
8
layer0
10
-0.5728019
20
5.3508013
11
-0.5625441
21
5.366965
0
LINE
8
layer0
10
-0.5625441
20
5.366965
11
-0.553262
21
5.3859001
0
LINE
8
layer0
10
-0.553262
20
5.3859001
11
-0.5450791
21
5.4075568
0
LINE
8
layer0
10
-0.5450791
20
5.4075568
11
-0.5381026
21
5.431908
0
LINE
8
layer0
10
-0.5381026
20
5.431908
11
-0.5324249
21
5.4588985
0
LINE
8
layer0
10
-0.5324249
20
5.4588985
11
-0.5254506
21
5.5206599
0
LINE
8
layer0
10
-0.5254506
20
5.5206599
11
-0.5249999
21
5.5924138
0
LINE
8
layer0
10
-0.5249999
20
5.5924138
11
-0.5266912
21
5.6254662
0
LINE
8
layer0
10
-0.5266912
20
5.6254662
11
-0.5254894
21
5.6800765
0
LINE
8
layer0
10
-0.5254894
20
5.6800765
11
-0.5161442
21
5.7695702
0
LINE
8
layer0
10
-0.5161442
20
5.7695702
11
-0.5062577
21
5.8293731
0
LINE
8
layer0
10
-0.5062577
20
5.8293731
11
-0.4917874
21
5.8987813
0
LINE
8
layer0
10
-0.4917874
20
5.8987813
11
-0.472059
21
5.976798
0
LINE
8
layer0
10
-0.472059
20
5.976798
11
-0.4463026
21
6.0632921
0
LINE
8
layer0
10
-0.4463026
20
6.0632921
11
-0.4139276
21
6.1574762
0
LINE
8
layer0
10
-0.4139276
20
6.1574762
11
-0.3739014
21
6.2597974
0
LINE
8
layer0
10
-0.3739014
20
6.2597974
11
-0.3256553
21
6.3694144
0
LINE
8
layer0
10
-0.3256553
20
6.3694144
11
-0.268615
21
6.4855776
0
LINE
8
layer0
10
-0.268615
20
6.4855776
11
-0.208361
21
6.5967009
0
ARC
8
layer0
10
0
20
-0.0000093
40
6.6
50
88.1908795
51
91.8091197
0
LINE
8
layer0
10
0.208361
20
6.5967009
11
0.268615
21
6.4855776
0
LINE
8
layer0
10
0.268615
20
6.4855776
11
0.3256553
21
6.3694144
0
LINE
8
layer0
10
0.3256553
20
6.3694144
11
0.3739014
21
6.2597974
0
LINE
8
layer0
10
0.3739014
20
6.2597974
11
0.4139276
21
6.1574762
0
LINE
8
layer0
10
0.4139276
20
6.1574762
11
0.4463026
21
6.0632921
0
LINE
8
layer0
10
0.4463026
20
6.0632921
11
0.472059
21
5.976798
0
LINE
8
layer0
10
0.472059
20
5.976798
11
0.4917874
21
5.8987813
0
LINE
8
layer0
10
0.4917874
20
5.8987813
11
0.5062577
21
5.8293731
0
LINE
8
layer0
10
0.5062577
20
5.8293731
11
0.5161442
21
5.7695702
0
LINE
8
layer0
10
0.5161442
20
5.7695702
11
0.5254894
21
5.6800765
0
LINE
8
layer0
10
0.5254894
20
5.6800765
11
0.5266912
21
5.6254662
0
LINE
8
layer0
10
0.5266912
20
5.6254662
11
0.5249999
21
5.5924138
0
LINE
8
layer0
10
0.5249999
20
5.5924138
11
0.5254506
21
5.5206599
0
LINE
8
layer0
10
0.5254506
20
5.5206599
11
0.5324249
21
5.4588985
0
LINE
8
layer0
10
0.5324249
20
5.4588985
11
0.5381026
21
5.431908
0
LINE
8
layer0
10
0.5381026
20
5.431908
11
0.5450791
21
5.4075568
0
LINE
8
layer0
10
0.5450791
20
5.4075568
11
0.553262
21
5.3859001
0
LINE
8
layer0
10
0.553262
20
5.3859001
11
0.5625441
21
5.366965
0
LINE
8
layer0
10
0.5625441
20
5.366965
11
0.5728019
21
5.3508013
0
LINE
8
layer0
10
0.5728019
20
5.3508013
11
0.5839265
21
5.3374263
0
LINE
8
layer0
10
0.5839265
20
5.3374263
11
0.5958142
21
5.3268869
0
LINE
8
layer0
10
0.5958142
20
5.3268869
11
0.6083431
21
5.3191821
0
LINE
8
layer0
10
0.6083431
20
5.3191821
11
0.6213996
21
5.3143603
0
LINE
8
layer0
10
0.6213996
20
5.3143603
11
0.656048
21
5.309642
0
LINE
8
layer0
10
0.656048
20
5.309642
11
0.8369244
21
5.2841326
0
LINE
8
layer0
10
0.8369244
20
5.2841326
11
1.0168308
21
5.2524996
0
LINE
8
layer0
10
1.0168308
20
5.2524996
11
1.0512415
21
5.24628
0
LINE
8
layer0
10
1.0512415
20
5.24628
11
1.065149
21
5.2468312
0
LINE
8
layer0
10
1.065149
20
5.2468312
11
1.0794456
21
5.2502872
0
LINE
8
layer0
10
1.0794456
20
5.2502872
11
1.0940083
21
5.2566373
0
LINE
8
layer0
10
1.0940083
20
5.2566373
11
1.1087216
21
5.2659199
0
LINE
8
layer0
10
1.1087216
20
5.2659199
11
1.1234721
21
5.2781227
0
LINE
8
layer0
10
1.1234721
20
5.2781227
11
1.1381513
21
5.2932628
0
LINE
8
layer0
10
1.1381513
20
5.2932628
11
1.1526259
21
5.3113309
0
LINE
8
layer0
10
1.1526259
20
5.3113309
11
1.1667859
21
5.3323343
0
LINE
8
layer0
10
1.1667859
20
5.3323343
11
1.1805262
21
5.3562493
0
LINE
8
layer0
10
1.1805262
20
5.3562493
11
1.2062445
21
5.4128327
0
LINE
8
layer0
10
1.2062445
20
5.4128327
11
1.2288463
21
5.4809355
0
LINE
8
layer0
10
1.2288463
20
5.4809355
11
1.2374515
21
5.5128928
0
LINE
8
layer0
10
1.2374515
20
5.5128928
11
1.2554701
21
5.5644589
0
LINE
8
layer0
10
1.2554701
20
5.5644589
11
1.2920129
21
5.6466847
0
LINE
8
layer0
10
1.2920129
20
5.6466847
11
1.3198956
21
5.7005055
0
LINE
8
layer0
10
1.3198956
20
5.7005055
11
1.355106
21
5.762045
0
LINE
8
layer0
10
1.355106
20
5.762045
11
1.3979773
21
5.8301469
0
LINE
8
layer0
10
1.3979773
20
5.8301469
11
1.4492013
21
5.9044485
0
LINE
8
layer0
10
1.4492013
20
5.9044485
11
1.5090962
21
5.9840185
0
LINE
8
layer0
10
1.5090962
20
5.9840185
11
1.5787824
21
6.068963
0
LINE
8
layer0
10
1.5787824
20
6.068963
11
1.6585407
21
6.158306
0
LINE
8
layer0
10
1.6585407
20
6.158306
11
1.7486857
21
6.2511574
0
LINE
8
layer0
10
1.7486857
20
6.2511574
11
1.8403296
21
6.3382225
0
ARC
8
layer0
10
-0.0000025
20
-0.0000089
40
6.6
50
70.1908825
51
73.809123
0
LINE
8
layer0
10
2.2366558
20
6.2094483
11
2.2596217
21
6.0851442
0
LINE
8
layer0
10
2.2596217
20
6.0851442
11
2.2779739
21
5.95704
0
LINE
8
layer0
10
2.2779739
20
5.95704
11
2.2899852
21
5.8378792
0
LINE
8
layer0
10
2.2899852
20
5.8378792
11
2.2964334
21
5.7281972
0
LINE
8
layer0
10
2.2964334
20
5.7281972
11
2.2981193
21
5.6286184
0
LINE
8
layer0
10
2.2981193
20
5.6286184
11
2.295887
21
5.5383984
0
LINE
8
layer0
10
2.295887
20
5.5383984
11
2.2905413
21
5.4581037
0
LINE
8
layer0
10
2.2905413
20
5.4581037
11
2.2828551
21
5.387621
0
LINE
8
layer0
10
2.2828551
20
5.387621
11
2.2737776
21
5.32769
0
LINE
8
layer0
10
2.2737776
20
5.32769
11
2.2550103
21
5.2396886
0
LINE
8
layer0
10
2.2550103
20
5.2396886
11
2.2392778
21
5.1873797
0
LINE
8
layer0
10
2.2392778
20
5.1873797
11
2.2274555
21
5.1564677
0
LINE
8
layer0
10
2.2274555
20
5.1564677
11
2.205711
21
5.0880864
0
LINE
8
layer0
10
2.205711
20
5.0880864
11
2.1932586
21
5.0271926
0
LINE
8
layer0
10
2.1932586
20
5.0271926
11
2.1903178
21
4.9997687
0
LINE
8
layer0
10
2.1903178
20
4.9997687
11
2.189428
21
4.9744535
0
LINE
8
layer0
10
2.189428
20
4.9744535
11
2.1905181
21
4.9513281
0
LINE
8
layer0
10
2.1905181
20
4.9513281
11
2.1934947
21
4.9304513
0
LINE
8
layer0
10
2.1934947
20
4.9304513
11
2.1982555
21
4.9119089
0
LINE
8
layer0
10
2.1982555
20
4.9119089
11
2.2047026
21
4.8957509
0
LINE
8
layer0
10
2.2047026
20
4.8957509
11
2.2127515
21
4.8820538
0
LINE
8
layer0
10
2.2127515
20
4.8820538
11
2.2222864
21
4.8708545
0
LINE
8
layer0
10
2.2222864
20
4.8708545
11
2.2332138
21
4.862234
0
LINE
8
layer0
10
2.2332138
20
4.862234
11
2.2647084
21
4.8470396
0
LINE
8
layer0
10
2.2647084
20
4.8470396
11
2.4288492
21
4.7668849
0
LINE
8
layer0
10
2.4288492
20
4.7668849
11
2.5901752
21
4.681206
0
LINE
8
layer0
10
2.5901752
20
4.681206
11
2.6209798
21
4.6646573
0
LINE
8
layer0
10
2.6209798
20
4.6646573
11
2.6343769
21
4.6608839
0
LINE
8
layer0
10
2.6343769
20
4.6608839
11
2.6490418
21
4.6597528
0
LINE
8
layer0
10
2.6490418
20
4.6597528
11
2.664854
21
4.661292
0
LINE
8
layer0
10
2.664854
20
4.661292
11
2.6817156
21
4.6655737
0
LINE
8
layer0
10
2.6817156
20
4.6655737
11
2.6995151
21
4.672621
0
LINE
8
layer0
10
2.6995151
20
4.672621
11
2.7181543
21
4.682484
0
LINE
8
layer0
10
2.7181543
20
4.682484
11
2.7375039
21
4.6951948
0
LINE
8
layer0
10
2.7375039
20
4.6951948
11
2.7574613
21
4.7107946
0
LINE
8
layer0
10
2.7574613
20
4.7107946
11
2.7779192
21
4.7292932
0
LINE
8
layer0
10
2.7779192
20
4.7292932
11
2.819864
21
4.7751598
0
LINE
8
layer0
10
2.819864
20
4.7751598
11
2.8624045
21
4.832945
0
LINE
8
layer0
10
2.8624045
20
4.832945
11
2.8804639
21
4.8606791
0
LINE
8
layer0
10
2.8804639
20
4.8606791
11
2.9135354
21
4.9041533
0
LINE
8
layer0
10
2.9135354
20
4.9041533
11
2.9736988
21
4.9710623
0
LINE
8
layer0
10
2.9736988
20
4.9710623
11
3.0168484
21
5.0136327
0
LINE
8
layer0
10
3.0168484
20
5.0136327
11
3.0693523
21
5.0612797
0
LINE
8
layer0
10
3.0693523
20
5.0612797
11
3.1311699
21
5.1128005
0
LINE
8
layer0
10
3.1311699
20
5.1128005
11
3.2028473
21
5.1676364
0
LINE
8
layer0
10
3.2028473
20
5.1676364
11
3.2843992
21
5.2248034
0
LINE
8
layer0
10
3.2843992
20
5.2248034
11
3.376924
21
5.2840562
0
LINE
8
layer0
10
3.376924
20
5.2840562
11
3.4803872
21
5.3443798
0
LINE
8
layer0
10
3.4803872
20
5.3443798
11
3.5948128
21
5.4048304
0
LINE
8
layer0
10
3.5948128
20
5.4048304
11
3.7088759
21
5.4593147
0
ARC
8
layer0
10
-0.0000051
20
-0.0000078
40
6.6
50
52.1908835
51
55.809124
0
LINE
8
layer0
10
4.0460111
20
5.2143716
11
4.0294409
21
5.0890546
0
LINE
8
layer0
10
4.0294409
20
5.0890546
11
4.0073085
21
4.9615491
0
LINE
8
layer0
10
4.0073085
20
4.9615491
11
3.9819092
21
4.8445088
0
LINE
8
layer0
10
3.9819092
20
4.8445088
11
3.9541482
21
4.7382023
0
LINE
8
layer0
10
3.9541482
20
4.7382023
11
3.92498
21
4.6429763
0
LINE
8
layer0
10
3.92498
20
4.6429763
11
3.8949775
21
4.5578618
0
LINE
8
layer0
10
3.8949775
20
4.5578618
11
3.865081
21
4.4831489
0
LINE
8
layer0
10
3.865081
20
4.4831489
11
3.8359906
21
4.4184911
0
LINE
8
layer0
10
3.8359906
20
4.4184911
11
3.8088377
21
4.3642984
0
LINE
8
layer0
10
3.8088377
20
4.3642984
11
3.763795
21
4.2864035
0
LINE
8
layer0
10
3.763795
20
4.2864035
11
3.7326682
21
4.2415164
0
LINE
8
layer0
10
3.7326682
20
4.2415164
11
3.7118722
21
4.2157706
0
LINE
8
layer0
10
3.7118722
20
4.2157706
11
3.670061
21
4.1574555
0
LINE
8
layer0
10
3.670061
20
4.1574555
11
3.6394008
21
4.1033901
0
LINE
8
layer0
10
3.6394008
20
4.1033901
11
3.6281295
21
4.0782171
0
LINE
8
layer0
10
3.6281295
20
4.0782171
11
3.6194604
21
4.0544159
0
LINE
8
layer0
10
3.6194604
20
4.0544159
11
3.613351
21
4.0320855
0
LINE
8
layer0
10
3.613351
20
4.0320855
11
3.6097306
21
4.0113107
0
LINE
8
layer0
10
3.6097306
20
4.0113107
11
3.6085285
21
3.9922047
0
LINE
8
layer0
10
3.6085285
20
3.9922047
11
3.609667
21
3.9748452
0
LINE
8
layer0
10
3.609667
20
3.9748452
11
3.6130894
21
3.9593313
0
LINE
8
layer0
10
3.6130894
20
3.9593313
11
3.6186967
21
3.9457336
0
LINE
8
layer0
10
3.6186967
20
3.9457336
11
3.6264254
21
3.9341583
0
LINE
8
layer0
10
3.6264254
20
3.9341583
11
3.6516833
21
3.9099752
0
LINE
8
layer0
10
3.6516833
20
3.9099752
11
3.7830213
21
3.7830213
0
LINE
8
layer0
10
3.7830213
20
3.7830213
11
3.9099752
21
3.6516833
0
LINE
8
layer0
10
3.9099752
20
3.6516833
11
3.9341583
21
3.6264254
0
LINE
8
layer0
10
3.9341583
20
3.6264254
11
3.9457336
21
3.6186967
0
LINE
8
layer0
10
3.9457336
20
3.6186967
11
3.9593313
21
3.6130894
0
LINE
8
layer0
10
3.9593313
20
3.6130894
11
3.9748452
21
3.609667
0
LINE
8
layer0
10
3.9748452
20
3.609667
11
3.9922047
21
3.6085285
0
LINE
8
layer0
10
3.9922047
20
3.6085285
11
4.0113107
21
3.6097306
0
LINE
8
layer0
10
4.0113107
20
3.6097306
11
4.0320855
21
3.613351
0
LINE
8
layer0
10
4.0320855
20
3.613351
11
4.0544159
21
3.6194604
0
LINE
8
layer0
10
4.0544159
20
3.6194604
11
4.0782171
21
3.6281295
0
LINE
8
layer0
10
4.0782171
20
3.6281295
11
4.1033901
21
3.6394008
0
LINE
8
layer0
10
4.1033901
20
3.6394008
11
4.1574555
21
3.670061
0
LINE
8
layer0
10
4.1574555
20
3.670061
11
4.2157706
21
3.7118722
0
LINE
8
layer0
10
4.2157706
20
3.7118722
11
4.2415164
21
3.7326682
0
LINE
8
layer0
10
4.2415164
20
3.7326682
11
4.2864035
21
3.763795
0
LINE
8
layer0
10
4.2864035
20
3.763795
11
4.3642984
21
3.8088377
0
LINE
8
layer0
10
4.3642984
20
3.8088377
11
4.4184911
21
3.8359906
0
LINE
8
layer0
10
4.4184911
20
3.8359906
11
4.4831489
21
3.865081
0
LINE
8
layer0
10
4.4831489
20
3.865081
11
4.5578618
21
3.8949775
0
LINE
8
layer0
10
4.5578618
20
3.8949775
11
4.6429763
21
3.92498
0
LINE
8
layer0
10
4.6429763
20
3.92498
11
4.7382023
21
3.9541482
0
LINE
8
layer0
10
4.7382023
20
3.9541482
11
4.8445088
21
3.9819092
0
LINE
8
layer0
10
4.8445088
20
3.9819092
11
4.9615491
21
4.0073085
0
LINE
8
layer0
10
4.9615491
20
4.0073085
11
5.0890546
21
4.0294409
0
LINE
8
layer0
10
5.0890546
20
4.0294409
11
5.2143716
21
4.0460111
0
ARC
8
layer0
10
-0.0000078
20
-0.0000052
40
6.6
50
34.190876
51
37.8091165
0
LINE
8
layer0
10
5.4593147
20
3.7088759
11
5.4048304
21
3.5948128
0
LINE
8
layer0
10
5.4048304
20
3.5948128
11
5.3443798
21
3.4803872
0
LINE
8
layer0
10
5.3443798
20
3.4803872
11
5.2840562
21
3.376924
0
LINE
8
layer0
10
5.2840562
20
3.376924
11
5.2248034
21
3.2843992
0
LINE
8
layer0
10
5.2248034
20
3.2843992
11
5.1676364
21
3.2028473
0
LINE
8
layer0
10
5.1676364
20
3.2028473
11
5.1128005
21
3.1311699
0
LINE
8
layer0
10
5.1128005
20
3.1311699
11
5.0612797
21
3.0693523
0
LINE
8
layer0
10
5.0612797
20
3.0693523
11
5.0136327
21
3.0168484
0
LINE
8
layer0
10
5.0136327
20
3.0168484
11
4.9710623
21
2.9736988
0
LINE
8
layer0
10
4.9710623
20
2.9736988
11
4.9041533
21
2.9135354
0
LINE
8
layer0
10
4.9041533
20
2.9135354
11
4.8606791
21
2.8804639
0
LINE
8
layer0
10
4.8606791
20
2.8804639
11
4.832945
21
2.8624045
0
LINE
8
layer0
10
4.832945
20
2.8624045
11
4.7751598
21
2.819864
0
LINE
8
layer0
10
4.7751598
20
2.819864
11
4.7292932
21
2.7779192
0
LINE
8
layer0
10
4.7292932
20
2.7779192
11
4.7107946
21
2.7574613
0
LINE
8
layer0
10
4.7107946
20
2.7574613
11
4.6951948
21
2.7375039
0
LINE
8
layer0
10
4.6951948
20
2.7375039
11
4.682484
21
2.7181543
0
LINE
8
layer0
10
4.682484
20
2.7181543
11
4.672621
21
2.6995151
0
LINE
8
layer0
10
4.672621
20
2.6995151
11
4.6655737
21
2.6817156
0
LINE
8
layer0
10
4.6655737
20
2.6817156
11
4.661292
21
2.664854
0
LINE
8
layer0
10
4.661292
20
2.664854
11
4.6597528
21
2.6490418
0
LINE
8
layer0
10
4.6597528
20
2.6490418
11
4.6608839
21
2.6343769
0
LINE
8
layer0
10
4.6608839
20
2.6343769
11
4.6646573
21
2.6209798
0
LINE
8
layer0
10
4.6646573
20
2.6209798
11
4.681206
21
2.5901752
0
LINE
8
layer0
10
4.681206
20
2.5901752
11
4.7668849
21
2.4288492
0
LINE
8
layer0
10
4.7668849
20
2.4288492
11
4.8470396
21
2.2647084
0
LINE
8
layer0
10
4.8470396
20
2.2647084
11
4.862234
21
2.2332138
0
LINE
8
layer0
10
4.862234
20
2.2332138
11
4.8708545
21
2.2222864
0
LINE
8
layer0
10
4.8708545
20
2.2222864
11
4.8820538
21
2.2127515
0
LINE
8
layer0
10
4.8820538
20
2.2127515
11
4.8957509
21
2.2047026
0
LINE
8
layer0
10
4.8957509
20
2.2047026
11
4.9119089
21
2.1982555
0
LINE
8
layer0
10
4.9119089
20
2.1982555
11
4.9304513
21
2.1934947
0
LINE
8
layer0
10
4.9304513
20
2.1934947
11
4.9513281
21
2.1905181
0
LINE
8
layer0
10
4.9513281
20
2.1905181
11
4.9744535
21
2.189428
0
LINE
8
layer0
10
4.9744535
20
2.189428
11
4.9997687
21
2.1903178
0
LINE
8
layer0
10
4.9997687
20
2.1903178
11
5.0271926
21
2.1932586
0
LINE
8
layer0
10
5.0271926
20
2.1932586
11
5.0880864
21
2.205711
0
LINE
8
layer0
10
5.0880864
20
2.205711
11
5.1564677
21
2.2274555
0
LINE
8
layer0
10
5.1564677
20
2.2274555
11
5.1873797
21
2.2392778
0
LINE
8
layer0
10
5.1873797
20
2.2392778
11
5.2396886
21
2.2550103
0
LINE
8
layer0
10
5.2396886
20
2.2550103
11
5.32769
21
2.2737776
0
LINE
8
layer0
10
5.32769
20
2.2737776
11
5.387621
21
2.2828551
0
LINE
8
layer0
10
5.387621
20
2.2828551
11
5.4581037
21
2.2905413
0
LINE
8
layer0
10
5.4581037
20
2.2905413
11
5.5383984
21
2.295887
0
LINE
8
layer0
10
5.5383984
20
2.295887
11
5.6286184
21
2.2981193
0
LINE
8
layer0
10
5.6286184
20
2.2981193
11
5.7281972
21
2.2964334
0
LINE
8
layer0
10
5.7281972
20
2.2964334
11
5.8378792
21
2.2899852
0
LINE
8
layer0
10
5.8378792
20
2.2899852
11
5.95704
21
2.2779739
0
LINE
8
layer0
10
5.95704
20
2.2779739
11
6.0851442
21
2.2596217
0
LINE
8
layer0
10
6.0851442
20
2.2596217
11
6.2094483
21
2.2366558
0
ARC
8
layer0
10
-0.0000089
20
-0.0000026
40
6.6
50
16.190877
51
19.8091175
0
LINE
8
layer0
10
6.3382225
20
1.8403296
11
6.2511574
21
1.7486857
0
LINE
8
layer1
10
6.2511574
20
1.7486857
11
6.158306
21
1.6585407
0
LINE
8
layer1
10
6.158306
20
1.6585407
11
6.068963
21
1.5787824
0
LINE
8
layer1
10
6.068963
20
1.5787824
11
5.9840185
21
1.5090962
0
LINE
8
layer1
10
5.9840185
20
1.5090962
11
5.9044485
21
1.4492013
0
LINE
8
layer1
10
5.9044485
20
1.4492013
11
5.8301469
21
1.3979773
0
LINE
8
layer1
10
5.8301469
20
1.3979773
11
5.762045
21
1.355106
0
LINE
8
layer1
10
5.762045
20
1.355106
11
5.7005055
21
1.3198956
0
LINE
8
layer1
10
5.7005055
20
1.3198956
11
5.6466847
21
1.2920129
0
LINE
8
layer1
10
5.6466847
20
1.2920129
11
5.5644589
21
1.2554701
0
LINE
8
layer1
10
5.5644589
20
1.2554701
11
5.5128928
21
1.2374515
0
LINE
8
layer1
10
5.5128928
20
1.2374515
11
5.4809355
21
1.2288463
0
LINE
8
layer1
10
5.4809355
20
1.2288463
11
5.4128327
21
1.2062445
0
LINE
8
layer1
10
5.4128327
20
1.2062445
11
5.3562493
21
1.1805262
0
LINE
8
layer1
10
5.3562493
20
1.1805262
11
5.3323343
21
1.1667859
0
LINE
8
layer1
10
5.3323343
20
1.1667859
11
5.3113309
21
1.1526259
0
LINE
8
layer1
10
5.3113309
20
1.1526259
11
5.2932628
21
1.1381513
0
LINE
8
layer1
10
5.2932628
20
1.1381513
11
5.2781227
21
1.1234721
0
LINE
8
layer1
10
5.2781227
20
1.1234721
11
5.2659199
21
1.1087216
0
LINE
8
layer1
10
5.2659199
20
1.1087216
11
5.2566373
21
1.0940083
0
LINE
8
layer1
10
5.2566373
20
1.0940083
11
5.2502872
21
1.0794456
0
LINE
8
layer1
10
5.2502872
20
1.0794456
11
5.2468312
21
1.065149
0
LINE
8
layer1
10
5.2468312
20
1.065149
11
5.24628
21
1.0512415
0
LINE
8
layer1
10
5.24628
20
1.0512415
11
5.2524996
21
1.0168308
0
LINE
8
layer1
10
5.2524996
20
1.0168308
11
5.2841326
21
0.8369244
0
LINE
8
layer1
10
5.2841326
20
0.8369244
11
5.309642
21
0.656048
0
LINE
8
layer1
10
5.309642
20
0.656048
11
5.3143603
21
0.6213996
0
LINE
8
layer1
10
5.3143603
20
0.6213996
11
5.3191821
21
0.6083431
0
LINE
8
layer1
10
5.3191821
20
0.6083431
11
5.3268869
21
0.5958142
0
LINE
8
layer1
10
5.3268869
20
0.5958142
11
5.3374263
21
0.5839265
0
LINE
8
layer1
10
5.3374263
20
0.5839265
11
5.3508013
21
0.5728019
0
LINE
8
layer1
10
5.3508013
20
0.5728019
11
5.366965
21
0.5625441
0
LINE
8
layer1
10
5.366965
20
0.5625441
11
5.3859001
21
0.553262
0
LINE
8
layer1
10
5.3859001
20
0.553262
11
5.4075568
21
0.5450791
0
LINE
8
layer1
10
5.4075568
20
0.5450791
11
5.431908
21
0.5381026
0
LINE
8
layer1
10
5.431908
20
0.5381026
11
5.4588985
21
0.5324249
0
LINE
8
layer1
10
5.4588985
20
0.5324249
11
5.5206599
21
0.5254506
0
LINE
8
layer1
10
5.5206599
20
0.5254506
11
5.5924138
21
0.5249999
0
LINE
8
layer1
10
5.5924138
20
0.5249999
11
5.6254662
21
0.5266912
0
LINE
8
layer1
10
5.6254662
20
0.5266912
11
5.6800765
21
0.5254894
0
LINE
8
layer1
10
5.6800765
20
0.5254894
11
5.7695702
21
0.5161442
0
LINE
8
layer1
10
5.7695702
20
0.5161442
11
5.8293731
21
0.5062577
0
LINE
8
layer1
10
5.8293731
20
0.5062577
11
5.8987813
21
0.4917874
0
LINE
8
layer1
10
5.8987813
20
0.4917874
11
5.976798
21
0.472059
0
LINE
8
layer1
10
5.976798
20
0.472059
11
6.0632921
21
0.4463026
0
LINE
8
layer1
10
6.0632921
20
0.4463026
11
6.1574762
21
0.4139276
0
LINE
8
layer1
10
6.1574762
20
0.4139276
11
6.2597974
21
0.3739014
0
LINE
8
layer1
10
6.2597974
20
0.3739014
11
6.3694144
21
0.3256553
0
LINE
8
layer1
10
6.3694144
20
0.3256553
11
6.4855776
21
0.268615
0
LINE
8
layer1
10
6.4855776
20
0.268615
11
6.5967009
21
0.208361
0
ARC
8
layer1
10
-0.0000093
20
0
40
6.6
50
358.1908795
51
361.8091197
0
LINE
8
layer1
10
6.5967009
20
-0.208361
11
6.4855776
21
-0.268615
0
LINE
8
layer1
10
6.4855776
20
-0.268615
11
6.3694144
21
-0.3256553
0
LINE
8
layer1
10
6.3694144
20
-0.3256553
11
6.2597974
21
-0.3739014
0
LINE
8
layer1
10
6.2597974
20
-0.3739014
11
6.1574762
21
-0.4139276
0
LINE
8
layer1
10
6.1574762
20
-0.4139276
11
6.0632921
21
-0.4463026
0
LINE
8
layer1
10
6.0632921
20
-0.4463026
11
5.976798
21
-0.472059
0
LINE
8
layer1
10
5.976798
20
-0.472059
11
5.8987813
21
-0.4917874
0
LINE
8
layer1
10
5.8987813
20
-0.4917874
11
5.8293731
21
-0.5062577
0
LINE
8
layer1
10
5.8293731
20
-0.5062577
11
5.7695702
21
-0.5161442
0
LINE
8
layer1
10
5.7695702
20
-0.5161442
11
5.6800765
21
-0.5254894
0
LINE
8
layer1
10
5.6800765
20
-0.5254894
11
5.6254662
21
-0.5266912
0
LINE
8
layer1
10
5.6254662
20
-0.5266912
11
5.5924138
21
-0.5249999
0
LINE
8
layer1
10
5.5924138
20
-0.5249999
11
5.5206599
21
-0.5254506
0
LINE
8
layer1
10
5.5206599
20
-0.5254506
11
5.4588985
21
-0.5324249
0
LINE
8
layer1
10
5.4588985
20
-0.5324249
11
5.431908
21
-0.5381026
0
LINE
8
layer1
10
5.431908
20
-0.5381026
11
5.4075568
21
-0.5450791
0
LINE
8
layer1
10
5.4075568
20
-0.5450791
11
5.3859001
21
-0.553262
0
LINE
8
layer1
10
5.3859001
20
-0.553262
11
5.366965
21
-0.5625441
0
LINE
8
layer1
10
5.366965
20
-0.5625441
11
5.3508013
21
-0.5728019
0
LINE
8
layer1
10
5.3508013
20
-0.5728019
11
5.3374263
21
-0.5839265
0
LINE
8
layer1
10
5.3374263
20
-0.5839265
11
5.3268869
21
-0.5958142
0
LINE
8
layer1
10
5.3268869
20
-0.5958142
11
5.3191821
21
-0.6083431
0
LINE
8
layer1
10
5.3191821
20
-0.6083431
11
5.3143603
21
-0.6213996
0
LINE
8
layer1
10
5.3143603
20
-0.6213996
11
5.309642
21
-0.656048
0
LINE
8
layer1
10
5.309642
20
-0.656048
11
5.2841326
21
-0.8369244
0
LINE
8
layer1
10
5.2841326
20
-0.8369244
11
5.2524996
21
-1.0168308
0
LINE
8
layer1
10
5.2524996
20
-1.0168308
11
5.24628
21
-1.0512415
0
LINE
8
layer1
10
5.24628
20
-1.0512415
11
5.2468312
21
-1.065149
0
LINE
8
layer1
10
5.2468312
20
-1.065149
11
5.2502872
21
-1.0794456
0
LINE
8
layer1
10
5.2502872
20
-1.0794456
11
5.2566373
21
-1.0940083
0
LINE
8
layer1
10
5.2566373
20
-1.0940083
11
5.2659199
21
-1.1087216
0
LINE
8
layer1
10
5.2659199
20
-1.1087216
11
5.2781227
21
-1.1234721
0
LINE
8
layer1
10
5.2781227
20
-1.1234721
11
5.2932628
21
-1.1381513
0
LINE
8
layer1
10
5.2932628
20
-1.1381513
11
5.3113309
21
-1.1526259
0
LINE
8
layer1
10
5.3113309
20
-1.1526259
11
5.3323343
21
-1.1667859
0
LINE
8
layer1
10
5.3323343
20
-1.1667859
11
5.3562493
21
-1.1805262
0
LINE
8
layer1
10
5.3562493
20
-1.1805262
11
5.4128327
21
-1.2062445
0
LINE
8
layer1
10
5.4128327
20
-1.2062445
11
5.4809355
21
-1.2288463
0
LINE
8
layer1
10
5.4809355
20
-1.2288463
11
5.5128928
21
-1.2374515
0
LINE
8
layer1
10
5.5128928
20
-1.2374515
11
5.5644589
21
-1.2554701
0
LINE
8
layer1
10
5.5644589
20
-1.2554701
11
5.6466847
21
-1.2920129
0
LINE
8
layer1
10
5.6466847
20
-1.2920129
11
5.7005055
21
-1.3198956
0
LINE
8
layer1
10
5.7005055
20
-1.3198956
11
5.762045
21
-1.355106
0
LINE
8
layer1
10
5.762045
20
-1.355106
11
5.8301469
21
-1.3979773
0
LINE
8
layer1
10
5.8301469
20
-1.3979773
11
5.9044485
21
-1.4492013
0
LINE
8
layer1
10
5.9044485
20
-1.4492013
11
5.9840185
21
-1.5090962
0
LINE
8
layer1
10
5.9840185
20
-1.5090962
11
6.068963
21
-1.5787824
0
LINE
8
layer1
10
6.068963
20
-1.5787824
11
6.158306
21
-1.6585407
0
LINE
8
layer1
10
6.158306
20
-1.6585407
11
6.2511574
21
-1.7486857
0
LINE
8
layer1
10
6.2511574
20
-1.7486857
11
6.3382225
21
-1.8403296
0
ARC
8
layer1
10
-0.0000089
20
0.0000025
40
6.6
50
340.1908825
51
343.809123
0
LINE
8
layer1
10
6.2094483
20
-2.2366558
11
6.0851442
21
-2.2596217
0
LINE
8
layer1
10
6.0851442
20
-2.2596217
11
5.95704
21
-2.2779739
0
LINE
8
layer1
10
5.95704
20
-2.2779739
11
5.8378792
21
-2.2899852
0
LINE
8
layer1
10
5.8378792
20
-2.2899852
11
5.7281972
21
-2.2964334
0
LINE
8
layer1
10
5.7281972
20
-2.2964334
11
5.6286184
21
-2.2981193
0
LINE
8
layer1
10
5.6286184
20
-2.2981193
11
5.5383984
21
-2.295887
0
LINE
8
layer1
10
5.5383984
20
-2.295887
11
5.4581037
21
-2.2905413
0
LINE
8
layer1
10
5.4581037
20
-2.2905413
11
5.387621
21
-2.2828551
0
LINE
8
layer1
10
5.387621
20
-2.2828551
11
5.32769
21
-2.2737776
0
LINE
8
layer1
10
5.32769
20
-2.2737776
11
5.2396886
21
-2.2550103
0
LINE
8
layer1
10
5.2396886
20
-2.2550103
11
5.1873797
21
-2.2392778
0
LINE
8
layer1
10
5.1873797
20
-2.2392778
11
5.1564677
21
-2.2274555
0
LINE
8
layer1
10
5.1564677
20
-2.2274555
11
5.0880864
21
-2.205711
0
LINE
8
layer1
10
5.0880864
20
-2.205711
11
5.0271926
21
-2.1932586
0
LINE
8
layer1
10
5.0271926
20
-2.1932586
11
4.9997687
21
-2.1903178
0
LINE
8
layer1
10
4.9997687
20
-2.1903178
11
4.9744535
21
-2.189428
0
LINE
8
layer1
10
4.9744535
20
-2.189428
11
4.9513281
21
-2.1905181
0
LINE
8
layer1
10
4.9513281
20
-2.1905181
11
4.9304513
21
-2.1934947
0
LINE
8
layer1
10
4.9304513
20
-2.1934947
11
4.9119089
21
-2.1982555
0
LINE
8
layer1
10
4.9119089
20
-2.1982555
11
4.8957509
21
-2.2047026
0
LINE
8
layer1
10
4.8957509
20
-2.2047026
11
4.8820538
21
-2.2127515
0
LINE
8
layer1
10
4.8820538
20
-2.2127515
11
4.8708545
21
-2.2222864
0
LINE
8
layer1
10
4.8708545
20
-2.2222864
11
4.862234
21
-2.2332138
0
LINE
8
layer1
10
4.862234
20
-2.2332138
11
4.8470396
21
-2.2647084
0
LINE
8
layer1
10
4.8470396
20
-2.2647084
11
4.7668849
21
-2.4288492
0
LINE
8
layer1
10
4.7668849
20
-2.4288492
11
4.681206
21
-2.5901752
0
LINE
8
layer1
10
4.681206
20
-2.5901752
11
4.6646573
21
-2.6209798
0
LINE
8
layer1
10
4.6646573
20
-2.6209798
11
4.6608839
21
-2.6343769
0
LINE
8
layer1
10
4.6608839
20
-2.6343769
11
4.6597528
21
-2.6490418
0
LINE
8
layer1
10
4.6597528
20
-2.6490418
11
4.661292
21
-2.664854
0
LINE
8
layer1
10
4.661292
20
-2.664854
11
4.6655737
21
-2.6817156
0
LINE
8
layer1
10
4.6655737
20
-2.6817156
11
4.672621
21
-2.6995151
0
LINE
8
layer1
10
4.672621
20
-2.6995151
11
4.682484
21
-2.7181543
0
LINE
8
layer1
10
4.682484
20
-2.7181543
11
4.6951948
21
-2.7375039
0
LINE
8
layer1
10
4.6951948
20
-2.7375039
11
4.7107946
21
-2.7574613
0
LINE
8
layer1
10
4.7107946
20
-2.7574613
11
4.7292932
21
-2.7779192
0
LINE
8
layer1
10
4.7292932
20
-2.7779192
11
4.7751598
21
-2.819864
0
LINE
8
layer1
10
4.7751598
20
-2.819864
11
4.832945
21
-2.8624045
0
LINE
8
layer1
10
4.832945
20
-2.8624045
11
4.8606791
21
-2.8804639
0
LINE
8
layer1
10
4.8606791
20
-2.8804639
11
4.9041533
21
-2.9135354
0
LINE
8
layer1
10
4.9041533
20
-2.9135354
11
4.9710623
21
-2.9736988
0
LINE
8
layer1
10
4.9710623
20
-2.9736988
11
5.0136327
21
-3.0168484
0
LINE
8
layer1
10
5.0136327
20
-3.0168484
11
5.0612797
21
-3.0693523
0
LINE
8
layer1
10
5.0612797
20
-3.0693523
11
5.1128005
21
-3.1311699
0
LINE
8
layer1
10
5.1128005
20
-3.1311699
11
5.1676364
21
-3.2028473
0
LINE
8
layer1
10
5.1676364
20
-3.2028473
11
5.2248034
21
-3.2843992
0
LINE
8
layer1
10
5.2248034
20
-3.2843992
11
5.2840562
21
-3.376924
0
LINE
8
layer1
10
5.2840562
20
-3.376924
11
5.3443798
21
-3.4803872
0
LINE
8
layer1
10
5.3443798
20
-3.4803872
11
5.4048304
21
-3.5948128
0
LINE
8
layer1
10
5.4048304
20
-3.5948128
11
5.4593147
21
-3.7088759
0
ARC
8
layer1
10
-0.0000078
20
0.0000051
40
6.6
50
322.1908835
51
325.809124
0
LINE
8
layer1
10
5.2143716
20
-4.0460111
11
5.0890546
21
-4.0294409
0
LINE
8
layer1
10
5.0890546
20
-4.0294409
11
4.9615491
21
-4.0073085
0
LINE
8
layer1
10
4.9615491
20
-4.0073085
11
4.8445088
21
-3.9819092
0
LINE
8
layer1
10
4.8445088
20
-3.9819092
11
4.7382023
21
-3.9541482
0
LINE
8
layer1
10
4.7382023
20
-3.9541482
11
4.6429763
21
-3.92498
0
LINE
8
layer1
10
4.6429763
20
-3.92498
11
4.5578618
21
-3.8949775
0
LINE
8
layer1
10
4.5578618
20
-3.8949775
11
4.4831489
21
-3.865081
0
LINE
8
layer1
10
4.4831489
20
-3.865081
11
4.4184911
21
-3.8359906
0
LINE
8
layer1
10
4.4184911
20
-3.8359906
11
4.3642984
21
-3.8088377
0
LINE
8
layer1
10
4.3642984
20
-3.8088377
11
4.2864035
21
-3.763795
0
LINE
8
layer1
10
4.2864035
20
-3.763795
11
4.2415164
21
-3.7326682
0
LINE
8
layer1
10
4.2415164
20
-3.7326682
11
4.2157706
21
-3.7118722
0
LINE
8
layer1
10
4.2157706
20
-3.7118722
11
4.1574555
21
-3.670061
0
LINE
8
layer1
10
4.1574555
20
-3.670061
11
4.1033901
21
-3.6394008
0
LINE
8
layer1
10
4.1033901
20
-3.6394008
11
4.0782171
21
-3.6281295
0
LINE
8
layer1
10
4.0782171
20
-3.6281295
11
4.0544159
21
-3.6194604
0
LINE
8
layer1
10
4.0544159
20
-3.6194604
11
4.0320855
21
-3.613351
0
LINE
8
layer1
10
4.0320855
20
-3.613351
11
4.0113107
21
-3.6097306
0
LINE
8
layer1
10
4.0113107
20
-3.6097306
11
3.9922047
21
-3.6085285
0
LINE
8
layer1
10
3.9922047
20
-3.6085285
11
3.9748452
21
-3.609667
0
LINE
8
layer1
10
3.9748452
20
-3.609667
11
3.9593313
21
-3.6130894
0
LINE
8
layer1
10
3.9593313
20
-3.6130894
11
3.9457336
21
-3.6186967
0
LINE
8
layer1
10
3.9457336
20
-3.6186967
11
3.9341583
21
-3.6264254
0
LINE
8
layer1
10
3.9341583
20
-3.6264254
11
3.9099752
21
-3.6516833
0
LINE
8
layer1
10
3.9099752
20
-3.6516833
11
3.7830213
21
-3.7830213
0
LINE
8
layer1
10
3.7830213
20
-3.7830213
11
3.6516833
21
-3.9099752
0
LINE
8
layer1
10
3.6516833
20
-3.9099752
11
3.6264254
21
-3.9341583
0
LINE
8
layer1
10
3.6264254
20
-3.9341583
11
3.6186967
21
-3.9457336
0
LINE
8
layer1
10
3.6186967
20
-3.9457336
11
3.6130894
21
-3.9593313
0
LINE
8
layer1
10
3.6130894
20
-3.9593313
11
3.609667
21
-3.9748452
0
LINE
8
layer1
10
3.609667
20
-3.9748452
11
3.6085285
21
-3.9922047
0
LINE
8
layer1
10
3.6085285
20
-3.9922047
11
3.6097306
21
-4.0113107
0
LINE
8
layer1
10
3.6097306
20
-4.0113107
11
3.613351
21
-4.0320855
0
LINE
8
layer1
10
3.613351
20
-4.0320855
11
3.6194604
21
-4.0544159
0
LINE
8
layer1
10
3.6194604
20
-4.0544159
11
3.6281295
21
-4.0782171
0
LINE
8
layer1
10
3.6281295
20
-4.0782171
11
3.6394008
21
-4.1033901
0
LINE
8
layer1
10
3.6394008
20
-4.1033901
11
3.670061
21
-4.1574555
0
LINE
8
layer1
10
3.670061
20
-4.1574555
11
3.7118722
21
-4.2157706
0
LINE
8
layer1
10
3.7118722
20
-4.2157706
11
3.7326682
21
-4.2415164
0
LINE
8
layer1
10
3.7326682
20
-4.2415164
11
3.763795
21
-4.2864035
0
LINE
8
layer1
10
3.763795
20
-4.2864035
11
3.8088377
21
-4.3642984
0
LINE
8
layer1
10
3.8088377
20
-4.3642984
11
3.8359906
21
-4.4184911
0
LINE
8
layer1
10
3.8359906
20
-4.4184911
11
3.865081
21
-4.4831489
0
LINE
8
layer1
10
3.865081
20
-4.4831489
11
3.8949775
21
-4.5578618
0
LINE
8
layer1
10
3.8949775
20
-4.5578618
11
3.92498
21
-4.6429763
0
LINE
8
layer1
10
3.92498
20
-4.6429763
11
3.9541482
21
-4.7382023
0
LINE
8
layer1
10
3.9541482
20
-4.7382023
11
3.9819092
21
-4.8445088
0
LINE
8
layer1
10
3.9819092
20
-4.8445088
11
4.0073085
21
-4.9615491
0
LINE
8
layer1
10
4.0073085
20
-4.9615491
11
4.0294409
21
-5.0890546
0
LINE
8
layer1
10
4.0294409
20
-5.0890546
11
4.0460111
21
-5.2143716
0
ARC
8
layer1
10
-0.0000052
20
0.0000078
40
6.6
50
304.190876
51
307.8091165
0
LINE
8
layer1
10
3.7088759
20
-5.4593147
11
3.5948128
21
-5.4048304
0
LINE
8
layer1
10
3.5948128
20
-5.4048304
11
3.4803872
21
-5.3443798
0
LINE
8
layer1
10
3.4803872
20
-5.3443798
11
3.376924
21
-5.2840562
0
LINE
8
layer1
10
3.376924
20
-5.2840562
11
3.2843992
21
-5.2248034
0
LINE
8
layer1
10
3.2843992
20
-5.2248034
11
3.2028473
21
-5.1676364
0
LINE
8
layer1
10
3.2028473
20
-5.1676364
11
3.1311699
21
-5.1128005
0
LINE
8
layer1
10
3.1311699
20
-5.1128005
11
3.0693523
21
-5.0612797
0
LINE
8
layer1
10
3.0693523
20
-5.0612797
11
3.0168484
21
-5.0136327
0
LINE
8
layer1
10
3.0168484
20
-5.0136327
11
2.9736988
21
-4.9710623
0
LINE
8
layer1
10
2.9736988
20
-4.9710623
11
2.9135354
21
-4.9041533
0
LINE
8
layer1
10
2.9135354
20
-4.9041533
11
2.8804639
21
-4.8606791
0
LINE
8
layer1
10
2.8804639
20
-4.8606791
11
2.8624045
21
-4.832945
0
LINE
8
layer1
10
2.8624045
20
-4.832945
11
2.819864
21
-4.7751598
0
LINE
8
layer1
10
2.819864
20
-4.7751598
11
2.7779192
21
-4.7292932
0
LINE
8
layer1
10
2.7779192
20
-4.7292932
11
2.7574613
21
-4.7107946
0
LINE
8
layer1
10
2.7574613
20
-4.7107946
11
2.7375039
21
-4.6951948
0
LINE
8
layer1
10
2.7375039
20
-4.6951948
11
2.7181543
21
-4.682484
0
LINE
8
layer1
10
2.7181543
20
-4.682484
11
2.6995151
21
-4.672621
0
LINE
8
layer1
10
2.6995151
20
-4.672621
11
2.6817156
21
-4.6655737
0
LINE
8
layer1
10
2.6817156
20
-4.6655737
11
2.664854
21
-4.661292
0
LINE
8
layer1
10
2.664854
20
-4.661292
11
2.6490418
21
-4.6597528
0
LINE
8
layer1
10
2.6490418
20
-4.6597528
11
2.6343769
21
-4.6608839
0
LINE
8
layer1
10
2.6343769
20
-4.6608839
11
2.6209798
21
-4.6646573
0
LINE
8
layer1
10
2.6209798
20
-4.6646573
11
2.5901752
21
-4.681206
0
LINE
8
layer1
10
2.5901752
20
-4.681206
11
2.4288492
21
-4.7668849
0
LINE
8
layer1
10
2.4288492
20
-4.7668849
11
2.2647084
21
-4.8470396
0
LINE
8
layer1
10
2.2647084
20
-4.8470396
11
2.2332138
21
-4.862234
0
LINE
8
layer1
10
2.2332138
20
-4.862234
11
2.2222864
21
-4.8708545
0
LINE
8
layer1
10
2.2222864
20
-4.8708545
11
2.2127515
21
-4.8820538
0
LINE
8
layer1
10
2.2127515
20
-4.8820538
11
2.2047026
21
-4.8957509
0
LINE
8
layer1
10
2.2047026
20
-4.8957509
11
2.1982555
21
-4.9119089
0
LINE
8
layer1
10
2.1982555
20
-4.9119089
11
2.1934947
21
-4.9304513
0
LINE
8
layer1
10
2.1934947
20
-4.9304513
11
2.1905181
21
-4.9513281
0
LINE
8
layer1
10
2.1905181
20
-4.9513281
11
2.189428
21
-4.9744535
0
LINE
8
layer1
10
2.189428
20
-4.9744535
11
2.1903178
21
-4.9997687
0
LINE
8
layer1
10
2.1903178
20
-4.9997687
11
2.1932586
21
-5.0271926
0
LINE
8
layer1
10
2.1932586
20
-5.0271926
11
2.205711
21
-5.0880864
0
LINE
8
layer1
10
2.205711
20
-5.0880864
11
2.2274555
21
-5.1564677
0
LINE
8
layer1
10
2.2274555
20
-5.1564677
11
2.2392778
21
-5.1873797
0
LINE
8
layer1
10
2.2392778
20
-5.1873797
11
2.2550103
21
-5.2396886
0
LINE
8
layer1
10
2.2550103
20
-5.2396886
11
2.2737776
21
-5.32769
0
LINE
8
layer1
10
2.2737776
20
-5.32769
11
2.2828551
21
-5.387621
0
LINE
8
layer1
10
2.2828551
20
-5.387621
11
2.2905413
21
-5.4581037
0
LINE
8
layer1
10
2.2905413
20
-5.4581037
11
2.295887
21
-5.5383984
0
LINE
8
layer1
10
2.295887
20
-5.5383984
11
2.2981193
21
-5.6286184
0
LINE
8
layer1
10
2.2981193
20
-5.6286184
11
2.2964334
21
-5.7281972
0
LINE
8
layer1
10
2.2964334
20
-5.7281972
11
2.2899852
21
-5.8378792
0
LINE
8
layer1
10
2.2899852
20
-5.8378792
11
2.2779739
21
-5.95704
0
LINE
8
layer1
10
2.2779739
20
-5.95704
11
2.2596217
21
-6.0851442
0
LINE
8
layer1
10
2.2596217
20
-6.0851442
11
2.2366558
21
-6.2094483
0
ARC
8
layer1
10
-0.0000026
20
0.0000089
40
6.6
50
286.190877
51
289.8091175
0
LINE
8
layer1
10
1.8403296
20
-6.3382225
11
1.7486857
21
-6.2511574
0
LINE
8
layer1
10
1.7486857
20
-6.2511574
11
1.6585407
21
-6.158306
0
LINE
8
layer1
10
1.6585407
20
-6.158306
11
1.5787824
21
-6.068963
0
LINE
8
layer1
10
1.5787824
20
-6.068963
11
1.5090962
21
-5.9840185
0
LINE
8
layer1
10
1.5090962
20
-5.9840185
11
1.4492013
21
-5.9044485
0
LINE
8
layer1
10
1.4492013
20
-5.9044485
11
1.3979773
21
-5.8301469
0
LINE
8
layer1
10
1.3979773
20
-5.8301469
11
1.355106
21
-5.762045
0
LINE
8
layer1
10
1.355106
20
-5.762045
11
1.3198956
21
-5.7005055
0
LINE
8
layer1
10
1.3198956
20
-5.7005055
11
1.2920129
21
-5.6466847
0
LINE
8
layer1
10
1.2920129
20
-5.6466847
11
1.2554701
21
-5.5644589
0
LINE
8
layer1
10
1.2554701
20
-5.5644589
11
1.2374515
21
-5.5128928
0
LINE
8
layer1
10
1.2374515
20
-5.5128928
11
1.2288463
21
-5.4809355
0
LINE
8
layer1
10
1.2288463
20
-5.4809355
11
1.2062445
21
-5.4128327
0
LINE
8
layer1
10
1.2062445
20
-5.4128327
11
1.1805262
21
-5.3562493
0
LINE
8
layer1
10
1.1805262
20
-5.3562493
11
1.1667859
21
-5.3323343
0
LINE
8
layer1
10
1.1667859
20
-5.3323343
11
1.1526259
21
-5.3113309
0
LINE
8
layer1
10
1.1526259
20
-5.3113309
11
1.1381513
21
-5.2932628
0
LINE
8
layer1
10
1.1381513
20
-5.2932628
11
1.1234721
21
-5.2781227
0
LINE
8
layer1
10
1.1234721
20
-5.2781227
11
1.1087216
21
-5.2659199
0
LINE
8
layer1
10
1.1087216
20
-5.2659199
11
1.0940083
21
-5.2566373
0
LINE
8
layer1
10
1.0940083
20
-5.2566373
11
1.0794456
21
-5.2502872
0
LINE
8
layer1
10
1.0794456
20
-5.2502872
11
1.065149
21
-5.2468312
0
LINE
8
layer1
10
1.065149
20
-5.2468312
11
1.0512415
21
-5.24628
0
LINE
8
layer1
10
1.0512415
20
-5.24628
11
1.0168308
21
-5.2524996
0
LINE
8
layer1
10
1.0168308
20
-5.2524996
11
0.8369244
21
-5.2841326
0
LINE
8
layer1
10
0.8369244
20
-5.2841326
11
0.656048
21
-5.309642
0
LINE
8
layer1
10
0.656048
20
-5.309642
11
0.6213996
21
-5.3143603
0
LINE
8
layer1
10
0.6213996
20
-5.3143603
11
0.6083431
21
-5.3191821
0
LINE
8
layer1
10
0.6083431
20
-5.3191821
11
0.5958142
21
-5.3268869
0
LINE
8
layer1
10
0.5958142
20
-5.3268869
11
0.5839265
21
-5.3374263
0
LINE
8
layer1
10
0.5839265
20
-5.3374263
11
0.5728019
21
-5.3508013
0
LINE
8
layer1
10
0.5728019
20
-5.3508013
11
0.5625441
21
-5.366965
0
LINE
8
layer1
10
0.5625441
20
-5.366965
11
0.553262
21
-5.3859001
0
LINE
8
layer1
10
0.553262
20
-5.3859001
11
0.5450791
21
-5.4075568
0
LINE
8
layer1
10
0.5450791
20
-5.4075568
11
0.5381026
21
-5.431908
0
LINE
8
layer1
10
0.5381026
20
-5.431908
11
0.5324249
21
-5.4588985
0
LINE
8
layer1
10
0.5324249
20
-5.4588985
11
0.5254506
21
-5.5206599
0
LINE
8
layer1
10
0.5254506
20
-5.5206599
11
0.5249999
21
-5.5924138
0
LINE
8
layer1
10
0.5249999
20
-5.5924138
11
0.5266912
21
-5.6254662
0
LINE
8
layer1
10
0.5266912
20
-5.6254662
11
0.5254894
21
-5.6800765
0
LINE
8
layer1
10
0.5254894
20
-5.6800765
11
0.5161442
21
-5.7695702
0
LINE
8
layer1
10
0.5161442
20
-5.7695702
11
0.5062577
21
-5.8293731
0
LINE
8
layer1
10
0.5062577
20
-5.8293731
11
0.4917874
21
-5.8987813
0
LINE
8
layer1
10
0.4917874
20
-5.8987813
11
0.472059
21
-5.976798
0
LINE
8
layer1
10
0.472059
20
-5.976798
11
0.4463026
21
-6.0632921
0
LINE
8
layer1
10
0.4463026
20
-6.0632921
11
0.4139276
21
-6.1574762
0
LINE
8
layer1
10
0.4139276
20
-6.1574762
11
0.3739014
21
-6.2597974
0
LINE
8
layer1
10
0.3739014
20
-6.2597974
11
0.3256553
21
-6.3694144
0
LINE
8
layer1
10
0.3256553
20
-6.3694144
11
0.268615
21
-6.4855776
0
LINE
8
layer1
10
0.268615
20
-6.4855776
11
0.208361
21
-6.5967009
0
ARC
8
layer1
10
0
20
0.0000093
40
6.6
50
268.1908795
51
271.8091197
0
LINE
8
layer1
10
-0.208361
20
-6.5967009
11
-0.268615
21
-6.4855776
0
LINE
8
layer1
10
-0.268615
20
-6.4855776
11
-0.3256553
21
-6.3694144
0
LINE
8
layer1
10
-0.3256553
20
-6.3694144
11
-0.3739014
21
-6.2597974
0
LINE
8
layer1
10
-0.3739014
20
-6.2597974
11
-0.4139276
21
-6.1574762
0
LINE
8
layer1
10
-0.4139276
20
-6.1574762
11
-0.4463026
21
-6.0632921
0
LINE
8
layer1
10
-0.4463026
20
-6.0632921
11
-0.472059
21
-5.976798
0
LINE
8
layer1
10
-0.472059
20
-5.976798
11
-0.4917874
21
-5.8987813
0
LINE
8
layer1
10
-0.4917874
20
-5.8987813
11
-0.5062577
21
-5.8293731
0
LINE
8
layer1
10
-0.5062577
20
-5.8293731
11
-0.5161442
21
-5.7695702
0
LINE
8
layer1
10
-0.5161442
20
-5.7695702
11
-0.5254894
21
-5.6800765
0
LINE
8
layer1
10
-0.5254894
20
-5.6800765
11
-0.5266912
21
-5.6254662
0
LINE
8
layer1
10
-0.5266912
20
-5.6254662
11
-0.5249999
21
-5.5924138
0
LINE
8
layer1
10
-0.5249999
20
-5.5924138
11
-0.5254506
21
-5.5206599
0
LINE
8
layer1
10
-0.5254506
20
-5.5206599
11
-0.5324249
21
-5.4588985
0
LINE
8
layer1
10
-0.5324249
20
-5.4588985
11
-0.5381026
21
-5.431908
0
LINE
8
layer1
10
-0.5381026
20
-5.431908
11
-0.5450791
21
-5.4075568
0
LINE
8
layer1
10
-0.5450791
20
-5.4075568
11
-0.553262
21
-5.3859001
0
LINE
8
layer1
10
-0.553262
20
-5.3859001
11
-0.5625441
21
-5.366965
0
LINE
8
layer1
10
-0.5625441
20
-5.366965
11
-0.5728019
21
-5.3508013
0
LINE
8
layer1
10
-0.5728019
20
-5.3508013
11
-0.5839265
21
-5.3374263
0
LINE
8
layer1
10
-0.5839265
20
-5.3374263
11
-0.5958142
21
-5.3268869
0
LINE
8
layer1
10
-0.5958142
20
-5.3268869
11
-0.6083431
21
-5.3191821
0
LINE
8
layer1
10
-0.6083431
20
-5.3191821
11
-0.6213996
21
-5.3143603
0
LINE
8
layer1
10
-0.6213996
20
-5.3143603
11
-0.656048
21
-5.309642
0
LINE
8
layer1
10
-0.656048
20
-5.309642
11
-0.8369244
21
-5.2841326
0
LINE
8
layer1
10
-0.8369244
20
-5.2841326
11
-1.0168308
21
-5.2524996
0
LINE
8
layer1
10
-1.0168308
20
-5.2524996
11
-1.0512415
21
-5.24628
0
LINE
8
layer1
10
-1.0512415
20
-5.24628
11
-1.065149
21
-5.2468312
0
LINE
8
layer1
10
-1.065149
20
-5.2468312
11
-1.0794456
21
-5.2502872
0
LINE
8
layer1
10
-1.0794456
20
-5.2502872
11
-1.0940083
21
-5.2566373
0
LINE
8
layer1
10
-1.0940083
20
-5.2566373
11
-1.1087216
21
-5.2659199
0
LINE
8
layer1
10
-1.1087216
20
-5.2659199
11
-1.1234721
21
-5.2781227
0
LINE
8
layer1
10
-1.1234721
20
-5.2781227
11
-1.1381513
21
-5.2932628
0
LINE
8
layer1
10
-1.1381513
20
-5.2932628
11
-1.1526259
21
-5.3113309
0
LINE
8
layer1
10
-1.1526259
20
-5.3113309
11
-1.1667859
21
-5.3323343
0
LINE
8
layer1
10
-1.1667859
20
-5.3323343
11
-1.1805262
21
-5.3562493
0
LINE
8
layer1
10
-1.1805262
20
-5.3562493
11
-1.2062445
21
-5.4128327
0
LINE
8
layer1
10
-1.2062445
20
-5.4128327
11
-1.2288463
21
-5.4809355
0
LINE
8
layer1
10
-1.2288463
20
-5.4809355
11
-1.2374515
21
-5.5128928
0
LINE
8
layer1
10
-1.2374515
20
-5.5128928
11
-1.2554701
21
-5.5644589
0
LINE
8
layer1
10
-1.2554701
20
-5.5644589
11
-1.2920129
21
-5.6466847
0
LINE
8
layer1
10
-1.2920129
20
-5.6466847
11
-1.3198956
21
-5.7005055
0
LINE
8
layer1
10
-1.3198956
20
-5.7005055
11
-1.355106
21
-5.762045
0
LINE
8
layer1
10
-1.355106
20
-5.762045
11
-1.3979773
21
-5.8301469
0
LINE
8
layer1
10
-1.3979773
20
-5.8301469
11
-1.4492013
21
-5.9044485
0
LINE
8
layer1
10
-1.4492013
20
-5.9044485
11
-1.5090962
21
-5.9840185
0
LINE
8
layer1
10
-1.5090962
20
-5.9840185
11
-1.5787824
21
-6.068963
0
LINE
8
layer1
10
-1.5787824
20
-6.068963
11
-1.6585407
21
-6.158306
0
LINE
8
layer1
10
-1.6585407
20
-6.158306
11
-1.7486857
21
-6.2511574
0
LINE
8
layer1
10
-1.7486857
20
-6.2511574
11
-1.8403296
21
-6.3382225
0
ARC
8
layer1
10
0.0000025
20
0.0000089
40
6.6
50
250.1908825
51
253.809123
0
LINE
8
layer1
10
-2.2366558
20
-6.2094483
11
-2.2596217
21
-6.0851442
0
LINE
8
layer1
10
-2.2596217
20
-6.0851442
11
-2.2779739
21
-5.95704
0
LINE
8
layer1
10
-2.2779739
20
-5.95704
11
-2.2899852
21
-5.8378792
0
LINE
8
layer1
10
-2.2899852
20
-5.8378792
11
-2.2964334
21
-5.7281972
0
LINE
8
layer1
10
-2.2964334
20
-5.7281972
11
-2.2981193
21
-5.6286184
0
LINE
8
layer1
10
-2.2981193
20
-5.6286184
11
-2.295887
21
-5.5383984
0
LINE
8
layer1
10
-2.295887
20
-5.5383984
11
-2.2905413
21
-5.4581037
0
LINE
8
layer1
10
-2.2905413
20
-5.4581037
11
-2.2828551
21
-5.387621
0
LINE
8
layer1
10
-2.2828551
20
-5.387621
11
-2.2737776
21
-5.32769
0
LINE
8
layer1
10
-2.2737776
20
-5.32769
11
-2.2550103
21
-5.2396886
0
LINE
8
layer1
10
-2.2550103
20
-5.2396886
11
-2.2392778
21
-5.1873797
0
LINE
8
layer1
10
-2.2392778
20
-5.1873797
11
-2.2274555
21
-5.1564677
0
LINE
8
layer1
10
-2.2274555
20
-5.1564677
11
-2.205711
21
-5.0880864
0
LINE
8
layer1
10
-2.205711
20
-5.0880864
11
-2.1932586
21
-5.0271926
0
LINE
8
layer1
10
-2.1932586
20
-5.0271926
11
-2.1903178
21
-4.9997687
0
LINE
8
layer1
10
-2.1903178
20
-4.9997687
11
-2.189428
21
-4.9744535
0
LINE
8
layer1
10
-2.189428
20
-4.9744535
11
-2.1905181
21
-4.9513281
0
LINE
8
layer1
10
-2.1905181
20
-4.9513281
11
-2.1934947
21
-4.9304513
0
LINE
8
layer1
10
-2.1934947
20
-4.9304513
11
-2.1982555
21
-4.9119089
0
LINE
8
layer1
10
-2.1982555
20
-4.9119089
11
-2.2047026
21
-4.8957509
0
LINE
8
layer1
10
-2.2047026
20
-4.8957509
11
-2.2127515
21
-4.8820538
0
LINE
8
layer1
10
-2.2127515
20
-4.8820538
11
-2.2222864
21
-4.8708545
0
LINE
8
layer1
10
-2.2222864
20
-4.8708545
11
-2.2332138
21
-4.862234
0
LINE
8
layer1
10
-2.2332138
20
-4.862234
11
-2.2647084
21
-4.8470396
0
LINE
8
layer1
10
-2.2647084
20
-4.8470396
11
-2.4288492
21
-4.7668849
0
LINE
8
layer1
10
-2.4288492
20
-4.7668849
11
-2.5901752
21
-4.681206
0
LINE
8
layer1
10
-2.5901752
20
-4.681206
11
-2.6209798
21
-4.6646573
0
LINE
8
layer1
10
-2.6209798
20
-4.6646573
11
-2.6343769
21
-4.6608839
0
LINE
8
layer1
10
-2.6343769
20
-4.6608839
11
-2.6490418
21
-4.6597528
0
LINE
8
layer1
10
-2.6490418
20
-4.6597528
11
-2.664854
21
-4.661292
0
LINE
8
layer1
10
-2.664854
20
-4.661292
11
-2.6817156
21
-4.6655737
0
LINE
8
layer1
10
-2.6817156
20
-4.6655737
11
-2.6995151
21
-4.672621
0
LINE
8
layer1
10
-2.6995151
20
-4.672621
11
-2.7181543
21
-4.682484
0
LINE
8
layer1
10
-2.7181543
20
-4.682484
11
-2.7375039
21
-4.6951948
0
LINE
8
layer1
10
-2.7375039
20
-4.6951948
11
-2.7574613
21
-4.7107946
0
LINE
8
layer1
10
-2.7574613
20
-4.7107946
11
-2.7779192
21
-4.7292932
0
LINE
8
layer1
10
-2.7779192
20
-4.7292932
11
-2.819864
21
-4.7751598
0
LINE
8
layer1
10
-2.819864
20
-4.7751598
11
-2.8624045
21
-4.832945
0
LINE
8
layer1
10
-2.8624045
20
-4.832945
11
-2.8804639
21
-4.8606791
0
LINE
8
layer1
10
-2.8804639
20
-4.8606791
11
-2.9135354
21
-4.9041533
0
LINE
8
layer1
10
-2.9135354
20
-4.9041533
11
-2.9736988
21
-4.9710623
0
LINE
8
layer1
10
-2.9736988
20
-4.9710623
11
-3.0168484
21
-5.0136327
0
LINE
8
layer1
10
-3.0168484
20
-5.0136327
11
-3.0693523
21
-5.0612797
0
LINE
8
layer1
10
-3.0693523
20
-5.0612797
11
-3.1311699
21
-5.1128005
0
LINE
8
layer1
10
-3.1311699
20
-5.1128005
11
-3.2028473
21
-5.1676364
0
LINE
8
layer1
10
-3.2028473
20
-5.1676364
11
-3.2843992
21
-5.2248034
0
LINE
8
layer1
10
-3.2843992
20
-5.2248034
11
-3.376924
21
-5.2840562
0
LINE
8
layer1
10
-3.376924
20
-5.2840562
11
-3.4803872
21
-5.3443798
0
LINE
8
layer1
10
-3.4803872
20
-5.3443798
11
-3.5948128
21
-5.4048304
0
LINE
8
layer1
10
-3.5948128
20
-5.4048304
11
-3.7088759
21
-5.4593147
0
ARC
8
layer1
10
0.0000051
20
0.0000078
40
6.6
50
232.1908835
51
235.809124
0
LINE
8
layer1
10
-4.0460111
20
-5.2143716
11
-4.0294409
21
-5.0890546
0
LINE
8
layer1
10
-4.0294409
20
-5.0890546
11
-4.0073085
21
-4.9615491
0
LINE
8
layer1
10
-4.0073085
20
-4.9615491
11
-3.9819092
21
-4.8445088
0
LINE
8
layer1
10
-3.9819092
20
-4.8445088
11
-3.9541482
21
-4.7382023
0
LINE
8
layer1
10
-3.9541482
20
-4.7382023
11
-3.92498
21
-4.6429763
0
LINE
8
layer1
10
-3.92498
20
-4.6429763
11
-3.8949775
21
-4.5578618
0
LINE
8
layer1
10
-3.8949775
20
-4.5578618
11
-3.865081
21
-4.4831489
0
LINE
8
layer1
10
-3.865081
20
-4.4831489
11
-3.8359906
21
-4.4184911
0
LINE
8
layer1
10
-3.8359906
20
-4.4184911
11
-3.8088377
21
-4.3642984
0
LINE
8
layer1
10
-3.8088377
20
-4.3642984
11
-3.763795
21
-4.2864035
0
LINE
8
layer1
10
-3.763795
20
-4.2864035
11
-3.7326682
21
-4.2415164
0
LINE
8
layer1
10
-3.7326682
20
-4.2415164
11
-3.7118722
21
-4.2157706
0
LINE
8
layer1
10
-3.7118722
20
-4.2157706
11
-3.670061
21
-4.1574555
0
LINE
8
layer1
10
-3.670061
20
-4.1574555
11
-3.6394008
21
-4.1033901
0
LINE
8
layer1
10
-3.6394008
20
-4.1033901
11
-3.6281295
21
-4.0782171
0
LINE
8
layer1
10
-3.6281295
20
-4.0782171
11
-3.6194604
21
-4.0544159
0
LINE
8
layer1
10
-3.6194604
20
-4.0544159
11
-3.613351
21
-4.0320855
0
LINE
8
layer1
10
-3.613351
20
-4.0320855
11
-3.6097306
21
-4.0113107
0
LINE
8
layer1
10
-3.6097306
20
-4.0113107
11
-3.6085285
21
-3.9922047
0
LINE
8
layer1
10
-3.6085285
20
-3.9922047
11
-3.609667
21
-3.9748452
0
LINE
8
layer1
10
-3.609667
20
-3.9748452
11
-3.6130894
21
-3.9593313
0
LINE
8
layer1
10
-3.6130894
20
-3.9593313
11
-3.6186967
21
-3.9457336
0
LINE
8
layer1
10
-3.6186967
20
-3.9457336
11
-3.6264254
21
-3.9341583
0
LINE
8
layer1
10
-3.6264254
20
-3.9341583
11
-3.6516833
21
-3.9099752
0
LINE
8
layer1
10
-3.6516833
20
-3.9099752
11
-3.7830213
21
-3.7830213
0
LINE
8
layer1
10
-3.7830213
20
-3.7830213
11
-3.9099752
21
-3.6516833
0
LINE
8
layer1
10
-3.9099752
20
-3.6516833
11
-3.9341583
21
-3.6264254
0
LINE
8
layer1
10
-3.9341583
20
-3.6264254
11
-3.9457336
21
-3.6186967
0
LINE
8
layer1
10
-3.9457336
20
-3.6186967
11
-3.9593313
21
-3.6130894
0
LINE
8
layer1
10
-3.9593313
20
-3.6130894
11
-3.9748452
21
-3.609667
0
LINE
8
layer1
10
-3.9748452
20
-3.609667
11
-3.9922047
21
-3.6085285
0
LINE
8
layer1
10
-3.9922047
20
-3.6085285
11
-4.0113107
21
-3.6097306
0
LINE
8
layer1
10
-4.0113107
20
-3.6097306
11
-4.0320855
21
-3.613351
0
LINE
8
layer1
10
-4.0320855
20
-3.613351
11
-4.0544159
21
-3.6194604
0
LINE
8
layer1
10
-4.0544159
20
-3.6194604
11
-4.0782171
21
-3.6281295
0
LINE
8
layer1
10
-4.0782171
20
-3.6281295
11
-4.1033901
21
-3.6394008
0
LINE
8
layer1
10
-4.1033901
20
-3.6394008
11
-4.1574555
21
-3.670061
0
LINE
8
layer1
10
-4.1574555
20
-3.670061
11
-4.2157706
21
-3.7118722
0
LINE
8
layer1
10
-4.2157706
20
-3.7118722
11
-4.2415164
21
-3.7326682
0
LINE
8
layer1
10
-4.2415164
20
-3.7326682
11
-4.2864035
21
-3.763795
0
LINE
8
layer1
10
-4.2864035
20
-3.763795
11
-4.3642984
21
-3.8088377
0
LINE
8
layer1
10
-4.3642984
20
-3.8088377
11
-4.4184911
21
-3.8359906
0
LINE
8
layer1
10
-4.4184911
20
-3.8359906
11
-4.4831489
21
-3.865081
0
LINE
8
layer1
10
-4.4831489
20
-3.865081
11
-4.5578618
21
-3.8949775
0
LINE
8
layer1
10
-4.5578618
20
-3.8949775
11
-4.6429763
21
-3.92498
0
LINE
8
layer1
10
-4.6429763
20
-3.92498
11
-4.7382023
21
-3.9541482
0
LINE
8
layer1
10
-4.7382023
20
-3.9541482
11
-4.8445088
21
-3.9819092
0
LINE
8
layer1
10
-4.8445088
20
-3.9819092
11
-4.9615491
21
-4.0073085
0
LINE
8
layer1
10
-4.9615491
20
-4.0073085
11
-5.0890546
21
-4.0294409
0
LINE
8
layer1
10
-5.0890546
20
-4.0294409
11
-5.2143716
21
-4.0460111
0
ARC
8
layer1
10
0.0000078
20
0.0000052
40
6.6
50
214.190876
51
217.8091165
0
LINE
8
layer1
10
-5.4593147
20
-3.7088759
11
-5.4048304
21
-3.5948128
0
LINE
8
layer1
10
-5.4048304
20
-3.5948128
11
-5.3443798
21
-3.4803872
0
LINE
8
layer1
10
-5.3443798
20
-3.4803872
11
-5.2840562
21
-3.376924
0
LINE
8
layer1
10
-5.2840562
20
-3.376924
11
-5.2248034
21
-3.2843992
0
LINE
8
layer1
10
-5.2248034
20
-3.2843992
11
-5.1676364
21
-3.2028473
0
LINE
8
layer1
10
-5.1676364
20
-3.2028473
11
-5.1128005
21
-3.1311699
0
LINE
8
layer1
10
-5.1128005
20
-3.1311699
11
-5.0612797
21
-3.0693523
0
LINE
8
layer1
10
-5.0612797
20
-3.0693523
11
-5.0136327
21
-3.0168484
0
LINE
8
layer1
10
-5.0136327
20
-3.0168484
11
-4.9710623
21
-2.9736988
0
LINE
8
layer1
10
-4.9710623
20
-2.9736988
11
-4.9041533
21
-2.9135354
0
LINE
8
layer1
10
-4.9041533
20
-2.9135354
11
-4.8606791
21
-2.8804639
0
LINE
8
layer1
10
-4.8606791
20
-2.8804639
11
-4.832945
21
-2.8624045
0
LINE
8
layer1
10
-4.832945
20
-2.8624045
11
-4.7751598
21
-2.819864
0
LINE
8
layer1
10
-4.7751598
20
-2.819864
11
-4.7292932
21
-2.7779192
0
LINE
8
layer1
10
-4.7292932
20
-2.7779192
11
-4.7107946
21
-2.7574613
0
LINE
8
layer1
10
-4.7107946
20
-2.7574613
11
-4.6951948
21
-2.7375039
0
LINE
8
layer1
10
-4.6951948
20
-2.7375039
11
-4.682484
21
-2.7181543
0
LINE
8
layer1
10
-4.682484
20
-2.7181543
11
-4.672621
21
-2.6995151
0
LINE
8
layer1
10
-4.672621
20
-2.6995151
11
-4.6655737
21
-2.6817156
0
LINE
8
layer1
10
-4.6655737
20
-2.6817156
11
-4.661292
21
-2.664854
0
LINE
8
layer1
10
-4.661292
20
-2.664854
11
-4.6597528
21
-2.6490418
0
LINE
8
layer1
10
-4.6597528
20
-2.6490418
11
-4.6608839
21
-2.6343769
0
LINE
8
layer1
10
-4.6608839
20
-2.6343769
11
-4.6646573
21
-2.6209798
0
LINE
8
layer1
10
-4.6646573
20
-2.6209798
11
-4.681206
21
-2.5901752
0
LINE
8
layer1
10
-4.681206
20
-2.5901752
11
-4.7668849
21
-2.4288492
0
LINE
8
layer1
10
-4.7668849
20
-2.4288492
11
-4.8470396
21
-2.2647084
0
LINE
8
layer1
10
-4.8470396
20
-2.2647084
11
-4.862234
21
-2.2332138
0
LINE
8
layer1
10
-4.862234
20
-2.2332138
11
-4.8708545
21
-2.2222864
0
LINE
8
layer1
10
-4.8708545
20
-2.2222864
11
-4.8820538
21
-2.2127515
0
LINE
8
layer1
10
-4.8820538
20
-2.2127515
11
-4.8957509
21
-2.2047026
0
LINE
8
layer1
10
-4.8957509
20
-2.2047026
11
-4.9119089
21
-2.1982555
0
LINE
8
layer1
10
-4.9119089
20
-2.1982555
11
-4.9304513
21
-2.1934947
0
LINE
8
layer1
10
-4.9304513
20
-2.1934947
11
-4.9513281
21
-2.1905181
0
LINE
8
layer1
10
-4.9513281
20
-2.1905181
11
-4.9744535
21
-2.189428
0
LINE
8
layer1
10
-4.9744535
20
-2.189428
11
-4.9997687
21
-2.1903178
0
LINE
8
layer1
10
-4.9997687
20
-2.1903178
11
-5.0271926
21
-2.1932586
0
LINE
8
layer1
10
-5.0271926
20
-2.1932586
11
-5.0880864
21
-2.205711
0
LINE
8
layer1
10
-5.0880864
20
-2.205711
11
-5.1564677
21
-2.2274555
0
LINE
8
layer1
10
-5.1564677
20
-2.2274555
11
-5.1873797
21
-2.2392778
0
LINE
8
layer1
10
-5.1873797
20
-2.2392778
11
-5.2396886
21
-2.2550103
0
LINE
8
layer1
10
-5.2396886
20
-2.2550103
11
-5.32769
21
-2.2737776
0
LINE
8
layer1
10
-5.32769
20
-2.2737776
11
-5.387621
21
-2.2828551
0
LINE
8
layer1
10
-5.387621
20
-2.2828551
11
-5.4581037
21
-2.2905413
0
LINE
8
layer1
10
-5.4581037
20
-2.2905413
11
-5.5383984
21
-2.295887
0
LINE
8
layer1
10
-5.5383984
20
-2.295887
11
-5.6286184
21
-2.2981193
0
LINE
8
layer1
10
-5.6286184
20
-2.2981193
11
-5.7281972
21
-2.2964334
0
LINE
8
layer1
10
-5.7281972
20
-2.2964334
11
-5.8378792
21
-2.2899852
0
LINE
8
layer1
10
-5.8378792
20
-2.2899852
11
-5.95704
21
-2.2779739
0
LINE
8
layer1
10
-5.95704
20
-2.2779739
11
-6.0851442
21
-2.2596217
0
LINE
8
layer1
10
-6.0851442
20
-2.2596217
11
-6.2094483
21
-2.2366558
0
ARC
8
layer1
10
0.0000089
20
0.0000026
40
6.6
50
196.190877
51
199.8091175
0
LINE
8
layer1
10
-6.3382225
20
-1.8403296
11
-6.2511574
21
-1.7486857
0
LINE
8
layer1
10
-6.2511574
20
-1.7486857
11
-6.158306
21
-1.6585407
0
LINE
8
layer1
10
-6.158306
20
-1.6585407
11
-6.068963
21
-1.5787824
0
LINE
8
layer1
10
-6.068963
20
-1.5787824
11
-5.9840185
21
-1.5090962
0
LINE
8
layer1
10
-5.9840185
20
-1.5090962
11
-5.9044485
21
-1.4492013
0
LINE
8
layer1
10
-5.9044485
20
-1.4492013
11
-5.8301469
21
-1.3979773
0
LINE
8
layer1
10
-5.8301469
20
-1.3979773
11
-5.762045
21
-1.355106
0
LINE
8
layer1
10
-5.762045
20
-1.355106
11
-5.7005055
21
-1.3198956
0
LINE
8
layer1
10
-5.7005055
20
-1.3198956
11
-5.6466847
21
-1.2920129
0
LINE
8
layer1
10
-5.6466847
20
-1.2920129
11
-5.5644589
21
-1.2554701
0
LINE
8
layer1
10
-5.5644589
20
-1.2554701
11
-5.5128928
21
-1.2374515
0
LINE
8
layer1
10
-5.5128928
20
-1.2374515
11
-5.4809355
21
-1.2288463
0
LINE
8
layer1
10
-5.4809355
20
-1.2288463
11
-5.4128327
21
-1.2062445
0
LINE
8
layer1
10
-5.4128327
20
-1.2062445
11
-5.3562493
21
-1.1805262
0
LINE
8
layer1
10
-5.3562493
20
-1.1805262
11
-5.3323343
21
-1.1667859
0
LINE
8
layer1
10
-5.3323343
20
-1.1667859
11
-5.3113309
21
-1.1526259
0
LINE
8
layer1
10
-5.3113309
20
-1.1526259
11
-5.2932628
21
-1.1381513
0
LINE
8
layer1
10
-5.2932628
20
-1.1381513
11
-5.2781227
21
-1.1234721
0
LINE
8
layer1
10
-5.2781227
20
-1.1234721
11
-5.2659199
21
-1.1087216
0
LINE
8
layer1
10
-5.2659199
20
-1.1087216
11
-5.2566373
21
-1.0940083
0
LINE
8
layer1
10
-5.2566373
20
-1.0940083
11
-5.2502872
21
-1.0794456
0
LINE
8
layer1
10
-5.2502872
20
-1.0794456
11
-5.2468312
21
-1.065149
0
LINE
8
layer1
10
-5.2468312
20
-1.065149
11
-5.24628
21
-1.0512415
0
LINE
8
layer1
10
-5.24628
20
-1.0512415
11
-5.2524996
21
-1.0168308
0
LINE
8
layer1
10
-5.2524996
20
-1.0168308
11
-5.2841326
21
-0.8369244
0
LINE
8
layer1
10
-5.2841326
20
-0.8369244
11
-5.309642
21
-0.656048
0
LINE
8
layer1
10
-5.309642
20
-0.656048
11
-5.3143603
21
-0.6213996
0
LINE
8
layer1
10
-5.3143603
20
-0.6213996
11
-5.3191821
21
-0.6083431
0
LINE
8
layer1
10
-5.3191821
20
-0.6083431
11
-5.3268869
21
-0.5958142
0
LINE
8
layer1
10
-5.3268869
20
-0.5958142
11
-5.3374263
21
-0.5839265
0
LINE
8
layer1
10
-5.3374263
20
-0.5839265
11
-5.3508013
21
-0.5728019
0
LINE
8
layer1
10
-5.3508013
20
-0.5728019
11
-5.366965
21
-0.5625441
0
LINE
8
layer1
10
-5.366965
20
-0.5625441
11
-5.3859001
21
-0.553262
0
LINE
8
layer1
10
-5.3859001
20
-0.553262
11
-5.4075568
21
-0.5450791
0
LINE
8
layer1
10
-5.4075568
20
-0.5450791
11
-5.431908
21
-0.5381026
0
LINE
8
layer1
10
-5.431908
20
-0.5381026
11
-5.4588985
21
-0.5324249
0
LINE
8
layer1
10
-5.4588985
20
-0.5324249
11
-5.5206599
21
-0.5254506
0
LINE
8
layer1
10
-5.5206599
20
-0.5254506
11
-5.5924138
21
-0.5249999
0
LINE
8
layer1
10
-5.5924138
20
-0.5249999
11
-5.6254662
21
-0.5266912
0
LINE
8
layer1
10
-5.6254662
20
-0.5266912
11
-5.6800765
21
-0.5254894
0
LINE
8
layer1
10
-5.6800765
20
-0.5254894
11
-5.7695702
21
-0.5161442
0
LINE
8
layer1
10
-5.7695702
20
-0.5161442
11
-5.8293731
21
-0.5062577
0
LINE
8
layer1
10
-5.8293731
20
-0.5062577
11
-5.8987813
21
-0.4917874
0
LINE
8
layer1
10
-5.8987813
20
-0.4917874
11
-5.976798
21
-0.472059
0
LINE
8
layer1
10
-5.976798
20
-0.472059
11
-6.0632921
21
-0.4463026
0
LINE
8
layer1
10
-6.0632921
20
-0.4463026
11
-6.1574762
21
-0.4139276
0
LINE
8
layer1
10
-6.1574762
20
-0.4139276
11
-6.2597974
21
-0.3739014
0
LINE
8
layer1
10
-6.2597974
20
-0.3739014
11
-6.3694144
21
-0.3256553
0
LINE
8
layer1
10
-6.3694144
20
-0.3256553
11
-6.4855776
21
-0.268615
0
LINE
8
layer1
10
-6.4855776
20
-0.268615
11
-6.5967009
21
-0.208361
0
ARC
8
layer1
10
0.0000093
20
0
40
6.6
50
178.1908795
51
181.8091197
0
LINE
8
layer1
10
-6.5967009
20
0.208361
11
-6.4855776
21
0.268615
0
LINE
8
layer1
10
-6.4855776
20
0.268615
11
-6.3694144
21
0.3256553
0
LINE
8
layer1
10
-6.3694144
20
0.3256553
11
-6.2597974
21
0.3739014
0
LINE
8
layer1
10
-6.2597974
20
0.3739014
11
-6.1574762
21
0.4139276
0
LINE
8
layer1
10
-6.1574762
20
0.4139276
11
-6.0632921
21
0.4463026
0
LINE
8
layer1
10
-6.0632921
20
0.4463026
11
-5.976798
21
0.472059
0
LINE
8
layer1
10
-5.976798
20
0.472059
11
-5.8987813
21
0.4917874
0
LINE
8
layer1
10
-5.8987813
20
0.4917874
11
-5.8293731
21
0.5062577
0
LINE
8
layer1
10
-5.8293731
20
0.5062577
11
-5.7695702
21
0.5161442
0
LINE
8
layer1
10
-5.7695702
20
0.5161442
11
-5.6800765
21
0.5254894
0
LINE
8
layer1
10
-5.6800765
20
0.5254894
11
-5.6254662
21
0.5266912
0
LINE
8
layer1
10
-5.6254662
20
0.5266912
11
-5.5924138
21
0.5249999
0
LINE
8
layer1
10
-5.5924138
20
0.5249999
11
-5.5206599
21
0.5254506
0
LINE
8
layer1
10
-5.5206599
20
0.5254506
11
-5.4588985
21
0.5324249
0
LINE
8
layer1
10
-5.4588985
20
0.5324249
11
-5.431908
21
0.5381026
0
LINE
8
layer1
10
-5.431908
20
0.5381026
11
-5.4075568
21
0.5450791
0
LINE
8
layer1
10
-5.4075568
20
0.5450791
11
-5.3859001
21
0.553262
0
LINE
8
layer1
10
-5.3859001
20
0.553262
11
-5.366965
21
0.5625441
0
LINE
8
layer1
10
-5.366965
20
0.5625441
11
-5.3508013
21
0.5728019
0
LINE
8
layer1
10
-5.3508013
20
0.5728019
11
-5.3374263
21
0.5839265
0
LINE
8
layer1
10
-5.3374263
20
0.5839265
11
-5.3268869
21
0.5958142
0
LINE
8
layer1
10
-5.3268869
20
0.5958142
11
-5.3191821
21
0.6083431
0
LINE
8
layer1
10
-5.3191821
20
0.6083431
11
-5.3143603
21
0.6213996
0
LINE
8
layer1
10
-5.3143603
20
0.6213996
11
-5.309642
21
0.656048
0
LINE
8
layer1
10
-5.309642
20
0.656048
11
-5.2841326
21
0.8369244
0
LINE
8
layer1
10
-5.2841326
20
0.8369244
11
-5.2524996
21
1.0168308
0
LINE
8
layer1
10
-5.2524996
20
1.0168308
11
-5.24628
21
1.0512415
0
LINE
8
layer1
10
-5.24628
20
1.0512415
11
-5.2468312
21
1.065149
0
LINE
8
layer1
10
-5.2468312
20
1.065149
11
-5.2502872
21
1.0794456
0
LINE
8
layer1
10
-5.2502872
20
1.0794456
11
-5.2566373
21
1.0940083
0
LINE
8
layer1
10
-5.2566373
20
1.0940083
11
-5.2659199
21
1.1087216
0
LINE
8
layer1
10
-5.2659199
20
1.1087216
11
-5.2781227
21
1.1234721
0
LINE
8
layer1
10
-5.2781227
20
1.1234721
11
-5.2932628
21
1.1381513
0
LINE
8
layer1
10
-5.2932628
20
1.1381513
11
-5.3113309
21
1.1526259
0
LINE
8
layer1
10
-5.3113309
20
1.1526259
11
-5.3323343
21
1.1667859
0
LINE
8
layer1
10
-5.3323343
20
1.1667859
11
-5.3562493
21
1.1805262
0
LINE
8
layer1
10
-5.3562493
20
1.1805262
11
-5.4128327
21
1.2062445
0
LINE
8
layer1
10
-5.4128327
20
1.2062445
11
-5.4809355
21
1.2288463
0
LINE
8
layer1
10
-5.4809355
20
1.2288463
11
-5.5128928
21
1.2374515
0
LINE
8
layer1
10
-5.5128928
20
1.2374515
11
-5.5644589
21
1.2554701
0
LINE
8
layer1
10
-5.5644589
20
1.2554701
11
-5.6466847
21
1.2920129
0
LINE
8
layer1
10
-5.6466847
20
1.2920129
11
-5.7005055
21
1.3198956
0
LINE
8
layer1
10
-5.7005055
20
1.3198956
11
-5.762045
21
1.355106
0
LINE
8
layer1
10
-5.762045
20
1.355106
11
-5.8301469
21
1.3979773
0
LINE
8
layer1
10
-5.8301469
20
1.3979773
11
-5.9044485
21
1.4492013
0
LINE
8
layer1
10
-5.9044485
20
1.4492013
11
-5.9840185
21
1.5090962
0
LINE
8
layer1
10
-5.9840185
20
1.5090962
11
-6.068963
21
1.5787824
0
LINE
8
layer1
10
-6.068963
20
1.5787824
11
-6.158306
21
1.6585407
0
LINE
8
layer1
10
-6.158306
20
1.6585407
11
-6.2511574
21
1.7486857
0
LINE
8
layer1
10
-6.2511574
20
1.7486857
11
-6.3382225
21
1.8403296
0
ARC
8
layer1
10
0.0000089
20
-0.0000025
40
6.6
50
160.1908825
51
163.809123
0
LINE
8
layer1
10
-6.2094483
20
2.2366558
11
-6.0851442
21
2.2596217
0
LINE
8
layer1
10
-6.0851442
20
2.2596217
11
-5.95704
21
2.2779739
0
LINE
8
layer1
10
-5.95704
20
2.2779739
11
-5.8378792
21
2.2899852
0
LINE
8
layer1
10
-5.8378792
20
2.2899852
11
-5.7281972
21
2.2964334
0
LINE
8
layer1
10
-5.7281972
20
2.2964334
11
-5.6286184
21
2.2981193
0
LINE
8
layer1
10
-5.6286184
20
2.2981193
11
-5.5383984
21
2.295887
0
LINE
8
layer1
10
-5.5383984
20
2.295887
11
-5.4581037
21
2.2905413
0
LINE
8
layer1
10
-5.4581037
20
2.2905413
11
-5.387621
21
2.2828551
0
LINE
8
layer1
10
-5.387621
20
2.2828551
11
-5.32769
21
2.2737776
0
LINE
8
layer1
10
-5.32769
20
2.2737776
11
-5.2396886
21
2.2550103
0
LINE
8
layer1
10
-5.2396886
20
2.2550103
11
-5.1873797
21
2.2392778
0
LINE
8
layer1
10
-5.1873797
20
2.2392778
11
-5.1564677
21
2.2274555
0
LINE
8
layer1
10
-5.1564677
20
2.2274555
11
-5.0880864
21
2.205711
0
LINE
8
layer1
10
-5.0880864
20
2.205711
11
-5.0271926
21
2.1932586
0
LINE
8
layer1
10
-5.0271926
20
2.1932586
11
-4.9997687
21
2.1903178
0
LINE
8
layer1
10
-4.9997687
20
2.1903178
11
-4.9744535
21
2.189428
0
LINE
8
layer1
10
-4.9744535
20
2.189428
11
-4.9513281
21
2.1905181
0
LINE
8
layer1
10
-4.9513281
20
2.1905181
11
-4.9304513
21
2.1934947
0
LINE
8
layer1
10
-4.9304513
20
2.1934947
11
-4.9119089
21
2.1982555
0
LINE
8
layer1
10
-4.9119089
20
2.1982555
11
-4.8957509
21
2.2047026
0
LINE
8
layer1
10
-4.8957509
20
2.2047026
11
-4.8820538
21
2.2127515
0
LINE
8
layer1
10
-4.8820538
20
2.2127515
11
-4.8708545
21
2.2222864
0
LINE
8
layer1
10
-4.8708545
20
2.2222864
11
-4.862234
21
2.2332138
0
LINE
8
layer1
10
-4.862234
20
2.2332138
11
-4.8470396
21
2.2647084
0
LINE
8
layer1
10
-4.8470396
20
2.2647084
11
-4.7668849
21
2.4288492
0
LINE
8
layer1
10
-4.7668849
20
2.4288492
11
-4.681206
21
2.5901752
0
LINE
8
layer1
10
-4.681206
20
2.5901752
11
-4.6646573
21
2.6209798
0
LINE
8
layer1
10
-4.6646573
20
2.6209798
11
-4.6608839
21
2.6343769
0
LINE
8
layer1
10
-4.6608839
20
2.6343769
11
-4.6597528
21
2.6490418
0
LINE
8
layer1
10
-4.6597528
20
2.6490418
11
-4.661292
21
2.664854
0
LINE
8
layer1
10
-4.661292
20
2.664854
11
-4.6655737
21
2.6817156
0
LINE
8
layer1
10
-4.6655737
20
2.6817156
11
-4.672621
21
2.6995151
0
LINE
8
layer1
10
-4.672621
20
2.6995151
11
-4.682484
21
2.7181543
0
LINE
8
layer1
10
-4.682484
20
2.7181543
11
-4.6951948
21
2.7375039
0
LINE
8
layer1
10
-4.6951948
20
2.7375039
11
-4.7107946
21
2.7574613
0
LINE
8
layer1
10
-4.7107946
20
2.7574613
11
-4.7292932
21
2.7779192
0
LINE
8
layer1
10
-4.7292932
20
2.7779192
11
-4.7751598
21
2.819864
0
LINE
8
layer1
10
-4.7751598
20
2.819864
11
-4.832945
21
2.8624045
0
LINE
8
layer1
10
-4.832945
20
2.8624045
11
-4.8606791
21
2.8804639
0
LINE
8
layer1
10
-4.8606791
20
2.8804639
11
-4.9041533
21
2.9135354
0
LINE
8
layer1
10
-4.9041533
20
2.9135354
11
-4.9710623
21
2.9736988
0
LINE
8
layer1
10
-4.9710623
20
2.9736988
11
-5.0136327
21
3.0168484
0
LINE
8
layer1
10
-5.0136327
20
3.0168484
11
-5.0612797
21
3.0693523
0
LINE
8
layer1
10
-5.0612797
20
3.0693523
11
-5.1128005
21
3.1311699
0
LINE
8
layer1
10
-5.1128005
20
3.1311699
11
-5.1676364
21
3.2028473
0
LINE
8
layer1
10
-5.1676364
20
3.2028473
11
-5.2248034
21
3.2843992
0
LINE
8
layer1
10
-5.2248034
20
3.2843992
11
-5.2840562
21
3.376924
0
LINE
8
layer1
10
-5.2840562
20
3.376924
11
-5.3443798
21
3.4803872
0
LINE
8
layer1
10
-5.3443798
20
3.4803872
11
-5.4048304
21
3.5948128
0
LINE
8
layer1
10
-5.4048304
20
3.5948128
11
-5.4593147
21
3.7088759
0
ARC
8
layer1
10
0.0000078
20
-0.0000051
40
6.6
50
142.1908835
51
145.809124
0
LINE
8
layer1
10
-5.2143716
20
4.0460111
11
-5.0890546
21
4.0294409
0
LINE
8
layer1
10
-5.0890546
20
4.0294409
11
-4.9615491
21
4.0073085
0
LINE
8
layer1
10
-4.9615491
20
4.0073085
11
-4.8445088
21
3.9819092
0
LINE
8
layer1
10
-4.8445088
20
3.9819092
11
-4.7382023
21
3.9541482
0
LINE
8
layer1
10
-4.7382023
20
3.9541482
11
-4.6429763
21
3.92498
0
LINE
8
layer1
10
-4.6429763
20
3.92498
11
-4.5578618
21
3.8949775
0
LINE
8
layer1
10
-4.5578618
20
3.8949775
11
-4.4831489
21
3.865081
0
LINE
8
layer1
10
-4.4831489
20
3.865081
11
-4.4184911
21
3.8359906
0
LINE
8
layer1
10
-4.4184911
20
3.8359906
11
-4.3642984
21
3.8088377
0
LINE
8
layer1
10
-4.3642984
20
3.8088377
11
-4.2864035
21
3.763795
0
LINE
8
layer1
10
-4.2864035
20
3.763795
11
-4.2415164
21
3.7326682
0
LINE
8
layer1
10
-4.2415164
20
3.7326682
11
-4.2157706
21
3.7118722
0
LINE
8
layer1
10
-4.2157706
20
3.7118722
11
-4.1574555
21
3.670061
0
LINE
8
layer1
10
-4.1574555
20
3.670061
11
-4.1033901
21
3.6394008
0
LINE
8
layer1
10
-4.1033901
20
3.6394008
11
-4.0782171
21
3.6281295
0
LINE
8
layer1
10
-4.0782171
20
3.6281295
11
-4.0544159
21
3.6194604
0
LINE
8
layer1
10
-4.0544159
20
3.6194604
11
-4.0320855
21
3.613351
0
LINE
8
layer1
10
-4.0320855
20
3.613351
11
-4.0113107
21
3.6097306
0
LINE
8
layer1
10
-4.0113107
20
3.6097306
11
-3.9922047
21
3.6085285
0
LINE
8
layer1
10
-3.9922047
20
3.6085285
11
-3.9748452
21
3.609667
0
LINE
8
layer1
10
-3.9748452
20
3.609667
11
-3.9593313
21
3.6130894
0
LINE
8
layer1
10
-3.9593313
20
3.6130894
11
-3.9457336
21
3.6186967
0
LINE
8
layer1
10
-3.9457336
20
3.6186967
11
-3.9341583
21
3.6264254
0
LINE
8
layer1
10
-3.9341583
20
3.6264254
11
-3.9099752
21
3.6516833
0
LINE
8
layer1
10
-3.9099752
20
3.6516833
11
-3.7830213
21
3.7830213
0
LINE
8
layer1
10
-3.7830213
20
3.7830213
11
-3.6516833
21
3.9099752
0
LINE
8
layer1
10
-3.6516833
20
3.9099752
11
-3.6264254
21
3.9341583
0
LINE
8
layer1
10
-3.6264254
20
3.9341583
11
-3.6186967
21
3.9457336
0
LINE
8
layer1
10
-3.6186967
20
3.9457336
11
-3.6130894
21
3.9593313
0
LINE
8
layer1
10
-3.6130894
20
3.9593313
11
-3.609667
21
3.9748452
0
LINE
8
layer1
10
-3.609667
20
3.9748452
11
-3.6085285
21
3.9922047
0
LINE
8
layer1
10
-3.6085285
20
3.9922047
11
-3.6097306
21
4.0113107
0
LINE
8
layer1
10
-3.6097306
20
4.0113107
11
-3.613351
21
4.0320855
0
LINE
8
layer1
10
-3.613351
20
4.0320855
11
-3.6194604
21
4.0544159
0
LINE
8
layer1
10
-3.6194604
20
4.0544159
11
-3.6281295
21
4.0782171
0
LINE
8
layer1
10
-3.6281295
20
4.0782171
11
-3.6394008
21
4.1033901
0
LINE
8
layer1
10
-3.6394008
20
4.1033901
11
-3.670061
21
4.1574555
0
LINE
8
layer1
10
-3.670061
20
4.1574555
11
-3.7118722
21
4.2157706
0
LINE
8
layer1
10
-3.7118722
20
4.2157706
11
-3.7326682
21
4.2415164
0
LINE
8
layer1
10
-3.7326682
20
4.2415164
11
-3.763795
21
4.2864035
0
LINE
8
layer1
10
-3.763795
20
4.2864035
11
-3.8088377
21
4.3642984
0
LINE
8
layer1
10
-3.8088377
20
4.3642984
11
-3.8359906
21
4.4184911
0
LINE
8
layer1
10
-3.8359906
20
4.4184911
11
-3.865081
21
4.4831489
0
LINE
8
layer1
10
-3.865081
20
4.4831489
11
-3.8949775
21
4.5578618
0
LINE
8
layer1
10
-3.8949775
20
4.5578618
11
-3.92498
21
4.6429763
0
LINE
8
layer1
10
-3.92498
20
4.6429763
11
-3.9541482
21
4.7382023
0
LINE
8
layer1
10
-3.9541482
20
4.7382023
11
-3.9819092
21
4.8445088
0
LINE
8
layer1
10
-3.9819092
20
4.8445088
11
-4.0073085
21
4.9615491
0
LINE
8
layer1
10
-4.0073085
20
4.9615491
11
-4.0294409
21
5.0890546
0
LINE
8
layer1
10
-4.0294409
20
5.0890546
11
-4.0460111
21
5.2143716
0
ARC
8
layer1
10
0.0000052
20
-0.0000078
40
6.6
50
124.190876
51
127.8091165
0
LINE
8
layer1
10
-3.7088759
20
5.4593147
11
-3.5948128
21
5.4048304
0
LINE
8
layer1
10
-3.5948128
20
5.4048304
11
-3.4803872
21
5.3443798
0
LINE
8
layer1
10
-3.4803872
20
5.3443798
11
-3.376924
21
5.2840562
0
LINE
8
layer1
10
-3.376924
20
5.2840562
11
-3.2843992
21
5.2248034
0
LINE
8
layer1
10
-3.2843992
20
5.2248034
11
-3.2028473
21
5.1676364
0
LINE
8
layer1
10
-3.2028473
20
5.1676364
11
-3.1311699
21
5.1128005
0
LINE
8
layer1
10
-3.1311699
20
5.1128005
11
-3.0693523
21
5.0612797
0
LINE
8
layer1
10
-3.0693523
20
5.0612797
11
-3.0168484
21
5.0136327
0
LINE
8
layer1
10
-3.0168484
20
5.0136327
11
-2.9736988
21
4.9710623
0
LINE
8
layer1
10
-2.9736988
20
4.9710623
11
-2.9135354
21
4.9041533
0
LINE
8
layer1
10
-2.9135354
20
4.9041533
11
-2.8804639
21
4.8606791
0
LINE
8
layer1
10
-2.8804639
20
4.8606791
11
-2.8624045
21
4.832945
0
LINE
8
layer1
10
-2.8624045
20
4.832945
11
-2.819864
21
4.7751598
0
LINE
8
layer1
10
-2.819864
20
4.7751598
11
-2.7779192
21
4.7292932
0
LINE
8
layer1
10
-2.7779192
20
4.7292932
11
-2.7574613
21
4.7107946
0
LINE
8
layer1
10
-2.7574613
20
4.7107946
11
-2.7375039
21
4.6951948
0
LINE
8
layer1
10
-2.7375039
20
4.6951948
11
-2.7181543
21
4.682484
0
LINE
8
layer1
10
-2.7181543
20
4.682484
11
-2.6995151
21
4.672621
0
LINE
8
layer1
10
-2.6995151
20
4.672621
11
-2.6817156
21
4.6655737
0
LINE
8
layer1
10
-2.6817156
20
4.6655737
11
-2.664854
21
4.661292
0
LINE
8
layer1
10
-2.664854
20
4.661292
11
-2.6490418
21
4.6597528
0
LINE
8
layer1
10
-2.6490418
20
4.6597528
11
-2.6343769
21
4.6608839
0
LINE
8
layer1
10
-2.6343769
20
4.6608839
11
-2.6209798
21
4.6646573
0
LINE
8
layer1
10
-2.6209798
20
4.6646573
11
-2.5901752
21
4.681206
0
LINE
8
layer1
10
-2.5901752
20
4.681206
11
-2.4288492
21
4.7668849
0
LINE
8
layer1
10
-2.4288492
20
4.7668849
11
-2.2647084
21
4.8470396
0
LINE
8
layer1
10
-2.2647084
20
4.8470396
11
-2.2332138
21
4.862234
0
LINE
8
layer1
10
-2.2332138
20
4.862234
11
-2.2222864
21
4.8708545
0
LINE
8
layer1
10
-2.2222864
20
4.8708545
11
-2.2127515
21
4.8820538
0
LINE
8
layer1
10
-2.2127515
20
4.8820538
11
-2.2047026
21
4.8957509
0
LINE
8
layer1
10
-2.2047026
20
4.8957509
11
-2.1982555
21
4.9119089
0
LINE
8
layer1
10
-2.1982555
20
4.9119089
11
-2.1934947
21
4.9304513
0
LINE
8
layer1
10
-2.1934947
20
4.9304513
11
-2.1905181
21
4.9513281
0
LINE
8
layer1
10
-2.1905181
20
4.9513281
11
-2.189428
21
4.9744535
0
LINE
8
layer1
10
-2.189428
20
4.9744535
11
-2.1903178
21
4.9997687
0
LINE
8
layer1
10
-2.1903178
20
4.9997687
11
-2.1932586
21
5.0271926
0
LINE
8
layer1
10
-2.1932586
20
5.0271926
11
-2.205711
21
5.0880864
0
LINE
8
layer1
10
-2.205711
20
5.0880864
11
-2.2274555
21
5.1564677
0
LINE
8
layer1
10
-2.2274555
20
5.1564677
11
-2.2392778
21
5.1873797
0
LINE
8
layer1
10
-2.2392778
20
5.1873797
11
-2.2550103
21
5.2396886
0
LINE
8
layer1
10
-2.2550103
20
5.2396886
11
-2.2737776
21
5.32769
0
LINE
8
layer1
10
-2.2737776
20
5.32769
11
-2.2828551
21
5.387621
0
LINE
8
layer1
10
-2.2828551
20
5.387621
11
-2.2905413
21
5.4581037
0
LINE
8
layer1
10
-2.2905413
20
5.4581037
11
-2.295887
21
5.5383984
0
LINE
8
layer1
10
-2.295887
20
5.5383984
11
-2.2981193
21
5.6286184
0
LINE
8
layer1
10
-2.2981193
20
5.6286184
11
-2.2964334
21
5.7281972
0
LINE
8
layer1
10
-2.2964334
20
5.7281972
11
-2.2899852
21
5.8378792
0
LINE
8
layer1
10
-2.2899852
20
5.8378792
11
-2.2779739
21
5.95704
0
LINE
8
layer1
10
-2.2779739
20
5.95704
11
-2.2596217
21
6.0851442
0
LINE
8
layer1
10
-2.2596217
20
6.0851442
11
-2.2366558
21
6.2094483
0
ARC
8
layer1
10
0.0000026
20
-0.0000089
40
6.6
50
106.190877
51
109.8091175
0
LINE
8
layer1
10
-1.8403296
20
6.3382225
11
-1.7486857
21
6.2511574
0
LINE
8
layer1
10
-1.7486857
20
6.2511574
11
-1.6585407
21
6.158306
0
LINE
8
layer1
10
-1.6585407
20
6.158306
11
-1.5787824
21
6.068963
0
LINE
8
layer1
10
-1.5787824
20
6.068963
11
-1.5090962
21
5.9840185
0
LINE
8
layer1
10
-1.5090962
20
5.9840185
11
-1.4492013
21
5.9044485
0
LINE
8
layer1
10
-1.4492013
20
5.9044485
11
-1.3979773
21
5.8301469
0
LINE
8
layer1
10
-1.3979773
20
5.8301469
11
-1.355106
21
5.762045
0
LINE
8
layer1
10
-1.355106
20
5.762045
11
-1.3198956
21
5.7005055
0
LINE
8
layer1
10
-1.3198956
20
5.7005055
11
-1.2920129
21
5.6466847
0
LINE
8
layer1
10
-1.2920129
20
5.6466847
11
-1.2554701
21
5.5644589
0
LINE
8
layer1
10
-1.2554701
20
5.5644589
11
-1.2374515
21
5.5128928
0
LINE
8
layer1
10
-1.2374515
20
5.5128928
11
-1.2288463
21
5.4809355
0
LINE
8
layer1
10
-1.2288463
20
5.4809355
11
-1.2062445
21
5.4128327
0
LINE
8
layer1
10
-1.2062445
20
5.4128327
11
-1.1805262
21
5.3562493
0
LINE
8
layer1
10
-1.1805262
20
5.3562493
11
-1.1667859
21
5.3323343
0
LINE
8
layer1
10
-1.1667859
20
5.3323343
11
-1.1526259
21
5.3113309
0
LINE
8
layer1
10
-1.1526259
20
5.3113309
11
-1.1381513
21
5.2932628
0
LINE
8
layer1
10
-1.1381513
20
5.2932628
11
-1.1234721
21
5.2781227
0
LINE
8
layer1
10
-1.1234721
20
5.2781227
11
-1.1087216
21
5.2659199
0
LINE
8
layer1
10
-1.1087216
20
5.2659199
11
-1.0940083
21
5.2566373
0
LINE
8
layer1
10
-1.0940083
20
5.2566373
11
-1.0794456
21
5.2502872
0
LINE
8
layer1
10
-1.0794456
20
5.2502872
11
-1.065149
21
5.2468312
0
LINE
8
layer1
10
-1.065149
20
5.2468312
11
-1.0512415
21
5.24628
0
LINE
8
layer1
10
-1.0512415
20
5.24628
11
-1.0168308
21
5.2524996
0
LINE
8
layer1
10
-1.0168308
20
5.2524996
11
-0.8369244
21
5.2841326
0
LINE
8
layer1
10
-0.8369244
20
5.2841326
11
-0.656048
21
5.309642
0
LINE
8
layer1
10
-0.656048
20
5.309642
11
-0.6213996
21
5.3143603
0
LINE
8
layer1
10
-0.6213996
20
5.3143603
11
-0.6083431
21
5.3191821
0
LINE
8
layer1
10
-0.6083431
20
5.3191821
11
-0.5958142
21
5.3268869
0
LINE
8
layer1
10
-0.5958142
20
5.3268869
11
-0.5839265
21
5.3374263
0
LINE
8
layer1
10
-0.5839265
20
5.3374263
11
-0.5728019
21
5.3508013
0
LINE
8
layer1
10
-0.5728019
20
5.3508013
11
-0.5625441
21
5.366965
0
LINE
8
layer1
10
-0.5625441
20
5.366965
11
-0.553262
21
5.3859001
0
LINE
8
layer1
10
-0.553262
20
5.3859001
11
-0.5450791
21
5.4075568
0
LINE
8
layer1
10
-0.5450791
20
5.4075568
11
-0.5381026
21
5.431908
0
LINE
8
layer1
10
-0.5381026
20
5.431908
11
-0.5324249
21
5.4588985
0
LINE
8
layer1
10
-0.5324249
20
5.4588985
11
-0.5254506
21
5.5206599
0
LINE
8
layer1
10
-0.5254506
20
5.5206599
11
-0.5249999
21
5.5924138
0
LINE
8
layer1
10
-0.5249999
20
5.5924138
11
-0.5266912
21
5.6254662
0
LINE
8
layer1
10
-0.5266912
20
5.6254662
11
-0.5254894
21
5.6800765
0
LINE
8
layer1
10
-0.5254894
20
5.6800765
11
-0.5161442
21
5.7695702
0
LINE
8
layer1
10
-0.5161442
20
5.7695702
11
-0.5062577
21
5.8293731
0
LINE
8
layer1
10
-0.5062577
20
5.8293731
11
-0.4917874
21
5.8987813
0
LINE
8
layer1
10
-0.4917874
20
5.8987813
11
-0.472059
21
5.976798
0
LINE
8
layer1
10
-0.472059
20
5.976798
11
-0.4463026
21
6.0632921
0
LINE
8
layer1
10
-0.4463026
20
6.0632921
11
-0.4139276
21
6.1574762
0
LINE
8
layer1
10
-0.4139276
20
6.1574762
11
-0.3739014
21
6.2597974
0
LINE
8
layer1
10
-0.3739014
20
6.2597974
11
-0.3256553
21
6.3694144
0
LINE
8
layer1
10
-0.3256553
20
6.3694144
11
-0.268615
21
6.4855776
0
LINE
8
layer1
10
-0.268615
20
6.4855776
11
-0.208361
21
6.5967009
0
ARC
8
layer1
10
0
20
-0.0000093
40
6.6
50
88.1908795
51
91.8091197
0
LINE
8
layer1
10
0.208361
20
6.5967009
11
0.268615
21
6.4855776
0
LINE
8
layer1
10
0.268615
20
6.4855776
11
0.3256553
21
6.3694144
0
LINE
8
layer1
10
0.3256553
20
6.3694144
11
0.3739014
21
6.2597974
0
LINE
8
layer1
10
0.3739014
20
6.2597974
11
0.4139276
21
6.1574762
0
LINE
8
layer1
10
0.4139276
20
6.1574762
11
0.4463026
21
6.0632921
0
LINE
8
layer1
10
0.4463026
20
6.0632921
11
0.472059
21
5.976798
0
LINE
8
layer1
10
0.472059
20
5.976798
11
0.4917874
21
5.8987813
0
LINE
8
layer1
10
0.4917874
20
5.8987813
11
0.5062577
21
5.8293731
0
LINE
8
layer1
10
0.5062577
20
5.8293731
11
0.5161442
21
5.7695702
0
LINE
8
layer1
10
0.5161442
20
5.7695702
11
0.5254894
21
5.6800765
0
LINE
8
layer1
10
0.5254894
20
5.6800765
11
0.5266912
21
5.6254662
0
LINE
8
layer1
10
0.5266912
20
5.6254662
11
0.5249999
21
5.5924138
0
LINE
8
layer1
10
0.5249999
20
5.5924138
11
0.5254506
21
5.5206599
0
LINE
8
layer1
10
0.5254506
20
5.5206599
11
0.5324249
21
5.4588985
0
LINE
8
layer1
10
0.5324249
20
5.4588985
11
0.5381026
21
5.431908
0
LINE
8
layer1
10
0.5381026
20
5.431908
11
0.5450791
21
5.4075568
0
LINE
8
layer1
10
0.5450791
20
5.4075568
11
0.553262
21
5.3859001
0
LINE
8
layer1
10
0.553262
20
5.3859001
11
0.5625441
21
5.366965
0
LINE
8
layer1
10
0.5625441
20
5.366965
11
0.5728019
21
5.3508013
0
LINE
8
layer1
10
0.5728019
20
5.3508013
11
0.5839265
21
5.3374263
0
LINE
8
layer1
10
0.5839265
20
5.3374263
11
0.5958142
21
5.3268869
0
LINE
8
layer1
10
0.5958142
20
5.3268869
11
0.6083431
21
5.3191821
0
LINE
8
layer1
10
0.6083431
20
5.3191821
11
0.6213996
21
5.3143603
0
LINE
8
layer1
10
0.6213996
20
5.3143603
11
0.656048
21
5.309642
0
LINE
8
layer1
10
0.656048
20
5.309642
11
0.8369244
21
5.2841326
0
LINE
8
layer1
10
0.8369244
20
5.2841326
11
1.0168308
21
5.2524996
0
LINE
8
layer1
10
1.0168308
20
5.2524996
11
1.0512415
21
5.24628
0
LINE
8
layer1
10
1.0512415
20
5.24628
11
1.065149
21
5.2468312
0
LINE
8
layer1
10
1.065149
20
5.2468312
11
1.0794456
21
5.2502872
0
LINE
8
layer1
10
1.0794456
20
5.2502872
11
1.0940083
21
5.2566373
0
LINE
8
layer1
10
1.0940083
20
5.2566373
11
1.1087216
21
5.2659199
0
LINE
8
layer1
10
1.1087216
20
5.2659199
11
1.1234721
21
5.2781227
0
LINE
8
layer1
10
1.1234721
20
5.2781227
11
1.1381513
21
5.2932628
0
LINE
8
layer1
10
1.1381513
20
5.2932628
11
1.1526259
21
5.3113309
0
LINE
8
layer1
10
1.1526259
20
5.3113309
11
1.1667859
21
5.3323343
0
LINE
8
layer1
10
1.1667859
20
5.3323343
11
1.1805262
21
5.3562493
0
LINE
8
layer1
10
1.1805262
20
5.3562493
11
1.2062445
21
5.4128327
0
LINE
8
layer1
10
1.2062445
20
5.4128327
11
1.2288463
21
5.4809355
0
LINE
8
layer1
10
1.2288463
20
5.4809355
11
1.2374515
21
5.5128928
0
LINE
8
layer1
10
1.2374515
20
5.5128928
11
1.2554701
21
5.5644589
0
LINE
8
layer1
10
1.2554701
20
5.5644589
11
1.2920129
21
5.6466847
0
LINE
8
layer1
10
1.2920129
20
5.6466847
11
1.3198956
21
5.7005055
0
LINE
8
layer1
10
1.3198956
20
5.7005055
11
1.355106
21
5.762045
0
LINE
8
layer1
10
1.355106
20
5.762045
11
1.3979773
21
5.8301469
0
LINE
8
layer1
10
1.3979773
20
5.8301469
11
1.4492013
21
5.9044485
0
LINE
8
layer1
10
1.4492013
20
5.9044485
11
1.5090962
21
5.9840185
0
LINE
8
layer1
10
1.5090962
20
5.9840185
11
1.5787824
21
6.068963
0
LINE
8
layer1
10
1.5787824
20
6.068963
11
1.6585407
21
6.158306
0
LINE
8
layer1
10
1.6585407
20
6.158306
11
1.7486857
21
6.2511574
0
LINE
8
layer1
10
1.7486857
20
6.2511574
11
1.8403296
21
6.3382225
0
ARC
8
layer1
10
-0.0000025
20
-0.0000089
40
6.6
50
70.1908825
51
73.809123
0
LINE
8
layer1
10
2.2366558
20
6.2094483
11
2.2596217
21
6.0851442
0
LINE
8
layer1
10
2.2596217
20
6.0851442
11
2.2779739
21
5.95704
0
LINE
8
layer1
10
2.2779739
20
5.95704
11
2.2899852
21
5.8378792
0
LINE
8
layer1
10
2.2899852
20
5.8378792
11
2.2964334
21
5.7281972
0
LINE
8
layer1
10
2.2964334
20
5.7281972
11
2.2981193
21
5.6286184
0
LINE
8
layer1
10
2.2981193
20
5.6286184
11
2.295887
21
5.5383984
0
LINE
8
layer1
10
2.295887
20
5.5383984
11
2.2905413
21
5.4581037
0
LINE
8
layer1
10
2.2905413
20
5.4581037
11
2.2828551
21
5.387621
0
LINE
8
layer1
10
2.2828551
20
5.387621
11
2.2737776
21
5.32769
0
LINE
8
layer1
10
2.2737776
20
5.32769
11
2.2550103
21
5.2396886
0
LINE
8
layer1
10
2.2550103
20
5.2396886
11
2.2392778
21
5.1873797
0
LINE
8
layer1
10
2.2392778
20
5.1873797
11
2.2274555
21
5.1564677
0
LINE
8
layer1
10
2.2274555
20
5.1564677
11
2.205711
21
5.0880864
0
LINE
8
layer1
10
2.205711
20
5.0880864
11
2.1932586
21
5.0271926
0
LINE
8
layer1
10
2.1932586
20
5.0271926
11
2.1903178
21
4.9997687
0
LINE
8
layer1
10
2.1903178
20
4.9997687
11
2.189428
21
4.9744535
0
LINE
8
layer1
10
2.189428
20
4.9744535
11
2.1905181
21
4.9513281
0
LINE
8
layer1
10
2.1905181
20
4.9513281
11
2.1934947
21
4.9304513
0
LINE
8
layer1
10
2.1934947
20
4.9304513
11
2.1982555
21
4.9119089
0
LINE
8
layer1
10
2.1982555
20
4.9119089
11
2.2047026
21
4.8957509
0
LINE
8
layer1
10
2.2047026
20
4.8957509
11
2.2127515
21
4.8820538
0
LINE
8
layer1
10
2.2127515
20
4.8820538
11
2.2222864
21
4.8708545
0
LINE
8
layer1
10
2.2222864
20
4.8708545
11
2.2332138
21
4.862234
0
LINE
8
layer1
10
2.2332138
20
4.862234
11
2.2647084
21
4.8470396
0
LINE
8
layer1
10
2.2647084
20
4.8470396
11
2.4288492
21
4.7668849
0
LINE
8
layer1
10
2.4288492
20
4.7668849
11
2.5901752
21
4.681206
0
LINE
8
layer1
10
2.5901752
20
4.681206
11
2.6209798
21
4.6646573
0
LINE
8
layer1
10
2.6209798
20
4.6646573
11
2.6343769
21
4.6608839
0
LINE
8
layer1
10
2.6343769
20
4.6608839
11
2.6490418
21
4.6597528
0
LINE
8
layer1
10
2.6490418
20
4.6597528
11
2.664854
21
4.661292
0
LINE
8
layer1
10
2.664854
20
4.661292
11
2.6817156
21
4.6655737
0
LINE
8
layer1
10
2.6817156
20
4.6655737
11
2.6995151
21
4.672621
0
LINE
8
layer1
10
2.6995151
20
4.672621
11
2.7181543
21
4.682484
0
LINE
8
layer1
10
2.7181543
20
4.682484
11
2.7375039
21
4.6951948
0
LINE
8
layer1
10
2.7375039
20
4.6951948
11
2.7574613
21
4.7107946
0
LINE
8
layer1
10
2.7574613
20
4.7107946
11
2.7779192
21
4.7292932
0
LINE
8
layer1
10
2.7779192
20
4.7292932
11
2.819864
21
4.7751598
0
LINE
8
layer1
10
2.819864
20
4.7751598
11
2.8624045
21
4.832945
0
LINE
8
layer1
10
2.8624045
20
4.832945
11
2.8804639
21
4.8606791
0
LINE
8
layer1
10
2.8804639
20
4.8606791
11
2.9135354
21
4.9041533
0
LINE
8
layer1
10
2.9135354
20
4.9041533
11
2.9736988
21
4.9710623
0
LINE
8
layer1
10
2.9736988
20
4.9710623
11
3.0168484
21
5.0136327
0
LINE
8
layer1
10
3.0168484
20
5.0136327
11
3.0693523
21
5.0612797
0
LINE
8
layer1
10
3.0693523
20
5.0612797
11
3.1311699
21
5.1128005
0
LINE
8
layer1
10
3.1311699
20
5.1128005
11
3.2028473
21
5.1676364
0
LINE
8
layer1
10
3.2028473
20
5.1676364
11
3.2843992
21
5.2248034
0
LINE
8
layer1
10
3.2843992
20
5.2248034
11
3.376924
21
5.2840562
0
LINE
8
layer1
10
3.376924
20
5.2840562
11
3.4803872
21
5.3443798
0
LINE
8
layer1
10
3.4803872
20
5.3443798
11
3.5948128
21
5.4048304
0
LINE
8
layer1
10
3.5948128
20
5.4048304
11
3.7088759
21
5.4593147
0
ARC
8
layer1
10
-0.0000051
20
-0.0000078
40
6.6
50
52.1908835
51
55.809124
0
LINE
8
layer1
10
4.0460111
20
5.2143716
11
4.0294409
21
5.0890546
0
LINE
8
layer1
10
4.0294409
20
5.0890546
11
4.0073085
21
4.9615491
0
LINE
8
layer1
10
4.0073085
20
4.9615491
11
3.9819092
21
4.8445088
0
LINE
8
layer1
10
3.9819092
20
4.8445088
11
3.9541482
21
4.7382023
0
LINE
8
layer1
10
3.9541482
20
4.7382023
11
3.92498
21
4.6429763
0
LINE
8
layer1
10
3.92498
20
4.6429763
11
3.8949775
21
4.5578618
0
LINE
8
layer1
10
3.8949775
20
4.5578618
11
3.865081
21
4.4831489
0
LINE
8
layer1
10
3.865081
20
4.4831489
11
3.8359906
21
4.4184911
0
LINE
8
layer1
10
3.8359906
20
4.4184911
11
3.8088377
21
4.3642984
0
LINE
8
layer1
10
3.8088377
20
4.3642984
11
3.763795
21
4.2864035
0
LINE
8
layer1
10
3.763795
20
4.2864035
11
3.7326682
21
4.2415164
0
LINE
8
layer1
10
3.7326682
20
4.2415164
11
3.7118722
21
4.2157706
0
LINE
8
layer1
10
3.7118722
20
4.2157706
11
3.670061
21
4.1574555
0
LINE
8
layer1
10
3.670061
20
4.1574555
11
3.6394008
21
4.1033901
0
LINE
8
layer1
10
3.6394008
20
4.1033901
11
3.6281295
21
4.0782171
0
LINE
8
layer1
10
3.6281295
20
4.0782171
11
3.6194604
21
4.0544159
0
LINE
8
layer1
10
3.6194604
20
4.0544159
11
3.613351
21
4.0320855
0
LINE
8
layer1
10
3.613351
20
4.0320855
11
3.6097306
21
4.0113107
0
LINE
8
layer1
10
3.6097306
20
4.0113107
11
3.6085285
21
3.9922047
0
LINE
8
layer1
10
3.6085285
20
3.9922047
11
3.609667
21
3.9748452
0
LINE
8
layer1
10
3.609667
20
3.9748452
11
3.6130894
21
3.9593313
0
LINE
8
layer1
10
3.6130894
20
3.9593313
11
3.6186967
21
3.9457336
0
LINE
8
layer1
10
3.6186967
20
3.9457336
11
3.6264254
21
3.9341583
0
LINE
8
layer1
10
3.6264254
20
3.9341583
11
3.6516833
21
3.9099752
0
LINE
8
layer1
10
3.6516833
20
3.9099752
11
3.7830213
21
3.7830213
0
LINE
8
layer1
10
3.7830213
20
3.7830213
11
3.9099752
21
3.6516833
0
LINE
8
layer1
10
3.9099752
20
3.6516833
11
3.9341583
21
3.6264254
0
LINE
8
layer1
10
3.9341583
20
3.6264254
11
3.9457336
21
3.6186967
0
LINE
8
layer1
10
3.9457336
20
3.6186967
11
3.9593313
21
3.6130894
0
LINE
8
layer1
10
3.9593313
20
3.6130894
11
3.9748452
21
3.609667
0
LINE
8
layer1
10
3.9748452
20
3.609667
11
3.9922047
21
3.6085285
0
LINE
8
layer1
10
3.9922047
20
3.6085285
11
4.0113107
21
3.6097306
0
LINE
8
layer1
10
4.0113107
20
3.6097306
11
4.0320855
21
3.613351
0
LINE
8
layer1
10
4.0320855
20
3.613351
11
4.0544159
21
3.6194604
0
LINE
8
layer1
10
4.0544159
20
3.6194604
11
4.0782171
21
3.6281295
0
LINE
8
layer1
10
4.0782171
20
3.6281295
11
4.1033901
21
3.6394008
0
LINE
8
layer1
10
4.1033901
20
3.6394008
11
4.1574555
21
3.670061
0
LINE
8
layer1
10
4.1574555
20
3.670061
11
4.2157706
21
3.7118722
0
LINE
8
layer1
10
4.2157706
20
3.7118722
11
4.2415164
21
3.7326682
0
LINE
8
layer1
10
4.2415164
20
3.7326682
11
4.2864035
21
3.763795
0
LINE
8
layer1
10
4.2864035
20
3.763795
11
4.3642984
21
3.8088377
0
LINE
8
layer1
10
4.3642984
20
3.8088377
11
4.4184911
21
3.8359906
0
LINE
8
layer1
10
4.4184911
20
3.8359906
11
4.4831489
21
3.865081
0
LINE
8
layer1
10
4.4831489
20
3.865081
11
4.5578618
21
3.8949775
0
LINE
8
layer1
10
4.5578618
20
3.8949775
11
4.6429763
21
3.92498
0
LINE
8
layer1
10
4.6429763
20
3.92498
11
4.7382023
21
3.9541482
0
LINE
8
layer1
10
4.7382023
20
3.9541482
11
4.8445088
21
3.9819092
0
LINE
8
layer1
10
4.8445088
20
3.9819092
11
4.9615491
21
4.0073085
0
LINE
8
layer1
10
4.9615491
20
4.0073085
11
5.0890546
21
4.0294409
0
LINE
8
layer1
10
5.0890546
20
4.0294409
11
5.2143716
21
4.0460111
0
ARC
8
layer1
10
-0.0000078
20
-0.0000052
40
6.6
50
34.190876
51
37.8091165
0
LINE
8
layer1
10
5.4593147
20
3.7088759
11
5.4048304
21
3.5948128
0
LINE
8
layer1
10
5.4048304
20
3.5948128
11
5.3443798
21
3.4803872
0
LINE
8
layer1
10
5.3443798
20
3.4803872
11
5.2840562
21
3.376924
0
LINE
8
layer1
10
5.2840562
20
3.376924
11
5.2248034
21
3.2843992
0
LINE
8
layer1
10
5.2248034
20
3.2843992
11
5.1676364
21
3.2028473
0
LINE
8
layer1
10
5.1676364
20
3.2028473
11
5.1128005
21
3.1311699
0
LINE
8
layer1
10
5.1128005
20
3.1311699
11
5.0612797
21
3.0693523
0
LINE
8
layer1
10
5.0612797
20
3.0693523
11
5.0136327
21
3.0168484
0
LINE
8
layer1
10
5.0136327
20
3.0168484
11
4.9710623
21
2.9736988
0
LINE
8
layer1
10
4.9710623
20
2.9736988
11
4.9041533
21
2.9135354
0
LINE
8
layer1
10
4.9041533
20
2.9135354
11
4.8606791
21
2.8804639
0
LINE
8
layer1
10
4.8606791
20
2.8804639
11
4.832945
21
2.8624045
0
LINE
8
layer1
10
4.832945
20
2.8624045
11
4.7751598
21
2.819864
0
LINE
8
layer1
10
4.7751598
20
2.819864
11
4.7292932
21
2.7779192
0
LINE
8
layer1
10
4.7292932
20
2.7779192
11
4.7107946
21
2.7574613
0
LINE
8
layer1
10
4.7107946
20
2.7574613
11
4.6951948
21
2.7375039
0
LINE
8
layer1
10
4.6951948
20
2.7375039
11
4.682484
21
2.7181543
0
LINE
8
layer1
10
4.682484
20
2.7181543
11
4.672621
21
2.6995151
0
LINE
8
layer1
10
4.672621
20
2.6995151
11
4.6655737
21
2.6817156
0
LINE
8
layer1
10
4.6655737
20
2.6817156
11
4.661292
21
2.664854
0
LINE
8
layer1
10
4.661292
20
2.664854
11
4.6597528
21
2.6490418
0
LINE
8
layer1
10
4.6597528
20
2.6490418
11
4.6608839
21
2.6343769
0
LINE
8
layer1
10
4.6608839
20
2.6343769
11
4.6646573
21
2.6209798
0
LINE
8
layer1
10
4.6646573
20
2.6209798
11
4.681206
21
2.5901752
0
LINE
8
layer1
10
4.681206
20
2.5901752
11
4.7668849
21
2.4288492
0
LINE
8
layer1
10
4.7668849
20
2.4288492
11
4.8470396
21
2.2647084
0
LINE
8
layer1
10
4.8470396
20
2.2647084
11
4.862234
21
2.2332138
0
LINE
8
layer1
10
4.862234
20
2.2332138
11
4.8708545
21
2.2222864
0
LINE
8
layer1
10
4.8708545
20
2.2222864
11
4.8820538
21
2.2127515
0
LINE
8
layer1
10
4.8820538
20
2.2127515
11
4.8957509
21
2.2047026
0
LINE
8
layer1
10
4.8957509
20
2.2047026
11
4.9119089
21
2.1982555
0
LINE
8
layer1
10
4.9119089
20
2.1982555
11
4.9304513
21
2.1934947
0
LINE
8
layer1
10
4.9304513
20
2.1934947
11
4.9513281
21
2.1905181
0
LINE
8
layer1
10
4.9513281
20
2.1905181
11
4.9744535
21
2.189428
0
LINE
8
layer1
10
4.9744535
20
2.189428
11
4.9997687
21
2.1903178
0
LINE
8
layer1
10
4.9997687
20
2.1903178
11
5.0271926
21
2.1932586
0
LINE
8
layer1
10
5.0271926
20
2.1932586
11
5.0880864
21
2.205711
0
LINE
8
layer1
10
5.0880864
20
2.205711
11
5.1564677
21
2.2274555
0
LINE
8
layer1
10
5.1564677
20
2.2274555
11
5.1873797
21
2.2392778
0
LINE
8
layer1
10
5.1873797
20
2.2392778
11
5.2396886
21
2.2550103
0
LINE
8
layer1
10
5.2396886
20
2.2550103
11
5.32769
21
2.2737776
0
LINE
8
layer1
10
5.32769
20
2.2737776
11
5.387621
21
2.2828551
0
LINE
8
layer1
10
5.387621
20
2.2828551
11
5.4581037
21
2.2905413
0
LINE
8
layer1
10
5.4581037
20
2.2905413
11
5.5383984
21
2.295887
0
LINE
8
layer1
10
5.5383984
20
2.295887
11
5.6286184
21
2.2981193
0
LINE
8
layer1
10
5.6286184
20
2.2981193
11
5.7281972
21
2.2964334
0
LINE
8
layer1
10
5.7281972
20
2.2964334
11
5.8378792
21
2.2899852
0
LINE
8
layer1
10
5.8378792
20
2.2899852
11
5.95704
21
2.2779739
0
LINE
8
layer1
10
5.95704
20
2.2779739
11
6.0851442
21
2.2596217
0
LINE
8
layer1
10
6.0851442
20
2.2596217
11
6.2094483
21
2.2366558
0
ARC
8
layer1
10
-0.0000089
20
-0.0000026
40
6.6
50
16.190877
51
19.8091175
0
LINE
8
layer1
10
6.3382225
20
1.8403296
11
6.2511574
21
1.7486857
0
ENDSEC
0
EOF