0
SECTION
2
HEADER
0
ENDSEC
0
SECTION
2
TABLES
0
TABLE
2
LTYPE
0
LTYPE
72
65
70
64
2
CONTINUOUS
3
______
73
0
40
0
0
ENDTAB
0
TABLE
2
LAYER
0
ENDTAB
0
ENDSEC
0
SECTION
2
ENTITIES
0
CIRCLE
8
0
10
0
20
0
40
4.5
0
CIRCLE
8
0
10
0
20
0
40
4.5
0
LINE
8
layer0
10
7.2932999
20
2.0404245
11
7.1845841
21
1.934868
0
LINE
8
layer0
10
7.1845841
20
1.934868
11
7.0806586
21
1.8420882
0
LINE
8
layer0
10
7.0806586
20
1.8420882
11
6.9818467
21
1.7610023
0
LINE
8
layer0
10
6.9818467
20
1.7610023
11
6.8887014
21
1.6908677
0
LINE
8
layer0
10
6.8887014
20
1.6908677
11
6.8013921
21
1.6306785
0
LINE
8
layer0
10
6.8013921
20
1.6306785
11
6.7217202
21
1.5805681
0
LINE
8
layer0
10
6.7217202
20
1.5805681
11
6.6519237
21
1.5405974
0
LINE
8
layer0
10
6.6519237
20
1.5405974
11
6.5879081
21
1.5074045
0
LINE
8
layer0
10
6.5879081
20
1.5074045
11
6.4907011
21
1.4642568
0
LINE
8
layer0
10
6.4907011
20
1.4642568
11
6.4338373
21
1.4443361
0
LINE
8
layer0
10
6.4338373
20
1.4443361
11
6.3923218
21
1.4329211
0
LINE
8
layer0
10
6.3923218
20
1.4329211
11
6.3144333
21
1.40639
0
LINE
8
layer0
10
6.3144333
20
1.40639
11
6.2499977
21
1.3763603
0
LINE
8
layer0
10
6.2499977
20
1.3763603
11
6.2228751
21
1.3603706
0
LINE
8
layer0
10
6.2228751
20
1.3603706
11
6.1991569
21
1.3439176
0
LINE
8
layer0
10
6.1991569
20
1.3439176
11
6.1788638
21
1.3271264
0
LINE
8
layer0
10
6.1788638
20
1.3271264
11
6.1619822
21
1.3101465
0
LINE
8
layer0
10
6.1619822
20
1.3101465
11
6.1485131
21
1.2930996
0
LINE
8
layer0
10
6.1485131
20
1.2930996
11
6.1384642
21
1.2761286
0
LINE
8
layer0
10
6.1384642
20
1.2761286
11
6.1318037
21
1.2593704
0
LINE
8
layer0
10
6.1318037
20
1.2593704
11
6.1285426
21
1.242948
0
LINE
8
layer0
10
6.1285426
20
1.242948
11
6.128636
21
1.2270165
0
LINE
8
layer0
10
6.128636
20
1.2270165
11
6.1362843
21
1.1869092
0
LINE
8
layer0
10
6.1362843
20
1.1869092
11
6.1730521
21
0.9777154
0
LINE
8
layer0
10
6.1730521
20
0.9777154
11
6.2027283
21
0.7673984
0
LINE
8
layer0
10
6.2027283
20
0.7673984
11
6.2078482
21
0.7268906
0
LINE
8
layer0
10
6.2078482
20
0.7268906
11
6.2126825
21
0.71171
0
LINE
8
layer0
10
6.2126825
20
0.71171
11
6.2208588
21
0.6970992
0
LINE
8
layer0
10
6.2208588
20
0.6970992
11
6.2323718
21
0.6832193
0
LINE
8
layer0
10
6.2323718
20
0.6832193
11
6.2471732
21
0.6701843
0
LINE
8
layer0
10
6.2471732
20
0.6701843
11
6.2652508
21
0.6581339
0
LINE
8
layer0
10
6.2652508
20
0.6581339
11
6.2865532
21
0.6472017
0
LINE
8
layer0
10
6.2865532
20
0.6472017
11
6.3110419
21
0.6375032
0
LINE
8
layer0
10
6.3110419
20
0.6375032
11
6.3386835
21
0.6291849
0
LINE
8
layer0
10
6.3386835
20
0.6291849
11
6.3694197
21
0.622359
0
LINE
8
layer0
10
6.3694197
20
0.622359
11
6.4399813
21
0.6137108
0
LINE
8
layer0
10
6.4399813
20
0.6137108
11
6.5222563
21
0.6125471
0
LINE
8
layer0
10
6.5222563
20
0.6125471
11
6.5652673
21
0.6145198
0
LINE
8
layer0
10
6.5652673
20
0.6145198
11
6.6255038
21
0.613146
0
LINE
8
layer0
10
6.6255038
20
0.613146
11
6.7312865
21
0.6021487
0
LINE
8
layer0
10
6.7312865
20
0.6021487
11
6.8024262
21
0.5903622
0
LINE
8
layer0
10
6.8024262
20
0.5903622
11
6.8811582
21
0.5739162
0
LINE
8
layer0
10
6.8811582
20
0.5739162
11
6.9724156
21
0.5508783
0
LINE
8
layer0
10
6.9724156
20
0.5508783
11
7.0740512
21
0.520615
0
LINE
8
layer0
10
7.0740512
20
0.520615
11
7.1843104
21
0.4826966
0
LINE
8
layer0
10
7.1843104
20
0.4826966
11
7.303343
21
0.4361138
0
LINE
8
layer0
10
7.303343
20
0.4361138
11
7.4308526
21
0.3799898
0
LINE
8
layer0
10
7.4308526
20
0.3799898
11
7.5668662
21
0.3131946
0
LINE
8
layer0
10
7.5668662
20
0.3131946
11
7.6961514
21
0.2430798
0
ARC
8
layer0
10
-0.0000108
20
0
40
7.7
50
358.1909401
51
361.8090599
0
LINE
8
layer0
10
7.6961514
20
-0.2430798
11
7.5668662
21
-0.3131946
0
LINE
8
layer0
10
7.5668662
20
-0.3131946
11
7.4308526
21
-0.3799898
0
LINE
8
layer0
10
7.4308526
20
-0.3799898
11
7.303343
21
-0.4361138
0
LINE
8
layer0
10
7.303343
20
-0.4361138
11
7.1843104
21
-0.4826966
0
LINE
8
layer0
10
7.1843104
20
-0.4826966
11
7.0740512
21
-0.520615
0
LINE
8
layer0
10
7.0740512
20
-0.520615
11
6.9724156
21
-0.5508783
0
LINE
8
layer0
10
6.9724156
20
-0.5508783
11
6.8811582
21
-0.5739162
0
LINE
8
layer0
10
6.8811582
20
-0.5739162
11
6.8024262
21
-0.5903622
0
LINE
8
layer0
10
6.8024262
20
-0.5903622
11
6.7312865
21
-0.6021487
0
LINE
8
layer0
10
6.7312865
20
-0.6021487
11
6.6255038
21
-0.613146
0
LINE
8
layer0
10
6.6255038
20
-0.613146
11
6.5652673
21
-0.6145198
0
LINE
8
layer0
10
6.5652673
20
-0.6145198
11
6.5222563
21
-0.6125471
0
LINE
8
layer0
10
6.5222563
20
-0.6125471
11
6.4399813
21
-0.6137108
0
LINE
8
layer0
10
6.4399813
20
-0.6137108
11
6.3694197
21
-0.622359
0
LINE
8
layer0
10
6.3694197
20
-0.622359
11
6.3386835
21
-0.6291849
0
LINE
8
layer0
10
6.3386835
20
-0.6291849
11
6.3110419
21
-0.6375032
0
LINE
8
layer0
10
6.3110419
20
-0.6375032
11
6.2865532
21
-0.6472017
0
LINE
8
layer0
10
6.2865532
20
-0.6472017
11
6.2652508
21
-0.6581339
0
LINE
8
layer0
10
6.2652508
20
-0.6581339
11
6.2471732
21
-0.6701843
0
LINE
8
layer0
10
6.2471732
20
-0.6701843
11
6.2323718
21
-0.6832193
0
LINE
8
layer0
10
6.2323718
20
-0.6832193
11
6.2208588
21
-0.6970992
0
LINE
8
layer0
10
6.2208588
20
-0.6970992
11
6.2126825
21
-0.71171
0
LINE
8
layer0
10
6.2126825
20
-0.71171
11
6.2078482
21
-0.7268906
0
LINE
8
layer0
10
6.2078482
20
-0.7268906
11
6.2027283
21
-0.7673984
0
LINE
8
layer0
10
6.2027283
20
-0.7673984
11
6.1730521
21
-0.9777154
0
LINE
8
layer0
10
6.1730521
20
-0.9777154
11
6.1362843
21
-1.1869092
0
LINE
8
layer0
10
6.1362843
20
-1.1869092
11
6.128636
21
-1.2270165
0
LINE
8
layer0
10
6.128636
20
-1.2270165
11
6.1285426
21
-1.242948
0
LINE
8
layer0
10
6.1285426
20
-1.242948
11
6.1318037
21
-1.2593704
0
LINE
8
layer0
10
6.1318037
20
-1.2593704
11
6.1384642
21
-1.2761286
0
LINE
8
layer0
10
6.1384642
20
-1.2761286
11
6.1485131
21
-1.2930996
0
LINE
8
layer0
10
6.1485131
20
-1.2930996
11
6.1619822
21
-1.3101465
0
LINE
8
layer0
10
6.1619822
20
-1.3101465
11
6.1788638
21
-1.3271264
0
LINE
8
layer0
10
6.1788638
20
-1.3271264
11
6.1991569
21
-1.3439176
0
LINE
8
layer0
10
6.1991569
20
-1.3439176
11
6.2228751
21
-1.3603706
0
LINE
8
layer0
10
6.2228751
20
-1.3603706
11
6.2499977
21
-1.3763603
0
LINE
8
layer0
10
6.2499977
20
-1.3763603
11
6.3144333
21
-1.40639
0
LINE
8
layer0
10
6.3144333
20
-1.40639
11
6.3923218
21
-1.4329211
0
LINE
8
layer0
10
6.3923218
20
-1.4329211
11
6.4338373
21
-1.4443361
0
LINE
8
layer0
10
6.4338373
20
-1.4443361
11
6.4907011
21
-1.4642568
0
LINE
8
layer0
10
6.4907011
20
-1.4642568
11
6.5879081
21
-1.5074045
0
LINE
8
layer0
10
6.5879081
20
-1.5074045
11
6.6519237
21
-1.5405974
0
LINE
8
layer0
10
6.6519237
20
-1.5405974
11
6.7217202
21
-1.5805681
0
LINE
8
layer0
10
6.7217202
20
-1.5805681
11
6.8013921
21
-1.6306785
0
LINE
8
layer0
10
6.8013921
20
-1.6306785
11
6.8887014
21
-1.6908677
0
LINE
8
layer0
10
6.8887014
20
-1.6908677
11
6.9818467
21
-1.7610023
0
LINE
8
layer0
10
6.9818467
20
-1.7610023
11
7.0806586
21
-1.8420882
0
LINE
8
layer0
10
7.0806586
20
-1.8420882
11
7.1845841
21
-1.934868
0
LINE
8
layer0
10
7.1845841
20
-1.934868
11
7.2932999
21
-2.0404245
0
LINE
8
layer0
10
7.2932999
20
-2.0404245
11
7.3945907
21
-2.1470589
0
ARC
8
layer0
10
-0.0000102
20
0.0000035
40
7.7
50
340.1909387
51
343.8090588
0
LINE
8
layer0
10
7.2443591
20
-2.6094242
11
7.099735
21
-2.636156
0
LINE
8
layer0
10
7.099735
20
-2.636156
11
6.9497375
21
-2.6576515
0
LINE
8
layer0
10
6.9497375
20
-2.6576515
11
6.8111254
21
-2.671626
0
LINE
8
layer0
10
6.8111254
20
-2.671626
11
6.6835238
21
-2.6791457
0
LINE
8
layer0
10
6.6835238
20
-2.6791457
11
6.5669436
21
-2.6811364
0
LINE
8
layer0
10
6.5669436
20
-2.6811364
11
6.4609306
21
-2.6785114
0
LINE
8
layer0
10
6.4609306
20
-2.6785114
11
6.3670205
21
-2.6722215
0
LINE
8
layer0
10
6.3670205
20
-2.6722215
11
6.2870598
21
-2.6635331
0
LINE
8
layer0
10
6.2870598
20
-2.6635331
11
6.2157597
21
-2.6527593
0
LINE
8
layer0
10
6.2157597
20
-2.6527593
11
6.111756
21
-2.6305297
0
LINE
8
layer0
10
6.111756
20
-2.6305297
11
6.0540431
21
-2.6132222
0
LINE
8
layer0
10
6.0540431
20
-2.6132222
11
6.0137469
21
-2.598055
0
LINE
8
layer0
10
6.0137469
20
-2.598055
11
5.9351391
21
-2.5737374
0
LINE
8
layer0
10
5.9351391
20
-2.5737374
11
5.8653586
21
-2.5601576
0
LINE
8
layer0
10
5.8653586
20
-2.5601576
11
5.8340174
21
-2.5571513
0
LINE
8
layer0
10
5.8340174
20
-2.5571513
11
5.8051582
21
-2.5565208
0
LINE
8
layer0
10
5.8051582
20
-2.5565208
11
5.7788711
21
-2.5581772
0
LINE
8
layer0
10
5.7788711
20
-2.5581772
11
5.7552331
21
-2.5619915
0
LINE
8
layer0
10
5.7552331
20
-2.5619915
11
5.7343164
21
-2.5678658
0
LINE
8
layer0
10
5.7343164
20
-2.5678658
11
5.7162114
21
-2.575689
0
LINE
8
layer0
10
5.7162114
20
-2.575689
11
5.7009728
21
-2.5853318
0
LINE
8
layer0
10
5.7009728
20
-2.5853318
11
5.6886817
21
-2.5967009
0
LINE
8
layer0
10
5.6886817
20
-2.5967009
11
5.6793929
21
-2.6096447
0
LINE
8
layer0
10
5.6793929
20
-2.6096447
11
5.662006
21
-2.6465877
0
LINE
8
layer0
10
5.662006
20
-2.6465877
11
5.5687908
21
-2.8374406
0
LINE
8
layer0
10
5.5687908
20
-2.8374406
11
5.4691781
21
-3.0250339
0
LINE
8
layer0
10
5.4691781
20
-3.0250339
11
5.4495103
21
-3.0608147
0
LINE
8
layer0
10
5.4495103
20
-3.0608147
11
5.4444983
21
-3.0759377
0
LINE
8
layer0
10
5.4444983
20
-3.0759377
11
5.4425251
21
-3.092564
0
LINE
8
layer0
10
5.4425251
20
-3.092564
11
5.4436809
21
-3.1105602
0
LINE
8
layer0
10
5.4436809
20
-3.1105602
11
5.4479937
21
-3.1298058
0
LINE
8
layer0
10
5.4479937
20
-3.1298058
11
5.4555358
21
-3.1501805
0
LINE
8
layer0
10
5.4555358
20
-3.1501805
11
5.466344
21
-3.1715461
0
LINE
8
layer0
10
5.466344
20
-3.1715461
11
5.4804551
21
-3.1937865
0
LINE
8
layer0
10
5.4804551
20
-3.1937865
11
5.4979283
21
-3.2167634
0
LINE
8
layer0
10
5.4979283
20
-3.2167634
11
5.5187823
21
-3.2403519
0
LINE
8
layer0
10
5.5187823
20
-3.2403519
11
5.5707845
21
-3.2888236
0
LINE
8
layer0
10
5.5707845
20
-3.2888236
11
5.6366624
21
-3.338125
0
LINE
8
layer0
10
5.6366624
20
-3.338125
11
5.6726185
21
-3.3618103
0
LINE
8
layer0
10
5.6726185
20
-3.3618103
11
5.7205433
21
-3.3983279
0
LINE
8
layer0
10
5.7205433
20
-3.3983279
11
5.7996593
21
-3.4694024
0
LINE
8
layer0
10
5.7996593
20
-3.4694024
11
5.8502846
21
-3.5207527
0
LINE
8
layer0
10
5.8502846
20
-3.5207527
11
5.9043134
21
-3.5803354
0
LINE
8
layer0
10
5.9043134
20
-3.5803354
11
5.9646009
21
-3.6526132
0
LINE
8
layer0
10
5.9646009
20
-3.6526132
11
6.0290375
21
-3.7368365
0
LINE
8
layer0
10
6.0290375
20
-3.7368365
11
6.0959511
21
-3.832322
0
LINE
8
layer0
10
6.0959511
20
-3.832322
11
6.1648699
21
-3.9399738
0
LINE
8
layer0
10
6.1648699
20
-3.9399738
11
6.2350384
21
-4.0603274
0
LINE
8
layer0
10
6.2350384
20
-4.0603274
11
6.3058146
21
-4.1943126
0
LINE
8
layer0
10
6.3058146
20
-4.1943126
11
6.369196
21
-4.3270286
0
ARC
8
layer0
10
-0.0000091
20
0.0000057
40
7.7
50
322.1909457
51
325.8090654
0
LINE
8
layer0
10
6.0834385
20
-4.72034
11
5.9376322
21
-4.7010722
0
LINE
8
layer0
10
5.9376322
20
-4.7010722
11
5.7883337
21
-4.6751638
0
LINE
8
layer0
10
5.7883337
20
-4.6751638
11
5.6521873
21
-4.6456208
0
LINE
8
layer0
10
5.6521873
20
-4.6456208
11
5.5285073
21
-4.6133414
0
LINE
8
layer0
10
5.5285073
20
-4.6133414
11
5.4170178
21
-4.5792094
0
LINE
8
layer0
10
5.4170178
20
-4.5792094
11
5.3170046
21
-4.543953
0
LINE
8
layer0
10
5.3170046
20
-4.543953
11
5.2296345
21
-4.5089512
0
LINE
8
layer0
10
5.2296345
20
-4.5089512
11
5.1562721
21
-4.4759789
0
LINE
8
layer0
10
5.1562721
20
-4.4759789
11
5.0917911
21
-4.4436994
0
LINE
8
layer0
10
5.0917911
20
-4.4436994
11
4.999747
21
-4.3904189
0
LINE
8
layer0
10
4.999747
20
-4.3904189
11
4.9502071
21
-4.3561243
0
LINE
8
layer0
10
4.9502071
20
-4.3561243
11
4.91657
21
-4.3292471
0
LINE
8
layer0
10
4.91657
20
-4.3292471
11
4.8493242
21
-4.2818285
0
LINE
8
layer0
10
4.8493242
20
-4.2818285
11
4.7871553
21
-4.24735
0
LINE
8
layer0
10
4.7871553
20
-4.24735
11
4.7582771
21
-4.2348059
0
LINE
8
layer0
10
4.7582771
20
-4.2348059
11
4.7310252
21
-4.2252883
0
LINE
8
layer0
10
4.7310252
20
-4.2252883
11
4.7055128
21
-4.2187405
0
LINE
8
layer0
10
4.7055128
20
-4.2187405
11
4.681853
21
-4.2150635
0
LINE
8
layer0
10
4.681853
20
-4.2150635
11
4.6601448
21
-4.2141867
0
LINE
8
layer0
10
4.6601448
20
-4.2141867
11
4.6405085
21
-4.2160323
0
LINE
8
layer0
10
4.6405085
20
-4.2160323
11
4.6230359
21
-4.2204941
0
LINE
8
layer0
10
4.6230359
20
-4.2204941
11
4.6078331
21
-4.2275086
0
LINE
8
layer0
10
4.6078331
20
-4.2275086
11
4.5949991
21
-4.2369485
0
LINE
8
layer0
10
4.5949991
20
-4.2369485
11
4.5670471
21
-4.2667106
0
LINE
8
layer0
10
4.5670471
20
-4.2667106
11
4.4194174
21
-4.4194174
0
LINE
8
layer0
10
4.4194174
20
-4.4194174
11
4.2667106
21
-4.5670471
0
LINE
8
layer0
10
4.2667106
20
-4.5670471
11
4.2369485
21
-4.5949991
0
LINE
8
layer0
10
4.2369485
20
-4.5949991
11
4.2275086
21
-4.6078331
0
LINE
8
layer0
10
4.2275086
20
-4.6078331
11
4.2204941
21
-4.6230359
0
LINE
8
layer0
10
4.2204941
20
-4.6230359
11
4.2160323
21
-4.6405085
0
LINE
8
layer0
10
4.2160323
20
-4.6405085
11
4.2141867
21
-4.6601448
0
LINE
8
layer0
10
4.2141867
20
-4.6601448
11
4.2150635
21
-4.681853
0
LINE
8
layer0
10
4.2150635
20
-4.681853
11
4.2187405
21
-4.7055128
0
LINE
8
layer0
10
4.2187405
20
-4.7055128
11
4.2252883
21
-4.7310252
0
LINE
8
layer0
10
4.2252883
20
-4.7310252
11
4.2348059
21
-4.7582771
0
LINE
8
layer0
10
4.2348059
20
-4.7582771
11
4.24735
21
-4.7871553
0
LINE
8
layer0
10
4.24735
20
-4.7871553
11
4.2818285
21
-4.8493242
0
LINE
8
layer0
10
4.2818285
20
-4.8493242
11
4.3292471
21
-4.91657
0
LINE
8
layer0
10
4.3292471
20
-4.91657
11
4.3561243
21
-4.9502071
0
LINE
8
layer0
10
4.3561243
20
-4.9502071
11
4.3904189
21
-4.999747
0
LINE
8
layer0
10
4.3904189
20
-4.999747
11
4.4436994
21
-5.0917911
0
LINE
8
layer0
10
4.4436994
20
-5.0917911
11
4.4759789
21
-5.1562721
0
LINE
8
layer0
10
4.4759789
20
-5.1562721
11
4.5089512
21
-5.2296345
0
LINE
8
layer0
10
4.5089512
20
-5.2296345
11
4.543953
21
-5.3170046
0
LINE
8
layer0
10
4.543953
20
-5.3170046
11
4.5792094
21
-5.4170178
0
LINE
8
layer0
10
4.5792094
20
-5.4170178
11
4.6133414
21
-5.5285073
0
LINE
8
layer0
10
4.6133414
20
-5.5285073
11
4.6456208
21
-5.6521873
0
LINE
8
layer0
10
4.6456208
20
-5.6521873
11
4.6751638
21
-5.7883337
0
LINE
8
layer0
10
4.6751638
20
-5.7883337
11
4.7010722
21
-5.9376322
0
LINE
8
layer0
10
4.7010722
20
-5.9376322
11
4.72034
21
-6.0834385
0
ARC
8
layer0
10
-0.0000057
20
0.0000092
40
7.7
50
304.1909346
51
307.8090543
0
LINE
8
layer0
10
4.3270286
20
-6.369196
11
4.1943126
21
-6.3058146
0
LINE
8
layer0
10
4.1943126
20
-6.3058146
11
4.0603274
21
-6.2350384
0
LINE
8
layer0
10
4.0603274
20
-6.2350384
11
3.9399738
21
-6.1648699
0
LINE
8
layer0
10
3.9399738
20
-6.1648699
11
3.832322
21
-6.0959511
0
LINE
8
layer0
10
3.832322
20
-6.0959511
11
3.7368365
21
-6.0290375
0
LINE
8
layer0
10
3.7368365
20
-6.0290375
11
3.6526132
21
-5.9646009
0
LINE
8
layer0
10
3.6526132
20
-5.9646009
11
3.5803354
21
-5.9043134
0
LINE
8
layer0
10
3.5803354
20
-5.9043134
11
3.5207527
21
-5.8502846
0
LINE
8
layer0
10
3.5207527
20
-5.8502846
11
3.4694024
21
-5.7996593
0
LINE
8
layer0
10
3.4694024
20
-5.7996593
11
3.3983279
21
-5.7205433
0
LINE
8
layer0
10
3.3983279
20
-5.7205433
11
3.3618103
21
-5.6726185
0
LINE
8
layer0
10
3.3618103
20
-5.6726185
11
3.338125
21
-5.6366624
0
LINE
8
layer0
10
3.338125
20
-5.6366624
11
3.2888236
21
-5.5707845
0
LINE
8
layer0
10
3.2888236
20
-5.5707845
11
3.2403519
21
-5.5187823
0
LINE
8
layer0
10
3.2403519
20
-5.5187823
11
3.2167634
21
-5.4979283
0
LINE
8
layer0
10
3.2167634
20
-5.4979283
11
3.1937865
21
-5.4804551
0
LINE
8
layer0
10
3.1937865
20
-5.4804551
11
3.1715461
21
-5.466344
0
LINE
8
layer0
10
3.1715461
20
-5.466344
11
3.1501805
21
-5.4555358
0
LINE
8
layer0
10
3.1501805
20
-5.4555358
11
3.1298058
21
-5.4479937
0
LINE
8
layer0
10
3.1298058
20
-5.4479937
11
3.1105602
21
-5.4436809
0
LINE
8
layer0
10
3.1105602
20
-5.4436809
11
3.092564
21
-5.4425251
0
LINE
8
layer0
10
3.092564
20
-5.4425251
11
3.0759377
21
-5.4444983
0
LINE
8
layer0
10
3.0759377
20
-5.4444983
11
3.0608147
21
-5.4495103
0
LINE
8
layer0
10
3.0608147
20
-5.4495103
11
3.0250339
21
-5.4691781
0
LINE
8
layer0
10
3.0250339
20
-5.4691781
11
2.8374406
21
-5.5687908
0
LINE
8
layer0
10
2.8374406
20
-5.5687908
11
2.6465877
21
-5.662006
0
LINE
8
layer0
10
2.6465877
20
-5.662006
11
2.6096447
21
-5.6793929
0
LINE
8
layer0
10
2.6096447
20
-5.6793929
11
2.5967009
21
-5.6886817
0
LINE
8
layer0
10
2.5967009
20
-5.6886817
11
2.5853318
21
-5.7009728
0
LINE
8
layer0
10
2.5853318
20
-5.7009728
11
2.575689
21
-5.7162114
0
LINE
8
layer0
10
2.575689
20
-5.7162114
11
2.5678658
21
-5.7343164
0
LINE
8
layer0
10
2.5678658
20
-5.7343164
11
2.5619915
21
-5.7552331
0
LINE
8
layer0
10
2.5619915
20
-5.7552331
11
2.5581772
21
-5.7788711
0
LINE
8
layer0
10
2.5581772
20
-5.7788711
11
2.5565208
21
-5.8051582
0
LINE
8
layer0
10
2.5565208
20
-5.8051582
11
2.5571513
21
-5.8340174
0
LINE
8
layer0
10
2.5571513
20
-5.8340174
11
2.5601576
21
-5.8653586
0
LINE
8
layer0
10
2.5601576
20
-5.8653586
11
2.5737374
21
-5.9351391
0
LINE
8
layer0
10
2.5737374
20
-5.9351391
11
2.598055
21
-6.0137469
0
LINE
8
layer0
10
2.598055
20
-6.0137469
11
2.6132222
21
-6.0540431
0
LINE
8
layer0
10
2.6132222
20
-6.0540431
11
2.6305297
21
-6.111756
0
LINE
8
layer0
10
2.6305297
20
-6.111756
11
2.6527593
21
-6.2157597
0
LINE
8
layer0
10
2.6527593
20
-6.2157597
11
2.6635331
21
-6.2870598
0
LINE
8
layer0
10
2.6635331
20
-6.2870598
11
2.6722215
21
-6.3670205
0
LINE
8
layer0
10
2.6722215
20
-6.3670205
11
2.6785114
21
-6.4609306
0
LINE
8
layer0
10
2.6785114
20
-6.4609306
11
2.6811364
21
-6.5669436
0
LINE
8
layer0
10
2.6811364
20
-6.5669436
11
2.6791457
21
-6.6835238
0
LINE
8
layer0
10
2.6791457
20
-6.6835238
11
2.671626
21
-6.8111254
0
LINE
8
layer0
10
2.671626
20
-6.8111254
11
2.6576515
21
-6.9497375
0
LINE
8
layer0
10
2.6576515
20
-6.9497375
11
2.636156
21
-7.099735
0
LINE
8
layer0
10
2.636156
20
-7.099735
11
2.6094242
21
-7.2443591
0
ARC
8
layer0
10
-0.0000034
20
0.0000103
40
7.7
50
286.1909403
51
289.8090603
0
LINE
8
layer0
10
2.1470589
20
-7.3945907
11
2.0404245
21
-7.2932999
0
LINE
8
layer0
10
2.0404245
20
-7.2932999
11
1.934868
21
-7.1845841
0
LINE
8
layer0
10
1.934868
20
-7.1845841
11
1.8420882
21
-7.0806586
0
LINE
8
layer0
10
1.8420882
20
-7.0806586
11
1.7610023
21
-6.9818467
0
LINE
8
layer0
10
1.7610023
20
-6.9818467
11
1.6908677
21
-6.8887014
0
LINE
8
layer0
10
1.6908677
20
-6.8887014
11
1.6306785
21
-6.8013921
0
LINE
8
layer0
10
1.6306785
20
-6.8013921
11
1.5805681
21
-6.7217202
0
LINE
8
layer0
10
1.5805681
20
-6.7217202
11
1.5405974
21
-6.6519237
0
LINE
8
layer0
10
1.5405974
20
-6.6519237
11
1.5074045
21
-6.5879081
0
LINE
8
layer0
10
1.5074045
20
-6.5879081
11
1.4642568
21
-6.4907011
0
LINE
8
layer0
10
1.4642568
20
-6.4907011
11
1.4443361
21
-6.4338373
0
LINE
8
layer0
10
1.4443361
20
-6.4338373
11
1.4329211
21
-6.3923218
0
LINE
8
layer0
10
1.4329211
20
-6.3923218
11
1.40639
21
-6.3144333
0
LINE
8
layer0
10
1.40639
20
-6.3144333
11
1.3763603
21
-6.2499977
0
LINE
8
layer0
10
1.3763603
20
-6.2499977
11
1.3603706
21
-6.2228751
0
LINE
8
layer0
10
1.3603706
20
-6.2228751
11
1.3439176
21
-6.1991569
0
LINE
8
layer0
10
1.3439176
20
-6.1991569
11
1.3271264
21
-6.1788638
0
LINE
8
layer0
10
1.3271264
20
-6.1788638
11
1.3101465
21
-6.1619822
0
LINE
8
layer0
10
1.3101465
20
-6.1619822
11
1.2930996
21
-6.1485131
0
LINE
8
layer0
10
1.2930996
20
-6.1485131
11
1.2761286
21
-6.1384642
0
LINE
8
layer0
10
1.2761286
20
-6.1384642
11
1.2593704
21
-6.1318037
0
LINE
8
layer0
10
1.2593704
20
-6.1318037
11
1.242948
21
-6.1285426
0
LINE
8
layer0
10
1.242948
20
-6.1285426
11
1.2270165
21
-6.128636
0
LINE
8
layer0
10
1.2270165
20
-6.128636
11
1.1869092
21
-6.1362843
0
LINE
8
layer0
10
1.1869092
20
-6.1362843
11
0.9777154
21
-6.1730521
0
LINE
8
layer0
10
0.9777154
20
-6.1730521
11
0.7673984
21
-6.2027283
0
LINE
8
layer0
10
0.7673984
20
-6.2027283
11
0.7268906
21
-6.2078482
0
LINE
8
layer0
10
0.7268906
20
-6.2078482
11
0.71171
21
-6.2126825
0
LINE
8
layer0
10
0.71171
20
-6.2126825
11
0.6970992
21
-6.2208588
0
LINE
8
layer0
10
0.6970992
20
-6.2208588
11
0.6832193
21
-6.2323718
0
LINE
8
layer0
10
0.6832193
20
-6.2323718
11
0.6701843
21
-6.2471732
0
LINE
8
layer0
10
0.6701843
20
-6.2471732
11
0.6581339
21
-6.2652508
0
LINE
8
layer0
10
0.6581339
20
-6.2652508
11
0.6472017
21
-6.2865532
0
LINE
8
layer0
10
0.6472017
20
-6.2865532
11
0.6375032
21
-6.3110419
0
LINE
8
layer0
10
0.6375032
20
-6.3110419
11
0.6291849
21
-6.3386835
0
LINE
8
layer0
10
0.6291849
20
-6.3386835
11
0.622359
21
-6.3694197
0
LINE
8
layer0
10
0.622359
20
-6.3694197
11
0.6137108
21
-6.4399813
0
LINE
8
layer0
10
0.6137108
20
-6.4399813
11
0.6125471
21
-6.5222563
0
LINE
8
layer0
10
0.6125471
20
-6.5222563
11
0.6145198
21
-6.5652673
0
LINE
8
layer0
10
0.6145198
20
-6.5652673
11
0.613146
21
-6.6255038
0
LINE
8
layer0
10
0.613146
20
-6.6255038
11
0.6021487
21
-6.7312865
0
LINE
8
layer0
10
0.6021487
20
-6.7312865
11
0.5903622
21
-6.8024262
0
LINE
8
layer0
10
0.5903622
20
-6.8024262
11
0.5739162
21
-6.8811582
0
LINE
8
layer0
10
0.5739162
20
-6.8811582
11
0.5508783
21
-6.9724156
0
LINE
8
layer0
10
0.5508783
20
-6.9724156
11
0.520615
21
-7.0740512
0
LINE
8
layer0
10
0.520615
20
-7.0740512
11
0.4826966
21
-7.1843104
0
LINE
8
layer0
10
0.4826966
20
-7.1843104
11
0.4361138
21
-7.303343
0
LINE
8
layer0
10
0.4361138
20
-7.303343
11
0.3799898
21
-7.4308526
0
LINE
8
layer0
10
0.3799898
20
-7.4308526
11
0.3131946
21
-7.5668662
0
LINE
8
layer0
10
0.3131946
20
-7.5668662
11
0.2430798
21
-7.6961514
0
ARC
8
layer0
10
0
20
0.0000108
40
7.7
50
268.1909401
51
271.8090599
0
LINE
8
layer0
10
-0.2430798
20
-7.6961514
11
-0.3131946
21
-7.5668662
0
LINE
8
layer0
10
-0.3131946
20
-7.5668662
11
-0.3799898
21
-7.4308526
0
LINE
8
layer0
10
-0.3799898
20
-7.4308526
11
-0.4361138
21
-7.303343
0
LINE
8
layer0
10
-0.4361138
20
-7.303343
11
-0.4826966
21
-7.1843104
0
LINE
8
layer0
10
-0.4826966
20
-7.1843104
11
-0.520615
21
-7.0740512
0
LINE
8
layer0
10
-0.520615
20
-7.0740512
11
-0.5508783
21
-6.9724156
0
LINE
8
layer0
10
-0.5508783
20
-6.9724156
11
-0.5739162
21
-6.8811582
0
LINE
8
layer0
10
-0.5739162
20
-6.8811582
11
-0.5903622
21
-6.8024262
0
LINE
8
layer0
10
-0.5903622
20
-6.8024262
11
-0.6021487
21
-6.7312865
0
LINE
8
layer0
10
-0.6021487
20
-6.7312865
11
-0.613146
21
-6.6255038
0
LINE
8
layer0
10
-0.613146
20
-6.6255038
11
-0.6145198
21
-6.5652673
0
LINE
8
layer0
10
-0.6145198
20
-6.5652673
11
-0.6125471
21
-6.5222563
0
LINE
8
layer0
10
-0.6125471
20
-6.5222563
11
-0.6137108
21
-6.4399813
0
LINE
8
layer0
10
-0.6137108
20
-6.4399813
11
-0.622359
21
-6.3694197
0
LINE
8
layer0
10
-0.622359
20
-6.3694197
11
-0.6291849
21
-6.3386835
0
LINE
8
layer0
10
-0.6291849
20
-6.3386835
11
-0.6375032
21
-6.3110419
0
LINE
8
layer0
10
-0.6375032
20
-6.3110419
11
-0.6472017
21
-6.2865532
0
LINE
8
layer0
10
-0.6472017
20
-6.2865532
11
-0.6581339
21
-6.2652508
0
LINE
8
layer0
10
-0.6581339
20
-6.2652508
11
-0.6701843
21
-6.2471732
0
LINE
8
layer0
10
-0.6701843
20
-6.2471732
11
-0.6832193
21
-6.2323718
0
LINE
8
layer0
10
-0.6832193
20
-6.2323718
11
-0.6970992
21
-6.2208588
0
LINE
8
layer0
10
-0.6970992
20
-6.2208588
11
-0.71171
21
-6.2126825
0
LINE
8
layer0
10
-0.71171
20
-6.2126825
11
-0.7268906
21
-6.2078482
0
LINE
8
layer0
10
-0.7268906
20
-6.2078482
11
-0.7673984
21
-6.2027283
0
LINE
8
layer0
10
-0.7673984
20
-6.2027283
11
-0.9777154
21
-6.1730521
0
LINE
8
layer0
10
-0.9777154
20
-6.1730521
11
-1.1869092
21
-6.1362843
0
LINE
8
layer0
10
-1.1869092
20
-6.1362843
11
-1.2270165
21
-6.128636
0
LINE
8
layer0
10
-1.2270165
20
-6.128636
11
-1.242948
21
-6.1285426
0
LINE
8
layer0
10
-1.242948
20
-6.1285426
11
-1.2593704
21
-6.1318037
0
LINE
8
layer0
10
-1.2593704
20
-6.1318037
11
-1.2761286
21
-6.1384642
0
LINE
8
layer0
10
-1.2761286
20
-6.1384642
11
-1.2930996
21
-6.1485131
0
LINE
8
layer0
10
-1.2930996
20
-6.1485131
11
-1.3101465
21
-6.1619822
0
LINE
8
layer0
10
-1.3101465
20
-6.1619822
11
-1.3271264
21
-6.1788638
0
LINE
8
layer0
10
-1.3271264
20
-6.1788638
11
-1.3439176
21
-6.1991569
0
LINE
8
layer0
10
-1.3439176
20
-6.1991569
11
-1.3603706
21
-6.2228751
0
LINE
8
layer0
10
-1.3603706
20
-6.2228751
11
-1.3763603
21
-6.2499977
0
LINE
8
layer0
10
-1.3763603
20
-6.2499977
11
-1.40639
21
-6.3144333
0
LINE
8
layer0
10
-1.40639
20
-6.3144333
11
-1.4329211
21
-6.3923218
0
LINE
8
layer0
10
-1.4329211
20
-6.3923218
11
-1.4443361
21
-6.4338373
0
LINE
8
layer0
10
-1.4443361
20
-6.4338373
11
-1.4642568
21
-6.4907011
0
LINE
8
layer0
10
-1.4642568
20
-6.4907011
11
-1.5074045
21
-6.5879081
0
LINE
8
layer0
10
-1.5074045
20
-6.5879081
11
-1.5405974
21
-6.6519237
0
LINE
8
layer0
10
-1.5405974
20
-6.6519237
11
-1.5805681
21
-6.7217202
0
LINE
8
layer0
10
-1.5805681
20
-6.7217202
11
-1.6306785
21
-6.8013921
0
LINE
8
layer0
10
-1.6306785
20
-6.8013921
11
-1.6908677
21
-6.8887014
0
LINE
8
layer0
10
-1.6908677
20
-6.8887014
11
-1.7610023
21
-6.9818467
0
LINE
8
layer0
10
-1.7610023
20
-6.9818467
11
-1.8420882
21
-7.0806586
0
LINE
8
layer0
10
-1.8420882
20
-7.0806586
11
-1.934868
21
-7.1845841
0
LINE
8
layer0
10
-1.934868
20
-7.1845841
11
-2.0404245
21
-7.2932999
0
LINE
8
layer0
10
-2.0404245
20
-7.2932999
11
-2.1470589
21
-7.3945907
0
ARC
8
layer0
10
0.0000035
20
0.0000102
40
7.7
50
250.1909387
51
253.8090588
0
LINE
8
layer0
10
-2.6094242
20
-7.2443591
11
-2.636156
21
-7.099735
0
LINE
8
layer0
10
-2.636156
20
-7.099735
11
-2.6576515
21
-6.9497375
0
LINE
8
layer0
10
-2.6576515
20
-6.9497375
11
-2.671626
21
-6.8111254
0
LINE
8
layer0
10
-2.671626
20
-6.8111254
11
-2.6791457
21
-6.6835238
0
LINE
8
layer0
10
-2.6791457
20
-6.6835238
11
-2.6811364
21
-6.5669436
0
LINE
8
layer0
10
-2.6811364
20
-6.5669436
11
-2.6785114
21
-6.4609306
0
LINE
8
layer0
10
-2.6785114
20
-6.4609306
11
-2.6722215
21
-6.3670205
0
LINE
8
layer0
10
-2.6722215
20
-6.3670205
11
-2.6635331
21
-6.2870598
0
LINE
8
layer0
10
-2.6635331
20
-6.2870598
11
-2.6527593
21
-6.2157597
0
LINE
8
layer0
10
-2.6527593
20
-6.2157597
11
-2.6305297
21
-6.111756
0
LINE
8
layer0
10
-2.6305297
20
-6.111756
11
-2.6132222
21
-6.0540431
0
LINE
8
layer0
10
-2.6132222
20
-6.0540431
11
-2.598055
21
-6.0137469
0
LINE
8
layer0
10
-2.598055
20
-6.0137469
11
-2.5737374
21
-5.9351391
0
LINE
8
layer0
10
-2.5737374
20
-5.9351391
11
-2.5601576
21
-5.8653586
0
LINE
8
layer0
10
-2.5601576
20
-5.8653586
11
-2.5571513
21
-5.8340174
0
LINE
8
layer0
10
-2.5571513
20
-5.8340174
11
-2.5565208
21
-5.8051582
0
LINE
8
layer0
10
-2.5565208
20
-5.8051582
11
-2.5581772
21
-5.7788711
0
LINE
8
layer0
10
-2.5581772
20
-5.7788711
11
-2.5619915
21
-5.7552331
0
LINE
8
layer0
10
-2.5619915
20
-5.7552331
11
-2.5678658
21
-5.7343164
0
LINE
8
layer0
10
-2.5678658
20
-5.7343164
11
-2.575689
21
-5.7162114
0
LINE
8
layer0
10
-2.575689
20
-5.7162114
11
-2.5853318
21
-5.7009728
0
LINE
8
layer0
10
-2.5853318
20
-5.7009728
11
-2.5967009
21
-5.6886817
0
LINE
8
layer0
10
-2.5967009
20
-5.6886817
11
-2.6096447
21
-5.6793929
0
LINE
8
layer0
10
-2.6096447
20
-5.6793929
11
-2.6465877
21
-5.662006
0
LINE
8
layer0
10
-2.6465877
20
-5.662006
11
-2.8374406
21
-5.5687908
0
LINE
8
layer0
10
-2.8374406
20
-5.5687908
11
-3.0250339
21
-5.4691781
0
LINE
8
layer0
10
-3.0250339
20
-5.4691781
11
-3.0608147
21
-5.4495103
0
LINE
8
layer0
10
-3.0608147
20
-5.4495103
11
-3.0759377
21
-5.4444983
0
LINE
8
layer0
10
-3.0759377
20
-5.4444983
11
-3.092564
21
-5.4425251
0
LINE
8
layer0
10
-3.092564
20
-5.4425251
11
-3.1105602
21
-5.4436809
0
LINE
8
layer0
10
-3.1105602
20
-5.4436809
11
-3.1298058
21
-5.4479937
0
LINE
8
layer0
10
-3.1298058
20
-5.4479937
11
-3.1501805
21
-5.4555358
0
LINE
8
layer0
10
-3.1501805
20
-5.4555358
11
-3.1715461
21
-5.466344
0
LINE
8
layer0
10
-3.1715461
20
-5.466344
11
-3.1937865
21
-5.4804551
0
LINE
8
layer0
10
-3.1937865
20
-5.4804551
11
-3.2167634
21
-5.4979283
0
LINE
8
layer0
10
-3.2167634
20
-5.4979283
11
-3.2403519
21
-5.5187823
0
LINE
8
layer0
10
-3.2403519
20
-5.5187823
11
-3.2888236
21
-5.5707845
0
LINE
8
layer0
10
-3.2888236
20
-5.5707845
11
-3.338125
21
-5.6366624
0
LINE
8
layer0
10
-3.338125
20
-5.6366624
11
-3.3618103
21
-5.6726185
0
LINE
8
layer0
10
-3.3618103
20
-5.6726185
11
-3.3983279
21
-5.7205433
0
LINE
8
layer0
10
-3.3983279
20
-5.7205433
11
-3.4694024
21
-5.7996593
0
LINE
8
layer0
10
-3.4694024
20
-5.7996593
11
-3.5207527
21
-5.8502846
0
LINE
8
layer0
10
-3.5207527
20
-5.8502846
11
-3.5803354
21
-5.9043134
0
LINE
8
layer0
10
-3.5803354
20
-5.9043134
11
-3.6526132
21
-5.9646009
0
LINE
8
layer0
10
-3.6526132
20
-5.9646009
11
-3.7368365
21
-6.0290375
0
LINE
8
layer0
10
-3.7368365
20
-6.0290375
11
-3.832322
21
-6.0959511
0
LINE
8
layer0
10
-3.832322
20
-6.0959511
11
-3.9399738
21
-6.1648699
0
LINE
8
layer0
10
-3.9399738
20
-6.1648699
11
-4.0603274
21
-6.2350384
0
LINE
8
layer0
10
-4.0603274
20
-6.2350384
11
-4.1943126
21
-6.3058146
0
LINE
8
layer0
10
-4.1943126
20
-6.3058146
11
-4.3270286
21
-6.369196
0
ARC
8
layer0
10
0.0000057
20
0.0000091
40
7.7
50
232.1909457
51
235.8090654
0
LINE
8
layer0
10
-4.72034
20
-6.0834385
11
-4.7010722
21
-5.9376322
0
LINE
8
layer0
10
-4.7010722
20
-5.9376322
11
-4.6751638
21
-5.7883337
0
LINE
8
layer0
10
-4.6751638
20
-5.7883337
11
-4.6456208
21
-5.6521873
0
LINE
8
layer0
10
-4.6456208
20
-5.6521873
11
-4.6133414
21
-5.5285073
0
LINE
8
layer0
10
-4.6133414
20
-5.5285073
11
-4.5792094
21
-5.4170178
0
LINE
8
layer0
10
-4.5792094
20
-5.4170178
11
-4.543953
21
-5.3170046
0
LINE
8
layer0
10
-4.543953
20
-5.3170046
11
-4.5089512
21
-5.2296345
0
LINE
8
layer0
10
-4.5089512
20
-5.2296345
11
-4.4759789
21
-5.1562721
0
LINE
8
layer0
10
-4.4759789
20
-5.1562721
11
-4.4436994
21
-5.0917911
0
LINE
8
layer0
10
-4.4436994
20
-5.0917911
11
-4.3904189
21
-4.999747
0
LINE
8
layer0
10
-4.3904189
20
-4.999747
11
-4.3561243
21
-4.9502071
0
LINE
8
layer0
10
-4.3561243
20
-4.9502071
11
-4.3292471
21
-4.91657
0
LINE
8
layer0
10
-4.3292471
20
-4.91657
11
-4.2818285
21
-4.8493242
0
LINE
8
layer0
10
-4.2818285
20
-4.8493242
11
-4.24735
21
-4.7871553
0
LINE
8
layer0
10
-4.24735
20
-4.7871553
11
-4.2348059
21
-4.7582771
0
LINE
8
layer0
10
-4.2348059
20
-4.7582771
11
-4.2252883
21
-4.7310252
0
LINE
8
layer0
10
-4.2252883
20
-4.7310252
11
-4.2187405
21
-4.7055128
0
LINE
8
layer0
10
-4.2187405
20
-4.7055128
11
-4.2150635
21
-4.681853
0
LINE
8
layer0
10
-4.2150635
20
-4.681853
11
-4.2141867
21
-4.6601448
0
LINE
8
layer0
10
-4.2141867
20
-4.6601448
11
-4.2160323
21
-4.6405085
0
LINE
8
layer0
10
-4.2160323
20
-4.6405085
11
-4.2204941
21
-4.6230359
0
LINE
8
layer0
10
-4.2204941
20
-4.6230359
11
-4.2275086
21
-4.6078331
0
LINE
8
layer0
10
-4.2275086
20
-4.6078331
11
-4.2369485
21
-4.5949991
0
LINE
8
layer0
10
-4.2369485
20
-4.5949991
11
-4.2667106
21
-4.5670471
0
LINE
8
layer0
10
-4.2667106
20
-4.5670471
11
-4.4194174
21
-4.4194174
0
LINE
8
layer0
10
-4.4194174
20
-4.4194174
11
-4.5670471
21
-4.2667106
0
LINE
8
layer0
10
-4.5670471
20
-4.2667106
11
-4.5949991
21
-4.2369485
0
LINE
8
layer0
10
-4.5949991
20
-4.2369485
11
-4.6078331
21
-4.2275086
0
LINE
8
layer0
10
-4.6078331
20
-4.2275086
11
-4.6230359
21
-4.2204941
0
LINE
8
layer0
10
-4.6230359
20
-4.2204941
11
-4.6405085
21
-4.2160323
0
LINE
8
layer0
10
-4.6405085
20
-4.2160323
11
-4.6601448
21
-4.2141867
0
LINE
8
layer0
10
-4.6601448
20
-4.2141867
11
-4.681853
21
-4.2150635
0
LINE
8
layer0
10
-4.681853
20
-4.2150635
11
-4.7055128
21
-4.2187405
0
LINE
8
layer0
10
-4.7055128
20
-4.2187405
11
-4.7310252
21
-4.2252883
0
LINE
8
layer0
10
-4.7310252
20
-4.2252883
11
-4.7582771
21
-4.2348059
0
LINE
8
layer0
10
-4.7582771
20
-4.2348059
11
-4.7871553
21
-4.24735
0
LINE
8
layer0
10
-4.7871553
20
-4.24735
11
-4.8493242
21
-4.2818285
0
LINE
8
layer0
10
-4.8493242
20
-4.2818285
11
-4.91657
21
-4.3292471
0
LINE
8
layer0
10
-4.91657
20
-4.3292471
11
-4.9502071
21
-4.3561243
0
LINE
8
layer0
10
-4.9502071
20
-4.3561243
11
-4.999747
21
-4.3904189
0
LINE
8
layer0
10
-4.999747
20
-4.3904189
11
-5.0917911
21
-4.4436994
0
LINE
8
layer0
10
-5.0917911
20
-4.4436994
11
-5.1562721
21
-4.4759789
0
LINE
8
layer0
10
-5.1562721
20
-4.4759789
11
-5.2296345
21
-4.5089512
0
LINE
8
layer0
10
-5.2296345
20
-4.5089512
11
-5.3170046
21
-4.543953
0
LINE
8
layer0
10
-5.3170046
20
-4.543953
11
-5.4170178
21
-4.5792094
0
LINE
8
layer0
10
-5.4170178
20
-4.5792094
11
-5.5285073
21
-4.6133414
0
LINE
8
layer0
10
-5.5285073
20
-4.6133414
11
-5.6521873
21
-4.6456208
0
LINE
8
layer0
10
-5.6521873
20
-4.6456208
11
-5.7883337
21
-4.6751638
0
LINE
8
layer0
10
-5.7883337
20
-4.6751638
11
-5.9376322
21
-4.7010722
0
LINE
8
layer0
10
-5.9376322
20
-4.7010722
11
-6.0834385
21
-4.72034
0
ARC
8
layer0
10
0.0000092
20
0.0000057
40
7.7
50
214.1909346
51
217.8090543
0
LINE
8
layer0
10
-6.369196
20
-4.3270286
11
-6.3058146
21
-4.1943126
0
LINE
8
layer0
10
-6.3058146
20
-4.1943126
11
-6.2350384
21
-4.0603274
0
LINE
8
layer0
10
-6.2350384
20
-4.0603274
11
-6.1648699
21
-3.9399738
0
LINE
8
layer0
10
-6.1648699
20
-3.9399738
11
-6.0959511
21
-3.832322
0
LINE
8
layer0
10
-6.0959511
20
-3.832322
11
-6.0290375
21
-3.7368365
0
LINE
8
layer0
10
-6.0290375
20
-3.7368365
11
-5.9646009
21
-3.6526132
0
LINE
8
layer0
10
-5.9646009
20
-3.6526132
11
-5.9043134
21
-3.5803354
0
LINE
8
layer0
10
-5.9043134
20
-3.5803354
11
-5.8502846
21
-3.5207527
0
LINE
8
layer0
10
-5.8502846
20
-3.5207527
11
-5.7996593
21
-3.4694024
0
LINE
8
layer0
10
-5.7996593
20
-3.4694024
11
-5.7205433
21
-3.3983279
0
LINE
8
layer0
10
-5.7205433
20
-3.3983279
11
-5.6726185
21
-3.3618103
0
LINE
8
layer0
10
-5.6726185
20
-3.3618103
11
-5.6366624
21
-3.338125
0
LINE
8
layer0
10
-5.6366624
20
-3.338125
11
-5.5707845
21
-3.2888236
0
LINE
8
layer0
10
-5.5707845
20
-3.2888236
11
-5.5187823
21
-3.2403519
0
LINE
8
layer0
10
-5.5187823
20
-3.2403519
11
-5.4979283
21
-3.2167634
0
LINE
8
layer0
10
-5.4979283
20
-3.2167634
11
-5.4804551
21
-3.1937865
0
LINE
8
layer0
10
-5.4804551
20
-3.1937865
11
-5.466344
21
-3.1715461
0
LINE
8
layer0
10
-5.466344
20
-3.1715461
11
-5.4555358
21
-3.1501805
0
LINE
8
layer0
10
-5.4555358
20
-3.1501805
11
-5.4479937
21
-3.1298058
0
LINE
8
layer0
10
-5.4479937
20
-3.1298058
11
-5.4436809
21
-3.1105602
0
LINE
8
layer0
10
-5.4436809
20
-3.1105602
11
-5.4425251
21
-3.092564
0
LINE
8
layer0
10
-5.4425251
20
-3.092564
11
-5.4444983
21
-3.0759377
0
LINE
8
layer0
10
-5.4444983
20
-3.0759377
11
-5.4495103
21
-3.0608147
0
LINE
8
layer0
10
-5.4495103
20
-3.0608147
11
-5.4691781
21
-3.0250339
0
LINE
8
layer0
10
-5.4691781
20
-3.0250339
11
-5.5687908
21
-2.8374406
0
LINE
8
layer0
10
-5.5687908
20
-2.8374406
11
-5.662006
21
-2.6465877
0
LINE
8
layer0
10
-5.662006
20
-2.6465877
11
-5.6793929
21
-2.6096447
0
LINE
8
layer0
10
-5.6793929
20
-2.6096447
11
-5.6886817
21
-2.5967009
0
LINE
8
layer0
10
-5.6886817
20
-2.5967009
11
-5.7009728
21
-2.5853318
0
LINE
8
layer0
10
-5.7009728
20
-2.5853318
11
-5.7162114
21
-2.575689
0
LINE
8
layer0
10
-5.7162114
20
-2.575689
11
-5.7343164
21
-2.5678658
0
LINE
8
layer0
10
-5.7343164
20
-2.5678658
11
-5.7552331
21
-2.5619915
0
LINE
8
layer0
10
-5.7552331
20
-2.5619915
11
-5.7788711
21
-2.5581772
0
LINE
8
layer0
10
-5.7788711
20
-2.5581772
11
-5.8051582
21
-2.5565208
0
LINE
8
layer0
10
-5.8051582
20
-2.5565208
11
-5.8340174
21
-2.5571513
0
LINE
8
layer0
10
-5.8340174
20
-2.5571513
11
-5.8653586
21
-2.5601576
0
LINE
8
layer0
10
-5.8653586
20
-2.5601576
11
-5.9351391
21
-2.5737374
0
LINE
8
layer0
10
-5.9351391
20
-2.5737374
11
-6.0137469
21
-2.598055
0
LINE
8
layer0
10
-6.0137469
20
-2.598055
11
-6.0540431
21
-2.6132222
0
LINE
8
layer0
10
-6.0540431
20
-2.6132222
11
-6.111756
21
-2.6305297
0
LINE
8
layer0
10
-6.111756
20
-2.6305297
11
-6.2157597
21
-2.6527593
0
LINE
8
layer0
10
-6.2157597
20
-2.6527593
11
-6.2870598
21
-2.6635331
0
LINE
8
layer0
10
-6.2870598
20
-2.6635331
11
-6.3670205
21
-2.6722215
0
LINE
8
layer0
10
-6.3670205
20
-2.6722215
11
-6.4609306
21
-2.6785114
0
LINE
8
layer0
10
-6.4609306
20
-2.6785114
11
-6.5669436
21
-2.6811364
0
LINE
8
layer0
10
-6.5669436
20
-2.6811364
11
-6.6835238
21
-2.6791457
0
LINE
8
layer0
10
-6.6835238
20
-2.6791457
11
-6.8111254
21
-2.671626
0
LINE
8
layer0
10
-6.8111254
20
-2.671626
11
-6.9497375
21
-2.6576515
0
LINE
8
layer0
10
-6.9497375
20
-2.6576515
11
-7.099735
21
-2.636156
0
LINE
8
layer0
10
-7.099735
20
-2.636156
11
-7.2443591
21
-2.6094242
0
ARC
8
layer0
10
0.0000103
20
0.0000034
40
7.7
50
196.1909403
51
199.8090603
0
LINE
8
layer0
10
-7.3945907
20
-2.1470589
11
-7.2932999
21
-2.0404245
0
LINE
8
layer0
10
-7.2932999
20
-2.0404245
11
-7.1845841
21
-1.934868
0
LINE
8
layer0
10
-7.1845841
20
-1.934868
11
-7.0806586
21
-1.8420882
0
LINE
8
layer0
10
-7.0806586
20
-1.8420882
11
-6.9818467
21
-1.7610023
0
LINE
8
layer0
10
-6.9818467
20
-1.7610023
11
-6.8887014
21
-1.6908677
0
LINE
8
layer0
10
-6.8887014
20
-1.6908677
11
-6.8013921
21
-1.6306785
0
LINE
8
layer0
10
-6.8013921
20
-1.6306785
11
-6.7217202
21
-1.5805681
0
LINE
8
layer0
10
-6.7217202
20
-1.5805681
11
-6.6519237
21
-1.5405974
0
LINE
8
layer0
10
-6.6519237
20
-1.5405974
11
-6.5879081
21
-1.5074045
0
LINE
8
layer0
10
-6.5879081
20
-1.5074045
11
-6.4907011
21
-1.4642568
0
LINE
8
layer0
10
-6.4907011
20
-1.4642568
11
-6.4338373
21
-1.4443361
0
LINE
8
layer0
10
-6.4338373
20
-1.4443361
11
-6.3923218
21
-1.4329211
0
LINE
8
layer0
10
-6.3923218
20
-1.4329211
11
-6.3144333
21
-1.40639
0
LINE
8
layer0
10
-6.3144333
20
-1.40639
11
-6.2499977
21
-1.3763603
0
LINE
8
layer0
10
-6.2499977
20
-1.3763603
11
-6.2228751
21
-1.3603706
0
LINE
8
layer0
10
-6.2228751
20
-1.3603706
11
-6.1991569
21
-1.3439176
0
LINE
8
layer0
10
-6.1991569
20
-1.3439176
11
-6.1788638
21
-1.3271264
0
LINE
8
layer0
10
-6.1788638
20
-1.3271264
11
-6.1619822
21
-1.3101465
0
LINE
8
layer0
10
-6.1619822
20
-1.3101465
11
-6.1485131
21
-1.2930996
0
LINE
8
layer0
10
-6.1485131
20
-1.2930996
11
-6.1384642
21
-1.2761286
0
LINE
8
layer0
10
-6.1384642
20
-1.2761286
11
-6.1318037
21
-1.2593704
0
LINE
8
layer0
10
-6.1318037
20
-1.2593704
11
-6.1285426
21
-1.242948
0
LINE
8
layer0
10
-6.1285426
20
-1.242948
11
-6.128636
21
-1.2270165
0
LINE
8
layer0
10
-6.128636
20
-1.2270165
11
-6.1362843
21
-1.1869092
0
LINE
8
layer0
10
-6.1362843
20
-1.1869092
11
-6.1730521
21
-0.9777154
0
LINE
8
layer0
10
-6.1730521
20
-0.9777154
11
-6.2027283
21
-0.7673984
0
LINE
8
layer0
10
-6.2027283
20
-0.7673984
11
-6.2078482
21
-0.7268906
0
LINE
8
layer0
10
-6.2078482
20
-0.7268906
11
-6.2126825
21
-0.71171
0
LINE
8
layer0
10
-6.2126825
20
-0.71171
11
-6.2208588
21
-0.6970992
0
LINE
8
layer0
10
-6.2208588
20
-0.6970992
11
-6.2323718
21
-0.6832193
0
LINE
8
layer0
10
-6.2323718
20
-0.6832193
11
-6.2471732
21
-0.6701843
0
LINE
8
layer0
10
-6.2471732
20
-0.6701843
11
-6.2652508
21
-0.6581339
0
LINE
8
layer0
10
-6.2652508
20
-0.6581339
11
-6.2865532
21
-0.6472017
0
LINE
8
layer0
10
-6.2865532
20
-0.6472017
11
-6.3110419
21
-0.6375032
0
LINE
8
layer0
10
-6.3110419
20
-0.6375032
11
-6.3386835
21
-0.6291849
0
LINE
8
layer0
10
-6.3386835
20
-0.6291849
11
-6.3694197
21
-0.622359
0
LINE
8
layer0
10
-6.3694197
20
-0.622359
11
-6.4399813
21
-0.6137108
0
LINE
8
layer0
10
-6.4399813
20
-0.6137108
11
-6.5222563
21
-0.6125471
0
LINE
8
layer0
10
-6.5222563
20
-0.6125471
11
-6.5652673
21
-0.6145198
0
LINE
8
layer0
10
-6.5652673
20
-0.6145198
11
-6.6255038
21
-0.613146
0
LINE
8
layer0
10
-6.6255038
20
-0.613146
11
-6.7312865
21
-0.6021487
0
LINE
8
layer0
10
-6.7312865
20
-0.6021487
11
-6.8024262
21
-0.5903622
0
LINE
8
layer0
10
-6.8024262
20
-0.5903622
11
-6.8811582
21
-0.5739162
0
LINE
8
layer0
10
-6.8811582
20
-0.5739162
11
-6.9724156
21
-0.5508783
0
LINE
8
layer0
10
-6.9724156
20
-0.5508783
11
-7.0740512
21
-0.520615
0
LINE
8
layer0
10
-7.0740512
20
-0.520615
11
-7.1843104
21
-0.4826966
0
LINE
8
layer0
10
-7.1843104
20
-0.4826966
11
-7.303343
21
-0.4361138
0
LINE
8
layer0
10
-7.303343
20
-0.4361138
11
-7.4308526
21
-0.3799898
0
LINE
8
layer0
10
-7.4308526
20
-0.3799898
11
-7.5668662
21
-0.3131946
0
LINE
8
layer0
10
-7.5668662
20
-0.3131946
11
-7.6961514
21
-0.2430798
0
ARC
8
layer0
10
0.0000108
20
0
40
7.7
50
178.1909401
51
181.8090599
0
LINE
8
layer0
10
-7.6961514
20
0.2430798
11
-7.5668662
21
0.3131946
0
LINE
8
layer0
10
-7.5668662
20
0.3131946
11
-7.4308526
21
0.3799898
0
LINE
8
layer0
10
-7.4308526
20
0.3799898
11
-7.303343
21
0.4361138
0
LINE
8
layer0
10
-7.303343
20
0.4361138
11
-7.1843104
21
0.4826966
0
LINE
8
layer0
10
-7.1843104
20
0.4826966
11
-7.0740512
21
0.520615
0
LINE
8
layer0
10
-7.0740512
20
0.520615
11
-6.9724156
21
0.5508783
0
LINE
8
layer0
10
-6.9724156
20
0.5508783
11
-6.8811582
21
0.5739162
0
LINE
8
layer0
10
-6.8811582
20
0.5739162
11
-6.8024262
21
0.5903622
0
LINE
8
layer0
10
-6.8024262
20
0.5903622
11
-6.7312865
21
0.6021487
0
LINE
8
layer0
10
-6.7312865
20
0.6021487
11
-6.6255038
21
0.613146
0
LINE
8
layer0
10
-6.6255038
20
0.613146
11
-6.5652673
21
0.6145198
0
LINE
8
layer0
10
-6.5652673
20
0.6145198
11
-6.5222563
21
0.6125471
0
LINE
8
layer0
10
-6.5222563
20
0.6125471
11
-6.4399813
21
0.6137108
0
LINE
8
layer0
10
-6.4399813
20
0.6137108
11
-6.3694197
21
0.622359
0
LINE
8
layer0
10
-6.3694197
20
0.622359
11
-6.3386835
21
0.6291849
0
LINE
8
layer0
10
-6.3386835
20
0.6291849
11
-6.3110419
21
0.6375032
0
LINE
8
layer0
10
-6.3110419
20
0.6375032
11
-6.2865532
21
0.6472017
0
LINE
8
layer0
10
-6.2865532
20
0.6472017
11
-6.2652508
21
0.6581339
0
LINE
8
layer0
10
-6.2652508
20
0.6581339
11
-6.2471732
21
0.6701843
0
LINE
8
layer0
10
-6.2471732
20
0.6701843
11
-6.2323718
21
0.6832193
0
LINE
8
layer0
10
-6.2323718
20
0.6832193
11
-6.2208588
21
0.6970992
0
LINE
8
layer0
10
-6.2208588
20
0.6970992
11
-6.2126825
21
0.71171
0
LINE
8
layer0
10
-6.2126825
20
0.71171
11
-6.2078482
21
0.7268906
0
LINE
8
layer0
10
-6.2078482
20
0.7268906
11
-6.2027283
21
0.7673984
0
LINE
8
layer0
10
-6.2027283
20
0.7673984
11
-6.1730521
21
0.9777154
0
LINE
8
layer0
10
-6.1730521
20
0.9777154
11
-6.1362843
21
1.1869092
0
LINE
8
layer0
10
-6.1362843
20
1.1869092
11
-6.128636
21
1.2270165
0
LINE
8
layer0
10
-6.128636
20
1.2270165
11
-6.1285426
21
1.242948
0
LINE
8
layer0
10
-6.1285426
20
1.242948
11
-6.1318037
21
1.2593704
0
LINE
8
layer0
10
-6.1318037
20
1.2593704
11
-6.1384642
21
1.2761286
0
LINE
8
layer0
10
-6.1384642
20
1.2761286
11
-6.1485131
21
1.2930996
0
LINE
8
layer0
10
-6.1485131
20
1.2930996
11
-6.1619822
21
1.3101465
0
LINE
8
layer0
10
-6.1619822
20
1.3101465
11
-6.1788638
21
1.3271264
0
LINE
8
layer0
10
-6.1788638
20
1.3271264
11
-6.1991569
21
1.3439176
0
LINE
8
layer0
10
-6.1991569
20
1.3439176
11
-6.2228751
21
1.3603706
0
LINE
8
layer0
10
-6.2228751
20
1.3603706
11
-6.2499977
21
1.3763603
0
LINE
8
layer0
10
-6.2499977
20
1.3763603
11
-6.3144333
21
1.40639
0
LINE
8
layer0
10
-6.3144333
20
1.40639
11
-6.3923218
21
1.4329211
0
LINE
8
layer0
10
-6.3923218
20
1.4329211
11
-6.4338373
21
1.4443361
0
LINE
8
layer0
10
-6.4338373
20
1.4443361
11
-6.4907011
21
1.4642568
0
LINE
8
layer0
10
-6.4907011
20
1.4642568
11
-6.5879081
21
1.5074045
0
LINE
8
layer0
10
-6.5879081
20
1.5074045
11
-6.6519237
21
1.5405974
0
LINE
8
layer0
10
-6.6519237
20
1.5405974
11
-6.7217202
21
1.5805681
0
LINE
8
layer0
10
-6.7217202
20
1.5805681
11
-6.8013921
21
1.6306785
0
LINE
8
layer0
10
-6.8013921
20
1.6306785
11
-6.8887014
21
1.6908677
0
LINE
8
layer0
10
-6.8887014
20
1.6908677
11
-6.9818467
21
1.7610023
0
LINE
8
layer0
10
-6.9818467
20
1.7610023
11
-7.0806586
21
1.8420882
0
LINE
8
layer0
10
-7.0806586
20
1.8420882
11
-7.1845841
21
1.934868
0
LINE
8
layer0
10
-7.1845841
20
1.934868
11
-7.2932999
21
2.0404245
0
LINE
8
layer0
10
-7.2932999
20
2.0404245
11
-7.3945907
21
2.1470589
0
ARC
8
layer0
10
0.0000102
20
-0.0000035
40
7.7
50
160.1909387
51
163.8090588
0
LINE
8
layer0
10
-7.2443591
20
2.6094242
11
-7.099735
21
2.636156
0
LINE
8
layer0
10
-7.099735
20
2.636156
11
-6.9497375
21
2.6576515
0
LINE
8
layer0
10
-6.9497375
20
2.6576515
11
-6.8111254
21
2.671626
0
LINE
8
layer0
10
-6.8111254
20
2.671626
11
-6.6835238
21
2.6791457
0
LINE
8
layer0
10
-6.6835238
20
2.6791457
11
-6.5669436
21
2.6811364
0
LINE
8
layer0
10
-6.5669436
20
2.6811364
11
-6.4609306
21
2.6785114
0
LINE
8
layer0
10
-6.4609306
20
2.6785114
11
-6.3670205
21
2.6722215
0
LINE
8
layer0
10
-6.3670205
20
2.6722215
11
-6.2870598
21
2.6635331
0
LINE
8
layer0
10
-6.2870598
20
2.6635331
11
-6.2157597
21
2.6527593
0
LINE
8
layer0
10
-6.2157597
20
2.6527593
11
-6.111756
21
2.6305297
0
LINE
8
layer0
10
-6.111756
20
2.6305297
11
-6.0540431
21
2.6132222
0
LINE
8
layer0
10
-6.0540431
20
2.6132222
11
-6.0137469
21
2.598055
0
LINE
8
layer0
10
-6.0137469
20
2.598055
11
-5.9351391
21
2.5737374
0
LINE
8
layer0
10
-5.9351391
20
2.5737374
11
-5.8653586
21
2.5601576
0
LINE
8
layer0
10
-5.8653586
20
2.5601576
11
-5.8340174
21
2.5571513
0
LINE
8
layer0
10
-5.8340174
20
2.5571513
11
-5.8051582
21
2.5565208
0
LINE
8
layer0
10
-5.8051582
20
2.5565208
11
-5.7788711
21
2.5581772
0
LINE
8
layer0
10
-5.7788711
20
2.5581772
11
-5.7552331
21
2.5619915
0
LINE
8
layer0
10
-5.7552331
20
2.5619915
11
-5.7343164
21
2.5678658
0
LINE
8
layer0
10
-5.7343164
20
2.5678658
11
-5.7162114
21
2.575689
0
LINE
8
layer0
10
-5.7162114
20
2.575689
11
-5.7009728
21
2.5853318
0
LINE
8
layer0
10
-5.7009728
20
2.5853318
11
-5.6886817
21
2.5967009
0
LINE
8
layer0
10
-5.6886817
20
2.5967009
11
-5.6793929
21
2.6096447
0
LINE
8
layer0
10
-5.6793929
20
2.6096447
11
-5.662006
21
2.6465877
0
LINE
8
layer0
10
-5.662006
20
2.6465877
11
-5.5687908
21
2.8374406
0
LINE
8
layer0
10
-5.5687908
20
2.8374406
11
-5.4691781
21
3.0250339
0
LINE
8
layer0
10
-5.4691781
20
3.0250339
11
-5.4495103
21
3.0608147
0
LINE
8
layer0
10
-5.4495103
20
3.0608147
11
-5.4444983
21
3.0759377
0
LINE
8
layer0
10
-5.4444983
20
3.0759377
11
-5.4425251
21
3.092564
0
LINE
8
layer0
10
-5.4425251
20
3.092564
11
-5.4436809
21
3.1105602
0
LINE
8
layer0
10
-5.4436809
20
3.1105602
11
-5.4479937
21
3.1298058
0
LINE
8
layer0
10
-5.4479937
20
3.1298058
11
-5.4555358
21
3.1501805
0
LINE
8
layer0
10
-5.4555358
20
3.1501805
11
-5.466344
21
3.1715461
0
LINE
8
layer0
10
-5.466344
20
3.1715461
11
-5.4804551
21
3.1937865
0
LINE
8
layer0
10
-5.4804551
20
3.1937865
11
-5.4979283
21
3.2167634
0
LINE
8
layer0
10
-5.4979283
20
3.2167634
11
-5.5187823
21
3.2403519
0
LINE
8
layer0
10
-5.5187823
20
3.2403519
11
-5.5707845
21
3.2888236
0
LINE
8
layer0
10
-5.5707845
20
3.2888236
11
-5.6366624
21
3.338125
0
LINE
8
layer0
10
-5.6366624
20
3.338125
11
-5.6726185
21
3.3618103
0
LINE
8
layer0
10
-5.6726185
20
3.3618103
11
-5.7205433
21
3.3983279
0
LINE
8
layer0
10
-5.7205433
20
3.3983279
11
-5.7996593
21
3.4694024
0
LINE
8
layer0
10
-5.7996593
20
3.4694024
11
-5.8502846
21
3.5207527
0
LINE
8
layer0
10
-5.8502846
20
3.5207527
11
-5.9043134
21
3.5803354
0
LINE
8
layer0
10
-5.9043134
20
3.5803354
11
-5.9646009
21
3.6526132
0
LINE
8
layer0
10
-5.9646009
20
3.6526132
11
-6.0290375
21
3.7368365
0
LINE
8
layer0
10
-6.0290375
20
3.7368365
11
-6.0959511
21
3.832322
0
LINE
8
layer0
10
-6.0959511
20
3.832322
11
-6.1648699
21
3.9399738
0
LINE
8
layer0
10
-6.1648699
20
3.9399738
11
-6.2350384
21
4.0603274
0
LINE
8
layer0
10
-6.2350384
20
4.0603274
11
-6.3058146
21
4.1943126
0
LINE
8
layer0
10
-6.3058146
20
4.1943126
11
-6.369196
21
4.3270286
0
ARC
8
layer0
10
0.0000091
20
-0.0000057
40
7.7
50
142.1909457
51
145.8090654
0
LINE
8
layer0
10
-6.0834385
20
4.72034
11
-5.9376322
21
4.7010722
0
LINE
8
layer0
10
-5.9376322
20
4.7010722
11
-5.7883337
21
4.6751638
0
LINE
8
layer0
10
-5.7883337
20
4.6751638
11
-5.6521873
21
4.6456208
0
LINE
8
layer0
10
-5.6521873
20
4.6456208
11
-5.5285073
21
4.6133414
0
LINE
8
layer0
10
-5.5285073
20
4.6133414
11
-5.4170178
21
4.5792094
0
LINE
8
layer0
10
-5.4170178
20
4.5792094
11
-5.3170046
21
4.543953
0
LINE
8
layer0
10
-5.3170046
20
4.543953
11
-5.2296345
21
4.5089512
0
LINE
8
layer0
10
-5.2296345
20
4.5089512
11
-5.1562721
21
4.4759789
0
LINE
8
layer0
10
-5.1562721
20
4.4759789
11
-5.0917911
21
4.4436994
0
LINE
8
layer0
10
-5.0917911
20
4.4436994
11
-4.999747
21
4.3904189
0
LINE
8
layer0
10
-4.999747
20
4.3904189
11
-4.9502071
21
4.3561243
0
LINE
8
layer0
10
-4.9502071
20
4.3561243
11
-4.91657
21
4.3292471
0
LINE
8
layer0
10
-4.91657
20
4.3292471
11
-4.8493242
21
4.2818285
0
LINE
8
layer0
10
-4.8493242
20
4.2818285
11
-4.7871553
21
4.24735
0
LINE
8
layer0
10
-4.7871553
20
4.24735
11
-4.7582771
21
4.2348059
0
LINE
8
layer0
10
-4.7582771
20
4.2348059
11
-4.7310252
21
4.2252883
0
LINE
8
layer0
10
-4.7310252
20
4.2252883
11
-4.7055128
21
4.2187405
0
LINE
8
layer0
10
-4.7055128
20
4.2187405
11
-4.681853
21
4.2150635
0
LINE
8
layer0
10
-4.681853
20
4.2150635
11
-4.6601448
21
4.2141867
0
LINE
8
layer0
10
-4.6601448
20
4.2141867
11
-4.6405085
21
4.2160323
0
LINE
8
layer0
10
-4.6405085
20
4.2160323
11
-4.6230359
21
4.2204941
0
LINE
8
layer0
10
-4.6230359
20
4.2204941
11
-4.6078331
21
4.2275086
0
LINE
8
layer0
10
-4.6078331
20
4.2275086
11
-4.5949991
21
4.2369485
0
LINE
8
layer0
10
-4.5949991
20
4.2369485
11
-4.5670471
21
4.2667106
0
LINE
8
layer0
10
-4.5670471
20
4.2667106
11
-4.4194174
21
4.4194174
0
LINE
8
layer0
10
-4.4194174
20
4.4194174
11
-4.2667106
21
4.5670471
0
LINE
8
layer0
10
-4.2667106
20
4.5670471
11
-4.2369485
21
4.5949991
0
LINE
8
layer0
10
-4.2369485
20
4.5949991
11
-4.2275086
21
4.6078331
0
LINE
8
layer0
10
-4.2275086
20
4.6078331
11
-4.2204941
21
4.6230359
0
LINE
8
layer0
10
-4.2204941
20
4.6230359
11
-4.2160323
21
4.6405085
0
LINE
8
layer0
10
-4.2160323
20
4.6405085
11
-4.2141867
21
4.6601448
0
LINE
8
layer0
10
-4.2141867
20
4.6601448
11
-4.2150635
21
4.681853
0
LINE
8
layer0
10
-4.2150635
20
4.681853
11
-4.2187405
21
4.7055128
0
LINE
8
layer0
10
-4.2187405
20
4.7055128
11
-4.2252883
21
4.7310252
0
LINE
8
layer0
10
-4.2252883
20
4.7310252
11
-4.2348059
21
4.7582771
0
LINE
8
layer0
10
-4.2348059
20
4.7582771
11
-4.24735
21
4.7871553
0
LINE
8
layer0
10
-4.24735
20
4.7871553
11
-4.2818285
21
4.8493242
0
LINE
8
layer0
10
-4.2818285
20
4.8493242
11
-4.3292471
21
4.91657
0
LINE
8
layer0
10
-4.3292471
20
4.91657
11
-4.3561243
21
4.9502071
0
LINE
8
layer0
10
-4.3561243
20
4.9502071
11
-4.3904189
21
4.999747
0
LINE
8
layer0
10
-4.3904189
20
4.999747
11
-4.4436994
21
5.0917911
0
LINE
8
layer0
10
-4.4436994
20
5.0917911
11
-4.4759789
21
5.1562721
0
LINE
8
layer0
10
-4.4759789
20
5.1562721
11
-4.5089512
21
5.2296345
0
LINE
8
layer0
10
-4.5089512
20
5.2296345
11
-4.543953
21
5.3170046
0
LINE
8
layer0
10
-4.543953
20
5.3170046
11
-4.5792094
21
5.4170178
0
LINE
8
layer0
10
-4.5792094
20
5.4170178
11
-4.6133414
21
5.5285073
0
LINE
8
layer0
10
-4.6133414
20
5.5285073
11
-4.6456208
21
5.6521873
0
LINE
8
layer0
10
-4.6456208
20
5.6521873
11
-4.6751638
21
5.7883337
0
LINE
8
layer0
10
-4.6751638
20
5.7883337
11
-4.7010722
21
5.9376322
0
LINE
8
layer0
10
-4.7010722
20
5.9376322
11
-4.72034
21
6.0834385
0
ARC
8
layer0
10
0.0000057
20
-0.0000092
40
7.7
50
124.1909346
51
127.8090543
0
LINE
8
layer0
10
-4.3270286
20
6.369196
11
-4.1943126
21
6.3058146
0
LINE
8
layer0
10
-4.1943126
20
6.3058146
11
-4.0603274
21
6.2350384
0
LINE
8
layer0
10
-4.0603274
20
6.2350384
11
-3.9399738
21
6.1648699
0
LINE
8
layer0
10
-3.9399738
20
6.1648699
11
-3.832322
21
6.0959511
0
LINE
8
layer0
10
-3.832322
20
6.0959511
11
-3.7368365
21
6.0290375
0
LINE
8
layer0
10
-3.7368365
20
6.0290375
11
-3.6526132
21
5.9646009
0
LINE
8
layer0
10
-3.6526132
20
5.9646009
11
-3.5803354
21
5.9043134
0
LINE
8
layer0
10
-3.5803354
20
5.9043134
11
-3.5207527
21
5.8502846
0
LINE
8
layer0
10
-3.5207527
20
5.8502846
11
-3.4694024
21
5.7996593
0
LINE
8
layer0
10
-3.4694024
20
5.7996593
11
-3.3983279
21
5.7205433
0
LINE
8
layer0
10
-3.3983279
20
5.7205433
11
-3.3618103
21
5.6726185
0
LINE
8
layer0
10
-3.3618103
20
5.6726185
11
-3.338125
21
5.6366624
0
LINE
8
layer0
10
-3.338125
20
5.6366624
11
-3.2888236
21
5.5707845
0
LINE
8
layer0
10
-3.2888236
20
5.5707845
11
-3.2403519
21
5.5187823
0
LINE
8
layer0
10
-3.2403519
20
5.5187823
11
-3.2167634
21
5.4979283
0
LINE
8
layer0
10
-3.2167634
20
5.4979283
11
-3.1937865
21
5.4804551
0
LINE
8
layer0
10
-3.1937865
20
5.4804551
11
-3.1715461
21
5.466344
0
LINE
8
layer0
10
-3.1715461
20
5.466344
11
-3.1501805
21
5.4555358
0
LINE
8
layer0
10
-3.1501805
20
5.4555358
11
-3.1298058
21
5.4479937
0
LINE
8
layer0
10
-3.1298058
20
5.4479937
11
-3.1105602
21
5.4436809
0
LINE
8
layer0
10
-3.1105602
20
5.4436809
11
-3.092564
21
5.4425251
0
LINE
8
layer0
10
-3.092564
20
5.4425251
11
-3.0759377
21
5.4444983
0
LINE
8
layer0
10
-3.0759377
20
5.4444983
11
-3.0608147
21
5.4495103
0
LINE
8
layer0
10
-3.0608147
20
5.4495103
11
-3.0250339
21
5.4691781
0
LINE
8
layer0
10
-3.0250339
20
5.4691781
11
-2.8374406
21
5.5687908
0
LINE
8
layer0
10
-2.8374406
20
5.5687908
11
-2.6465877
21
5.662006
0
LINE
8
layer0
10
-2.6465877
20
5.662006
11
-2.6096447
21
5.6793929
0
LINE
8
layer0
10
-2.6096447
20
5.6793929
11
-2.5967009
21
5.6886817
0
LINE
8
layer0
10
-2.5967009
20
5.6886817
11
-2.5853318
21
5.7009728
0
LINE
8
layer0
10
-2.5853318
20
5.7009728
11
-2.575689
21
5.7162114
0
LINE
8
layer0
10
-2.575689
20
5.7162114
11
-2.5678658
21
5.7343164
0
LINE
8
layer0
10
-2.5678658
20
5.7343164
11
-2.5619915
21
5.7552331
0
LINE
8
layer0
10
-2.5619915
20
5.7552331
11
-2.5581772
21
5.7788711
0
LINE
8
layer0
10
-2.5581772
20
5.7788711
11
-2.5565208
21
5.8051582
0
LINE
8
layer0
10
-2.5565208
20
5.8051582
11
-2.5571513
21
5.8340174
0
LINE
8
layer0
10
-2.5571513
20
5.8340174
11
-2.5601576
21
5.8653586
0
LINE
8
layer0
10
-2.5601576
20
5.8653586
11
-2.5737374
21
5.9351391
0
LINE
8
layer0
10
-2.5737374
20
5.9351391
11
-2.598055
21
6.0137469
0
LINE
8
layer0
10
-2.598055
20
6.0137469
11
-2.6132222
21
6.0540431
0
LINE
8
layer0
10
-2.6132222
20
6.0540431
11
-2.6305297
21
6.111756
0
LINE
8
layer0
10
-2.6305297
20
6.111756
11
-2.6527593
21
6.2157597
0
LINE
8
layer0
10
-2.6527593
20
6.2157597
11
-2.6635331
21
6.2870598
0
LINE
8
layer0
10
-2.6635331
20
6.2870598
11
-2.6722215
21
6.3670205
0
LINE
8
layer0
10
-2.6722215
20
6.3670205
11
-2.6785114
21
6.4609306
0
LINE
8
layer0
10
-2.6785114
20
6.4609306
11
-2.6811364
21
6.5669436
0
LINE
8
layer0
10
-2.6811364
20
6.5669436
11
-2.6791457
21
6.6835238
0
LINE
8
layer0
10
-2.6791457
20
6.6835238
11
-2.671626
21
6.8111254
0
LINE
8
layer0
10
-2.671626
20
6.8111254
11
-2.6576515
21
6.9497375
0
LINE
8
layer0
10
-2.6576515
20
6.9497375
11
-2.636156
21
7.099735
0
LINE
8
layer0
10
-2.636156
20
7.099735
11
-2.6094242
21
7.2443591
0
ARC
8
layer0
10
0.0000034
20
-0.0000103
40
7.7
50
106.1909403
51
109.8090603
0
LINE
8
layer0
10
-2.1470589
20
7.3945907
11
-2.0404245
21
7.2932999
0
LINE
8
layer0
10
-2.0404245
20
7.2932999
11
-1.934868
21
7.1845841
0
LINE
8
layer0
10
-1.934868
20
7.1845841
11
-1.8420882
21
7.0806586
0
LINE
8
layer0
10
-1.8420882
20
7.0806586
11
-1.7610023
21
6.9818467
0
LINE
8
layer0
10
-1.7610023
20
6.9818467
11
-1.6908677
21
6.8887014
0
LINE
8
layer0
10
-1.6908677
20
6.8887014
11
-1.6306785
21
6.8013921
0
LINE
8
layer0
10
-1.6306785
20
6.8013921
11
-1.5805681
21
6.7217202
0
LINE
8
layer0
10
-1.5805681
20
6.7217202
11
-1.5405974
21
6.6519237
0
LINE
8
layer0
10
-1.5405974
20
6.6519237
11
-1.5074045
21
6.5879081
0
LINE
8
layer0
10
-1.5074045
20
6.5879081
11
-1.4642568
21
6.4907011
0
LINE
8
layer0
10
-1.4642568
20
6.4907011
11
-1.4443361
21
6.4338373
0
LINE
8
layer0
10
-1.4443361
20
6.4338373
11
-1.4329211
21
6.3923218
0
LINE
8
layer0
10
-1.4329211
20
6.3923218
11
-1.40639
21
6.3144333
0
LINE
8
layer0
10
-1.40639
20
6.3144333
11
-1.3763603
21
6.2499977
0
LINE
8
layer0
10
-1.3763603
20
6.2499977
11
-1.3603706
21
6.2228751
0
LINE
8
layer0
10
-1.3603706
20
6.2228751
11
-1.3439176
21
6.1991569
0
LINE
8
layer0
10
-1.3439176
20
6.1991569
11
-1.3271264
21
6.1788638
0
LINE
8
layer0
10
-1.3271264
20
6.1788638
11
-1.3101465
21
6.1619822
0
LINE
8
layer0
10
-1.3101465
20
6.1619822
11
-1.2930996
21
6.1485131
0
LINE
8
layer0
10
-1.2930996
20
6.1485131
11
-1.2761286
21
6.1384642
0
LINE
8
layer0
10
-1.2761286
20
6.1384642
11
-1.2593704
21
6.1318037
0
LINE
8
layer0
10
-1.2593704
20
6.1318037
11
-1.242948
21
6.1285426
0
LINE
8
layer0
10
-1.242948
20
6.1285426
11
-1.2270165
21
6.128636
0
LINE
8
layer0
10
-1.2270165
20
6.128636
11
-1.1869092
21
6.1362843
0
LINE
8
layer0
10
-1.1869092
20
6.1362843
11
-0.9777154
21
6.1730521
0
LINE
8
layer0
10
-0.9777154
20
6.1730521
11
-0.7673984
21
6.2027283
0
LINE
8
layer0
10
-0.7673984
20
6.2027283
11
-0.7268906
21
6.2078482
0
LINE
8
layer0
10
-0.7268906
20
6.2078482
11
-0.71171
21
6.2126825
0
LINE
8
layer0
10
-0.71171
20
6.2126825
11
-0.6970992
21
6.2208588
0
LINE
8
layer0
10
-0.6970992
20
6.2208588
11
-0.6832193
21
6.2323718
0
LINE
8
layer0
10
-0.6832193
20
6.2323718
11
-0.6701843
21
6.2471732
0
LINE
8
layer0
10
-0.6701843
20
6.2471732
11
-0.6581339
21
6.2652508
0
LINE
8
layer0
10
-0.6581339
20
6.2652508
11
-0.6472017
21
6.2865532
0
LINE
8
layer0
10
-0.6472017
20
6.2865532
11
-0.6375032
21
6.3110419
0
LINE
8
layer0
10
-0.6375032
20
6.3110419
11
-0.6291849
21
6.3386835
0
LINE
8
layer0
10
-0.6291849
20
6.3386835
11
-0.622359
21
6.3694197
0
LINE
8
layer0
10
-0.622359
20
6.3694197
11
-0.6137108
21
6.4399813
0
LINE
8
layer0
10
-0.6137108
20
6.4399813
11
-0.6125471
21
6.5222563
0
LINE
8
layer0
10
-0.6125471
20
6.5222563
11
-0.6145198
21
6.5652673
0
LINE
8
layer0
10
-0.6145198
20
6.5652673
11
-0.613146
21
6.6255038
0
LINE
8
layer0
10
-0.613146
20
6.6255038
11
-0.6021487
21
6.7312865
0
LINE
8
layer0
10
-0.6021487
20
6.7312865
11
-0.5903622
21
6.8024262
0
LINE
8
layer0
10
-0.5903622
20
6.8024262
11
-0.5739162
21
6.8811582
0
LINE
8
layer0
10
-0.5739162
20
6.8811582
11
-0.5508783
21
6.9724156
0
LINE
8
layer0
10
-0.5508783
20
6.9724156
11
-0.520615
21
7.0740512
0
LINE
8
layer0
10
-0.520615
20
7.0740512
11
-0.4826966
21
7.1843104
0
LINE
8
layer0
10
-0.4826966
20
7.1843104
11
-0.4361138
21
7.303343
0
LINE
8
layer0
10
-0.4361138
20
7.303343
11
-0.3799898
21
7.4308526
0
LINE
8
layer0
10
-0.3799898
20
7.4308526
11
-0.3131946
21
7.5668662
0
LINE
8
layer0
10
-0.3131946
20
7.5668662
11
-0.2430798
21
7.6961514
0
ARC
8
layer0
10
0
20
-0.0000108
40
7.7
50
88.1909401
51
91.8090599
0
LINE
8
layer0
10
0.2430798
20
7.6961514
11
0.3131946
21
7.5668662
0
LINE
8
layer0
10
0.3131946
20
7.5668662
11
0.3799898
21
7.4308526
0
LINE
8
layer0
10
0.3799898
20
7.4308526
11
0.4361138
21
7.303343
0
LINE
8
layer0
10
0.4361138
20
7.303343
11
0.4826966
21
7.1843104
0
LINE
8
layer0
10
0.4826966
20
7.1843104
11
0.520615
21
7.0740512
0
LINE
8
layer0
10
0.520615
20
7.0740512
11
0.5508783
21
6.9724156
0
LINE
8
layer0
10
0.5508783
20
6.9724156
11
0.5739162
21
6.8811582
0
LINE
8
layer0
10
0.5739162
20
6.8811582
11
0.5903622
21
6.8024262
0
LINE
8
layer0
10
0.5903622
20
6.8024262
11
0.6021487
21
6.7312865
0
LINE
8
layer0
10
0.6021487
20
6.7312865
11
0.613146
21
6.6255038
0
LINE
8
layer0
10
0.613146
20
6.6255038
11
0.6145198
21
6.5652673
0
LINE
8
layer0
10
0.6145198
20
6.5652673
11
0.6125471
21
6.5222563
0
LINE
8
layer0
10
0.6125471
20
6.5222563
11
0.6137108
21
6.4399813
0
LINE
8
layer0
10
0.6137108
20
6.4399813
11
0.622359
21
6.3694197
0
LINE
8
layer0
10
0.622359
20
6.3694197
11
0.6291849
21
6.3386835
0
LINE
8
layer0
10
0.6291849
20
6.3386835
11
0.6375032
21
6.3110419
0
LINE
8
layer0
10
0.6375032
20
6.3110419
11
0.6472017
21
6.2865532
0
LINE
8
layer0
10
0.6472017
20
6.2865532
11
0.6581339
21
6.2652508
0
LINE
8
layer0
10
0.6581339
20
6.2652508
11
0.6701843
21
6.2471732
0
LINE
8
layer0
10
0.6701843
20
6.2471732
11
0.6832193
21
6.2323718
0
LINE
8
layer0
10
0.6832193
20
6.2323718
11
0.6970992
21
6.2208588
0
LINE
8
layer0
10
0.6970992
20
6.2208588
11
0.71171
21
6.2126825
0
LINE
8
layer0
10
0.71171
20
6.2126825
11
0.7268906
21
6.2078482
0
LINE
8
layer0
10
0.7268906
20
6.2078482
11
0.7673984
21
6.2027283
0
LINE
8
layer0
10
0.7673984
20
6.2027283
11
0.9777154
21
6.1730521
0
LINE
8
layer0
10
0.9777154
20
6.1730521
11
1.1869092
21
6.1362843
0
LINE
8
layer0
10
1.1869092
20
6.1362843
11
1.2270165
21
6.128636
0
LINE
8
layer0
10
1.2270165
20
6.128636
11
1.242948
21
6.1285426
0
LINE
8
layer0
10
1.242948
20
6.1285426
11
1.2593704
21
6.1318037
0
LINE
8
layer0
10
1.2593704
20
6.1318037
11
1.2761286
21
6.1384642
0
LINE
8
layer0
10
1.2761286
20
6.1384642
11
1.2930996
21
6.1485131
0
LINE
8
layer0
10
1.2930996
20
6.1485131
11
1.3101465
21
6.1619822
0
LINE
8
layer0
10
1.3101465
20
6.1619822
11
1.3271264
21
6.1788638
0
LINE
8
layer0
10
1.3271264
20
6.1788638
11
1.3439176
21
6.1991569
0
LINE
8
layer0
10
1.3439176
20
6.1991569
11
1.3603706
21
6.2228751
0
LINE
8
layer0
10
1.3603706
20
6.2228751
11
1.3763603
21
6.2499977
0
LINE
8
layer0
10
1.3763603
20
6.2499977
11
1.40639
21
6.3144333
0
LINE
8
layer0
10
1.40639
20
6.3144333
11
1.4329211
21
6.3923218
0
LINE
8
layer0
10
1.4329211
20
6.3923218
11
1.4443361
21
6.4338373
0
LINE
8
layer0
10
1.4443361
20
6.4338373
11
1.4642568
21
6.4907011
0
LINE
8
layer0
10
1.4642568
20
6.4907011
11
1.5074045
21
6.5879081
0
LINE
8
layer0
10
1.5074045
20
6.5879081
11
1.5405974
21
6.6519237
0
LINE
8
layer0
10
1.5405974
20
6.6519237
11
1.5805681
21
6.7217202
0
LINE
8
layer0
10
1.5805681
20
6.7217202
11
1.6306785
21
6.8013921
0
LINE
8
layer0
10
1.6306785
20
6.8013921
11
1.6908677
21
6.8887014
0
LINE
8
layer0
10
1.6908677
20
6.8887014
11
1.7610023
21
6.9818467
0
LINE
8
layer0
10
1.7610023
20
6.9818467
11
1.8420882
21
7.0806586
0
LINE
8
layer0
10
1.8420882
20
7.0806586
11
1.934868
21
7.1845841
0
LINE
8
layer0
10
1.934868
20
7.1845841
11
2.0404245
21
7.2932999
0
LINE
8
layer0
10
2.0404245
20
7.2932999
11
2.1470589
21
7.3945907
0
ARC
8
layer0
10
-0.0000035
20
-0.0000102
40
7.7
50
70.1909387
51
73.8090588
0
LINE
8
layer0
10
2.6094242
20
7.2443591
11
2.636156
21
7.099735
0
LINE
8
layer0
10
2.636156
20
7.099735
11
2.6576515
21
6.9497375
0
LINE
8
layer0
10
2.6576515
20
6.9497375
11
2.671626
21
6.8111254
0
LINE
8
layer0
10
2.671626
20
6.8111254
11
2.6791457
21
6.6835238
0
LINE
8
layer0
10
2.6791457
20
6.6835238
11
2.6811364
21
6.5669436
0
LINE
8
layer0
10
2.6811364
20
6.5669436
11
2.6785114
21
6.4609306
0
LINE
8
layer0
10
2.6785114
20
6.4609306
11
2.6722215
21
6.3670205
0
LINE
8
layer0
10
2.6722215
20
6.3670205
11
2.6635331
21
6.2870598
0
LINE
8
layer0
10
2.6635331
20
6.2870598
11
2.6527593
21
6.2157597
0
LINE
8
layer0
10
2.6527593
20
6.2157597
11
2.6305297
21
6.111756
0
LINE
8
layer0
10
2.6305297
20
6.111756
11
2.6132222
21
6.0540431
0
LINE
8
layer0
10
2.6132222
20
6.0540431
11
2.598055
21
6.0137469
0
LINE
8
layer0
10
2.598055
20
6.0137469
11
2.5737374
21
5.9351391
0
LINE
8
layer0
10
2.5737374
20
5.9351391
11
2.5601576
21
5.8653586
0
LINE
8
layer0
10
2.5601576
20
5.8653586
11
2.5571513
21
5.8340174
0
LINE
8
layer0
10
2.5571513
20
5.8340174
11
2.5565208
21
5.8051582
0
LINE
8
layer0
10
2.5565208
20
5.8051582
11
2.5581772
21
5.7788711
0
LINE
8
layer0
10
2.5581772
20
5.7788711
11
2.5619915
21
5.7552331
0
LINE
8
layer0
10
2.5619915
20
5.7552331
11
2.5678658
21
5.7343164
0
LINE
8
layer0
10
2.5678658
20
5.7343164
11
2.575689
21
5.7162114
0
LINE
8
layer0
10
2.575689
20
5.7162114
11
2.5853318
21
5.7009728
0
LINE
8
layer0
10
2.5853318
20
5.7009728
11
2.5967009
21
5.6886817
0
LINE
8
layer0
10
2.5967009
20
5.6886817
11
2.6096447
21
5.6793929
0
LINE
8
layer0
10
2.6096447
20
5.6793929
11
2.6465877
21
5.662006
0
LINE
8
layer0
10
2.6465877
20
5.662006
11
2.8374406
21
5.5687908
0
LINE
8
layer0
10
2.8374406
20
5.5687908
11
3.0250339
21
5.4691781
0
LINE
8
layer0
10
3.0250339
20
5.4691781
11
3.0608147
21
5.4495103
0
LINE
8
layer0
10
3.0608147
20
5.4495103
11
3.0759377
21
5.4444983
0
LINE
8
layer0
10
3.0759377
20
5.4444983
11
3.092564
21
5.4425251
0
LINE
8
layer0
10
3.092564
20
5.4425251
11
3.1105602
21
5.4436809
0
LINE
8
layer0
10
3.1105602
20
5.4436809
11
3.1298058
21
5.4479937
0
LINE
8
layer0
10
3.1298058
20
5.4479937
11
3.1501805
21
5.4555358
0
LINE
8
layer0
10
3.1501805
20
5.4555358
11
3.1715461
21
5.466344
0
LINE
8
layer0
10
3.1715461
20
5.466344
11
3.1937865
21
5.4804551
0
LINE
8
layer0
10
3.1937865
20
5.4804551
11
3.2167634
21
5.4979283
0
LINE
8
layer0
10
3.2167634
20
5.4979283
11
3.2403519
21
5.5187823
0
LINE
8
layer0
10
3.2403519
20
5.5187823
11
3.2888236
21
5.5707845
0
LINE
8
layer0
10
3.2888236
20
5.5707845
11
3.338125
21
5.6366624
0
LINE
8
layer0
10
3.338125
20
5.6366624
11
3.3618103
21
5.6726185
0
LINE
8
layer0
10
3.3618103
20
5.6726185
11
3.3983279
21
5.7205433
0
LINE
8
layer0
10
3.3983279
20
5.7205433
11
3.4694024
21
5.7996593
0
LINE
8
layer0
10
3.4694024
20
5.7996593
11
3.5207527
21
5.8502846
0
LINE
8
layer0
10
3.5207527
20
5.8502846
11
3.5803354
21
5.9043134
0
LINE
8
layer0
10
3.5803354
20
5.9043134
11
3.6526132
21
5.9646009
0
LINE
8
layer0
10
3.6526132
20
5.9646009
11
3.7368365
21
6.0290375
0
LINE
8
layer0
10
3.7368365
20
6.0290375
11
3.832322
21
6.0959511
0
LINE
8
layer0
10
3.832322
20
6.0959511
11
3.9399738
21
6.1648699
0
LINE
8
layer0
10
3.9399738
20
6.1648699
11
4.0603274
21
6.2350384
0
LINE
8
layer0
10
4.0603274
20
6.2350384
11
4.1943126
21
6.3058146
0
LINE
8
layer0
10
4.1943126
20
6.3058146
11
4.3270286
21
6.369196
0
ARC
8
layer0
10
-0.0000057
20
-0.0000091
40
7.7
50
52.1909457
51
55.8090654
0
LINE
8
layer0
10
4.72034
20
6.0834385
11
4.7010722
21
5.9376322
0
LINE
8
layer0
10
4.7010722
20
5.9376322
11
4.6751638
21
5.7883337
0
LINE
8
layer0
10
4.6751638
20
5.7883337
11
4.6456208
21
5.6521873
0
LINE
8
layer0
10
4.6456208
20
5.6521873
11
4.6133414
21
5.5285073
0
LINE
8
layer0
10
4.6133414
20
5.5285073
11
4.5792094
21
5.4170178
0
LINE
8
layer0
10
4.5792094
20
5.4170178
11
4.543953
21
5.3170046
0
LINE
8
layer0
10
4.543953
20
5.3170046
11
4.5089512
21
5.2296345
0
LINE
8
layer0
10
4.5089512
20
5.2296345
11
4.4759789
21
5.1562721
0
LINE
8
layer0
10
4.4759789
20
5.1562721
11
4.4436994
21
5.0917911
0
LINE
8
layer0
10
4.4436994
20
5.0917911
11
4.3904189
21
4.999747
0
LINE
8
layer0
10
4.3904189
20
4.999747
11
4.3561243
21
4.9502071
0
LINE
8
layer0
10
4.3561243
20
4.9502071
11
4.3292471
21
4.91657
0
LINE
8
layer0
10
4.3292471
20
4.91657
11
4.2818285
21
4.8493242
0
LINE
8
layer0
10
4.2818285
20
4.8493242
11
4.24735
21
4.7871553
0
LINE
8
layer0
10
4.24735
20
4.7871553
11
4.2348059
21
4.7582771
0
LINE
8
layer0
10
4.2348059
20
4.7582771
11
4.2252883
21
4.7310252
0
LINE
8
layer0
10
4.2252883
20
4.7310252
11
4.2187405
21
4.7055128
0
LINE
8
layer0
10
4.2187405
20
4.7055128
11
4.2150635
21
4.681853
0
LINE
8
layer0
10
4.2150635
20
4.681853
11
4.2141867
21
4.6601448
0
LINE
8
layer0
10
4.2141867
20
4.6601448
11
4.2160323
21
4.6405085
0
LINE
8
layer0
10
4.2160323
20
4.6405085
11
4.2204941
21
4.6230359
0
LINE
8
layer0
10
4.2204941
20
4.6230359
11
4.2275086
21
4.6078331
0
LINE
8
layer0
10
4.2275086
20
4.6078331
11
4.2369485
21
4.5949991
0
LINE
8
layer0
10
4.2369485
20
4.5949991
11
4.2667106
21
4.5670471
0
LINE
8
layer0
10
4.2667106
20
4.5670471
11
4.4194174
21
4.4194174
0
LINE
8
layer0
10
4.4194174
20
4.4194174
11
4.5670471
21
4.2667106
0
LINE
8
layer0
10
4.5670471
20
4.2667106
11
4.5949991
21
4.2369485
0
LINE
8
layer0
10
4.5949991
20
4.2369485
11
4.6078331
21
4.2275086
0
LINE
8
layer0
10
4.6078331
20
4.2275086
11
4.6230359
21
4.2204941
0
LINE
8
layer0
10
4.6230359
20
4.2204941
11
4.6405085
21
4.2160323
0
LINE
8
layer0
10
4.6405085
20
4.2160323
11
4.6601448
21
4.2141867
0
LINE
8
layer0
10
4.6601448
20
4.2141867
11
4.681853
21
4.2150635
0
LINE
8
layer0
10
4.681853
20
4.2150635
11
4.7055128
21
4.2187405
0
LINE
8
layer0
10
4.7055128
20
4.2187405
11
4.7310252
21
4.2252883
0
LINE
8
layer0
10
4.7310252
20
4.2252883
11
4.7582771
21
4.2348059
0
LINE
8
layer0
10
4.7582771
20
4.2348059
11
4.7871553
21
4.24735
0
LINE
8
layer0
10
4.7871553
20
4.24735
11
4.8493242
21
4.2818285
0
LINE
8
layer0
10
4.8493242
20
4.2818285
11
4.91657
21
4.3292471
0
LINE
8
layer0
10
4.91657
20
4.3292471
11
4.9502071
21
4.3561243
0
LINE
8
layer0
10
4.9502071
20
4.3561243
11
4.999747
21
4.3904189
0
LINE
8
layer0
10
4.999747
20
4.3904189
11
5.0917911
21
4.4436994
0
LINE
8
layer0
10
5.0917911
20
4.4436994
11
5.1562721
21
4.4759789
0
LINE
8
layer0
10
5.1562721
20
4.4759789
11
5.2296345
21
4.5089512
0
LINE
8
layer0
10
5.2296345
20
4.5089512
11
5.3170046
21
4.543953
0
LINE
8
layer0
10
5.3170046
20
4.543953
11
5.4170178
21
4.5792094
0
LINE
8
layer0
10
5.4170178
20
4.5792094
11
5.5285073
21
4.6133414
0
LINE
8
layer0
10
5.5285073
20
4.6133414
11
5.6521873
21
4.6456208
0
LINE
8
layer0
10
5.6521873
20
4.6456208
11
5.7883337
21
4.6751638
0
LINE
8
layer0
10
5.7883337
20
4.6751638
11
5.9376322
21
4.7010722
0
LINE
8
layer0
10
5.9376322
20
4.7010722
11
6.0834385
21
4.72034
0
ARC
8
layer0
10
-0.0000092
20
-0.0000057
40
7.7
50
34.1909346
51
37.8090543
0
LINE
8
layer0
10
6.369196
20
4.3270286
11
6.3058146
21
4.1943126
0
LINE
8
layer0
10
6.3058146
20
4.1943126
11
6.2350384
21
4.0603274
0
LINE
8
layer0
10
6.2350384
20
4.0603274
11
6.1648699
21
3.9399738
0
LINE
8
layer0
10
6.1648699
20
3.9399738
11
6.0959511
21
3.832322
0
LINE
8
layer0
10
6.0959511
20
3.832322
11
6.0290375
21
3.7368365
0
LINE
8
layer0
10
6.0290375
20
3.7368365
11
5.9646009
21
3.6526132
0
LINE
8
layer0
10
5.9646009
20
3.6526132
11
5.9043134
21
3.5803354
0
LINE
8
layer0
10
5.9043134
20
3.5803354
11
5.8502846
21
3.5207527
0
LINE
8
layer0
10
5.8502846
20
3.5207527
11
5.7996593
21
3.4694024
0
LINE
8
layer0
10
5.7996593
20
3.4694024
11
5.7205433
21
3.3983279
0
LINE
8
layer0
10
5.7205433
20
3.3983279
11
5.6726185
21
3.3618103
0
LINE
8
layer0
10
5.6726185
20
3.3618103
11
5.6366624
21
3.338125
0
LINE
8
layer0
10
5.6366624
20
3.338125
11
5.5707845
21
3.2888236
0
LINE
8
layer0
10
5.5707845
20
3.2888236
11
5.5187823
21
3.2403519
0
LINE
8
layer0
10
5.5187823
20
3.2403519
11
5.4979283
21
3.2167634
0
LINE
8
layer0
10
5.4979283
20
3.2167634
11
5.4804551
21
3.1937865
0
LINE
8
layer0
10
5.4804551
20
3.1937865
11
5.466344
21
3.1715461
0
LINE
8
layer0
10
5.466344
20
3.1715461
11
5.4555358
21
3.1501805
0
LINE
8
layer0
10
5.4555358
20
3.1501805
11
5.4479937
21
3.1298058
0
LINE
8
layer0
10
5.4479937
20
3.1298058
11
5.4436809
21
3.1105602
0
LINE
8
layer0
10
5.4436809
20
3.1105602
11
5.4425251
21
3.092564
0
LINE
8
layer0
10
5.4425251
20
3.092564
11
5.4444983
21
3.0759377
0
LINE
8
layer0
10
5.4444983
20
3.0759377
11
5.4495103
21
3.0608147
0
LINE
8
layer0
10
5.4495103
20
3.0608147
11
5.4691781
21
3.0250339
0
LINE
8
layer0
10
5.4691781
20
3.0250339
11
5.5687908
21
2.8374406
0
LINE
8
layer0
10
5.5687908
20
2.8374406
11
5.662006
21
2.6465877
0
LINE
8
layer0
10
5.662006
20
2.6465877
11
5.6793929
21
2.6096447
0
LINE
8
layer0
10
5.6793929
20
2.6096447
11
5.6886817
21
2.5967009
0
LINE
8
layer0
10
5.6886817
20
2.5967009
11
5.7009728
21
2.5853318
0
LINE
8
layer0
10
5.7009728
20
2.5853318
11
5.7162114
21
2.575689
0
LINE
8
layer0
10
5.7162114
20
2.575689
11
5.7343164
21
2.5678658
0
LINE
8
layer0
10
5.7343164
20
2.5678658
11
5.7552331
21
2.5619915
0
LINE
8
layer0
10
5.7552331
20
2.5619915
11
5.7788711
21
2.5581772
0
LINE
8
layer0
10
5.7788711
20
2.5581772
11
5.8051582
21
2.5565208
0
LINE
8
layer0
10
5.8051582
20
2.5565208
11
5.8340174
21
2.5571513
0
LINE
8
layer0
10
5.8340174
20
2.5571513
11
5.8653586
21
2.5601576
0
LINE
8
layer0
10
5.8653586
20
2.5601576
11
5.9351391
21
2.5737374
0
LINE
8
layer0
10
5.9351391
20
2.5737374
11
6.0137469
21
2.598055
0
LINE
8
layer0
10
6.0137469
20
2.598055
11
6.0540431
21
2.6132222
0
LINE
8
layer0
10
6.0540431
20
2.6132222
11
6.111756
21
2.6305297
0
LINE
8
layer0
10
6.111756
20
2.6305297
11
6.2157597
21
2.6527593
0
LINE
8
layer0
10
6.2157597
20
2.6527593
11
6.2870598
21
2.6635331
0
LINE
8
layer0
10
6.2870598
20
2.6635331
11
6.3670205
21
2.6722215
0
LINE
8
layer0
10
6.3670205
20
2.6722215
11
6.4609306
21
2.6785114
0
LINE
8
layer0
10
6.4609306
20
2.6785114
11
6.5669436
21
2.6811364
0
LINE
8
layer0
10
6.5669436
20
2.6811364
11
6.6835238
21
2.6791457
0
LINE
8
layer0
10
6.6835238
20
2.6791457
11
6.8111254
21
2.671626
0
LINE
8
layer0
10
6.8111254
20
2.671626
11
6.9497375
21
2.6576515
0
LINE
8
layer0
10
6.9497375
20
2.6576515
11
7.099735
21
2.636156
0
LINE
8
layer0
10
7.099735
20
2.636156
11
7.2443591
21
2.6094242
0
ARC
8
layer0
10
-0.0000103
20
-0.0000034
40
7.7
50
16.1909403
51
19.8090603
0
LINE
8
layer0
10
7.3945907
20
2.1470589
11
7.2932999
21
2.0404245
0
LINE
8
layer1
10
7.2932999
20
2.0404245
11
7.1845841
21
1.934868
0
LINE
8
layer1
10
7.1845841
20
1.934868
11
7.0806586
21
1.8420882
0
LINE
8
layer1
10
7.0806586
20
1.8420882
11
6.9818467
21
1.7610023
0
LINE
8
layer1
10
6.9818467
20
1.7610023
11
6.8887014
21
1.6908677
0
LINE
8
layer1
10
6.8887014
20
1.6908677
11
6.8013921
21
1.6306785
0
LINE
8
layer1
10
6.8013921
20
1.6306785
11
6.7217202
21
1.5805681
0
LINE
8
layer1
10
6.7217202
20
1.5805681
11
6.6519237
21
1.5405974
0
LINE
8
layer1
10
6.6519237
20
1.5405974
11
6.5879081
21
1.5074045
0
LINE
8
layer1
10
6.5879081
20
1.5074045
11
6.4907011
21
1.4642568
0
LINE
8
layer1
10
6.4907011
20
1.4642568
11
6.4338373
21
1.4443361
0
LINE
8
layer1
10
6.4338373
20
1.4443361
11
6.3923218
21
1.4329211
0
LINE
8
layer1
10
6.3923218
20
1.4329211
11
6.3144333
21
1.40639
0
LINE
8
layer1
10
6.3144333
20
1.40639
11
6.2499977
21
1.3763603
0
LINE
8
layer1
10
6.2499977
20
1.3763603
11
6.2228751
21
1.3603706
0
LINE
8
layer1
10
6.2228751
20
1.3603706
11
6.1991569
21
1.3439176
0
LINE
8
layer1
10
6.1991569
20
1.3439176
11
6.1788638
21
1.3271264
0
LINE
8
layer1
10
6.1788638
20
1.3271264
11
6.1619822
21
1.3101465
0
LINE
8
layer1
10
6.1619822
20
1.3101465
11
6.1485131
21
1.2930996
0
LINE
8
layer1
10
6.1485131
20
1.2930996
11
6.1384642
21
1.2761286
0
LINE
8
layer1
10
6.1384642
20
1.2761286
11
6.1318037
21
1.2593704
0
LINE
8
layer1
10
6.1318037
20
1.2593704
11
6.1285426
21
1.242948
0
LINE
8
layer1
10
6.1285426
20
1.242948
11
6.128636
21
1.2270165
0
LINE
8
layer1
10
6.128636
20
1.2270165
11
6.1362843
21
1.1869092
0
LINE
8
layer1
10
6.1362843
20
1.1869092
11
6.1730521
21
0.9777154
0
LINE
8
layer1
10
6.1730521
20
0.9777154
11
6.2027283
21
0.7673984
0
LINE
8
layer1
10
6.2027283
20
0.7673984
11
6.2078482
21
0.7268906
0
LINE
8
layer1
10
6.2078482
20
0.7268906
11
6.2126825
21
0.71171
0
LINE
8
layer1
10
6.2126825
20
0.71171
11
6.2208588
21
0.6970992
0
LINE
8
layer1
10
6.2208588
20
0.6970992
11
6.2323718
21
0.6832193
0
LINE
8
layer1
10
6.2323718
20
0.6832193
11
6.2471732
21
0.6701843
0
LINE
8
layer1
10
6.2471732
20
0.6701843
11
6.2652508
21
0.6581339
0
LINE
8
layer1
10
6.2652508
20
0.6581339
11
6.2865532
21
0.6472017
0
LINE
8
layer1
10
6.2865532
20
0.6472017
11
6.3110419
21
0.6375032
0
LINE
8
layer1
10
6.3110419
20
0.6375032
11
6.3386835
21
0.6291849
0
LINE
8
layer1
10
6.3386835
20
0.6291849
11
6.3694197
21
0.622359
0
LINE
8
layer1
10
6.3694197
20
0.622359
11
6.4399813
21
0.6137108
0
LINE
8
layer1
10
6.4399813
20
0.6137108
11
6.5222563
21
0.6125471
0
LINE
8
layer1
10
6.5222563
20
0.6125471
11
6.5652673
21
0.6145198
0
LINE
8
layer1
10
6.5652673
20
0.6145198
11
6.6255038
21
0.613146
0
LINE
8
layer1
10
6.6255038
20
0.613146
11
6.7312865
21
0.6021487
0
LINE
8
layer1
10
6.7312865
20
0.6021487
11
6.8024262
21
0.5903622
0
LINE
8
layer1
10
6.8024262
20
0.5903622
11
6.8811582
21
0.5739162
0
LINE
8
layer1
10
6.8811582
20
0.5739162
11
6.9724156
21
0.5508783
0
LINE
8
layer1
10
6.9724156
20
0.5508783
11
7.0740512
21
0.520615
0
LINE
8
layer1
10
7.0740512
20
0.520615
11
7.1843104
21
0.4826966
0
LINE
8
layer1
10
7.1843104
20
0.4826966
11
7.303343
21
0.4361138
0
LINE
8
layer1
10
7.303343
20
0.4361138
11
7.4308526
21
0.3799898
0
LINE
8
layer1
10
7.4308526
20
0.3799898
11
7.5668662
21
0.3131946
0
LINE
8
layer1
10
7.5668662
20
0.3131946
11
7.6961514
21
0.2430798
0
ARC
8
layer1
10
-0.0000108
20
0
40
7.7
50
358.1909401
51
361.8090599
0
LINE
8
layer1
10
7.6961514
20
-0.2430798
11
7.5668662
21
-0.3131946
0
LINE
8
layer1
10
7.5668662
20
-0.3131946
11
7.4308526
21
-0.3799898
0
LINE
8
layer1
10
7.4308526
20
-0.3799898
11
7.303343
21
-0.4361138
0
LINE
8
layer1
10
7.303343
20
-0.4361138
11
7.1843104
21
-0.4826966
0
LINE
8
layer1
10
7.1843104
20
-0.4826966
11
7.0740512
21
-0.520615
0
LINE
8
layer1
10
7.0740512
20
-0.520615
11
6.9724156
21
-0.5508783
0
LINE
8
layer1
10
6.9724156
20
-0.5508783
11
6.8811582
21
-0.5739162
0
LINE
8
layer1
10
6.8811582
20
-0.5739162
11
6.8024262
21
-0.5903622
0
LINE
8
layer1
10
6.8024262
20
-0.5903622
11
6.7312865
21
-0.6021487
0
LINE
8
layer1
10
6.7312865
20
-0.6021487
11
6.6255038
21
-0.613146
0
LINE
8
layer1
10
6.6255038
20
-0.613146
11
6.5652673
21
-0.6145198
0
LINE
8
layer1
10
6.5652673
20
-0.6145198
11
6.5222563
21
-0.6125471
0
LINE
8
layer1
10
6.5222563
20
-0.6125471
11
6.4399813
21
-0.6137108
0
LINE
8
layer1
10
6.4399813
20
-0.6137108
11
6.3694197
21
-0.622359
0
LINE
8
layer1
10
6.3694197
20
-0.622359
11
6.3386835
21
-0.6291849
0
LINE
8
layer1
10
6.3386835
20
-0.6291849
11
6.3110419
21
-0.6375032
0
LINE
8
layer1
10
6.3110419
20
-0.6375032
11
6.2865532
21
-0.6472017
0
LINE
8
layer1
10
6.2865532
20
-0.6472017
11
6.2652508
21
-0.6581339
0
LINE
8
layer1
10
6.2652508
20
-0.6581339
11
6.2471732
21
-0.6701843
0
LINE
8
layer1
10
6.2471732
20
-0.6701843
11
6.2323718
21
-0.6832193
0
LINE
8
layer1
10
6.2323718
20
-0.6832193
11
6.2208588
21
-0.6970992
0
LINE
8
layer1
10
6.2208588
20
-0.6970992
11
6.2126825
21
-0.71171
0
LINE
8
layer1
10
6.2126825
20
-0.71171
11
6.2078482
21
-0.7268906
0
LINE
8
layer1
10
6.2078482
20
-0.7268906
11
6.2027283
21
-0.7673984
0
LINE
8
layer1
10
6.2027283
20
-0.7673984
11
6.1730521
21
-0.9777154
0
LINE
8
layer1
10
6.1730521
20
-0.9777154
11
6.1362843
21
-1.1869092
0
LINE
8
layer1
10
6.1362843
20
-1.1869092
11
6.128636
21
-1.2270165
0
LINE
8
layer1
10
6.128636
20
-1.2270165
11
6.1285426
21
-1.242948
0
LINE
8
layer1
10
6.1285426
20
-1.242948
11
6.1318037
21
-1.2593704
0
LINE
8
layer1
10
6.1318037
20
-1.2593704
11
6.1384642
21
-1.2761286
0
LINE
8
layer1
10
6.1384642
20
-1.2761286
11
6.1485131
21
-1.2930996
0
LINE
8
layer1
10
6.1485131
20
-1.2930996
11
6.1619822
21
-1.3101465
0
LINE
8
layer1
10
6.1619822
20
-1.3101465
11
6.1788638
21
-1.3271264
0
LINE
8
layer1
10
6.1788638
20
-1.3271264
11
6.1991569
21
-1.3439176
0
LINE
8
layer1
10
6.1991569
20
-1.3439176
11
6.2228751
21
-1.3603706
0
LINE
8
layer1
10
6.2228751
20
-1.3603706
11
6.2499977
21
-1.3763603
0
LINE
8
layer1
10
6.2499977
20
-1.3763603
11
6.3144333
21
-1.40639
0
LINE
8
layer1
10
6.3144333
20
-1.40639
11
6.3923218
21
-1.4329211
0
LINE
8
layer1
10
6.3923218
20
-1.4329211
11
6.4338373
21
-1.4443361
0
LINE
8
layer1
10
6.4338373
20
-1.4443361
11
6.4907011
21
-1.4642568
0
LINE
8
layer1
10
6.4907011
20
-1.4642568
11
6.5879081
21
-1.5074045
0
LINE
8
layer1
10
6.5879081
20
-1.5074045
11
6.6519237
21
-1.5405974
0
LINE
8
layer1
10
6.6519237
20
-1.5405974
11
6.7217202
21
-1.5805681
0
LINE
8
layer1
10
6.7217202
20
-1.5805681
11
6.8013921
21
-1.6306785
0
LINE
8
layer1
10
6.8013921
20
-1.6306785
11
6.8887014
21
-1.6908677
0
LINE
8
layer1
10
6.8887014
20
-1.6908677
11
6.9818467
21
-1.7610023
0
LINE
8
layer1
10
6.9818467
20
-1.7610023
11
7.0806586
21
-1.8420882
0
LINE
8
layer1
10
7.0806586
20
-1.8420882
11
7.1845841
21
-1.934868
0
LINE
8
layer1
10
7.1845841
20
-1.934868
11
7.2932999
21
-2.0404245
0
LINE
8
layer1
10
7.2932999
20
-2.0404245
11
7.3945907
21
-2.1470589
0
ARC
8
layer1
10
-0.0000102
20
0.0000035
40
7.7
50
340.1909387
51
343.8090588
0
LINE
8
layer1
10
7.2443591
20
-2.6094242
11
7.099735
21
-2.636156
0
LINE
8
layer1
10
7.099735
20
-2.636156
11
6.9497375
21
-2.6576515
0
LINE
8
layer1
10
6.9497375
20
-2.6576515
11
6.8111254
21
-2.671626
0
LINE
8
layer1
10
6.8111254
20
-2.671626
11
6.6835238
21
-2.6791457
0
LINE
8
layer1
10
6.6835238
20
-2.6791457
11
6.5669436
21
-2.6811364
0
LINE
8
layer1
10
6.5669436
20
-2.6811364
11
6.4609306
21
-2.6785114
0
LINE
8
layer1
10
6.4609306
20
-2.6785114
11
6.3670205
21
-2.6722215
0
LINE
8
layer1
10
6.3670205
20
-2.6722215
11
6.2870598
21
-2.6635331
0
LINE
8
layer1
10
6.2870598
20
-2.6635331
11
6.2157597
21
-2.6527593
0
LINE
8
layer1
10
6.2157597
20
-2.6527593
11
6.111756
21
-2.6305297
0
LINE
8
layer1
10
6.111756
20
-2.6305297
11
6.0540431
21
-2.6132222
0
LINE
8
layer1
10
6.0540431
20
-2.6132222
11
6.0137469
21
-2.598055
0
LINE
8
layer1
10
6.0137469
20
-2.598055
11
5.9351391
21
-2.5737374
0
LINE
8
layer1
10
5.9351391
20
-2.5737374
11
5.8653586
21
-2.5601576
0
LINE
8
layer1
10
5.8653586
20
-2.5601576
11
5.8340174
21
-2.5571513
0
LINE
8
layer1
10
5.8340174
20
-2.5571513
11
5.8051582
21
-2.5565208
0
LINE
8
layer1
10
5.8051582
20
-2.5565208
11
5.7788711
21
-2.5581772
0
LINE
8
layer1
10
5.7788711
20
-2.5581772
11
5.7552331
21
-2.5619915
0
LINE
8
layer1
10
5.7552331
20
-2.5619915
11
5.7343164
21
-2.5678658
0
LINE
8
layer1
10
5.7343164
20
-2.5678658
11
5.7162114
21
-2.575689
0
LINE
8
layer1
10
5.7162114
20
-2.575689
11
5.7009728
21
-2.5853318
0
LINE
8
layer1
10
5.7009728
20
-2.5853318
11
5.6886817
21
-2.5967009
0
LINE
8
layer1
10
5.6886817
20
-2.5967009
11
5.6793929
21
-2.6096447
0
LINE
8
layer1
10
5.6793929
20
-2.6096447
11
5.662006
21
-2.6465877
0
LINE
8
layer1
10
5.662006
20
-2.6465877
11
5.5687908
21
-2.8374406
0
LINE
8
layer1
10
5.5687908
20
-2.8374406
11
5.4691781
21
-3.0250339
0
LINE
8
layer1
10
5.4691781
20
-3.0250339
11
5.4495103
21
-3.0608147
0
LINE
8
layer1
10
5.4495103
20
-3.0608147
11
5.4444983
21
-3.0759377
0
LINE
8
layer1
10
5.4444983
20
-3.0759377
11
5.4425251
21
-3.092564
0
LINE
8
layer1
10
5.4425251
20
-3.092564
11
5.4436809
21
-3.1105602
0
LINE
8
layer1
10
5.4436809
20
-3.1105602
11
5.4479937
21
-3.1298058
0
LINE
8
layer1
10
5.4479937
20
-3.1298058
11
5.4555358
21
-3.1501805
0
LINE
8
layer1
10
5.4555358
20
-3.1501805
11
5.466344
21
-3.1715461
0
LINE
8
layer1
10
5.466344
20
-3.1715461
11
5.4804551
21
-3.1937865
0
LINE
8
layer1
10
5.4804551
20
-3.1937865
11
5.4979283
21
-3.2167634
0
LINE
8
layer1
10
5.4979283
20
-3.2167634
11
5.5187823
21
-3.2403519
0
LINE
8
layer1
10
5.5187823
20
-3.2403519
11
5.5707845
21
-3.2888236
0
LINE
8
layer1
10
5.5707845
20
-3.2888236
11
5.6366624
21
-3.338125
0
LINE
8
layer1
10
5.6366624
20
-3.338125
11
5.6726185
21
-3.3618103
0
LINE
8
layer1
10
5.6726185
20
-3.3618103
11
5.7205433
21
-3.3983279
0
LINE
8
layer1
10
5.7205433
20
-3.3983279
11
5.7996593
21
-3.4694024
0
LINE
8
layer1
10
5.7996593
20
-3.4694024
11
5.8502846
21
-3.5207527
0
LINE
8
layer1
10
5.8502846
20
-3.5207527
11
5.9043134
21
-3.5803354
0
LINE
8
layer1
10
5.9043134
20
-3.5803354
11
5.9646009
21
-3.6526132
0
LINE
8
layer1
10
5.9646009
20
-3.6526132
11
6.0290375
21
-3.7368365
0
LINE
8
layer1
10
6.0290375
20
-3.7368365
11
6.0959511
21
-3.832322
0
LINE
8
layer1
10
6.0959511
20
-3.832322
11
6.1648699
21
-3.9399738
0
LINE
8
layer1
10
6.1648699
20
-3.9399738
11
6.2350384
21
-4.0603274
0
LINE
8
layer1
10
6.2350384
20
-4.0603274
11
6.3058146
21
-4.1943126
0
LINE
8
layer1
10
6.3058146
20
-4.1943126
11
6.369196
21
-4.3270286
0
ARC
8
layer1
10
-0.0000091
20
0.0000057
40
7.7
50
322.1909457
51
325.8090654
0
LINE
8
layer1
10
6.0834385
20
-4.72034
11
5.9376322
21
-4.7010722
0
LINE
8
layer1
10
5.9376322
20
-4.7010722
11
5.7883337
21
-4.6751638
0
LINE
8
layer1
10
5.7883337
20
-4.6751638
11
5.6521873
21
-4.6456208
0
LINE
8
layer1
10
5.6521873
20
-4.6456208
11
5.5285073
21
-4.6133414
0
LINE
8
layer1
10
5.5285073
20
-4.6133414
11
5.4170178
21
-4.5792094
0
LINE
8
layer1
10
5.4170178
20
-4.5792094
11
5.3170046
21
-4.543953
0
LINE
8
layer1
10
5.3170046
20
-4.543953
11
5.2296345
21
-4.5089512
0
LINE
8
layer1
10
5.2296345
20
-4.5089512
11
5.1562721
21
-4.4759789
0
LINE
8
layer1
10
5.1562721
20
-4.4759789
11
5.0917911
21
-4.4436994
0
LINE
8
layer1
10
5.0917911
20
-4.4436994
11
4.999747
21
-4.3904189
0
LINE
8
layer1
10
4.999747
20
-4.3904189
11
4.9502071
21
-4.3561243
0
LINE
8
layer1
10
4.9502071
20
-4.3561243
11
4.91657
21
-4.3292471
0
LINE
8
layer1
10
4.91657
20
-4.3292471
11
4.8493242
21
-4.2818285
0
LINE
8
layer1
10
4.8493242
20
-4.2818285
11
4.7871553
21
-4.24735
0
LINE
8
layer1
10
4.7871553
20
-4.24735
11
4.7582771
21
-4.2348059
0
LINE
8
layer1
10
4.7582771
20
-4.2348059
11
4.7310252
21
-4.2252883
0
LINE
8
layer1
10
4.7310252
20
-4.2252883
11
4.7055128
21
-4.2187405
0
LINE
8
layer1
10
4.7055128
20
-4.2187405
11
4.681853
21
-4.2150635
0
LINE
8
layer1
10
4.681853
20
-4.2150635
11
4.6601448
21
-4.2141867
0
LINE
8
layer1
10
4.6601448
20
-4.2141867
11
4.6405085
21
-4.2160323
0
LINE
8
layer1
10
4.6405085
20
-4.2160323
11
4.6230359
21
-4.2204941
0
LINE
8
layer1
10
4.6230359
20
-4.2204941
11
4.6078331
21
-4.2275086
0
LINE
8
layer1
10
4.6078331
20
-4.2275086
11
4.5949991
21
-4.2369485
0
LINE
8
layer1
10
4.5949991
20
-4.2369485
11
4.5670471
21
-4.2667106
0
LINE
8
layer1
10
4.5670471
20
-4.2667106
11
4.4194174
21
-4.4194174
0
LINE
8
layer1
10
4.4194174
20
-4.4194174
11
4.2667106
21
-4.5670471
0
LINE
8
layer1
10
4.2667106
20
-4.5670471
11
4.2369485
21
-4.5949991
0
LINE
8
layer1
10
4.2369485
20
-4.5949991
11
4.2275086
21
-4.6078331
0
LINE
8
layer1
10
4.2275086
20
-4.6078331
11
4.2204941
21
-4.6230359
0
LINE
8
layer1
10
4.2204941
20
-4.6230359
11
4.2160323
21
-4.6405085
0
LINE
8
layer1
10
4.2160323
20
-4.6405085
11
4.2141867
21
-4.6601448
0
LINE
8
layer1
10
4.2141867
20
-4.6601448
11
4.2150635
21
-4.681853
0
LINE
8
layer1
10
4.2150635
20
-4.681853
11
4.2187405
21
-4.7055128
0
LINE
8
layer1
10
4.2187405
20
-4.7055128
11
4.2252883
21
-4.7310252
0
LINE
8
layer1
10
4.2252883
20
-4.7310252
11
4.2348059
21
-4.7582771
0
LINE
8
layer1
10
4.2348059
20
-4.7582771
11
4.24735
21
-4.7871553
0
LINE
8
layer1
10
4.24735
20
-4.7871553
11
4.2818285
21
-4.8493242
0
LINE
8
layer1
10
4.2818285
20
-4.8493242
11
4.3292471
21
-4.91657
0
LINE
8
layer1
10
4.3292471
20
-4.91657
11
4.3561243
21
-4.9502071
0
LINE
8
layer1
10
4.3561243
20
-4.9502071
11
4.3904189
21
-4.999747
0
LINE
8
layer1
10
4.3904189
20
-4.999747
11
4.4436994
21
-5.0917911
0
LINE
8
layer1
10
4.4436994
20
-5.0917911
11
4.4759789
21
-5.1562721
0
LINE
8
layer1
10
4.4759789
20
-5.1562721
11
4.5089512
21
-5.2296345
0
LINE
8
layer1
10
4.5089512
20
-5.2296345
11
4.543953
21
-5.3170046
0
LINE
8
layer1
10
4.543953
20
-5.3170046
11
4.5792094
21
-5.4170178
0
LINE
8
layer1
10
4.5792094
20
-5.4170178
11
4.6133414
21
-5.5285073
0
LINE
8
layer1
10
4.6133414
20
-5.5285073
11
4.6456208
21
-5.6521873
0
LINE
8
layer1
10
4.6456208
20
-5.6521873
11
4.6751638
21
-5.7883337
0
LINE
8
layer1
10
4.6751638
20
-5.7883337
11
4.7010722
21
-5.9376322
0
LINE
8
layer1
10
4.7010722
20
-5.9376322
11
4.72034
21
-6.0834385
0
ARC
8
layer1
10
-0.0000057
20
0.0000092
40
7.7
50
304.1909346
51
307.8090543
0
LINE
8
layer1
10
4.3270286
20
-6.369196
11
4.1943126
21
-6.3058146
0
LINE
8
layer1
10
4.1943126
20
-6.3058146
11
4.0603274
21
-6.2350384
0
LINE
8
layer1
10
4.0603274
20
-6.2350384
11
3.9399738
21
-6.1648699
0
LINE
8
layer1
10
3.9399738
20
-6.1648699
11
3.832322
21
-6.0959511
0
LINE
8
layer1
10
3.832322
20
-6.0959511
11
3.7368365
21
-6.0290375
0
LINE
8
layer1
10
3.7368365
20
-6.0290375
11
3.6526132
21
-5.9646009
0
LINE
8
layer1
10
3.6526132
20
-5.9646009
11
3.5803354
21
-5.9043134
0
LINE
8
layer1
10
3.5803354
20
-5.9043134
11
3.5207527
21
-5.8502846
0
LINE
8
layer1
10
3.5207527
20
-5.8502846
11
3.4694024
21
-5.7996593
0
LINE
8
layer1
10
3.4694024
20
-5.7996593
11
3.3983279
21
-5.7205433
0
LINE
8
layer1
10
3.3983279
20
-5.7205433
11
3.3618103
21
-5.6726185
0
LINE
8
layer1
10
3.3618103
20
-5.6726185
11
3.338125
21
-5.6366624
0
LINE
8
layer1
10
3.338125
20
-5.6366624
11
3.2888236
21
-5.5707845
0
LINE
8
layer1
10
3.2888236
20
-5.5707845
11
3.2403519
21
-5.5187823
0
LINE
8
layer1
10
3.2403519
20
-5.5187823
11
3.2167634
21
-5.4979283
0
LINE
8
layer1
10
3.2167634
20
-5.4979283
11
3.1937865
21
-5.4804551
0
LINE
8
layer1
10
3.1937865
20
-5.4804551
11
3.1715461
21
-5.466344
0
LINE
8
layer1
10
3.1715461
20
-5.466344
11
3.1501805
21
-5.4555358
0
LINE
8
layer1
10
3.1501805
20
-5.4555358
11
3.1298058
21
-5.4479937
0
LINE
8
layer1
10
3.1298058
20
-5.4479937
11
3.1105602
21
-5.4436809
0
LINE
8
layer1
10
3.1105602
20
-5.4436809
11
3.092564
21
-5.4425251
0
LINE
8
layer1
10
3.092564
20
-5.4425251
11
3.0759377
21
-5.4444983
0
LINE
8
layer1
10
3.0759377
20
-5.4444983
11
3.0608147
21
-5.4495103
0
LINE
8
layer1
10
3.0608147
20
-5.4495103
11
3.0250339
21
-5.4691781
0
LINE
8
layer1
10
3.0250339
20
-5.4691781
11
2.8374406
21
-5.5687908
0
LINE
8
layer1
10
2.8374406
20
-5.5687908
11
2.6465877
21
-5.662006
0
LINE
8
layer1
10
2.6465877
20
-5.662006
11
2.6096447
21
-5.6793929
0
LINE
8
layer1
10
2.6096447
20
-5.6793929
11
2.5967009
21
-5.6886817
0
LINE
8
layer1
10
2.5967009
20
-5.6886817
11
2.5853318
21
-5.7009728
0
LINE
8
layer1
10
2.5853318
20
-5.7009728
11
2.575689
21
-5.7162114
0
LINE
8
layer1
10
2.575689
20
-5.7162114
11
2.5678658
21
-5.7343164
0
LINE
8
layer1
10
2.5678658
20
-5.7343164
11
2.5619915
21
-5.7552331
0
LINE
8
layer1
10
2.5619915
20
-5.7552331
11
2.5581772
21
-5.7788711
0
LINE
8
layer1
10
2.5581772
20
-5.7788711
11
2.5565208
21
-5.8051582
0
LINE
8
layer1
10
2.5565208
20
-5.8051582
11
2.5571513
21
-5.8340174
0
LINE
8
layer1
10
2.5571513
20
-5.8340174
11
2.5601576
21
-5.8653586
0
LINE
8
layer1
10
2.5601576
20
-5.8653586
11
2.5737374
21
-5.9351391
0
LINE
8
layer1
10
2.5737374
20
-5.9351391
11
2.598055
21
-6.0137469
0
LINE
8
layer1
10
2.598055
20
-6.0137469
11
2.6132222
21
-6.0540431
0
LINE
8
layer1
10
2.6132222
20
-6.0540431
11
2.6305297
21
-6.111756
0
LINE
8
layer1
10
2.6305297
20
-6.111756
11
2.6527593
21
-6.2157597
0
LINE
8
layer1
10
2.6527593
20
-6.2157597
11
2.6635331
21
-6.2870598
0
LINE
8
layer1
10
2.6635331
20
-6.2870598
11
2.6722215
21
-6.3670205
0
LINE
8
layer1
10
2.6722215
20
-6.3670205
11
2.6785114
21
-6.4609306
0
LINE
8
layer1
10
2.6785114
20
-6.4609306
11
2.6811364
21
-6.5669436
0
LINE
8
layer1
10
2.6811364
20
-6.5669436
11
2.6791457
21
-6.6835238
0
LINE
8
layer1
10
2.6791457
20
-6.6835238
11
2.671626
21
-6.8111254
0
LINE
8
layer1
10
2.671626
20
-6.8111254
11
2.6576515
21
-6.9497375
0
LINE
8
layer1
10
2.6576515
20
-6.9497375
11
2.636156
21
-7.099735
0
LINE
8
layer1
10
2.636156
20
-7.099735
11
2.6094242
21
-7.2443591
0
ARC
8
layer1
10
-0.0000034
20
0.0000103
40
7.7
50
286.1909403
51
289.8090603
0
LINE
8
layer1
10
2.1470589
20
-7.3945907
11
2.0404245
21
-7.2932999
0
LINE
8
layer1
10
2.0404245
20
-7.2932999
11
1.934868
21
-7.1845841
0
LINE
8
layer1
10
1.934868
20
-7.1845841
11
1.8420882
21
-7.0806586
0
LINE
8
layer1
10
1.8420882
20
-7.0806586
11
1.7610023
21
-6.9818467
0
LINE
8
layer1
10
1.7610023
20
-6.9818467
11
1.6908677
21
-6.8887014
0
LINE
8
layer1
10
1.6908677
20
-6.8887014
11
1.6306785
21
-6.8013921
0
LINE
8
layer1
10
1.6306785
20
-6.8013921
11
1.5805681
21
-6.7217202
0
LINE
8
layer1
10
1.5805681
20
-6.7217202
11
1.5405974
21
-6.6519237
0
LINE
8
layer1
10
1.5405974
20
-6.6519237
11
1.5074045
21
-6.5879081
0
LINE
8
layer1
10
1.5074045
20
-6.5879081
11
1.4642568
21
-6.4907011
0
LINE
8
layer1
10
1.4642568
20
-6.4907011
11
1.4443361
21
-6.4338373
0
LINE
8
layer1
10
1.4443361
20
-6.4338373
11
1.4329211
21
-6.3923218
0
LINE
8
layer1
10
1.4329211
20
-6.3923218
11
1.40639
21
-6.3144333
0
LINE
8
layer1
10
1.40639
20
-6.3144333
11
1.3763603
21
-6.2499977
0
LINE
8
layer1
10
1.3763603
20
-6.2499977
11
1.3603706
21
-6.2228751
0
LINE
8
layer1
10
1.3603706
20
-6.2228751
11
1.3439176
21
-6.1991569
0
LINE
8
layer1
10
1.3439176
20
-6.1991569
11
1.3271264
21
-6.1788638
0
LINE
8
layer1
10
1.3271264
20
-6.1788638
11
1.3101465
21
-6.1619822
0
LINE
8
layer1
10
1.3101465
20
-6.1619822
11
1.2930996
21
-6.1485131
0
LINE
8
layer1
10
1.2930996
20
-6.1485131
11
1.2761286
21
-6.1384642
0
LINE
8
layer1
10
1.2761286
20
-6.1384642
11
1.2593704
21
-6.1318037
0
LINE
8
layer1
10
1.2593704
20
-6.1318037
11
1.242948
21
-6.1285426
0
LINE
8
layer1
10
1.242948
20
-6.1285426
11
1.2270165
21
-6.128636
0
LINE
8
layer1
10
1.2270165
20
-6.128636
11
1.1869092
21
-6.1362843
0
LINE
8
layer1
10
1.1869092
20
-6.1362843
11
0.9777154
21
-6.1730521
0
LINE
8
layer1
10
0.9777154
20
-6.1730521
11
0.7673984
21
-6.2027283
0
LINE
8
layer1
10
0.7673984
20
-6.2027283
11
0.7268906
21
-6.2078482
0
LINE
8
layer1
10
0.7268906
20
-6.2078482
11
0.71171
21
-6.2126825
0
LINE
8
layer1
10
0.71171
20
-6.2126825
11
0.6970992
21
-6.2208588
0
LINE
8
layer1
10
0.6970992
20
-6.2208588
11
0.6832193
21
-6.2323718
0
LINE
8
layer1
10
0.6832193
20
-6.2323718
11
0.6701843
21
-6.2471732
0
LINE
8
layer1
10
0.6701843
20
-6.2471732
11
0.6581339
21
-6.2652508
0
LINE
8
layer1
10
0.6581339
20
-6.2652508
11
0.6472017
21
-6.2865532
0
LINE
8
layer1
10
0.6472017
20
-6.2865532
11
0.6375032
21
-6.3110419
0
LINE
8
layer1
10
0.6375032
20
-6.3110419
11
0.6291849
21
-6.3386835
0
LINE
8
layer1
10
0.6291849
20
-6.3386835
11
0.622359
21
-6.3694197
0
LINE
8
layer1
10
0.622359
20
-6.3694197
11
0.6137108
21
-6.4399813
0
LINE
8
layer1
10
0.6137108
20
-6.4399813
11
0.6125471
21
-6.5222563
0
LINE
8
layer1
10
0.6125471
20
-6.5222563
11
0.6145198
21
-6.5652673
0
LINE
8
layer1
10
0.6145198
20
-6.5652673
11
0.613146
21
-6.6255038
0
LINE
8
layer1
10
0.613146
20
-6.6255038
11
0.6021487
21
-6.7312865
0
LINE
8
layer1
10
0.6021487
20
-6.7312865
11
0.5903622
21
-6.8024262
0
LINE
8
layer1
10
0.5903622
20
-6.8024262
11
0.5739162
21
-6.8811582
0
LINE
8
layer1
10
0.5739162
20
-6.8811582
11
0.5508783
21
-6.9724156
0
LINE
8
layer1
10
0.5508783
20
-6.9724156
11
0.520615
21
-7.0740512
0
LINE
8
layer1
10
0.520615
20
-7.0740512
11
0.4826966
21
-7.1843104
0
LINE
8
layer1
10
0.4826966
20
-7.1843104
11
0.4361138
21
-7.303343
0
LINE
8
layer1
10
0.4361138
20
-7.303343
11
0.3799898
21
-7.4308526
0
LINE
8
layer1
10
0.3799898
20
-7.4308526
11
0.3131946
21
-7.5668662
0
LINE
8
layer1
10
0.3131946
20
-7.5668662
11
0.2430798
21
-7.6961514
0
ARC
8
layer1
10
0
20
0.0000108
40
7.7
50
268.1909401
51
271.8090599
0
LINE
8
layer1
10
-0.2430798
20
-7.6961514
11
-0.3131946
21
-7.5668662
0
LINE
8
layer1
10
-0.3131946
20
-7.5668662
11
-0.3799898
21
-7.4308526
0
LINE
8
layer1
10
-0.3799898
20
-7.4308526
11
-0.4361138
21
-7.303343
0
LINE
8
layer1
10
-0.4361138
20
-7.303343
11
-0.4826966
21
-7.1843104
0
LINE
8
layer1
10
-0.4826966
20
-7.1843104
11
-0.520615
21
-7.0740512
0
LINE
8
layer1
10
-0.520615
20
-7.0740512
11
-0.5508783
21
-6.9724156
0
LINE
8
layer1
10
-0.5508783
20
-6.9724156
11
-0.5739162
21
-6.8811582
0
LINE
8
layer1
10
-0.5739162
20
-6.8811582
11
-0.5903622
21
-6.8024262
0
LINE
8
layer1
10
-0.5903622
20
-6.8024262
11
-0.6021487
21
-6.7312865
0
LINE
8
layer1
10
-0.6021487
20
-6.7312865
11
-0.613146
21
-6.6255038
0
LINE
8
layer1
10
-0.613146
20
-6.6255038
11
-0.6145198
21
-6.5652673
0
LINE
8
layer1
10
-0.6145198
20
-6.5652673
11
-0.6125471
21
-6.5222563
0
LINE
8
layer1
10
-0.6125471
20
-6.5222563
11
-0.6137108
21
-6.4399813
0
LINE
8
layer1
10
-0.6137108
20
-6.4399813
11
-0.622359
21
-6.3694197
0
LINE
8
layer1
10
-0.622359
20
-6.3694197
11
-0.6291849
21
-6.3386835
0
LINE
8
layer1
10
-0.6291849
20
-6.3386835
11
-0.6375032
21
-6.3110419
0
LINE
8
layer1
10
-0.6375032
20
-6.3110419
11
-0.6472017
21
-6.2865532
0
LINE
8
layer1
10
-0.6472017
20
-6.2865532
11
-0.6581339
21
-6.2652508
0
LINE
8
layer1
10
-0.6581339
20
-6.2652508
11
-0.6701843
21
-6.2471732
0
LINE
8
layer1
10
-0.6701843
20
-6.2471732
11
-0.6832193
21
-6.2323718
0
LINE
8
layer1
10
-0.6832193
20
-6.2323718
11
-0.6970992
21
-6.2208588
0
LINE
8
layer1
10
-0.6970992
20
-6.2208588
11
-0.71171
21
-6.2126825
0
LINE
8
layer1
10
-0.71171
20
-6.2126825
11
-0.7268906
21
-6.2078482
0
LINE
8
layer1
10
-0.7268906
20
-6.2078482
11
-0.7673984
21
-6.2027283
0
LINE
8
layer1
10
-0.7673984
20
-6.2027283
11
-0.9777154
21
-6.1730521
0
LINE
8
layer1
10
-0.9777154
20
-6.1730521
11
-1.1869092
21
-6.1362843
0
LINE
8
layer1
10
-1.1869092
20
-6.1362843
11
-1.2270165
21
-6.128636
0
LINE
8
layer1
10
-1.2270165
20
-6.128636
11
-1.242948
21
-6.1285426
0
LINE
8
layer1
10
-1.242948
20
-6.1285426
11
-1.2593704
21
-6.1318037
0
LINE
8
layer1
10
-1.2593704
20
-6.1318037
11
-1.2761286
21
-6.1384642
0
LINE
8
layer1
10
-1.2761286
20
-6.1384642
11
-1.2930996
21
-6.1485131
0
LINE
8
layer1
10
-1.2930996
20
-6.1485131
11
-1.3101465
21
-6.1619822
0
LINE
8
layer1
10
-1.3101465
20
-6.1619822
11
-1.3271264
21
-6.1788638
0
LINE
8
layer1
10
-1.3271264
20
-6.1788638
11
-1.3439176
21
-6.1991569
0
LINE
8
layer1
10
-1.3439176
20
-6.1991569
11
-1.3603706
21
-6.2228751
0
LINE
8
layer1
10
-1.3603706
20
-6.2228751
11
-1.3763603
21
-6.2499977
0
LINE
8
layer1
10
-1.3763603
20
-6.2499977
11
-1.40639
21
-6.3144333
0
LINE
8
layer1
10
-1.40639
20
-6.3144333
11
-1.4329211
21
-6.3923218
0
LINE
8
layer1
10
-1.4329211
20
-6.3923218
11
-1.4443361
21
-6.4338373
0
LINE
8
layer1
10
-1.4443361
20
-6.4338373
11
-1.4642568
21
-6.4907011
0
LINE
8
layer1
10
-1.4642568
20
-6.4907011
11
-1.5074045
21
-6.5879081
0
LINE
8
layer1
10
-1.5074045
20
-6.5879081
11
-1.5405974
21
-6.6519237
0
LINE
8
layer1
10
-1.5405974
20
-6.6519237
11
-1.5805681
21
-6.7217202
0
LINE
8
layer1
10
-1.5805681
20
-6.7217202
11
-1.6306785
21
-6.8013921
0
LINE
8
layer1
10
-1.6306785
20
-6.8013921
11
-1.6908677
21
-6.8887014
0
LINE
8
layer1
10
-1.6908677
20
-6.8887014
11
-1.7610023
21
-6.9818467
0
LINE
8
layer1
10
-1.7610023
20
-6.9818467
11
-1.8420882
21
-7.0806586
0
LINE
8
layer1
10
-1.8420882
20
-7.0806586
11
-1.934868
21
-7.1845841
0
LINE
8
layer1
10
-1.934868
20
-7.1845841
11
-2.0404245
21
-7.2932999
0
LINE
8
layer1
10
-2.0404245
20
-7.2932999
11
-2.1470589
21
-7.3945907
0
ARC
8
layer1
10
0.0000035
20
0.0000102
40
7.7
50
250.1909387
51
253.8090588
0
LINE
8
layer1
10
-2.6094242
20
-7.2443591
11
-2.636156
21
-7.099735
0
LINE
8
layer1
10
-2.636156
20
-7.099735
11
-2.6576515
21
-6.9497375
0
LINE
8
layer1
10
-2.6576515
20
-6.9497375
11
-2.671626
21
-6.8111254
0
LINE
8
layer1
10
-2.671626
20
-6.8111254
11
-2.6791457
21
-6.6835238
0
LINE
8
layer1
10
-2.6791457
20
-6.6835238
11
-2.6811364
21
-6.5669436
0
LINE
8
layer1
10
-2.6811364
20
-6.5669436
11
-2.6785114
21
-6.4609306
0
LINE
8
layer1
10
-2.6785114
20
-6.4609306
11
-2.6722215
21
-6.3670205
0
LINE
8
layer1
10
-2.6722215
20
-6.3670205
11
-2.6635331
21
-6.2870598
0
LINE
8
layer1
10
-2.6635331
20
-6.2870598
11
-2.6527593
21
-6.2157597
0
LINE
8
layer1
10
-2.6527593
20
-6.2157597
11
-2.6305297
21
-6.111756
0
LINE
8
layer1
10
-2.6305297
20
-6.111756
11
-2.6132222
21
-6.0540431
0
LINE
8
layer1
10
-2.6132222
20
-6.0540431
11
-2.598055
21
-6.0137469
0
LINE
8
layer1
10
-2.598055
20
-6.0137469
11
-2.5737374
21
-5.9351391
0
LINE
8
layer1
10
-2.5737374
20
-5.9351391
11
-2.5601576
21
-5.8653586
0
LINE
8
layer1
10
-2.5601576
20
-5.8653586
11
-2.5571513
21
-5.8340174
0
LINE
8
layer1
10
-2.5571513
20
-5.8340174
11
-2.5565208
21
-5.8051582
0
LINE
8
layer1
10
-2.5565208
20
-5.8051582
11
-2.5581772
21
-5.7788711
0
LINE
8
layer1
10
-2.5581772
20
-5.7788711
11
-2.5619915
21
-5.7552331
0
LINE
8
layer1
10
-2.5619915
20
-5.7552331
11
-2.5678658
21
-5.7343164
0
LINE
8
layer1
10
-2.5678658
20
-5.7343164
11
-2.575689
21
-5.7162114
0
LINE
8
layer1
10
-2.575689
20
-5.7162114
11
-2.5853318
21
-5.7009728
0
LINE
8
layer1
10
-2.5853318
20
-5.7009728
11
-2.5967009
21
-5.6886817
0
LINE
8
layer1
10
-2.5967009
20
-5.6886817
11
-2.6096447
21
-5.6793929
0
LINE
8
layer1
10
-2.6096447
20
-5.6793929
11
-2.6465877
21
-5.662006
0
LINE
8
layer1
10
-2.6465877
20
-5.662006
11
-2.8374406
21
-5.5687908
0
LINE
8
layer1
10
-2.8374406
20
-5.5687908
11
-3.0250339
21
-5.4691781
0
LINE
8
layer1
10
-3.0250339
20
-5.4691781
11
-3.0608147
21
-5.4495103
0
LINE
8
layer1
10
-3.0608147
20
-5.4495103
11
-3.0759377
21
-5.4444983
0
LINE
8
layer1
10
-3.0759377
20
-5.4444983
11
-3.092564
21
-5.4425251
0
LINE
8
layer1
10
-3.092564
20
-5.4425251
11
-3.1105602
21
-5.4436809
0
LINE
8
layer1
10
-3.1105602
20
-5.4436809
11
-3.1298058
21
-5.4479937
0
LINE
8
layer1
10
-3.1298058
20
-5.4479937
11
-3.1501805
21
-5.4555358
0
LINE
8
layer1
10
-3.1501805
20
-5.4555358
11
-3.1715461
21
-5.466344
0
LINE
8
layer1
10
-3.1715461
20
-5.466344
11
-3.1937865
21
-5.4804551
0
LINE
8
layer1
10
-3.1937865
20
-5.4804551
11
-3.2167634
21
-5.4979283
0
LINE
8
layer1
10
-3.2167634
20
-5.4979283
11
-3.2403519
21
-5.5187823
0
LINE
8
layer1
10
-3.2403519
20
-5.5187823
11
-3.2888236
21
-5.5707845
0
LINE
8
layer1
10
-3.2888236
20
-5.5707845
11
-3.338125
21
-5.6366624
0
LINE
8
layer1
10
-3.338125
20
-5.6366624
11
-3.3618103
21
-5.6726185
0
LINE
8
layer1
10
-3.3618103
20
-5.6726185
11
-3.3983279
21
-5.7205433
0
LINE
8
layer1
10
-3.3983279
20
-5.7205433
11
-3.4694024
21
-5.7996593
0
LINE
8
layer1
10
-3.4694024
20
-5.7996593
11
-3.5207527
21
-5.8502846
0
LINE
8
layer1
10
-3.5207527
20
-5.8502846
11
-3.5803354
21
-5.9043134
0
LINE
8
layer1
10
-3.5803354
20
-5.9043134
11
-3.6526132
21
-5.9646009
0
LINE
8
layer1
10
-3.6526132
20
-5.9646009
11
-3.7368365
21
-6.0290375
0
LINE
8
layer1
10
-3.7368365
20
-6.0290375
11
-3.832322
21
-6.0959511
0
LINE
8
layer1
10
-3.832322
20
-6.0959511
11
-3.9399738
21
-6.1648699
0
LINE
8
layer1
10
-3.9399738
20
-6.1648699
11
-4.0603274
21
-6.2350384
0
LINE
8
layer1
10
-4.0603274
20
-6.2350384
11
-4.1943126
21
-6.3058146
0
LINE
8
layer1
10
-4.1943126
20
-6.3058146
11
-4.3270286
21
-6.369196
0
ARC
8
layer1
10
0.0000057
20
0.0000091
40
7.7
50
232.1909457
51
235.8090654
0
LINE
8
layer1
10
-4.72034
20
-6.0834385
11
-4.7010722
21
-5.9376322
0
LINE
8
layer1
10
-4.7010722
20
-5.9376322
11
-4.6751638
21
-5.7883337
0
LINE
8
layer1
10
-4.6751638
20
-5.7883337
11
-4.6456208
21
-5.6521873
0
LINE
8
layer1
10
-4.6456208
20
-5.6521873
11
-4.6133414
21
-5.5285073
0
LINE
8
layer1
10
-4.6133414
20
-5.5285073
11
-4.5792094
21
-5.4170178
0
LINE
8
layer1
10
-4.5792094
20
-5.4170178
11
-4.543953
21
-5.3170046
0
LINE
8
layer1
10
-4.543953
20
-5.3170046
11
-4.5089512
21
-5.2296345
0
LINE
8
layer1
10
-4.5089512
20
-5.2296345
11
-4.4759789
21
-5.1562721
0
LINE
8
layer1
10
-4.4759789
20
-5.1562721
11
-4.4436994
21
-5.0917911
0
LINE
8
layer1
10
-4.4436994
20
-5.0917911
11
-4.3904189
21
-4.999747
0
LINE
8
layer1
10
-4.3904189
20
-4.999747
11
-4.3561243
21
-4.9502071
0
LINE
8
layer1
10
-4.3561243
20
-4.9502071
11
-4.3292471
21
-4.91657
0
LINE
8
layer1
10
-4.3292471
20
-4.91657
11
-4.2818285
21
-4.8493242
0
LINE
8
layer1
10
-4.2818285
20
-4.8493242
11
-4.24735
21
-4.7871553
0
LINE
8
layer1
10
-4.24735
20
-4.7871553
11
-4.2348059
21
-4.7582771
0
LINE
8
layer1
10
-4.2348059
20
-4.7582771
11
-4.2252883
21
-4.7310252
0
LINE
8
layer1
10
-4.2252883
20
-4.7310252
11
-4.2187405
21
-4.7055128
0
LINE
8
layer1
10
-4.2187405
20
-4.7055128
11
-4.2150635
21
-4.681853
0
LINE
8
layer1
10
-4.2150635
20
-4.681853
11
-4.2141867
21
-4.6601448
0
LINE
8
layer1
10
-4.2141867
20
-4.6601448
11
-4.2160323
21
-4.6405085
0
LINE
8
layer1
10
-4.2160323
20
-4.6405085
11
-4.2204941
21
-4.6230359
0
LINE
8
layer1
10
-4.2204941
20
-4.6230359
11
-4.2275086
21
-4.6078331
0
LINE
8
layer1
10
-4.2275086
20
-4.6078331
11
-4.2369485
21
-4.5949991
0
LINE
8
layer1
10
-4.2369485
20
-4.5949991
11
-4.2667106
21
-4.5670471
0
LINE
8
layer1
10
-4.2667106
20
-4.5670471
11
-4.4194174
21
-4.4194174
0
LINE
8
layer1
10
-4.4194174
20
-4.4194174
11
-4.5670471
21
-4.2667106
0
LINE
8
layer1
10
-4.5670471
20
-4.2667106
11
-4.5949991
21
-4.2369485
0
LINE
8
layer1
10
-4.5949991
20
-4.2369485
11
-4.6078331
21
-4.2275086
0
LINE
8
layer1
10
-4.6078331
20
-4.2275086
11
-4.6230359
21
-4.2204941
0
LINE
8
layer1
10
-4.6230359
20
-4.2204941
11
-4.6405085
21
-4.2160323
0
LINE
8
layer1
10
-4.6405085
20
-4.2160323
11
-4.6601448
21
-4.2141867
0
LINE
8
layer1
10
-4.6601448
20
-4.2141867
11
-4.681853
21
-4.2150635
0
LINE
8
layer1
10
-4.681853
20
-4.2150635
11
-4.7055128
21
-4.2187405
0
LINE
8
layer1
10
-4.7055128
20
-4.2187405
11
-4.7310252
21
-4.2252883
0
LINE
8
layer1
10
-4.7310252
20
-4.2252883
11
-4.7582771
21
-4.2348059
0
LINE
8
layer1
10
-4.7582771
20
-4.2348059
11
-4.7871553
21
-4.24735
0
LINE
8
layer1
10
-4.7871553
20
-4.24735
11
-4.8493242
21
-4.2818285
0
LINE
8
layer1
10
-4.8493242
20
-4.2818285
11
-4.91657
21
-4.3292471
0
LINE
8
layer1
10
-4.91657
20
-4.3292471
11
-4.9502071
21
-4.3561243
0
LINE
8
layer1
10
-4.9502071
20
-4.3561243
11
-4.999747
21
-4.3904189
0
LINE
8
layer1
10
-4.999747
20
-4.3904189
11
-5.0917911
21
-4.4436994
0
LINE
8
layer1
10
-5.0917911
20
-4.4436994
11
-5.1562721
21
-4.4759789
0
LINE
8
layer1
10
-5.1562721
20
-4.4759789
11
-5.2296345
21
-4.5089512
0
LINE
8
layer1
10
-5.2296345
20
-4.5089512
11
-5.3170046
21
-4.543953
0
LINE
8
layer1
10
-5.3170046
20
-4.543953
11
-5.4170178
21
-4.5792094
0
LINE
8
layer1
10
-5.4170178
20
-4.5792094
11
-5.5285073
21
-4.6133414
0
LINE
8
layer1
10
-5.5285073
20
-4.6133414
11
-5.6521873
21
-4.6456208
0
LINE
8
layer1
10
-5.6521873
20
-4.6456208
11
-5.7883337
21
-4.6751638
0
LINE
8
layer1
10
-5.7883337
20
-4.6751638
11
-5.9376322
21
-4.7010722
0
LINE
8
layer1
10
-5.9376322
20
-4.7010722
11
-6.0834385
21
-4.72034
0
ARC
8
layer1
10
0.0000092
20
0.0000057
40
7.7
50
214.1909346
51
217.8090543
0
LINE
8
layer1
10
-6.369196
20
-4.3270286
11
-6.3058146
21
-4.1943126
0
LINE
8
layer1
10
-6.3058146
20
-4.1943126
11
-6.2350384
21
-4.0603274
0
LINE
8
layer1
10
-6.2350384
20
-4.0603274
11
-6.1648699
21
-3.9399738
0
LINE
8
layer1
10
-6.1648699
20
-3.9399738
11
-6.0959511
21
-3.832322
0
LINE
8
layer1
10
-6.0959511
20
-3.832322
11
-6.0290375
21
-3.7368365
0
LINE
8
layer1
10
-6.0290375
20
-3.7368365
11
-5.9646009
21
-3.6526132
0
LINE
8
layer1
10
-5.9646009
20
-3.6526132
11
-5.9043134
21
-3.5803354
0
LINE
8
layer1
10
-5.9043134
20
-3.5803354
11
-5.8502846
21
-3.5207527
0
LINE
8
layer1
10
-5.8502846
20
-3.5207527
11
-5.7996593
21
-3.4694024
0
LINE
8
layer1
10
-5.7996593
20
-3.4694024
11
-5.7205433
21
-3.3983279
0
LINE
8
layer1
10
-5.7205433
20
-3.3983279
11
-5.6726185
21
-3.3618103
0
LINE
8
layer1
10
-5.6726185
20
-3.3618103
11
-5.6366624
21
-3.338125
0
LINE
8
layer1
10
-5.6366624
20
-3.338125
11
-5.5707845
21
-3.2888236
0
LINE
8
layer1
10
-5.5707845
20
-3.2888236
11
-5.5187823
21
-3.2403519
0
LINE
8
layer1
10
-5.5187823
20
-3.2403519
11
-5.4979283
21
-3.2167634
0
LINE
8
layer1
10
-5.4979283
20
-3.2167634
11
-5.4804551
21
-3.1937865
0
LINE
8
layer1
10
-5.4804551
20
-3.1937865
11
-5.466344
21
-3.1715461
0
LINE
8
layer1
10
-5.466344
20
-3.1715461
11
-5.4555358
21
-3.1501805
0
LINE
8
layer1
10
-5.4555358
20
-3.1501805
11
-5.4479937
21
-3.1298058
0
LINE
8
layer1
10
-5.4479937
20
-3.1298058
11
-5.4436809
21
-3.1105602
0
LINE
8
layer1
10
-5.4436809
20
-3.1105602
11
-5.4425251
21
-3.092564
0
LINE
8
layer1
10
-5.4425251
20
-3.092564
11
-5.4444983
21
-3.0759377
0
LINE
8
layer1
10
-5.4444983
20
-3.0759377
11
-5.4495103
21
-3.0608147
0
LINE
8
layer1
10
-5.4495103
20
-3.0608147
11
-5.4691781
21
-3.0250339
0
LINE
8
layer1
10
-5.4691781
20
-3.0250339
11
-5.5687908
21
-2.8374406
0
LINE
8
layer1
10
-5.5687908
20
-2.8374406
11
-5.662006
21
-2.6465877
0
LINE
8
layer1
10
-5.662006
20
-2.6465877
11
-5.6793929
21
-2.6096447
0
LINE
8
layer1
10
-5.6793929
20
-2.6096447
11
-5.6886817
21
-2.5967009
0
LINE
8
layer1
10
-5.6886817
20
-2.5967009
11
-5.7009728
21
-2.5853318
0
LINE
8
layer1
10
-5.7009728
20
-2.5853318
11
-5.7162114
21
-2.575689
0
LINE
8
layer1
10
-5.7162114
20
-2.575689
11
-5.7343164
21
-2.5678658
0
LINE
8
layer1
10
-5.7343164
20
-2.5678658
11
-5.7552331
21
-2.5619915
0
LINE
8
layer1
10
-5.7552331
20
-2.5619915
11
-5.7788711
21
-2.5581772
0
LINE
8
layer1
10
-5.7788711
20
-2.5581772
11
-5.8051582
21
-2.5565208
0
LINE
8
layer1
10
-5.8051582
20
-2.5565208
11
-5.8340174
21
-2.5571513
0
LINE
8
layer1
10
-5.8340174
20
-2.5571513
11
-5.8653586
21
-2.5601576
0
LINE
8
layer1
10
-5.8653586
20
-2.5601576
11
-5.9351391
21
-2.5737374
0
LINE
8
layer1
10
-5.9351391
20
-2.5737374
11
-6.0137469
21
-2.598055
0
LINE
8
layer1
10
-6.0137469
20
-2.598055
11
-6.0540431
21
-2.6132222
0
LINE
8
layer1
10
-6.0540431
20
-2.6132222
11
-6.111756
21
-2.6305297
0
LINE
8
layer1
10
-6.111756
20
-2.6305297
11
-6.2157597
21
-2.6527593
0
LINE
8
layer1
10
-6.2157597
20
-2.6527593
11
-6.2870598
21
-2.6635331
0
LINE
8
layer1
10
-6.2870598
20
-2.6635331
11
-6.3670205
21
-2.6722215
0
LINE
8
layer1
10
-6.3670205
20
-2.6722215
11
-6.4609306
21
-2.6785114
0
LINE
8
layer1
10
-6.4609306
20
-2.6785114
11
-6.5669436
21
-2.6811364
0
LINE
8
layer1
10
-6.5669436
20
-2.6811364
11
-6.6835238
21
-2.6791457
0
LINE
8
layer1
10
-6.6835238
20
-2.6791457
11
-6.8111254
21
-2.671626
0
LINE
8
layer1
10
-6.8111254
20
-2.671626
11
-6.9497375
21
-2.6576515
0
LINE
8
layer1
10
-6.9497375
20
-2.6576515
11
-7.099735
21
-2.636156
0
LINE
8
layer1
10
-7.099735
20
-2.636156
11
-7.2443591
21
-2.6094242
0
ARC
8
layer1
10
0.0000103
20
0.0000034
40
7.7
50
196.1909403
51
199.8090603
0
LINE
8
layer1
10
-7.3945907
20
-2.1470589
11
-7.2932999
21
-2.0404245
0
LINE
8
layer1
10
-7.2932999
20
-2.0404245
11
-7.1845841
21
-1.934868
0
LINE
8
layer1
10
-7.1845841
20
-1.934868
11
-7.0806586
21
-1.8420882
0
LINE
8
layer1
10
-7.0806586
20
-1.8420882
11
-6.9818467
21
-1.7610023
0
LINE
8
layer1
10
-6.9818467
20
-1.7610023
11
-6.8887014
21
-1.6908677
0
LINE
8
layer1
10
-6.8887014
20
-1.6908677
11
-6.8013921
21
-1.6306785
0
LINE
8
layer1
10
-6.8013921
20
-1.6306785
11
-6.7217202
21
-1.5805681
0
LINE
8
layer1
10
-6.7217202
20
-1.5805681
11
-6.6519237
21
-1.5405974
0
LINE
8
layer1
10
-6.6519237
20
-1.5405974
11
-6.5879081
21
-1.5074045
0
LINE
8
layer1
10
-6.5879081
20
-1.5074045
11
-6.4907011
21
-1.4642568
0
LINE
8
layer1
10
-6.4907011
20
-1.4642568
11
-6.4338373
21
-1.4443361
0
LINE
8
layer1
10
-6.4338373
20
-1.4443361
11
-6.3923218
21
-1.4329211
0
LINE
8
layer1
10
-6.3923218
20
-1.4329211
11
-6.3144333
21
-1.40639
0
LINE
8
layer1
10
-6.3144333
20
-1.40639
11
-6.2499977
21
-1.3763603
0
LINE
8
layer1
10
-6.2499977
20
-1.3763603
11
-6.2228751
21
-1.3603706
0
LINE
8
layer1
10
-6.2228751
20
-1.3603706
11
-6.1991569
21
-1.3439176
0
LINE
8
layer1
10
-6.1991569
20
-1.3439176
11
-6.1788638
21
-1.3271264
0
LINE
8
layer1
10
-6.1788638
20
-1.3271264
11
-6.1619822
21
-1.3101465
0
LINE
8
layer1
10
-6.1619822
20
-1.3101465
11
-6.1485131
21
-1.2930996
0
LINE
8
layer1
10
-6.1485131
20
-1.2930996
11
-6.1384642
21
-1.2761286
0
LINE
8
layer1
10
-6.1384642
20
-1.2761286
11
-6.1318037
21
-1.2593704
0
LINE
8
layer1
10
-6.1318037
20
-1.2593704
11
-6.1285426
21
-1.242948
0
LINE
8
layer1
10
-6.1285426
20
-1.242948
11
-6.128636
21
-1.2270165
0
LINE
8
layer1
10
-6.128636
20
-1.2270165
11
-6.1362843
21
-1.1869092
0
LINE
8
layer1
10
-6.1362843
20
-1.1869092
11
-6.1730521
21
-0.9777154
0
LINE
8
layer1
10
-6.1730521
20
-0.9777154
11
-6.2027283
21
-0.7673984
0
LINE
8
layer1
10
-6.2027283
20
-0.7673984
11
-6.2078482
21
-0.7268906
0
LINE
8
layer1
10
-6.2078482
20
-0.7268906
11
-6.2126825
21
-0.71171
0
LINE
8
layer1
10
-6.2126825
20
-0.71171
11
-6.2208588
21
-0.6970992
0
LINE
8
layer1
10
-6.2208588
20
-0.6970992
11
-6.2323718
21
-0.6832193
0
LINE
8
layer1
10
-6.2323718
20
-0.6832193
11
-6.2471732
21
-0.6701843
0
LINE
8
layer1
10
-6.2471732
20
-0.6701843
11
-6.2652508
21
-0.6581339
0
LINE
8
layer1
10
-6.2652508
20
-0.6581339
11
-6.2865532
21
-0.6472017
0
LINE
8
layer1
10
-6.2865532
20
-0.6472017
11
-6.3110419
21
-0.6375032
0
LINE
8
layer1
10
-6.3110419
20
-0.6375032
11
-6.3386835
21
-0.6291849
0
LINE
8
layer1
10
-6.3386835
20
-0.6291849
11
-6.3694197
21
-0.622359
0
LINE
8
layer1
10
-6.3694197
20
-0.622359
11
-6.4399813
21
-0.6137108
0
LINE
8
layer1
10
-6.4399813
20
-0.6137108
11
-6.5222563
21
-0.6125471
0
LINE
8
layer1
10
-6.5222563
20
-0.6125471
11
-6.5652673
21
-0.6145198
0
LINE
8
layer1
10
-6.5652673
20
-0.6145198
11
-6.6255038
21
-0.613146
0
LINE
8
layer1
10
-6.6255038
20
-0.613146
11
-6.7312865
21
-0.6021487
0
LINE
8
layer1
10
-6.7312865
20
-0.6021487
11
-6.8024262
21
-0.5903622
0
LINE
8
layer1
10
-6.8024262
20
-0.5903622
11
-6.8811582
21
-0.5739162
0
LINE
8
layer1
10
-6.8811582
20
-0.5739162
11
-6.9724156
21
-0.5508783
0
LINE
8
layer1
10
-6.9724156
20
-0.5508783
11
-7.0740512
21
-0.520615
0
LINE
8
layer1
10
-7.0740512
20
-0.520615
11
-7.1843104
21
-0.4826966
0
LINE
8
layer1
10
-7.1843104
20
-0.4826966
11
-7.303343
21
-0.4361138
0
LINE
8
layer1
10
-7.303343
20
-0.4361138
11
-7.4308526
21
-0.3799898
0
LINE
8
layer1
10
-7.4308526
20
-0.3799898
11
-7.5668662
21
-0.3131946
0
LINE
8
layer1
10
-7.5668662
20
-0.3131946
11
-7.6961514
21
-0.2430798
0
ARC
8
layer1
10
0.0000108
20
0
40
7.7
50
178.1909401
51
181.8090599
0
LINE
8
layer1
10
-7.6961514
20
0.2430798
11
-7.5668662
21
0.3131946
0
LINE
8
layer1
10
-7.5668662
20
0.3131946
11
-7.4308526
21
0.3799898
0
LINE
8
layer1
10
-7.4308526
20
0.3799898
11
-7.303343
21
0.4361138
0
LINE
8
layer1
10
-7.303343
20
0.4361138
11
-7.1843104
21
0.4826966
0
LINE
8
layer1
10
-7.1843104
20
0.4826966
11
-7.0740512
21
0.520615
0
LINE
8
layer1
10
-7.0740512
20
0.520615
11
-6.9724156
21
0.5508783
0
LINE
8
layer1
10
-6.9724156
20
0.5508783
11
-6.8811582
21
0.5739162
0
LINE
8
layer1
10
-6.8811582
20
0.5739162
11
-6.8024262
21
0.5903622
0
LINE
8
layer1
10
-6.8024262
20
0.5903622
11
-6.7312865
21
0.6021487
0
LINE
8
layer1
10
-6.7312865
20
0.6021487
11
-6.6255038
21
0.613146
0
LINE
8
layer1
10
-6.6255038
20
0.613146
11
-6.5652673
21
0.6145198
0
LINE
8
layer1
10
-6.5652673
20
0.6145198
11
-6.5222563
21
0.6125471
0
LINE
8
layer1
10
-6.5222563
20
0.6125471
11
-6.4399813
21
0.6137108
0
LINE
8
layer1
10
-6.4399813
20
0.6137108
11
-6.3694197
21
0.622359
0
LINE
8
layer1
10
-6.3694197
20
0.622359
11
-6.3386835
21
0.6291849
0
LINE
8
layer1
10
-6.3386835
20
0.6291849
11
-6.3110419
21
0.6375032
0
LINE
8
layer1
10
-6.3110419
20
0.6375032
11
-6.2865532
21
0.6472017
0
LINE
8
layer1
10
-6.2865532
20
0.6472017
11
-6.2652508
21
0.6581339
0
LINE
8
layer1
10
-6.2652508
20
0.6581339
11
-6.2471732
21
0.6701843
0
LINE
8
layer1
10
-6.2471732
20
0.6701843
11
-6.2323718
21
0.6832193
0
LINE
8
layer1
10
-6.2323718
20
0.6832193
11
-6.2208588
21
0.6970992
0
LINE
8
layer1
10
-6.2208588
20
0.6970992
11
-6.2126825
21
0.71171
0
LINE
8
layer1
10
-6.2126825
20
0.71171
11
-6.2078482
21
0.7268906
0
LINE
8
layer1
10
-6.2078482
20
0.7268906
11
-6.2027283
21
0.7673984
0
LINE
8
layer1
10
-6.2027283
20
0.7673984
11
-6.1730521
21
0.9777154
0
LINE
8
layer1
10
-6.1730521
20
0.9777154
11
-6.1362843
21
1.1869092
0
LINE
8
layer1
10
-6.1362843
20
1.1869092
11
-6.128636
21
1.2270165
0
LINE
8
layer1
10
-6.128636
20
1.2270165
11
-6.1285426
21
1.242948
0
LINE
8
layer1
10
-6.1285426
20
1.242948
11
-6.1318037
21
1.2593704
0
LINE
8
layer1
10
-6.1318037
20
1.2593704
11
-6.1384642
21
1.2761286
0
LINE
8
layer1
10
-6.1384642
20
1.2761286
11
-6.1485131
21
1.2930996
0
LINE
8
layer1
10
-6.1485131
20
1.2930996
11
-6.1619822
21
1.3101465
0
LINE
8
layer1
10
-6.1619822
20
1.3101465
11
-6.1788638
21
1.3271264
0
LINE
8
layer1
10
-6.1788638
20
1.3271264
11
-6.1991569
21
1.3439176
0
LINE
8
layer1
10
-6.1991569
20
1.3439176
11
-6.2228751
21
1.3603706
0
LINE
8
layer1
10
-6.2228751
20
1.3603706
11
-6.2499977
21
1.3763603
0
LINE
8
layer1
10
-6.2499977
20
1.3763603
11
-6.3144333
21
1.40639
0
LINE
8
layer1
10
-6.3144333
20
1.40639
11
-6.3923218
21
1.4329211
0
LINE
8
layer1
10
-6.3923218
20
1.4329211
11
-6.4338373
21
1.4443361
0
LINE
8
layer1
10
-6.4338373
20
1.4443361
11
-6.4907011
21
1.4642568
0
LINE
8
layer1
10
-6.4907011
20
1.4642568
11
-6.5879081
21
1.5074045
0
LINE
8
layer1
10
-6.5879081
20
1.5074045
11
-6.6519237
21
1.5405974
0
LINE
8
layer1
10
-6.6519237
20
1.5405974
11
-6.7217202
21
1.5805681
0
LINE
8
layer1
10
-6.7217202
20
1.5805681
11
-6.8013921
21
1.6306785
0
LINE
8
layer1
10
-6.8013921
20
1.6306785
11
-6.8887014
21
1.6908677
0
LINE
8
layer1
10
-6.8887014
20
1.6908677
11
-6.9818467
21
1.7610023
0
LINE
8
layer1
10
-6.9818467
20
1.7610023
11
-7.0806586
21
1.8420882
0
LINE
8
layer1
10
-7.0806586
20
1.8420882
11
-7.1845841
21
1.934868
0
LINE
8
layer1
10
-7.1845841
20
1.934868
11
-7.2932999
21
2.0404245
0
LINE
8
layer1
10
-7.2932999
20
2.0404245
11
-7.3945907
21
2.1470589
0
ARC
8
layer1
10
0.0000102
20
-0.0000035
40
7.7
50
160.1909387
51
163.8090588
0
LINE
8
layer1
10
-7.2443591
20
2.6094242
11
-7.099735
21
2.636156
0
LINE
8
layer1
10
-7.099735
20
2.636156
11
-6.9497375
21
2.6576515
0
LINE
8
layer1
10
-6.9497375
20
2.6576515
11
-6.8111254
21
2.671626
0
LINE
8
layer1
10
-6.8111254
20
2.671626
11
-6.6835238
21
2.6791457
0
LINE
8
layer1
10
-6.6835238
20
2.6791457
11
-6.5669436
21
2.6811364
0
LINE
8
layer1
10
-6.5669436
20
2.6811364
11
-6.4609306
21
2.6785114
0
LINE
8
layer1
10
-6.4609306
20
2.6785114
11
-6.3670205
21
2.6722215
0
LINE
8
layer1
10
-6.3670205
20
2.6722215
11
-6.2870598
21
2.6635331
0
LINE
8
layer1
10
-6.2870598
20
2.6635331
11
-6.2157597
21
2.6527593
0
LINE
8
layer1
10
-6.2157597
20
2.6527593
11
-6.111756
21
2.6305297
0
LINE
8
layer1
10
-6.111756
20
2.6305297
11
-6.0540431
21
2.6132222
0
LINE
8
layer1
10
-6.0540431
20
2.6132222
11
-6.0137469
21
2.598055
0
LINE
8
layer1
10
-6.0137469
20
2.598055
11
-5.9351391
21
2.5737374
0
LINE
8
layer1
10
-5.9351391
20
2.5737374
11
-5.8653586
21
2.5601576
0
LINE
8
layer1
10
-5.8653586
20
2.5601576
11
-5.8340174
21
2.5571513
0
LINE
8
layer1
10
-5.8340174
20
2.5571513
11
-5.8051582
21
2.5565208
0
LINE
8
layer1
10
-5.8051582
20
2.5565208
11
-5.7788711
21
2.5581772
0
LINE
8
layer1
10
-5.7788711
20
2.5581772
11
-5.7552331
21
2.5619915
0
LINE
8
layer1
10
-5.7552331
20
2.5619915
11
-5.7343164
21
2.5678658
0
LINE
8
layer1
10
-5.7343164
20
2.5678658
11
-5.7162114
21
2.575689
0
LINE
8
layer1
10
-5.7162114
20
2.575689
11
-5.7009728
21
2.5853318
0
LINE
8
layer1
10
-5.7009728
20
2.5853318
11
-5.6886817
21
2.5967009
0
LINE
8
layer1
10
-5.6886817
20
2.5967009
11
-5.6793929
21
2.6096447
0
LINE
8
layer1
10
-5.6793929
20
2.6096447
11
-5.662006
21
2.6465877
0
LINE
8
layer1
10
-5.662006
20
2.6465877
11
-5.5687908
21
2.8374406
0
LINE
8
layer1
10
-5.5687908
20
2.8374406
11
-5.4691781
21
3.0250339
0
LINE
8
layer1
10
-5.4691781
20
3.0250339
11
-5.4495103
21
3.0608147
0
LINE
8
layer1
10
-5.4495103
20
3.0608147
11
-5.4444983
21
3.0759377
0
LINE
8
layer1
10
-5.4444983
20
3.0759377
11
-5.4425251
21
3.092564
0
LINE
8
layer1
10
-5.4425251
20
3.092564
11
-5.4436809
21
3.1105602
0
LINE
8
layer1
10
-5.4436809
20
3.1105602
11
-5.4479937
21
3.1298058
0
LINE
8
layer1
10
-5.4479937
20
3.1298058
11
-5.4555358
21
3.1501805
0
LINE
8
layer1
10
-5.4555358
20
3.1501805
11
-5.466344
21
3.1715461
0
LINE
8
layer1
10
-5.466344
20
3.1715461
11
-5.4804551
21
3.1937865
0
LINE
8
layer1
10
-5.4804551
20
3.1937865
11
-5.4979283
21
3.2167634
0
LINE
8
layer1
10
-5.4979283
20
3.2167634
11
-5.5187823
21
3.2403519
0
LINE
8
layer1
10
-5.5187823
20
3.2403519
11
-5.5707845
21
3.2888236
0
LINE
8
layer1
10
-5.5707845
20
3.2888236
11
-5.6366624
21
3.338125
0
LINE
8
layer1
10
-5.6366624
20
3.338125
11
-5.6726185
21
3.3618103
0
LINE
8
layer1
10
-5.6726185
20
3.3618103
11
-5.7205433
21
3.3983279
0
LINE
8
layer1
10
-5.7205433
20
3.3983279
11
-5.7996593
21
3.4694024
0
LINE
8
layer1
10
-5.7996593
20
3.4694024
11
-5.8502846
21
3.5207527
0
LINE
8
layer1
10
-5.8502846
20
3.5207527
11
-5.9043134
21
3.5803354
0
LINE
8
layer1
10
-5.9043134
20
3.5803354
11
-5.9646009
21
3.6526132
0
LINE
8
layer1
10
-5.9646009
20
3.6526132
11
-6.0290375
21
3.7368365
0
LINE
8
layer1
10
-6.0290375
20
3.7368365
11
-6.0959511
21
3.832322
0
LINE
8
layer1
10
-6.0959511
20
3.832322
11
-6.1648699
21
3.9399738
0
LINE
8
layer1
10
-6.1648699
20
3.9399738
11
-6.2350384
21
4.0603274
0
LINE
8
layer1
10
-6.2350384
20
4.0603274
11
-6.3058146
21
4.1943126
0
LINE
8
layer1
10
-6.3058146
20
4.1943126
11
-6.369196
21
4.3270286
0
ARC
8
layer1
10
0.0000091
20
-0.0000057
40
7.7
50
142.1909457
51
145.8090654
0
LINE
8
layer1
10
-6.0834385
20
4.72034
11
-5.9376322
21
4.7010722
0
LINE
8
layer1
10
-5.9376322
20
4.7010722
11
-5.7883337
21
4.6751638
0
LINE
8
layer1
10
-5.7883337
20
4.6751638
11
-5.6521873
21
4.6456208
0
LINE
8
layer1
10
-5.6521873
20
4.6456208
11
-5.5285073
21
4.6133414
0
LINE
8
layer1
10
-5.5285073
20
4.6133414
11
-5.4170178
21
4.5792094
0
LINE
8
layer1
10
-5.4170178
20
4.5792094
11
-5.3170046
21
4.543953
0
LINE
8
layer1
10
-5.3170046
20
4.543953
11
-5.2296345
21
4.5089512
0
LINE
8
layer1
10
-5.2296345
20
4.5089512
11
-5.1562721
21
4.4759789
0
LINE
8
layer1
10
-5.1562721
20
4.4759789
11
-5.0917911
21
4.4436994
0
LINE
8
layer1
10
-5.0917911
20
4.4436994
11
-4.999747
21
4.3904189
0
LINE
8
layer1
10
-4.999747
20
4.3904189
11
-4.9502071
21
4.3561243
0
LINE
8
layer1
10
-4.9502071
20
4.3561243
11
-4.91657
21
4.3292471
0
LINE
8
layer1
10
-4.91657
20
4.3292471
11
-4.8493242
21
4.2818285
0
LINE
8
layer1
10
-4.8493242
20
4.2818285
11
-4.7871553
21
4.24735
0
LINE
8
layer1
10
-4.7871553
20
4.24735
11
-4.7582771
21
4.2348059
0
LINE
8
layer1
10
-4.7582771
20
4.2348059
11
-4.7310252
21
4.2252883
0
LINE
8
layer1
10
-4.7310252
20
4.2252883
11
-4.7055128
21
4.2187405
0
LINE
8
layer1
10
-4.7055128
20
4.2187405
11
-4.681853
21
4.2150635
0
LINE
8
layer1
10
-4.681853
20
4.2150635
11
-4.6601448
21
4.2141867
0
LINE
8
layer1
10
-4.6601448
20
4.2141867
11
-4.6405085
21
4.2160323
0
LINE
8
layer1
10
-4.6405085
20
4.2160323
11
-4.6230359
21
4.2204941
0
LINE
8
layer1
10
-4.6230359
20
4.2204941
11
-4.6078331
21
4.2275086
0
LINE
8
layer1
10
-4.6078331
20
4.2275086
11
-4.5949991
21
4.2369485
0
LINE
8
layer1
10
-4.5949991
20
4.2369485
11
-4.5670471
21
4.2667106
0
LINE
8
layer1
10
-4.5670471
20
4.2667106
11
-4.4194174
21
4.4194174
0
LINE
8
layer1
10
-4.4194174
20
4.4194174
11
-4.2667106
21
4.5670471
0
LINE
8
layer1
10
-4.2667106
20
4.5670471
11
-4.2369485
21
4.5949991
0
LINE
8
layer1
10
-4.2369485
20
4.5949991
11
-4.2275086
21
4.6078331
0
LINE
8
layer1
10
-4.2275086
20
4.6078331
11
-4.2204941
21
4.6230359
0
LINE
8
layer1
10
-4.2204941
20
4.6230359
11
-4.2160323
21
4.6405085
0
LINE
8
layer1
10
-4.2160323
20
4.6405085
11
-4.2141867
21
4.6601448
0
LINE
8
layer1
10
-4.2141867
20
4.6601448
11
-4.2150635
21
4.681853
0
LINE
8
layer1
10
-4.2150635
20
4.681853
11
-4.2187405
21
4.7055128
0
LINE
8
layer1
10
-4.2187405
20
4.7055128
11
-4.2252883
21
4.7310252
0
LINE
8
layer1
10
-4.2252883
20
4.7310252
11
-4.2348059
21
4.7582771
0
LINE
8
layer1
10
-4.2348059
20
4.7582771
11
-4.24735
21
4.7871553
0
LINE
8
layer1
10
-4.24735
20
4.7871553
11
-4.2818285
21
4.8493242
0
LINE
8
layer1
10
-4.2818285
20
4.8493242
11
-4.3292471
21
4.91657
0
LINE
8
layer1
10
-4.3292471
20
4.91657
11
-4.3561243
21
4.9502071
0
LINE
8
layer1
10
-4.3561243
20
4.9502071
11
-4.3904189
21
4.999747
0
LINE
8
layer1
10
-4.3904189
20
4.999747
11
-4.4436994
21
5.0917911
0
LINE
8
layer1
10
-4.4436994
20
5.0917911
11
-4.4759789
21
5.1562721
0
LINE
8
layer1
10
-4.4759789
20
5.1562721
11
-4.5089512
21
5.2296345
0
LINE
8
layer1
10
-4.5089512
20
5.2296345
11
-4.543953
21
5.3170046
0
LINE
8
layer1
10
-4.543953
20
5.3170046
11
-4.5792094
21
5.4170178
0
LINE
8
layer1
10
-4.5792094
20
5.4170178
11
-4.6133414
21
5.5285073
0
LINE
8
layer1
10
-4.6133414
20
5.5285073
11
-4.6456208
21
5.6521873
0
LINE
8
layer1
10
-4.6456208
20
5.6521873
11
-4.6751638
21
5.7883337
0
LINE
8
layer1
10
-4.6751638
20
5.7883337
11
-4.7010722
21
5.9376322
0
LINE
8
layer1
10
-4.7010722
20
5.9376322
11
-4.72034
21
6.0834385
0
ARC
8
layer1
10
0.0000057
20
-0.0000092
40
7.7
50
124.1909346
51
127.8090543
0
LINE
8
layer1
10
-4.3270286
20
6.369196
11
-4.1943126
21
6.3058146
0
LINE
8
layer1
10
-4.1943126
20
6.3058146
11
-4.0603274
21
6.2350384
0
LINE
8
layer1
10
-4.0603274
20
6.2350384
11
-3.9399738
21
6.1648699
0
LINE
8
layer1
10
-3.9399738
20
6.1648699
11
-3.832322
21
6.0959511
0
LINE
8
layer1
10
-3.832322
20
6.0959511
11
-3.7368365
21
6.0290375
0
LINE
8
layer1
10
-3.7368365
20
6.0290375
11
-3.6526132
21
5.9646009
0
LINE
8
layer1
10
-3.6526132
20
5.9646009
11
-3.5803354
21
5.9043134
0
LINE
8
layer1
10
-3.5803354
20
5.9043134
11
-3.5207527
21
5.8502846
0
LINE
8
layer1
10
-3.5207527
20
5.8502846
11
-3.4694024
21
5.7996593
0
LINE
8
layer1
10
-3.4694024
20
5.7996593
11
-3.3983279
21
5.7205433
0
LINE
8
layer1
10
-3.3983279
20
5.7205433
11
-3.3618103
21
5.6726185
0
LINE
8
layer1
10
-3.3618103
20
5.6726185
11
-3.338125
21
5.6366624
0
LINE
8
layer1
10
-3.338125
20
5.6366624
11
-3.2888236
21
5.5707845
0
LINE
8
layer1
10
-3.2888236
20
5.5707845
11
-3.2403519
21
5.5187823
0
LINE
8
layer1
10
-3.2403519
20
5.5187823
11
-3.2167634
21
5.4979283
0
LINE
8
layer1
10
-3.2167634
20
5.4979283
11
-3.1937865
21
5.4804551
0
LINE
8
layer1
10
-3.1937865
20
5.4804551
11
-3.1715461
21
5.466344
0
LINE
8
layer1
10
-3.1715461
20
5.466344
11
-3.1501805
21
5.4555358
0
LINE
8
layer1
10
-3.1501805
20
5.4555358
11
-3.1298058
21
5.4479937
0
LINE
8
layer1
10
-3.1298058
20
5.4479937
11
-3.1105602
21
5.4436809
0
LINE
8
layer1
10
-3.1105602
20
5.4436809
11
-3.092564
21
5.4425251
0
LINE
8
layer1
10
-3.092564
20
5.4425251
11
-3.0759377
21
5.4444983
0
LINE
8
layer1
10
-3.0759377
20
5.4444983
11
-3.0608147
21
5.4495103
0
LINE
8
layer1
10
-3.0608147
20
5.4495103
11
-3.0250339
21
5.4691781
0
LINE
8
layer1
10
-3.0250339
20
5.4691781
11
-2.8374406
21
5.5687908
0
LINE
8
layer1
10
-2.8374406
20
5.5687908
11
-2.6465877
21
5.662006
0
LINE
8
layer1
10
-2.6465877
20
5.662006
11
-2.6096447
21
5.6793929
0
LINE
8
layer1
10
-2.6096447
20
5.6793929
11
-2.5967009
21
5.6886817
0
LINE
8
layer1
10
-2.5967009
20
5.6886817
11
-2.5853318
21
5.7009728
0
LINE
8
layer1
10
-2.5853318
20
5.7009728
11
-2.575689
21
5.7162114
0
LINE
8
layer1
10
-2.575689
20
5.7162114
11
-2.5678658
21
5.7343164
0
LINE
8
layer1
10
-2.5678658
20
5.7343164
11
-2.5619915
21
5.7552331
0
LINE
8
layer1
10
-2.5619915
20
5.7552331
11
-2.5581772
21
5.7788711
0
LINE
8
layer1
10
-2.5581772
20
5.7788711
11
-2.5565208
21
5.8051582
0
LINE
8
layer1
10
-2.5565208
20
5.8051582
11
-2.5571513
21
5.8340174
0
LINE
8
layer1
10
-2.5571513
20
5.8340174
11
-2.5601576
21
5.8653586
0
LINE
8
layer1
10
-2.5601576
20
5.8653586
11
-2.5737374
21
5.9351391
0
LINE
8
layer1
10
-2.5737374
20
5.9351391
11
-2.598055
21
6.0137469
0
LINE
8
layer1
10
-2.598055
20
6.0137469
11
-2.6132222
21
6.0540431
0
LINE
8
layer1
10
-2.6132222
20
6.0540431
11
-2.6305297
21
6.111756
0
LINE
8
layer1
10
-2.6305297
20
6.111756
11
-2.6527593
21
6.2157597
0
LINE
8
layer1
10
-2.6527593
20
6.2157597
11
-2.6635331
21
6.2870598
0
LINE
8
layer1
10
-2.6635331
20
6.2870598
11
-2.6722215
21
6.3670205
0
LINE
8
layer1
10
-2.6722215
20
6.3670205
11
-2.6785114
21
6.4609306
0
LINE
8
layer1
10
-2.6785114
20
6.4609306
11
-2.6811364
21
6.5669436
0
LINE
8
layer1
10
-2.6811364
20
6.5669436
11
-2.6791457
21
6.6835238
0
LINE
8
layer1
10
-2.6791457
20
6.6835238
11
-2.671626
21
6.8111254
0
LINE
8
layer1
10
-2.671626
20
6.8111254
11
-2.6576515
21
6.9497375
0
LINE
8
layer1
10
-2.6576515
20
6.9497375
11
-2.636156
21
7.099735
0
LINE
8
layer1
10
-2.636156
20
7.099735
11
-2.6094242
21
7.2443591
0
ARC
8
layer1
10
0.0000034
20
-0.0000103
40
7.7
50
106.1909403
51
109.8090603
0
LINE
8
layer1
10
-2.1470589
20
7.3945907
11
-2.0404245
21
7.2932999
0
LINE
8
layer1
10
-2.0404245
20
7.2932999
11
-1.934868
21
7.1845841
0
LINE
8
layer1
10
-1.934868
20
7.1845841
11
-1.8420882
21
7.0806586
0
LINE
8
layer1
10
-1.8420882
20
7.0806586
11
-1.7610023
21
6.9818467
0
LINE
8
layer1
10
-1.7610023
20
6.9818467
11
-1.6908677
21
6.8887014
0
LINE
8
layer1
10
-1.6908677
20
6.8887014
11
-1.6306785
21
6.8013921
0
LINE
8
layer1
10
-1.6306785
20
6.8013921
11
-1.5805681
21
6.7217202
0
LINE
8
layer1
10
-1.5805681
20
6.7217202
11
-1.5405974
21
6.6519237
0
LINE
8
layer1
10
-1.5405974
20
6.6519237
11
-1.5074045
21
6.5879081
0
LINE
8
layer1
10
-1.5074045
20
6.5879081
11
-1.4642568
21
6.4907011
0
LINE
8
layer1
10
-1.4642568
20
6.4907011
11
-1.4443361
21
6.4338373
0
LINE
8
layer1
10
-1.4443361
20
6.4338373
11
-1.4329211
21
6.3923218
0
LINE
8
layer1
10
-1.4329211
20
6.3923218
11
-1.40639
21
6.3144333
0
LINE
8
layer1
10
-1.40639
20
6.3144333
11
-1.3763603
21
6.2499977
0
LINE
8
layer1
10
-1.3763603
20
6.2499977
11
-1.3603706
21
6.2228751
0
LINE
8
layer1
10
-1.3603706
20
6.2228751
11
-1.3439176
21
6.1991569
0
LINE
8
layer1
10
-1.3439176
20
6.1991569
11
-1.3271264
21
6.1788638
0
LINE
8
layer1
10
-1.3271264
20
6.1788638
11
-1.3101465
21
6.1619822
0
LINE
8
layer1
10
-1.3101465
20
6.1619822
11
-1.2930996
21
6.1485131
0
LINE
8
layer1
10
-1.2930996
20
6.1485131
11
-1.2761286
21
6.1384642
0
LINE
8
layer1
10
-1.2761286
20
6.1384642
11
-1.2593704
21
6.1318037
0
LINE
8
layer1
10
-1.2593704
20
6.1318037
11
-1.242948
21
6.1285426
0
LINE
8
layer1
10
-1.242948
20
6.1285426
11
-1.2270165
21
6.128636
0
LINE
8
layer1
10
-1.2270165
20
6.128636
11
-1.1869092
21
6.1362843
0
LINE
8
layer1
10
-1.1869092
20
6.1362843
11
-0.9777154
21
6.1730521
0
LINE
8
layer1
10
-0.9777154
20
6.1730521
11
-0.7673984
21
6.2027283
0
LINE
8
layer1
10
-0.7673984
20
6.2027283
11
-0.7268906
21
6.2078482
0
LINE
8
layer1
10
-0.7268906
20
6.2078482
11
-0.71171
21
6.2126825
0
LINE
8
layer1
10
-0.71171
20
6.2126825
11
-0.6970992
21
6.2208588
0
LINE
8
layer1
10
-0.6970992
20
6.2208588
11
-0.6832193
21
6.2323718
0
LINE
8
layer1
10
-0.6832193
20
6.2323718
11
-0.6701843
21
6.2471732
0
LINE
8
layer1
10
-0.6701843
20
6.2471732
11
-0.6581339
21
6.2652508
0
LINE
8
layer1
10
-0.6581339
20
6.2652508
11
-0.6472017
21
6.2865532
0
LINE
8
layer1
10
-0.6472017
20
6.2865532
11
-0.6375032
21
6.3110419
0
LINE
8
layer1
10
-0.6375032
20
6.3110419
11
-0.6291849
21
6.3386835
0
LINE
8
layer1
10
-0.6291849
20
6.3386835
11
-0.622359
21
6.3694197
0
LINE
8
layer1
10
-0.622359
20
6.3694197
11
-0.6137108
21
6.4399813
0
LINE
8
layer1
10
-0.6137108
20
6.4399813
11
-0.6125471
21
6.5222563
0
LINE
8
layer1
10
-0.6125471
20
6.5222563
11
-0.6145198
21
6.5652673
0
LINE
8
layer1
10
-0.6145198
20
6.5652673
11
-0.613146
21
6.6255038
0
LINE
8
layer1
10
-0.613146
20
6.6255038
11
-0.6021487
21
6.7312865
0
LINE
8
layer1
10
-0.6021487
20
6.7312865
11
-0.5903622
21
6.8024262
0
LINE
8
layer1
10
-0.5903622
20
6.8024262
11
-0.5739162
21
6.8811582
0
LINE
8
layer1
10
-0.5739162
20
6.8811582
11
-0.5508783
21
6.9724156
0
LINE
8
layer1
10
-0.5508783
20
6.9724156
11
-0.520615
21
7.0740512
0
LINE
8
layer1
10
-0.520615
20
7.0740512
11
-0.4826966
21
7.1843104
0
LINE
8
layer1
10
-0.4826966
20
7.1843104
11
-0.4361138
21
7.303343
0
LINE
8
layer1
10
-0.4361138
20
7.303343
11
-0.3799898
21
7.4308526
0
LINE
8
layer1
10
-0.3799898
20
7.4308526
11
-0.3131946
21
7.5668662
0
LINE
8
layer1
10
-0.3131946
20
7.5668662
11
-0.2430798
21
7.6961514
0
ARC
8
layer1
10
0
20
-0.0000108
40
7.7
50
88.1909401
51
91.8090599
0
LINE
8
layer1
10
0.2430798
20
7.6961514
11
0.3131946
21
7.5668662
0
LINE
8
layer1
10
0.3131946
20
7.5668662
11
0.3799898
21
7.4308526
0
LINE
8
layer1
10
0.3799898
20
7.4308526
11
0.4361138
21
7.303343
0
LINE
8
layer1
10
0.4361138
20
7.303343
11
0.4826966
21
7.1843104
0
LINE
8
layer1
10
0.4826966
20
7.1843104
11
0.520615
21
7.0740512
0
LINE
8
layer1
10
0.520615
20
7.0740512
11
0.5508783
21
6.9724156
0
LINE
8
layer1
10
0.5508783
20
6.9724156
11
0.5739162
21
6.8811582
0
LINE
8
layer1
10
0.5739162
20
6.8811582
11
0.5903622
21
6.8024262
0
LINE
8
layer1
10
0.5903622
20
6.8024262
11
0.6021487
21
6.7312865
0
LINE
8
layer1
10
0.6021487
20
6.7312865
11
0.613146
21
6.6255038
0
LINE
8
layer1
10
0.613146
20
6.6255038
11
0.6145198
21
6.5652673
0
LINE
8
layer1
10
0.6145198
20
6.5652673
11
0.6125471
21
6.5222563
0
LINE
8
layer1
10
0.6125471
20
6.5222563
11
0.6137108
21
6.4399813
0
LINE
8
layer1
10
0.6137108
20
6.4399813
11
0.622359
21
6.3694197
0
LINE
8
layer1
10
0.622359
20
6.3694197
11
0.6291849
21
6.3386835
0
LINE
8
layer1
10
0.6291849
20
6.3386835
11
0.6375032
21
6.3110419
0
LINE
8
layer1
10
0.6375032
20
6.3110419
11
0.6472017
21
6.2865532
0
LINE
8
layer1
10
0.6472017
20
6.2865532
11
0.6581339
21
6.2652508
0
LINE
8
layer1
10
0.6581339
20
6.2652508
11
0.6701843
21
6.2471732
0
LINE
8
layer1
10
0.6701843
20
6.2471732
11
0.6832193
21
6.2323718
0
LINE
8
layer1
10
0.6832193
20
6.2323718
11
0.6970992
21
6.2208588
0
LINE
8
layer1
10
0.6970992
20
6.2208588
11
0.71171
21
6.2126825
0
LINE
8
layer1
10
0.71171
20
6.2126825
11
0.7268906
21
6.2078482
0
LINE
8
layer1
10
0.7268906
20
6.2078482
11
0.7673984
21
6.2027283
0
LINE
8
layer1
10
0.7673984
20
6.2027283
11
0.9777154
21
6.1730521
0
LINE
8
layer1
10
0.9777154
20
6.1730521
11
1.1869092
21
6.1362843
0
LINE
8
layer1
10
1.1869092
20
6.1362843
11
1.2270165
21
6.128636
0
LINE
8
layer1
10
1.2270165
20
6.128636
11
1.242948
21
6.1285426
0
LINE
8
layer1
10
1.242948
20
6.1285426
11
1.2593704
21
6.1318037
0
LINE
8
layer1
10
1.2593704
20
6.1318037
11
1.2761286
21
6.1384642
0
LINE
8
layer1
10
1.2761286
20
6.1384642
11
1.2930996
21
6.1485131
0
LINE
8
layer1
10
1.2930996
20
6.1485131
11
1.3101465
21
6.1619822
0
LINE
8
layer1
10
1.3101465
20
6.1619822
11
1.3271264
21
6.1788638
0
LINE
8
layer1
10
1.3271264
20
6.1788638
11
1.3439176
21
6.1991569
0
LINE
8
layer1
10
1.3439176
20
6.1991569
11
1.3603706
21
6.2228751
0
LINE
8
layer1
10
1.3603706
20
6.2228751
11
1.3763603
21
6.2499977
0
LINE
8
layer1
10
1.3763603
20
6.2499977
11
1.40639
21
6.3144333
0
LINE
8
layer1
10
1.40639
20
6.3144333
11
1.4329211
21
6.3923218
0
LINE
8
layer1
10
1.4329211
20
6.3923218
11
1.4443361
21
6.4338373
0
LINE
8
layer1
10
1.4443361
20
6.4338373
11
1.4642568
21
6.4907011
0
LINE
8
layer1
10
1.4642568
20
6.4907011
11
1.5074045
21
6.5879081
0
LINE
8
layer1
10
1.5074045
20
6.5879081
11
1.5405974
21
6.6519237
0
LINE
8
layer1
10
1.5405974
20
6.6519237
11
1.5805681
21
6.7217202
0
LINE
8
layer1
10
1.5805681
20
6.7217202
11
1.6306785
21
6.8013921
0
LINE
8
layer1
10
1.6306785
20
6.8013921
11
1.6908677
21
6.8887014
0
LINE
8
layer1
10
1.6908677
20
6.8887014
11
1.7610023
21
6.9818467
0
LINE
8
layer1
10
1.7610023
20
6.9818467
11
1.8420882
21
7.0806586
0
LINE
8
layer1
10
1.8420882
20
7.0806586
11
1.934868
21
7.1845841
0
LINE
8
layer1
10
1.934868
20
7.1845841
11
2.0404245
21
7.2932999
0
LINE
8
layer1
10
2.0404245
20
7.2932999
11
2.1470589
21
7.3945907
0
ARC
8
layer1
10
-0.0000035
20
-0.0000102
40
7.7
50
70.1909387
51
73.8090588
0
LINE
8
layer1
10
2.6094242
20
7.2443591
11
2.636156
21
7.099735
0
LINE
8
layer1
10
2.636156
20
7.099735
11
2.6576515
21
6.9497375
0
LINE
8
layer1
10
2.6576515
20
6.9497375
11
2.671626
21
6.8111254
0
LINE
8
layer1
10
2.671626
20
6.8111254
11
2.6791457
21
6.6835238
0
LINE
8
layer1
10
2.6791457
20
6.6835238
11
2.6811364
21
6.5669436
0
LINE
8
layer1
10
2.6811364
20
6.5669436
11
2.6785114
21
6.4609306
0
LINE
8
layer1
10
2.6785114
20
6.4609306
11
2.6722215
21
6.3670205
0
LINE
8
layer1
10
2.6722215
20
6.3670205
11
2.6635331
21
6.2870598
0
LINE
8
layer1
10
2.6635331
20
6.2870598
11
2.6527593
21
6.2157597
0
LINE
8
layer1
10
2.6527593
20
6.2157597
11
2.6305297
21
6.111756
0
LINE
8
layer1
10
2.6305297
20
6.111756
11
2.6132222
21
6.0540431
0
LINE
8
layer1
10
2.6132222
20
6.0540431
11
2.598055
21
6.0137469
0
LINE
8
layer1
10
2.598055
20
6.0137469
11
2.5737374
21
5.9351391
0
LINE
8
layer1
10
2.5737374
20
5.9351391
11
2.5601576
21
5.8653586
0
LINE
8
layer1
10
2.5601576
20
5.8653586
11
2.5571513
21
5.8340174
0
LINE
8
layer1
10
2.5571513
20
5.8340174
11
2.5565208
21
5.8051582
0
LINE
8
layer1
10
2.5565208
20
5.8051582
11
2.5581772
21
5.7788711
0
LINE
8
layer1
10
2.5581772
20
5.7788711
11
2.5619915
21
5.7552331
0
LINE
8
layer1
10
2.5619915
20
5.7552331
11
2.5678658
21
5.7343164
0
LINE
8
layer1
10
2.5678658
20
5.7343164
11
2.575689
21
5.7162114
0
LINE
8
layer1
10
2.575689
20
5.7162114
11
2.5853318
21
5.7009728
0
LINE
8
layer1
10
2.5853318
20
5.7009728
11
2.5967009
21
5.6886817
0
LINE
8
layer1
10
2.5967009
20
5.6886817
11
2.6096447
21
5.6793929
0
LINE
8
layer1
10
2.6096447
20
5.6793929
11
2.6465877
21
5.662006
0
LINE
8
layer1
10
2.6465877
20
5.662006
11
2.8374406
21
5.5687908
0
LINE
8
layer1
10
2.8374406
20
5.5687908
11
3.0250339
21
5.4691781
0
LINE
8
layer1
10
3.0250339
20
5.4691781
11
3.0608147
21
5.4495103
0
LINE
8
layer1
10
3.0608147
20
5.4495103
11
3.0759377
21
5.4444983
0
LINE
8
layer1
10
3.0759377
20
5.4444983
11
3.092564
21
5.4425251
0
LINE
8
layer1
10
3.092564
20
5.4425251
11
3.1105602
21
5.4436809
0
LINE
8
layer1
10
3.1105602
20
5.4436809
11
3.1298058
21
5.4479937
0
LINE
8
layer1
10
3.1298058
20
5.4479937
11
3.1501805
21
5.4555358
0
LINE
8
layer1
10
3.1501805
20
5.4555358
11
3.1715461
21
5.466344
0
LINE
8
layer1
10
3.1715461
20
5.466344
11
3.1937865
21
5.4804551
0
LINE
8
layer1
10
3.1937865
20
5.4804551
11
3.2167634
21
5.4979283
0
LINE
8
layer1
10
3.2167634
20
5.4979283
11
3.2403519
21
5.5187823
0
LINE
8
layer1
10
3.2403519
20
5.5187823
11
3.2888236
21
5.5707845
0
LINE
8
layer1
10
3.2888236
20
5.5707845
11
3.338125
21
5.6366624
0
LINE
8
layer1
10
3.338125
20
5.6366624
11
3.3618103
21
5.6726185
0
LINE
8
layer1
10
3.3618103
20
5.6726185
11
3.3983279
21
5.7205433
0
LINE
8
layer1
10
3.3983279
20
5.7205433
11
3.4694024
21
5.7996593
0
LINE
8
layer1
10
3.4694024
20
5.7996593
11
3.5207527
21
5.8502846
0
LINE
8
layer1
10
3.5207527
20
5.8502846
11
3.5803354
21
5.9043134
0
LINE
8
layer1
10
3.5803354
20
5.9043134
11
3.6526132
21
5.9646009
0
LINE
8
layer1
10
3.6526132
20
5.9646009
11
3.7368365
21
6.0290375
0
LINE
8
layer1
10
3.7368365
20
6.0290375
11
3.832322
21
6.0959511
0
LINE
8
layer1
10
3.832322
20
6.0959511
11
3.9399738
21
6.1648699
0
LINE
8
layer1
10
3.9399738
20
6.1648699
11
4.0603274
21
6.2350384
0
LINE
8
layer1
10
4.0603274
20
6.2350384
11
4.1943126
21
6.3058146
0
LINE
8
layer1
10
4.1943126
20
6.3058146
11
4.3270286
21
6.369196
0
ARC
8
layer1
10
-0.0000057
20
-0.0000091
40
7.7
50
52.1909457
51
55.8090654
0
LINE
8
layer1
10
4.72034
20
6.0834385
11
4.7010722
21
5.9376322
0
LINE
8
layer1
10
4.7010722
20
5.9376322
11
4.6751638
21
5.7883337
0
LINE
8
layer1
10
4.6751638
20
5.7883337
11
4.6456208
21
5.6521873
0
LINE
8
layer1
10
4.6456208
20
5.6521873
11
4.6133414
21
5.5285073
0
LINE
8
layer1
10
4.6133414
20
5.5285073
11
4.5792094
21
5.4170178
0
LINE
8
layer1
10
4.5792094
20
5.4170178
11
4.543953
21
5.3170046
0
LINE
8
layer1
10
4.543953
20
5.3170046
11
4.5089512
21
5.2296345
0
LINE
8
layer1
10
4.5089512
20
5.2296345
11
4.4759789
21
5.1562721
0
LINE
8
layer1
10
4.4759789
20
5.1562721
11
4.4436994
21
5.0917911
0
LINE
8
layer1
10
4.4436994
20
5.0917911
11
4.3904189
21
4.999747
0
LINE
8
layer1
10
4.3904189
20
4.999747
11
4.3561243
21
4.9502071
0
LINE
8
layer1
10
4.3561243
20
4.9502071
11
4.3292471
21
4.91657
0
LINE
8
layer1
10
4.3292471
20
4.91657
11
4.2818285
21
4.8493242
0
LINE
8
layer1
10
4.2818285
20
4.8493242
11
4.24735
21
4.7871553
0
LINE
8
layer1
10
4.24735
20
4.7871553
11
4.2348059
21
4.7582771
0
LINE
8
layer1
10
4.2348059
20
4.7582771
11
4.2252883
21
4.7310252
0
LINE
8
layer1
10
4.2252883
20
4.7310252
11
4.2187405
21
4.7055128
0
LINE
8
layer1
10
4.2187405
20
4.7055128
11
4.2150635
21
4.681853
0
LINE
8
layer1
10
4.2150635
20
4.681853
11
4.2141867
21
4.6601448
0
LINE
8
layer1
10
4.2141867
20
4.6601448
11
4.2160323
21
4.6405085
0
LINE
8
layer1
10
4.2160323
20
4.6405085
11
4.2204941
21
4.6230359
0
LINE
8
layer1
10
4.2204941
20
4.6230359
11
4.2275086
21
4.6078331
0
LINE
8
layer1
10
4.2275086
20
4.6078331
11
4.2369485
21
4.5949991
0
LINE
8
layer1
10
4.2369485
20
4.5949991
11
4.2667106
21
4.5670471
0
LINE
8
layer1
10
4.2667106
20
4.5670471
11
4.4194174
21
4.4194174
0
LINE
8
layer1
10
4.4194174
20
4.4194174
11
4.5670471
21
4.2667106
0
LINE
8
layer1
10
4.5670471
20
4.2667106
11
4.5949991
21
4.2369485
0
LINE
8
layer1
10
4.5949991
20
4.2369485
11
4.6078331
21
4.2275086
0
LINE
8
layer1
10
4.6078331
20
4.2275086
11
4.6230359
21
4.2204941
0
LINE
8
layer1
10
4.6230359
20
4.2204941
11
4.6405085
21
4.2160323
0
LINE
8
layer1
10
4.6405085
20
4.2160323
11
4.6601448
21
4.2141867
0
LINE
8
layer1
10
4.6601448
20
4.2141867
11
4.681853
21
4.2150635
0
LINE
8
layer1
10
4.681853
20
4.2150635
11
4.7055128
21
4.2187405
0
LINE
8
layer1
10
4.7055128
20
4.2187405
11
4.7310252
21
4.2252883
0
LINE
8
layer1
10
4.7310252
20
4.2252883
11
4.7582771
21
4.2348059
0
LINE
8
layer1
10
4.7582771
20
4.2348059
11
4.7871553
21
4.24735
0
LINE
8
layer1
10
4.7871553
20
4.24735
11
4.8493242
21
4.2818285
0
LINE
8
layer1
10
4.8493242
20
4.2818285
11
4.91657
21
4.3292471
0
LINE
8
layer1
10
4.91657
20
4.3292471
11
4.9502071
21
4.3561243
0
LINE
8
layer1
10
4.9502071
20
4.3561243
11
4.999747
21
4.3904189
0
LINE
8
layer1
10
4.999747
20
4.3904189
11
5.0917911
21
4.4436994
0
LINE
8
layer1
10
5.0917911
20
4.4436994
11
5.1562721
21
4.4759789
0
LINE
8
layer1
10
5.1562721
20
4.4759789
11
5.2296345
21
4.5089512
0
LINE
8
layer1
10
5.2296345
20
4.5089512
11
5.3170046
21
4.543953
0
LINE
8
layer1
10
5.3170046
20
4.543953
11
5.4170178
21
4.5792094
0
LINE
8
layer1
10
5.4170178
20
4.5792094
11
5.5285073
21
4.6133414
0
LINE
8
layer1
10
5.5285073
20
4.6133414
11
5.6521873
21
4.6456208
0
LINE
8
layer1
10
5.6521873
20
4.6456208
11
5.7883337
21
4.6751638
0
LINE
8
layer1
10
5.7883337
20
4.6751638
11
5.9376322
21
4.7010722
0
LINE
8
layer1
10
5.9376322
20
4.7010722
11
6.0834385
21
4.72034
0
ARC
8
layer1
10
-0.0000092
20
-0.0000057
40
7.7
50
34.1909346
51
37.8090543
0
LINE
8
layer1
10
6.369196
20
4.3270286
11
6.3058146
21
4.1943126
0
LINE
8
layer1
10
6.3058146
20
4.1943126
11
6.2350384
21
4.0603274
0
LINE
8
layer1
10
6.2350384
20
4.0603274
11
6.1648699
21
3.9399738
0
LINE
8
layer1
10
6.1648699
20
3.9399738
11
6.0959511
21
3.832322
0
LINE
8
layer1
10
6.0959511
20
3.832322
11
6.0290375
21
3.7368365
0
LINE
8
layer1
10
6.0290375
20
3.7368365
11
5.9646009
21
3.6526132
0
LINE
8
layer1
10
5.9646009
20
3.6526132
11
5.9043134
21
3.5803354
0
LINE
8
layer1
10
5.9043134
20
3.5803354
11
5.8502846
21
3.5207527
0
LINE
8
layer1
10
5.8502846
20
3.5207527
11
5.7996593
21
3.4694024
0
LINE
8
layer1
10
5.7996593
20
3.4694024
11
5.7205433
21
3.3983279
0
LINE
8
layer1
10
5.7205433
20
3.3983279
11
5.6726185
21
3.3618103
0
LINE
8
layer1
10
5.6726185
20
3.3618103
11
5.6366624
21
3.338125
0
LINE
8
layer1
10
5.6366624
20
3.338125
11
5.5707845
21
3.2888236
0
LINE
8
layer1
10
5.5707845
20
3.2888236
11
5.5187823
21
3.2403519
0
LINE
8
layer1
10
5.5187823
20
3.2403519
11
5.4979283
21
3.2167634
0
LINE
8
layer1
10
5.4979283
20
3.2167634
11
5.4804551
21
3.1937865
0
LINE
8
layer1
10
5.4804551
20
3.1937865
11
5.466344
21
3.1715461
0
LINE
8
layer1
10
5.466344
20
3.1715461
11
5.4555358
21
3.1501805
0
LINE
8
layer1
10
5.4555358
20
3.1501805
11
5.4479937
21
3.1298058
0
LINE
8
layer1
10
5.4479937
20
3.1298058
11
5.4436809
21
3.1105602
0
LINE
8
layer1
10
5.4436809
20
3.1105602
11
5.4425251
21
3.092564
0
LINE
8
layer1
10
5.4425251
20
3.092564
11
5.4444983
21
3.0759377
0
LINE
8
layer1
10
5.4444983
20
3.0759377
11
5.4495103
21
3.0608147
0
LINE
8
layer1
10
5.4495103
20
3.0608147
11
5.4691781
21
3.0250339
0
LINE
8
layer1
10
5.4691781
20
3.0250339
11
5.5687908
21
2.8374406
0
LINE
8
layer1
10
5.5687908
20
2.8374406
11
5.662006
21
2.6465877
0
LINE
8
layer1
10
5.662006
20
2.6465877
11
5.6793929
21
2.6096447
0
LINE
8
layer1
10
5.6793929
20
2.6096447
11
5.6886817
21
2.5967009
0
LINE
8
layer1
10
5.6886817
20
2.5967009
11
5.7009728
21
2.5853318
0
LINE
8
layer1
10
5.7009728
20
2.5853318
11
5.7162114
21
2.575689
0
LINE
8
layer1
10
5.7162114
20
2.575689
11
5.7343164
21
2.5678658
0
LINE
8
layer1
10
5.7343164
20
2.5678658
11
5.7552331
21
2.5619915
0
LINE
8
layer1
10
5.7552331
20
2.5619915
11
5.7788711
21
2.5581772
0
LINE
8
layer1
10
5.7788711
20
2.5581772
11
5.8051582
21
2.5565208
0
LINE
8
layer1
10
5.8051582
20
2.5565208
11
5.8340174
21
2.5571513
0
LINE
8
layer1
10
5.8340174
20
2.5571513
11
5.8653586
21
2.5601576
0
LINE
8
layer1
10
5.8653586
20
2.5601576
11
5.9351391
21
2.5737374
0
LINE
8
layer1
10
5.9351391
20
2.5737374
11
6.0137469
21
2.598055
0
LINE
8
layer1
10
6.0137469
20
2.598055
11
6.0540431
21
2.6132222
0
LINE
8
layer1
10
6.0540431
20
2.6132222
11
6.111756
21
2.6305297
0
LINE
8
layer1
10
6.111756
20
2.6305297
11
6.2157597
21
2.6527593
0
LINE
8
layer1
10
6.2157597
20
2.6527593
11
6.2870598
21
2.6635331
0
LINE
8
layer1
10
6.2870598
20
2.6635331
11
6.3670205
21
2.6722215
0
LINE
8
layer1
10
6.3670205
20
2.6722215
11
6.4609306
21
2.6785114
0
LINE
8
layer1
10
6.4609306
20
2.6785114
11
6.5669436
21
2.6811364
0
LINE
8
layer1
10
6.5669436
20
2.6811364
11
6.6835238
21
2.6791457
0
LINE
8
layer1
10
6.6835238
20
2.6791457
11
6.8111254
21
2.671626
0
LINE
8
layer1
10
6.8111254
20
2.671626
11
6.9497375
21
2.6576515
0
LINE
8
layer1
10
6.9497375
20
2.6576515
11
7.099735
21
2.636156
0
LINE
8
layer1
10
7.099735
20
2.636156
11
7.2443591
21
2.6094242
0
ARC
8
layer1
10
-0.0000103
20
-0.0000034
40
7.7
50
16.1909403
51
19.8090603
0
LINE
8
layer1
10
7.3945907
20
2.1470589
11
7.2932999
21
2.0404245
0
ENDSEC
0
EOF