0
SECTION
2
HEADER
0
ENDSEC
0
SECTION
2
TABLES
0
TABLE
2
LTYPE
0
LTYPE
72
65
70
64
2
CONTINUOUS
3
______
73
0
40
0
0
ENDTAB
0
TABLE
2
LAYER
0
ENDTAB
0
ENDSEC
0
SECTION
2
ENTITIES
0
CIRCLE
8
0
10
0
20
0
40
5.5
0
CIRCLE
8
0
10
0
20
0
40
5.5
0
LINE
8
layer0
10
8.3351722
20
2.3318876
11
8.2121244
21
2.2123672
0
LINE
8
layer0
10
8.2121244
20
2.2123672
11
8.0918823
21
2.1049851
0
LINE
8
layer0
10
8.0918823
20
2.1049851
11
7.9789997
21
2.0123762
0
LINE
8
layer0
10
7.9789997
20
2.0123762
11
7.8710111
21
1.9311227
0
LINE
8
layer0
10
7.8710111
20
1.9311227
11
7.7725827
21
1.8633406
0
LINE
8
layer0
10
7.7725827
20
1.8633406
11
7.6828953
21
1.8069157
0
LINE
8
layer0
10
7.6828953
20
1.8069157
11
7.5998544
21
1.7594104
0
LINE
8
layer0
10
7.5998544
20
1.7594104
11
7.5290753
21
1.722767
0
LINE
8
layer0
10
7.5290753
20
1.722767
11
7.418449
21
1.6736363
0
LINE
8
layer0
10
7.418449
20
1.6736363
11
7.3509155
21
1.6500615
0
LINE
8
layer0
10
7.3509155
20
1.6500615
11
7.30088
21
1.6361226
0
LINE
8
layer0
10
7.30088
20
1.6361226
11
7.2136814
21
1.6055352
0
LINE
8
layer0
10
7.2136814
20
1.6055352
11
7.1418729
21
1.571108
0
LINE
8
layer0
10
7.1418729
20
1.571108
11
7.1117907
21
1.5528372
0
LINE
8
layer0
10
7.1117907
20
1.5528372
11
7.0856042
21
1.5340696
0
LINE
8
layer0
10
7.0856042
20
1.5340696
11
7.0633195
21
1.5149583
0
LINE
8
layer0
10
7.0633195
20
1.5149583
11
7.0449314
21
1.4956642
0
LINE
8
layer0
10
7.0449314
20
1.4956642
11
7.0304574
21
1.4763319
0
LINE
8
layer0
10
7.0304574
20
1.4763319
11
7.0198611
21
1.4571279
0
LINE
8
layer0
10
7.0198611
20
1.4571279
11
7.0131503
21
1.438195
0
LINE
8
layer0
10
7.0131503
20
1.438195
11
7.0102998
21
1.4196913
0
LINE
8
layer0
10
7.0102998
20
1.4196913
11
7.0121274
21
1.3974129
0
LINE
8
layer0
10
7.0121274
20
1.3974129
11
7.0619716
21
1.1185064
0
LINE
8
layer0
10
7.0619716
20
1.1185064
11
7.1007538
21
0.8378479
0
LINE
8
layer0
10
7.1007538
20
0.8378479
11
7.1059
21
0.8160952
0
LINE
8
layer0
10
7.1059
20
0.8160952
11
7.1143289
21
0.7993779
0
LINE
8
layer0
10
7.1143289
20
0.7993779
11
7.1265619
21
0.7834454
0
LINE
8
layer0
10
7.1265619
20
0.7834454
11
7.142574
21
0.7684557
0
LINE
8
layer0
10
7.142574
20
0.7684557
11
7.1623135
21
0.7545424
0
LINE
8
layer0
10
7.1623135
20
0.7545424
11
7.1857639
21
0.7418748
0
LINE
8
layer0
10
7.1857639
20
0.7418748
11
7.2128636
21
0.7305852
0
LINE
8
layer0
10
7.2128636
20
0.7305852
11
7.243568
21
0.7208283
0
LINE
8
layer0
10
7.243568
20
0.7208283
11
7.2778238
21
0.7127476
0
LINE
8
layer0
10
7.2778238
20
0.7127476
11
7.3567563
21
0.7021954
0
LINE
8
layer0
10
7.3567563
20
0.7021954
11
7.4491392
21
0.7000509
0
LINE
8
layer0
10
7.4491392
20
0.7000509
11
7.5010331
21
0.702256
0
LINE
8
layer0
10
7.5010331
20
0.702256
11
7.5725463
21
0.7007041
0
LINE
8
layer0
10
7.5725463
20
0.7007041
11
7.6929404
21
0.6881634
0
LINE
8
layer0
10
7.6929404
20
0.6881634
11
7.7715788
21
0.6751854
0
LINE
8
layer0
10
7.7715788
20
0.6751854
11
7.8652353
21
0.6556662
0
LINE
8
layer0
10
7.8652353
20
0.6556662
11
7.9679693
21
0.6297179
0
LINE
8
layer0
10
7.9679693
20
0.6297179
11
8.0825261
21
0.5956693
0
LINE
8
layer0
10
8.0825261
20
0.5956693
11
8.2103381
21
0.551763
0
LINE
8
layer0
10
8.2103381
20
0.551763
11
8.3463135
21
0.4985693
0
LINE
8
layer0
10
8.3463135
20
0.4985693
11
8.4938535
21
0.4335998
0
LINE
8
layer0
10
8.4938535
20
0.4335998
11
8.6478127
21
0.357953
0
LINE
8
layer0
10
8.6478127
20
0.357953
11
8.7956015
21
0.2778073
0
ARC
8
layer0
10
-0.0000124
20
0
40
8.8
50
358.1909283
51
361.8090717
0
LINE
8
layer0
10
8.7956015
20
-0.2778073
11
8.6478127
21
-0.357953
0
LINE
8
layer0
10
8.6478127
20
-0.357953
11
8.4938535
21
-0.4335998
0
LINE
8
layer0
10
8.4938535
20
-0.4335998
11
8.3463135
21
-0.4985693
0
LINE
8
layer0
10
8.3463135
20
-0.4985693
11
8.2103381
21
-0.551763
0
LINE
8
layer0
10
8.2103381
20
-0.551763
11
8.0825261
21
-0.5956693
0
LINE
8
layer0
10
8.0825261
20
-0.5956693
11
7.9679693
21
-0.6297179
0
LINE
8
layer0
10
7.9679693
20
-0.6297179
11
7.8652353
21
-0.6556662
0
LINE
8
layer0
10
7.8652353
20
-0.6556662
11
7.7715788
21
-0.6751854
0
LINE
8
layer0
10
7.7715788
20
-0.6751854
11
7.6929404
21
-0.6881634
0
LINE
8
layer0
10
7.6929404
20
-0.6881634
11
7.5725463
21
-0.7007041
0
LINE
8
layer0
10
7.5725463
20
-0.7007041
11
7.5010331
21
-0.702256
0
LINE
8
layer0
10
7.5010331
20
-0.702256
11
7.4491392
21
-0.7000509
0
LINE
8
layer0
10
7.4491392
20
-0.7000509
11
7.3567563
21
-0.7021954
0
LINE
8
layer0
10
7.3567563
20
-0.7021954
11
7.2778238
21
-0.7127476
0
LINE
8
layer0
10
7.2778238
20
-0.7127476
11
7.243568
21
-0.7208283
0
LINE
8
layer0
10
7.243568
20
-0.7208283
11
7.2128636
21
-0.7305852
0
LINE
8
layer0
10
7.2128636
20
-0.7305852
11
7.1857639
21
-0.7418748
0
LINE
8
layer0
10
7.1857639
20
-0.7418748
11
7.1623135
21
-0.7545424
0
LINE
8
layer0
10
7.1623135
20
-0.7545424
11
7.142574
21
-0.7684557
0
LINE
8
layer0
10
7.142574
20
-0.7684557
11
7.1265619
21
-0.7834454
0
LINE
8
layer0
10
7.1265619
20
-0.7834454
11
7.1143289
21
-0.7993779
0
LINE
8
layer0
10
7.1143289
20
-0.7993779
11
7.1059
21
-0.8160952
0
LINE
8
layer0
10
7.1059
20
-0.8160952
11
7.1007538
21
-0.8378479
0
LINE
8
layer0
10
7.1007538
20
-0.8378479
11
7.0619716
21
-1.1185064
0
LINE
8
layer0
10
7.0619716
20
-1.1185064
11
7.0121274
21
-1.3974129
0
LINE
8
layer0
10
7.0121274
20
-1.3974129
11
7.0102998
21
-1.4196913
0
LINE
8
layer0
10
7.0102998
20
-1.4196913
11
7.0131503
21
-1.438195
0
LINE
8
layer0
10
7.0131503
20
-1.438195
11
7.0198611
21
-1.4571279
0
LINE
8
layer0
10
7.0198611
20
-1.4571279
11
7.0304574
21
-1.4763319
0
LINE
8
layer0
10
7.0304574
20
-1.4763319
11
7.0449314
21
-1.4956642
0
LINE
8
layer0
10
7.0449314
20
-1.4956642
11
7.0633195
21
-1.5149583
0
LINE
8
layer0
10
7.0633195
20
-1.5149583
11
7.0856042
21
-1.5340696
0
LINE
8
layer0
10
7.0856042
20
-1.5340696
11
7.1117907
21
-1.5528372
0
LINE
8
layer0
10
7.1117907
20
-1.5528372
11
7.1418729
21
-1.571108
0
LINE
8
layer0
10
7.1418729
20
-1.571108
11
7.2136814
21
-1.6055352
0
LINE
8
layer0
10
7.2136814
20
-1.6055352
11
7.30088
21
-1.6361226
0
LINE
8
layer0
10
7.30088
20
-1.6361226
11
7.3509155
21
-1.6500615
0
LINE
8
layer0
10
7.3509155
20
-1.6500615
11
7.418449
21
-1.6736363
0
LINE
8
layer0
10
7.418449
20
-1.6736363
11
7.5290753
21
-1.722767
0
LINE
8
layer0
10
7.5290753
20
-1.722767
11
7.5998544
21
-1.7594104
0
LINE
8
layer0
10
7.5998544
20
-1.7594104
11
7.6828953
21
-1.8069157
0
LINE
8
layer0
10
7.6828953
20
-1.8069157
11
7.7725827
21
-1.8633406
0
LINE
8
layer0
10
7.7725827
20
-1.8633406
11
7.8710111
21
-1.9311227
0
LINE
8
layer0
10
7.8710111
20
-1.9311227
11
7.9789997
21
-2.0123762
0
LINE
8
layer0
10
7.9789997
20
-2.0123762
11
8.0918823
21
-2.1049851
0
LINE
8
layer0
10
8.0918823
20
-2.1049851
11
8.2121244
21
-2.2123672
0
LINE
8
layer0
10
8.2121244
20
-2.2123672
11
8.3351722
21
-2.3318876
0
LINE
8
layer0
10
8.3351722
20
-2.3318876
11
8.4509613
21
-2.4537799
0
ARC
8
layer0
10
-0.0000118
20
0.0000035
40
8.8
50
340.190931
51
343.8090737
0
LINE
8
layer0
10
8.279267
20
-2.9822008
11
8.1139451
21
-3.0127546
0
LINE
8
layer0
10
8.1139451
20
-3.0127546
11
7.944145
21
-3.037123
0
LINE
8
layer0
10
7.944145
20
-3.037123
11
7.7837495
21
-3.0533203
0
LINE
8
layer0
10
7.7837495
20
-3.0533203
11
7.6379915
21
-3.0618918
0
LINE
8
layer0
10
7.6379915
20
-3.0618918
11
7.5028672
21
-3.0641531
0
LINE
8
layer0
10
7.5028672
20
-3.0641531
11
7.3833956
21
-3.0611352
0
LINE
8
layer0
10
7.3833956
20
-3.0611352
11
7.2776713
21
-3.054067
0
LINE
8
layer0
10
7.2776713
20
-3.054067
11
7.1825669
21
-3.0436894
0
LINE
8
layer0
10
7.1825669
20
-3.0436894
11
7.1037669
21
-3.0317316
0
LINE
8
layer0
10
7.1037669
20
-3.0317316
11
6.9853901
21
-3.0064547
0
LINE
8
layer0
10
6.9853901
20
-3.0064547
11
6.9168974
21
-2.9858319
0
LINE
8
layer0
10
6.9168974
20
-2.9858319
11
6.8682247
21
-2.9676986
0
LINE
8
layer0
10
6.8682247
20
-2.9676986
11
6.7797007
21
-2.9411903
0
LINE
8
layer0
10
6.7797007
20
-2.9411903
11
6.7013706
21
-2.9268345
0
LINE
8
layer0
10
6.7013706
20
-2.9268345
11
6.6662943
21
-2.923934
0
LINE
8
layer0
10
6.6662943
20
-2.923934
11
6.6340777
21
-2.9237252
0
LINE
8
layer0
10
6.6340777
20
-2.9237252
11
6.6048156
21
-2.9260881
0
LINE
8
layer0
10
6.6048156
20
-2.9260881
11
6.5785985
21
-2.930889
0
LINE
8
layer0
10
6.5785985
20
-2.930889
11
6.5555257
21
-2.9380215
0
LINE
8
layer0
10
6.5555257
20
-2.9380215
11
6.5356652
21
-2.9473296
0
LINE
8
layer0
10
6.5356652
20
-2.9473296
11
6.5191075
21
-2.9587021
0
LINE
8
layer0
10
6.5191075
20
-2.9587021
11
6.5059252
21
-2.9719965
0
LINE
8
layer0
10
6.5059252
20
-2.9719965
11
6.4943089
21
-2.9910943
0
LINE
8
layer0
10
6.4943089
20
-2.9910943
11
6.3706966
21
-3.2460321
0
LINE
8
layer0
10
6.3706966
20
-3.2460321
11
6.2371051
21
-3.4958851
0
LINE
8
layer0
10
6.2371051
20
-3.4958851
11
6.2284826
21
-3.5165084
0
LINE
8
layer0
10
6.2284826
20
-3.5165084
11
6.2254756
21
-3.5349873
0
LINE
8
layer0
10
6.2254756
20
-3.5349873
11
6.2260074
21
-3.5550674
0
LINE
8
layer0
10
6.2260074
20
-3.5550674
11
6.2301507
21
-3.5766059
0
LINE
8
layer0
10
6.2301507
20
-3.5766059
11
6.2379422
21
-3.5994647
0
LINE
8
layer0
10
6.2379422
20
-3.5994647
11
6.2494682
21
-3.6234967
0
LINE
8
layer0
10
6.2494682
20
-3.6234967
11
6.2647564
21
-3.648559
0
LINE
8
layer0
10
6.2647564
20
-3.648559
11
6.2838618
21
-3.6745001
0
LINE
8
layer0
10
6.2838618
20
-3.6745001
11
6.3068257
21
-3.7011726
0
LINE
8
layer0
10
6.3068257
20
-3.7011726
11
6.364481
21
-3.7561048
0
LINE
8
layer0
10
6.364481
20
-3.7561048
11
6.4379598
21
-3.8121411
0
LINE
8
layer0
10
6.4379598
20
-3.8121411
11
6.481239
21
-3.8408596
0
LINE
8
layer0
10
6.481239
20
-3.8408596
11
6.5381822
21
-3.8841496
0
LINE
8
layer0
10
6.5381822
20
-3.8841496
11
6.6282118
21
-3.965061
0
LINE
8
layer0
10
6.6282118
20
-3.965061
11
6.6842033
21
-4.0217829
0
LINE
8
layer0
10
6.6842033
20
-4.0217829
11
6.7485
21
-4.0926242
0
LINE
8
layer0
10
6.7485
20
-4.0926242
11
6.8163615
21
-4.1740024
0
LINE
8
layer0
10
6.8163615
20
-4.1740024
11
6.8890266
21
-4.268883
0
LINE
8
layer0
10
6.8890266
20
-4.268883
11
6.9666212
21
-4.3795301
0
LINE
8
layer0
10
6.9666212
20
-4.3795301
11
7.0453612
21
-4.502489
0
LINE
8
layer0
10
7.0453612
20
-4.502489
11
7.1265354
21
-4.6417722
0
LINE
8
layer0
10
7.1265354
20
-4.6417722
11
7.2066269
21
-4.7934668
0
LINE
8
layer0
10
7.2066269
20
-4.7934668
11
7.2790821
21
-4.945174
0
ARC
8
layer0
10
-0.0000102
20
0.000007
40
8.8
50
322.190931
51
325.8090739
0
LINE
8
layer0
10
6.9525001
20
-5.3946757
11
6.785828
21
-5.3726468
0
LINE
8
layer0
10
6.785828
20
-5.3726468
11
6.6168083
21
-5.3433514
0
LINE
8
layer0
10
6.6168083
20
-5.3433514
11
6.4592578
21
-5.3091911
0
LINE
8
layer0
10
6.4592578
20
-5.3091911
11
6.3179849
21
-5.2723013
0
LINE
8
layer0
10
6.3179849
20
-5.2723013
11
6.1887753
21
-5.2326962
0
LINE
8
layer0
10
6.1887753
20
-5.2326962
11
6.0760837
21
-5.1929073
0
LINE
8
layer0
10
6.0760837
20
-5.1929073
11
5.9777181
21
-5.1535144
0
LINE
8
layer0
10
5.9777181
20
-5.1535144
11
5.8904753
21
-5.1142559
0
LINE
8
layer0
10
5.8904753
20
-5.1142559
11
5.8192272
21
-5.0785328
0
LINE
8
layer0
10
5.8192272
20
-5.0785328
11
5.7144552
21
-5.0179126
0
LINE
8
layer0
10
5.7144552
20
-5.0179126
11
5.6556875
21
-4.9771337
0
LINE
8
layer0
10
5.6556875
20
-4.9771337
11
5.6150006
21
-4.9448472
0
LINE
8
layer0
10
5.6150006
20
-4.9448472
11
5.5390008
21
-4.8922809
0
LINE
8
layer0
10
5.5390008
20
-4.8922809
11
5.4689406
21
-4.8544224
0
LINE
8
layer0
10
5.4689406
20
-4.8544224
11
5.4364774
21
-4.8408247
0
LINE
8
layer0
10
5.4364774
20
-4.8408247
11
5.4059021
21
-4.8306707
0
LINE
8
layer0
10
5.4059021
20
-4.8306707
11
5.377342
21
-4.8238754
0
LINE
8
layer0
10
5.377342
20
-4.8238754
11
5.3509245
21
-4.8203399
0
LINE
8
layer0
10
5.3509245
20
-4.8203399
11
5.3267768
21
-4.8199934
0
LINE
8
layer0
10
5.3267768
20
-4.8199934
11
5.3050121
21
-4.8227087
0
LINE
8
layer0
10
5.3050121
20
-4.8227087
11
5.2857505
21
-4.8284079
0
LINE
8
layer0
10
5.2857505
20
-4.8284079
11
5.2691052
21
-4.8369781
0
LINE
8
layer0
10
5.2691052
20
-4.8369781
11
5.2521558
21
-4.8515515
0
LINE
8
layer0
10
5.2521558
20
-4.8515515
11
5.0558135
21
-5.0558135
0
LINE
8
layer0
10
5.0558135
20
-5.0558135
11
4.8515515
21
-5.2521558
0
LINE
8
layer0
10
4.8515515
20
-5.2521558
11
4.8369781
21
-5.2691052
0
LINE
8
layer0
10
4.8369781
20
-5.2691052
11
4.8284079
21
-5.2857505
0
LINE
8
layer0
10
4.8284079
20
-5.2857505
11
4.8227087
21
-5.3050121
0
LINE
8
layer0
10
4.8227087
20
-5.3050121
11
4.8199934
21
-5.3267768
0
LINE
8
layer0
10
4.8199934
20
-5.3267768
11
4.8203399
21
-5.3509245
0
LINE
8
layer0
10
4.8203399
20
-5.3509245
11
4.8238754
21
-5.377342
0
LINE
8
layer0
10
4.8238754
20
-5.377342
11
4.8306707
21
-5.4059021
0
LINE
8
layer0
10
4.8306707
20
-5.4059021
11
4.8408247
21
-5.4364774
0
LINE
8
layer0
10
4.8408247
20
-5.4364774
11
4.8544224
21
-5.4689406
0
LINE
8
layer0
10
4.8544224
20
-5.4689406
11
4.8922809
21
-5.5390008
0
LINE
8
layer0
10
4.8922809
20
-5.5390008
11
4.9448472
21
-5.6150006
0
LINE
8
layer0
10
4.9448472
20
-5.6150006
11
4.9771337
21
-5.6556875
0
LINE
8
layer0
10
4.9771337
20
-5.6556875
11
5.0179126
21
-5.7144552
0
LINE
8
layer0
10
5.0179126
20
-5.7144552
11
5.0785328
21
-5.8192272
0
LINE
8
layer0
10
5.0785328
20
-5.8192272
11
5.1142559
21
-5.8904753
0
LINE
8
layer0
10
5.1142559
20
-5.8904753
11
5.1535144
21
-5.9777181
0
LINE
8
layer0
10
5.1535144
20
-5.9777181
11
5.1929073
21
-6.0760837
0
LINE
8
layer0
10
5.1929073
20
-6.0760837
11
5.2326962
21
-6.1887753
0
LINE
8
layer0
10
5.2326962
20
-6.1887753
11
5.2723013
21
-6.3179849
0
LINE
8
layer0
10
5.2723013
20
-6.3179849
11
5.3091911
21
-6.4592578
0
LINE
8
layer0
10
5.3091911
20
-6.4592578
11
5.3433514
21
-6.6168083
0
LINE
8
layer0
10
5.3433514
20
-6.6168083
11
5.3726468
21
-6.785828
0
LINE
8
layer0
10
5.3726468
20
-6.785828
11
5.3946757
21
-6.9525001
0
ARC
8
layer0
10
-0.0000069
20
0.0000102
40
8.8
50
304.1909261
51
307.809069
0
LINE
8
layer0
10
4.945174
20
-7.2790821
11
4.7934668
21
-7.2066269
0
LINE
8
layer0
10
4.7934668
20
-7.2066269
11
4.6417722
21
-7.1265354
0
LINE
8
layer0
10
4.6417722
20
-7.1265354
11
4.502489
21
-7.0453612
0
LINE
8
layer0
10
4.502489
20
-7.0453612
11
4.3795301
21
-6.9666212
0
LINE
8
layer0
10
4.3795301
20
-6.9666212
11
4.268883
21
-6.8890266
0
LINE
8
layer0
10
4.268883
20
-6.8890266
11
4.1740024
21
-6.8163615
0
LINE
8
layer0
10
4.1740024
20
-6.8163615
11
4.0926242
21
-6.7485
0
LINE
8
layer0
10
4.0926242
20
-6.7485
11
4.0217829
21
-6.6842033
0
LINE
8
layer0
10
4.0217829
20
-6.6842033
11
3.965061
21
-6.6282118
0
LINE
8
layer0
10
3.965061
20
-6.6282118
11
3.8841496
21
-6.5381822
0
LINE
8
layer0
10
3.8841496
20
-6.5381822
11
3.8408596
21
-6.481239
0
LINE
8
layer0
10
3.8408596
20
-6.481239
11
3.8121411
21
-6.4379598
0
LINE
8
layer0
10
3.8121411
20
-6.4379598
11
3.7561048
21
-6.364481
0
LINE
8
layer0
10
3.7561048
20
-6.364481
11
3.7011726
21
-6.3068257
0
LINE
8
layer0
10
3.7011726
20
-6.3068257
11
3.6745001
21
-6.2838618
0
LINE
8
layer0
10
3.6745001
20
-6.2838618
11
3.648559
21
-6.2647564
0
LINE
8
layer0
10
3.648559
20
-6.2647564
11
3.6234967
21
-6.2494682
0
LINE
8
layer0
10
3.6234967
20
-6.2494682
11
3.5994647
21
-6.2379422
0
LINE
8
layer0
10
3.5994647
20
-6.2379422
11
3.5766059
21
-6.2301507
0
LINE
8
layer0
10
3.5766059
20
-6.2301507
11
3.5550674
21
-6.2260074
0
LINE
8
layer0
10
3.5550674
20
-6.2260074
11
3.5349873
21
-6.2254756
0
LINE
8
layer0
10
3.5349873
20
-6.2254756
11
3.5165084
21
-6.2284826
0
LINE
8
layer0
10
3.5165084
20
-6.2284826
11
3.4958851
21
-6.2371051
0
LINE
8
layer0
10
3.4958851
20
-6.2371051
11
3.2460321
21
-6.3706966
0
LINE
8
layer0
10
3.2460321
20
-6.3706966
11
2.9910943
21
-6.4943089
0
LINE
8
layer0
10
2.9910943
20
-6.4943089
11
2.9719965
21
-6.5059252
0
LINE
8
layer0
10
2.9719965
20
-6.5059252
11
2.9587021
21
-6.5191075
0
LINE
8
layer0
10
2.9587021
20
-6.5191075
11
2.9473296
21
-6.5356652
0
LINE
8
layer0
10
2.9473296
20
-6.5356652
11
2.9380215
21
-6.5555257
0
LINE
8
layer0
10
2.9380215
20
-6.5555257
11
2.930889
21
-6.5785985
0
LINE
8
layer0
10
2.930889
20
-6.5785985
11
2.9260881
21
-6.6048156
0
LINE
8
layer0
10
2.9260881
20
-6.6048156
11
2.9237252
21
-6.6340777
0
LINE
8
layer0
10
2.9237252
20
-6.6340777
11
2.923934
21
-6.6662943
0
LINE
8
layer0
10
2.923934
20
-6.6662943
11
2.9268345
21
-6.7013706
0
LINE
8
layer0
10
2.9268345
20
-6.7013706
11
2.9411903
21
-6.7797007
0
LINE
8
layer0
10
2.9411903
20
-6.7797007
11
2.9676986
21
-6.8682247
0
LINE
8
layer0
10
2.9676986
20
-6.8682247
11
2.9858319
21
-6.9168974
0
LINE
8
layer0
10
2.9858319
20
-6.9168974
11
3.0064547
21
-6.9853901
0
LINE
8
layer0
10
3.0064547
20
-6.9853901
11
3.0317316
21
-7.1037669
0
LINE
8
layer0
10
3.0317316
20
-7.1037669
11
3.0436894
21
-7.1825669
0
LINE
8
layer0
10
3.0436894
20
-7.1825669
11
3.054067
21
-7.2776713
0
LINE
8
layer0
10
3.054067
20
-7.2776713
11
3.0611352
21
-7.3833956
0
LINE
8
layer0
10
3.0611352
20
-7.3833956
11
3.0641531
21
-7.5028672
0
LINE
8
layer0
10
3.0641531
20
-7.5028672
11
3.0618918
21
-7.6379915
0
LINE
8
layer0
10
3.0618918
20
-7.6379915
11
3.0533203
21
-7.7837495
0
LINE
8
layer0
10
3.0533203
20
-7.7837495
11
3.037123
21
-7.944145
0
LINE
8
layer0
10
3.037123
20
-7.944145
11
3.0127546
21
-8.1139451
0
LINE
8
layer0
10
3.0127546
20
-8.1139451
11
2.9822008
21
-8.279267
0
ARC
8
layer0
10
-0.0000034
20
0.0000118
40
8.8
50
286.1909263
51
289.809069
0
LINE
8
layer0
10
2.4537799
20
-8.4509613
11
2.3318876
21
-8.3351722
0
LINE
8
layer0
10
2.3318876
20
-8.3351722
11
2.2123672
21
-8.2121244
0
LINE
8
layer0
10
2.2123672
20
-8.2121244
11
2.1049851
21
-8.0918823
0
LINE
8
layer0
10
2.1049851
20
-8.0918823
11
2.0123762
21
-7.9789997
0
LINE
8
layer0
10
2.0123762
20
-7.9789997
11
1.9311227
21
-7.8710111
0
LINE
8
layer0
10
1.9311227
20
-7.8710111
11
1.8633406
21
-7.7725827
0
LINE
8
layer0
10
1.8633406
20
-7.7725827
11
1.8069157
21
-7.6828953
0
LINE
8
layer0
10
1.8069157
20
-7.6828953
11
1.7594104
21
-7.5998544
0
LINE
8
layer0
10
1.7594104
20
-7.5998544
11
1.722767
21
-7.5290753
0
LINE
8
layer0
10
1.722767
20
-7.5290753
11
1.6736363
21
-7.418449
0
LINE
8
layer0
10
1.6736363
20
-7.418449
11
1.6500615
21
-7.3509155
0
LINE
8
layer0
10
1.6500615
20
-7.3509155
11
1.6361226
21
-7.30088
0
LINE
8
layer0
10
1.6361226
20
-7.30088
11
1.6055352
21
-7.2136814
0
LINE
8
layer0
10
1.6055352
20
-7.2136814
11
1.571108
21
-7.1418729
0
LINE
8
layer0
10
1.571108
20
-7.1418729
11
1.5528372
21
-7.1117907
0
LINE
8
layer0
10
1.5528372
20
-7.1117907
11
1.5340696
21
-7.0856042
0
LINE
8
layer0
10
1.5340696
20
-7.0856042
11
1.5149583
21
-7.0633195
0
LINE
8
layer0
10
1.5149583
20
-7.0633195
11
1.4956642
21
-7.0449314
0
LINE
8
layer0
10
1.4956642
20
-7.0449314
11
1.4763319
21
-7.0304574
0
LINE
8
layer0
10
1.4763319
20
-7.0304574
11
1.4571279
21
-7.0198611
0
LINE
8
layer0
10
1.4571279
20
-7.0198611
11
1.438195
21
-7.0131503
0
LINE
8
layer0
10
1.438195
20
-7.0131503
11
1.4196913
21
-7.0102998
0
LINE
8
layer0
10
1.4196913
20
-7.0102998
11
1.3974129
21
-7.0121274
0
LINE
8
layer0
10
1.3974129
20
-7.0121274
11
1.1185064
21
-7.0619716
0
LINE
8
layer0
10
1.1185064
20
-7.0619716
11
0.8378479
21
-7.1007538
0
LINE
8
layer0
10
0.8378479
20
-7.1007538
11
0.8160952
21
-7.1059
0
LINE
8
layer0
10
0.8160952
20
-7.1059
11
0.7993779
21
-7.1143289
0
LINE
8
layer0
10
0.7993779
20
-7.1143289
11
0.7834454
21
-7.1265619
0
LINE
8
layer0
10
0.7834454
20
-7.1265619
11
0.7684557
21
-7.142574
0
LINE
8
layer0
10
0.7684557
20
-7.142574
11
0.7545424
21
-7.1623135
0
LINE
8
layer0
10
0.7545424
20
-7.1623135
11
0.7418748
21
-7.1857639
0
LINE
8
layer0
10
0.7418748
20
-7.1857639
11
0.7305852
21
-7.2128636
0
LINE
8
layer0
10
0.7305852
20
-7.2128636
11
0.7208283
21
-7.243568
0
LINE
8
layer0
10
0.7208283
20
-7.243568
11
0.7127476
21
-7.2778238
0
LINE
8
layer0
10
0.7127476
20
-7.2778238
11
0.7021954
21
-7.3567563
0
LINE
8
layer0
10
0.7021954
20
-7.3567563
11
0.7000509
21
-7.4491392
0
LINE
8
layer0
10
0.7000509
20
-7.4491392
11
0.702256
21
-7.5010331
0
LINE
8
layer0
10
0.702256
20
-7.5010331
11
0.7007041
21
-7.5725463
0
LINE
8
layer0
10
0.7007041
20
-7.5725463
11
0.6881634
21
-7.6929404
0
LINE
8
layer0
10
0.6881634
20
-7.6929404
11
0.6751854
21
-7.7715788
0
LINE
8
layer0
10
0.6751854
20
-7.7715788
11
0.6556662
21
-7.8652353
0
LINE
8
layer0
10
0.6556662
20
-7.8652353
11
0.6297179
21
-7.9679693
0
LINE
8
layer0
10
0.6297179
20
-7.9679693
11
0.5956693
21
-8.0825261
0
LINE
8
layer0
10
0.5956693
20
-8.0825261
11
0.551763
21
-8.2103381
0
LINE
8
layer0
10
0.551763
20
-8.2103381
11
0.4985693
21
-8.3463135
0
LINE
8
layer0
10
0.4985693
20
-8.3463135
11
0.4335998
21
-8.4938535
0
LINE
8
layer0
10
0.4335998
20
-8.4938535
11
0.357953
21
-8.6478127
0
LINE
8
layer0
10
0.357953
20
-8.6478127
11
0.2778073
21
-8.7956015
0
ARC
8
layer0
10
0
20
0.0000124
40
8.8
50
268.1909283
51
271.8090717
0
LINE
8
layer0
10
-0.2778073
20
-8.7956015
11
-0.357953
21
-8.6478127
0
LINE
8
layer0
10
-0.357953
20
-8.6478127
11
-0.4335998
21
-8.4938535
0
LINE
8
layer0
10
-0.4335998
20
-8.4938535
11
-0.4985693
21
-8.3463135
0
LINE
8
layer0
10
-0.4985693
20
-8.3463135
11
-0.551763
21
-8.2103381
0
LINE
8
layer0
10
-0.551763
20
-8.2103381
11
-0.5956693
21
-8.0825261
0
LINE
8
layer0
10
-0.5956693
20
-8.0825261
11
-0.6297179
21
-7.9679693
0
LINE
8
layer0
10
-0.6297179
20
-7.9679693
11
-0.6556662
21
-7.8652353
0
LINE
8
layer0
10
-0.6556662
20
-7.8652353
11
-0.6751854
21
-7.7715788
0
LINE
8
layer0
10
-0.6751854
20
-7.7715788
11
-0.6881634
21
-7.6929404
0
LINE
8
layer0
10
-0.6881634
20
-7.6929404
11
-0.7007041
21
-7.5725463
0
LINE
8
layer0
10
-0.7007041
20
-7.5725463
11
-0.702256
21
-7.5010331
0
LINE
8
layer0
10
-0.702256
20
-7.5010331
11
-0.7000509
21
-7.4491392
0
LINE
8
layer0
10
-0.7000509
20
-7.4491392
11
-0.7021954
21
-7.3567563
0
LINE
8
layer0
10
-0.7021954
20
-7.3567563
11
-0.7127476
21
-7.2778238
0
LINE
8
layer0
10
-0.7127476
20
-7.2778238
11
-0.7208283
21
-7.243568
0
LINE
8
layer0
10
-0.7208283
20
-7.243568
11
-0.7305852
21
-7.2128636
0
LINE
8
layer0
10
-0.7305852
20
-7.2128636
11
-0.7418748
21
-7.1857639
0
LINE
8
layer0
10
-0.7418748
20
-7.1857639
11
-0.7545424
21
-7.1623135
0
LINE
8
layer0
10
-0.7545424
20
-7.1623135
11
-0.7684557
21
-7.142574
0
LINE
8
layer0
10
-0.7684557
20
-7.142574
11
-0.7834454
21
-7.1265619
0
LINE
8
layer0
10
-0.7834454
20
-7.1265619
11
-0.7993779
21
-7.1143289
0
LINE
8
layer0
10
-0.7993779
20
-7.1143289
11
-0.8160952
21
-7.1059
0
LINE
8
layer0
10
-0.8160952
20
-7.1059
11
-0.8378479
21
-7.1007538
0
LINE
8
layer0
10
-0.8378479
20
-7.1007538
11
-1.1185064
21
-7.0619716
0
LINE
8
layer0
10
-1.1185064
20
-7.0619716
11
-1.3974129
21
-7.0121274
0
LINE
8
layer0
10
-1.3974129
20
-7.0121274
11
-1.4196913
21
-7.0102998
0
LINE
8
layer0
10
-1.4196913
20
-7.0102998
11
-1.438195
21
-7.0131503
0
LINE
8
layer0
10
-1.438195
20
-7.0131503
11
-1.4571279
21
-7.0198611
0
LINE
8
layer0
10
-1.4571279
20
-7.0198611
11
-1.4763319
21
-7.0304574
0
LINE
8
layer0
10
-1.4763319
20
-7.0304574
11
-1.4956642
21
-7.0449314
0
LINE
8
layer0
10
-1.4956642
20
-7.0449314
11
-1.5149583
21
-7.0633195
0
LINE
8
layer0
10
-1.5149583
20
-7.0633195
11
-1.5340696
21
-7.0856042
0
LINE
8
layer0
10
-1.5340696
20
-7.0856042
11
-1.5528372
21
-7.1117907
0
LINE
8
layer0
10
-1.5528372
20
-7.1117907
11
-1.571108
21
-7.1418729
0
LINE
8
layer0
10
-1.571108
20
-7.1418729
11
-1.6055352
21
-7.2136814
0
LINE
8
layer0
10
-1.6055352
20
-7.2136814
11
-1.6361226
21
-7.30088
0
LINE
8
layer0
10
-1.6361226
20
-7.30088
11
-1.6500615
21
-7.3509155
0
LINE
8
layer0
10
-1.6500615
20
-7.3509155
11
-1.6736363
21
-7.418449
0
LINE
8
layer0
10
-1.6736363
20
-7.418449
11
-1.722767
21
-7.5290753
0
LINE
8
layer0
10
-1.722767
20
-7.5290753
11
-1.7594104
21
-7.5998544
0
LINE
8
layer0
10
-1.7594104
20
-7.5998544
11
-1.8069157
21
-7.6828953
0
LINE
8
layer0
10
-1.8069157
20
-7.6828953
11
-1.8633406
21
-7.7725827
0
LINE
8
layer0
10
-1.8633406
20
-7.7725827
11
-1.9311227
21
-7.8710111
0
LINE
8
layer0
10
-1.9311227
20
-7.8710111
11
-2.0123762
21
-7.9789997
0
LINE
8
layer0
10
-2.0123762
20
-7.9789997
11
-2.1049851
21
-8.0918823
0
LINE
8
layer0
10
-2.1049851
20
-8.0918823
11
-2.2123672
21
-8.2121244
0
LINE
8
layer0
10
-2.2123672
20
-8.2121244
11
-2.3318876
21
-8.3351722
0
LINE
8
layer0
10
-2.3318876
20
-8.3351722
11
-2.4537799
21
-8.4509613
0
ARC
8
layer0
10
0.0000035
20
0.0000118
40
8.8
50
250.190931
51
253.8090737
0
LINE
8
layer0
10
-2.9822008
20
-8.279267
11
-3.0127546
21
-8.1139451
0
LINE
8
layer0
10
-3.0127546
20
-8.1139451
11
-3.037123
21
-7.944145
0
LINE
8
layer0
10
-3.037123
20
-7.944145
11
-3.0533203
21
-7.7837495
0
LINE
8
layer0
10
-3.0533203
20
-7.7837495
11
-3.0618918
21
-7.6379915
0
LINE
8
layer0
10
-3.0618918
20
-7.6379915
11
-3.0641531
21
-7.5028672
0
LINE
8
layer0
10
-3.0641531
20
-7.5028672
11
-3.0611352
21
-7.3833956
0
LINE
8
layer0
10
-3.0611352
20
-7.3833956
11
-3.054067
21
-7.2776713
0
LINE
8
layer0
10
-3.054067
20
-7.2776713
11
-3.0436894
21
-7.1825669
0
LINE
8
layer0
10
-3.0436894
20
-7.1825669
11
-3.0317316
21
-7.1037669
0
LINE
8
layer0
10
-3.0317316
20
-7.1037669
11
-3.0064547
21
-6.9853901
0
LINE
8
layer0
10
-3.0064547
20
-6.9853901
11
-2.9858319
21
-6.9168974
0
LINE
8
layer0
10
-2.9858319
20
-6.9168974
11
-2.9676986
21
-6.8682247
0
LINE
8
layer0
10
-2.9676986
20
-6.8682247
11
-2.9411903
21
-6.7797007
0
LINE
8
layer0
10
-2.9411903
20
-6.7797007
11
-2.9268345
21
-6.7013706
0
LINE
8
layer0
10
-2.9268345
20
-6.7013706
11
-2.923934
21
-6.6662943
0
LINE
8
layer0
10
-2.923934
20
-6.6662943
11
-2.9237252
21
-6.6340777
0
LINE
8
layer0
10
-2.9237252
20
-6.6340777
11
-2.9260881
21
-6.6048156
0
LINE
8
layer0
10
-2.9260881
20
-6.6048156
11
-2.930889
21
-6.5785985
0
LINE
8
layer0
10
-2.930889
20
-6.5785985
11
-2.9380215
21
-6.5555257
0
LINE
8
layer0
10
-2.9380215
20
-6.5555257
11
-2.9473296
21
-6.5356652
0
LINE
8
layer0
10
-2.9473296
20
-6.5356652
11
-2.9587021
21
-6.5191075
0
LINE
8
layer0
10
-2.9587021
20
-6.5191075
11
-2.9719965
21
-6.5059252
0
LINE
8
layer0
10
-2.9719965
20
-6.5059252
11
-2.9910943
21
-6.4943089
0
LINE
8
layer0
10
-2.9910943
20
-6.4943089
11
-3.2460321
21
-6.3706966
0
LINE
8
layer0
10
-3.2460321
20
-6.3706966
11
-3.4958851
21
-6.2371051
0
LINE
8
layer0
10
-3.4958851
20
-6.2371051
11
-3.5165084
21
-6.2284826
0
LINE
8
layer0
10
-3.5165084
20
-6.2284826
11
-3.5349873
21
-6.2254756
0
LINE
8
layer0
10
-3.5349873
20
-6.2254756
11
-3.5550674
21
-6.2260074
0
LINE
8
layer0
10
-3.5550674
20
-6.2260074
11
-3.5766059
21
-6.2301507
0
LINE
8
layer0
10
-3.5766059
20
-6.2301507
11
-3.5994647
21
-6.2379422
0
LINE
8
layer0
10
-3.5994647
20
-6.2379422
11
-3.6234967
21
-6.2494682
0
LINE
8
layer0
10
-3.6234967
20
-6.2494682
11
-3.648559
21
-6.2647564
0
LINE
8
layer0
10
-3.648559
20
-6.2647564
11
-3.6745001
21
-6.2838618
0
LINE
8
layer0
10
-3.6745001
20
-6.2838618
11
-3.7011726
21
-6.3068257
0
LINE
8
layer0
10
-3.7011726
20
-6.3068257
11
-3.7561048
21
-6.364481
0
LINE
8
layer0
10
-3.7561048
20
-6.364481
11
-3.8121411
21
-6.4379598
0
LINE
8
layer0
10
-3.8121411
20
-6.4379598
11
-3.8408596
21
-6.481239
0
LINE
8
layer0
10
-3.8408596
20
-6.481239
11
-3.8841496
21
-6.5381822
0
LINE
8
layer0
10
-3.8841496
20
-6.5381822
11
-3.965061
21
-6.6282118
0
LINE
8
layer0
10
-3.965061
20
-6.6282118
11
-4.0217829
21
-6.6842033
0
LINE
8
layer0
10
-4.0217829
20
-6.6842033
11
-4.0926242
21
-6.7485
0
LINE
8
layer0
10
-4.0926242
20
-6.7485
11
-4.1740024
21
-6.8163615
0
LINE
8
layer0
10
-4.1740024
20
-6.8163615
11
-4.268883
21
-6.8890266
0
LINE
8
layer0
10
-4.268883
20
-6.8890266
11
-4.3795301
21
-6.9666212
0
LINE
8
layer0
10
-4.3795301
20
-6.9666212
11
-4.502489
21
-7.0453612
0
LINE
8
layer0
10
-4.502489
20
-7.0453612
11
-4.6417722
21
-7.1265354
0
LINE
8
layer0
10
-4.6417722
20
-7.1265354
11
-4.7934668
21
-7.2066269
0
LINE
8
layer0
10
-4.7934668
20
-7.2066269
11
-4.945174
21
-7.2790821
0
ARC
8
layer0
10
0.000007
20
0.0000102
40
8.8
50
232.190931
51
235.8090739
0
LINE
8
layer0
10
-5.3946757
20
-6.9525001
11
-5.3726468
21
-6.785828
0
LINE
8
layer0
10
-5.3726468
20
-6.785828
11
-5.3433514
21
-6.6168083
0
LINE
8
layer0
10
-5.3433514
20
-6.6168083
11
-5.3091911
21
-6.4592578
0
LINE
8
layer0
10
-5.3091911
20
-6.4592578
11
-5.2723013
21
-6.3179849
0
LINE
8
layer0
10
-5.2723013
20
-6.3179849
11
-5.2326962
21
-6.1887753
0
LINE
8
layer0
10
-5.2326962
20
-6.1887753
11
-5.1929073
21
-6.0760837
0
LINE
8
layer0
10
-5.1929073
20
-6.0760837
11
-5.1535144
21
-5.9777181
0
LINE
8
layer0
10
-5.1535144
20
-5.9777181
11
-5.1142559
21
-5.8904753
0
LINE
8
layer0
10
-5.1142559
20
-5.8904753
11
-5.0785328
21
-5.8192272
0
LINE
8
layer0
10
-5.0785328
20
-5.8192272
11
-5.0179126
21
-5.7144552
0
LINE
8
layer0
10
-5.0179126
20
-5.7144552
11
-4.9771337
21
-5.6556875
0
LINE
8
layer0
10
-4.9771337
20
-5.6556875
11
-4.9448472
21
-5.6150006
0
LINE
8
layer0
10
-4.9448472
20
-5.6150006
11
-4.8922809
21
-5.5390008
0
LINE
8
layer0
10
-4.8922809
20
-5.5390008
11
-4.8544224
21
-5.4689406
0
LINE
8
layer0
10
-4.8544224
20
-5.4689406
11
-4.8408247
21
-5.4364774
0
LINE
8
layer0
10
-4.8408247
20
-5.4364774
11
-4.8306707
21
-5.4059021
0
LINE
8
layer0
10
-4.8306707
20
-5.4059021
11
-4.8238754
21
-5.377342
0
LINE
8
layer0
10
-4.8238754
20
-5.377342
11
-4.8203399
21
-5.3509245
0
LINE
8
layer0
10
-4.8203399
20
-5.3509245
11
-4.8199934
21
-5.3267768
0
LINE
8
layer0
10
-4.8199934
20
-5.3267768
11
-4.8227087
21
-5.3050121
0
LINE
8
layer0
10
-4.8227087
20
-5.3050121
11
-4.8284079
21
-5.2857505
0
LINE
8
layer0
10
-4.8284079
20
-5.2857505
11
-4.8369781
21
-5.2691052
0
LINE
8
layer0
10
-4.8369781
20
-5.2691052
11
-4.8515515
21
-5.2521558
0
LINE
8
layer0
10
-4.8515515
20
-5.2521558
11
-5.0558135
21
-5.0558135
0
LINE
8
layer0
10
-5.0558135
20
-5.0558135
11
-5.2521558
21
-4.8515515
0
LINE
8
layer0
10
-5.2521558
20
-4.8515515
11
-5.2691052
21
-4.8369781
0
LINE
8
layer0
10
-5.2691052
20
-4.8369781
11
-5.2857505
21
-4.8284079
0
LINE
8
layer0
10
-5.2857505
20
-4.8284079
11
-5.3050121
21
-4.8227087
0
LINE
8
layer0
10
-5.3050121
20
-4.8227087
11
-5.3267768
21
-4.8199934
0
LINE
8
layer0
10
-5.3267768
20
-4.8199934
11
-5.3509245
21
-4.8203399
0
LINE
8
layer0
10
-5.3509245
20
-4.8203399
11
-5.377342
21
-4.8238754
0
LINE
8
layer0
10
-5.377342
20
-4.8238754
11
-5.4059021
21
-4.8306707
0
LINE
8
layer0
10
-5.4059021
20
-4.8306707
11
-5.4364774
21
-4.8408247
0
LINE
8
layer0
10
-5.4364774
20
-4.8408247
11
-5.4689406
21
-4.8544224
0
LINE
8
layer0
10
-5.4689406
20
-4.8544224
11
-5.5390008
21
-4.8922809
0
LINE
8
layer0
10
-5.5390008
20
-4.8922809
11
-5.6150006
21
-4.9448472
0
LINE
8
layer0
10
-5.6150006
20
-4.9448472
11
-5.6556875
21
-4.9771337
0
LINE
8
layer0
10
-5.6556875
20
-4.9771337
11
-5.7144552
21
-5.0179126
0
LINE
8
layer0
10
-5.7144552
20
-5.0179126
11
-5.8192272
21
-5.0785328
0
LINE
8
layer0
10
-5.8192272
20
-5.0785328
11
-5.8904753
21
-5.1142559
0
LINE
8
layer0
10
-5.8904753
20
-5.1142559
11
-5.9777181
21
-5.1535144
0
LINE
8
layer0
10
-5.9777181
20
-5.1535144
11
-6.0760837
21
-5.1929073
0
LINE
8
layer0
10
-6.0760837
20
-5.1929073
11
-6.1887753
21
-5.2326962
0
LINE
8
layer0
10
-6.1887753
20
-5.2326962
11
-6.3179849
21
-5.2723013
0
LINE
8
layer0
10
-6.3179849
20
-5.2723013
11
-6.4592578
21
-5.3091911
0
LINE
8
layer0
10
-6.4592578
20
-5.3091911
11
-6.6168083
21
-5.3433514
0
LINE
8
layer0
10
-6.6168083
20
-5.3433514
11
-6.785828
21
-5.3726468
0
LINE
8
layer0
10
-6.785828
20
-5.3726468
11
-6.9525001
21
-5.3946757
0
ARC
8
layer0
10
0.0000102
20
0.0000069
40
8.8
50
214.1909261
51
217.809069
0
LINE
8
layer0
10
-7.2790821
20
-4.945174
11
-7.2066269
21
-4.7934668
0
LINE
8
layer0
10
-7.2066269
20
-4.7934668
11
-7.1265354
21
-4.6417722
0
LINE
8
layer0
10
-7.1265354
20
-4.6417722
11
-7.0453612
21
-4.502489
0
LINE
8
layer0
10
-7.0453612
20
-4.502489
11
-6.9666212
21
-4.3795301
0
LINE
8
layer0
10
-6.9666212
20
-4.3795301
11
-6.8890266
21
-4.268883
0
LINE
8
layer0
10
-6.8890266
20
-4.268883
11
-6.8163615
21
-4.1740024
0
LINE
8
layer0
10
-6.8163615
20
-4.1740024
11
-6.7485
21
-4.0926242
0
LINE
8
layer0
10
-6.7485
20
-4.0926242
11
-6.6842033
21
-4.0217829
0
LINE
8
layer0
10
-6.6842033
20
-4.0217829
11
-6.6282118
21
-3.965061
0
LINE
8
layer0
10
-6.6282118
20
-3.965061
11
-6.5381822
21
-3.8841496
0
LINE
8
layer0
10
-6.5381822
20
-3.8841496
11
-6.481239
21
-3.8408596
0
LINE
8
layer0
10
-6.481239
20
-3.8408596
11
-6.4379598
21
-3.8121411
0
LINE
8
layer0
10
-6.4379598
20
-3.8121411
11
-6.364481
21
-3.7561048
0
LINE
8
layer0
10
-6.364481
20
-3.7561048
11
-6.3068257
21
-3.7011726
0
LINE
8
layer0
10
-6.3068257
20
-3.7011726
11
-6.2838618
21
-3.6745001
0
LINE
8
layer0
10
-6.2838618
20
-3.6745001
11
-6.2647564
21
-3.648559
0
LINE
8
layer0
10
-6.2647564
20
-3.648559
11
-6.2494682
21
-3.6234967
0
LINE
8
layer0
10
-6.2494682
20
-3.6234967
11
-6.2379422
21
-3.5994647
0
LINE
8
layer0
10
-6.2379422
20
-3.5994647
11
-6.2301507
21
-3.5766059
0
LINE
8
layer0
10
-6.2301507
20
-3.5766059
11
-6.2260074
21
-3.5550674
0
LINE
8
layer0
10
-6.2260074
20
-3.5550674
11
-6.2254756
21
-3.5349873
0
LINE
8
layer0
10
-6.2254756
20
-3.5349873
11
-6.2284826
21
-3.5165084
0
LINE
8
layer0
10
-6.2284826
20
-3.5165084
11
-6.2371051
21
-3.4958851
0
LINE
8
layer0
10
-6.2371051
20
-3.4958851
11
-6.3706966
21
-3.2460321
0
LINE
8
layer0
10
-6.3706966
20
-3.2460321
11
-6.4943089
21
-2.9910943
0
LINE
8
layer0
10
-6.4943089
20
-2.9910943
11
-6.5059252
21
-2.9719965
0
LINE
8
layer0
10
-6.5059252
20
-2.9719965
11
-6.5191075
21
-2.9587021
0
LINE
8
layer0
10
-6.5191075
20
-2.9587021
11
-6.5356652
21
-2.9473296
0
LINE
8
layer0
10
-6.5356652
20
-2.9473296
11
-6.5555257
21
-2.9380215
0
LINE
8
layer0
10
-6.5555257
20
-2.9380215
11
-6.5785985
21
-2.930889
0
LINE
8
layer0
10
-6.5785985
20
-2.930889
11
-6.6048156
21
-2.9260881
0
LINE
8
layer0
10
-6.6048156
20
-2.9260881
11
-6.6340777
21
-2.9237252
0
LINE
8
layer0
10
-6.6340777
20
-2.9237252
11
-6.6662943
21
-2.923934
0
LINE
8
layer0
10
-6.6662943
20
-2.923934
11
-6.7013706
21
-2.9268345
0
LINE
8
layer0
10
-6.7013706
20
-2.9268345
11
-6.7797007
21
-2.9411903
0
LINE
8
layer0
10
-6.7797007
20
-2.9411903
11
-6.8682247
21
-2.9676986
0
LINE
8
layer0
10
-6.8682247
20
-2.9676986
11
-6.9168974
21
-2.9858319
0
LINE
8
layer0
10
-6.9168974
20
-2.9858319
11
-6.9853901
21
-3.0064547
0
LINE
8
layer0
10
-6.9853901
20
-3.0064547
11
-7.1037669
21
-3.0317316
0
LINE
8
layer0
10
-7.1037669
20
-3.0317316
11
-7.1825669
21
-3.0436894
0
LINE
8
layer0
10
-7.1825669
20
-3.0436894
11
-7.2776713
21
-3.054067
0
LINE
8
layer0
10
-7.2776713
20
-3.054067
11
-7.3833956
21
-3.0611352
0
LINE
8
layer0
10
-7.3833956
20
-3.0611352
11
-7.5028672
21
-3.0641531
0
LINE
8
layer0
10
-7.5028672
20
-3.0641531
11
-7.6379915
21
-3.0618918
0
LINE
8
layer0
10
-7.6379915
20
-3.0618918
11
-7.7837495
21
-3.0533203
0
LINE
8
layer0
10
-7.7837495
20
-3.0533203
11
-7.944145
21
-3.037123
0
LINE
8
layer0
10
-7.944145
20
-3.037123
11
-8.1139451
21
-3.0127546
0
LINE
8
layer0
10
-8.1139451
20
-3.0127546
11
-8.279267
21
-2.9822008
0
ARC
8
layer0
10
0.0000118
20
0.0000034
40
8.8
50
196.1909263
51
199.809069
0
LINE
8
layer0
10
-8.4509613
20
-2.4537799
11
-8.3351722
21
-2.3318876
0
LINE
8
layer0
10
-8.3351722
20
-2.3318876
11
-8.2121244
21
-2.2123672
0
LINE
8
layer0
10
-8.2121244
20
-2.2123672
11
-8.0918823
21
-2.1049851
0
LINE
8
layer0
10
-8.0918823
20
-2.1049851
11
-7.9789997
21
-2.0123762
0
LINE
8
layer0
10
-7.9789997
20
-2.0123762
11
-7.8710111
21
-1.9311227
0
LINE
8
layer0
10
-7.8710111
20
-1.9311227
11
-7.7725827
21
-1.8633406
0
LINE
8
layer0
10
-7.7725827
20
-1.8633406
11
-7.6828953
21
-1.8069157
0
LINE
8
layer0
10
-7.6828953
20
-1.8069157
11
-7.5998544
21
-1.7594104
0
LINE
8
layer0
10
-7.5998544
20
-1.7594104
11
-7.5290753
21
-1.722767
0
LINE
8
layer0
10
-7.5290753
20
-1.722767
11
-7.418449
21
-1.6736363
0
LINE
8
layer0
10
-7.418449
20
-1.6736363
11
-7.3509155
21
-1.6500615
0
LINE
8
layer0
10
-7.3509155
20
-1.6500615
11
-7.30088
21
-1.6361226
0
LINE
8
layer0
10
-7.30088
20
-1.6361226
11
-7.2136814
21
-1.6055352
0
LINE
8
layer0
10
-7.2136814
20
-1.6055352
11
-7.1418729
21
-1.571108
0
LINE
8
layer0
10
-7.1418729
20
-1.571108
11
-7.1117907
21
-1.5528372
0
LINE
8
layer0
10
-7.1117907
20
-1.5528372
11
-7.0856042
21
-1.5340696
0
LINE
8
layer0
10
-7.0856042
20
-1.5340696
11
-7.0633195
21
-1.5149583
0
LINE
8
layer0
10
-7.0633195
20
-1.5149583
11
-7.0449314
21
-1.4956642
0
LINE
8
layer0
10
-7.0449314
20
-1.4956642
11
-7.0304574
21
-1.4763319
0
LINE
8
layer0
10
-7.0304574
20
-1.4763319
11
-7.0198611
21
-1.4571279
0
LINE
8
layer0
10
-7.0198611
20
-1.4571279
11
-7.0131503
21
-1.438195
0
LINE
8
layer0
10
-7.0131503
20
-1.438195
11
-7.0102998
21
-1.4196913
0
LINE
8
layer0
10
-7.0102998
20
-1.4196913
11
-7.0121274
21
-1.3974129
0
LINE
8
layer0
10
-7.0121274
20
-1.3974129
11
-7.0619716
21
-1.1185064
0
LINE
8
layer0
10
-7.0619716
20
-1.1185064
11
-7.1007538
21
-0.8378479
0
LINE
8
layer0
10
-7.1007538
20
-0.8378479
11
-7.1059
21
-0.8160952
0
LINE
8
layer0
10
-7.1059
20
-0.8160952
11
-7.1143289
21
-0.7993779
0
LINE
8
layer0
10
-7.1143289
20
-0.7993779
11
-7.1265619
21
-0.7834454
0
LINE
8
layer0
10
-7.1265619
20
-0.7834454
11
-7.142574
21
-0.7684557
0
LINE
8
layer0
10
-7.142574
20
-0.7684557
11
-7.1623135
21
-0.7545424
0
LINE
8
layer0
10
-7.1623135
20
-0.7545424
11
-7.1857639
21
-0.7418748
0
LINE
8
layer0
10
-7.1857639
20
-0.7418748
11
-7.2128636
21
-0.7305852
0
LINE
8
layer0
10
-7.2128636
20
-0.7305852
11
-7.243568
21
-0.7208283
0
LINE
8
layer0
10
-7.243568
20
-0.7208283
11
-7.2778238
21
-0.7127476
0
LINE
8
layer0
10
-7.2778238
20
-0.7127476
11
-7.3567563
21
-0.7021954
0
LINE
8
layer0
10
-7.3567563
20
-0.7021954
11
-7.4491392
21
-0.7000509
0
LINE
8
layer0
10
-7.4491392
20
-0.7000509
11
-7.5010331
21
-0.702256
0
LINE
8
layer0
10
-7.5010331
20
-0.702256
11
-7.5725463
21
-0.7007041
0
LINE
8
layer0
10
-7.5725463
20
-0.7007041
11
-7.6929404
21
-0.6881634
0
LINE
8
layer0
10
-7.6929404
20
-0.6881634
11
-7.7715788
21
-0.6751854
0
LINE
8
layer0
10
-7.7715788
20
-0.6751854
11
-7.8652353
21
-0.6556662
0
LINE
8
layer0
10
-7.8652353
20
-0.6556662
11
-7.9679693
21
-0.6297179
0
LINE
8
layer0
10
-7.9679693
20
-0.6297179
11
-8.0825261
21
-0.5956693
0
LINE
8
layer0
10
-8.0825261
20
-0.5956693
11
-8.2103381
21
-0.551763
0
LINE
8
layer0
10
-8.2103381
20
-0.551763
11
-8.3463135
21
-0.4985693
0
LINE
8
layer0
10
-8.3463135
20
-0.4985693
11
-8.4938535
21
-0.4335998
0
LINE
8
layer0
10
-8.4938535
20
-0.4335998
11
-8.6478127
21
-0.357953
0
LINE
8
layer0
10
-8.6478127
20
-0.357953
11
-8.7956015
21
-0.2778073
0
ARC
8
layer0
10
0.0000124
20
0
40
8.8
50
178.1909283
51
181.8090717
0
LINE
8
layer0
10
-8.7956015
20
0.2778073
11
-8.6478127
21
0.357953
0
LINE
8
layer0
10
-8.6478127
20
0.357953
11
-8.4938535
21
0.4335998
0
LINE
8
layer0
10
-8.4938535
20
0.4335998
11
-8.3463135
21
0.4985693
0
LINE
8
layer0
10
-8.3463135
20
0.4985693
11
-8.2103381
21
0.551763
0
LINE
8
layer0
10
-8.2103381
20
0.551763
11
-8.0825261
21
0.5956693
0
LINE
8
layer0
10
-8.0825261
20
0.5956693
11
-7.9679693
21
0.6297179
0
LINE
8
layer0
10
-7.9679693
20
0.6297179
11
-7.8652353
21
0.6556662
0
LINE
8
layer0
10
-7.8652353
20
0.6556662
11
-7.7715788
21
0.6751854
0
LINE
8
layer0
10
-7.7715788
20
0.6751854
11
-7.6929404
21
0.6881634
0
LINE
8
layer0
10
-7.6929404
20
0.6881634
11
-7.5725463
21
0.7007041
0
LINE
8
layer0
10
-7.5725463
20
0.7007041
11
-7.5010331
21
0.702256
0
LINE
8
layer0
10
-7.5010331
20
0.702256
11
-7.4491392
21
0.7000509
0
LINE
8
layer0
10
-7.4491392
20
0.7000509
11
-7.3567563
21
0.7021954
0
LINE
8
layer0
10
-7.3567563
20
0.7021954
11
-7.2778238
21
0.7127476
0
LINE
8
layer0
10
-7.2778238
20
0.7127476
11
-7.243568
21
0.7208283
0
LINE
8
layer0
10
-7.243568
20
0.7208283
11
-7.2128636
21
0.7305852
0
LINE
8
layer0
10
-7.2128636
20
0.7305852
11
-7.1857639
21
0.7418748
0
LINE
8
layer0
10
-7.1857639
20
0.7418748
11
-7.1623135
21
0.7545424
0
LINE
8
layer0
10
-7.1623135
20
0.7545424
11
-7.142574
21
0.7684557
0
LINE
8
layer0
10
-7.142574
20
0.7684557
11
-7.1265619
21
0.7834454
0
LINE
8
layer0
10
-7.1265619
20
0.7834454
11
-7.1143289
21
0.7993779
0
LINE
8
layer0
10
-7.1143289
20
0.7993779
11
-7.1059
21
0.8160952
0
LINE
8
layer0
10
-7.1059
20
0.8160952
11
-7.1007538
21
0.8378479
0
LINE
8
layer0
10
-7.1007538
20
0.8378479
11
-7.0619716
21
1.1185064
0
LINE
8
layer0
10
-7.0619716
20
1.1185064
11
-7.0121274
21
1.3974129
0
LINE
8
layer0
10
-7.0121274
20
1.3974129
11
-7.0102998
21
1.4196913
0
LINE
8
layer0
10
-7.0102998
20
1.4196913
11
-7.0131503
21
1.438195
0
LINE
8
layer0
10
-7.0131503
20
1.438195
11
-7.0198611
21
1.4571279
0
LINE
8
layer0
10
-7.0198611
20
1.4571279
11
-7.0304574
21
1.4763319
0
LINE
8
layer0
10
-7.0304574
20
1.4763319
11
-7.0449314
21
1.4956642
0
LINE
8
layer0
10
-7.0449314
20
1.4956642
11
-7.0633195
21
1.5149583
0
LINE
8
layer0
10
-7.0633195
20
1.5149583
11
-7.0856042
21
1.5340696
0
LINE
8
layer0
10
-7.0856042
20
1.5340696
11
-7.1117907
21
1.5528372
0
LINE
8
layer0
10
-7.1117907
20
1.5528372
11
-7.1418729
21
1.571108
0
LINE
8
layer0
10
-7.1418729
20
1.571108
11
-7.2136814
21
1.6055352
0
LINE
8
layer0
10
-7.2136814
20
1.6055352
11
-7.30088
21
1.6361226
0
LINE
8
layer0
10
-7.30088
20
1.6361226
11
-7.3509155
21
1.6500615
0
LINE
8
layer0
10
-7.3509155
20
1.6500615
11
-7.418449
21
1.6736363
0
LINE
8
layer0
10
-7.418449
20
1.6736363
11
-7.5290753
21
1.722767
0
LINE
8
layer0
10
-7.5290753
20
1.722767
11
-7.5998544
21
1.7594104
0
LINE
8
layer0
10
-7.5998544
20
1.7594104
11
-7.6828953
21
1.8069157
0
LINE
8
layer0
10
-7.6828953
20
1.8069157
11
-7.7725827
21
1.8633406
0
LINE
8
layer0
10
-7.7725827
20
1.8633406
11
-7.8710111
21
1.9311227
0
LINE
8
layer0
10
-7.8710111
20
1.9311227
11
-7.9789997
21
2.0123762
0
LINE
8
layer0
10
-7.9789997
20
2.0123762
11
-8.0918823
21
2.1049851
0
LINE
8
layer0
10
-8.0918823
20
2.1049851
11
-8.2121244
21
2.2123672
0
LINE
8
layer0
10
-8.2121244
20
2.2123672
11
-8.3351722
21
2.3318876
0
LINE
8
layer0
10
-8.3351722
20
2.3318876
11
-8.4509613
21
2.4537799
0
ARC
8
layer0
10
0.0000118
20
-0.0000035
40
8.8
50
160.190931
51
163.8090737
0
LINE
8
layer0
10
-8.279267
20
2.9822008
11
-8.1139451
21
3.0127546
0
LINE
8
layer0
10
-8.1139451
20
3.0127546
11
-7.944145
21
3.037123
0
LINE
8
layer0
10
-7.944145
20
3.037123
11
-7.7837495
21
3.0533203
0
LINE
8
layer0
10
-7.7837495
20
3.0533203
11
-7.6379915
21
3.0618918
0
LINE
8
layer0
10
-7.6379915
20
3.0618918
11
-7.5028672
21
3.0641531
0
LINE
8
layer0
10
-7.5028672
20
3.0641531
11
-7.3833956
21
3.0611352
0
LINE
8
layer0
10
-7.3833956
20
3.0611352
11
-7.2776713
21
3.054067
0
LINE
8
layer0
10
-7.2776713
20
3.054067
11
-7.1825669
21
3.0436894
0
LINE
8
layer0
10
-7.1825669
20
3.0436894
11
-7.1037669
21
3.0317316
0
LINE
8
layer0
10
-7.1037669
20
3.0317316
11
-6.9853901
21
3.0064547
0
LINE
8
layer0
10
-6.9853901
20
3.0064547
11
-6.9168974
21
2.9858319
0
LINE
8
layer0
10
-6.9168974
20
2.9858319
11
-6.8682247
21
2.9676986
0
LINE
8
layer0
10
-6.8682247
20
2.9676986
11
-6.7797007
21
2.9411903
0
LINE
8
layer0
10
-6.7797007
20
2.9411903
11
-6.7013706
21
2.9268345
0
LINE
8
layer0
10
-6.7013706
20
2.9268345
11
-6.6662943
21
2.923934
0
LINE
8
layer0
10
-6.6662943
20
2.923934
11
-6.6340777
21
2.9237252
0
LINE
8
layer0
10
-6.6340777
20
2.9237252
11
-6.6048156
21
2.9260881
0
LINE
8
layer0
10
-6.6048156
20
2.9260881
11
-6.5785985
21
2.930889
0
LINE
8
layer0
10
-6.5785985
20
2.930889
11
-6.5555257
21
2.9380215
0
LINE
8
layer0
10
-6.5555257
20
2.9380215
11
-6.5356652
21
2.9473296
0
LINE
8
layer0
10
-6.5356652
20
2.9473296
11
-6.5191075
21
2.9587021
0
LINE
8
layer0
10
-6.5191075
20
2.9587021
11
-6.5059252
21
2.9719965
0
LINE
8
layer0
10
-6.5059252
20
2.9719965
11
-6.4943089
21
2.9910943
0
LINE
8
layer0
10
-6.4943089
20
2.9910943
11
-6.3706966
21
3.2460321
0
LINE
8
layer0
10
-6.3706966
20
3.2460321
11
-6.2371051
21
3.4958851
0
LINE
8
layer0
10
-6.2371051
20
3.4958851
11
-6.2284826
21
3.5165084
0
LINE
8
layer0
10
-6.2284826
20
3.5165084
11
-6.2254756
21
3.5349873
0
LINE
8
layer0
10
-6.2254756
20
3.5349873
11
-6.2260074
21
3.5550674
0
LINE
8
layer0
10
-6.2260074
20
3.5550674
11
-6.2301507
21
3.5766059
0
LINE
8
layer0
10
-6.2301507
20
3.5766059
11
-6.2379422
21
3.5994647
0
LINE
8
layer0
10
-6.2379422
20
3.5994647
11
-6.2494682
21
3.6234967
0
LINE
8
layer0
10
-6.2494682
20
3.6234967
11
-6.2647564
21
3.648559
0
LINE
8
layer0
10
-6.2647564
20
3.648559
11
-6.2838618
21
3.6745001
0
LINE
8
layer0
10
-6.2838618
20
3.6745001
11
-6.3068257
21
3.7011726
0
LINE
8
layer0
10
-6.3068257
20
3.7011726
11
-6.364481
21
3.7561048
0
LINE
8
layer0
10
-6.364481
20
3.7561048
11
-6.4379598
21
3.8121411
0
LINE
8
layer0
10
-6.4379598
20
3.8121411
11
-6.481239
21
3.8408596
0
LINE
8
layer0
10
-6.481239
20
3.8408596
11
-6.5381822
21
3.8841496
0
LINE
8
layer0
10
-6.5381822
20
3.8841496
11
-6.6282118
21
3.965061
0
LINE
8
layer0
10
-6.6282118
20
3.965061
11
-6.6842033
21
4.0217829
0
LINE
8
layer0
10
-6.6842033
20
4.0217829
11
-6.7485
21
4.0926242
0
LINE
8
layer0
10
-6.7485
20
4.0926242
11
-6.8163615
21
4.1740024
0
LINE
8
layer0
10
-6.8163615
20
4.1740024
11
-6.8890266
21
4.268883
0
LINE
8
layer0
10
-6.8890266
20
4.268883
11
-6.9666212
21
4.3795301
0
LINE
8
layer0
10
-6.9666212
20
4.3795301
11
-7.0453612
21
4.502489
0
LINE
8
layer0
10
-7.0453612
20
4.502489
11
-7.1265354
21
4.6417722
0
LINE
8
layer0
10
-7.1265354
20
4.6417722
11
-7.2066269
21
4.7934668
0
LINE
8
layer0
10
-7.2066269
20
4.7934668
11
-7.2790821
21
4.945174
0
ARC
8
layer0
10
0.0000102
20
-0.000007
40
8.8
50
142.190931
51
145.8090739
0
LINE
8
layer0
10
-6.9525001
20
5.3946757
11
-6.785828
21
5.3726468
0
LINE
8
layer0
10
-6.785828
20
5.3726468
11
-6.6168083
21
5.3433514
0
LINE
8
layer0
10
-6.6168083
20
5.3433514
11
-6.4592578
21
5.3091911
0
LINE
8
layer0
10
-6.4592578
20
5.3091911
11
-6.3179849
21
5.2723013
0
LINE
8
layer0
10
-6.3179849
20
5.2723013
11
-6.1887753
21
5.2326962
0
LINE
8
layer0
10
-6.1887753
20
5.2326962
11
-6.0760837
21
5.1929073
0
LINE
8
layer0
10
-6.0760837
20
5.1929073
11
-5.9777181
21
5.1535144
0
LINE
8
layer0
10
-5.9777181
20
5.1535144
11
-5.8904753
21
5.1142559
0
LINE
8
layer0
10
-5.8904753
20
5.1142559
11
-5.8192272
21
5.0785328
0
LINE
8
layer0
10
-5.8192272
20
5.0785328
11
-5.7144552
21
5.0179126
0
LINE
8
layer0
10
-5.7144552
20
5.0179126
11
-5.6556875
21
4.9771337
0
LINE
8
layer0
10
-5.6556875
20
4.9771337
11
-5.6150006
21
4.9448472
0
LINE
8
layer0
10
-5.6150006
20
4.9448472
11
-5.5390008
21
4.8922809
0
LINE
8
layer0
10
-5.5390008
20
4.8922809
11
-5.4689406
21
4.8544224
0
LINE
8
layer0
10
-5.4689406
20
4.8544224
11
-5.4364774
21
4.8408247
0
LINE
8
layer0
10
-5.4364774
20
4.8408247
11
-5.4059021
21
4.8306707
0
LINE
8
layer0
10
-5.4059021
20
4.8306707
11
-5.377342
21
4.8238754
0
LINE
8
layer0
10
-5.377342
20
4.8238754
11
-5.3509245
21
4.8203399
0
LINE
8
layer0
10
-5.3509245
20
4.8203399
11
-5.3267768
21
4.8199934
0
LINE
8
layer0
10
-5.3267768
20
4.8199934
11
-5.3050121
21
4.8227087
0
LINE
8
layer0
10
-5.3050121
20
4.8227087
11
-5.2857505
21
4.8284079
0
LINE
8
layer0
10
-5.2857505
20
4.8284079
11
-5.2691052
21
4.8369781
0
LINE
8
layer0
10
-5.2691052
20
4.8369781
11
-5.2521558
21
4.8515515
0
LINE
8
layer0
10
-5.2521558
20
4.8515515
11
-5.0558135
21
5.0558135
0
LINE
8
layer0
10
-5.0558135
20
5.0558135
11
-4.8515515
21
5.2521558
0
LINE
8
layer0
10
-4.8515515
20
5.2521558
11
-4.8369781
21
5.2691052
0
LINE
8
layer0
10
-4.8369781
20
5.2691052
11
-4.8284079
21
5.2857505
0
LINE
8
layer0
10
-4.8284079
20
5.2857505
11
-4.8227087
21
5.3050121
0
LINE
8
layer0
10
-4.8227087
20
5.3050121
11
-4.8199934
21
5.3267768
0
LINE
8
layer0
10
-4.8199934
20
5.3267768
11
-4.8203399
21
5.3509245
0
LINE
8
layer0
10
-4.8203399
20
5.3509245
11
-4.8238754
21
5.377342
0
LINE
8
layer0
10
-4.8238754
20
5.377342
11
-4.8306707
21
5.4059021
0
LINE
8
layer0
10
-4.8306707
20
5.4059021
11
-4.8408247
21
5.4364774
0
LINE
8
layer0
10
-4.8408247
20
5.4364774
11
-4.8544224
21
5.4689406
0
LINE
8
layer0
10
-4.8544224
20
5.4689406
11
-4.8922809
21
5.5390008
0
LINE
8
layer0
10
-4.8922809
20
5.5390008
11
-4.9448472
21
5.6150006
0
LINE
8
layer0
10
-4.9448472
20
5.6150006
11
-4.9771337
21
5.6556875
0
LINE
8
layer0
10
-4.9771337
20
5.6556875
11
-5.0179126
21
5.7144552
0
LINE
8
layer0
10
-5.0179126
20
5.7144552
11
-5.0785328
21
5.8192272
0
LINE
8
layer0
10
-5.0785328
20
5.8192272
11
-5.1142559
21
5.8904753
0
LINE
8
layer0
10
-5.1142559
20
5.8904753
11
-5.1535144
21
5.9777181
0
LINE
8
layer0
10
-5.1535144
20
5.9777181
11
-5.1929073
21
6.0760837
0
LINE
8
layer0
10
-5.1929073
20
6.0760837
11
-5.2326962
21
6.1887753
0
LINE
8
layer0
10
-5.2326962
20
6.1887753
11
-5.2723013
21
6.3179849
0
LINE
8
layer0
10
-5.2723013
20
6.3179849
11
-5.3091911
21
6.4592578
0
LINE
8
layer0
10
-5.3091911
20
6.4592578
11
-5.3433514
21
6.6168083
0
LINE
8
layer0
10
-5.3433514
20
6.6168083
11
-5.3726468
21
6.785828
0
LINE
8
layer0
10
-5.3726468
20
6.785828
11
-5.3946757
21
6.9525001
0
ARC
8
layer0
10
0.0000069
20
-0.0000102
40
8.8
50
124.1909261
51
127.809069
0
LINE
8
layer0
10
-4.945174
20
7.2790821
11
-4.7934668
21
7.2066269
0
LINE
8
layer0
10
-4.7934668
20
7.2066269
11
-4.6417722
21
7.1265354
0
LINE
8
layer0
10
-4.6417722
20
7.1265354
11
-4.502489
21
7.0453612
0
LINE
8
layer0
10
-4.502489
20
7.0453612
11
-4.3795301
21
6.9666212
0
LINE
8
layer0
10
-4.3795301
20
6.9666212
11
-4.268883
21
6.8890266
0
LINE
8
layer0
10
-4.268883
20
6.8890266
11
-4.1740024
21
6.8163615
0
LINE
8
layer0
10
-4.1740024
20
6.8163615
11
-4.0926242
21
6.7485
0
LINE
8
layer0
10
-4.0926242
20
6.7485
11
-4.0217829
21
6.6842033
0
LINE
8
layer0
10
-4.0217829
20
6.6842033
11
-3.965061
21
6.6282118
0
LINE
8
layer0
10
-3.965061
20
6.6282118
11
-3.8841496
21
6.5381822
0
LINE
8
layer0
10
-3.8841496
20
6.5381822
11
-3.8408596
21
6.481239
0
LINE
8
layer0
10
-3.8408596
20
6.481239
11
-3.8121411
21
6.4379598
0
LINE
8
layer0
10
-3.8121411
20
6.4379598
11
-3.7561048
21
6.364481
0
LINE
8
layer0
10
-3.7561048
20
6.364481
11
-3.7011726
21
6.3068257
0
LINE
8
layer0
10
-3.7011726
20
6.3068257
11
-3.6745001
21
6.2838618
0
LINE
8
layer0
10
-3.6745001
20
6.2838618
11
-3.648559
21
6.2647564
0
LINE
8
layer0
10
-3.648559
20
6.2647564
11
-3.6234967
21
6.2494682
0
LINE
8
layer0
10
-3.6234967
20
6.2494682
11
-3.5994647
21
6.2379422
0
LINE
8
layer0
10
-3.5994647
20
6.2379422
11
-3.5766059
21
6.2301507
0
LINE
8
layer0
10
-3.5766059
20
6.2301507
11
-3.5550674
21
6.2260074
0
LINE
8
layer0
10
-3.5550674
20
6.2260074
11
-3.5349873
21
6.2254756
0
LINE
8
layer0
10
-3.5349873
20
6.2254756
11
-3.5165084
21
6.2284826
0
LINE
8
layer0
10
-3.5165084
20
6.2284826
11
-3.4958851
21
6.2371051
0
LINE
8
layer0
10
-3.4958851
20
6.2371051
11
-3.2460321
21
6.3706966
0
LINE
8
layer0
10
-3.2460321
20
6.3706966
11
-2.9910943
21
6.4943089
0
LINE
8
layer0
10
-2.9910943
20
6.4943089
11
-2.9719965
21
6.5059252
0
LINE
8
layer0
10
-2.9719965
20
6.5059252
11
-2.9587021
21
6.5191075
0
LINE
8
layer0
10
-2.9587021
20
6.5191075
11
-2.9473296
21
6.5356652
0
LINE
8
layer0
10
-2.9473296
20
6.5356652
11
-2.9380215
21
6.5555257
0
LINE
8
layer0
10
-2.9380215
20
6.5555257
11
-2.930889
21
6.5785985
0
LINE
8
layer0
10
-2.930889
20
6.5785985
11
-2.9260881
21
6.6048156
0
LINE
8
layer0
10
-2.9260881
20
6.6048156
11
-2.9237252
21
6.6340777
0
LINE
8
layer0
10
-2.9237252
20
6.6340777
11
-2.923934
21
6.6662943
0
LINE
8
layer0
10
-2.923934
20
6.6662943
11
-2.9268345
21
6.7013706
0
LINE
8
layer0
10
-2.9268345
20
6.7013706
11
-2.9411903
21
6.7797007
0
LINE
8
layer0
10
-2.9411903
20
6.7797007
11
-2.9676986
21
6.8682247
0
LINE
8
layer0
10
-2.9676986
20
6.8682247
11
-2.9858319
21
6.9168974
0
LINE
8
layer0
10
-2.9858319
20
6.9168974
11
-3.0064547
21
6.9853901
0
LINE
8
layer0
10
-3.0064547
20
6.9853901
11
-3.0317316
21
7.1037669
0
LINE
8
layer0
10
-3.0317316
20
7.1037669
11
-3.0436894
21
7.1825669
0
LINE
8
layer0
10
-3.0436894
20
7.1825669
11
-3.054067
21
7.2776713
0
LINE
8
layer0
10
-3.054067
20
7.2776713
11
-3.0611352
21
7.3833956
0
LINE
8
layer0
10
-3.0611352
20
7.3833956
11
-3.0641531
21
7.5028672
0
LINE
8
layer0
10
-3.0641531
20
7.5028672
11
-3.0618918
21
7.6379915
0
LINE
8
layer0
10
-3.0618918
20
7.6379915
11
-3.0533203
21
7.7837495
0
LINE
8
layer0
10
-3.0533203
20
7.7837495
11
-3.037123
21
7.944145
0
LINE
8
layer0
10
-3.037123
20
7.944145
11
-3.0127546
21
8.1139451
0
LINE
8
layer0
10
-3.0127546
20
8.1139451
11
-2.9822008
21
8.279267
0
ARC
8
layer0
10
0.0000034
20
-0.0000118
40
8.8
50
106.1909263
51
109.809069
0
LINE
8
layer0
10
-2.4537799
20
8.4509613
11
-2.3318876
21
8.3351722
0
LINE
8
layer0
10
-2.3318876
20
8.3351722
11
-2.2123672
21
8.2121244
0
LINE
8
layer0
10
-2.2123672
20
8.2121244
11
-2.1049851
21
8.0918823
0
LINE
8
layer0
10
-2.1049851
20
8.0918823
11
-2.0123762
21
7.9789997
0
LINE
8
layer0
10
-2.0123762
20
7.9789997
11
-1.9311227
21
7.8710111
0
LINE
8
layer0
10
-1.9311227
20
7.8710111
11
-1.8633406
21
7.7725827
0
LINE
8
layer0
10
-1.8633406
20
7.7725827
11
-1.8069157
21
7.6828953
0
LINE
8
layer0
10
-1.8069157
20
7.6828953
11
-1.7594104
21
7.5998544
0
LINE
8
layer0
10
-1.7594104
20
7.5998544
11
-1.722767
21
7.5290753
0
LINE
8
layer0
10
-1.722767
20
7.5290753
11
-1.6736363
21
7.418449
0
LINE
8
layer0
10
-1.6736363
20
7.418449
11
-1.6500615
21
7.3509155
0
LINE
8
layer0
10
-1.6500615
20
7.3509155
11
-1.6361226
21
7.30088
0
LINE
8
layer0
10
-1.6361226
20
7.30088
11
-1.6055352
21
7.2136814
0
LINE
8
layer0
10
-1.6055352
20
7.2136814
11
-1.571108
21
7.1418729
0
LINE
8
layer0
10
-1.571108
20
7.1418729
11
-1.5528372
21
7.1117907
0
LINE
8
layer0
10
-1.5528372
20
7.1117907
11
-1.5340696
21
7.0856042
0
LINE
8
layer0
10
-1.5340696
20
7.0856042
11
-1.5149583
21
7.0633195
0
LINE
8
layer0
10
-1.5149583
20
7.0633195
11
-1.4956642
21
7.0449314
0
LINE
8
layer0
10
-1.4956642
20
7.0449314
11
-1.4763319
21
7.0304574
0
LINE
8
layer0
10
-1.4763319
20
7.0304574
11
-1.4571279
21
7.0198611
0
LINE
8
layer0
10
-1.4571279
20
7.0198611
11
-1.438195
21
7.0131503
0
LINE
8
layer0
10
-1.438195
20
7.0131503
11
-1.4196913
21
7.0102998
0
LINE
8
layer0
10
-1.4196913
20
7.0102998
11
-1.3974129
21
7.0121274
0
LINE
8
layer0
10
-1.3974129
20
7.0121274
11
-1.1185064
21
7.0619716
0
LINE
8
layer0
10
-1.1185064
20
7.0619716
11
-0.8378479
21
7.1007538
0
LINE
8
layer0
10
-0.8378479
20
7.1007538
11
-0.8160952
21
7.1059
0
LINE
8
layer0
10
-0.8160952
20
7.1059
11
-0.7993779
21
7.1143289
0
LINE
8
layer0
10
-0.7993779
20
7.1143289
11
-0.7834454
21
7.1265619
0
LINE
8
layer0
10
-0.7834454
20
7.1265619
11
-0.7684557
21
7.142574
0
LINE
8
layer0
10
-0.7684557
20
7.142574
11
-0.7545424
21
7.1623135
0
LINE
8
layer0
10
-0.7545424
20
7.1623135
11
-0.7418748
21
7.1857639
0
LINE
8
layer0
10
-0.7418748
20
7.1857639
11
-0.7305852
21
7.2128636
0
LINE
8
layer0
10
-0.7305852
20
7.2128636
11
-0.7208283
21
7.243568
0
LINE
8
layer0
10
-0.7208283
20
7.243568
11
-0.7127476
21
7.2778238
0
LINE
8
layer0
10
-0.7127476
20
7.2778238
11
-0.7021954
21
7.3567563
0
LINE
8
layer0
10
-0.7021954
20
7.3567563
11
-0.7000509
21
7.4491392
0
LINE
8
layer0
10
-0.7000509
20
7.4491392
11
-0.702256
21
7.5010331
0
LINE
8
layer0
10
-0.702256
20
7.5010331
11
-0.7007041
21
7.5725463
0
LINE
8
layer0
10
-0.7007041
20
7.5725463
11
-0.6881634
21
7.6929404
0
LINE
8
layer0
10
-0.6881634
20
7.6929404
11
-0.6751854
21
7.7715788
0
LINE
8
layer0
10
-0.6751854
20
7.7715788
11
-0.6556662
21
7.8652353
0
LINE
8
layer0
10
-0.6556662
20
7.8652353
11
-0.6297179
21
7.9679693
0
LINE
8
layer0
10
-0.6297179
20
7.9679693
11
-0.5956693
21
8.0825261
0
LINE
8
layer0
10
-0.5956693
20
8.0825261
11
-0.551763
21
8.2103381
0
LINE
8
layer0
10
-0.551763
20
8.2103381
11
-0.4985693
21
8.3463135
0
LINE
8
layer0
10
-0.4985693
20
8.3463135
11
-0.4335998
21
8.4938535
0
LINE
8
layer0
10
-0.4335998
20
8.4938535
11
-0.357953
21
8.6478127
0
LINE
8
layer0
10
-0.357953
20
8.6478127
11
-0.2778073
21
8.7956015
0
ARC
8
layer0
10
0
20
-0.0000124
40
8.8
50
88.1909283
51
91.8090717
0
LINE
8
layer0
10
0.2778073
20
8.7956015
11
0.357953
21
8.6478127
0
LINE
8
layer0
10
0.357953
20
8.6478127
11
0.4335998
21
8.4938535
0
LINE
8
layer0
10
0.4335998
20
8.4938535
11
0.4985693
21
8.3463135
0
LINE
8
layer0
10
0.4985693
20
8.3463135
11
0.551763
21
8.2103381
0
LINE
8
layer0
10
0.551763
20
8.2103381
11
0.5956693
21
8.0825261
0
LINE
8
layer0
10
0.5956693
20
8.0825261
11
0.6297179
21
7.9679693
0
LINE
8
layer0
10
0.6297179
20
7.9679693
11
0.6556662
21
7.8652353
0
LINE
8
layer0
10
0.6556662
20
7.8652353
11
0.6751854
21
7.7715788
0
LINE
8
layer0
10
0.6751854
20
7.7715788
11
0.6881634
21
7.6929404
0
LINE
8
layer0
10
0.6881634
20
7.6929404
11
0.7007041
21
7.5725463
0
LINE
8
layer0
10
0.7007041
20
7.5725463
11
0.702256
21
7.5010331
0
LINE
8
layer0
10
0.702256
20
7.5010331
11
0.7000509
21
7.4491392
0
LINE
8
layer0
10
0.7000509
20
7.4491392
11
0.7021954
21
7.3567563
0
LINE
8
layer0
10
0.7021954
20
7.3567563
11
0.7127476
21
7.2778238
0
LINE
8
layer0
10
0.7127476
20
7.2778238
11
0.7208283
21
7.243568
0
LINE
8
layer0
10
0.7208283
20
7.243568
11
0.7305852
21
7.2128636
0
LINE
8
layer0
10
0.7305852
20
7.2128636
11
0.7418748
21
7.1857639
0
LINE
8
layer0
10
0.7418748
20
7.1857639
11
0.7545424
21
7.1623135
0
LINE
8
layer0
10
0.7545424
20
7.1623135
11
0.7684557
21
7.142574
0
LINE
8
layer0
10
0.7684557
20
7.142574
11
0.7834454
21
7.1265619
0
LINE
8
layer0
10
0.7834454
20
7.1265619
11
0.7993779
21
7.1143289
0
LINE
8
layer0
10
0.7993779
20
7.1143289
11
0.8160952
21
7.1059
0
LINE
8
layer0
10
0.8160952
20
7.1059
11
0.8378479
21
7.1007538
0
LINE
8
layer0
10
0.8378479
20
7.1007538
11
1.1185064
21
7.0619716
0
LINE
8
layer0
10
1.1185064
20
7.0619716
11
1.3974129
21
7.0121274
0
LINE
8
layer0
10
1.3974129
20
7.0121274
11
1.4196913
21
7.0102998
0
LINE
8
layer0
10
1.4196913
20
7.0102998
11
1.438195
21
7.0131503
0
LINE
8
layer0
10
1.438195
20
7.0131503
11
1.4571279
21
7.0198611
0
LINE
8
layer0
10
1.4571279
20
7.0198611
11
1.4763319
21
7.0304574
0
LINE
8
layer0
10
1.4763319
20
7.0304574
11
1.4956642
21
7.0449314
0
LINE
8
layer0
10
1.4956642
20
7.0449314
11
1.5149583
21
7.0633195
0
LINE
8
layer0
10
1.5149583
20
7.0633195
11
1.5340696
21
7.0856042
0
LINE
8
layer0
10
1.5340696
20
7.0856042
11
1.5528372
21
7.1117907
0
LINE
8
layer0
10
1.5528372
20
7.1117907
11
1.571108
21
7.1418729
0
LINE
8
layer0
10
1.571108
20
7.1418729
11
1.6055352
21
7.2136814
0
LINE
8
layer0
10
1.6055352
20
7.2136814
11
1.6361226
21
7.30088
0
LINE
8
layer0
10
1.6361226
20
7.30088
11
1.6500615
21
7.3509155
0
LINE
8
layer0
10
1.6500615
20
7.3509155
11
1.6736363
21
7.418449
0
LINE
8
layer0
10
1.6736363
20
7.418449
11
1.722767
21
7.5290753
0
LINE
8
layer0
10
1.722767
20
7.5290753
11
1.7594104
21
7.5998544
0
LINE
8
layer0
10
1.7594104
20
7.5998544
11
1.8069157
21
7.6828953
0
LINE
8
layer0
10
1.8069157
20
7.6828953
11
1.8633406
21
7.7725827
0
LINE
8
layer0
10
1.8633406
20
7.7725827
11
1.9311227
21
7.8710111
0
LINE
8
layer0
10
1.9311227
20
7.8710111
11
2.0123762
21
7.9789997
0
LINE
8
layer0
10
2.0123762
20
7.9789997
11
2.1049851
21
8.0918823
0
LINE
8
layer0
10
2.1049851
20
8.0918823
11
2.2123672
21
8.2121244
0
LINE
8
layer0
10
2.2123672
20
8.2121244
11
2.3318876
21
8.3351722
0
LINE
8
layer0
10
2.3318876
20
8.3351722
11
2.4537799
21
8.4509613
0
ARC
8
layer0
10
-0.0000035
20
-0.0000118
40
8.8
50
70.190931
51
73.8090737
0
LINE
8
layer0
10
2.9822008
20
8.279267
11
3.0127546
21
8.1139451
0
LINE
8
layer0
10
3.0127546
20
8.1139451
11
3.037123
21
7.944145
0
LINE
8
layer0
10
3.037123
20
7.944145
11
3.0533203
21
7.7837495
0
LINE
8
layer0
10
3.0533203
20
7.7837495
11
3.0618918
21
7.6379915
0
LINE
8
layer0
10
3.0618918
20
7.6379915
11
3.0641531
21
7.5028672
0
LINE
8
layer0
10
3.0641531
20
7.5028672
11
3.0611352
21
7.3833956
0
LINE
8
layer0
10
3.0611352
20
7.3833956
11
3.054067
21
7.2776713
0
LINE
8
layer0
10
3.054067
20
7.2776713
11
3.0436894
21
7.1825669
0
LINE
8
layer0
10
3.0436894
20
7.1825669
11
3.0317316
21
7.1037669
0
LINE
8
layer0
10
3.0317316
20
7.1037669
11
3.0064547
21
6.9853901
0
LINE
8
layer0
10
3.0064547
20
6.9853901
11
2.9858319
21
6.9168974
0
LINE
8
layer0
10
2.9858319
20
6.9168974
11
2.9676986
21
6.8682247
0
LINE
8
layer0
10
2.9676986
20
6.8682247
11
2.9411903
21
6.7797007
0
LINE
8
layer0
10
2.9411903
20
6.7797007
11
2.9268345
21
6.7013706
0
LINE
8
layer0
10
2.9268345
20
6.7013706
11
2.923934
21
6.6662943
0
LINE
8
layer0
10
2.923934
20
6.6662943
11
2.9237252
21
6.6340777
0
LINE
8
layer0
10
2.9237252
20
6.6340777
11
2.9260881
21
6.6048156
0
LINE
8
layer0
10
2.9260881
20
6.6048156
11
2.930889
21
6.5785985
0
LINE
8
layer0
10
2.930889
20
6.5785985
11
2.9380215
21
6.5555257
0
LINE
8
layer0
10
2.9380215
20
6.5555257
11
2.9473296
21
6.5356652
0
LINE
8
layer0
10
2.9473296
20
6.5356652
11
2.9587021
21
6.5191075
0
LINE
8
layer0
10
2.9587021
20
6.5191075
11
2.9719965
21
6.5059252
0
LINE
8
layer0
10
2.9719965
20
6.5059252
11
2.9910943
21
6.4943089
0
LINE
8
layer0
10
2.9910943
20
6.4943089
11
3.2460321
21
6.3706966
0
LINE
8
layer0
10
3.2460321
20
6.3706966
11
3.4958851
21
6.2371051
0
LINE
8
layer0
10
3.4958851
20
6.2371051
11
3.5165084
21
6.2284826
0
LINE
8
layer0
10
3.5165084
20
6.2284826
11
3.5349873
21
6.2254756
0
LINE
8
layer0
10
3.5349873
20
6.2254756
11
3.5550674
21
6.2260074
0
LINE
8
layer0
10
3.5550674
20
6.2260074
11
3.5766059
21
6.2301507
0
LINE
8
layer0
10
3.5766059
20
6.2301507
11
3.5994647
21
6.2379422
0
LINE
8
layer0
10
3.5994647
20
6.2379422
11
3.6234967
21
6.2494682
0
LINE
8
layer0
10
3.6234967
20
6.2494682
11
3.648559
21
6.2647564
0
LINE
8
layer0
10
3.648559
20
6.2647564
11
3.6745001
21
6.2838618
0
LINE
8
layer0
10
3.6745001
20
6.2838618
11
3.7011726
21
6.3068257
0
LINE
8
layer0
10
3.7011726
20
6.3068257
11
3.7561048
21
6.364481
0
LINE
8
layer0
10
3.7561048
20
6.364481
11
3.8121411
21
6.4379598
0
LINE
8
layer0
10
3.8121411
20
6.4379598
11
3.8408596
21
6.481239
0
LINE
8
layer0
10
3.8408596
20
6.481239
11
3.8841496
21
6.5381822
0
LINE
8
layer0
10
3.8841496
20
6.5381822
11
3.965061
21
6.6282118
0
LINE
8
layer0
10
3.965061
20
6.6282118
11
4.0217829
21
6.6842033
0
LINE
8
layer0
10
4.0217829
20
6.6842033
11
4.0926242
21
6.7485
0
LINE
8
layer0
10
4.0926242
20
6.7485
11
4.1740024
21
6.8163615
0
LINE
8
layer0
10
4.1740024
20
6.8163615
11
4.268883
21
6.8890266
0
LINE
8
layer0
10
4.268883
20
6.8890266
11
4.3795301
21
6.9666212
0
LINE
8
layer0
10
4.3795301
20
6.9666212
11
4.502489
21
7.0453612
0
LINE
8
layer0
10
4.502489
20
7.0453612
11
4.6417722
21
7.1265354
0
LINE
8
layer0
10
4.6417722
20
7.1265354
11
4.7934668
21
7.2066269
0
LINE
8
layer0
10
4.7934668
20
7.2066269
11
4.945174
21
7.2790821
0
ARC
8
layer0
10
-0.000007
20
-0.0000102
40
8.8
50
52.190931
51
55.8090739
0
LINE
8
layer0
10
5.3946757
20
6.9525001
11
5.3726468
21
6.785828
0
LINE
8
layer0
10
5.3726468
20
6.785828
11
5.3433514
21
6.6168083
0
LINE
8
layer0
10
5.3433514
20
6.6168083
11
5.3091911
21
6.4592578
0
LINE
8
layer0
10
5.3091911
20
6.4592578
11
5.2723013
21
6.3179849
0
LINE
8
layer0
10
5.2723013
20
6.3179849
11
5.2326962
21
6.1887753
0
LINE
8
layer0
10
5.2326962
20
6.1887753
11
5.1929073
21
6.0760837
0
LINE
8
layer0
10
5.1929073
20
6.0760837
11
5.1535144
21
5.9777181
0
LINE
8
layer0
10
5.1535144
20
5.9777181
11
5.1142559
21
5.8904753
0
LINE
8
layer0
10
5.1142559
20
5.8904753
11
5.0785328
21
5.8192272
0
LINE
8
layer0
10
5.0785328
20
5.8192272
11
5.0179126
21
5.7144552
0
LINE
8
layer0
10
5.0179126
20
5.7144552
11
4.9771337
21
5.6556875
0
LINE
8
layer0
10
4.9771337
20
5.6556875
11
4.9448472
21
5.6150006
0
LINE
8
layer0
10
4.9448472
20
5.6150006
11
4.8922809
21
5.5390008
0
LINE
8
layer0
10
4.8922809
20
5.5390008
11
4.8544224
21
5.4689406
0
LINE
8
layer0
10
4.8544224
20
5.4689406
11
4.8408247
21
5.4364774
0
LINE
8
layer0
10
4.8408247
20
5.4364774
11
4.8306707
21
5.4059021
0
LINE
8
layer0
10
4.8306707
20
5.4059021
11
4.8238754
21
5.377342
0
LINE
8
layer0
10
4.8238754
20
5.377342
11
4.8203399
21
5.3509245
0
LINE
8
layer0
10
4.8203399
20
5.3509245
11
4.8199934
21
5.3267768
0
LINE
8
layer0
10
4.8199934
20
5.3267768
11
4.8227087
21
5.3050121
0
LINE
8
layer0
10
4.8227087
20
5.3050121
11
4.8284079
21
5.2857505
0
LINE
8
layer0
10
4.8284079
20
5.2857505
11
4.8369781
21
5.2691052
0
LINE
8
layer0
10
4.8369781
20
5.2691052
11
4.8515515
21
5.2521558
0
LINE
8
layer0
10
4.8515515
20
5.2521558
11
5.0558135
21
5.0558135
0
LINE
8
layer0
10
5.0558135
20
5.0558135
11
5.2521558
21
4.8515515
0
LINE
8
layer0
10
5.2521558
20
4.8515515
11
5.2691052
21
4.8369781
0
LINE
8
layer0
10
5.2691052
20
4.8369781
11
5.2857505
21
4.8284079
0
LINE
8
layer0
10
5.2857505
20
4.8284079
11
5.3050121
21
4.8227087
0
LINE
8
layer0
10
5.3050121
20
4.8227087
11
5.3267768
21
4.8199934
0
LINE
8
layer0
10
5.3267768
20
4.8199934
11
5.3509245
21
4.8203399
0
LINE
8
layer0
10
5.3509245
20
4.8203399
11
5.377342
21
4.8238754
0
LINE
8
layer0
10
5.377342
20
4.8238754
11
5.4059021
21
4.8306707
0
LINE
8
layer0
10
5.4059021
20
4.8306707
11
5.4364774
21
4.8408247
0
LINE
8
layer0
10
5.4364774
20
4.8408247
11
5.4689406
21
4.8544224
0
LINE
8
layer0
10
5.4689406
20
4.8544224
11
5.5390008
21
4.8922809
0
LINE
8
layer0
10
5.5390008
20
4.8922809
11
5.6150006
21
4.9448472
0
LINE
8
layer0
10
5.6150006
20
4.9448472
11
5.6556875
21
4.9771337
0
LINE
8
layer0
10
5.6556875
20
4.9771337
11
5.7144552
21
5.0179126
0
LINE
8
layer0
10
5.7144552
20
5.0179126
11
5.8192272
21
5.0785328
0
LINE
8
layer0
10
5.8192272
20
5.0785328
11
5.8904753
21
5.1142559
0
LINE
8
layer0
10
5.8904753
20
5.1142559
11
5.9777181
21
5.1535144
0
LINE
8
layer0
10
5.9777181
20
5.1535144
11
6.0760837
21
5.1929073
0
LINE
8
layer0
10
6.0760837
20
5.1929073
11
6.1887753
21
5.2326962
0
LINE
8
layer0
10
6.1887753
20
5.2326962
11
6.3179849
21
5.2723013
0
LINE
8
layer0
10
6.3179849
20
5.2723013
11
6.4592578
21
5.3091911
0
LINE
8
layer0
10
6.4592578
20
5.3091911
11
6.6168083
21
5.3433514
0
LINE
8
layer0
10
6.6168083
20
5.3433514
11
6.785828
21
5.3726468
0
LINE
8
layer0
10
6.785828
20
5.3726468
11
6.9525001
21
5.3946757
0
ARC
8
layer0
10
-0.0000102
20
-0.0000069
40
8.8
50
34.1909261
51
37.809069
0
LINE
8
layer0
10
7.2790821
20
4.945174
11
7.2066269
21
4.7934668
0
LINE
8
layer0
10
7.2066269
20
4.7934668
11
7.1265354
21
4.6417722
0
LINE
8
layer0
10
7.1265354
20
4.6417722
11
7.0453612
21
4.502489
0
LINE
8
layer0
10
7.0453612
20
4.502489
11
6.9666212
21
4.3795301
0
LINE
8
layer0
10
6.9666212
20
4.3795301
11
6.8890266
21
4.268883
0
LINE
8
layer0
10
6.8890266
20
4.268883
11
6.8163615
21
4.1740024
0
LINE
8
layer0
10
6.8163615
20
4.1740024
11
6.7485
21
4.0926242
0
LINE
8
layer0
10
6.7485
20
4.0926242
11
6.6842033
21
4.0217829
0
LINE
8
layer0
10
6.6842033
20
4.0217829
11
6.6282118
21
3.965061
0
LINE
8
layer0
10
6.6282118
20
3.965061
11
6.5381822
21
3.8841496
0
LINE
8
layer0
10
6.5381822
20
3.8841496
11
6.481239
21
3.8408596
0
LINE
8
layer0
10
6.481239
20
3.8408596
11
6.4379598
21
3.8121411
0
LINE
8
layer0
10
6.4379598
20
3.8121411
11
6.364481
21
3.7561048
0
LINE
8
layer0
10
6.364481
20
3.7561048
11
6.3068257
21
3.7011726
0
LINE
8
layer0
10
6.3068257
20
3.7011726
11
6.2838618
21
3.6745001
0
LINE
8
layer0
10
6.2838618
20
3.6745001
11
6.2647564
21
3.648559
0
LINE
8
layer0
10
6.2647564
20
3.648559
11
6.2494682
21
3.6234967
0
LINE
8
layer0
10
6.2494682
20
3.6234967
11
6.2379422
21
3.5994647
0
LINE
8
layer0
10
6.2379422
20
3.5994647
11
6.2301507
21
3.5766059
0
LINE
8
layer0
10
6.2301507
20
3.5766059
11
6.2260074
21
3.5550674
0
LINE
8
layer0
10
6.2260074
20
3.5550674
11
6.2254756
21
3.5349873
0
LINE
8
layer0
10
6.2254756
20
3.5349873
11
6.2284826
21
3.5165084
0
LINE
8
layer0
10
6.2284826
20
3.5165084
11
6.2371051
21
3.4958851
0
LINE
8
layer0
10
6.2371051
20
3.4958851
11
6.3706966
21
3.2460321
0
LINE
8
layer0
10
6.3706966
20
3.2460321
11
6.4943089
21
2.9910943
0
LINE
8
layer0
10
6.4943089
20
2.9910943
11
6.5059252
21
2.9719965
0
LINE
8
layer0
10
6.5059252
20
2.9719965
11
6.5191075
21
2.9587021
0
LINE
8
layer0
10
6.5191075
20
2.9587021
11
6.5356652
21
2.9473296
0
LINE
8
layer0
10
6.5356652
20
2.9473296
11
6.5555257
21
2.9380215
0
LINE
8
layer0
10
6.5555257
20
2.9380215
11
6.5785985
21
2.930889
0
LINE
8
layer0
10
6.5785985
20
2.930889
11
6.6048156
21
2.9260881
0
LINE
8
layer0
10
6.6048156
20
2.9260881
11
6.6340777
21
2.9237252
0
LINE
8
layer0
10
6.6340777
20
2.9237252
11
6.6662943
21
2.923934
0
LINE
8
layer0
10
6.6662943
20
2.923934
11
6.7013706
21
2.9268345
0
LINE
8
layer0
10
6.7013706
20
2.9268345
11
6.7797007
21
2.9411903
0
LINE
8
layer0
10
6.7797007
20
2.9411903
11
6.8682247
21
2.9676986
0
LINE
8
layer0
10
6.8682247
20
2.9676986
11
6.9168974
21
2.9858319
0
LINE
8
layer0
10
6.9168974
20
2.9858319
11
6.9853901
21
3.0064547
0
LINE
8
layer0
10
6.9853901
20
3.0064547
11
7.1037669
21
3.0317316
0
LINE
8
layer0
10
7.1037669
20
3.0317316
11
7.1825669
21
3.0436894
0
LINE
8
layer0
10
7.1825669
20
3.0436894
11
7.2776713
21
3.054067
0
LINE
8
layer0
10
7.2776713
20
3.054067
11
7.3833956
21
3.0611352
0
LINE
8
layer0
10
7.3833956
20
3.0611352
11
7.5028672
21
3.0641531
0
LINE
8
layer0
10
7.5028672
20
3.0641531
11
7.6379915
21
3.0618918
0
LINE
8
layer0
10
7.6379915
20
3.0618918
11
7.7837495
21
3.0533203
0
LINE
8
layer0
10
7.7837495
20
3.0533203
11
7.944145
21
3.037123
0
LINE
8
layer0
10
7.944145
20
3.037123
11
8.1139451
21
3.0127546
0
LINE
8
layer0
10
8.1139451
20
3.0127546
11
8.279267
21
2.9822008
0
ARC
8
layer0
10
-0.0000118
20
-0.0000034
40
8.8
50
16.1909263
51
19.809069
0
LINE
8
layer0
10
8.4509613
20
2.4537799
11
8.3351722
21
2.3318876
0
LINE
8
layer1
10
8.3351722
20
2.3318876
11
8.2121244
21
2.2123672
0
LINE
8
layer1
10
8.2121244
20
2.2123672
11
8.0918823
21
2.1049851
0
LINE
8
layer1
10
8.0918823
20
2.1049851
11
7.9789997
21
2.0123762
0
LINE
8
layer1
10
7.9789997
20
2.0123762
11
7.8710111
21
1.9311227
0
LINE
8
layer1
10
7.8710111
20
1.9311227
11
7.7725827
21
1.8633406
0
LINE
8
layer1
10
7.7725827
20
1.8633406
11
7.6828953
21
1.8069157
0
LINE
8
layer1
10
7.6828953
20
1.8069157
11
7.5998544
21
1.7594104
0
LINE
8
layer1
10
7.5998544
20
1.7594104
11
7.5290753
21
1.722767
0
LINE
8
layer1
10
7.5290753
20
1.722767
11
7.418449
21
1.6736363
0
LINE
8
layer1
10
7.418449
20
1.6736363
11
7.3509155
21
1.6500615
0
LINE
8
layer1
10
7.3509155
20
1.6500615
11
7.30088
21
1.6361226
0
LINE
8
layer1
10
7.30088
20
1.6361226
11
7.2136814
21
1.6055352
0
LINE
8
layer1
10
7.2136814
20
1.6055352
11
7.1418729
21
1.571108
0
LINE
8
layer1
10
7.1418729
20
1.571108
11
7.1117907
21
1.5528372
0
LINE
8
layer1
10
7.1117907
20
1.5528372
11
7.0856042
21
1.5340696
0
LINE
8
layer1
10
7.0856042
20
1.5340696
11
7.0633195
21
1.5149583
0
LINE
8
layer1
10
7.0633195
20
1.5149583
11
7.0449314
21
1.4956642
0
LINE
8
layer1
10
7.0449314
20
1.4956642
11
7.0304574
21
1.4763319
0
LINE
8
layer1
10
7.0304574
20
1.4763319
11
7.0198611
21
1.4571279
0
LINE
8
layer1
10
7.0198611
20
1.4571279
11
7.0131503
21
1.438195
0
LINE
8
layer1
10
7.0131503
20
1.438195
11
7.0102998
21
1.4196913
0
LINE
8
layer1
10
7.0102998
20
1.4196913
11
7.0121274
21
1.3974129
0
LINE
8
layer1
10
7.0121274
20
1.3974129
11
7.0619716
21
1.1185064
0
LINE
8
layer1
10
7.0619716
20
1.1185064
11
7.1007538
21
0.8378479
0
LINE
8
layer1
10
7.1007538
20
0.8378479
11
7.1059
21
0.8160952
0
LINE
8
layer1
10
7.1059
20
0.8160952
11
7.1143289
21
0.7993779
0
LINE
8
layer1
10
7.1143289
20
0.7993779
11
7.1265619
21
0.7834454
0
LINE
8
layer1
10
7.1265619
20
0.7834454
11
7.142574
21
0.7684557
0
LINE
8
layer1
10
7.142574
20
0.7684557
11
7.1623135
21
0.7545424
0
LINE
8
layer1
10
7.1623135
20
0.7545424
11
7.1857639
21
0.7418748
0
LINE
8
layer1
10
7.1857639
20
0.7418748
11
7.2128636
21
0.7305852
0
LINE
8
layer1
10
7.2128636
20
0.7305852
11
7.243568
21
0.7208283
0
LINE
8
layer1
10
7.243568
20
0.7208283
11
7.2778238
21
0.7127476
0
LINE
8
layer1
10
7.2778238
20
0.7127476
11
7.3567563
21
0.7021954
0
LINE
8
layer1
10
7.3567563
20
0.7021954
11
7.4491392
21
0.7000509
0
LINE
8
layer1
10
7.4491392
20
0.7000509
11
7.5010331
21
0.702256
0
LINE
8
layer1
10
7.5010331
20
0.702256
11
7.5725463
21
0.7007041
0
LINE
8
layer1
10
7.5725463
20
0.7007041
11
7.6929404
21
0.6881634
0
LINE
8
layer1
10
7.6929404
20
0.6881634
11
7.7715788
21
0.6751854
0
LINE
8
layer1
10
7.7715788
20
0.6751854
11
7.8652353
21
0.6556662
0
LINE
8
layer1
10
7.8652353
20
0.6556662
11
7.9679693
21
0.6297179
0
LINE
8
layer1
10
7.9679693
20
0.6297179
11
8.0825261
21
0.5956693
0
LINE
8
layer1
10
8.0825261
20
0.5956693
11
8.2103381
21
0.551763
0
LINE
8
layer1
10
8.2103381
20
0.551763
11
8.3463135
21
0.4985693
0
LINE
8
layer1
10
8.3463135
20
0.4985693
11
8.4938535
21
0.4335998
0
LINE
8
layer1
10
8.4938535
20
0.4335998
11
8.6478127
21
0.357953
0
LINE
8
layer1
10
8.6478127
20
0.357953
11
8.7956015
21
0.2778073
0
ARC
8
layer1
10
-0.0000124
20
0
40
8.8
50
358.1909283
51
361.8090717
0
LINE
8
layer1
10
8.7956015
20
-0.2778073
11
8.6478127
21
-0.357953
0
LINE
8
layer1
10
8.6478127
20
-0.357953
11
8.4938535
21
-0.4335998
0
LINE
8
layer1
10
8.4938535
20
-0.4335998
11
8.3463135
21
-0.4985693
0
LINE
8
layer1
10
8.3463135
20
-0.4985693
11
8.2103381
21
-0.551763
0
LINE
8
layer1
10
8.2103381
20
-0.551763
11
8.0825261
21
-0.5956693
0
LINE
8
layer1
10
8.0825261
20
-0.5956693
11
7.9679693
21
-0.6297179
0
LINE
8
layer1
10
7.9679693
20
-0.6297179
11
7.8652353
21
-0.6556662
0
LINE
8
layer1
10
7.8652353
20
-0.6556662
11
7.7715788
21
-0.6751854
0
LINE
8
layer1
10
7.7715788
20
-0.6751854
11
7.6929404
21
-0.6881634
0
LINE
8
layer1
10
7.6929404
20
-0.6881634
11
7.5725463
21
-0.7007041
0
LINE
8
layer1
10
7.5725463
20
-0.7007041
11
7.5010331
21
-0.702256
0
LINE
8
layer1
10
7.5010331
20
-0.702256
11
7.4491392
21
-0.7000509
0
LINE
8
layer1
10
7.4491392
20
-0.7000509
11
7.3567563
21
-0.7021954
0
LINE
8
layer1
10
7.3567563
20
-0.7021954
11
7.2778238
21
-0.7127476
0
LINE
8
layer1
10
7.2778238
20
-0.7127476
11
7.243568
21
-0.7208283
0
LINE
8
layer1
10
7.243568
20
-0.7208283
11
7.2128636
21
-0.7305852
0
LINE
8
layer1
10
7.2128636
20
-0.7305852
11
7.1857639
21
-0.7418748
0
LINE
8
layer1
10
7.1857639
20
-0.7418748
11
7.1623135
21
-0.7545424
0
LINE
8
layer1
10
7.1623135
20
-0.7545424
11
7.142574
21
-0.7684557
0
LINE
8
layer1
10
7.142574
20
-0.7684557
11
7.1265619
21
-0.7834454
0
LINE
8
layer1
10
7.1265619
20
-0.7834454
11
7.1143289
21
-0.7993779
0
LINE
8
layer1
10
7.1143289
20
-0.7993779
11
7.1059
21
-0.8160952
0
LINE
8
layer1
10
7.1059
20
-0.8160952
11
7.1007538
21
-0.8378479
0
LINE
8
layer1
10
7.1007538
20
-0.8378479
11
7.0619716
21
-1.1185064
0
LINE
8
layer1
10
7.0619716
20
-1.1185064
11
7.0121274
21
-1.3974129
0
LINE
8
layer1
10
7.0121274
20
-1.3974129
11
7.0102998
21
-1.4196913
0
LINE
8
layer1
10
7.0102998
20
-1.4196913
11
7.0131503
21
-1.438195
0
LINE
8
layer1
10
7.0131503
20
-1.438195
11
7.0198611
21
-1.4571279
0
LINE
8
layer1
10
7.0198611
20
-1.4571279
11
7.0304574
21
-1.4763319
0
LINE
8
layer1
10
7.0304574
20
-1.4763319
11
7.0449314
21
-1.4956642
0
LINE
8
layer1
10
7.0449314
20
-1.4956642
11
7.0633195
21
-1.5149583
0
LINE
8
layer1
10
7.0633195
20
-1.5149583
11
7.0856042
21
-1.5340696
0
LINE
8
layer1
10
7.0856042
20
-1.5340696
11
7.1117907
21
-1.5528372
0
LINE
8
layer1
10
7.1117907
20
-1.5528372
11
7.1418729
21
-1.571108
0
LINE
8
layer1
10
7.1418729
20
-1.571108
11
7.2136814
21
-1.6055352
0
LINE
8
layer1
10
7.2136814
20
-1.6055352
11
7.30088
21
-1.6361226
0
LINE
8
layer1
10
7.30088
20
-1.6361226
11
7.3509155
21
-1.6500615
0
LINE
8
layer1
10
7.3509155
20
-1.6500615
11
7.418449
21
-1.6736363
0
LINE
8
layer1
10
7.418449
20
-1.6736363
11
7.5290753
21
-1.722767
0
LINE
8
layer1
10
7.5290753
20
-1.722767
11
7.5998544
21
-1.7594104
0
LINE
8
layer1
10
7.5998544
20
-1.7594104
11
7.6828953
21
-1.8069157
0
LINE
8
layer1
10
7.6828953
20
-1.8069157
11
7.7725827
21
-1.8633406
0
LINE
8
layer1
10
7.7725827
20
-1.8633406
11
7.8710111
21
-1.9311227
0
LINE
8
layer1
10
7.8710111
20
-1.9311227
11
7.9789997
21
-2.0123762
0
LINE
8
layer1
10
7.9789997
20
-2.0123762
11
8.0918823
21
-2.1049851
0
LINE
8
layer1
10
8.0918823
20
-2.1049851
11
8.2121244
21
-2.2123672
0
LINE
8
layer1
10
8.2121244
20
-2.2123672
11
8.3351722
21
-2.3318876
0
LINE
8
layer1
10
8.3351722
20
-2.3318876
11
8.4509613
21
-2.4537799
0
ARC
8
layer1
10
-0.0000118
20
0.0000035
40
8.8
50
340.190931
51
343.8090737
0
LINE
8
layer1
10
8.279267
20
-2.9822008
11
8.1139451
21
-3.0127546
0
LINE
8
layer1
10
8.1139451
20
-3.0127546
11
7.944145
21
-3.037123
0
LINE
8
layer1
10
7.944145
20
-3.037123
11
7.7837495
21
-3.0533203
0
LINE
8
layer1
10
7.7837495
20
-3.0533203
11
7.6379915
21
-3.0618918
0
LINE
8
layer1
10
7.6379915
20
-3.0618918
11
7.5028672
21
-3.0641531
0
LINE
8
layer1
10
7.5028672
20
-3.0641531
11
7.3833956
21
-3.0611352
0
LINE
8
layer1
10
7.3833956
20
-3.0611352
11
7.2776713
21
-3.054067
0
LINE
8
layer1
10
7.2776713
20
-3.054067
11
7.1825669
21
-3.0436894
0
LINE
8
layer1
10
7.1825669
20
-3.0436894
11
7.1037669
21
-3.0317316
0
LINE
8
layer1
10
7.1037669
20
-3.0317316
11
6.9853901
21
-3.0064547
0
LINE
8
layer1
10
6.9853901
20
-3.0064547
11
6.9168974
21
-2.9858319
0
LINE
8
layer1
10
6.9168974
20
-2.9858319
11
6.8682247
21
-2.9676986
0
LINE
8
layer1
10
6.8682247
20
-2.9676986
11
6.7797007
21
-2.9411903
0
LINE
8
layer1
10
6.7797007
20
-2.9411903
11
6.7013706
21
-2.9268345
0
LINE
8
layer1
10
6.7013706
20
-2.9268345
11
6.6662943
21
-2.923934
0
LINE
8
layer1
10
6.6662943
20
-2.923934
11
6.6340777
21
-2.9237252
0
LINE
8
layer1
10
6.6340777
20
-2.9237252
11
6.6048156
21
-2.9260881
0
LINE
8
layer1
10
6.6048156
20
-2.9260881
11
6.5785985
21
-2.930889
0
LINE
8
layer1
10
6.5785985
20
-2.930889
11
6.5555257
21
-2.9380215
0
LINE
8
layer1
10
6.5555257
20
-2.9380215
11
6.5356652
21
-2.9473296
0
LINE
8
layer1
10
6.5356652
20
-2.9473296
11
6.5191075
21
-2.9587021
0
LINE
8
layer1
10
6.5191075
20
-2.9587021
11
6.5059252
21
-2.9719965
0
LINE
8
layer1
10
6.5059252
20
-2.9719965
11
6.4943089
21
-2.9910943
0
LINE
8
layer1
10
6.4943089
20
-2.9910943
11
6.3706966
21
-3.2460321
0
LINE
8
layer1
10
6.3706966
20
-3.2460321
11
6.2371051
21
-3.4958851
0
LINE
8
layer1
10
6.2371051
20
-3.4958851
11
6.2284826
21
-3.5165084
0
LINE
8
layer1
10
6.2284826
20
-3.5165084
11
6.2254756
21
-3.5349873
0
LINE
8
layer1
10
6.2254756
20
-3.5349873
11
6.2260074
21
-3.5550674
0
LINE
8
layer1
10
6.2260074
20
-3.5550674
11
6.2301507
21
-3.5766059
0
LINE
8
layer1
10
6.2301507
20
-3.5766059
11
6.2379422
21
-3.5994647
0
LINE
8
layer1
10
6.2379422
20
-3.5994647
11
6.2494682
21
-3.6234967
0
LINE
8
layer1
10
6.2494682
20
-3.6234967
11
6.2647564
21
-3.648559
0
LINE
8
layer1
10
6.2647564
20
-3.648559
11
6.2838618
21
-3.6745001
0
LINE
8
layer1
10
6.2838618
20
-3.6745001
11
6.3068257
21
-3.7011726
0
LINE
8
layer1
10
6.3068257
20
-3.7011726
11
6.364481
21
-3.7561048
0
LINE
8
layer1
10
6.364481
20
-3.7561048
11
6.4379598
21
-3.8121411
0
LINE
8
layer1
10
6.4379598
20
-3.8121411
11
6.481239
21
-3.8408596
0
LINE
8
layer1
10
6.481239
20
-3.8408596
11
6.5381822
21
-3.8841496
0
LINE
8
layer1
10
6.5381822
20
-3.8841496
11
6.6282118
21
-3.965061
0
LINE
8
layer1
10
6.6282118
20
-3.965061
11
6.6842033
21
-4.0217829
0
LINE
8
layer1
10
6.6842033
20
-4.0217829
11
6.7485
21
-4.0926242
0
LINE
8
layer1
10
6.7485
20
-4.0926242
11
6.8163615
21
-4.1740024
0
LINE
8
layer1
10
6.8163615
20
-4.1740024
11
6.8890266
21
-4.268883
0
LINE
8
layer1
10
6.8890266
20
-4.268883
11
6.9666212
21
-4.3795301
0
LINE
8
layer1
10
6.9666212
20
-4.3795301
11
7.0453612
21
-4.502489
0
LINE
8
layer1
10
7.0453612
20
-4.502489
11
7.1265354
21
-4.6417722
0
LINE
8
layer1
10
7.1265354
20
-4.6417722
11
7.2066269
21
-4.7934668
0
LINE
8
layer1
10
7.2066269
20
-4.7934668
11
7.2790821
21
-4.945174
0
ARC
8
layer1
10
-0.0000102
20
0.000007
40
8.8
50
322.190931
51
325.8090739
0
LINE
8
layer1
10
6.9525001
20
-5.3946757
11
6.785828
21
-5.3726468
0
LINE
8
layer1
10
6.785828
20
-5.3726468
11
6.6168083
21
-5.3433514
0
LINE
8
layer1
10
6.6168083
20
-5.3433514
11
6.4592578
21
-5.3091911
0
LINE
8
layer1
10
6.4592578
20
-5.3091911
11
6.3179849
21
-5.2723013
0
LINE
8
layer1
10
6.3179849
20
-5.2723013
11
6.1887753
21
-5.2326962
0
LINE
8
layer1
10
6.1887753
20
-5.2326962
11
6.0760837
21
-5.1929073
0
LINE
8
layer1
10
6.0760837
20
-5.1929073
11
5.9777181
21
-5.1535144
0
LINE
8
layer1
10
5.9777181
20
-5.1535144
11
5.8904753
21
-5.1142559
0
LINE
8
layer1
10
5.8904753
20
-5.1142559
11
5.8192272
21
-5.0785328
0
LINE
8
layer1
10
5.8192272
20
-5.0785328
11
5.7144552
21
-5.0179126
0
LINE
8
layer1
10
5.7144552
20
-5.0179126
11
5.6556875
21
-4.9771337
0
LINE
8
layer1
10
5.6556875
20
-4.9771337
11
5.6150006
21
-4.9448472
0
LINE
8
layer1
10
5.6150006
20
-4.9448472
11
5.5390008
21
-4.8922809
0
LINE
8
layer1
10
5.5390008
20
-4.8922809
11
5.4689406
21
-4.8544224
0
LINE
8
layer1
10
5.4689406
20
-4.8544224
11
5.4364774
21
-4.8408247
0
LINE
8
layer1
10
5.4364774
20
-4.8408247
11
5.4059021
21
-4.8306707
0
LINE
8
layer1
10
5.4059021
20
-4.8306707
11
5.377342
21
-4.8238754
0
LINE
8
layer1
10
5.377342
20
-4.8238754
11
5.3509245
21
-4.8203399
0
LINE
8
layer1
10
5.3509245
20
-4.8203399
11
5.3267768
21
-4.8199934
0
LINE
8
layer1
10
5.3267768
20
-4.8199934
11
5.3050121
21
-4.8227087
0
LINE
8
layer1
10
5.3050121
20
-4.8227087
11
5.2857505
21
-4.8284079
0
LINE
8
layer1
10
5.2857505
20
-4.8284079
11
5.2691052
21
-4.8369781
0
LINE
8
layer1
10
5.2691052
20
-4.8369781
11
5.2521558
21
-4.8515515
0
LINE
8
layer1
10
5.2521558
20
-4.8515515
11
5.0558135
21
-5.0558135
0
LINE
8
layer1
10
5.0558135
20
-5.0558135
11
4.8515515
21
-5.2521558
0
LINE
8
layer1
10
4.8515515
20
-5.2521558
11
4.8369781
21
-5.2691052
0
LINE
8
layer1
10
4.8369781
20
-5.2691052
11
4.8284079
21
-5.2857505
0
LINE
8
layer1
10
4.8284079
20
-5.2857505
11
4.8227087
21
-5.3050121
0
LINE
8
layer1
10
4.8227087
20
-5.3050121
11
4.8199934
21
-5.3267768
0
LINE
8
layer1
10
4.8199934
20
-5.3267768
11
4.8203399
21
-5.3509245
0
LINE
8
layer1
10
4.8203399
20
-5.3509245
11
4.8238754
21
-5.377342
0
LINE
8
layer1
10
4.8238754
20
-5.377342
11
4.8306707
21
-5.4059021
0
LINE
8
layer1
10
4.8306707
20
-5.4059021
11
4.8408247
21
-5.4364774
0
LINE
8
layer1
10
4.8408247
20
-5.4364774
11
4.8544224
21
-5.4689406
0
LINE
8
layer1
10
4.8544224
20
-5.4689406
11
4.8922809
21
-5.5390008
0
LINE
8
layer1
10
4.8922809
20
-5.5390008
11
4.9448472
21
-5.6150006
0
LINE
8
layer1
10
4.9448472
20
-5.6150006
11
4.9771337
21
-5.6556875
0
LINE
8
layer1
10
4.9771337
20
-5.6556875
11
5.0179126
21
-5.7144552
0
LINE
8
layer1
10
5.0179126
20
-5.7144552
11
5.0785328
21
-5.8192272
0
LINE
8
layer1
10
5.0785328
20
-5.8192272
11
5.1142559
21
-5.8904753
0
LINE
8
layer1
10
5.1142559
20
-5.8904753
11
5.1535144
21
-5.9777181
0
LINE
8
layer1
10
5.1535144
20
-5.9777181
11
5.1929073
21
-6.0760837
0
LINE
8
layer1
10
5.1929073
20
-6.0760837
11
5.2326962
21
-6.1887753
0
LINE
8
layer1
10
5.2326962
20
-6.1887753
11
5.2723013
21
-6.3179849
0
LINE
8
layer1
10
5.2723013
20
-6.3179849
11
5.3091911
21
-6.4592578
0
LINE
8
layer1
10
5.3091911
20
-6.4592578
11
5.3433514
21
-6.6168083
0
LINE
8
layer1
10
5.3433514
20
-6.6168083
11
5.3726468
21
-6.785828
0
LINE
8
layer1
10
5.3726468
20
-6.785828
11
5.3946757
21
-6.9525001
0
ARC
8
layer1
10
-0.0000069
20
0.0000102
40
8.8
50
304.1909261
51
307.809069
0
LINE
8
layer1
10
4.945174
20
-7.2790821
11
4.7934668
21
-7.2066269
0
LINE
8
layer1
10
4.7934668
20
-7.2066269
11
4.6417722
21
-7.1265354
0
LINE
8
layer1
10
4.6417722
20
-7.1265354
11
4.502489
21
-7.0453612
0
LINE
8
layer1
10
4.502489
20
-7.0453612
11
4.3795301
21
-6.9666212
0
LINE
8
layer1
10
4.3795301
20
-6.9666212
11
4.268883
21
-6.8890266
0
LINE
8
layer1
10
4.268883
20
-6.8890266
11
4.1740024
21
-6.8163615
0
LINE
8
layer1
10
4.1740024
20
-6.8163615
11
4.0926242
21
-6.7485
0
LINE
8
layer1
10
4.0926242
20
-6.7485
11
4.0217829
21
-6.6842033
0
LINE
8
layer1
10
4.0217829
20
-6.6842033
11
3.965061
21
-6.6282118
0
LINE
8
layer1
10
3.965061
20
-6.6282118
11
3.8841496
21
-6.5381822
0
LINE
8
layer1
10
3.8841496
20
-6.5381822
11
3.8408596
21
-6.481239
0
LINE
8
layer1
10
3.8408596
20
-6.481239
11
3.8121411
21
-6.4379598
0
LINE
8
layer1
10
3.8121411
20
-6.4379598
11
3.7561048
21
-6.364481
0
LINE
8
layer1
10
3.7561048
20
-6.364481
11
3.7011726
21
-6.3068257
0
LINE
8
layer1
10
3.7011726
20
-6.3068257
11
3.6745001
21
-6.2838618
0
LINE
8
layer1
10
3.6745001
20
-6.2838618
11
3.648559
21
-6.2647564
0
LINE
8
layer1
10
3.648559
20
-6.2647564
11
3.6234967
21
-6.2494682
0
LINE
8
layer1
10
3.6234967
20
-6.2494682
11
3.5994647
21
-6.2379422
0
LINE
8
layer1
10
3.5994647
20
-6.2379422
11
3.5766059
21
-6.2301507
0
LINE
8
layer1
10
3.5766059
20
-6.2301507
11
3.5550674
21
-6.2260074
0
LINE
8
layer1
10
3.5550674
20
-6.2260074
11
3.5349873
21
-6.2254756
0
LINE
8
layer1
10
3.5349873
20
-6.2254756
11
3.5165084
21
-6.2284826
0
LINE
8
layer1
10
3.5165084
20
-6.2284826
11
3.4958851
21
-6.2371051
0
LINE
8
layer1
10
3.4958851
20
-6.2371051
11
3.2460321
21
-6.3706966
0
LINE
8
layer1
10
3.2460321
20
-6.3706966
11
2.9910943
21
-6.4943089
0
LINE
8
layer1
10
2.9910943
20
-6.4943089
11
2.9719965
21
-6.5059252
0
LINE
8
layer1
10
2.9719965
20
-6.5059252
11
2.9587021
21
-6.5191075
0
LINE
8
layer1
10
2.9587021
20
-6.5191075
11
2.9473296
21
-6.5356652
0
LINE
8
layer1
10
2.9473296
20
-6.5356652
11
2.9380215
21
-6.5555257
0
LINE
8
layer1
10
2.9380215
20
-6.5555257
11
2.930889
21
-6.5785985
0
LINE
8
layer1
10
2.930889
20
-6.5785985
11
2.9260881
21
-6.6048156
0
LINE
8
layer1
10
2.9260881
20
-6.6048156
11
2.9237252
21
-6.6340777
0
LINE
8
layer1
10
2.9237252
20
-6.6340777
11
2.923934
21
-6.6662943
0
LINE
8
layer1
10
2.923934
20
-6.6662943
11
2.9268345
21
-6.7013706
0
LINE
8
layer1
10
2.9268345
20
-6.7013706
11
2.9411903
21
-6.7797007
0
LINE
8
layer1
10
2.9411903
20
-6.7797007
11
2.9676986
21
-6.8682247
0
LINE
8
layer1
10
2.9676986
20
-6.8682247
11
2.9858319
21
-6.9168974
0
LINE
8
layer1
10
2.9858319
20
-6.9168974
11
3.0064547
21
-6.9853901
0
LINE
8
layer1
10
3.0064547
20
-6.9853901
11
3.0317316
21
-7.1037669
0
LINE
8
layer1
10
3.0317316
20
-7.1037669
11
3.0436894
21
-7.1825669
0
LINE
8
layer1
10
3.0436894
20
-7.1825669
11
3.054067
21
-7.2776713
0
LINE
8
layer1
10
3.054067
20
-7.2776713
11
3.0611352
21
-7.3833956
0
LINE
8
layer1
10
3.0611352
20
-7.3833956
11
3.0641531
21
-7.5028672
0
LINE
8
layer1
10
3.0641531
20
-7.5028672
11
3.0618918
21
-7.6379915
0
LINE
8
layer1
10
3.0618918
20
-7.6379915
11
3.0533203
21
-7.7837495
0
LINE
8
layer1
10
3.0533203
20
-7.7837495
11
3.037123
21
-7.944145
0
LINE
8
layer1
10
3.037123
20
-7.944145
11
3.0127546
21
-8.1139451
0
LINE
8
layer1
10
3.0127546
20
-8.1139451
11
2.9822008
21
-8.279267
0
ARC
8
layer1
10
-0.0000034
20
0.0000118
40
8.8
50
286.1909263
51
289.809069
0
LINE
8
layer1
10
2.4537799
20
-8.4509613
11
2.3318876
21
-8.3351722
0
LINE
8
layer1
10
2.3318876
20
-8.3351722
11
2.2123672
21
-8.2121244
0
LINE
8
layer1
10
2.2123672
20
-8.2121244
11
2.1049851
21
-8.0918823
0
LINE
8
layer1
10
2.1049851
20
-8.0918823
11
2.0123762
21
-7.9789997
0
LINE
8
layer1
10
2.0123762
20
-7.9789997
11
1.9311227
21
-7.8710111
0
LINE
8
layer1
10
1.9311227
20
-7.8710111
11
1.8633406
21
-7.7725827
0
LINE
8
layer1
10
1.8633406
20
-7.7725827
11
1.8069157
21
-7.6828953
0
LINE
8
layer1
10
1.8069157
20
-7.6828953
11
1.7594104
21
-7.5998544
0
LINE
8
layer1
10
1.7594104
20
-7.5998544
11
1.722767
21
-7.5290753
0
LINE
8
layer1
10
1.722767
20
-7.5290753
11
1.6736363
21
-7.418449
0
LINE
8
layer1
10
1.6736363
20
-7.418449
11
1.6500615
21
-7.3509155
0
LINE
8
layer1
10
1.6500615
20
-7.3509155
11
1.6361226
21
-7.30088
0
LINE
8
layer1
10
1.6361226
20
-7.30088
11
1.6055352
21
-7.2136814
0
LINE
8
layer1
10
1.6055352
20
-7.2136814
11
1.571108
21
-7.1418729
0
LINE
8
layer1
10
1.571108
20
-7.1418729
11
1.5528372
21
-7.1117907
0
LINE
8
layer1
10
1.5528372
20
-7.1117907
11
1.5340696
21
-7.0856042
0
LINE
8
layer1
10
1.5340696
20
-7.0856042
11
1.5149583
21
-7.0633195
0
LINE
8
layer1
10
1.5149583
20
-7.0633195
11
1.4956642
21
-7.0449314
0
LINE
8
layer1
10
1.4956642
20
-7.0449314
11
1.4763319
21
-7.0304574
0
LINE
8
layer1
10
1.4763319
20
-7.0304574
11
1.4571279
21
-7.0198611
0
LINE
8
layer1
10
1.4571279
20
-7.0198611
11
1.438195
21
-7.0131503
0
LINE
8
layer1
10
1.438195
20
-7.0131503
11
1.4196913
21
-7.0102998
0
LINE
8
layer1
10
1.4196913
20
-7.0102998
11
1.3974129
21
-7.0121274
0
LINE
8
layer1
10
1.3974129
20
-7.0121274
11
1.1185064
21
-7.0619716
0
LINE
8
layer1
10
1.1185064
20
-7.0619716
11
0.8378479
21
-7.1007538
0
LINE
8
layer1
10
0.8378479
20
-7.1007538
11
0.8160952
21
-7.1059
0
LINE
8
layer1
10
0.8160952
20
-7.1059
11
0.7993779
21
-7.1143289
0
LINE
8
layer1
10
0.7993779
20
-7.1143289
11
0.7834454
21
-7.1265619
0
LINE
8
layer1
10
0.7834454
20
-7.1265619
11
0.7684557
21
-7.142574
0
LINE
8
layer1
10
0.7684557
20
-7.142574
11
0.7545424
21
-7.1623135
0
LINE
8
layer1
10
0.7545424
20
-7.1623135
11
0.7418748
21
-7.1857639
0
LINE
8
layer1
10
0.7418748
20
-7.1857639
11
0.7305852
21
-7.2128636
0
LINE
8
layer1
10
0.7305852
20
-7.2128636
11
0.7208283
21
-7.243568
0
LINE
8
layer1
10
0.7208283
20
-7.243568
11
0.7127476
21
-7.2778238
0
LINE
8
layer1
10
0.7127476
20
-7.2778238
11
0.7021954
21
-7.3567563
0
LINE
8
layer1
10
0.7021954
20
-7.3567563
11
0.7000509
21
-7.4491392
0
LINE
8
layer1
10
0.7000509
20
-7.4491392
11
0.702256
21
-7.5010331
0
LINE
8
layer1
10
0.702256
20
-7.5010331
11
0.7007041
21
-7.5725463
0
LINE
8
layer1
10
0.7007041
20
-7.5725463
11
0.6881634
21
-7.6929404
0
LINE
8
layer1
10
0.6881634
20
-7.6929404
11
0.6751854
21
-7.7715788
0
LINE
8
layer1
10
0.6751854
20
-7.7715788
11
0.6556662
21
-7.8652353
0
LINE
8
layer1
10
0.6556662
20
-7.8652353
11
0.6297179
21
-7.9679693
0
LINE
8
layer1
10
0.6297179
20
-7.9679693
11
0.5956693
21
-8.0825261
0
LINE
8
layer1
10
0.5956693
20
-8.0825261
11
0.551763
21
-8.2103381
0
LINE
8
layer1
10
0.551763
20
-8.2103381
11
0.4985693
21
-8.3463135
0
LINE
8
layer1
10
0.4985693
20
-8.3463135
11
0.4335998
21
-8.4938535
0
LINE
8
layer1
10
0.4335998
20
-8.4938535
11
0.357953
21
-8.6478127
0
LINE
8
layer1
10
0.357953
20
-8.6478127
11
0.2778073
21
-8.7956015
0
ARC
8
layer1
10
0
20
0.0000124
40
8.8
50
268.1909283
51
271.8090717
0
LINE
8
layer1
10
-0.2778073
20
-8.7956015
11
-0.357953
21
-8.6478127
0
LINE
8
layer1
10
-0.357953
20
-8.6478127
11
-0.4335998
21
-8.4938535
0
LINE
8
layer1
10
-0.4335998
20
-8.4938535
11
-0.4985693
21
-8.3463135
0
LINE
8
layer1
10
-0.4985693
20
-8.3463135
11
-0.551763
21
-8.2103381
0
LINE
8
layer1
10
-0.551763
20
-8.2103381
11
-0.5956693
21
-8.0825261
0
LINE
8
layer1
10
-0.5956693
20
-8.0825261
11
-0.6297179
21
-7.9679693
0
LINE
8
layer1
10
-0.6297179
20
-7.9679693
11
-0.6556662
21
-7.8652353
0
LINE
8
layer1
10
-0.6556662
20
-7.8652353
11
-0.6751854
21
-7.7715788
0
LINE
8
layer1
10
-0.6751854
20
-7.7715788
11
-0.6881634
21
-7.6929404
0
LINE
8
layer1
10
-0.6881634
20
-7.6929404
11
-0.7007041
21
-7.5725463
0
LINE
8
layer1
10
-0.7007041
20
-7.5725463
11
-0.702256
21
-7.5010331
0
LINE
8
layer1
10
-0.702256
20
-7.5010331
11
-0.7000509
21
-7.4491392
0
LINE
8
layer1
10
-0.7000509
20
-7.4491392
11
-0.7021954
21
-7.3567563
0
LINE
8
layer1
10
-0.7021954
20
-7.3567563
11
-0.7127476
21
-7.2778238
0
LINE
8
layer1
10
-0.7127476
20
-7.2778238
11
-0.7208283
21
-7.243568
0
LINE
8
layer1
10
-0.7208283
20
-7.243568
11
-0.7305852
21
-7.2128636
0
LINE
8
layer1
10
-0.7305852
20
-7.2128636
11
-0.7418748
21
-7.1857639
0
LINE
8
layer1
10
-0.7418748
20
-7.1857639
11
-0.7545424
21
-7.1623135
0
LINE
8
layer1
10
-0.7545424
20
-7.1623135
11
-0.7684557
21
-7.142574
0
LINE
8
layer1
10
-0.7684557
20
-7.142574
11
-0.7834454
21
-7.1265619
0
LINE
8
layer1
10
-0.7834454
20
-7.1265619
11
-0.7993779
21
-7.1143289
0
LINE
8
layer1
10
-0.7993779
20
-7.1143289
11
-0.8160952
21
-7.1059
0
LINE
8
layer1
10
-0.8160952
20
-7.1059
11
-0.8378479
21
-7.1007538
0
LINE
8
layer1
10
-0.8378479
20
-7.1007538
11
-1.1185064
21
-7.0619716
0
LINE
8
layer1
10
-1.1185064
20
-7.0619716
11
-1.3974129
21
-7.0121274
0
LINE
8
layer1
10
-1.3974129
20
-7.0121274
11
-1.4196913
21
-7.0102998
0
LINE
8
layer1
10
-1.4196913
20
-7.0102998
11
-1.438195
21
-7.0131503
0
LINE
8
layer1
10
-1.438195
20
-7.0131503
11
-1.4571279
21
-7.0198611
0
LINE
8
layer1
10
-1.4571279
20
-7.0198611
11
-1.4763319
21
-7.0304574
0
LINE
8
layer1
10
-1.4763319
20
-7.0304574
11
-1.4956642
21
-7.0449314
0
LINE
8
layer1
10
-1.4956642
20
-7.0449314
11
-1.5149583
21
-7.0633195
0
LINE
8
layer1
10
-1.5149583
20
-7.0633195
11
-1.5340696
21
-7.0856042
0
LINE
8
layer1
10
-1.5340696
20
-7.0856042
11
-1.5528372
21
-7.1117907
0
LINE
8
layer1
10
-1.5528372
20
-7.1117907
11
-1.571108
21
-7.1418729
0
LINE
8
layer1
10
-1.571108
20
-7.1418729
11
-1.6055352
21
-7.2136814
0
LINE
8
layer1
10
-1.6055352
20
-7.2136814
11
-1.6361226
21
-7.30088
0
LINE
8
layer1
10
-1.6361226
20
-7.30088
11
-1.6500615
21
-7.3509155
0
LINE
8
layer1
10
-1.6500615
20
-7.3509155
11
-1.6736363
21
-7.418449
0
LINE
8
layer1
10
-1.6736363
20
-7.418449
11
-1.722767
21
-7.5290753
0
LINE
8
layer1
10
-1.722767
20
-7.5290753
11
-1.7594104
21
-7.5998544
0
LINE
8
layer1
10
-1.7594104
20
-7.5998544
11
-1.8069157
21
-7.6828953
0
LINE
8
layer1
10
-1.8069157
20
-7.6828953
11
-1.8633406
21
-7.7725827
0
LINE
8
layer1
10
-1.8633406
20
-7.7725827
11
-1.9311227
21
-7.8710111
0
LINE
8
layer1
10
-1.9311227
20
-7.8710111
11
-2.0123762
21
-7.9789997
0
LINE
8
layer1
10
-2.0123762
20
-7.9789997
11
-2.1049851
21
-8.0918823
0
LINE
8
layer1
10
-2.1049851
20
-8.0918823
11
-2.2123672
21
-8.2121244
0
LINE
8
layer1
10
-2.2123672
20
-8.2121244
11
-2.3318876
21
-8.3351722
0
LINE
8
layer1
10
-2.3318876
20
-8.3351722
11
-2.4537799
21
-8.4509613
0
ARC
8
layer1
10
0.0000035
20
0.0000118
40
8.8
50
250.190931
51
253.8090737
0
LINE
8
layer1
10
-2.9822008
20
-8.279267
11
-3.0127546
21
-8.1139451
0
LINE
8
layer1
10
-3.0127546
20
-8.1139451
11
-3.037123
21
-7.944145
0
LINE
8
layer1
10
-3.037123
20
-7.944145
11
-3.0533203
21
-7.7837495
0
LINE
8
layer1
10
-3.0533203
20
-7.7837495
11
-3.0618918
21
-7.6379915
0
LINE
8
layer1
10
-3.0618918
20
-7.6379915
11
-3.0641531
21
-7.5028672
0
LINE
8
layer1
10
-3.0641531
20
-7.5028672
11
-3.0611352
21
-7.3833956
0
LINE
8
layer1
10
-3.0611352
20
-7.3833956
11
-3.054067
21
-7.2776713
0
LINE
8
layer1
10
-3.054067
20
-7.2776713
11
-3.0436894
21
-7.1825669
0
LINE
8
layer1
10
-3.0436894
20
-7.1825669
11
-3.0317316
21
-7.1037669
0
LINE
8
layer1
10
-3.0317316
20
-7.1037669
11
-3.0064547
21
-6.9853901
0
LINE
8
layer1
10
-3.0064547
20
-6.9853901
11
-2.9858319
21
-6.9168974
0
LINE
8
layer1
10
-2.9858319
20
-6.9168974
11
-2.9676986
21
-6.8682247
0
LINE
8
layer1
10
-2.9676986
20
-6.8682247
11
-2.9411903
21
-6.7797007
0
LINE
8
layer1
10
-2.9411903
20
-6.7797007
11
-2.9268345
21
-6.7013706
0
LINE
8
layer1
10
-2.9268345
20
-6.7013706
11
-2.923934
21
-6.6662943
0
LINE
8
layer1
10
-2.923934
20
-6.6662943
11
-2.9237252
21
-6.6340777
0
LINE
8
layer1
10
-2.9237252
20
-6.6340777
11
-2.9260881
21
-6.6048156
0
LINE
8
layer1
10
-2.9260881
20
-6.6048156
11
-2.930889
21
-6.5785985
0
LINE
8
layer1
10
-2.930889
20
-6.5785985
11
-2.9380215
21
-6.5555257
0
LINE
8
layer1
10
-2.9380215
20
-6.5555257
11
-2.9473296
21
-6.5356652
0
LINE
8
layer1
10
-2.9473296
20
-6.5356652
11
-2.9587021
21
-6.5191075
0
LINE
8
layer1
10
-2.9587021
20
-6.5191075
11
-2.9719965
21
-6.5059252
0
LINE
8
layer1
10
-2.9719965
20
-6.5059252
11
-2.9910943
21
-6.4943089
0
LINE
8
layer1
10
-2.9910943
20
-6.4943089
11
-3.2460321
21
-6.3706966
0
LINE
8
layer1
10
-3.2460321
20
-6.3706966
11
-3.4958851
21
-6.2371051
0
LINE
8
layer1
10
-3.4958851
20
-6.2371051
11
-3.5165084
21
-6.2284826
0
LINE
8
layer1
10
-3.5165084
20
-6.2284826
11
-3.5349873
21
-6.2254756
0
LINE
8
layer1
10
-3.5349873
20
-6.2254756
11
-3.5550674
21
-6.2260074
0
LINE
8
layer1
10
-3.5550674
20
-6.2260074
11
-3.5766059
21
-6.2301507
0
LINE
8
layer1
10
-3.5766059
20
-6.2301507
11
-3.5994647
21
-6.2379422
0
LINE
8
layer1
10
-3.5994647
20
-6.2379422
11
-3.6234967
21
-6.2494682
0
LINE
8
layer1
10
-3.6234967
20
-6.2494682
11
-3.648559
21
-6.2647564
0
LINE
8
layer1
10
-3.648559
20
-6.2647564
11
-3.6745001
21
-6.2838618
0
LINE
8
layer1
10
-3.6745001
20
-6.2838618
11
-3.7011726
21
-6.3068257
0
LINE
8
layer1
10
-3.7011726
20
-6.3068257
11
-3.7561048
21
-6.364481
0
LINE
8
layer1
10
-3.7561048
20
-6.364481
11
-3.8121411
21
-6.4379598
0
LINE
8
layer1
10
-3.8121411
20
-6.4379598
11
-3.8408596
21
-6.481239
0
LINE
8
layer1
10
-3.8408596
20
-6.481239
11
-3.8841496
21
-6.5381822
0
LINE
8
layer1
10
-3.8841496
20
-6.5381822
11
-3.965061
21
-6.6282118
0
LINE
8
layer1
10
-3.965061
20
-6.6282118
11
-4.0217829
21
-6.6842033
0
LINE
8
layer1
10
-4.0217829
20
-6.6842033
11
-4.0926242
21
-6.7485
0
LINE
8
layer1
10
-4.0926242
20
-6.7485
11
-4.1740024
21
-6.8163615
0
LINE
8
layer1
10
-4.1740024
20
-6.8163615
11
-4.268883
21
-6.8890266
0
LINE
8
layer1
10
-4.268883
20
-6.8890266
11
-4.3795301
21
-6.9666212
0
LINE
8
layer1
10
-4.3795301
20
-6.9666212
11
-4.502489
21
-7.0453612
0
LINE
8
layer1
10
-4.502489
20
-7.0453612
11
-4.6417722
21
-7.1265354
0
LINE
8
layer1
10
-4.6417722
20
-7.1265354
11
-4.7934668
21
-7.2066269
0
LINE
8
layer1
10
-4.7934668
20
-7.2066269
11
-4.945174
21
-7.2790821
0
ARC
8
layer1
10
0.000007
20
0.0000102
40
8.8
50
232.190931
51
235.8090739
0
LINE
8
layer1
10
-5.3946757
20
-6.9525001
11
-5.3726468
21
-6.785828
0
LINE
8
layer1
10
-5.3726468
20
-6.785828
11
-5.3433514
21
-6.6168083
0
LINE
8
layer1
10
-5.3433514
20
-6.6168083
11
-5.3091911
21
-6.4592578
0
LINE
8
layer1
10
-5.3091911
20
-6.4592578
11
-5.2723013
21
-6.3179849
0
LINE
8
layer1
10
-5.2723013
20
-6.3179849
11
-5.2326962
21
-6.1887753
0
LINE
8
layer1
10
-5.2326962
20
-6.1887753
11
-5.1929073
21
-6.0760837
0
LINE
8
layer1
10
-5.1929073
20
-6.0760837
11
-5.1535144
21
-5.9777181
0
LINE
8
layer1
10
-5.1535144
20
-5.9777181
11
-5.1142559
21
-5.8904753
0
LINE
8
layer1
10
-5.1142559
20
-5.8904753
11
-5.0785328
21
-5.8192272
0
LINE
8
layer1
10
-5.0785328
20
-5.8192272
11
-5.0179126
21
-5.7144552
0
LINE
8
layer1
10
-5.0179126
20
-5.7144552
11
-4.9771337
21
-5.6556875
0
LINE
8
layer1
10
-4.9771337
20
-5.6556875
11
-4.9448472
21
-5.6150006
0
LINE
8
layer1
10
-4.9448472
20
-5.6150006
11
-4.8922809
21
-5.5390008
0
LINE
8
layer1
10
-4.8922809
20
-5.5390008
11
-4.8544224
21
-5.4689406
0
LINE
8
layer1
10
-4.8544224
20
-5.4689406
11
-4.8408247
21
-5.4364774
0
LINE
8
layer1
10
-4.8408247
20
-5.4364774
11
-4.8306707
21
-5.4059021
0
LINE
8
layer1
10
-4.8306707
20
-5.4059021
11
-4.8238754
21
-5.377342
0
LINE
8
layer1
10
-4.8238754
20
-5.377342
11
-4.8203399
21
-5.3509245
0
LINE
8
layer1
10
-4.8203399
20
-5.3509245
11
-4.8199934
21
-5.3267768
0
LINE
8
layer1
10
-4.8199934
20
-5.3267768
11
-4.8227087
21
-5.3050121
0
LINE
8
layer1
10
-4.8227087
20
-5.3050121
11
-4.8284079
21
-5.2857505
0
LINE
8
layer1
10
-4.8284079
20
-5.2857505
11
-4.8369781
21
-5.2691052
0
LINE
8
layer1
10
-4.8369781
20
-5.2691052
11
-4.8515515
21
-5.2521558
0
LINE
8
layer1
10
-4.8515515
20
-5.2521558
11
-5.0558135
21
-5.0558135
0
LINE
8
layer1
10
-5.0558135
20
-5.0558135
11
-5.2521558
21
-4.8515515
0
LINE
8
layer1
10
-5.2521558
20
-4.8515515
11
-5.2691052
21
-4.8369781
0
LINE
8
layer1
10
-5.2691052
20
-4.8369781
11
-5.2857505
21
-4.8284079
0
LINE
8
layer1
10
-5.2857505
20
-4.8284079
11
-5.3050121
21
-4.8227087
0
LINE
8
layer1
10
-5.3050121
20
-4.8227087
11
-5.3267768
21
-4.8199934
0
LINE
8
layer1
10
-5.3267768
20
-4.8199934
11
-5.3509245
21
-4.8203399
0
LINE
8
layer1
10
-5.3509245
20
-4.8203399
11
-5.377342
21
-4.8238754
0
LINE
8
layer1
10
-5.377342
20
-4.8238754
11
-5.4059021
21
-4.8306707
0
LINE
8
layer1
10
-5.4059021
20
-4.8306707
11
-5.4364774
21
-4.8408247
0
LINE
8
layer1
10
-5.4364774
20
-4.8408247
11
-5.4689406
21
-4.8544224
0
LINE
8
layer1
10
-5.4689406
20
-4.8544224
11
-5.5390008
21
-4.8922809
0
LINE
8
layer1
10
-5.5390008
20
-4.8922809
11
-5.6150006
21
-4.9448472
0
LINE
8
layer1
10
-5.6150006
20
-4.9448472
11
-5.6556875
21
-4.9771337
0
LINE
8
layer1
10
-5.6556875
20
-4.9771337
11
-5.7144552
21
-5.0179126
0
LINE
8
layer1
10
-5.7144552
20
-5.0179126
11
-5.8192272
21
-5.0785328
0
LINE
8
layer1
10
-5.8192272
20
-5.0785328
11
-5.8904753
21
-5.1142559
0
LINE
8
layer1
10
-5.8904753
20
-5.1142559
11
-5.9777181
21
-5.1535144
0
LINE
8
layer1
10
-5.9777181
20
-5.1535144
11
-6.0760837
21
-5.1929073
0
LINE
8
layer1
10
-6.0760837
20
-5.1929073
11
-6.1887753
21
-5.2326962
0
LINE
8
layer1
10
-6.1887753
20
-5.2326962
11
-6.3179849
21
-5.2723013
0
LINE
8
layer1
10
-6.3179849
20
-5.2723013
11
-6.4592578
21
-5.3091911
0
LINE
8
layer1
10
-6.4592578
20
-5.3091911
11
-6.6168083
21
-5.3433514
0
LINE
8
layer1
10
-6.6168083
20
-5.3433514
11
-6.785828
21
-5.3726468
0
LINE
8
layer1
10
-6.785828
20
-5.3726468
11
-6.9525001
21
-5.3946757
0
ARC
8
layer1
10
0.0000102
20
0.0000069
40
8.8
50
214.1909261
51
217.809069
0
LINE
8
layer1
10
-7.2790821
20
-4.945174
11
-7.2066269
21
-4.7934668
0
LINE
8
layer1
10
-7.2066269
20
-4.7934668
11
-7.1265354
21
-4.6417722
0
LINE
8
layer1
10
-7.1265354
20
-4.6417722
11
-7.0453612
21
-4.502489
0
LINE
8
layer1
10
-7.0453612
20
-4.502489
11
-6.9666212
21
-4.3795301
0
LINE
8
layer1
10
-6.9666212
20
-4.3795301
11
-6.8890266
21
-4.268883
0
LINE
8
layer1
10
-6.8890266
20
-4.268883
11
-6.8163615
21
-4.1740024
0
LINE
8
layer1
10
-6.8163615
20
-4.1740024
11
-6.7485
21
-4.0926242
0
LINE
8
layer1
10
-6.7485
20
-4.0926242
11
-6.6842033
21
-4.0217829
0
LINE
8
layer1
10
-6.6842033
20
-4.0217829
11
-6.6282118
21
-3.965061
0
LINE
8
layer1
10
-6.6282118
20
-3.965061
11
-6.5381822
21
-3.8841496
0
LINE
8
layer1
10
-6.5381822
20
-3.8841496
11
-6.481239
21
-3.8408596
0
LINE
8
layer1
10
-6.481239
20
-3.8408596
11
-6.4379598
21
-3.8121411
0
LINE
8
layer1
10
-6.4379598
20
-3.8121411
11
-6.364481
21
-3.7561048
0
LINE
8
layer1
10
-6.364481
20
-3.7561048
11
-6.3068257
21
-3.7011726
0
LINE
8
layer1
10
-6.3068257
20
-3.7011726
11
-6.2838618
21
-3.6745001
0
LINE
8
layer1
10
-6.2838618
20
-3.6745001
11
-6.2647564
21
-3.648559
0
LINE
8
layer1
10
-6.2647564
20
-3.648559
11
-6.2494682
21
-3.6234967
0
LINE
8
layer1
10
-6.2494682
20
-3.6234967
11
-6.2379422
21
-3.5994647
0
LINE
8
layer1
10
-6.2379422
20
-3.5994647
11
-6.2301507
21
-3.5766059
0
LINE
8
layer1
10
-6.2301507
20
-3.5766059
11
-6.2260074
21
-3.5550674
0
LINE
8
layer1
10
-6.2260074
20
-3.5550674
11
-6.2254756
21
-3.5349873
0
LINE
8
layer1
10
-6.2254756
20
-3.5349873
11
-6.2284826
21
-3.5165084
0
LINE
8
layer1
10
-6.2284826
20
-3.5165084
11
-6.2371051
21
-3.4958851
0
LINE
8
layer1
10
-6.2371051
20
-3.4958851
11
-6.3706966
21
-3.2460321
0
LINE
8
layer1
10
-6.3706966
20
-3.2460321
11
-6.4943089
21
-2.9910943
0
LINE
8
layer1
10
-6.4943089
20
-2.9910943
11
-6.5059252
21
-2.9719965
0
LINE
8
layer1
10
-6.5059252
20
-2.9719965
11
-6.5191075
21
-2.9587021
0
LINE
8
layer1
10
-6.5191075
20
-2.9587021
11
-6.5356652
21
-2.9473296
0
LINE
8
layer1
10
-6.5356652
20
-2.9473296
11
-6.5555257
21
-2.9380215
0
LINE
8
layer1
10
-6.5555257
20
-2.9380215
11
-6.5785985
21
-2.930889
0
LINE
8
layer1
10
-6.5785985
20
-2.930889
11
-6.6048156
21
-2.9260881
0
LINE
8
layer1
10
-6.6048156
20
-2.9260881
11
-6.6340777
21
-2.9237252
0
LINE
8
layer1
10
-6.6340777
20
-2.9237252
11
-6.6662943
21
-2.923934
0
LINE
8
layer1
10
-6.6662943
20
-2.923934
11
-6.7013706
21
-2.9268345
0
LINE
8
layer1
10
-6.7013706
20
-2.9268345
11
-6.7797007
21
-2.9411903
0
LINE
8
layer1
10
-6.7797007
20
-2.9411903
11
-6.8682247
21
-2.9676986
0
LINE
8
layer1
10
-6.8682247
20
-2.9676986
11
-6.9168974
21
-2.9858319
0
LINE
8
layer1
10
-6.9168974
20
-2.9858319
11
-6.9853901
21
-3.0064547
0
LINE
8
layer1
10
-6.9853901
20
-3.0064547
11
-7.1037669
21
-3.0317316
0
LINE
8
layer1
10
-7.1037669
20
-3.0317316
11
-7.1825669
21
-3.0436894
0
LINE
8
layer1
10
-7.1825669
20
-3.0436894
11
-7.2776713
21
-3.054067
0
LINE
8
layer1
10
-7.2776713
20
-3.054067
11
-7.3833956
21
-3.0611352
0
LINE
8
layer1
10
-7.3833956
20
-3.0611352
11
-7.5028672
21
-3.0641531
0
LINE
8
layer1
10
-7.5028672
20
-3.0641531
11
-7.6379915
21
-3.0618918
0
LINE
8
layer1
10
-7.6379915
20
-3.0618918
11
-7.7837495
21
-3.0533203
0
LINE
8
layer1
10
-7.7837495
20
-3.0533203
11
-7.944145
21
-3.037123
0
LINE
8
layer1
10
-7.944145
20
-3.037123
11
-8.1139451
21
-3.0127546
0
LINE
8
layer1
10
-8.1139451
20
-3.0127546
11
-8.279267
21
-2.9822008
0
ARC
8
layer1
10
0.0000118
20
0.0000034
40
8.8
50
196.1909263
51
199.809069
0
LINE
8
layer1
10
-8.4509613
20
-2.4537799
11
-8.3351722
21
-2.3318876
0
LINE
8
layer1
10
-8.3351722
20
-2.3318876
11
-8.2121244
21
-2.2123672
0
LINE
8
layer1
10
-8.2121244
20
-2.2123672
11
-8.0918823
21
-2.1049851
0
LINE
8
layer1
10
-8.0918823
20
-2.1049851
11
-7.9789997
21
-2.0123762
0
LINE
8
layer1
10
-7.9789997
20
-2.0123762
11
-7.8710111
21
-1.9311227
0
LINE
8
layer1
10
-7.8710111
20
-1.9311227
11
-7.7725827
21
-1.8633406
0
LINE
8
layer1
10
-7.7725827
20
-1.8633406
11
-7.6828953
21
-1.8069157
0
LINE
8
layer1
10
-7.6828953
20
-1.8069157
11
-7.5998544
21
-1.7594104
0
LINE
8
layer1
10
-7.5998544
20
-1.7594104
11
-7.5290753
21
-1.722767
0
LINE
8
layer1
10
-7.5290753
20
-1.722767
11
-7.418449
21
-1.6736363
0
LINE
8
layer1
10
-7.418449
20
-1.6736363
11
-7.3509155
21
-1.6500615
0
LINE
8
layer1
10
-7.3509155
20
-1.6500615
11
-7.30088
21
-1.6361226
0
LINE
8
layer1
10
-7.30088
20
-1.6361226
11
-7.2136814
21
-1.6055352
0
LINE
8
layer1
10
-7.2136814
20
-1.6055352
11
-7.1418729
21
-1.571108
0
LINE
8
layer1
10
-7.1418729
20
-1.571108
11
-7.1117907
21
-1.5528372
0
LINE
8
layer1
10
-7.1117907
20
-1.5528372
11
-7.0856042
21
-1.5340696
0
LINE
8
layer1
10
-7.0856042
20
-1.5340696
11
-7.0633195
21
-1.5149583
0
LINE
8
layer1
10
-7.0633195
20
-1.5149583
11
-7.0449314
21
-1.4956642
0
LINE
8
layer1
10
-7.0449314
20
-1.4956642
11
-7.0304574
21
-1.4763319
0
LINE
8
layer1
10
-7.0304574
20
-1.4763319
11
-7.0198611
21
-1.4571279
0
LINE
8
layer1
10
-7.0198611
20
-1.4571279
11
-7.0131503
21
-1.438195
0
LINE
8
layer1
10
-7.0131503
20
-1.438195
11
-7.0102998
21
-1.4196913
0
LINE
8
layer1
10
-7.0102998
20
-1.4196913
11
-7.0121274
21
-1.3974129
0
LINE
8
layer1
10
-7.0121274
20
-1.3974129
11
-7.0619716
21
-1.1185064
0
LINE
8
layer1
10
-7.0619716
20
-1.1185064
11
-7.1007538
21
-0.8378479
0
LINE
8
layer1
10
-7.1007538
20
-0.8378479
11
-7.1059
21
-0.8160952
0
LINE
8
layer1
10
-7.1059
20
-0.8160952
11
-7.1143289
21
-0.7993779
0
LINE
8
layer1
10
-7.1143289
20
-0.7993779
11
-7.1265619
21
-0.7834454
0
LINE
8
layer1
10
-7.1265619
20
-0.7834454
11
-7.142574
21
-0.7684557
0
LINE
8
layer1
10
-7.142574
20
-0.7684557
11
-7.1623135
21
-0.7545424
0
LINE
8
layer1
10
-7.1623135
20
-0.7545424
11
-7.1857639
21
-0.7418748
0
LINE
8
layer1
10
-7.1857639
20
-0.7418748
11
-7.2128636
21
-0.7305852
0
LINE
8
layer1
10
-7.2128636
20
-0.7305852
11
-7.243568
21
-0.7208283
0
LINE
8
layer1
10
-7.243568
20
-0.7208283
11
-7.2778238
21
-0.7127476
0
LINE
8
layer1
10
-7.2778238
20
-0.7127476
11
-7.3567563
21
-0.7021954
0
LINE
8
layer1
10
-7.3567563
20
-0.7021954
11
-7.4491392
21
-0.7000509
0
LINE
8
layer1
10
-7.4491392
20
-0.7000509
11
-7.5010331
21
-0.702256
0
LINE
8
layer1
10
-7.5010331
20
-0.702256
11
-7.5725463
21
-0.7007041
0
LINE
8
layer1
10
-7.5725463
20
-0.7007041
11
-7.6929404
21
-0.6881634
0
LINE
8
layer1
10
-7.6929404
20
-0.6881634
11
-7.7715788
21
-0.6751854
0
LINE
8
layer1
10
-7.7715788
20
-0.6751854
11
-7.8652353
21
-0.6556662
0
LINE
8
layer1
10
-7.8652353
20
-0.6556662
11
-7.9679693
21
-0.6297179
0
LINE
8
layer1
10
-7.9679693
20
-0.6297179
11
-8.0825261
21
-0.5956693
0
LINE
8
layer1
10
-8.0825261
20
-0.5956693
11
-8.2103381
21
-0.551763
0
LINE
8
layer1
10
-8.2103381
20
-0.551763
11
-8.3463135
21
-0.4985693
0
LINE
8
layer1
10
-8.3463135
20
-0.4985693
11
-8.4938535
21
-0.4335998
0
LINE
8
layer1
10
-8.4938535
20
-0.4335998
11
-8.6478127
21
-0.357953
0
LINE
8
layer1
10
-8.6478127
20
-0.357953
11
-8.7956015
21
-0.2778073
0
ARC
8
layer1
10
0.0000124
20
0
40
8.8
50
178.1909283
51
181.8090717
0
LINE
8
layer1
10
-8.7956015
20
0.2778073
11
-8.6478127
21
0.357953
0
LINE
8
layer1
10
-8.6478127
20
0.357953
11
-8.4938535
21
0.4335998
0
LINE
8
layer1
10
-8.4938535
20
0.4335998
11
-8.3463135
21
0.4985693
0
LINE
8
layer1
10
-8.3463135
20
0.4985693
11
-8.2103381
21
0.551763
0
LINE
8
layer1
10
-8.2103381
20
0.551763
11
-8.0825261
21
0.5956693
0
LINE
8
layer1
10
-8.0825261
20
0.5956693
11
-7.9679693
21
0.6297179
0
LINE
8
layer1
10
-7.9679693
20
0.6297179
11
-7.8652353
21
0.6556662
0
LINE
8
layer1
10
-7.8652353
20
0.6556662
11
-7.7715788
21
0.6751854
0
LINE
8
layer1
10
-7.7715788
20
0.6751854
11
-7.6929404
21
0.6881634
0
LINE
8
layer1
10
-7.6929404
20
0.6881634
11
-7.5725463
21
0.7007041
0
LINE
8
layer1
10
-7.5725463
20
0.7007041
11
-7.5010331
21
0.702256
0
LINE
8
layer1
10
-7.5010331
20
0.702256
11
-7.4491392
21
0.7000509
0
LINE
8
layer1
10
-7.4491392
20
0.7000509
11
-7.3567563
21
0.7021954
0
LINE
8
layer1
10
-7.3567563
20
0.7021954
11
-7.2778238
21
0.7127476
0
LINE
8
layer1
10
-7.2778238
20
0.7127476
11
-7.243568
21
0.7208283
0
LINE
8
layer1
10
-7.243568
20
0.7208283
11
-7.2128636
21
0.7305852
0
LINE
8
layer1
10
-7.2128636
20
0.7305852
11
-7.1857639
21
0.7418748
0
LINE
8
layer1
10
-7.1857639
20
0.7418748
11
-7.1623135
21
0.7545424
0
LINE
8
layer1
10
-7.1623135
20
0.7545424
11
-7.142574
21
0.7684557
0
LINE
8
layer1
10
-7.142574
20
0.7684557
11
-7.1265619
21
0.7834454
0
LINE
8
layer1
10
-7.1265619
20
0.7834454
11
-7.1143289
21
0.7993779
0
LINE
8
layer1
10
-7.1143289
20
0.7993779
11
-7.1059
21
0.8160952
0
LINE
8
layer1
10
-7.1059
20
0.8160952
11
-7.1007538
21
0.8378479
0
LINE
8
layer1
10
-7.1007538
20
0.8378479
11
-7.0619716
21
1.1185064
0
LINE
8
layer1
10
-7.0619716
20
1.1185064
11
-7.0121274
21
1.3974129
0
LINE
8
layer1
10
-7.0121274
20
1.3974129
11
-7.0102998
21
1.4196913
0
LINE
8
layer1
10
-7.0102998
20
1.4196913
11
-7.0131503
21
1.438195
0
LINE
8
layer1
10
-7.0131503
20
1.438195
11
-7.0198611
21
1.4571279
0
LINE
8
layer1
10
-7.0198611
20
1.4571279
11
-7.0304574
21
1.4763319
0
LINE
8
layer1
10
-7.0304574
20
1.4763319
11
-7.0449314
21
1.4956642
0
LINE
8
layer1
10
-7.0449314
20
1.4956642
11
-7.0633195
21
1.5149583
0
LINE
8
layer1
10
-7.0633195
20
1.5149583
11
-7.0856042
21
1.5340696
0
LINE
8
layer1
10
-7.0856042
20
1.5340696
11
-7.1117907
21
1.5528372
0
LINE
8
layer1
10
-7.1117907
20
1.5528372
11
-7.1418729
21
1.571108
0
LINE
8
layer1
10
-7.1418729
20
1.571108
11
-7.2136814
21
1.6055352
0
LINE
8
layer1
10
-7.2136814
20
1.6055352
11
-7.30088
21
1.6361226
0
LINE
8
layer1
10
-7.30088
20
1.6361226
11
-7.3509155
21
1.6500615
0
LINE
8
layer1
10
-7.3509155
20
1.6500615
11
-7.418449
21
1.6736363
0
LINE
8
layer1
10
-7.418449
20
1.6736363
11
-7.5290753
21
1.722767
0
LINE
8
layer1
10
-7.5290753
20
1.722767
11
-7.5998544
21
1.7594104
0
LINE
8
layer1
10
-7.5998544
20
1.7594104
11
-7.6828953
21
1.8069157
0
LINE
8
layer1
10
-7.6828953
20
1.8069157
11
-7.7725827
21
1.8633406
0
LINE
8
layer1
10
-7.7725827
20
1.8633406
11
-7.8710111
21
1.9311227
0
LINE
8
layer1
10
-7.8710111
20
1.9311227
11
-7.9789997
21
2.0123762
0
LINE
8
layer1
10
-7.9789997
20
2.0123762
11
-8.0918823
21
2.1049851
0
LINE
8
layer1
10
-8.0918823
20
2.1049851
11
-8.2121244
21
2.2123672
0
LINE
8
layer1
10
-8.2121244
20
2.2123672
11
-8.3351722
21
2.3318876
0
LINE
8
layer1
10
-8.3351722
20
2.3318876
11
-8.4509613
21
2.4537799
0
ARC
8
layer1
10
0.0000118
20
-0.0000035
40
8.8
50
160.190931
51
163.8090737
0
LINE
8
layer1
10
-8.279267
20
2.9822008
11
-8.1139451
21
3.0127546
0
LINE
8
layer1
10
-8.1139451
20
3.0127546
11
-7.944145
21
3.037123
0
LINE
8
layer1
10
-7.944145
20
3.037123
11
-7.7837495
21
3.0533203
0
LINE
8
layer1
10
-7.7837495
20
3.0533203
11
-7.6379915
21
3.0618918
0
LINE
8
layer1
10
-7.6379915
20
3.0618918
11
-7.5028672
21
3.0641531
0
LINE
8
layer1
10
-7.5028672
20
3.0641531
11
-7.3833956
21
3.0611352
0
LINE
8
layer1
10
-7.3833956
20
3.0611352
11
-7.2776713
21
3.054067
0
LINE
8
layer1
10
-7.2776713
20
3.054067
11
-7.1825669
21
3.0436894
0
LINE
8
layer1
10
-7.1825669
20
3.0436894
11
-7.1037669
21
3.0317316
0
LINE
8
layer1
10
-7.1037669
20
3.0317316
11
-6.9853901
21
3.0064547
0
LINE
8
layer1
10
-6.9853901
20
3.0064547
11
-6.9168974
21
2.9858319
0
LINE
8
layer1
10
-6.9168974
20
2.9858319
11
-6.8682247
21
2.9676986
0
LINE
8
layer1
10
-6.8682247
20
2.9676986
11
-6.7797007
21
2.9411903
0
LINE
8
layer1
10
-6.7797007
20
2.9411903
11
-6.7013706
21
2.9268345
0
LINE
8
layer1
10
-6.7013706
20
2.9268345
11
-6.6662943
21
2.923934
0
LINE
8
layer1
10
-6.6662943
20
2.923934
11
-6.6340777
21
2.9237252
0
LINE
8
layer1
10
-6.6340777
20
2.9237252
11
-6.6048156
21
2.9260881
0
LINE
8
layer1
10
-6.6048156
20
2.9260881
11
-6.5785985
21
2.930889
0
LINE
8
layer1
10
-6.5785985
20
2.930889
11
-6.5555257
21
2.9380215
0
LINE
8
layer1
10
-6.5555257
20
2.9380215
11
-6.5356652
21
2.9473296
0
LINE
8
layer1
10
-6.5356652
20
2.9473296
11
-6.5191075
21
2.9587021
0
LINE
8
layer1
10
-6.5191075
20
2.9587021
11
-6.5059252
21
2.9719965
0
LINE
8
layer1
10
-6.5059252
20
2.9719965
11
-6.4943089
21
2.9910943
0
LINE
8
layer1
10
-6.4943089
20
2.9910943
11
-6.3706966
21
3.2460321
0
LINE
8
layer1
10
-6.3706966
20
3.2460321
11
-6.2371051
21
3.4958851
0
LINE
8
layer1
10
-6.2371051
20
3.4958851
11
-6.2284826
21
3.5165084
0
LINE
8
layer1
10
-6.2284826
20
3.5165084
11
-6.2254756
21
3.5349873
0
LINE
8
layer1
10
-6.2254756
20
3.5349873
11
-6.2260074
21
3.5550674
0
LINE
8
layer1
10
-6.2260074
20
3.5550674
11
-6.2301507
21
3.5766059
0
LINE
8
layer1
10
-6.2301507
20
3.5766059
11
-6.2379422
21
3.5994647
0
LINE
8
layer1
10
-6.2379422
20
3.5994647
11
-6.2494682
21
3.6234967
0
LINE
8
layer1
10
-6.2494682
20
3.6234967
11
-6.2647564
21
3.648559
0
LINE
8
layer1
10
-6.2647564
20
3.648559
11
-6.2838618
21
3.6745001
0
LINE
8
layer1
10
-6.2838618
20
3.6745001
11
-6.3068257
21
3.7011726
0
LINE
8
layer1
10
-6.3068257
20
3.7011726
11
-6.364481
21
3.7561048
0
LINE
8
layer1
10
-6.364481
20
3.7561048
11
-6.4379598
21
3.8121411
0
LINE
8
layer1
10
-6.4379598
20
3.8121411
11
-6.481239
21
3.8408596
0
LINE
8
layer1
10
-6.481239
20
3.8408596
11
-6.5381822
21
3.8841496
0
LINE
8
layer1
10
-6.5381822
20
3.8841496
11
-6.6282118
21
3.965061
0
LINE
8
layer1
10
-6.6282118
20
3.965061
11
-6.6842033
21
4.0217829
0
LINE
8
layer1
10
-6.6842033
20
4.0217829
11
-6.7485
21
4.0926242
0
LINE
8
layer1
10
-6.7485
20
4.0926242
11
-6.8163615
21
4.1740024
0
LINE
8
layer1
10
-6.8163615
20
4.1740024
11
-6.8890266
21
4.268883
0
LINE
8
layer1
10
-6.8890266
20
4.268883
11
-6.9666212
21
4.3795301
0
LINE
8
layer1
10
-6.9666212
20
4.3795301
11
-7.0453612
21
4.502489
0
LINE
8
layer1
10
-7.0453612
20
4.502489
11
-7.1265354
21
4.6417722
0
LINE
8
layer1
10
-7.1265354
20
4.6417722
11
-7.2066269
21
4.7934668
0
LINE
8
layer1
10
-7.2066269
20
4.7934668
11
-7.2790821
21
4.945174
0
ARC
8
layer1
10
0.0000102
20
-0.000007
40
8.8
50
142.190931
51
145.8090739
0
LINE
8
layer1
10
-6.9525001
20
5.3946757
11
-6.785828
21
5.3726468
0
LINE
8
layer1
10
-6.785828
20
5.3726468
11
-6.6168083
21
5.3433514
0
LINE
8
layer1
10
-6.6168083
20
5.3433514
11
-6.4592578
21
5.3091911
0
LINE
8
layer1
10
-6.4592578
20
5.3091911
11
-6.3179849
21
5.2723013
0
LINE
8
layer1
10
-6.3179849
20
5.2723013
11
-6.1887753
21
5.2326962
0
LINE
8
layer1
10
-6.1887753
20
5.2326962
11
-6.0760837
21
5.1929073
0
LINE
8
layer1
10
-6.0760837
20
5.1929073
11
-5.9777181
21
5.1535144
0
LINE
8
layer1
10
-5.9777181
20
5.1535144
11
-5.8904753
21
5.1142559
0
LINE
8
layer1
10
-5.8904753
20
5.1142559
11
-5.8192272
21
5.0785328
0
LINE
8
layer1
10
-5.8192272
20
5.0785328
11
-5.7144552
21
5.0179126
0
LINE
8
layer1
10
-5.7144552
20
5.0179126
11
-5.6556875
21
4.9771337
0
LINE
8
layer1
10
-5.6556875
20
4.9771337
11
-5.6150006
21
4.9448472
0
LINE
8
layer1
10
-5.6150006
20
4.9448472
11
-5.5390008
21
4.8922809
0
LINE
8
layer1
10
-5.5390008
20
4.8922809
11
-5.4689406
21
4.8544224
0
LINE
8
layer1
10
-5.4689406
20
4.8544224
11
-5.4364774
21
4.8408247
0
LINE
8
layer1
10
-5.4364774
20
4.8408247
11
-5.4059021
21
4.8306707
0
LINE
8
layer1
10
-5.4059021
20
4.8306707
11
-5.377342
21
4.8238754
0
LINE
8
layer1
10
-5.377342
20
4.8238754
11
-5.3509245
21
4.8203399
0
LINE
8
layer1
10
-5.3509245
20
4.8203399
11
-5.3267768
21
4.8199934
0
LINE
8
layer1
10
-5.3267768
20
4.8199934
11
-5.3050121
21
4.8227087
0
LINE
8
layer1
10
-5.3050121
20
4.8227087
11
-5.2857505
21
4.8284079
0
LINE
8
layer1
10
-5.2857505
20
4.8284079
11
-5.2691052
21
4.8369781
0
LINE
8
layer1
10
-5.2691052
20
4.8369781
11
-5.2521558
21
4.8515515
0
LINE
8
layer1
10
-5.2521558
20
4.8515515
11
-5.0558135
21
5.0558135
0
LINE
8
layer1
10
-5.0558135
20
5.0558135
11
-4.8515515
21
5.2521558
0
LINE
8
layer1
10
-4.8515515
20
5.2521558
11
-4.8369781
21
5.2691052
0
LINE
8
layer1
10
-4.8369781
20
5.2691052
11
-4.8284079
21
5.2857505
0
LINE
8
layer1
10
-4.8284079
20
5.2857505
11
-4.8227087
21
5.3050121
0
LINE
8
layer1
10
-4.8227087
20
5.3050121
11
-4.8199934
21
5.3267768
0
LINE
8
layer1
10
-4.8199934
20
5.3267768
11
-4.8203399
21
5.3509245
0
LINE
8
layer1
10
-4.8203399
20
5.3509245
11
-4.8238754
21
5.377342
0
LINE
8
layer1
10
-4.8238754
20
5.377342
11
-4.8306707
21
5.4059021
0
LINE
8
layer1
10
-4.8306707
20
5.4059021
11
-4.8408247
21
5.4364774
0
LINE
8
layer1
10
-4.8408247
20
5.4364774
11
-4.8544224
21
5.4689406
0
LINE
8
layer1
10
-4.8544224
20
5.4689406
11
-4.8922809
21
5.5390008
0
LINE
8
layer1
10
-4.8922809
20
5.5390008
11
-4.9448472
21
5.6150006
0
LINE
8
layer1
10
-4.9448472
20
5.6150006
11
-4.9771337
21
5.6556875
0
LINE
8
layer1
10
-4.9771337
20
5.6556875
11
-5.0179126
21
5.7144552
0
LINE
8
layer1
10
-5.0179126
20
5.7144552
11
-5.0785328
21
5.8192272
0
LINE
8
layer1
10
-5.0785328
20
5.8192272
11
-5.1142559
21
5.8904753
0
LINE
8
layer1
10
-5.1142559
20
5.8904753
11
-5.1535144
21
5.9777181
0
LINE
8
layer1
10
-5.1535144
20
5.9777181
11
-5.1929073
21
6.0760837
0
LINE
8
layer1
10
-5.1929073
20
6.0760837
11
-5.2326962
21
6.1887753
0
LINE
8
layer1
10
-5.2326962
20
6.1887753
11
-5.2723013
21
6.3179849
0
LINE
8
layer1
10
-5.2723013
20
6.3179849
11
-5.3091911
21
6.4592578
0
LINE
8
layer1
10
-5.3091911
20
6.4592578
11
-5.3433514
21
6.6168083
0
LINE
8
layer1
10
-5.3433514
20
6.6168083
11
-5.3726468
21
6.785828
0
LINE
8
layer1
10
-5.3726468
20
6.785828
11
-5.3946757
21
6.9525001
0
ARC
8
layer1
10
0.0000069
20
-0.0000102
40
8.8
50
124.1909261
51
127.809069
0
LINE
8
layer1
10
-4.945174
20
7.2790821
11
-4.7934668
21
7.2066269
0
LINE
8
layer1
10
-4.7934668
20
7.2066269
11
-4.6417722
21
7.1265354
0
LINE
8
layer1
10
-4.6417722
20
7.1265354
11
-4.502489
21
7.0453612
0
LINE
8
layer1
10
-4.502489
20
7.0453612
11
-4.3795301
21
6.9666212
0
LINE
8
layer1
10
-4.3795301
20
6.9666212
11
-4.268883
21
6.8890266
0
LINE
8
layer1
10
-4.268883
20
6.8890266
11
-4.1740024
21
6.8163615
0
LINE
8
layer1
10
-4.1740024
20
6.8163615
11
-4.0926242
21
6.7485
0
LINE
8
layer1
10
-4.0926242
20
6.7485
11
-4.0217829
21
6.6842033
0
LINE
8
layer1
10
-4.0217829
20
6.6842033
11
-3.965061
21
6.6282118
0
LINE
8
layer1
10
-3.965061
20
6.6282118
11
-3.8841496
21
6.5381822
0
LINE
8
layer1
10
-3.8841496
20
6.5381822
11
-3.8408596
21
6.481239
0
LINE
8
layer1
10
-3.8408596
20
6.481239
11
-3.8121411
21
6.4379598
0
LINE
8
layer1
10
-3.8121411
20
6.4379598
11
-3.7561048
21
6.364481
0
LINE
8
layer1
10
-3.7561048
20
6.364481
11
-3.7011726
21
6.3068257
0
LINE
8
layer1
10
-3.7011726
20
6.3068257
11
-3.6745001
21
6.2838618
0
LINE
8
layer1
10
-3.6745001
20
6.2838618
11
-3.648559
21
6.2647564
0
LINE
8
layer1
10
-3.648559
20
6.2647564
11
-3.6234967
21
6.2494682
0
LINE
8
layer1
10
-3.6234967
20
6.2494682
11
-3.5994647
21
6.2379422
0
LINE
8
layer1
10
-3.5994647
20
6.2379422
11
-3.5766059
21
6.2301507
0
LINE
8
layer1
10
-3.5766059
20
6.2301507
11
-3.5550674
21
6.2260074
0
LINE
8
layer1
10
-3.5550674
20
6.2260074
11
-3.5349873
21
6.2254756
0
LINE
8
layer1
10
-3.5349873
20
6.2254756
11
-3.5165084
21
6.2284826
0
LINE
8
layer1
10
-3.5165084
20
6.2284826
11
-3.4958851
21
6.2371051
0
LINE
8
layer1
10
-3.4958851
20
6.2371051
11
-3.2460321
21
6.3706966
0
LINE
8
layer1
10
-3.2460321
20
6.3706966
11
-2.9910943
21
6.4943089
0
LINE
8
layer1
10
-2.9910943
20
6.4943089
11
-2.9719965
21
6.5059252
0
LINE
8
layer1
10
-2.9719965
20
6.5059252
11
-2.9587021
21
6.5191075
0
LINE
8
layer1
10
-2.9587021
20
6.5191075
11
-2.9473296
21
6.5356652
0
LINE
8
layer1
10
-2.9473296
20
6.5356652
11
-2.9380215
21
6.5555257
0
LINE
8
layer1
10
-2.9380215
20
6.5555257
11
-2.930889
21
6.5785985
0
LINE
8
layer1
10
-2.930889
20
6.5785985
11
-2.9260881
21
6.6048156
0
LINE
8
layer1
10
-2.9260881
20
6.6048156
11
-2.9237252
21
6.6340777
0
LINE
8
layer1
10
-2.9237252
20
6.6340777
11
-2.923934
21
6.6662943
0
LINE
8
layer1
10
-2.923934
20
6.6662943
11
-2.9268345
21
6.7013706
0
LINE
8
layer1
10
-2.9268345
20
6.7013706
11
-2.9411903
21
6.7797007
0
LINE
8
layer1
10
-2.9411903
20
6.7797007
11
-2.9676986
21
6.8682247
0
LINE
8
layer1
10
-2.9676986
20
6.8682247
11
-2.9858319
21
6.9168974
0
LINE
8
layer1
10
-2.9858319
20
6.9168974
11
-3.0064547
21
6.9853901
0
LINE
8
layer1
10
-3.0064547
20
6.9853901
11
-3.0317316
21
7.1037669
0
LINE
8
layer1
10
-3.0317316
20
7.1037669
11
-3.0436894
21
7.1825669
0
LINE
8
layer1
10
-3.0436894
20
7.1825669
11
-3.054067
21
7.2776713
0
LINE
8
layer1
10
-3.054067
20
7.2776713
11
-3.0611352
21
7.3833956
0
LINE
8
layer1
10
-3.0611352
20
7.3833956
11
-3.0641531
21
7.5028672
0
LINE
8
layer1
10
-3.0641531
20
7.5028672
11
-3.0618918
21
7.6379915
0
LINE
8
layer1
10
-3.0618918
20
7.6379915
11
-3.0533203
21
7.7837495
0
LINE
8
layer1
10
-3.0533203
20
7.7837495
11
-3.037123
21
7.944145
0
LINE
8
layer1
10
-3.037123
20
7.944145
11
-3.0127546
21
8.1139451
0
LINE
8
layer1
10
-3.0127546
20
8.1139451
11
-2.9822008
21
8.279267
0
ARC
8
layer1
10
0.0000034
20
-0.0000118
40
8.8
50
106.1909263
51
109.809069
0
LINE
8
layer1
10
-2.4537799
20
8.4509613
11
-2.3318876
21
8.3351722
0
LINE
8
layer1
10
-2.3318876
20
8.3351722
11
-2.2123672
21
8.2121244
0
LINE
8
layer1
10
-2.2123672
20
8.2121244
11
-2.1049851
21
8.0918823
0
LINE
8
layer1
10
-2.1049851
20
8.0918823
11
-2.0123762
21
7.9789997
0
LINE
8
layer1
10
-2.0123762
20
7.9789997
11
-1.9311227
21
7.8710111
0
LINE
8
layer1
10
-1.9311227
20
7.8710111
11
-1.8633406
21
7.7725827
0
LINE
8
layer1
10
-1.8633406
20
7.7725827
11
-1.8069157
21
7.6828953
0
LINE
8
layer1
10
-1.8069157
20
7.6828953
11
-1.7594104
21
7.5998544
0
LINE
8
layer1
10
-1.7594104
20
7.5998544
11
-1.722767
21
7.5290753
0
LINE
8
layer1
10
-1.722767
20
7.5290753
11
-1.6736363
21
7.418449
0
LINE
8
layer1
10
-1.6736363
20
7.418449
11
-1.6500615
21
7.3509155
0
LINE
8
layer1
10
-1.6500615
20
7.3509155
11
-1.6361226
21
7.30088
0
LINE
8
layer1
10
-1.6361226
20
7.30088
11
-1.6055352
21
7.2136814
0
LINE
8
layer1
10
-1.6055352
20
7.2136814
11
-1.571108
21
7.1418729
0
LINE
8
layer1
10
-1.571108
20
7.1418729
11
-1.5528372
21
7.1117907
0
LINE
8
layer1
10
-1.5528372
20
7.1117907
11
-1.5340696
21
7.0856042
0
LINE
8
layer1
10
-1.5340696
20
7.0856042
11
-1.5149583
21
7.0633195
0
LINE
8
layer1
10
-1.5149583
20
7.0633195
11
-1.4956642
21
7.0449314
0
LINE
8
layer1
10
-1.4956642
20
7.0449314
11
-1.4763319
21
7.0304574
0
LINE
8
layer1
10
-1.4763319
20
7.0304574
11
-1.4571279
21
7.0198611
0
LINE
8
layer1
10
-1.4571279
20
7.0198611
11
-1.438195
21
7.0131503
0
LINE
8
layer1
10
-1.438195
20
7.0131503
11
-1.4196913
21
7.0102998
0
LINE
8
layer1
10
-1.4196913
20
7.0102998
11
-1.3974129
21
7.0121274
0
LINE
8
layer1
10
-1.3974129
20
7.0121274
11
-1.1185064
21
7.0619716
0
LINE
8
layer1
10
-1.1185064
20
7.0619716
11
-0.8378479
21
7.1007538
0
LINE
8
layer1
10
-0.8378479
20
7.1007538
11
-0.8160952
21
7.1059
0
LINE
8
layer1
10
-0.8160952
20
7.1059
11
-0.7993779
21
7.1143289
0
LINE
8
layer1
10
-0.7993779
20
7.1143289
11
-0.7834454
21
7.1265619
0
LINE
8
layer1
10
-0.7834454
20
7.1265619
11
-0.7684557
21
7.142574
0
LINE
8
layer1
10
-0.7684557
20
7.142574
11
-0.7545424
21
7.1623135
0
LINE
8
layer1
10
-0.7545424
20
7.1623135
11
-0.7418748
21
7.1857639
0
LINE
8
layer1
10
-0.7418748
20
7.1857639
11
-0.7305852
21
7.2128636
0
LINE
8
layer1
10
-0.7305852
20
7.2128636
11
-0.7208283
21
7.243568
0
LINE
8
layer1
10
-0.7208283
20
7.243568
11
-0.7127476
21
7.2778238
0
LINE
8
layer1
10
-0.7127476
20
7.2778238
11
-0.7021954
21
7.3567563
0
LINE
8
layer1
10
-0.7021954
20
7.3567563
11
-0.7000509
21
7.4491392
0
LINE
8
layer1
10
-0.7000509
20
7.4491392
11
-0.702256
21
7.5010331
0
LINE
8
layer1
10
-0.702256
20
7.5010331
11
-0.7007041
21
7.5725463
0
LINE
8
layer1
10
-0.7007041
20
7.5725463
11
-0.6881634
21
7.6929404
0
LINE
8
layer1
10
-0.6881634
20
7.6929404
11
-0.6751854
21
7.7715788
0
LINE
8
layer1
10
-0.6751854
20
7.7715788
11
-0.6556662
21
7.8652353
0
LINE
8
layer1
10
-0.6556662
20
7.8652353
11
-0.6297179
21
7.9679693
0
LINE
8
layer1
10
-0.6297179
20
7.9679693
11
-0.5956693
21
8.0825261
0
LINE
8
layer1
10
-0.5956693
20
8.0825261
11
-0.551763
21
8.2103381
0
LINE
8
layer1
10
-0.551763
20
8.2103381
11
-0.4985693
21
8.3463135
0
LINE
8
layer1
10
-0.4985693
20
8.3463135
11
-0.4335998
21
8.4938535
0
LINE
8
layer1
10
-0.4335998
20
8.4938535
11
-0.357953
21
8.6478127
0
LINE
8
layer1
10
-0.357953
20
8.6478127
11
-0.2778073
21
8.7956015
0
ARC
8
layer1
10
0
20
-0.0000124
40
8.8
50
88.1909283
51
91.8090717
0
LINE
8
layer1
10
0.2778073
20
8.7956015
11
0.357953
21
8.6478127
0
LINE
8
layer1
10
0.357953
20
8.6478127
11
0.4335998
21
8.4938535
0
LINE
8
layer1
10
0.4335998
20
8.4938535
11
0.4985693
21
8.3463135
0
LINE
8
layer1
10
0.4985693
20
8.3463135
11
0.551763
21
8.2103381
0
LINE
8
layer1
10
0.551763
20
8.2103381
11
0.5956693
21
8.0825261
0
LINE
8
layer1
10
0.5956693
20
8.0825261
11
0.6297179
21
7.9679693
0
LINE
8
layer1
10
0.6297179
20
7.9679693
11
0.6556662
21
7.8652353
0
LINE
8
layer1
10
0.6556662
20
7.8652353
11
0.6751854
21
7.7715788
0
LINE
8
layer1
10
0.6751854
20
7.7715788
11
0.6881634
21
7.6929404
0
LINE
8
layer1
10
0.6881634
20
7.6929404
11
0.7007041
21
7.5725463
0
LINE
8
layer1
10
0.7007041
20
7.5725463
11
0.702256
21
7.5010331
0
LINE
8
layer1
10
0.702256
20
7.5010331
11
0.7000509
21
7.4491392
0
LINE
8
layer1
10
0.7000509
20
7.4491392
11
0.7021954
21
7.3567563
0
LINE
8
layer1
10
0.7021954
20
7.3567563
11
0.7127476
21
7.2778238
0
LINE
8
layer1
10
0.7127476
20
7.2778238
11
0.7208283
21
7.243568
0
LINE
8
layer1
10
0.7208283
20
7.243568
11
0.7305852
21
7.2128636
0
LINE
8
layer1
10
0.7305852
20
7.2128636
11
0.7418748
21
7.1857639
0
LINE
8
layer1
10
0.7418748
20
7.1857639
11
0.7545424
21
7.1623135
0
LINE
8
layer1
10
0.7545424
20
7.1623135
11
0.7684557
21
7.142574
0
LINE
8
layer1
10
0.7684557
20
7.142574
11
0.7834454
21
7.1265619
0
LINE
8
layer1
10
0.7834454
20
7.1265619
11
0.7993779
21
7.1143289
0
LINE
8
layer1
10
0.7993779
20
7.1143289
11
0.8160952
21
7.1059
0
LINE
8
layer1
10
0.8160952
20
7.1059
11
0.8378479
21
7.1007538
0
LINE
8
layer1
10
0.8378479
20
7.1007538
11
1.1185064
21
7.0619716
0
LINE
8
layer1
10
1.1185064
20
7.0619716
11
1.3974129
21
7.0121274
0
LINE
8
layer1
10
1.3974129
20
7.0121274
11
1.4196913
21
7.0102998
0
LINE
8
layer1
10
1.4196913
20
7.0102998
11
1.438195
21
7.0131503
0
LINE
8
layer1
10
1.438195
20
7.0131503
11
1.4571279
21
7.0198611
0
LINE
8
layer1
10
1.4571279
20
7.0198611
11
1.4763319
21
7.0304574
0
LINE
8
layer1
10
1.4763319
20
7.0304574
11
1.4956642
21
7.0449314
0
LINE
8
layer1
10
1.4956642
20
7.0449314
11
1.5149583
21
7.0633195
0
LINE
8
layer1
10
1.5149583
20
7.0633195
11
1.5340696
21
7.0856042
0
LINE
8
layer1
10
1.5340696
20
7.0856042
11
1.5528372
21
7.1117907
0
LINE
8
layer1
10
1.5528372
20
7.1117907
11
1.571108
21
7.1418729
0
LINE
8
layer1
10
1.571108
20
7.1418729
11
1.6055352
21
7.2136814
0
LINE
8
layer1
10
1.6055352
20
7.2136814
11
1.6361226
21
7.30088
0
LINE
8
layer1
10
1.6361226
20
7.30088
11
1.6500615
21
7.3509155
0
LINE
8
layer1
10
1.6500615
20
7.3509155
11
1.6736363
21
7.418449
0
LINE
8
layer1
10
1.6736363
20
7.418449
11
1.722767
21
7.5290753
0
LINE
8
layer1
10
1.722767
20
7.5290753
11
1.7594104
21
7.5998544
0
LINE
8
layer1
10
1.7594104
20
7.5998544
11
1.8069157
21
7.6828953
0
LINE
8
layer1
10
1.8069157
20
7.6828953
11
1.8633406
21
7.7725827
0
LINE
8
layer1
10
1.8633406
20
7.7725827
11
1.9311227
21
7.8710111
0
LINE
8
layer1
10
1.9311227
20
7.8710111
11
2.0123762
21
7.9789997
0
LINE
8
layer1
10
2.0123762
20
7.9789997
11
2.1049851
21
8.0918823
0
LINE
8
layer1
10
2.1049851
20
8.0918823
11
2.2123672
21
8.2121244
0
LINE
8
layer1
10
2.2123672
20
8.2121244
11
2.3318876
21
8.3351722
0
LINE
8
layer1
10
2.3318876
20
8.3351722
11
2.4537799
21
8.4509613
0
ARC
8
layer1
10
-0.0000035
20
-0.0000118
40
8.8
50
70.190931
51
73.8090737
0
LINE
8
layer1
10
2.9822008
20
8.279267
11
3.0127546
21
8.1139451
0
LINE
8
layer1
10
3.0127546
20
8.1139451
11
3.037123
21
7.944145
0
LINE
8
layer1
10
3.037123
20
7.944145
11
3.0533203
21
7.7837495
0
LINE
8
layer1
10
3.0533203
20
7.7837495
11
3.0618918
21
7.6379915
0
LINE
8
layer1
10
3.0618918
20
7.6379915
11
3.0641531
21
7.5028672
0
LINE
8
layer1
10
3.0641531
20
7.5028672
11
3.0611352
21
7.3833956
0
LINE
8
layer1
10
3.0611352
20
7.3833956
11
3.054067
21
7.2776713
0
LINE
8
layer1
10
3.054067
20
7.2776713
11
3.0436894
21
7.1825669
0
LINE
8
layer1
10
3.0436894
20
7.1825669
11
3.0317316
21
7.1037669
0
LINE
8
layer1
10
3.0317316
20
7.1037669
11
3.0064547
21
6.9853901
0
LINE
8
layer1
10
3.0064547
20
6.9853901
11
2.9858319
21
6.9168974
0
LINE
8
layer1
10
2.9858319
20
6.9168974
11
2.9676986
21
6.8682247
0
LINE
8
layer1
10
2.9676986
20
6.8682247
11
2.9411903
21
6.7797007
0
LINE
8
layer1
10
2.9411903
20
6.7797007
11
2.9268345
21
6.7013706
0
LINE
8
layer1
10
2.9268345
20
6.7013706
11
2.923934
21
6.6662943
0
LINE
8
layer1
10
2.923934
20
6.6662943
11
2.9237252
21
6.6340777
0
LINE
8
layer1
10
2.9237252
20
6.6340777
11
2.9260881
21
6.6048156
0
LINE
8
layer1
10
2.9260881
20
6.6048156
11
2.930889
21
6.5785985
0
LINE
8
layer1
10
2.930889
20
6.5785985
11
2.9380215
21
6.5555257
0
LINE
8
layer1
10
2.9380215
20
6.5555257
11
2.9473296
21
6.5356652
0
LINE
8
layer1
10
2.9473296
20
6.5356652
11
2.9587021
21
6.5191075
0
LINE
8
layer1
10
2.9587021
20
6.5191075
11
2.9719965
21
6.5059252
0
LINE
8
layer1
10
2.9719965
20
6.5059252
11
2.9910943
21
6.4943089
0
LINE
8
layer1
10
2.9910943
20
6.4943089
11
3.2460321
21
6.3706966
0
LINE
8
layer1
10
3.2460321
20
6.3706966
11
3.4958851
21
6.2371051
0
LINE
8
layer1
10
3.4958851
20
6.2371051
11
3.5165084
21
6.2284826
0
LINE
8
layer1
10
3.5165084
20
6.2284826
11
3.5349873
21
6.2254756
0
LINE
8
layer1
10
3.5349873
20
6.2254756
11
3.5550674
21
6.2260074
0
LINE
8
layer1
10
3.5550674
20
6.2260074
11
3.5766059
21
6.2301507
0
LINE
8
layer1
10
3.5766059
20
6.2301507
11
3.5994647
21
6.2379422
0
LINE
8
layer1
10
3.5994647
20
6.2379422
11
3.6234967
21
6.2494682
0
LINE
8
layer1
10
3.6234967
20
6.2494682
11
3.648559
21
6.2647564
0
LINE
8
layer1
10
3.648559
20
6.2647564
11
3.6745001
21
6.2838618
0
LINE
8
layer1
10
3.6745001
20
6.2838618
11
3.7011726
21
6.3068257
0
LINE
8
layer1
10
3.7011726
20
6.3068257
11
3.7561048
21
6.364481
0
LINE
8
layer1
10
3.7561048
20
6.364481
11
3.8121411
21
6.4379598
0
LINE
8
layer1
10
3.8121411
20
6.4379598
11
3.8408596
21
6.481239
0
LINE
8
layer1
10
3.8408596
20
6.481239
11
3.8841496
21
6.5381822
0
LINE
8
layer1
10
3.8841496
20
6.5381822
11
3.965061
21
6.6282118
0
LINE
8
layer1
10
3.965061
20
6.6282118
11
4.0217829
21
6.6842033
0
LINE
8
layer1
10
4.0217829
20
6.6842033
11
4.0926242
21
6.7485
0
LINE
8
layer1
10
4.0926242
20
6.7485
11
4.1740024
21
6.8163615
0
LINE
8
layer1
10
4.1740024
20
6.8163615
11
4.268883
21
6.8890266
0
LINE
8
layer1
10
4.268883
20
6.8890266
11
4.3795301
21
6.9666212
0
LINE
8
layer1
10
4.3795301
20
6.9666212
11
4.502489
21
7.0453612
0
LINE
8
layer1
10
4.502489
20
7.0453612
11
4.6417722
21
7.1265354
0
LINE
8
layer1
10
4.6417722
20
7.1265354
11
4.7934668
21
7.2066269
0
LINE
8
layer1
10
4.7934668
20
7.2066269
11
4.945174
21
7.2790821
0
ARC
8
layer1
10
-0.000007
20
-0.0000102
40
8.8
50
52.190931
51
55.8090739
0
LINE
8
layer1
10
5.3946757
20
6.9525001
11
5.3726468
21
6.785828
0
LINE
8
layer1
10
5.3726468
20
6.785828
11
5.3433514
21
6.6168083
0
LINE
8
layer1
10
5.3433514
20
6.6168083
11
5.3091911
21
6.4592578
0
LINE
8
layer1
10
5.3091911
20
6.4592578
11
5.2723013
21
6.3179849
0
LINE
8
layer1
10
5.2723013
20
6.3179849
11
5.2326962
21
6.1887753
0
LINE
8
layer1
10
5.2326962
20
6.1887753
11
5.1929073
21
6.0760837
0
LINE
8
layer1
10
5.1929073
20
6.0760837
11
5.1535144
21
5.9777181
0
LINE
8
layer1
10
5.1535144
20
5.9777181
11
5.1142559
21
5.8904753
0
LINE
8
layer1
10
5.1142559
20
5.8904753
11
5.0785328
21
5.8192272
0
LINE
8
layer1
10
5.0785328
20
5.8192272
11
5.0179126
21
5.7144552
0
LINE
8
layer1
10
5.0179126
20
5.7144552
11
4.9771337
21
5.6556875
0
LINE
8
layer1
10
4.9771337
20
5.6556875
11
4.9448472
21
5.6150006
0
LINE
8
layer1
10
4.9448472
20
5.6150006
11
4.8922809
21
5.5390008
0
LINE
8
layer1
10
4.8922809
20
5.5390008
11
4.8544224
21
5.4689406
0
LINE
8
layer1
10
4.8544224
20
5.4689406
11
4.8408247
21
5.4364774
0
LINE
8
layer1
10
4.8408247
20
5.4364774
11
4.8306707
21
5.4059021
0
LINE
8
layer1
10
4.8306707
20
5.4059021
11
4.8238754
21
5.377342
0
LINE
8
layer1
10
4.8238754
20
5.377342
11
4.8203399
21
5.3509245
0
LINE
8
layer1
10
4.8203399
20
5.3509245
11
4.8199934
21
5.3267768
0
LINE
8
layer1
10
4.8199934
20
5.3267768
11
4.8227087
21
5.3050121
0
LINE
8
layer1
10
4.8227087
20
5.3050121
11
4.8284079
21
5.2857505
0
LINE
8
layer1
10
4.8284079
20
5.2857505
11
4.8369781
21
5.2691052
0
LINE
8
layer1
10
4.8369781
20
5.2691052
11
4.8515515
21
5.2521558
0
LINE
8
layer1
10
4.8515515
20
5.2521558
11
5.0558135
21
5.0558135
0
LINE
8
layer1
10
5.0558135
20
5.0558135
11
5.2521558
21
4.8515515
0
LINE
8
layer1
10
5.2521558
20
4.8515515
11
5.2691052
21
4.8369781
0
LINE
8
layer1
10
5.2691052
20
4.8369781
11
5.2857505
21
4.8284079
0
LINE
8
layer1
10
5.2857505
20
4.8284079
11
5.3050121
21
4.8227087
0
LINE
8
layer1
10
5.3050121
20
4.8227087
11
5.3267768
21
4.8199934
0
LINE
8
layer1
10
5.3267768
20
4.8199934
11
5.3509245
21
4.8203399
0
LINE
8
layer1
10
5.3509245
20
4.8203399
11
5.377342
21
4.8238754
0
LINE
8
layer1
10
5.377342
20
4.8238754
11
5.4059021
21
4.8306707
0
LINE
8
layer1
10
5.4059021
20
4.8306707
11
5.4364774
21
4.8408247
0
LINE
8
layer1
10
5.4364774
20
4.8408247
11
5.4689406
21
4.8544224
0
LINE
8
layer1
10
5.4689406
20
4.8544224
11
5.5390008
21
4.8922809
0
LINE
8
layer1
10
5.5390008
20
4.8922809
11
5.6150006
21
4.9448472
0
LINE
8
layer1
10
5.6150006
20
4.9448472
11
5.6556875
21
4.9771337
0
LINE
8
layer1
10
5.6556875
20
4.9771337
11
5.7144552
21
5.0179126
0
LINE
8
layer1
10
5.7144552
20
5.0179126
11
5.8192272
21
5.0785328
0
LINE
8
layer1
10
5.8192272
20
5.0785328
11
5.8904753
21
5.1142559
0
LINE
8
layer1
10
5.8904753
20
5.1142559
11
5.9777181
21
5.1535144
0
LINE
8
layer1
10
5.9777181
20
5.1535144
11
6.0760837
21
5.1929073
0
LINE
8
layer1
10
6.0760837
20
5.1929073
11
6.1887753
21
5.2326962
0
LINE
8
layer1
10
6.1887753
20
5.2326962
11
6.3179849
21
5.2723013
0
LINE
8
layer1
10
6.3179849
20
5.2723013
11
6.4592578
21
5.3091911
0
LINE
8
layer1
10
6.4592578
20
5.3091911
11
6.6168083
21
5.3433514
0
LINE
8
layer1
10
6.6168083
20
5.3433514
11
6.785828
21
5.3726468
0
LINE
8
layer1
10
6.785828
20
5.3726468
11
6.9525001
21
5.3946757
0
ARC
8
layer1
10
-0.0000102
20
-0.0000069
40
8.8
50
34.1909261
51
37.809069
0
LINE
8
layer1
10
7.2790821
20
4.945174
11
7.2066269
21
4.7934668
0
LINE
8
layer1
10
7.2066269
20
4.7934668
11
7.1265354
21
4.6417722
0
LINE
8
layer1
10
7.1265354
20
4.6417722
11
7.0453612
21
4.502489
0
LINE
8
layer1
10
7.0453612
20
4.502489
11
6.9666212
21
4.3795301
0
LINE
8
layer1
10
6.9666212
20
4.3795301
11
6.8890266
21
4.268883
0
LINE
8
layer1
10
6.8890266
20
4.268883
11
6.8163615
21
4.1740024
0
LINE
8
layer1
10
6.8163615
20
4.1740024
11
6.7485
21
4.0926242
0
LINE
8
layer1
10
6.7485
20
4.0926242
11
6.6842033
21
4.0217829
0
LINE
8
layer1
10
6.6842033
20
4.0217829
11
6.6282118
21
3.965061
0
LINE
8
layer1
10
6.6282118
20
3.965061
11
6.5381822
21
3.8841496
0
LINE
8
layer1
10
6.5381822
20
3.8841496
11
6.481239
21
3.8408596
0
LINE
8
layer1
10
6.481239
20
3.8408596
11
6.4379598
21
3.8121411
0
LINE
8
layer1
10
6.4379598
20
3.8121411
11
6.364481
21
3.7561048
0
LINE
8
layer1
10
6.364481
20
3.7561048
11
6.3068257
21
3.7011726
0
LINE
8
layer1
10
6.3068257
20
3.7011726
11
6.2838618
21
3.6745001
0
LINE
8
layer1
10
6.2838618
20
3.6745001
11
6.2647564
21
3.648559
0
LINE
8
layer1
10
6.2647564
20
3.648559
11
6.2494682
21
3.6234967
0
LINE
8
layer1
10
6.2494682
20
3.6234967
11
6.2379422
21
3.5994647
0
LINE
8
layer1
10
6.2379422
20
3.5994647
11
6.2301507
21
3.5766059
0
LINE
8
layer1
10
6.2301507
20
3.5766059
11
6.2260074
21
3.5550674
0
LINE
8
layer1
10
6.2260074
20
3.5550674
11
6.2254756
21
3.5349873
0
LINE
8
layer1
10
6.2254756
20
3.5349873
11
6.2284826
21
3.5165084
0
LINE
8
layer1
10
6.2284826
20
3.5165084
11
6.2371051
21
3.4958851
0
LINE
8
layer1
10
6.2371051
20
3.4958851
11
6.3706966
21
3.2460321
0
LINE
8
layer1
10
6.3706966
20
3.2460321
11
6.4943089
21
2.9910943
0
LINE
8
layer1
10
6.4943089
20
2.9910943
11
6.5059252
21
2.9719965
0
LINE
8
layer1
10
6.5059252
20
2.9719965
11
6.5191075
21
2.9587021
0
LINE
8
layer1
10
6.5191075
20
2.9587021
11
6.5356652
21
2.9473296
0
LINE
8
layer1
10
6.5356652
20
2.9473296
11
6.5555257
21
2.9380215
0
LINE
8
layer1
10
6.5555257
20
2.9380215
11
6.5785985
21
2.930889
0
LINE
8
layer1
10
6.5785985
20
2.930889
11
6.6048156
21
2.9260881
0
LINE
8
layer1
10
6.6048156
20
2.9260881
11
6.6340777
21
2.9237252
0
LINE
8
layer1
10
6.6340777
20
2.9237252
11
6.6662943
21
2.923934
0
LINE
8
layer1
10
6.6662943
20
2.923934
11
6.7013706
21
2.9268345
0
LINE
8
layer1
10
6.7013706
20
2.9268345
11
6.7797007
21
2.9411903
0
LINE
8
layer1
10
6.7797007
20
2.9411903
11
6.8682247
21
2.9676986
0
LINE
8
layer1
10
6.8682247
20
2.9676986
11
6.9168974
21
2.9858319
0
LINE
8
layer1
10
6.9168974
20
2.9858319
11
6.9853901
21
3.0064547
0
LINE
8
layer1
10
6.9853901
20
3.0064547
11
7.1037669
21
3.0317316
0
LINE
8
layer1
10
7.1037669
20
3.0317316
11
7.1825669
21
3.0436894
0
LINE
8
layer1
10
7.1825669
20
3.0436894
11
7.2776713
21
3.054067
0
LINE
8
layer1
10
7.2776713
20
3.054067
11
7.3833956
21
3.0611352
0
LINE
8
layer1
10
7.3833956
20
3.0611352
11
7.5028672
21
3.0641531
0
LINE
8
layer1
10
7.5028672
20
3.0641531
11
7.6379915
21
3.0618918
0
LINE
8
layer1
10
7.6379915
20
3.0618918
11
7.7837495
21
3.0533203
0
LINE
8
layer1
10
7.7837495
20
3.0533203
11
7.944145
21
3.037123
0
LINE
8
layer1
10
7.944145
20
3.037123
11
8.1139451
21
3.0127546
0
LINE
8
layer1
10
8.1139451
20
3.0127546
11
8.279267
21
2.9822008
0
ARC
8
layer1
10
-0.0000118
20
-0.0000034
40
8.8
50
16.1909263
51
19.809069
0
LINE
8
layer1
10
8.4509613
20
2.4537799
11
8.3351722
21
2.3318876
0
ENDSEC
0
EOF