0
SECTION
2
HEADER
0
ENDSEC
0
SECTION
2
TABLES
0
TABLE
2
LTYPE
0
LTYPE
72
65
70
64
2
CONTINUOUS
3
______
73
0
40
0
0
ENDTAB
0
TABLE
2
LAYER
0
ENDTAB
0
ENDSEC
0
SECTION
2
ENTITIES
0
CIRCLE
8
0
10
0
20
0
40
7
0
CIRCLE
8
0
10
0
20
0
40
7
0
LINE
8
layer0
10
11.4619079
20
3.2073958
11
11.2915235
21
3.0418739
0
LINE
8
layer0
10
11.2915235
20
3.0418739
11
11.1273
21
2.8951777
0
LINE
8
layer0
10
11.1273
20
2.8951777
11
10.9713871
21
2.7672222
0
LINE
8
layer0
10
10.9713871
20
2.7672222
11
10.8243896
21
2.6565542
0
LINE
8
layer0
10
10.8243896
20
2.6565542
11
10.6884537
21
2.5628555
0
LINE
8
layer0
10
10.6884537
20
2.5628555
11
10.5634041
21
2.4841647
0
LINE
8
layer0
10
10.5634041
20
2.4841647
11
10.4513382
21
2.420024
0
LINE
8
layer0
10
10.4513382
20
2.420024
11
10.3515057
21
2.3683303
0
LINE
8
layer0
10
10.3515057
20
2.3683303
11
10.2680032
21
2.3294287
0
LINE
8
layer0
10
10.2680032
20
2.3294287
11
10.1459777
21
2.2811858
0
LINE
8
layer0
10
10.1459777
20
2.2811858
11
10.0579301
21
2.2549997
0
LINE
8
layer0
10
10.0579301
20
2.2549997
11
9.9377942
21
2.2137484
0
LINE
8
layer0
10
9.9377942
20
2.2137484
11
9.8387875
21
2.1671972
0
LINE
8
layer0
10
9.8387875
20
2.1671972
11
9.7972748
21
2.1424688
0
LINE
8
layer0
10
9.7972748
20
2.1424688
11
9.7611062
21
2.1170478
0
LINE
8
layer0
10
9.7611062
20
2.1170478
11
9.7302983
21
2.0911495
0
LINE
8
layer0
10
9.7302983
20
2.0911495
11
9.7048561
21
2.0649975
0
LINE
8
layer0
10
9.7048561
20
2.0649975
11
9.6847567
21
2.0388008
0
LINE
8
layer0
10
9.6847567
20
2.0388008
11
9.6700083
21
2.012763
0
LINE
8
layer0
10
9.6700083
20
2.012763
11
9.6605864
21
1.9871032
0
LINE
8
layer0
10
9.6605864
20
1.9871032
11
9.6564581
21
1.9620287
0
LINE
8
layer0
10
9.6564581
20
1.9620287
11
9.6587101
21
1.9318292
0
LINE
8
layer0
10
9.6587101
20
1.9318292
11
9.6899499
21
1.7685965
0
LINE
8
layer0
10
9.6899499
20
1.7685965
11
9.7287302
21
1.5408795
0
LINE
8
layer0
10
9.7287302
20
1.5408795
11
9.7622164
21
1.312324
0
LINE
8
layer0
10
9.7622164
20
1.312324
11
9.7829472
21
1.1474268
0
LINE
8
layer0
10
9.7829472
20
1.1474268
11
9.7901376
21
1.1180095
0
LINE
8
layer0
10
9.7901376
20
1.1180095
11
9.8018123
21
1.0954379
0
LINE
8
layer0
10
9.8018123
20
1.0954379
11
9.8187024
21
1.0739455
0
LINE
8
layer0
10
9.8187024
20
1.0739455
11
9.8407751
21
1.0537397
0
LINE
8
layer0
10
9.8407751
20
1.0537397
11
9.867986
21
1.0350361
0
LINE
8
layer0
10
9.867986
20
1.0350361
11
9.9002643
21
1.0180261
0
LINE
8
layer0
10
9.9002643
20
1.0180261
11
9.9375674
21
1.0029156
0
LINE
8
layer0
10
9.9375674
20
1.0029156
11
9.9798213
21
0.9899155
0
LINE
8
layer0
10
9.9798213
20
0.9899155
11
10.0269437
21
0.9792255
0
LINE
8
layer0
10
10.0269437
20
0.9792255
11
10.1354898
21
0.9655474
0
LINE
8
layer0
10
10.1354898
20
0.9655474
11
10.2624932
21
0.9634392
0
LINE
8
layer0
10
10.2624932
20
0.9634392
11
10.3543234
21
0.9657429
0
LINE
8
layer0
10
10.3543234
20
0.9657429
11
10.4852844
21
0.9575691
0
LINE
8
layer0
10
10.4852844
20
0.9575691
11
10.5767213
21
0.9463752
0
LINE
8
layer0
10
10.5767213
20
0.9463752
11
10.6876418
21
0.9280615
0
LINE
8
layer0
10
10.6876418
20
0.9280615
11
10.8140434
21
0.9016904
0
LINE
8
layer0
10
10.8140434
20
0.9016904
11
10.9572894
21
0.8654934
0
LINE
8
layer0
10
10.9572894
20
0.8654934
11
11.1155266
21
0.8183872
0
LINE
8
layer0
10
11.1155266
20
0.8183872
11
11.2895278
21
0.7585604
0
LINE
8
layer0
10
11.2895278
20
0.7585604
11
11.4773502
21
0.6850472
0
LINE
8
layer0
10
11.4773502
20
0.6850472
11
11.6788677
21
0.5962786
0
LINE
8
layer0
10
11.6788677
20
0.5962786
11
11.892062
21
0.4915097
0
LINE
8
layer0
10
11.892062
20
0.4915097
11
12.0939523
21
0.38198
0
ARC
8
layer0
10
-0.0000169
20
-1e-7
40
12.1
50
358.1909522
51
361.8090483
0
LINE
8
layer0
10
12.0939523
20
-0.38198
11
11.892062
21
-0.4915097
0
LINE
8
layer0
10
11.892062
20
-0.4915097
11
11.6788677
21
-0.5962786
0
LINE
8
layer0
10
11.6788677
20
-0.5962786
11
11.4773502
21
-0.6850472
0
LINE
8
layer0
10
11.4773502
20
-0.6850472
11
11.2895278
21
-0.7585604
0
LINE
8
layer0
10
11.2895278
20
-0.7585604
11
11.1155266
21
-0.8183872
0
LINE
8
layer0
10
11.1155266
20
-0.8183872
11
10.9572894
21
-0.8654934
0
LINE
8
layer0
10
10.9572894
20
-0.8654934
11
10.8140434
21
-0.9016904
0
LINE
8
layer0
10
10.8140434
20
-0.9016904
11
10.6876418
21
-0.9280615
0
LINE
8
layer0
10
10.6876418
20
-0.9280615
11
10.5767213
21
-0.9463752
0
LINE
8
layer0
10
10.5767213
20
-0.9463752
11
10.4852844
21
-0.9575691
0
LINE
8
layer0
10
10.4852844
20
-0.9575691
11
10.3543234
21
-0.9657429
0
LINE
8
layer0
10
10.3543234
20
-0.9657429
11
10.2624932
21
-0.9634392
0
LINE
8
layer0
10
10.2624932
20
-0.9634392
11
10.1354898
21
-0.9655474
0
LINE
8
layer0
10
10.1354898
20
-0.9655474
11
10.0269437
21
-0.9792255
0
LINE
8
layer0
10
10.0269437
20
-0.9792255
11
9.9798213
21
-0.9899155
0
LINE
8
layer0
10
9.9798213
20
-0.9899155
11
9.9375674
21
-1.0029156
0
LINE
8
layer0
10
9.9375674
20
-1.0029156
11
9.9002643
21
-1.0180261
0
LINE
8
layer0
10
9.9002643
20
-1.0180261
11
9.867986
21
-1.0350361
0
LINE
8
layer0
10
9.867986
20
-1.0350361
11
9.8407751
21
-1.0537397
0
LINE
8
layer0
10
9.8407751
20
-1.0537397
11
9.8187024
21
-1.0739455
0
LINE
8
layer0
10
9.8187024
20
-1.0739455
11
9.8018123
21
-1.0954379
0
LINE
8
layer0
10
9.8018123
20
-1.0954379
11
9.7901376
21
-1.1180095
0
LINE
8
layer0
10
9.7901376
20
-1.1180095
11
9.7829472
21
-1.1474268
0
LINE
8
layer0
10
9.7829472
20
-1.1474268
11
9.7622164
21
-1.312324
0
LINE
8
layer0
10
9.7622164
20
-1.312324
11
9.7287302
21
-1.5408795
0
LINE
8
layer0
10
9.7287302
20
-1.5408795
11
9.6899499
21
-1.7685965
0
LINE
8
layer0
10
9.6899499
20
-1.7685965
11
9.6587101
21
-1.9318292
0
LINE
8
layer0
10
9.6587101
20
-1.9318292
11
9.6564581
21
-1.9620287
0
LINE
8
layer0
10
9.6564581
20
-1.9620287
11
9.6605864
21
-1.9871032
0
LINE
8
layer0
10
9.6605864
20
-1.9871032
11
9.6700083
21
-2.012763
0
LINE
8
layer0
10
9.6700083
20
-2.012763
11
9.6847567
21
-2.0388008
0
LINE
8
layer0
10
9.6847567
20
-2.0388008
11
9.7048561
21
-2.0649975
0
LINE
8
layer0
10
9.7048561
20
-2.0649975
11
9.7302983
21
-2.0911495
0
LINE
8
layer0
10
9.7302983
20
-2.0911495
11
9.7611062
21
-2.1170478
0
LINE
8
layer0
10
9.7611062
20
-2.1170478
11
9.7972748
21
-2.1424688
0
LINE
8
layer0
10
9.7972748
20
-2.1424688
11
9.8387875
21
-2.1671972
0
LINE
8
layer0
10
9.8387875
20
-2.1671972
11
9.9377942
21
-2.2137484
0
LINE
8
layer0
10
9.9377942
20
-2.2137484
11
10.0579301
21
-2.2549997
0
LINE
8
layer0
10
10.0579301
20
-2.2549997
11
10.1459777
21
-2.2811858
0
LINE
8
layer0
10
10.1459777
20
-2.2811858
11
10.2680032
21
-2.3294287
0
LINE
8
layer0
10
10.2680032
20
-2.3294287
11
10.3515057
21
-2.3683303
0
LINE
8
layer0
10
10.3515057
20
-2.3683303
11
10.4513382
21
-2.420024
0
LINE
8
layer0
10
10.4513382
20
-2.420024
11
10.5634041
21
-2.4841647
0
LINE
8
layer0
10
10.5634041
20
-2.4841647
11
10.6884537
21
-2.5628555
0
LINE
8
layer0
10
10.6884537
20
-2.5628555
11
10.8243896
21
-2.6565542
0
LINE
8
layer0
10
10.8243896
20
-2.6565542
11
10.9713871
21
-2.7672222
0
LINE
8
layer0
10
10.9713871
20
-2.7672222
11
11.1273
21
-2.8951777
0
LINE
8
layer0
10
11.1273
20
-2.8951777
11
11.2915235
21
-3.0418739
0
LINE
8
layer0
10
11.2915235
20
-3.0418739
11
11.4619079
21
-3.2073958
0
LINE
8
layer0
10
11.4619079
20
-3.2073958
11
11.6200705
21
-3.3739522
0
ARC
8
layer0
10
-0.0000162
20
0.0000046
40
12.1
50
340.1909551
51
343.809051
0
LINE
8
layer0
10
11.3839938
20
-4.1005214
11
11.1581382
21
-4.1423027
0
LINE
8
layer0
10
11.1581382
20
-4.1423027
11
10.923003
21
-4.1760633
0
LINE
8
layer0
10
10.923003
20
-4.1760633
11
10.7039175
21
-4.1982149
0
LINE
8
layer0
10
10.7039175
20
-4.1982149
11
10.502571
21
-4.2100898
0
LINE
8
layer0
10
10.502571
20
-4.2100898
11
10.3185985
21
-4.2132191
0
LINE
8
layer0
10
10.3185985
20
-4.2132191
11
10.1535493
21
-4.2091218
0
LINE
8
layer0
10
10.1535493
20
-4.2091218
11
10.0061288
21
-4.1992817
0
LINE
8
layer0
10
10.0061288
20
-4.1992817
11
9.8777646
21
-4.1853019
0
LINE
8
layer0
10
9.8777646
20
-4.1853019
11
9.7666137
21
-4.1684429
0
LINE
8
layer0
10
9.7666137
20
-4.1684429
11
9.676193
21
-4.1508334
0
LINE
8
layer0
10
9.676193
20
-4.1508334
11
9.5491158
21
-4.118138
0
LINE
8
layer0
10
9.5491158
20
-4.118138
11
9.462492
21
-4.0875699
0
LINE
8
layer0
10
9.462492
20
-4.0875699
11
9.3410531
21
-4.0503288
0
LINE
8
layer0
10
9.3410531
20
-4.0503288
11
9.2335928
21
-4.0297948
0
LINE
8
layer0
10
9.2335928
20
-4.0297948
11
9.1854733
21
-4.0254
0
LINE
8
layer0
10
9.1854733
20
-4.0254
11
9.1412703
21
-4.0247066
0
LINE
8
layer0
10
9.1412703
20
-4.0247066
11
9.1011235
21
-4.0275503
0
LINE
8
layer0
10
9.1011235
20
-4.0275503
11
9.0651686
21
-4.0337532
0
LINE
8
layer0
10
9.0651686
20
-4.0337532
11
9.0335098
21
-4.0431327
0
LINE
8
layer0
10
9.0335098
20
-4.0431327
11
9.0062735
21
-4.0555288
0
LINE
8
layer0
10
9.0062735
20
-4.0555288
11
8.9835686
21
-4.07075
0
LINE
8
layer0
10
8.9835686
20
-4.07075
11
8.9654902
21
-4.0886091
0
LINE
8
layer0
10
8.9654902
20
-4.0886091
11
8.9495613
21
-4.1143647
0
LINE
8
layer0
10
8.9495613
20
-4.1143647
11
8.8788891
21
-4.264785
0
LINE
8
layer0
10
8.8788891
20
-4.264785
11
8.7764143
21
-4.4718064
0
LINE
8
layer0
10
8.7764143
20
-4.4718064
11
8.6691636
21
-4.6763944
0
LINE
8
layer0
10
8.6691636
20
-4.6763944
11
8.5890111
21
-4.8219843
0
LINE
8
layer0
10
8.5890111
20
-4.8219843
11
8.5775372
21
-4.8500098
0
LINE
8
layer0
10
8.5775372
20
-4.8500098
11
8.573715
21
-4.8751328
0
LINE
8
layer0
10
8.573715
20
-4.8751328
11
8.5747465
21
-4.9024483
0
LINE
8
layer0
10
8.5747465
20
-4.9024483
11
8.5807269
21
-4.9317692
0
LINE
8
layer0
10
8.5807269
20
-4.9317692
11
8.5917473
21
-4.9628948
0
LINE
8
layer0
10
8.5917473
20
-4.9628948
11
8.6078628
21
-4.9956289
0
LINE
8
layer0
10
8.6078628
20
-4.9956289
11
8.6291599
21
-5.0297798
0
LINE
8
layer0
10
8.6291599
20
-5.0297798
11
8.6557027
21
-5.0651333
0
LINE
8
layer0
10
8.6557027
20
-5.0651333
11
8.6875421
21
-5.1014796
0
LINE
8
layer0
10
8.6875421
20
-5.1014796
11
8.767318
21
-5.1763472
0
LINE
8
layer0
10
8.767318
20
-5.1763472
11
8.8688268
21
-5.2527035
0
LINE
8
layer0
10
8.8688268
20
-5.2527035
11
8.9444731
21
-5.3048162
0
LINE
8
layer0
10
8.9444731
20
-5.3048162
11
9.0456183
21
-5.3884059
0
LINE
8
layer0
10
9.0456183
20
-5.3884059
11
9.1130126
21
-5.4512072
0
LINE
8
layer0
10
9.1130126
20
-5.4512072
11
9.1919847
21
-5.5312207
0
LINE
8
layer0
10
9.1919847
20
-5.5312207
11
9.2787452
21
-5.6268524
0
LINE
8
layer0
10
9.2787452
20
-5.6268524
11
9.3733576
21
-5.7403343
0
LINE
8
layer0
10
9.3733576
20
-5.7403343
11
9.4736858
21
-5.8714535
0
LINE
8
layer0
10
9.4736858
20
-5.8714535
11
9.5792905
21
-6.0221297
0
LINE
8
layer0
10
9.5792905
20
-6.0221297
11
9.688032
21
-6.1920024
0
LINE
8
layer0
10
9.688032
20
-6.1920024
11
9.7988862
21
-6.3822667
0
LINE
8
layer0
10
9.7988862
20
-6.3822667
11
9.9097824
21
-6.592339
0
LINE
8
layer0
10
9.9097824
20
-6.592339
11
10.0087352
21
-6.7996185
0
ARC
8
layer0
10
-0.0000135
20
0.0000101
40
12.1
50
322.1909507
51
325.8090468
0
LINE
8
layer0
10
9.5596907
20
-7.4176752
11
9.3319781
21
-7.3876183
0
LINE
8
layer0
10
9.3319781
20
-7.3876183
11
9.0979187
21
-7.3470657
0
LINE
8
layer0
10
9.0979187
20
-7.3470657
11
8.8827107
21
-7.300432
0
LINE
8
layer0
10
8.8827107
20
-7.300432
11
8.6875493
21
-7.2495062
0
LINE
8
layer0
10
8.6875493
20
-7.2495062
11
8.511614
21
-7.1956317
0
LINE
8
layer0
10
8.511614
20
-7.1956317
11
8.3559091
21
-7.140732
0
LINE
8
layer0
10
8.3559091
20
-7.140732
11
8.2187445
21
-7.0858181
0
LINE
8
layer0
10
8.2187445
20
-7.0858181
11
8.100983
21
-7.0328558
0
LINE
8
layer0
10
8.100983
20
-7.0328558
11
8.0004819
21
-6.9824744
0
LINE
8
layer0
10
8.0004819
20
-6.9824744
11
7.9199283
21
-6.9377853
0
LINE
8
layer0
10
7.9199283
20
-6.9377853
11
7.8091742
21
-6.8674211
0
LINE
8
layer0
10
7.8091742
20
-6.8674211
11
7.7362361
21
-6.8115808
0
LINE
8
layer0
10
7.7362361
20
-6.8115808
11
7.632249
21
-6.7386357
0
LINE
8
layer0
10
7.632249
20
-6.7386357
11
7.5363936
21
-6.6858997
0
LINE
8
layer0
10
7.5363936
20
-6.6858997
11
7.4919873
21
-6.6668502
0
LINE
8
layer0
10
7.4919873
20
-6.6668502
11
7.4501619
21
-6.6525313
0
LINE
8
layer0
10
7.4501619
20
-6.6525313
11
7.4111013
21
-6.6428298
0
LINE
8
layer0
10
7.4111013
20
-6.6428298
11
7.3749894
21
-6.6376184
0
LINE
8
layer0
10
7.3749894
20
-6.6376184
11
7.3419816
21
-6.6367558
0
LINE
8
layer0
10
7.3419816
20
-6.6367558
11
7.3122478
21
-6.6401287
0
LINE
8
layer0
10
7.3122478
20
-6.6401287
11
7.2859505
21
-6.6475886
0
LINE
8
layer0
10
7.2859505
20
-6.6475886
11
7.2632382
21
-6.6589872
0
LINE
8
layer0
10
7.2632382
20
-6.6589872
11
7.24013
21
-6.6785599
0
LINE
8
layer0
10
7.24013
20
-6.6785599
11
7.1264343
21
-6.7997792
0
LINE
8
layer0
10
7.1264343
20
-6.7997792
11
6.9650018
21
-6.9650018
0
LINE
8
layer0
10
6.9650018
20
-6.9650018
11
6.7997792
21
-7.1264343
0
LINE
8
layer0
10
6.7997792
20
-7.1264343
11
6.6785599
21
-7.24013
0
LINE
8
layer0
10
6.6785599
20
-7.24013
11
6.6589872
21
-7.2632382
0
LINE
8
layer0
10
6.6589872
20
-7.2632382
11
6.6475886
21
-7.2859505
0
LINE
8
layer0
10
6.6475886
20
-7.2859505
11
6.6401287
21
-7.3122478
0
LINE
8
layer0
10
6.6401287
20
-7.3122478
11
6.6367558
21
-7.3419816
0
LINE
8
layer0
10
6.6367558
20
-7.3419816
11
6.6376184
21
-7.3749894
0
LINE
8
layer0
10
6.6376184
20
-7.3749894
11
6.6428298
21
-7.4111013
0
LINE
8
layer0
10
6.6428298
20
-7.4111013
11
6.6525313
21
-7.4501619
0
LINE
8
layer0
10
6.6525313
20
-7.4501619
11
6.6668502
21
-7.4919873
0
LINE
8
layer0
10
6.6668502
20
-7.4919873
11
6.6858997
21
-7.5363936
0
LINE
8
layer0
10
6.6858997
20
-7.5363936
11
6.7386357
21
-7.632249
0
LINE
8
layer0
10
6.7386357
20
-7.632249
11
6.8115808
21
-7.7362361
0
LINE
8
layer0
10
6.8115808
20
-7.7362361
11
6.8674211
21
-7.8091742
0
LINE
8
layer0
10
6.8674211
20
-7.8091742
11
6.9377853
21
-7.9199283
0
LINE
8
layer0
10
6.9377853
20
-7.9199283
11
6.9824744
21
-8.0004819
0
LINE
8
layer0
10
6.9824744
20
-8.0004819
11
7.0328558
21
-8.100983
0
LINE
8
layer0
10
7.0328558
20
-8.100983
11
7.0858181
21
-8.2187445
0
LINE
8
layer0
10
7.0858181
20
-8.2187445
11
7.140732
21
-8.3559091
0
LINE
8
layer0
10
7.140732
20
-8.3559091
11
7.1956317
21
-8.511614
0
LINE
8
layer0
10
7.1956317
20
-8.511614
11
7.2495062
21
-8.6875493
0
LINE
8
layer0
10
7.2495062
20
-8.6875493
11
7.300432
21
-8.8827107
0
LINE
8
layer0
10
7.300432
20
-8.8827107
11
7.3470657
21
-9.0979187
0
LINE
8
layer0
10
7.3470657
20
-9.0979187
11
7.3876183
21
-9.3319781
0
LINE
8
layer0
10
7.3876183
20
-9.3319781
11
7.4176752
21
-9.5596907
0
ARC
8
layer0
10
-0.0000101
20
0.0000135
40
12.1
50
304.1909532
51
307.8090493
0
LINE
8
layer0
10
6.7996185
20
-10.0087352
11
6.592339
21
-9.9097824
0
LINE
8
layer0
10
6.592339
20
-9.9097824
11
6.3822667
21
-9.7988862
0
LINE
8
layer0
10
6.3822667
20
-9.7988862
11
6.1920024
21
-9.688032
0
LINE
8
layer0
10
6.1920024
20
-9.688032
11
6.0221297
21
-9.5792905
0
LINE
8
layer0
10
6.0221297
20
-9.5792905
11
5.8714535
21
-9.4736858
0
LINE
8
layer0
10
5.8714535
20
-9.4736858
11
5.7403343
21
-9.3733576
0
LINE
8
layer0
10
5.7403343
20
-9.3733576
11
5.6268524
21
-9.2787452
0
LINE
8
layer0
10
5.6268524
20
-9.2787452
11
5.5312207
21
-9.1919847
0
LINE
8
layer0
10
5.5312207
20
-9.1919847
11
5.4512072
21
-9.1130126
0
LINE
8
layer0
10
5.4512072
20
-9.1130126
11
5.3884059
21
-9.0456183
0
LINE
8
layer0
10
5.3884059
20
-9.0456183
11
5.3048162
21
-8.9444731
0
LINE
8
layer0
10
5.3048162
20
-8.9444731
11
5.2527035
21
-8.8688268
0
LINE
8
layer0
10
5.2527035
20
-8.8688268
11
5.1763472
21
-8.767318
0
LINE
8
layer0
10
5.1763472
20
-8.767318
11
5.1014796
21
-8.6875421
0
LINE
8
layer0
10
5.1014796
20
-8.6875421
11
5.0651333
21
-8.6557027
0
LINE
8
layer0
10
5.0651333
20
-8.6557027
11
5.0297798
21
-8.6291599
0
LINE
8
layer0
10
5.0297798
20
-8.6291599
11
4.9956289
21
-8.6078628
0
LINE
8
layer0
10
4.9956289
20
-8.6078628
11
4.9628948
21
-8.5917473
0
LINE
8
layer0
10
4.9628948
20
-8.5917473
11
4.9317692
21
-8.5807269
0
LINE
8
layer0
10
4.9317692
20
-8.5807269
11
4.9024483
21
-8.5747465
0
LINE
8
layer0
10
4.9024483
20
-8.5747465
11
4.8751328
21
-8.573715
0
LINE
8
layer0
10
4.8751328
20
-8.573715
11
4.8500098
21
-8.5775372
0
LINE
8
layer0
10
4.8500098
20
-8.5775372
11
4.8219843
21
-8.5890111
0
LINE
8
layer0
10
4.8219843
20
-8.5890111
11
4.6763944
21
-8.6691636
0
LINE
8
layer0
10
4.6763944
20
-8.6691636
11
4.4718064
21
-8.7764143
0
LINE
8
layer0
10
4.4718064
20
-8.7764143
11
4.264785
21
-8.8788891
0
LINE
8
layer0
10
4.264785
20
-8.8788891
11
4.1143647
21
-8.9495613
0
LINE
8
layer0
10
4.1143647
20
-8.9495613
11
4.0886091
21
-8.9654902
0
LINE
8
layer0
10
4.0886091
20
-8.9654902
11
4.07075
21
-8.9835686
0
LINE
8
layer0
10
4.07075
20
-8.9835686
11
4.0555288
21
-9.0062735
0
LINE
8
layer0
10
4.0555288
20
-9.0062735
11
4.0431327
21
-9.0335098
0
LINE
8
layer0
10
4.0431327
20
-9.0335098
11
4.0337532
21
-9.0651686
0
LINE
8
layer0
10
4.0337532
20
-9.0651686
11
4.0275503
21
-9.1011235
0
LINE
8
layer0
10
4.0275503
20
-9.1011235
11
4.0247066
21
-9.1412703
0
LINE
8
layer0
10
4.0247066
20
-9.1412703
11
4.0254
21
-9.1854733
0
LINE
8
layer0
10
4.0254
20
-9.1854733
11
4.0297948
21
-9.2335928
0
LINE
8
layer0
10
4.0297948
20
-9.2335928
11
4.0503288
21
-9.3410531
0
LINE
8
layer0
10
4.0503288
20
-9.3410531
11
4.0875699
21
-9.462492
0
LINE
8
layer0
10
4.0875699
20
-9.462492
11
4.118138
21
-9.5491158
0
LINE
8
layer0
10
4.118138
20
-9.5491158
11
4.1508334
21
-9.676193
0
LINE
8
layer0
10
4.1508334
20
-9.676193
11
4.1684429
21
-9.7666137
0
LINE
8
layer0
10
4.1684429
20
-9.7666137
11
4.1853019
21
-9.8777646
0
LINE
8
layer0
10
4.1853019
20
-9.8777646
11
4.1992817
21
-10.0061288
0
LINE
8
layer0
10
4.1992817
20
-10.0061288
11
4.2091218
21
-10.1535493
0
LINE
8
layer0
10
4.2091218
20
-10.1535493
11
4.2132191
21
-10.3185985
0
LINE
8
layer0
10
4.2132191
20
-10.3185985
11
4.2100898
21
-10.502571
0
LINE
8
layer0
10
4.2100898
20
-10.502571
11
4.1982149
21
-10.7039175
0
LINE
8
layer0
10
4.1982149
20
-10.7039175
11
4.1760633
21
-10.923003
0
LINE
8
layer0
10
4.1760633
20
-10.923003
11
4.1423027
21
-11.1581382
0
LINE
8
layer0
10
4.1423027
20
-11.1581382
11
4.1005214
21
-11.3839938
0
ARC
8
layer0
10
-0.0000046
20
0.0000163
40
12.1
50
286.190949
51
289.8090449
0
LINE
8
layer0
10
3.3739522
20
-11.6200705
11
3.2073958
21
-11.4619079
0
LINE
8
layer0
10
3.2073958
20
-11.4619079
11
3.0418739
21
-11.2915235
0
LINE
8
layer0
10
3.0418739
20
-11.2915235
11
2.8951777
21
-11.1273
0
LINE
8
layer0
10
2.8951777
20
-11.1273
11
2.7672222
21
-10.9713871
0
LINE
8
layer0
10
2.7672222
20
-10.9713871
11
2.6565542
21
-10.8243896
0
LINE
8
layer0
10
2.6565542
20
-10.8243896
11
2.5628555
21
-10.6884537
0
LINE
8
layer0
10
2.5628555
20
-10.6884537
11
2.4841647
21
-10.5634041
0
LINE
8
layer0
10
2.4841647
20
-10.5634041
11
2.420024
21
-10.4513382
0
LINE
8
layer0
10
2.420024
20
-10.4513382
11
2.3683303
21
-10.3515057
0
LINE
8
layer0
10
2.3683303
20
-10.3515057
11
2.3294287
21
-10.2680032
0
LINE
8
layer0
10
2.3294287
20
-10.2680032
11
2.2811858
21
-10.1459777
0
LINE
8
layer0
10
2.2811858
20
-10.1459777
11
2.2549997
21
-10.0579301
0
LINE
8
layer0
10
2.2549997
20
-10.0579301
11
2.2137484
21
-9.9377942
0
LINE
8
layer0
10
2.2137484
20
-9.9377942
11
2.1671972
21
-9.8387875
0
LINE
8
layer0
10
2.1671972
20
-9.8387875
11
2.1424688
21
-9.7972748
0
LINE
8
layer0
10
2.1424688
20
-9.7972748
11
2.1170478
21
-9.7611062
0
LINE
8
layer0
10
2.1170478
20
-9.7611062
11
2.0911495
21
-9.7302983
0
LINE
8
layer0
10
2.0911495
20
-9.7302983
11
2.0649975
21
-9.7048561
0
LINE
8
layer0
10
2.0649975
20
-9.7048561
11
2.0388008
21
-9.6847567
0
LINE
8
layer0
10
2.0388008
20
-9.6847567
11
2.012763
21
-9.6700083
0
LINE
8
layer0
10
2.012763
20
-9.6700083
11
1.9871032
21
-9.6605864
0
LINE
8
layer0
10
1.9871032
20
-9.6605864
11
1.9620287
21
-9.6564581
0
LINE
8
layer0
10
1.9620287
20
-9.6564581
11
1.9318292
21
-9.6587101
0
LINE
8
layer0
10
1.9318292
20
-9.6587101
11
1.7685965
21
-9.6899499
0
LINE
8
layer0
10
1.7685965
20
-9.6899499
11
1.5408795
21
-9.7287302
0
LINE
8
layer0
10
1.5408795
20
-9.7287302
11
1.312324
21
-9.7622164
0
LINE
8
layer0
10
1.312324
20
-9.7622164
11
1.1474268
21
-9.7829472
0
LINE
8
layer0
10
1.1474268
20
-9.7829472
11
1.1180095
21
-9.7901376
0
LINE
8
layer0
10
1.1180095
20
-9.7901376
11
1.0954379
21
-9.8018123
0
LINE
8
layer0
10
1.0954379
20
-9.8018123
11
1.0739455
21
-9.8187024
0
LINE
8
layer0
10
1.0739455
20
-9.8187024
11
1.0537397
21
-9.8407751
0
LINE
8
layer0
10
1.0537397
20
-9.8407751
11
1.0350361
21
-9.867986
0
LINE
8
layer0
10
1.0350361
20
-9.867986
11
1.0180261
21
-9.9002643
0
LINE
8
layer0
10
1.0180261
20
-9.9002643
11
1.0029156
21
-9.9375674
0
LINE
8
layer0
10
1.0029156
20
-9.9375674
11
0.9899155
21
-9.9798213
0
LINE
8
layer0
10
0.9899155
20
-9.9798213
11
0.9792255
21
-10.0269437
0
LINE
8
layer0
10
0.9792255
20
-10.0269437
11
0.9655474
21
-10.1354898
0
LINE
8
layer0
10
0.9655474
20
-10.1354898
11
0.9634392
21
-10.2624932
0
LINE
8
layer0
10
0.9634392
20
-10.2624932
11
0.9657429
21
-10.3543234
0
LINE
8
layer0
10
0.9657429
20
-10.3543234
11
0.9575691
21
-10.4852844
0
LINE
8
layer0
10
0.9575691
20
-10.4852844
11
0.9463752
21
-10.5767213
0
LINE
8
layer0
10
0.9463752
20
-10.5767213
11
0.9280615
21
-10.6876418
0
LINE
8
layer0
10
0.9280615
20
-10.6876418
11
0.9016904
21
-10.8140434
0
LINE
8
layer0
10
0.9016904
20
-10.8140434
11
0.8654934
21
-10.9572894
0
LINE
8
layer0
10
0.8654934
20
-10.9572894
11
0.8183872
21
-11.1155266
0
LINE
8
layer0
10
0.8183872
20
-11.1155266
11
0.7585604
21
-11.2895278
0
LINE
8
layer0
10
0.7585604
20
-11.2895278
11
0.6850472
21
-11.4773502
0
LINE
8
layer0
10
0.6850472
20
-11.4773502
11
0.5962786
21
-11.6788677
0
LINE
8
layer0
10
0.5962786
20
-11.6788677
11
0.4915097
21
-11.892062
0
LINE
8
layer0
10
0.4915097
20
-11.892062
11
0.38198
21
-12.0939523
0
ARC
8
layer0
10
-1e-7
20
0.0000169
40
12.1
50
268.1909522
51
271.8090483
0
LINE
8
layer0
10
-0.38198
20
-12.0939523
11
-0.4915097
21
-11.892062
0
LINE
8
layer0
10
-0.4915097
20
-11.892062
11
-0.5962786
21
-11.6788677
0
LINE
8
layer0
10
-0.5962786
20
-11.6788677
11
-0.6850472
21
-11.4773502
0
LINE
8
layer0
10
-0.6850472
20
-11.4773502
11
-0.7585604
21
-11.2895278
0
LINE
8
layer0
10
-0.7585604
20
-11.2895278
11
-0.8183872
21
-11.1155266
0
LINE
8
layer0
10
-0.8183872
20
-11.1155266
11
-0.8654934
21
-10.9572894
0
LINE
8
layer0
10
-0.8654934
20
-10.9572894
11
-0.9016904
21
-10.8140434
0
LINE
8
layer0
10
-0.9016904
20
-10.8140434
11
-0.9280615
21
-10.6876418
0
LINE
8
layer0
10
-0.9280615
20
-10.6876418
11
-0.9463752
21
-10.5767213
0
LINE
8
layer0
10
-0.9463752
20
-10.5767213
11
-0.9575691
21
-10.4852844
0
LINE
8
layer0
10
-0.9575691
20
-10.4852844
11
-0.9657429
21
-10.3543234
0
LINE
8
layer0
10
-0.9657429
20
-10.3543234
11
-0.9634392
21
-10.2624932
0
LINE
8
layer0
10
-0.9634392
20
-10.2624932
11
-0.9655474
21
-10.1354898
0
LINE
8
layer0
10
-0.9655474
20
-10.1354898
11
-0.9792255
21
-10.0269437
0
LINE
8
layer0
10
-0.9792255
20
-10.0269437
11
-0.9899155
21
-9.9798213
0
LINE
8
layer0
10
-0.9899155
20
-9.9798213
11
-1.0029156
21
-9.9375674
0
LINE
8
layer0
10
-1.0029156
20
-9.9375674
11
-1.0180261
21
-9.9002643
0
LINE
8
layer0
10
-1.0180261
20
-9.9002643
11
-1.0350361
21
-9.867986
0
LINE
8
layer0
10
-1.0350361
20
-9.867986
11
-1.0537397
21
-9.8407751
0
LINE
8
layer0
10
-1.0537397
20
-9.8407751
11
-1.0739455
21
-9.8187024
0
LINE
8
layer0
10
-1.0739455
20
-9.8187024
11
-1.0954379
21
-9.8018123
0
LINE
8
layer0
10
-1.0954379
20
-9.8018123
11
-1.1180095
21
-9.7901376
0
LINE
8
layer0
10
-1.1180095
20
-9.7901376
11
-1.1474268
21
-9.7829472
0
LINE
8
layer0
10
-1.1474268
20
-9.7829472
11
-1.312324
21
-9.7622164
0
LINE
8
layer0
10
-1.312324
20
-9.7622164
11
-1.5408795
21
-9.7287302
0
LINE
8
layer0
10
-1.5408795
20
-9.7287302
11
-1.7685965
21
-9.6899499
0
LINE
8
layer0
10
-1.7685965
20
-9.6899499
11
-1.9318292
21
-9.6587101
0
LINE
8
layer0
10
-1.9318292
20
-9.6587101
11
-1.9620287
21
-9.6564581
0
LINE
8
layer0
10
-1.9620287
20
-9.6564581
11
-1.9871032
21
-9.6605864
0
LINE
8
layer0
10
-1.9871032
20
-9.6605864
11
-2.012763
21
-9.6700083
0
LINE
8
layer0
10
-2.012763
20
-9.6700083
11
-2.0388008
21
-9.6847567
0
LINE
8
layer0
10
-2.0388008
20
-9.6847567
11
-2.0649975
21
-9.7048561
0
LINE
8
layer0
10
-2.0649975
20
-9.7048561
11
-2.0911495
21
-9.7302983
0
LINE
8
layer0
10
-2.0911495
20
-9.7302983
11
-2.1170478
21
-9.7611062
0
LINE
8
layer0
10
-2.1170478
20
-9.7611062
11
-2.1424688
21
-9.7972748
0
LINE
8
layer0
10
-2.1424688
20
-9.7972748
11
-2.1671972
21
-9.8387875
0
LINE
8
layer0
10
-2.1671972
20
-9.8387875
11
-2.2137484
21
-9.9377942
0
LINE
8
layer0
10
-2.2137484
20
-9.9377942
11
-2.2549997
21
-10.0579301
0
LINE
8
layer0
10
-2.2549997
20
-10.0579301
11
-2.2811858
21
-10.1459777
0
LINE
8
layer0
10
-2.2811858
20
-10.1459777
11
-2.3294287
21
-10.2680032
0
LINE
8
layer0
10
-2.3294287
20
-10.2680032
11
-2.3683303
21
-10.3515057
0
LINE
8
layer0
10
-2.3683303
20
-10.3515057
11
-2.420024
21
-10.4513382
0
LINE
8
layer0
10
-2.420024
20
-10.4513382
11
-2.4841647
21
-10.5634041
0
LINE
8
layer0
10
-2.4841647
20
-10.5634041
11
-2.5628555
21
-10.6884537
0
LINE
8
layer0
10
-2.5628555
20
-10.6884537
11
-2.6565542
21
-10.8243896
0
LINE
8
layer0
10
-2.6565542
20
-10.8243896
11
-2.7672222
21
-10.9713871
0
LINE
8
layer0
10
-2.7672222
20
-10.9713871
11
-2.8951777
21
-11.1273
0
LINE
8
layer0
10
-2.8951777
20
-11.1273
11
-3.0418739
21
-11.2915235
0
LINE
8
layer0
10
-3.0418739
20
-11.2915235
11
-3.2073958
21
-11.4619079
0
LINE
8
layer0
10
-3.2073958
20
-11.4619079
11
-3.3739522
21
-11.6200705
0
ARC
8
layer0
10
0.0000046
20
0.0000162
40
12.1
50
250.1909551
51
253.809051
0
LINE
8
layer0
10
-4.1005214
20
-11.3839938
11
-4.1423027
21
-11.1581382
0
LINE
8
layer0
10
-4.1423027
20
-11.1581382
11
-4.1760633
21
-10.923003
0
LINE
8
layer0
10
-4.1760633
20
-10.923003
11
-4.1982149
21
-10.7039175
0
LINE
8
layer0
10
-4.1982149
20
-10.7039175
11
-4.2100898
21
-10.502571
0
LINE
8
layer0
10
-4.2100898
20
-10.502571
11
-4.2132191
21
-10.3185985
0
LINE
8
layer0
10
-4.2132191
20
-10.3185985
11
-4.2091218
21
-10.1535493
0
LINE
8
layer0
10
-4.2091218
20
-10.1535493
11
-4.1992817
21
-10.0061288
0
LINE
8
layer0
10
-4.1992817
20
-10.0061288
11
-4.1853019
21
-9.8777646
0
LINE
8
layer0
10
-4.1853019
20
-9.8777646
11
-4.1684429
21
-9.7666137
0
LINE
8
layer0
10
-4.1684429
20
-9.7666137
11
-4.1508334
21
-9.676193
0
LINE
8
layer0
10
-4.1508334
20
-9.676193
11
-4.118138
21
-9.5491158
0
LINE
8
layer0
10
-4.118138
20
-9.5491158
11
-4.0875699
21
-9.462492
0
LINE
8
layer0
10
-4.0875699
20
-9.462492
11
-4.0503288
21
-9.3410531
0
LINE
8
layer0
10
-4.0503288
20
-9.3410531
11
-4.0297948
21
-9.2335928
0
LINE
8
layer0
10
-4.0297948
20
-9.2335928
11
-4.0254
21
-9.1854733
0
LINE
8
layer0
10
-4.0254
20
-9.1854733
11
-4.0247066
21
-9.1412703
0
LINE
8
layer0
10
-4.0247066
20
-9.1412703
11
-4.0275503
21
-9.1011235
0
LINE
8
layer0
10
-4.0275503
20
-9.1011235
11
-4.0337532
21
-9.0651686
0
LINE
8
layer0
10
-4.0337532
20
-9.0651686
11
-4.0431327
21
-9.0335098
0
LINE
8
layer0
10
-4.0431327
20
-9.0335098
11
-4.0555288
21
-9.0062735
0
LINE
8
layer0
10
-4.0555288
20
-9.0062735
11
-4.07075
21
-8.9835686
0
LINE
8
layer0
10
-4.07075
20
-8.9835686
11
-4.0886091
21
-8.9654902
0
LINE
8
layer0
10
-4.0886091
20
-8.9654902
11
-4.1143647
21
-8.9495613
0
LINE
8
layer0
10
-4.1143647
20
-8.9495613
11
-4.264785
21
-8.8788891
0
LINE
8
layer0
10
-4.264785
20
-8.8788891
11
-4.4718064
21
-8.7764143
0
LINE
8
layer0
10
-4.4718064
20
-8.7764143
11
-4.6763944
21
-8.6691636
0
LINE
8
layer0
10
-4.6763944
20
-8.6691636
11
-4.8219843
21
-8.5890111
0
LINE
8
layer0
10
-4.8219843
20
-8.5890111
11
-4.8500098
21
-8.5775372
0
LINE
8
layer0
10
-4.8500098
20
-8.5775372
11
-4.8751328
21
-8.573715
0
LINE
8
layer0
10
-4.8751328
20
-8.573715
11
-4.9024483
21
-8.5747465
0
LINE
8
layer0
10
-4.9024483
20
-8.5747465
11
-4.9317692
21
-8.5807269
0
LINE
8
layer0
10
-4.9317692
20
-8.5807269
11
-4.9628948
21
-8.5917473
0
LINE
8
layer0
10
-4.9628948
20
-8.5917473
11
-4.9956289
21
-8.6078628
0
LINE
8
layer0
10
-4.9956289
20
-8.6078628
11
-5.0297798
21
-8.6291599
0
LINE
8
layer0
10
-5.0297798
20
-8.6291599
11
-5.0651333
21
-8.6557027
0
LINE
8
layer0
10
-5.0651333
20
-8.6557027
11
-5.1014796
21
-8.6875421
0
LINE
8
layer0
10
-5.1014796
20
-8.6875421
11
-5.1763472
21
-8.767318
0
LINE
8
layer0
10
-5.1763472
20
-8.767318
11
-5.2527035
21
-8.8688268
0
LINE
8
layer0
10
-5.2527035
20
-8.8688268
11
-5.3048162
21
-8.9444731
0
LINE
8
layer0
10
-5.3048162
20
-8.9444731
11
-5.3884059
21
-9.0456183
0
LINE
8
layer0
10
-5.3884059
20
-9.0456183
11
-5.4512072
21
-9.1130126
0
LINE
8
layer0
10
-5.4512072
20
-9.1130126
11
-5.5312207
21
-9.1919847
0
LINE
8
layer0
10
-5.5312207
20
-9.1919847
11
-5.6268524
21
-9.2787452
0
LINE
8
layer0
10
-5.6268524
20
-9.2787452
11
-5.7403343
21
-9.3733576
0
LINE
8
layer0
10
-5.7403343
20
-9.3733576
11
-5.8714535
21
-9.4736858
0
LINE
8
layer0
10
-5.8714535
20
-9.4736858
11
-6.0221297
21
-9.5792905
0
LINE
8
layer0
10
-6.0221297
20
-9.5792905
11
-6.1920024
21
-9.688032
0
LINE
8
layer0
10
-6.1920024
20
-9.688032
11
-6.3822667
21
-9.7988862
0
LINE
8
layer0
10
-6.3822667
20
-9.7988862
11
-6.592339
21
-9.9097824
0
LINE
8
layer0
10
-6.592339
20
-9.9097824
11
-6.7996185
21
-10.0087352
0
ARC
8
layer0
10
0.0000101
20
0.0000135
40
12.1
50
232.1909507
51
235.8090468
0
LINE
8
layer0
10
-7.4176752
20
-9.5596907
11
-7.3876183
21
-9.3319781
0
LINE
8
layer0
10
-7.3876183
20
-9.3319781
11
-7.3470657
21
-9.0979187
0
LINE
8
layer0
10
-7.3470657
20
-9.0979187
11
-7.300432
21
-8.8827107
0
LINE
8
layer0
10
-7.300432
20
-8.8827107
11
-7.2495062
21
-8.6875493
0
LINE
8
layer0
10
-7.2495062
20
-8.6875493
11
-7.1956317
21
-8.511614
0
LINE
8
layer0
10
-7.1956317
20
-8.511614
11
-7.140732
21
-8.3559091
0
LINE
8
layer0
10
-7.140732
20
-8.3559091
11
-7.0858181
21
-8.2187445
0
LINE
8
layer0
10
-7.0858181
20
-8.2187445
11
-7.0328558
21
-8.100983
0
LINE
8
layer0
10
-7.0328558
20
-8.100983
11
-6.9824744
21
-8.0004819
0
LINE
8
layer0
10
-6.9824744
20
-8.0004819
11
-6.9377853
21
-7.9199283
0
LINE
8
layer0
10
-6.9377853
20
-7.9199283
11
-6.8674211
21
-7.8091742
0
LINE
8
layer0
10
-6.8674211
20
-7.8091742
11
-6.8115808
21
-7.7362361
0
LINE
8
layer0
10
-6.8115808
20
-7.7362361
11
-6.7386357
21
-7.632249
0
LINE
8
layer0
10
-6.7386357
20
-7.632249
11
-6.6858997
21
-7.5363936
0
LINE
8
layer0
10
-6.6858997
20
-7.5363936
11
-6.6668502
21
-7.4919873
0
LINE
8
layer0
10
-6.6668502
20
-7.4919873
11
-6.6525313
21
-7.4501619
0
LINE
8
layer0
10
-6.6525313
20
-7.4501619
11
-6.6428298
21
-7.4111013
0
LINE
8
layer0
10
-6.6428298
20
-7.4111013
11
-6.6376184
21
-7.3749894
0
LINE
8
layer0
10
-6.6376184
20
-7.3749894
11
-6.6367558
21
-7.3419816
0
LINE
8
layer0
10
-6.6367558
20
-7.3419816
11
-6.6401287
21
-7.3122478
0
LINE
8
layer0
10
-6.6401287
20
-7.3122478
11
-6.6475886
21
-7.2859505
0
LINE
8
layer0
10
-6.6475886
20
-7.2859505
11
-6.6589872
21
-7.2632382
0
LINE
8
layer0
10
-6.6589872
20
-7.2632382
11
-6.6785599
21
-7.24013
0
LINE
8
layer0
10
-6.6785599
20
-7.24013
11
-6.7997792
21
-7.1264343
0
LINE
8
layer0
10
-6.7997792
20
-7.1264343
11
-6.9650018
21
-6.9650018
0
LINE
8
layer0
10
-6.9650018
20
-6.9650018
11
-7.1264343
21
-6.7997792
0
LINE
8
layer0
10
-7.1264343
20
-6.7997792
11
-7.24013
21
-6.6785599
0
LINE
8
layer0
10
-7.24013
20
-6.6785599
11
-7.2632382
21
-6.6589872
0
LINE
8
layer0
10
-7.2632382
20
-6.6589872
11
-7.2859505
21
-6.6475886
0
LINE
8
layer0
10
-7.2859505
20
-6.6475886
11
-7.3122478
21
-6.6401287
0
LINE
8
layer0
10
-7.3122478
20
-6.6401287
11
-7.3419816
21
-6.6367558
0
LINE
8
layer0
10
-7.3419816
20
-6.6367558
11
-7.3749894
21
-6.6376184
0
LINE
8
layer0
10
-7.3749894
20
-6.6376184
11
-7.4111013
21
-6.6428298
0
LINE
8
layer0
10
-7.4111013
20
-6.6428298
11
-7.4501619
21
-6.6525313
0
LINE
8
layer0
10
-7.4501619
20
-6.6525313
11
-7.4919873
21
-6.6668502
0
LINE
8
layer0
10
-7.4919873
20
-6.6668502
11
-7.5363936
21
-6.6858997
0
LINE
8
layer0
10
-7.5363936
20
-6.6858997
11
-7.632249
21
-6.7386357
0
LINE
8
layer0
10
-7.632249
20
-6.7386357
11
-7.7362361
21
-6.8115808
0
LINE
8
layer0
10
-7.7362361
20
-6.8115808
11
-7.8091742
21
-6.8674211
0
LINE
8
layer0
10
-7.8091742
20
-6.8674211
11
-7.9199283
21
-6.9377853
0
LINE
8
layer0
10
-7.9199283
20
-6.9377853
11
-8.0004819
21
-6.9824744
0
LINE
8
layer0
10
-8.0004819
20
-6.9824744
11
-8.100983
21
-7.0328558
0
LINE
8
layer0
10
-8.100983
20
-7.0328558
11
-8.2187445
21
-7.0858181
0
LINE
8
layer0
10
-8.2187445
20
-7.0858181
11
-8.3559091
21
-7.140732
0
LINE
8
layer0
10
-8.3559091
20
-7.140732
11
-8.511614
21
-7.1956317
0
LINE
8
layer0
10
-8.511614
20
-7.1956317
11
-8.6875493
21
-7.2495062
0
LINE
8
layer0
10
-8.6875493
20
-7.2495062
11
-8.8827107
21
-7.300432
0
LINE
8
layer0
10
-8.8827107
20
-7.300432
11
-9.0979187
21
-7.3470657
0
LINE
8
layer0
10
-9.0979187
20
-7.3470657
11
-9.3319781
21
-7.3876183
0
LINE
8
layer0
10
-9.3319781
20
-7.3876183
11
-9.5596907
21
-7.4176752
0
ARC
8
layer0
10
0.0000135
20
0.0000101
40
12.1
50
214.1909532
51
217.8090493
0
LINE
8
layer0
10
-10.0087352
20
-6.7996185
11
-9.9097824
21
-6.592339
0
LINE
8
layer0
10
-9.9097824
20
-6.592339
11
-9.7988862
21
-6.3822667
0
LINE
8
layer0
10
-9.7988862
20
-6.3822667
11
-9.688032
21
-6.1920024
0
LINE
8
layer0
10
-9.688032
20
-6.1920024
11
-9.5792905
21
-6.0221297
0
LINE
8
layer0
10
-9.5792905
20
-6.0221297
11
-9.4736858
21
-5.8714535
0
LINE
8
layer0
10
-9.4736858
20
-5.8714535
11
-9.3733576
21
-5.7403343
0
LINE
8
layer0
10
-9.3733576
20
-5.7403343
11
-9.2787452
21
-5.6268524
0
LINE
8
layer0
10
-9.2787452
20
-5.6268524
11
-9.1919847
21
-5.5312207
0
LINE
8
layer0
10
-9.1919847
20
-5.5312207
11
-9.1130126
21
-5.4512072
0
LINE
8
layer0
10
-9.1130126
20
-5.4512072
11
-9.0456183
21
-5.3884059
0
LINE
8
layer0
10
-9.0456183
20
-5.3884059
11
-8.9444731
21
-5.3048162
0
LINE
8
layer0
10
-8.9444731
20
-5.3048162
11
-8.8688268
21
-5.2527035
0
LINE
8
layer0
10
-8.8688268
20
-5.2527035
11
-8.767318
21
-5.1763472
0
LINE
8
layer0
10
-8.767318
20
-5.1763472
11
-8.6875421
21
-5.1014796
0
LINE
8
layer0
10
-8.6875421
20
-5.1014796
11
-8.6557027
21
-5.0651333
0
LINE
8
layer0
10
-8.6557027
20
-5.0651333
11
-8.6291599
21
-5.0297798
0
LINE
8
layer0
10
-8.6291599
20
-5.0297798
11
-8.6078628
21
-4.9956289
0
LINE
8
layer0
10
-8.6078628
20
-4.9956289
11
-8.5917473
21
-4.9628948
0
LINE
8
layer0
10
-8.5917473
20
-4.9628948
11
-8.5807269
21
-4.9317692
0
LINE
8
layer0
10
-8.5807269
20
-4.9317692
11
-8.5747465
21
-4.9024483
0
LINE
8
layer0
10
-8.5747465
20
-4.9024483
11
-8.573715
21
-4.8751328
0
LINE
8
layer0
10
-8.573715
20
-4.8751328
11
-8.5775372
21
-4.8500098
0
LINE
8
layer0
10
-8.5775372
20
-4.8500098
11
-8.5890111
21
-4.8219843
0
LINE
8
layer0
10
-8.5890111
20
-4.8219843
11
-8.6691636
21
-4.6763944
0
LINE
8
layer0
10
-8.6691636
20
-4.6763944
11
-8.7764143
21
-4.4718064
0
LINE
8
layer0
10
-8.7764143
20
-4.4718064
11
-8.8788891
21
-4.264785
0
LINE
8
layer0
10
-8.8788891
20
-4.264785
11
-8.9495613
21
-4.1143647
0
LINE
8
layer0
10
-8.9495613
20
-4.1143647
11
-8.9654902
21
-4.0886091
0
LINE
8
layer0
10
-8.9654902
20
-4.0886091
11
-8.9835686
21
-4.07075
0
LINE
8
layer0
10
-8.9835686
20
-4.07075
11
-9.0062735
21
-4.0555288
0
LINE
8
layer0
10
-9.0062735
20
-4.0555288
11
-9.0335098
21
-4.0431327
0
LINE
8
layer0
10
-9.0335098
20
-4.0431327
11
-9.0651686
21
-4.0337532
0
LINE
8
layer0
10
-9.0651686
20
-4.0337532
11
-9.1011235
21
-4.0275503
0
LINE
8
layer0
10
-9.1011235
20
-4.0275503
11
-9.1412703
21
-4.0247066
0
LINE
8
layer0
10
-9.1412703
20
-4.0247066
11
-9.1854733
21
-4.0254
0
LINE
8
layer0
10
-9.1854733
20
-4.0254
11
-9.2335928
21
-4.0297948
0
LINE
8
layer0
10
-9.2335928
20
-4.0297948
11
-9.3410531
21
-4.0503288
0
LINE
8
layer0
10
-9.3410531
20
-4.0503288
11
-9.462492
21
-4.0875699
0
LINE
8
layer0
10
-9.462492
20
-4.0875699
11
-9.5491158
21
-4.118138
0
LINE
8
layer0
10
-9.5491158
20
-4.118138
11
-9.676193
21
-4.1508334
0
LINE
8
layer0
10
-9.676193
20
-4.1508334
11
-9.7666137
21
-4.1684429
0
LINE
8
layer0
10
-9.7666137
20
-4.1684429
11
-9.8777646
21
-4.1853019
0
LINE
8
layer0
10
-9.8777646
20
-4.1853019
11
-10.0061288
21
-4.1992817
0
LINE
8
layer0
10
-10.0061288
20
-4.1992817
11
-10.1535493
21
-4.2091218
0
LINE
8
layer0
10
-10.1535493
20
-4.2091218
11
-10.3185985
21
-4.2132191
0
LINE
8
layer0
10
-10.3185985
20
-4.2132191
11
-10.502571
21
-4.2100898
0
LINE
8
layer0
10
-10.502571
20
-4.2100898
11
-10.7039175
21
-4.1982149
0
LINE
8
layer0
10
-10.7039175
20
-4.1982149
11
-10.923003
21
-4.1760633
0
LINE
8
layer0
10
-10.923003
20
-4.1760633
11
-11.1581382
21
-4.1423027
0
LINE
8
layer0
10
-11.1581382
20
-4.1423027
11
-11.3839938
21
-4.1005214
0
ARC
8
layer0
10
0.0000163
20
0.0000046
40
12.1
50
196.190949
51
199.8090449
0
LINE
8
layer0
10
-11.6200705
20
-3.3739522
11
-11.4619079
21
-3.2073958
0
LINE
8
layer0
10
-11.4619079
20
-3.2073958
11
-11.2915235
21
-3.0418739
0
LINE
8
layer0
10
-11.2915235
20
-3.0418739
11
-11.1273
21
-2.8951777
0
LINE
8
layer0
10
-11.1273
20
-2.8951777
11
-10.9713871
21
-2.7672222
0
LINE
8
layer0
10
-10.9713871
20
-2.7672222
11
-10.8243896
21
-2.6565542
0
LINE
8
layer0
10
-10.8243896
20
-2.6565542
11
-10.6884537
21
-2.5628555
0
LINE
8
layer0
10
-10.6884537
20
-2.5628555
11
-10.5634041
21
-2.4841647
0
LINE
8
layer0
10
-10.5634041
20
-2.4841647
11
-10.4513382
21
-2.420024
0
LINE
8
layer0
10
-10.4513382
20
-2.420024
11
-10.3515057
21
-2.3683303
0
LINE
8
layer0
10
-10.3515057
20
-2.3683303
11
-10.2680032
21
-2.3294287
0
LINE
8
layer0
10
-10.2680032
20
-2.3294287
11
-10.1459777
21
-2.2811858
0
LINE
8
layer0
10
-10.1459777
20
-2.2811858
11
-10.0579301
21
-2.2549997
0
LINE
8
layer0
10
-10.0579301
20
-2.2549997
11
-9.9377942
21
-2.2137484
0
LINE
8
layer0
10
-9.9377942
20
-2.2137484
11
-9.8387875
21
-2.1671972
0
LINE
8
layer0
10
-9.8387875
20
-2.1671972
11
-9.7972748
21
-2.1424688
0
LINE
8
layer0
10
-9.7972748
20
-2.1424688
11
-9.7611062
21
-2.1170478
0
LINE
8
layer0
10
-9.7611062
20
-2.1170478
11
-9.7302983
21
-2.0911495
0
LINE
8
layer0
10
-9.7302983
20
-2.0911495
11
-9.7048561
21
-2.0649975
0
LINE
8
layer0
10
-9.7048561
20
-2.0649975
11
-9.6847567
21
-2.0388008
0
LINE
8
layer0
10
-9.6847567
20
-2.0388008
11
-9.6700083
21
-2.012763
0
LINE
8
layer0
10
-9.6700083
20
-2.012763
11
-9.6605864
21
-1.9871032
0
LINE
8
layer0
10
-9.6605864
20
-1.9871032
11
-9.6564581
21
-1.9620287
0
LINE
8
layer0
10
-9.6564581
20
-1.9620287
11
-9.6587101
21
-1.9318292
0
LINE
8
layer0
10
-9.6587101
20
-1.9318292
11
-9.6899499
21
-1.7685965
0
LINE
8
layer0
10
-9.6899499
20
-1.7685965
11
-9.7287302
21
-1.5408795
0
LINE
8
layer0
10
-9.7287302
20
-1.5408795
11
-9.7622164
21
-1.312324
0
LINE
8
layer0
10
-9.7622164
20
-1.312324
11
-9.7829472
21
-1.1474268
0
LINE
8
layer0
10
-9.7829472
20
-1.1474268
11
-9.7901376
21
-1.1180095
0
LINE
8
layer0
10
-9.7901376
20
-1.1180095
11
-9.8018123
21
-1.0954379
0
LINE
8
layer0
10
-9.8018123
20
-1.0954379
11
-9.8187024
21
-1.0739455
0
LINE
8
layer0
10
-9.8187024
20
-1.0739455
11
-9.8407751
21
-1.0537397
0
LINE
8
layer0
10
-9.8407751
20
-1.0537397
11
-9.867986
21
-1.0350361
0
LINE
8
layer0
10
-9.867986
20
-1.0350361
11
-9.9002643
21
-1.0180261
0
LINE
8
layer0
10
-9.9002643
20
-1.0180261
11
-9.9375674
21
-1.0029156
0
LINE
8
layer0
10
-9.9375674
20
-1.0029156
11
-9.9798213
21
-0.9899155
0
LINE
8
layer0
10
-9.9798213
20
-0.9899155
11
-10.0269437
21
-0.9792255
0
LINE
8
layer0
10
-10.0269437
20
-0.9792255
11
-10.1354898
21
-0.9655474
0
LINE
8
layer0
10
-10.1354898
20
-0.9655474
11
-10.2624932
21
-0.9634392
0
LINE
8
layer0
10
-10.2624932
20
-0.9634392
11
-10.3543234
21
-0.9657429
0
LINE
8
layer0
10
-10.3543234
20
-0.9657429
11
-10.4852844
21
-0.9575691
0
LINE
8
layer0
10
-10.4852844
20
-0.9575691
11
-10.5767213
21
-0.9463752
0
LINE
8
layer0
10
-10.5767213
20
-0.9463752
11
-10.6876418
21
-0.9280615
0
LINE
8
layer0
10
-10.6876418
20
-0.9280615
11
-10.8140434
21
-0.9016904
0
LINE
8
layer0
10
-10.8140434
20
-0.9016904
11
-10.9572894
21
-0.8654934
0
LINE
8
layer0
10
-10.9572894
20
-0.8654934
11
-11.1155266
21
-0.8183872
0
LINE
8
layer0
10
-11.1155266
20
-0.8183872
11
-11.2895278
21
-0.7585604
0
LINE
8
layer0
10
-11.2895278
20
-0.7585604
11
-11.4773502
21
-0.6850472
0
LINE
8
layer0
10
-11.4773502
20
-0.6850472
11
-11.6788677
21
-0.5962786
0
LINE
8
layer0
10
-11.6788677
20
-0.5962786
11
-11.892062
21
-0.4915097
0
LINE
8
layer0
10
-11.892062
20
-0.4915097
11
-12.0939523
21
-0.38198
0
ARC
8
layer0
10
0.0000169
20
1e-7
40
12.1
50
178.1909522
51
181.8090483
0
LINE
8
layer0
10
-12.0939523
20
0.38198
11
-11.892062
21
0.4915097
0
LINE
8
layer0
10
-11.892062
20
0.4915097
11
-11.6788677
21
0.5962786
0
LINE
8
layer0
10
-11.6788677
20
0.5962786
11
-11.4773502
21
0.6850472
0
LINE
8
layer0
10
-11.4773502
20
0.6850472
11
-11.2895278
21
0.7585604
0
LINE
8
layer0
10
-11.2895278
20
0.7585604
11
-11.1155266
21
0.8183872
0
LINE
8
layer0
10
-11.1155266
20
0.8183872
11
-10.9572894
21
0.8654934
0
LINE
8
layer0
10
-10.9572894
20
0.8654934
11
-10.8140434
21
0.9016904
0
LINE
8
layer0
10
-10.8140434
20
0.9016904
11
-10.6876418
21
0.9280615
0
LINE
8
layer0
10
-10.6876418
20
0.9280615
11
-10.5767213
21
0.9463752
0
LINE
8
layer0
10
-10.5767213
20
0.9463752
11
-10.4852844
21
0.9575691
0
LINE
8
layer0
10
-10.4852844
20
0.9575691
11
-10.3543234
21
0.9657429
0
LINE
8
layer0
10
-10.3543234
20
0.9657429
11
-10.2624932
21
0.9634392
0
LINE
8
layer0
10
-10.2624932
20
0.9634392
11
-10.1354898
21
0.9655474
0
LINE
8
layer0
10
-10.1354898
20
0.9655474
11
-10.0269437
21
0.9792255
0
LINE
8
layer0
10
-10.0269437
20
0.9792255
11
-9.9798213
21
0.9899155
0
LINE
8
layer0
10
-9.9798213
20
0.9899155
11
-9.9375674
21
1.0029156
0
LINE
8
layer0
10
-9.9375674
20
1.0029156
11
-9.9002643
21
1.0180261
0
LINE
8
layer0
10
-9.9002643
20
1.0180261
11
-9.867986
21
1.0350361
0
LINE
8
layer0
10
-9.867986
20
1.0350361
11
-9.8407751
21
1.0537397
0
LINE
8
layer0
10
-9.8407751
20
1.0537397
11
-9.8187024
21
1.0739455
0
LINE
8
layer0
10
-9.8187024
20
1.0739455
11
-9.8018123
21
1.0954379
0
LINE
8
layer0
10
-9.8018123
20
1.0954379
11
-9.7901376
21
1.1180095
0
LINE
8
layer0
10
-9.7901376
20
1.1180095
11
-9.7829472
21
1.1474268
0
LINE
8
layer0
10
-9.7829472
20
1.1474268
11
-9.7622164
21
1.312324
0
LINE
8
layer0
10
-9.7622164
20
1.312324
11
-9.7287302
21
1.5408795
0
LINE
8
layer0
10
-9.7287302
20
1.5408795
11
-9.6899499
21
1.7685965
0
LINE
8
layer0
10
-9.6899499
20
1.7685965
11
-9.6587101
21
1.9318292
0
LINE
8
layer0
10
-9.6587101
20
1.9318292
11
-9.6564581
21
1.9620287
0
LINE
8
layer0
10
-9.6564581
20
1.9620287
11
-9.6605864
21
1.9871032
0
LINE
8
layer0
10
-9.6605864
20
1.9871032
11
-9.6700083
21
2.012763
0
LINE
8
layer0
10
-9.6700083
20
2.012763
11
-9.6847567
21
2.0388008
0
LINE
8
layer0
10
-9.6847567
20
2.0388008
11
-9.7048561
21
2.0649975
0
LINE
8
layer0
10
-9.7048561
20
2.0649975
11
-9.7302983
21
2.0911495
0
LINE
8
layer0
10
-9.7302983
20
2.0911495
11
-9.7611062
21
2.1170478
0
LINE
8
layer0
10
-9.7611062
20
2.1170478
11
-9.7972748
21
2.1424688
0
LINE
8
layer0
10
-9.7972748
20
2.1424688
11
-9.8387875
21
2.1671972
0
LINE
8
layer0
10
-9.8387875
20
2.1671972
11
-9.9377942
21
2.2137484
0
LINE
8
layer0
10
-9.9377942
20
2.2137484
11
-10.0579301
21
2.2549997
0
LINE
8
layer0
10
-10.0579301
20
2.2549997
11
-10.1459777
21
2.2811858
0
LINE
8
layer0
10
-10.1459777
20
2.2811858
11
-10.2680032
21
2.3294287
0
LINE
8
layer0
10
-10.2680032
20
2.3294287
11
-10.3515057
21
2.3683303
0
LINE
8
layer0
10
-10.3515057
20
2.3683303
11
-10.4513382
21
2.420024
0
LINE
8
layer0
10
-10.4513382
20
2.420024
11
-10.5634041
21
2.4841647
0
LINE
8
layer0
10
-10.5634041
20
2.4841647
11
-10.6884537
21
2.5628555
0
LINE
8
layer0
10
-10.6884537
20
2.5628555
11
-10.8243896
21
2.6565542
0
LINE
8
layer0
10
-10.8243896
20
2.6565542
11
-10.9713871
21
2.7672222
0
LINE
8
layer0
10
-10.9713871
20
2.7672222
11
-11.1273
21
2.8951777
0
LINE
8
layer0
10
-11.1273
20
2.8951777
11
-11.2915235
21
3.0418739
0
LINE
8
layer0
10
-11.2915235
20
3.0418739
11
-11.4619079
21
3.2073958
0
LINE
8
layer0
10
-11.4619079
20
3.2073958
11
-11.6200705
21
3.3739522
0
ARC
8
layer0
10
0.0000162
20
-0.0000046
40
12.1
50
160.1909551
51
163.809051
0
LINE
8
layer0
10
-11.3839938
20
4.1005214
11
-11.1581382
21
4.1423027
0
LINE
8
layer0
10
-11.1581382
20
4.1423027
11
-10.923003
21
4.1760633
0
LINE
8
layer0
10
-10.923003
20
4.1760633
11
-10.7039175
21
4.1982149
0
LINE
8
layer0
10
-10.7039175
20
4.1982149
11
-10.502571
21
4.2100898
0
LINE
8
layer0
10
-10.502571
20
4.2100898
11
-10.3185985
21
4.2132191
0
LINE
8
layer0
10
-10.3185985
20
4.2132191
11
-10.1535493
21
4.2091218
0
LINE
8
layer0
10
-10.1535493
20
4.2091218
11
-10.0061288
21
4.1992817
0
LINE
8
layer0
10
-10.0061288
20
4.1992817
11
-9.8777646
21
4.1853019
0
LINE
8
layer0
10
-9.8777646
20
4.1853019
11
-9.7666137
21
4.1684429
0
LINE
8
layer0
10
-9.7666137
20
4.1684429
11
-9.676193
21
4.1508334
0
LINE
8
layer0
10
-9.676193
20
4.1508334
11
-9.5491158
21
4.118138
0
LINE
8
layer0
10
-9.5491158
20
4.118138
11
-9.462492
21
4.0875699
0
LINE
8
layer0
10
-9.462492
20
4.0875699
11
-9.3410531
21
4.0503288
0
LINE
8
layer0
10
-9.3410531
20
4.0503288
11
-9.2335928
21
4.0297948
0
LINE
8
layer0
10
-9.2335928
20
4.0297948
11
-9.1854733
21
4.0254
0
LINE
8
layer0
10
-9.1854733
20
4.0254
11
-9.1412703
21
4.0247066
0
LINE
8
layer0
10
-9.1412703
20
4.0247066
11
-9.1011235
21
4.0275503
0
LINE
8
layer0
10
-9.1011235
20
4.0275503
11
-9.0651686
21
4.0337532
0
LINE
8
layer0
10
-9.0651686
20
4.0337532
11
-9.0335098
21
4.0431327
0
LINE
8
layer0
10
-9.0335098
20
4.0431327
11
-9.0062735
21
4.0555288
0
LINE
8
layer0
10
-9.0062735
20
4.0555288
11
-8.9835686
21
4.07075
0
LINE
8
layer0
10
-8.9835686
20
4.07075
11
-8.9654902
21
4.0886091
0
LINE
8
layer0
10
-8.9654902
20
4.0886091
11
-8.9495613
21
4.1143647
0
LINE
8
layer0
10
-8.9495613
20
4.1143647
11
-8.8788891
21
4.264785
0
LINE
8
layer0
10
-8.8788891
20
4.264785
11
-8.7764143
21
4.4718064
0
LINE
8
layer0
10
-8.7764143
20
4.4718064
11
-8.6691636
21
4.6763944
0
LINE
8
layer0
10
-8.6691636
20
4.6763944
11
-8.5890111
21
4.8219843
0
LINE
8
layer0
10
-8.5890111
20
4.8219843
11
-8.5775372
21
4.8500098
0
LINE
8
layer0
10
-8.5775372
20
4.8500098
11
-8.573715
21
4.8751328
0
LINE
8
layer0
10
-8.573715
20
4.8751328
11
-8.5747465
21
4.9024483
0
LINE
8
layer0
10
-8.5747465
20
4.9024483
11
-8.5807269
21
4.9317692
0
LINE
8
layer0
10
-8.5807269
20
4.9317692
11
-8.5917473
21
4.9628948
0
LINE
8
layer0
10
-8.5917473
20
4.9628948
11
-8.6078628
21
4.9956289
0
LINE
8
layer0
10
-8.6078628
20
4.9956289
11
-8.6291599
21
5.0297798
0
LINE
8
layer0
10
-8.6291599
20
5.0297798
11
-8.6557027
21
5.0651333
0
LINE
8
layer0
10
-8.6557027
20
5.0651333
11
-8.6875421
21
5.1014796
0
LINE
8
layer0
10
-8.6875421
20
5.1014796
11
-8.767318
21
5.1763472
0
LINE
8
layer0
10
-8.767318
20
5.1763472
11
-8.8688268
21
5.2527035
0
LINE
8
layer0
10
-8.8688268
20
5.2527035
11
-8.9444731
21
5.3048162
0
LINE
8
layer0
10
-8.9444731
20
5.3048162
11
-9.0456183
21
5.3884059
0
LINE
8
layer0
10
-9.0456183
20
5.3884059
11
-9.1130126
21
5.4512072
0
LINE
8
layer0
10
-9.1130126
20
5.4512072
11
-9.1919847
21
5.5312207
0
LINE
8
layer0
10
-9.1919847
20
5.5312207
11
-9.2787452
21
5.6268524
0
LINE
8
layer0
10
-9.2787452
20
5.6268524
11
-9.3733576
21
5.7403343
0
LINE
8
layer0
10
-9.3733576
20
5.7403343
11
-9.4736858
21
5.8714535
0
LINE
8
layer0
10
-9.4736858
20
5.8714535
11
-9.5792905
21
6.0221297
0
LINE
8
layer0
10
-9.5792905
20
6.0221297
11
-9.688032
21
6.1920024
0
LINE
8
layer0
10
-9.688032
20
6.1920024
11
-9.7988862
21
6.3822667
0
LINE
8
layer0
10
-9.7988862
20
6.3822667
11
-9.9097824
21
6.592339
0
LINE
8
layer0
10
-9.9097824
20
6.592339
11
-10.0087352
21
6.7996185
0
ARC
8
layer0
10
0.0000135
20
-0.0000101
40
12.1
50
142.1909507
51
145.8090468
0
LINE
8
layer0
10
-9.5596907
20
7.4176752
11
-9.3319781
21
7.3876183
0
LINE
8
layer0
10
-9.3319781
20
7.3876183
11
-9.0979187
21
7.3470657
0
LINE
8
layer0
10
-9.0979187
20
7.3470657
11
-8.8827107
21
7.300432
0
LINE
8
layer0
10
-8.8827107
20
7.300432
11
-8.6875493
21
7.2495062
0
LINE
8
layer0
10
-8.6875493
20
7.2495062
11
-8.511614
21
7.1956317
0
LINE
8
layer0
10
-8.511614
20
7.1956317
11
-8.3559091
21
7.140732
0
LINE
8
layer0
10
-8.3559091
20
7.140732
11
-8.2187445
21
7.0858181
0
LINE
8
layer0
10
-8.2187445
20
7.0858181
11
-8.100983
21
7.0328558
0
LINE
8
layer0
10
-8.100983
20
7.0328558
11
-8.0004819
21
6.9824744
0
LINE
8
layer0
10
-8.0004819
20
6.9824744
11
-7.9199283
21
6.9377853
0
LINE
8
layer0
10
-7.9199283
20
6.9377853
11
-7.8091742
21
6.8674211
0
LINE
8
layer0
10
-7.8091742
20
6.8674211
11
-7.7362361
21
6.8115808
0
LINE
8
layer0
10
-7.7362361
20
6.8115808
11
-7.632249
21
6.7386357
0
LINE
8
layer0
10
-7.632249
20
6.7386357
11
-7.5363936
21
6.6858997
0
LINE
8
layer0
10
-7.5363936
20
6.6858997
11
-7.4919873
21
6.6668502
0
LINE
8
layer0
10
-7.4919873
20
6.6668502
11
-7.4501619
21
6.6525313
0
LINE
8
layer0
10
-7.4501619
20
6.6525313
11
-7.4111013
21
6.6428298
0
LINE
8
layer0
10
-7.4111013
20
6.6428298
11
-7.3749894
21
6.6376184
0
LINE
8
layer0
10
-7.3749894
20
6.6376184
11
-7.3419816
21
6.6367558
0
LINE
8
layer0
10
-7.3419816
20
6.6367558
11
-7.3122478
21
6.6401287
0
LINE
8
layer0
10
-7.3122478
20
6.6401287
11
-7.2859505
21
6.6475886
0
LINE
8
layer0
10
-7.2859505
20
6.6475886
11
-7.2632382
21
6.6589872
0
LINE
8
layer0
10
-7.2632382
20
6.6589872
11
-7.24013
21
6.6785599
0
LINE
8
layer0
10
-7.24013
20
6.6785599
11
-7.1264343
21
6.7997792
0
LINE
8
layer0
10
-7.1264343
20
6.7997792
11
-6.9650018
21
6.9650018
0
LINE
8
layer0
10
-6.9650018
20
6.9650018
11
-6.7997792
21
7.1264343
0
LINE
8
layer0
10
-6.7997792
20
7.1264343
11
-6.6785599
21
7.24013
0
LINE
8
layer0
10
-6.6785599
20
7.24013
11
-6.6589872
21
7.2632382
0
LINE
8
layer0
10
-6.6589872
20
7.2632382
11
-6.6475886
21
7.2859505
0
LINE
8
layer0
10
-6.6475886
20
7.2859505
11
-6.6401287
21
7.3122478
0
LINE
8
layer0
10
-6.6401287
20
7.3122478
11
-6.6367558
21
7.3419816
0
LINE
8
layer0
10
-6.6367558
20
7.3419816
11
-6.6376184
21
7.3749894
0
LINE
8
layer0
10
-6.6376184
20
7.3749894
11
-6.6428298
21
7.4111013
0
LINE
8
layer0
10
-6.6428298
20
7.4111013
11
-6.6525313
21
7.4501619
0
LINE
8
layer0
10
-6.6525313
20
7.4501619
11
-6.6668502
21
7.4919873
0
LINE
8
layer0
10
-6.6668502
20
7.4919873
11
-6.6858997
21
7.5363936
0
LINE
8
layer0
10
-6.6858997
20
7.5363936
11
-6.7386357
21
7.632249
0
LINE
8
layer0
10
-6.7386357
20
7.632249
11
-6.8115808
21
7.7362361
0
LINE
8
layer0
10
-6.8115808
20
7.7362361
11
-6.8674211
21
7.8091742
0
LINE
8
layer0
10
-6.8674211
20
7.8091742
11
-6.9377853
21
7.9199283
0
LINE
8
layer0
10
-6.9377853
20
7.9199283
11
-6.9824744
21
8.0004819
0
LINE
8
layer0
10
-6.9824744
20
8.0004819
11
-7.0328558
21
8.100983
0
LINE
8
layer0
10
-7.0328558
20
8.100983
11
-7.0858181
21
8.2187445
0
LINE
8
layer0
10
-7.0858181
20
8.2187445
11
-7.140732
21
8.3559091
0
LINE
8
layer0
10
-7.140732
20
8.3559091
11
-7.1956317
21
8.511614
0
LINE
8
layer0
10
-7.1956317
20
8.511614
11
-7.2495062
21
8.6875493
0
LINE
8
layer0
10
-7.2495062
20
8.6875493
11
-7.300432
21
8.8827107
0
LINE
8
layer0
10
-7.300432
20
8.8827107
11
-7.3470657
21
9.0979187
0
LINE
8
layer0
10
-7.3470657
20
9.0979187
11
-7.3876183
21
9.3319781
0
LINE
8
layer0
10
-7.3876183
20
9.3319781
11
-7.4176752
21
9.5596907
0
ARC
8
layer0
10
0.0000101
20
-0.0000135
40
12.1
50
124.1909532
51
127.8090493
0
LINE
8
layer0
10
-6.7996185
20
10.0087352
11
-6.592339
21
9.9097824
0
LINE
8
layer0
10
-6.592339
20
9.9097824
11
-6.3822667
21
9.7988862
0
LINE
8
layer0
10
-6.3822667
20
9.7988862
11
-6.1920024
21
9.688032
0
LINE
8
layer0
10
-6.1920024
20
9.688032
11
-6.0221297
21
9.5792905
0
LINE
8
layer0
10
-6.0221297
20
9.5792905
11
-5.8714535
21
9.4736858
0
LINE
8
layer0
10
-5.8714535
20
9.4736858
11
-5.7403343
21
9.3733576
0
LINE
8
layer0
10
-5.7403343
20
9.3733576
11
-5.6268524
21
9.2787452
0
LINE
8
layer0
10
-5.6268524
20
9.2787452
11
-5.5312207
21
9.1919847
0
LINE
8
layer0
10
-5.5312207
20
9.1919847
11
-5.4512072
21
9.1130126
0
LINE
8
layer0
10
-5.4512072
20
9.1130126
11
-5.3884059
21
9.0456183
0
LINE
8
layer0
10
-5.3884059
20
9.0456183
11
-5.3048162
21
8.9444731
0
LINE
8
layer0
10
-5.3048162
20
8.9444731
11
-5.2527035
21
8.8688268
0
LINE
8
layer0
10
-5.2527035
20
8.8688268
11
-5.1763472
21
8.767318
0
LINE
8
layer0
10
-5.1763472
20
8.767318
11
-5.1014796
21
8.6875421
0
LINE
8
layer0
10
-5.1014796
20
8.6875421
11
-5.0651333
21
8.6557027
0
LINE
8
layer0
10
-5.0651333
20
8.6557027
11
-5.0297798
21
8.6291599
0
LINE
8
layer0
10
-5.0297798
20
8.6291599
11
-4.9956289
21
8.6078628
0
LINE
8
layer0
10
-4.9956289
20
8.6078628
11
-4.9628948
21
8.5917473
0
LINE
8
layer0
10
-4.9628948
20
8.5917473
11
-4.9317692
21
8.5807269
0
LINE
8
layer0
10
-4.9317692
20
8.5807269
11
-4.9024483
21
8.5747465
0
LINE
8
layer0
10
-4.9024483
20
8.5747465
11
-4.8751328
21
8.573715
0
LINE
8
layer0
10
-4.8751328
20
8.573715
11
-4.8500098
21
8.5775372
0
LINE
8
layer0
10
-4.8500098
20
8.5775372
11
-4.8219843
21
8.5890111
0
LINE
8
layer0
10
-4.8219843
20
8.5890111
11
-4.6763944
21
8.6691636
0
LINE
8
layer0
10
-4.6763944
20
8.6691636
11
-4.4718064
21
8.7764143
0
LINE
8
layer0
10
-4.4718064
20
8.7764143
11
-4.264785
21
8.8788891
0
LINE
8
layer0
10
-4.264785
20
8.8788891
11
-4.1143647
21
8.9495613
0
LINE
8
layer0
10
-4.1143647
20
8.9495613
11
-4.0886091
21
8.9654902
0
LINE
8
layer0
10
-4.0886091
20
8.9654902
11
-4.07075
21
8.9835686
0
LINE
8
layer0
10
-4.07075
20
8.9835686
11
-4.0555288
21
9.0062735
0
LINE
8
layer0
10
-4.0555288
20
9.0062735
11
-4.0431327
21
9.0335098
0
LINE
8
layer0
10
-4.0431327
20
9.0335098
11
-4.0337532
21
9.0651686
0
LINE
8
layer0
10
-4.0337532
20
9.0651686
11
-4.0275503
21
9.1011235
0
LINE
8
layer0
10
-4.0275503
20
9.1011235
11
-4.0247066
21
9.1412703
0
LINE
8
layer0
10
-4.0247066
20
9.1412703
11
-4.0254
21
9.1854733
0
LINE
8
layer0
10
-4.0254
20
9.1854733
11
-4.0297948
21
9.2335928
0
LINE
8
layer0
10
-4.0297948
20
9.2335928
11
-4.0503288
21
9.3410531
0
LINE
8
layer0
10
-4.0503288
20
9.3410531
11
-4.0875699
21
9.462492
0
LINE
8
layer0
10
-4.0875699
20
9.462492
11
-4.118138
21
9.5491158
0
LINE
8
layer0
10
-4.118138
20
9.5491158
11
-4.1508334
21
9.676193
0
LINE
8
layer0
10
-4.1508334
20
9.676193
11
-4.1684429
21
9.7666137
0
LINE
8
layer0
10
-4.1684429
20
9.7666137
11
-4.1853019
21
9.8777646
0
LINE
8
layer0
10
-4.1853019
20
9.8777646
11
-4.1992817
21
10.0061288
0
LINE
8
layer0
10
-4.1992817
20
10.0061288
11
-4.2091218
21
10.1535493
0
LINE
8
layer0
10
-4.2091218
20
10.1535493
11
-4.2132191
21
10.3185985
0
LINE
8
layer0
10
-4.2132191
20
10.3185985
11
-4.2100898
21
10.502571
0
LINE
8
layer0
10
-4.2100898
20
10.502571
11
-4.1982149
21
10.7039175
0
LINE
8
layer0
10
-4.1982149
20
10.7039175
11
-4.1760633
21
10.923003
0
LINE
8
layer0
10
-4.1760633
20
10.923003
11
-4.1423027
21
11.1581382
0
LINE
8
layer0
10
-4.1423027
20
11.1581382
11
-4.1005214
21
11.3839938
0
ARC
8
layer0
10
0.0000046
20
-0.0000163
40
12.1
50
106.190949
51
109.8090449
0
LINE
8
layer0
10
-3.3739522
20
11.6200705
11
-3.2073958
21
11.4619079
0
LINE
8
layer0
10
-3.2073958
20
11.4619079
11
-3.0418739
21
11.2915235
0
LINE
8
layer0
10
-3.0418739
20
11.2915235
11
-2.8951777
21
11.1273
0
LINE
8
layer0
10
-2.8951777
20
11.1273
11
-2.7672222
21
10.9713871
0
LINE
8
layer0
10
-2.7672222
20
10.9713871
11
-2.6565542
21
10.8243896
0
LINE
8
layer0
10
-2.6565542
20
10.8243896
11
-2.5628555
21
10.6884537
0
LINE
8
layer0
10
-2.5628555
20
10.6884537
11
-2.4841647
21
10.5634041
0
LINE
8
layer0
10
-2.4841647
20
10.5634041
11
-2.420024
21
10.4513382
0
LINE
8
layer0
10
-2.420024
20
10.4513382
11
-2.3683303
21
10.3515057
0
LINE
8
layer0
10
-2.3683303
20
10.3515057
11
-2.3294287
21
10.2680032
0
LINE
8
layer0
10
-2.3294287
20
10.2680032
11
-2.2811858
21
10.1459777
0
LINE
8
layer0
10
-2.2811858
20
10.1459777
11
-2.2549997
21
10.0579301
0
LINE
8
layer0
10
-2.2549997
20
10.0579301
11
-2.2137484
21
9.9377942
0
LINE
8
layer0
10
-2.2137484
20
9.9377942
11
-2.1671972
21
9.8387875
0
LINE
8
layer0
10
-2.1671972
20
9.8387875
11
-2.1424688
21
9.7972748
0
LINE
8
layer0
10
-2.1424688
20
9.7972748
11
-2.1170478
21
9.7611062
0
LINE
8
layer0
10
-2.1170478
20
9.7611062
11
-2.0911495
21
9.7302983
0
LINE
8
layer0
10
-2.0911495
20
9.7302983
11
-2.0649975
21
9.7048561
0
LINE
8
layer0
10
-2.0649975
20
9.7048561
11
-2.0388008
21
9.6847567
0
LINE
8
layer0
10
-2.0388008
20
9.6847567
11
-2.012763
21
9.6700083
0
LINE
8
layer0
10
-2.012763
20
9.6700083
11
-1.9871032
21
9.6605864
0
LINE
8
layer0
10
-1.9871032
20
9.6605864
11
-1.9620287
21
9.6564581
0
LINE
8
layer0
10
-1.9620287
20
9.6564581
11
-1.9318292
21
9.6587101
0
LINE
8
layer0
10
-1.9318292
20
9.6587101
11
-1.7685965
21
9.6899499
0
LINE
8
layer0
10
-1.7685965
20
9.6899499
11
-1.5408795
21
9.7287302
0
LINE
8
layer0
10
-1.5408795
20
9.7287302
11
-1.312324
21
9.7622164
0
LINE
8
layer0
10
-1.312324
20
9.7622164
11
-1.1474268
21
9.7829472
0
LINE
8
layer0
10
-1.1474268
20
9.7829472
11
-1.1180095
21
9.7901376
0
LINE
8
layer0
10
-1.1180095
20
9.7901376
11
-1.0954379
21
9.8018123
0
LINE
8
layer0
10
-1.0954379
20
9.8018123
11
-1.0739455
21
9.8187024
0
LINE
8
layer0
10
-1.0739455
20
9.8187024
11
-1.0537397
21
9.8407751
0
LINE
8
layer0
10
-1.0537397
20
9.8407751
11
-1.0350361
21
9.867986
0
LINE
8
layer0
10
-1.0350361
20
9.867986
11
-1.0180261
21
9.9002643
0
LINE
8
layer0
10
-1.0180261
20
9.9002643
11
-1.0029156
21
9.9375674
0
LINE
8
layer0
10
-1.0029156
20
9.9375674
11
-0.9899155
21
9.9798213
0
LINE
8
layer0
10
-0.9899155
20
9.9798213
11
-0.9792255
21
10.0269437
0
LINE
8
layer0
10
-0.9792255
20
10.0269437
11
-0.9655474
21
10.1354898
0
LINE
8
layer0
10
-0.9655474
20
10.1354898
11
-0.9634392
21
10.2624932
0
LINE
8
layer0
10
-0.9634392
20
10.2624932
11
-0.9657429
21
10.3543234
0
LINE
8
layer0
10
-0.9657429
20
10.3543234
11
-0.9575691
21
10.4852844
0
LINE
8
layer0
10
-0.9575691
20
10.4852844
11
-0.9463752
21
10.5767213
0
LINE
8
layer0
10
-0.9463752
20
10.5767213
11
-0.9280615
21
10.6876418
0
LINE
8
layer0
10
-0.9280615
20
10.6876418
11
-0.9016904
21
10.8140434
0
LINE
8
layer0
10
-0.9016904
20
10.8140434
11
-0.8654934
21
10.9572894
0
LINE
8
layer0
10
-0.8654934
20
10.9572894
11
-0.8183872
21
11.1155266
0
LINE
8
layer0
10
-0.8183872
20
11.1155266
11
-0.7585604
21
11.2895278
0
LINE
8
layer0
10
-0.7585604
20
11.2895278
11
-0.6850472
21
11.4773502
0
LINE
8
layer0
10
-0.6850472
20
11.4773502
11
-0.5962786
21
11.6788677
0
LINE
8
layer0
10
-0.5962786
20
11.6788677
11
-0.4915097
21
11.892062
0
LINE
8
layer0
10
-0.4915097
20
11.892062
11
-0.38198
21
12.0939523
0
ARC
8
layer0
10
0
20
-0.0000169
40
12.1
50
88.1909517
51
91.8090478
0
LINE
8
layer0
10
0.38198
20
12.0939523
11
0.4915097
21
11.892062
0
LINE
8
layer0
10
0.4915097
20
11.892062
11
0.5962786
21
11.6788677
0
LINE
8
layer0
10
0.5962786
20
11.6788677
11
0.6850472
21
11.4773502
0
LINE
8
layer0
10
0.6850472
20
11.4773502
11
0.7585604
21
11.2895278
0
LINE
8
layer0
10
0.7585604
20
11.2895278
11
0.8183872
21
11.1155266
0
LINE
8
layer0
10
0.8183872
20
11.1155266
11
0.8654934
21
10.9572894
0
LINE
8
layer0
10
0.8654934
20
10.9572894
11
0.9016904
21
10.8140434
0
LINE
8
layer0
10
0.9016904
20
10.8140434
11
0.9280615
21
10.6876418
0
LINE
8
layer0
10
0.9280615
20
10.6876418
11
0.9463752
21
10.5767213
0
LINE
8
layer0
10
0.9463752
20
10.5767213
11
0.9575691
21
10.4852844
0
LINE
8
layer0
10
0.9575691
20
10.4852844
11
0.9657429
21
10.3543234
0
LINE
8
layer0
10
0.9657429
20
10.3543234
11
0.9634392
21
10.2624932
0
LINE
8
layer0
10
0.9634392
20
10.2624932
11
0.9655474
21
10.1354898
0
LINE
8
layer0
10
0.9655474
20
10.1354898
11
0.9792255
21
10.0269437
0
LINE
8
layer0
10
0.9792255
20
10.0269437
11
0.9899155
21
9.9798213
0
LINE
8
layer0
10
0.9899155
20
9.9798213
11
1.0029156
21
9.9375674
0
LINE
8
layer0
10
1.0029156
20
9.9375674
11
1.0180261
21
9.9002643
0
LINE
8
layer0
10
1.0180261
20
9.9002643
11
1.0350361
21
9.867986
0
LINE
8
layer0
10
1.0350361
20
9.867986
11
1.0537397
21
9.8407751
0
LINE
8
layer0
10
1.0537397
20
9.8407751
11
1.0739455
21
9.8187024
0
LINE
8
layer0
10
1.0739455
20
9.8187024
11
1.0954379
21
9.8018123
0
LINE
8
layer0
10
1.0954379
20
9.8018123
11
1.1180095
21
9.7901376
0
LINE
8
layer0
10
1.1180095
20
9.7901376
11
1.1474268
21
9.7829472
0
LINE
8
layer0
10
1.1474268
20
9.7829472
11
1.312324
21
9.7622164
0
LINE
8
layer0
10
1.312324
20
9.7622164
11
1.5408795
21
9.7287302
0
LINE
8
layer0
10
1.5408795
20
9.7287302
11
1.7685965
21
9.6899499
0
LINE
8
layer0
10
1.7685965
20
9.6899499
11
1.9318292
21
9.6587101
0
LINE
8
layer0
10
1.9318292
20
9.6587101
11
1.9620287
21
9.6564581
0
LINE
8
layer0
10
1.9620287
20
9.6564581
11
1.9871032
21
9.6605864
0
LINE
8
layer0
10
1.9871032
20
9.6605864
11
2.012763
21
9.6700083
0
LINE
8
layer0
10
2.012763
20
9.6700083
11
2.0388008
21
9.6847567
0
LINE
8
layer0
10
2.0388008
20
9.6847567
11
2.0649975
21
9.7048561
0
LINE
8
layer0
10
2.0649975
20
9.7048561
11
2.0911495
21
9.7302983
0
LINE
8
layer0
10
2.0911495
20
9.7302983
11
2.1170478
21
9.7611062
0
LINE
8
layer0
10
2.1170478
20
9.7611062
11
2.1424688
21
9.7972748
0
LINE
8
layer0
10
2.1424688
20
9.7972748
11
2.1671972
21
9.8387875
0
LINE
8
layer0
10
2.1671972
20
9.8387875
11
2.2137484
21
9.9377942
0
LINE
8
layer0
10
2.2137484
20
9.9377942
11
2.2549997
21
10.0579301
0
LINE
8
layer0
10
2.2549997
20
10.0579301
11
2.2811858
21
10.1459777
0
LINE
8
layer0
10
2.2811858
20
10.1459777
11
2.3294287
21
10.2680032
0
LINE
8
layer0
10
2.3294287
20
10.2680032
11
2.3683303
21
10.3515057
0
LINE
8
layer0
10
2.3683303
20
10.3515057
11
2.420024
21
10.4513382
0
LINE
8
layer0
10
2.420024
20
10.4513382
11
2.4841647
21
10.5634041
0
LINE
8
layer0
10
2.4841647
20
10.5634041
11
2.5628555
21
10.6884537
0
LINE
8
layer0
10
2.5628555
20
10.6884537
11
2.6565542
21
10.8243896
0
LINE
8
layer0
10
2.6565542
20
10.8243896
11
2.7672222
21
10.9713871
0
LINE
8
layer0
10
2.7672222
20
10.9713871
11
2.8951777
21
11.1273
0
LINE
8
layer0
10
2.8951777
20
11.1273
11
3.0418739
21
11.2915235
0
LINE
8
layer0
10
3.0418739
20
11.2915235
11
3.2073958
21
11.4619079
0
LINE
8
layer0
10
3.2073958
20
11.4619079
11
3.3739522
21
11.6200705
0
ARC
8
layer0
10
-0.0000046
20
-0.0000162
40
12.1
50
70.1909551
51
73.809051
0
LINE
8
layer0
10
4.1005214
20
11.3839938
11
4.1423027
21
11.1581382
0
LINE
8
layer0
10
4.1423027
20
11.1581382
11
4.1760633
21
10.923003
0
LINE
8
layer0
10
4.1760633
20
10.923003
11
4.1982149
21
10.7039175
0
LINE
8
layer0
10
4.1982149
20
10.7039175
11
4.2100898
21
10.502571
0
LINE
8
layer0
10
4.2100898
20
10.502571
11
4.2132191
21
10.3185985
0
LINE
8
layer0
10
4.2132191
20
10.3185985
11
4.2091218
21
10.1535493
0
LINE
8
layer0
10
4.2091218
20
10.1535493
11
4.1992817
21
10.0061288
0
LINE
8
layer0
10
4.1992817
20
10.0061288
11
4.1853019
21
9.8777646
0
LINE
8
layer0
10
4.1853019
20
9.8777646
11
4.1684429
21
9.7666137
0
LINE
8
layer0
10
4.1684429
20
9.7666137
11
4.1508334
21
9.676193
0
LINE
8
layer0
10
4.1508334
20
9.676193
11
4.118138
21
9.5491158
0
LINE
8
layer0
10
4.118138
20
9.5491158
11
4.0875699
21
9.462492
0
LINE
8
layer0
10
4.0875699
20
9.462492
11
4.0503288
21
9.3410531
0
LINE
8
layer0
10
4.0503288
20
9.3410531
11
4.0297948
21
9.2335928
0
LINE
8
layer0
10
4.0297948
20
9.2335928
11
4.0254
21
9.1854733
0
LINE
8
layer0
10
4.0254
20
9.1854733
11
4.0247066
21
9.1412703
0
LINE
8
layer0
10
4.0247066
20
9.1412703
11
4.0275503
21
9.1011235
0
LINE
8
layer0
10
4.0275503
20
9.1011235
11
4.0337532
21
9.0651686
0
LINE
8
layer0
10
4.0337532
20
9.0651686
11
4.0431327
21
9.0335098
0
LINE
8
layer0
10
4.0431327
20
9.0335098
11
4.0555288
21
9.0062735
0
LINE
8
layer0
10
4.0555288
20
9.0062735
11
4.07075
21
8.9835686
0
LINE
8
layer0
10
4.07075
20
8.9835686
11
4.0886091
21
8.9654902
0
LINE
8
layer0
10
4.0886091
20
8.9654902
11
4.1143647
21
8.9495613
0
LINE
8
layer0
10
4.1143647
20
8.9495613
11
4.264785
21
8.8788891
0
LINE
8
layer0
10
4.264785
20
8.8788891
11
4.4718064
21
8.7764143
0
LINE
8
layer0
10
4.4718064
20
8.7764143
11
4.6763944
21
8.6691636
0
LINE
8
layer0
10
4.6763944
20
8.6691636
11
4.8219843
21
8.5890111
0
LINE
8
layer0
10
4.8219843
20
8.5890111
11
4.8500098
21
8.5775372
0
LINE
8
layer0
10
4.8500098
20
8.5775372
11
4.8751328
21
8.573715
0
LINE
8
layer0
10
4.8751328
20
8.573715
11
4.9024483
21
8.5747465
0
LINE
8
layer0
10
4.9024483
20
8.5747465
11
4.9317692
21
8.5807269
0
LINE
8
layer0
10
4.9317692
20
8.5807269
11
4.9628948
21
8.5917473
0
LINE
8
layer0
10
4.9628948
20
8.5917473
11
4.9956289
21
8.6078628
0
LINE
8
layer0
10
4.9956289
20
8.6078628
11
5.0297798
21
8.6291599
0
LINE
8
layer0
10
5.0297798
20
8.6291599
11
5.0651333
21
8.6557027
0
LINE
8
layer0
10
5.0651333
20
8.6557027
11
5.1014796
21
8.6875421
0
LINE
8
layer0
10
5.1014796
20
8.6875421
11
5.1763472
21
8.767318
0
LINE
8
layer0
10
5.1763472
20
8.767318
11
5.2527035
21
8.8688268
0
LINE
8
layer0
10
5.2527035
20
8.8688268
11
5.3048162
21
8.9444731
0
LINE
8
layer0
10
5.3048162
20
8.9444731
11
5.3884059
21
9.0456183
0
LINE
8
layer0
10
5.3884059
20
9.0456183
11
5.4512072
21
9.1130126
0
LINE
8
layer0
10
5.4512072
20
9.1130126
11
5.5312207
21
9.1919847
0
LINE
8
layer0
10
5.5312207
20
9.1919847
11
5.6268524
21
9.2787452
0
LINE
8
layer0
10
5.6268524
20
9.2787452
11
5.7403343
21
9.3733576
0
LINE
8
layer0
10
5.7403343
20
9.3733576
11
5.8714535
21
9.4736858
0
LINE
8
layer0
10
5.8714535
20
9.4736858
11
6.0221297
21
9.5792905
0
LINE
8
layer0
10
6.0221297
20
9.5792905
11
6.1920024
21
9.688032
0
LINE
8
layer0
10
6.1920024
20
9.688032
11
6.3822667
21
9.7988862
0
LINE
8
layer0
10
6.3822667
20
9.7988862
11
6.592339
21
9.9097824
0
LINE
8
layer0
10
6.592339
20
9.9097824
11
6.7996185
21
10.0087352
0
ARC
8
layer0
10
-0.0000101
20
-0.0000135
40
12.1
50
52.1909507
51
55.8090468
0
LINE
8
layer0
10
7.4176752
20
9.5596907
11
7.3876183
21
9.3319781
0
LINE
8
layer0
10
7.3876183
20
9.3319781
11
7.3470657
21
9.0979187
0
LINE
8
layer0
10
7.3470657
20
9.0979187
11
7.300432
21
8.8827107
0
LINE
8
layer0
10
7.300432
20
8.8827107
11
7.2495062
21
8.6875493
0
LINE
8
layer0
10
7.2495062
20
8.6875493
11
7.1956317
21
8.511614
0
LINE
8
layer0
10
7.1956317
20
8.511614
11
7.140732
21
8.3559091
0
LINE
8
layer0
10
7.140732
20
8.3559091
11
7.0858181
21
8.2187445
0
LINE
8
layer0
10
7.0858181
20
8.2187445
11
7.0328558
21
8.100983
0
LINE
8
layer0
10
7.0328558
20
8.100983
11
6.9824744
21
8.0004819
0
LINE
8
layer0
10
6.9824744
20
8.0004819
11
6.9377853
21
7.9199283
0
LINE
8
layer0
10
6.9377853
20
7.9199283
11
6.8674211
21
7.8091742
0
LINE
8
layer0
10
6.8674211
20
7.8091742
11
6.8115808
21
7.7362361
0
LINE
8
layer0
10
6.8115808
20
7.7362361
11
6.7386357
21
7.632249
0
LINE
8
layer0
10
6.7386357
20
7.632249
11
6.6858997
21
7.5363936
0
LINE
8
layer0
10
6.6858997
20
7.5363936
11
6.6668502
21
7.4919873
0
LINE
8
layer0
10
6.6668502
20
7.4919873
11
6.6525313
21
7.4501619
0
LINE
8
layer0
10
6.6525313
20
7.4501619
11
6.6428298
21
7.4111013
0
LINE
8
layer0
10
6.6428298
20
7.4111013
11
6.6376184
21
7.3749894
0
LINE
8
layer0
10
6.6376184
20
7.3749894
11
6.6367558
21
7.3419816
0
LINE
8
layer0
10
6.6367558
20
7.3419816
11
6.6401287
21
7.3122478
0
LINE
8
layer0
10
6.6401287
20
7.3122478
11
6.6475886
21
7.2859505
0
LINE
8
layer0
10
6.6475886
20
7.2859505
11
6.6589872
21
7.2632382
0
LINE
8
layer0
10
6.6589872
20
7.2632382
11
6.6785599
21
7.24013
0
LINE
8
layer0
10
6.6785599
20
7.24013
11
6.7997792
21
7.1264343
0
LINE
8
layer0
10
6.7997792
20
7.1264343
11
6.9650018
21
6.9650018
0
LINE
8
layer0
10
6.9650018
20
6.9650018
11
7.1264343
21
6.7997792
0
LINE
8
layer0
10
7.1264343
20
6.7997792
11
7.24013
21
6.6785599
0
LINE
8
layer0
10
7.24013
20
6.6785599
11
7.2632382
21
6.6589872
0
LINE
8
layer0
10
7.2632382
20
6.6589872
11
7.2859505
21
6.6475886
0
LINE
8
layer0
10
7.2859505
20
6.6475886
11
7.3122478
21
6.6401287
0
LINE
8
layer0
10
7.3122478
20
6.6401287
11
7.3419816
21
6.6367558
0
LINE
8
layer0
10
7.3419816
20
6.6367558
11
7.3749894
21
6.6376184
0
LINE
8
layer0
10
7.3749894
20
6.6376184
11
7.4111013
21
6.6428298
0
LINE
8
layer0
10
7.4111013
20
6.6428298
11
7.4501619
21
6.6525313
0
LINE
8
layer0
10
7.4501619
20
6.6525313
11
7.4919873
21
6.6668502
0
LINE
8
layer0
10
7.4919873
20
6.6668502
11
7.5363936
21
6.6858997
0
LINE
8
layer0
10
7.5363936
20
6.6858997
11
7.632249
21
6.7386357
0
LINE
8
layer0
10
7.632249
20
6.7386357
11
7.7362361
21
6.8115808
0
LINE
8
layer0
10
7.7362361
20
6.8115808
11
7.8091742
21
6.8674211
0
LINE
8
layer0
10
7.8091742
20
6.8674211
11
7.9199283
21
6.9377853
0
LINE
8
layer0
10
7.9199283
20
6.9377853
11
8.0004819
21
6.9824744
0
LINE
8
layer0
10
8.0004819
20
6.9824744
11
8.100983
21
7.0328558
0
LINE
8
layer0
10
8.100983
20
7.0328558
11
8.2187445
21
7.0858181
0
LINE
8
layer0
10
8.2187445
20
7.0858181
11
8.3559091
21
7.140732
0
LINE
8
layer0
10
8.3559091
20
7.140732
11
8.511614
21
7.1956317
0
LINE
8
layer0
10
8.511614
20
7.1956317
11
8.6875493
21
7.2495062
0
LINE
8
layer0
10
8.6875493
20
7.2495062
11
8.8827107
21
7.300432
0
LINE
8
layer0
10
8.8827107
20
7.300432
11
9.0979187
21
7.3470657
0
LINE
8
layer0
10
9.0979187
20
7.3470657
11
9.3319781
21
7.3876183
0
LINE
8
layer0
10
9.3319781
20
7.3876183
11
9.5596907
21
7.4176752
0
ARC
8
layer0
10
-0.0000135
20
-0.0000101
40
12.1
50
34.1909532
51
37.8090493
0
LINE
8
layer0
10
10.0087352
20
6.7996185
11
9.9097824
21
6.592339
0
LINE
8
layer0
10
9.9097824
20
6.592339
11
9.7988862
21
6.3822667
0
LINE
8
layer0
10
9.7988862
20
6.3822667
11
9.688032
21
6.1920024
0
LINE
8
layer0
10
9.688032
20
6.1920024
11
9.5792905
21
6.0221297
0
LINE
8
layer0
10
9.5792905
20
6.0221297
11
9.4736858
21
5.8714535
0
LINE
8
layer0
10
9.4736858
20
5.8714535
11
9.3733576
21
5.7403343
0
LINE
8
layer0
10
9.3733576
20
5.7403343
11
9.2787452
21
5.6268524
0
LINE
8
layer0
10
9.2787452
20
5.6268524
11
9.1919847
21
5.5312207
0
LINE
8
layer0
10
9.1919847
20
5.5312207
11
9.1130126
21
5.4512072
0
LINE
8
layer0
10
9.1130126
20
5.4512072
11
9.0456183
21
5.3884059
0
LINE
8
layer0
10
9.0456183
20
5.3884059
11
8.9444731
21
5.3048162
0
LINE
8
layer0
10
8.9444731
20
5.3048162
11
8.8688268
21
5.2527035
0
LINE
8
layer0
10
8.8688268
20
5.2527035
11
8.767318
21
5.1763472
0
LINE
8
layer0
10
8.767318
20
5.1763472
11
8.6875421
21
5.1014796
0
LINE
8
layer0
10
8.6875421
20
5.1014796
11
8.6557027
21
5.0651333
0
LINE
8
layer0
10
8.6557027
20
5.0651333
11
8.6291599
21
5.0297798
0
LINE
8
layer0
10
8.6291599
20
5.0297798
11
8.6078628
21
4.9956289
0
LINE
8
layer0
10
8.6078628
20
4.9956289
11
8.5917473
21
4.9628948
0
LINE
8
layer0
10
8.5917473
20
4.9628948
11
8.5807269
21
4.9317692
0
LINE
8
layer0
10
8.5807269
20
4.9317692
11
8.5747465
21
4.9024483
0
LINE
8
layer0
10
8.5747465
20
4.9024483
11
8.573715
21
4.8751328
0
LINE
8
layer0
10
8.573715
20
4.8751328
11
8.5775372
21
4.8500098
0
LINE
8
layer0
10
8.5775372
20
4.8500098
11
8.5890111
21
4.8219843
0
LINE
8
layer0
10
8.5890111
20
4.8219843
11
8.6691636
21
4.6763944
0
LINE
8
layer0
10
8.6691636
20
4.6763944
11
8.7764143
21
4.4718064
0
LINE
8
layer0
10
8.7764143
20
4.4718064
11
8.8788891
21
4.264785
0
LINE
8
layer0
10
8.8788891
20
4.264785
11
8.9495613
21
4.1143647
0
LINE
8
layer0
10
8.9495613
20
4.1143647
11
8.9654902
21
4.0886091
0
LINE
8
layer0
10
8.9654902
20
4.0886091
11
8.9835686
21
4.07075
0
LINE
8
layer0
10
8.9835686
20
4.07075
11
9.0062735
21
4.0555288
0
LINE
8
layer0
10
9.0062735
20
4.0555288
11
9.0335098
21
4.0431327
0
LINE
8
layer0
10
9.0335098
20
4.0431327
11
9.0651686
21
4.0337532
0
LINE
8
layer0
10
9.0651686
20
4.0337532
11
9.1011235
21
4.0275503
0
LINE
8
layer0
10
9.1011235
20
4.0275503
11
9.1412703
21
4.0247066
0
LINE
8
layer0
10
9.1412703
20
4.0247066
11
9.1854733
21
4.0254
0
LINE
8
layer0
10
9.1854733
20
4.0254
11
9.2335928
21
4.0297948
0
LINE
8
layer0
10
9.2335928
20
4.0297948
11
9.3410531
21
4.0503288
0
LINE
8
layer0
10
9.3410531
20
4.0503288
11
9.462492
21
4.0875699
0
LINE
8
layer0
10
9.462492
20
4.0875699
11
9.5491158
21
4.118138
0
LINE
8
layer0
10
9.5491158
20
4.118138
11
9.676193
21
4.1508334
0
LINE
8
layer0
10
9.676193
20
4.1508334
11
9.7666137
21
4.1684429
0
LINE
8
layer0
10
9.7666137
20
4.1684429
11
9.8777646
21
4.1853019
0
LINE
8
layer0
10
9.8777646
20
4.1853019
11
10.0061288
21
4.1992817
0
LINE
8
layer0
10
10.0061288
20
4.1992817
11
10.1535493
21
4.2091218
0
LINE
8
layer0
10
10.1535493
20
4.2091218
11
10.3185985
21
4.2132191
0
LINE
8
layer0
10
10.3185985
20
4.2132191
11
10.502571
21
4.2100898
0
LINE
8
layer0
10
10.502571
20
4.2100898
11
10.7039175
21
4.1982149
0
LINE
8
layer0
10
10.7039175
20
4.1982149
11
10.923003
21
4.1760633
0
LINE
8
layer0
10
10.923003
20
4.1760633
11
11.1581382
21
4.1423027
0
LINE
8
layer0
10
11.1581382
20
4.1423027
11
11.3839938
21
4.1005214
0
ARC
8
layer0
10
-0.0000163
20
-0.0000046
40
12.1
50
16.190949
51
19.8090449
0
LINE
8
layer0
10
11.6200705
20
3.3739522
11
11.4619079
21
3.2073958
0
LINE
8
layer1
10
11.4619079
20
3.2073958
11
11.2915235
21
3.0418739
0
LINE
8
layer1
10
11.2915235
20
3.0418739
11
11.1273
21
2.8951777
0
LINE
8
layer1
10
11.1273
20
2.8951777
11
10.9713871
21
2.7672222
0
LINE
8
layer1
10
10.9713871
20
2.7672222
11
10.8243896
21
2.6565542
0
LINE
8
layer1
10
10.8243896
20
2.6565542
11
10.6884537
21
2.5628555
0
LINE
8
layer1
10
10.6884537
20
2.5628555
11
10.5634041
21
2.4841647
0
LINE
8
layer1
10
10.5634041
20
2.4841647
11
10.4513382
21
2.420024
0
LINE
8
layer1
10
10.4513382
20
2.420024
11
10.3515057
21
2.3683303
0
LINE
8
layer1
10
10.3515057
20
2.3683303
11
10.2680032
21
2.3294287
0
LINE
8
layer1
10
10.2680032
20
2.3294287
11
10.1459777
21
2.2811858
0
LINE
8
layer1
10
10.1459777
20
2.2811858
11
10.0579301
21
2.2549997
0
LINE
8
layer1
10
10.0579301
20
2.2549997
11
9.9377942
21
2.2137484
0
LINE
8
layer1
10
9.9377942
20
2.2137484
11
9.8387875
21
2.1671972
0
LINE
8
layer1
10
9.8387875
20
2.1671972
11
9.7972748
21
2.1424688
0
LINE
8
layer1
10
9.7972748
20
2.1424688
11
9.7611062
21
2.1170478
0
LINE
8
layer1
10
9.7611062
20
2.1170478
11
9.7302983
21
2.0911495
0
LINE
8
layer1
10
9.7302983
20
2.0911495
11
9.7048561
21
2.0649975
0
LINE
8
layer1
10
9.7048561
20
2.0649975
11
9.6847567
21
2.0388008
0
LINE
8
layer1
10
9.6847567
20
2.0388008
11
9.6700083
21
2.012763
0
LINE
8
layer1
10
9.6700083
20
2.012763
11
9.6605864
21
1.9871032
0
LINE
8
layer1
10
9.6605864
20
1.9871032
11
9.6564581
21
1.9620287
0
LINE
8
layer1
10
9.6564581
20
1.9620287
11
9.6587101
21
1.9318292
0
LINE
8
layer1
10
9.6587101
20
1.9318292
11
9.6899499
21
1.7685965
0
LINE
8
layer1
10
9.6899499
20
1.7685965
11
9.7287302
21
1.5408795
0
LINE
8
layer1
10
9.7287302
20
1.5408795
11
9.7622164
21
1.312324
0
LINE
8
layer1
10
9.7622164
20
1.312324
11
9.7829472
21
1.1474268
0
LINE
8
layer1
10
9.7829472
20
1.1474268
11
9.7901376
21
1.1180095
0
LINE
8
layer1
10
9.7901376
20
1.1180095
11
9.8018123
21
1.0954379
0
LINE
8
layer1
10
9.8018123
20
1.0954379
11
9.8187024
21
1.0739455
0
LINE
8
layer1
10
9.8187024
20
1.0739455
11
9.8407751
21
1.0537397
0
LINE
8
layer1
10
9.8407751
20
1.0537397
11
9.867986
21
1.0350361
0
LINE
8
layer1
10
9.867986
20
1.0350361
11
9.9002643
21
1.0180261
0
LINE
8
layer1
10
9.9002643
20
1.0180261
11
9.9375674
21
1.0029156
0
LINE
8
layer1
10
9.9375674
20
1.0029156
11
9.9798213
21
0.9899155
0
LINE
8
layer1
10
9.9798213
20
0.9899155
11
10.0269437
21
0.9792255
0
LINE
8
layer1
10
10.0269437
20
0.9792255
11
10.1354898
21
0.9655474
0
LINE
8
layer1
10
10.1354898
20
0.9655474
11
10.2624932
21
0.9634392
0
LINE
8
layer1
10
10.2624932
20
0.9634392
11
10.3543234
21
0.9657429
0
LINE
8
layer1
10
10.3543234
20
0.9657429
11
10.4852844
21
0.9575691
0
LINE
8
layer1
10
10.4852844
20
0.9575691
11
10.5767213
21
0.9463752
0
LINE
8
layer1
10
10.5767213
20
0.9463752
11
10.6876418
21
0.9280615
0
LINE
8
layer1
10
10.6876418
20
0.9280615
11
10.8140434
21
0.9016904
0
LINE
8
layer1
10
10.8140434
20
0.9016904
11
10.9572894
21
0.8654934
0
LINE
8
layer1
10
10.9572894
20
0.8654934
11
11.1155266
21
0.8183872
0
LINE
8
layer1
10
11.1155266
20
0.8183872
11
11.2895278
21
0.7585604
0
LINE
8
layer1
10
11.2895278
20
0.7585604
11
11.4773502
21
0.6850472
0
LINE
8
layer1
10
11.4773502
20
0.6850472
11
11.6788677
21
0.5962786
0
LINE
8
layer1
10
11.6788677
20
0.5962786
11
11.892062
21
0.4915097
0
LINE
8
layer1
10
11.892062
20
0.4915097
11
12.0939523
21
0.38198
0
ARC
8
layer1
10
-0.0000169
20
-1e-7
40
12.1
50
358.1909522
51
361.8090483
0
LINE
8
layer1
10
12.0939523
20
-0.38198
11
11.892062
21
-0.4915097
0
LINE
8
layer1
10
11.892062
20
-0.4915097
11
11.6788677
21
-0.5962786
0
LINE
8
layer1
10
11.6788677
20
-0.5962786
11
11.4773502
21
-0.6850472
0
LINE
8
layer1
10
11.4773502
20
-0.6850472
11
11.2895278
21
-0.7585604
0
LINE
8
layer1
10
11.2895278
20
-0.7585604
11
11.1155266
21
-0.8183872
0
LINE
8
layer1
10
11.1155266
20
-0.8183872
11
10.9572894
21
-0.8654934
0
LINE
8
layer1
10
10.9572894
20
-0.8654934
11
10.8140434
21
-0.9016904
0
LINE
8
layer1
10
10.8140434
20
-0.9016904
11
10.6876418
21
-0.9280615
0
LINE
8
layer1
10
10.6876418
20
-0.9280615
11
10.5767213
21
-0.9463752
0
LINE
8
layer1
10
10.5767213
20
-0.9463752
11
10.4852844
21
-0.9575691
0
LINE
8
layer1
10
10.4852844
20
-0.9575691
11
10.3543234
21
-0.9657429
0
LINE
8
layer1
10
10.3543234
20
-0.9657429
11
10.2624932
21
-0.9634392
0
LINE
8
layer1
10
10.2624932
20
-0.9634392
11
10.1354898
21
-0.9655474
0
LINE
8
layer1
10
10.1354898
20
-0.9655474
11
10.0269437
21
-0.9792255
0
LINE
8
layer1
10
10.0269437
20
-0.9792255
11
9.9798213
21
-0.9899155
0
LINE
8
layer1
10
9.9798213
20
-0.9899155
11
9.9375674
21
-1.0029156
0
LINE
8
layer1
10
9.9375674
20
-1.0029156
11
9.9002643
21
-1.0180261
0
LINE
8
layer1
10
9.9002643
20
-1.0180261
11
9.867986
21
-1.0350361
0
LINE
8
layer1
10
9.867986
20
-1.0350361
11
9.8407751
21
-1.0537397
0
LINE
8
layer1
10
9.8407751
20
-1.0537397
11
9.8187024
21
-1.0739455
0
LINE
8
layer1
10
9.8187024
20
-1.0739455
11
9.8018123
21
-1.0954379
0
LINE
8
layer1
10
9.8018123
20
-1.0954379
11
9.7901376
21
-1.1180095
0
LINE
8
layer1
10
9.7901376
20
-1.1180095
11
9.7829472
21
-1.1474268
0
LINE
8
layer1
10
9.7829472
20
-1.1474268
11
9.7622164
21
-1.312324
0
LINE
8
layer1
10
9.7622164
20
-1.312324
11
9.7287302
21
-1.5408795
0
LINE
8
layer1
10
9.7287302
20
-1.5408795
11
9.6899499
21
-1.7685965
0
LINE
8
layer1
10
9.6899499
20
-1.7685965
11
9.6587101
21
-1.9318292
0
LINE
8
layer1
10
9.6587101
20
-1.9318292
11
9.6564581
21
-1.9620287
0
LINE
8
layer1
10
9.6564581
20
-1.9620287
11
9.6605864
21
-1.9871032
0
LINE
8
layer1
10
9.6605864
20
-1.9871032
11
9.6700083
21
-2.012763
0
LINE
8
layer1
10
9.6700083
20
-2.012763
11
9.6847567
21
-2.0388008
0
LINE
8
layer1
10
9.6847567
20
-2.0388008
11
9.7048561
21
-2.0649975
0
LINE
8
layer1
10
9.7048561
20
-2.0649975
11
9.7302983
21
-2.0911495
0
LINE
8
layer1
10
9.7302983
20
-2.0911495
11
9.7611062
21
-2.1170478
0
LINE
8
layer1
10
9.7611062
20
-2.1170478
11
9.7972748
21
-2.1424688
0
LINE
8
layer1
10
9.7972748
20
-2.1424688
11
9.8387875
21
-2.1671972
0
LINE
8
layer1
10
9.8387875
20
-2.1671972
11
9.9377942
21
-2.2137484
0
LINE
8
layer1
10
9.9377942
20
-2.2137484
11
10.0579301
21
-2.2549997
0
LINE
8
layer1
10
10.0579301
20
-2.2549997
11
10.1459777
21
-2.2811858
0
LINE
8
layer1
10
10.1459777
20
-2.2811858
11
10.2680032
21
-2.3294287
0
LINE
8
layer1
10
10.2680032
20
-2.3294287
11
10.3515057
21
-2.3683303
0
LINE
8
layer1
10
10.3515057
20
-2.3683303
11
10.4513382
21
-2.420024
0
LINE
8
layer1
10
10.4513382
20
-2.420024
11
10.5634041
21
-2.4841647
0
LINE
8
layer1
10
10.5634041
20
-2.4841647
11
10.6884537
21
-2.5628555
0
LINE
8
layer1
10
10.6884537
20
-2.5628555
11
10.8243896
21
-2.6565542
0
LINE
8
layer1
10
10.8243896
20
-2.6565542
11
10.9713871
21
-2.7672222
0
LINE
8
layer1
10
10.9713871
20
-2.7672222
11
11.1273
21
-2.8951777
0
LINE
8
layer1
10
11.1273
20
-2.8951777
11
11.2915235
21
-3.0418739
0
LINE
8
layer1
10
11.2915235
20
-3.0418739
11
11.4619079
21
-3.2073958
0
LINE
8
layer1
10
11.4619079
20
-3.2073958
11
11.6200705
21
-3.3739522
0
ARC
8
layer1
10
-0.0000162
20
0.0000046
40
12.1
50
340.1909551
51
343.809051
0
LINE
8
layer1
10
11.3839938
20
-4.1005214
11
11.1581382
21
-4.1423027
0
LINE
8
layer1
10
11.1581382
20
-4.1423027
11
10.923003
21
-4.1760633
0
LINE
8
layer1
10
10.923003
20
-4.1760633
11
10.7039175
21
-4.1982149
0
LINE
8
layer1
10
10.7039175
20
-4.1982149
11
10.502571
21
-4.2100898
0
LINE
8
layer1
10
10.502571
20
-4.2100898
11
10.3185985
21
-4.2132191
0
LINE
8
layer1
10
10.3185985
20
-4.2132191
11
10.1535493
21
-4.2091218
0
LINE
8
layer1
10
10.1535493
20
-4.2091218
11
10.0061288
21
-4.1992817
0
LINE
8
layer1
10
10.0061288
20
-4.1992817
11
9.8777646
21
-4.1853019
0
LINE
8
layer1
10
9.8777646
20
-4.1853019
11
9.7666137
21
-4.1684429
0
LINE
8
layer1
10
9.7666137
20
-4.1684429
11
9.676193
21
-4.1508334
0
LINE
8
layer1
10
9.676193
20
-4.1508334
11
9.5491158
21
-4.118138
0
LINE
8
layer1
10
9.5491158
20
-4.118138
11
9.462492
21
-4.0875699
0
LINE
8
layer1
10
9.462492
20
-4.0875699
11
9.3410531
21
-4.0503288
0
LINE
8
layer1
10
9.3410531
20
-4.0503288
11
9.2335928
21
-4.0297948
0
LINE
8
layer1
10
9.2335928
20
-4.0297948
11
9.1854733
21
-4.0254
0
LINE
8
layer1
10
9.1854733
20
-4.0254
11
9.1412703
21
-4.0247066
0
LINE
8
layer1
10
9.1412703
20
-4.0247066
11
9.1011235
21
-4.0275503
0
LINE
8
layer1
10
9.1011235
20
-4.0275503
11
9.0651686
21
-4.0337532
0
LINE
8
layer1
10
9.0651686
20
-4.0337532
11
9.0335098
21
-4.0431327
0
LINE
8
layer1
10
9.0335098
20
-4.0431327
11
9.0062735
21
-4.0555288
0
LINE
8
layer1
10
9.0062735
20
-4.0555288
11
8.9835686
21
-4.07075
0
LINE
8
layer1
10
8.9835686
20
-4.07075
11
8.9654902
21
-4.0886091
0
LINE
8
layer1
10
8.9654902
20
-4.0886091
11
8.9495613
21
-4.1143647
0
LINE
8
layer1
10
8.9495613
20
-4.1143647
11
8.8788891
21
-4.264785
0
LINE
8
layer1
10
8.8788891
20
-4.264785
11
8.7764143
21
-4.4718064
0
LINE
8
layer1
10
8.7764143
20
-4.4718064
11
8.6691636
21
-4.6763944
0
LINE
8
layer1
10
8.6691636
20
-4.6763944
11
8.5890111
21
-4.8219843
0
LINE
8
layer1
10
8.5890111
20
-4.8219843
11
8.5775372
21
-4.8500098
0
LINE
8
layer1
10
8.5775372
20
-4.8500098
11
8.573715
21
-4.8751328
0
LINE
8
layer1
10
8.573715
20
-4.8751328
11
8.5747465
21
-4.9024483
0
LINE
8
layer1
10
8.5747465
20
-4.9024483
11
8.5807269
21
-4.9317692
0
LINE
8
layer1
10
8.5807269
20
-4.9317692
11
8.5917473
21
-4.9628948
0
LINE
8
layer1
10
8.5917473
20
-4.9628948
11
8.6078628
21
-4.9956289
0
LINE
8
layer1
10
8.6078628
20
-4.9956289
11
8.6291599
21
-5.0297798
0
LINE
8
layer1
10
8.6291599
20
-5.0297798
11
8.6557027
21
-5.0651333
0
LINE
8
layer1
10
8.6557027
20
-5.0651333
11
8.6875421
21
-5.1014796
0
LINE
8
layer1
10
8.6875421
20
-5.1014796
11
8.767318
21
-5.1763472
0
LINE
8
layer1
10
8.767318
20
-5.1763472
11
8.8688268
21
-5.2527035
0
LINE
8
layer1
10
8.8688268
20
-5.2527035
11
8.9444731
21
-5.3048162
0
LINE
8
layer1
10
8.9444731
20
-5.3048162
11
9.0456183
21
-5.3884059
0
LINE
8
layer1
10
9.0456183
20
-5.3884059
11
9.1130126
21
-5.4512072
0
LINE
8
layer1
10
9.1130126
20
-5.4512072
11
9.1919847
21
-5.5312207
0
LINE
8
layer1
10
9.1919847
20
-5.5312207
11
9.2787452
21
-5.6268524
0
LINE
8
layer1
10
9.2787452
20
-5.6268524
11
9.3733576
21
-5.7403343
0
LINE
8
layer1
10
9.3733576
20
-5.7403343
11
9.4736858
21
-5.8714535
0
LINE
8
layer1
10
9.4736858
20
-5.8714535
11
9.5792905
21
-6.0221297
0
LINE
8
layer1
10
9.5792905
20
-6.0221297
11
9.688032
21
-6.1920024
0
LINE
8
layer1
10
9.688032
20
-6.1920024
11
9.7988862
21
-6.3822667
0
LINE
8
layer1
10
9.7988862
20
-6.3822667
11
9.9097824
21
-6.592339
0
LINE
8
layer1
10
9.9097824
20
-6.592339
11
10.0087352
21
-6.7996185
0
ARC
8
layer1
10
-0.0000135
20
0.0000101
40
12.1
50
322.1909507
51
325.8090468
0
LINE
8
layer1
10
9.5596907
20
-7.4176752
11
9.3319781
21
-7.3876183
0
LINE
8
layer1
10
9.3319781
20
-7.3876183
11
9.0979187
21
-7.3470657
0
LINE
8
layer1
10
9.0979187
20
-7.3470657
11
8.8827107
21
-7.300432
0
LINE
8
layer1
10
8.8827107
20
-7.300432
11
8.6875493
21
-7.2495062
0
LINE
8
layer1
10
8.6875493
20
-7.2495062
11
8.511614
21
-7.1956317
0
LINE
8
layer1
10
8.511614
20
-7.1956317
11
8.3559091
21
-7.140732
0
LINE
8
layer1
10
8.3559091
20
-7.140732
11
8.2187445
21
-7.0858181
0
LINE
8
layer1
10
8.2187445
20
-7.0858181
11
8.100983
21
-7.0328558
0
LINE
8
layer1
10
8.100983
20
-7.0328558
11
8.0004819
21
-6.9824744
0
LINE
8
layer1
10
8.0004819
20
-6.9824744
11
7.9199283
21
-6.9377853
0
LINE
8
layer1
10
7.9199283
20
-6.9377853
11
7.8091742
21
-6.8674211
0
LINE
8
layer1
10
7.8091742
20
-6.8674211
11
7.7362361
21
-6.8115808
0
LINE
8
layer1
10
7.7362361
20
-6.8115808
11
7.632249
21
-6.7386357
0
LINE
8
layer1
10
7.632249
20
-6.7386357
11
7.5363936
21
-6.6858997
0
LINE
8
layer1
10
7.5363936
20
-6.6858997
11
7.4919873
21
-6.6668502
0
LINE
8
layer1
10
7.4919873
20
-6.6668502
11
7.4501619
21
-6.6525313
0
LINE
8
layer1
10
7.4501619
20
-6.6525313
11
7.4111013
21
-6.6428298
0
LINE
8
layer1
10
7.4111013
20
-6.6428298
11
7.3749894
21
-6.6376184
0
LINE
8
layer1
10
7.3749894
20
-6.6376184
11
7.3419816
21
-6.6367558
0
LINE
8
layer1
10
7.3419816
20
-6.6367558
11
7.3122478
21
-6.6401287
0
LINE
8
layer1
10
7.3122478
20
-6.6401287
11
7.2859505
21
-6.6475886
0
LINE
8
layer1
10
7.2859505
20
-6.6475886
11
7.2632382
21
-6.6589872
0
LINE
8
layer1
10
7.2632382
20
-6.6589872
11
7.24013
21
-6.6785599
0
LINE
8
layer1
10
7.24013
20
-6.6785599
11
7.1264343
21
-6.7997792
0
LINE
8
layer1
10
7.1264343
20
-6.7997792
11
6.9650018
21
-6.9650018
0
LINE
8
layer1
10
6.9650018
20
-6.9650018
11
6.7997792
21
-7.1264343
0
LINE
8
layer1
10
6.7997792
20
-7.1264343
11
6.6785599
21
-7.24013
0
LINE
8
layer1
10
6.6785599
20
-7.24013
11
6.6589872
21
-7.2632382
0
LINE
8
layer1
10
6.6589872
20
-7.2632382
11
6.6475886
21
-7.2859505
0
LINE
8
layer1
10
6.6475886
20
-7.2859505
11
6.6401287
21
-7.3122478
0
LINE
8
layer1
10
6.6401287
20
-7.3122478
11
6.6367558
21
-7.3419816
0
LINE
8
layer1
10
6.6367558
20
-7.3419816
11
6.6376184
21
-7.3749894
0
LINE
8
layer1
10
6.6376184
20
-7.3749894
11
6.6428298
21
-7.4111013
0
LINE
8
layer1
10
6.6428298
20
-7.4111013
11
6.6525313
21
-7.4501619
0
LINE
8
layer1
10
6.6525313
20
-7.4501619
11
6.6668502
21
-7.4919873
0
LINE
8
layer1
10
6.6668502
20
-7.4919873
11
6.6858997
21
-7.5363936
0
LINE
8
layer1
10
6.6858997
20
-7.5363936
11
6.7386357
21
-7.632249
0
LINE
8
layer1
10
6.7386357
20
-7.632249
11
6.8115808
21
-7.7362361
0
LINE
8
layer1
10
6.8115808
20
-7.7362361
11
6.8674211
21
-7.8091742
0
LINE
8
layer1
10
6.8674211
20
-7.8091742
11
6.9377853
21
-7.9199283
0
LINE
8
layer1
10
6.9377853
20
-7.9199283
11
6.9824744
21
-8.0004819
0
LINE
8
layer1
10
6.9824744
20
-8.0004819
11
7.0328558
21
-8.100983
0
LINE
8
layer1
10
7.0328558
20
-8.100983
11
7.0858181
21
-8.2187445
0
LINE
8
layer1
10
7.0858181
20
-8.2187445
11
7.140732
21
-8.3559091
0
LINE
8
layer1
10
7.140732
20
-8.3559091
11
7.1956317
21
-8.511614
0
LINE
8
layer1
10
7.1956317
20
-8.511614
11
7.2495062
21
-8.6875493
0
LINE
8
layer1
10
7.2495062
20
-8.6875493
11
7.300432
21
-8.8827107
0
LINE
8
layer1
10
7.300432
20
-8.8827107
11
7.3470657
21
-9.0979187
0
LINE
8
layer1
10
7.3470657
20
-9.0979187
11
7.3876183
21
-9.3319781
0
LINE
8
layer1
10
7.3876183
20
-9.3319781
11
7.4176752
21
-9.5596907
0
ARC
8
layer1
10
-0.0000101
20
0.0000135
40
12.1
50
304.1909532
51
307.8090493
0
LINE
8
layer1
10
6.7996185
20
-10.0087352
11
6.592339
21
-9.9097824
0
LINE
8
layer1
10
6.592339
20
-9.9097824
11
6.3822667
21
-9.7988862
0
LINE
8
layer1
10
6.3822667
20
-9.7988862
11
6.1920024
21
-9.688032
0
LINE
8
layer1
10
6.1920024
20
-9.688032
11
6.0221297
21
-9.5792905
0
LINE
8
layer1
10
6.0221297
20
-9.5792905
11
5.8714535
21
-9.4736858
0
LINE
8
layer1
10
5.8714535
20
-9.4736858
11
5.7403343
21
-9.3733576
0
LINE
8
layer1
10
5.7403343
20
-9.3733576
11
5.6268524
21
-9.2787452
0
LINE
8
layer1
10
5.6268524
20
-9.2787452
11
5.5312207
21
-9.1919847
0
LINE
8
layer1
10
5.5312207
20
-9.1919847
11
5.4512072
21
-9.1130126
0
LINE
8
layer1
10
5.4512072
20
-9.1130126
11
5.3884059
21
-9.0456183
0
LINE
8
layer1
10
5.3884059
20
-9.0456183
11
5.3048162
21
-8.9444731
0
LINE
8
layer1
10
5.3048162
20
-8.9444731
11
5.2527035
21
-8.8688268
0
LINE
8
layer1
10
5.2527035
20
-8.8688268
11
5.1763472
21
-8.767318
0
LINE
8
layer1
10
5.1763472
20
-8.767318
11
5.1014796
21
-8.6875421
0
LINE
8
layer1
10
5.1014796
20
-8.6875421
11
5.0651333
21
-8.6557027
0
LINE
8
layer1
10
5.0651333
20
-8.6557027
11
5.0297798
21
-8.6291599
0
LINE
8
layer1
10
5.0297798
20
-8.6291599
11
4.9956289
21
-8.6078628
0
LINE
8
layer1
10
4.9956289
20
-8.6078628
11
4.9628948
21
-8.5917473
0
LINE
8
layer1
10
4.9628948
20
-8.5917473
11
4.9317692
21
-8.5807269
0
LINE
8
layer1
10
4.9317692
20
-8.5807269
11
4.9024483
21
-8.5747465
0
LINE
8
layer1
10
4.9024483
20
-8.5747465
11
4.8751328
21
-8.573715
0
LINE
8
layer1
10
4.8751328
20
-8.573715
11
4.8500098
21
-8.5775372
0
LINE
8
layer1
10
4.8500098
20
-8.5775372
11
4.8219843
21
-8.5890111
0
LINE
8
layer1
10
4.8219843
20
-8.5890111
11
4.6763944
21
-8.6691636
0
LINE
8
layer1
10
4.6763944
20
-8.6691636
11
4.4718064
21
-8.7764143
0
LINE
8
layer1
10
4.4718064
20
-8.7764143
11
4.264785
21
-8.8788891
0
LINE
8
layer1
10
4.264785
20
-8.8788891
11
4.1143647
21
-8.9495613
0
LINE
8
layer1
10
4.1143647
20
-8.9495613
11
4.0886091
21
-8.9654902
0
LINE
8
layer1
10
4.0886091
20
-8.9654902
11
4.07075
21
-8.9835686
0
LINE
8
layer1
10
4.07075
20
-8.9835686
11
4.0555288
21
-9.0062735
0
LINE
8
layer1
10
4.0555288
20
-9.0062735
11
4.0431327
21
-9.0335098
0
LINE
8
layer1
10
4.0431327
20
-9.0335098
11
4.0337532
21
-9.0651686
0
LINE
8
layer1
10
4.0337532
20
-9.0651686
11
4.0275503
21
-9.1011235
0
LINE
8
layer1
10
4.0275503
20
-9.1011235
11
4.0247066
21
-9.1412703
0
LINE
8
layer1
10
4.0247066
20
-9.1412703
11
4.0254
21
-9.1854733
0
LINE
8
layer1
10
4.0254
20
-9.1854733
11
4.0297948
21
-9.2335928
0
LINE
8
layer1
10
4.0297948
20
-9.2335928
11
4.0503288
21
-9.3410531
0
LINE
8
layer1
10
4.0503288
20
-9.3410531
11
4.0875699
21
-9.462492
0
LINE
8
layer1
10
4.0875699
20
-9.462492
11
4.118138
21
-9.5491158
0
LINE
8
layer1
10
4.118138
20
-9.5491158
11
4.1508334
21
-9.676193
0
LINE
8
layer1
10
4.1508334
20
-9.676193
11
4.1684429
21
-9.7666137
0
LINE
8
layer1
10
4.1684429
20
-9.7666137
11
4.1853019
21
-9.8777646
0
LINE
8
layer1
10
4.1853019
20
-9.8777646
11
4.1992817
21
-10.0061288
0
LINE
8
layer1
10
4.1992817
20
-10.0061288
11
4.2091218
21
-10.1535493
0
LINE
8
layer1
10
4.2091218
20
-10.1535493
11
4.2132191
21
-10.3185985
0
LINE
8
layer1
10
4.2132191
20
-10.3185985
11
4.2100898
21
-10.502571
0
LINE
8
layer1
10
4.2100898
20
-10.502571
11
4.1982149
21
-10.7039175
0
LINE
8
layer1
10
4.1982149
20
-10.7039175
11
4.1760633
21
-10.923003
0
LINE
8
layer1
10
4.1760633
20
-10.923003
11
4.1423027
21
-11.1581382
0
LINE
8
layer1
10
4.1423027
20
-11.1581382
11
4.1005214
21
-11.3839938
0
ARC
8
layer1
10
-0.0000046
20
0.0000163
40
12.1
50
286.190949
51
289.8090449
0
LINE
8
layer1
10
3.3739522
20
-11.6200705
11
3.2073958
21
-11.4619079
0
LINE
8
layer1
10
3.2073958
20
-11.4619079
11
3.0418739
21
-11.2915235
0
LINE
8
layer1
10
3.0418739
20
-11.2915235
11
2.8951777
21
-11.1273
0
LINE
8
layer1
10
2.8951777
20
-11.1273
11
2.7672222
21
-10.9713871
0
LINE
8
layer1
10
2.7672222
20
-10.9713871
11
2.6565542
21
-10.8243896
0
LINE
8
layer1
10
2.6565542
20
-10.8243896
11
2.5628555
21
-10.6884537
0
LINE
8
layer1
10
2.5628555
20
-10.6884537
11
2.4841647
21
-10.5634041
0
LINE
8
layer1
10
2.4841647
20
-10.5634041
11
2.420024
21
-10.4513382
0
LINE
8
layer1
10
2.420024
20
-10.4513382
11
2.3683303
21
-10.3515057
0
LINE
8
layer1
10
2.3683303
20
-10.3515057
11
2.3294287
21
-10.2680032
0
LINE
8
layer1
10
2.3294287
20
-10.2680032
11
2.2811858
21
-10.1459777
0
LINE
8
layer1
10
2.2811858
20
-10.1459777
11
2.2549997
21
-10.0579301
0
LINE
8
layer1
10
2.2549997
20
-10.0579301
11
2.2137484
21
-9.9377942
0
LINE
8
layer1
10
2.2137484
20
-9.9377942
11
2.1671972
21
-9.8387875
0
LINE
8
layer1
10
2.1671972
20
-9.8387875
11
2.1424688
21
-9.7972748
0
LINE
8
layer1
10
2.1424688
20
-9.7972748
11
2.1170478
21
-9.7611062
0
LINE
8
layer1
10
2.1170478
20
-9.7611062
11
2.0911495
21
-9.7302983
0
LINE
8
layer1
10
2.0911495
20
-9.7302983
11
2.0649975
21
-9.7048561
0
LINE
8
layer1
10
2.0649975
20
-9.7048561
11
2.0388008
21
-9.6847567
0
LINE
8
layer1
10
2.0388008
20
-9.6847567
11
2.012763
21
-9.6700083
0
LINE
8
layer1
10
2.012763
20
-9.6700083
11
1.9871032
21
-9.6605864
0
LINE
8
layer1
10
1.9871032
20
-9.6605864
11
1.9620287
21
-9.6564581
0
LINE
8
layer1
10
1.9620287
20
-9.6564581
11
1.9318292
21
-9.6587101
0
LINE
8
layer1
10
1.9318292
20
-9.6587101
11
1.7685965
21
-9.6899499
0
LINE
8
layer1
10
1.7685965
20
-9.6899499
11
1.5408795
21
-9.7287302
0
LINE
8
layer1
10
1.5408795
20
-9.7287302
11
1.312324
21
-9.7622164
0
LINE
8
layer1
10
1.312324
20
-9.7622164
11
1.1474268
21
-9.7829472
0
LINE
8
layer1
10
1.1474268
20
-9.7829472
11
1.1180095
21
-9.7901376
0
LINE
8
layer1
10
1.1180095
20
-9.7901376
11
1.0954379
21
-9.8018123
0
LINE
8
layer1
10
1.0954379
20
-9.8018123
11
1.0739455
21
-9.8187024
0
LINE
8
layer1
10
1.0739455
20
-9.8187024
11
1.0537397
21
-9.8407751
0
LINE
8
layer1
10
1.0537397
20
-9.8407751
11
1.0350361
21
-9.867986
0
LINE
8
layer1
10
1.0350361
20
-9.867986
11
1.0180261
21
-9.9002643
0
LINE
8
layer1
10
1.0180261
20
-9.9002643
11
1.0029156
21
-9.9375674
0
LINE
8
layer1
10
1.0029156
20
-9.9375674
11
0.9899155
21
-9.9798213
0
LINE
8
layer1
10
0.9899155
20
-9.9798213
11
0.9792255
21
-10.0269437
0
LINE
8
layer1
10
0.9792255
20
-10.0269437
11
0.9655474
21
-10.1354898
0
LINE
8
layer1
10
0.9655474
20
-10.1354898
11
0.9634392
21
-10.2624932
0
LINE
8
layer1
10
0.9634392
20
-10.2624932
11
0.9657429
21
-10.3543234
0
LINE
8
layer1
10
0.9657429
20
-10.3543234
11
0.9575691
21
-10.4852844
0
LINE
8
layer1
10
0.9575691
20
-10.4852844
11
0.9463752
21
-10.5767213
0
LINE
8
layer1
10
0.9463752
20
-10.5767213
11
0.9280615
21
-10.6876418
0
LINE
8
layer1
10
0.9280615
20
-10.6876418
11
0.9016904
21
-10.8140434
0
LINE
8
layer1
10
0.9016904
20
-10.8140434
11
0.8654934
21
-10.9572894
0
LINE
8
layer1
10
0.8654934
20
-10.9572894
11
0.8183872
21
-11.1155266
0
LINE
8
layer1
10
0.8183872
20
-11.1155266
11
0.7585604
21
-11.2895278
0
LINE
8
layer1
10
0.7585604
20
-11.2895278
11
0.6850472
21
-11.4773502
0
LINE
8
layer1
10
0.6850472
20
-11.4773502
11
0.5962786
21
-11.6788677
0
LINE
8
layer1
10
0.5962786
20
-11.6788677
11
0.4915097
21
-11.892062
0
LINE
8
layer1
10
0.4915097
20
-11.892062
11
0.38198
21
-12.0939523
0
ARC
8
layer1
10
-1e-7
20
0.0000169
40
12.1
50
268.1909522
51
271.8090483
0
LINE
8
layer1
10
-0.38198
20
-12.0939523
11
-0.4915097
21
-11.892062
0
LINE
8
layer1
10
-0.4915097
20
-11.892062
11
-0.5962786
21
-11.6788677
0
LINE
8
layer1
10
-0.5962786
20
-11.6788677
11
-0.6850472
21
-11.4773502
0
LINE
8
layer1
10
-0.6850472
20
-11.4773502
11
-0.7585604
21
-11.2895278
0
LINE
8
layer1
10
-0.7585604
20
-11.2895278
11
-0.8183872
21
-11.1155266
0
LINE
8
layer1
10
-0.8183872
20
-11.1155266
11
-0.8654934
21
-10.9572894
0
LINE
8
layer1
10
-0.8654934
20
-10.9572894
11
-0.9016904
21
-10.8140434
0
LINE
8
layer1
10
-0.9016904
20
-10.8140434
11
-0.9280615
21
-10.6876418
0
LINE
8
layer1
10
-0.9280615
20
-10.6876418
11
-0.9463752
21
-10.5767213
0
LINE
8
layer1
10
-0.9463752
20
-10.5767213
11
-0.9575691
21
-10.4852844
0
LINE
8
layer1
10
-0.9575691
20
-10.4852844
11
-0.9657429
21
-10.3543234
0
LINE
8
layer1
10
-0.9657429
20
-10.3543234
11
-0.9634392
21
-10.2624932
0
LINE
8
layer1
10
-0.9634392
20
-10.2624932
11
-0.9655474
21
-10.1354898
0
LINE
8
layer1
10
-0.9655474
20
-10.1354898
11
-0.9792255
21
-10.0269437
0
LINE
8
layer1
10
-0.9792255
20
-10.0269437
11
-0.9899155
21
-9.9798213
0
LINE
8
layer1
10
-0.9899155
20
-9.9798213
11
-1.0029156
21
-9.9375674
0
LINE
8
layer1
10
-1.0029156
20
-9.9375674
11
-1.0180261
21
-9.9002643
0
LINE
8
layer1
10
-1.0180261
20
-9.9002643
11
-1.0350361
21
-9.867986
0
LINE
8
layer1
10
-1.0350361
20
-9.867986
11
-1.0537397
21
-9.8407751
0
LINE
8
layer1
10
-1.0537397
20
-9.8407751
11
-1.0739455
21
-9.8187024
0
LINE
8
layer1
10
-1.0739455
20
-9.8187024
11
-1.0954379
21
-9.8018123
0
LINE
8
layer1
10
-1.0954379
20
-9.8018123
11
-1.1180095
21
-9.7901376
0
LINE
8
layer1
10
-1.1180095
20
-9.7901376
11
-1.1474268
21
-9.7829472
0
LINE
8
layer1
10
-1.1474268
20
-9.7829472
11
-1.312324
21
-9.7622164
0
LINE
8
layer1
10
-1.312324
20
-9.7622164
11
-1.5408795
21
-9.7287302
0
LINE
8
layer1
10
-1.5408795
20
-9.7287302
11
-1.7685965
21
-9.6899499
0
LINE
8
layer1
10
-1.7685965
20
-9.6899499
11
-1.9318292
21
-9.6587101
0
LINE
8
layer1
10
-1.9318292
20
-9.6587101
11
-1.9620287
21
-9.6564581
0
LINE
8
layer1
10
-1.9620287
20
-9.6564581
11
-1.9871032
21
-9.6605864
0
LINE
8
layer1
10
-1.9871032
20
-9.6605864
11
-2.012763
21
-9.6700083
0
LINE
8
layer1
10
-2.012763
20
-9.6700083
11
-2.0388008
21
-9.6847567
0
LINE
8
layer1
10
-2.0388008
20
-9.6847567
11
-2.0649975
21
-9.7048561
0
LINE
8
layer1
10
-2.0649975
20
-9.7048561
11
-2.0911495
21
-9.7302983
0
LINE
8
layer1
10
-2.0911495
20
-9.7302983
11
-2.1170478
21
-9.7611062
0
LINE
8
layer1
10
-2.1170478
20
-9.7611062
11
-2.1424688
21
-9.7972748
0
LINE
8
layer1
10
-2.1424688
20
-9.7972748
11
-2.1671972
21
-9.8387875
0
LINE
8
layer1
10
-2.1671972
20
-9.8387875
11
-2.2137484
21
-9.9377942
0
LINE
8
layer1
10
-2.2137484
20
-9.9377942
11
-2.2549997
21
-10.0579301
0
LINE
8
layer1
10
-2.2549997
20
-10.0579301
11
-2.2811858
21
-10.1459777
0
LINE
8
layer1
10
-2.2811858
20
-10.1459777
11
-2.3294287
21
-10.2680032
0
LINE
8
layer1
10
-2.3294287
20
-10.2680032
11
-2.3683303
21
-10.3515057
0
LINE
8
layer1
10
-2.3683303
20
-10.3515057
11
-2.420024
21
-10.4513382
0
LINE
8
layer1
10
-2.420024
20
-10.4513382
11
-2.4841647
21
-10.5634041
0
LINE
8
layer1
10
-2.4841647
20
-10.5634041
11
-2.5628555
21
-10.6884537
0
LINE
8
layer1
10
-2.5628555
20
-10.6884537
11
-2.6565542
21
-10.8243896
0
LINE
8
layer1
10
-2.6565542
20
-10.8243896
11
-2.7672222
21
-10.9713871
0
LINE
8
layer1
10
-2.7672222
20
-10.9713871
11
-2.8951777
21
-11.1273
0
LINE
8
layer1
10
-2.8951777
20
-11.1273
11
-3.0418739
21
-11.2915235
0
LINE
8
layer1
10
-3.0418739
20
-11.2915235
11
-3.2073958
21
-11.4619079
0
LINE
8
layer1
10
-3.2073958
20
-11.4619079
11
-3.3739522
21
-11.6200705
0
ARC
8
layer1
10
0.0000046
20
0.0000162
40
12.1
50
250.1909551
51
253.809051
0
LINE
8
layer1
10
-4.1005214
20
-11.3839938
11
-4.1423027
21
-11.1581382
0
LINE
8
layer1
10
-4.1423027
20
-11.1581382
11
-4.1760633
21
-10.923003
0
LINE
8
layer1
10
-4.1760633
20
-10.923003
11
-4.1982149
21
-10.7039175
0
LINE
8
layer1
10
-4.1982149
20
-10.7039175
11
-4.2100898
21
-10.502571
0
LINE
8
layer1
10
-4.2100898
20
-10.502571
11
-4.2132191
21
-10.3185985
0
LINE
8
layer1
10
-4.2132191
20
-10.3185985
11
-4.2091218
21
-10.1535493
0
LINE
8
layer1
10
-4.2091218
20
-10.1535493
11
-4.1992817
21
-10.0061288
0
LINE
8
layer1
10
-4.1992817
20
-10.0061288
11
-4.1853019
21
-9.8777646
0
LINE
8
layer1
10
-4.1853019
20
-9.8777646
11
-4.1684429
21
-9.7666137
0
LINE
8
layer1
10
-4.1684429
20
-9.7666137
11
-4.1508334
21
-9.676193
0
LINE
8
layer1
10
-4.1508334
20
-9.676193
11
-4.118138
21
-9.5491158
0
LINE
8
layer1
10
-4.118138
20
-9.5491158
11
-4.0875699
21
-9.462492
0
LINE
8
layer1
10
-4.0875699
20
-9.462492
11
-4.0503288
21
-9.3410531
0
LINE
8
layer1
10
-4.0503288
20
-9.3410531
11
-4.0297948
21
-9.2335928
0
LINE
8
layer1
10
-4.0297948
20
-9.2335928
11
-4.0254
21
-9.1854733
0
LINE
8
layer1
10
-4.0254
20
-9.1854733
11
-4.0247066
21
-9.1412703
0
LINE
8
layer1
10
-4.0247066
20
-9.1412703
11
-4.0275503
21
-9.1011235
0
LINE
8
layer1
10
-4.0275503
20
-9.1011235
11
-4.0337532
21
-9.0651686
0
LINE
8
layer1
10
-4.0337532
20
-9.0651686
11
-4.0431327
21
-9.0335098
0
LINE
8
layer1
10
-4.0431327
20
-9.0335098
11
-4.0555288
21
-9.0062735
0
LINE
8
layer1
10
-4.0555288
20
-9.0062735
11
-4.07075
21
-8.9835686
0
LINE
8
layer1
10
-4.07075
20
-8.9835686
11
-4.0886091
21
-8.9654902
0
LINE
8
layer1
10
-4.0886091
20
-8.9654902
11
-4.1143647
21
-8.9495613
0
LINE
8
layer1
10
-4.1143647
20
-8.9495613
11
-4.264785
21
-8.8788891
0
LINE
8
layer1
10
-4.264785
20
-8.8788891
11
-4.4718064
21
-8.7764143
0
LINE
8
layer1
10
-4.4718064
20
-8.7764143
11
-4.6763944
21
-8.6691636
0
LINE
8
layer1
10
-4.6763944
20
-8.6691636
11
-4.8219843
21
-8.5890111
0
LINE
8
layer1
10
-4.8219843
20
-8.5890111
11
-4.8500098
21
-8.5775372
0
LINE
8
layer1
10
-4.8500098
20
-8.5775372
11
-4.8751328
21
-8.573715
0
LINE
8
layer1
10
-4.8751328
20
-8.573715
11
-4.9024483
21
-8.5747465
0
LINE
8
layer1
10
-4.9024483
20
-8.5747465
11
-4.9317692
21
-8.5807269
0
LINE
8
layer1
10
-4.9317692
20
-8.5807269
11
-4.9628948
21
-8.5917473
0
LINE
8
layer1
10
-4.9628948
20
-8.5917473
11
-4.9956289
21
-8.6078628
0
LINE
8
layer1
10
-4.9956289
20
-8.6078628
11
-5.0297798
21
-8.6291599
0
LINE
8
layer1
10
-5.0297798
20
-8.6291599
11
-5.0651333
21
-8.6557027
0
LINE
8
layer1
10
-5.0651333
20
-8.6557027
11
-5.1014796
21
-8.6875421
0
LINE
8
layer1
10
-5.1014796
20
-8.6875421
11
-5.1763472
21
-8.767318
0
LINE
8
layer1
10
-5.1763472
20
-8.767318
11
-5.2527035
21
-8.8688268
0
LINE
8
layer1
10
-5.2527035
20
-8.8688268
11
-5.3048162
21
-8.9444731
0
LINE
8
layer1
10
-5.3048162
20
-8.9444731
11
-5.3884059
21
-9.0456183
0
LINE
8
layer1
10
-5.3884059
20
-9.0456183
11
-5.4512072
21
-9.1130126
0
LINE
8
layer1
10
-5.4512072
20
-9.1130126
11
-5.5312207
21
-9.1919847
0
LINE
8
layer1
10
-5.5312207
20
-9.1919847
11
-5.6268524
21
-9.2787452
0
LINE
8
layer1
10
-5.6268524
20
-9.2787452
11
-5.7403343
21
-9.3733576
0
LINE
8
layer1
10
-5.7403343
20
-9.3733576
11
-5.8714535
21
-9.4736858
0
LINE
8
layer1
10
-5.8714535
20
-9.4736858
11
-6.0221297
21
-9.5792905
0
LINE
8
layer1
10
-6.0221297
20
-9.5792905
11
-6.1920024
21
-9.688032
0
LINE
8
layer1
10
-6.1920024
20
-9.688032
11
-6.3822667
21
-9.7988862
0
LINE
8
layer1
10
-6.3822667
20
-9.7988862
11
-6.592339
21
-9.9097824
0
LINE
8
layer1
10
-6.592339
20
-9.9097824
11
-6.7996185
21
-10.0087352
0
ARC
8
layer1
10
0.0000101
20
0.0000135
40
12.1
50
232.1909507
51
235.8090468
0
LINE
8
layer1
10
-7.4176752
20
-9.5596907
11
-7.3876183
21
-9.3319781
0
LINE
8
layer1
10
-7.3876183
20
-9.3319781
11
-7.3470657
21
-9.0979187
0
LINE
8
layer1
10
-7.3470657
20
-9.0979187
11
-7.300432
21
-8.8827107
0
LINE
8
layer1
10
-7.300432
20
-8.8827107
11
-7.2495062
21
-8.6875493
0
LINE
8
layer1
10
-7.2495062
20
-8.6875493
11
-7.1956317
21
-8.511614
0
LINE
8
layer1
10
-7.1956317
20
-8.511614
11
-7.140732
21
-8.3559091
0
LINE
8
layer1
10
-7.140732
20
-8.3559091
11
-7.0858181
21
-8.2187445
0
LINE
8
layer1
10
-7.0858181
20
-8.2187445
11
-7.0328558
21
-8.100983
0
LINE
8
layer1
10
-7.0328558
20
-8.100983
11
-6.9824744
21
-8.0004819
0
LINE
8
layer1
10
-6.9824744
20
-8.0004819
11
-6.9377853
21
-7.9199283
0
LINE
8
layer1
10
-6.9377853
20
-7.9199283
11
-6.8674211
21
-7.8091742
0
LINE
8
layer1
10
-6.8674211
20
-7.8091742
11
-6.8115808
21
-7.7362361
0
LINE
8
layer1
10
-6.8115808
20
-7.7362361
11
-6.7386357
21
-7.632249
0
LINE
8
layer1
10
-6.7386357
20
-7.632249
11
-6.6858997
21
-7.5363936
0
LINE
8
layer1
10
-6.6858997
20
-7.5363936
11
-6.6668502
21
-7.4919873
0
LINE
8
layer1
10
-6.6668502
20
-7.4919873
11
-6.6525313
21
-7.4501619
0
LINE
8
layer1
10
-6.6525313
20
-7.4501619
11
-6.6428298
21
-7.4111013
0
LINE
8
layer1
10
-6.6428298
20
-7.4111013
11
-6.6376184
21
-7.3749894
0
LINE
8
layer1
10
-6.6376184
20
-7.3749894
11
-6.6367558
21
-7.3419816
0
LINE
8
layer1
10
-6.6367558
20
-7.3419816
11
-6.6401287
21
-7.3122478
0
LINE
8
layer1
10
-6.6401287
20
-7.3122478
11
-6.6475886
21
-7.2859505
0
LINE
8
layer1
10
-6.6475886
20
-7.2859505
11
-6.6589872
21
-7.2632382
0
LINE
8
layer1
10
-6.6589872
20
-7.2632382
11
-6.6785599
21
-7.24013
0
LINE
8
layer1
10
-6.6785599
20
-7.24013
11
-6.7997792
21
-7.1264343
0
LINE
8
layer1
10
-6.7997792
20
-7.1264343
11
-6.9650018
21
-6.9650018
0
LINE
8
layer1
10
-6.9650018
20
-6.9650018
11
-7.1264343
21
-6.7997792
0
LINE
8
layer1
10
-7.1264343
20
-6.7997792
11
-7.24013
21
-6.6785599
0
LINE
8
layer1
10
-7.24013
20
-6.6785599
11
-7.2632382
21
-6.6589872
0
LINE
8
layer1
10
-7.2632382
20
-6.6589872
11
-7.2859505
21
-6.6475886
0
LINE
8
layer1
10
-7.2859505
20
-6.6475886
11
-7.3122478
21
-6.6401287
0
LINE
8
layer1
10
-7.3122478
20
-6.6401287
11
-7.3419816
21
-6.6367558
0
LINE
8
layer1
10
-7.3419816
20
-6.6367558
11
-7.3749894
21
-6.6376184
0
LINE
8
layer1
10
-7.3749894
20
-6.6376184
11
-7.4111013
21
-6.6428298
0
LINE
8
layer1
10
-7.4111013
20
-6.6428298
11
-7.4501619
21
-6.6525313
0
LINE
8
layer1
10
-7.4501619
20
-6.6525313
11
-7.4919873
21
-6.6668502
0
LINE
8
layer1
10
-7.4919873
20
-6.6668502
11
-7.5363936
21
-6.6858997
0
LINE
8
layer1
10
-7.5363936
20
-6.6858997
11
-7.632249
21
-6.7386357
0
LINE
8
layer1
10
-7.632249
20
-6.7386357
11
-7.7362361
21
-6.8115808
0
LINE
8
layer1
10
-7.7362361
20
-6.8115808
11
-7.8091742
21
-6.8674211
0
LINE
8
layer1
10
-7.8091742
20
-6.8674211
11
-7.9199283
21
-6.9377853
0
LINE
8
layer1
10
-7.9199283
20
-6.9377853
11
-8.0004819
21
-6.9824744
0
LINE
8
layer1
10
-8.0004819
20
-6.9824744
11
-8.100983
21
-7.0328558
0
LINE
8
layer1
10
-8.100983
20
-7.0328558
11
-8.2187445
21
-7.0858181
0
LINE
8
layer1
10
-8.2187445
20
-7.0858181
11
-8.3559091
21
-7.140732
0
LINE
8
layer1
10
-8.3559091
20
-7.140732
11
-8.511614
21
-7.1956317
0
LINE
8
layer1
10
-8.511614
20
-7.1956317
11
-8.6875493
21
-7.2495062
0
LINE
8
layer1
10
-8.6875493
20
-7.2495062
11
-8.8827107
21
-7.300432
0
LINE
8
layer1
10
-8.8827107
20
-7.300432
11
-9.0979187
21
-7.3470657
0
LINE
8
layer1
10
-9.0979187
20
-7.3470657
11
-9.3319781
21
-7.3876183
0
LINE
8
layer1
10
-9.3319781
20
-7.3876183
11
-9.5596907
21
-7.4176752
0
ARC
8
layer1
10
0.0000135
20
0.0000101
40
12.1
50
214.1909532
51
217.8090493
0
LINE
8
layer1
10
-10.0087352
20
-6.7996185
11
-9.9097824
21
-6.592339
0
LINE
8
layer1
10
-9.9097824
20
-6.592339
11
-9.7988862
21
-6.3822667
0
LINE
8
layer1
10
-9.7988862
20
-6.3822667
11
-9.688032
21
-6.1920024
0
LINE
8
layer1
10
-9.688032
20
-6.1920024
11
-9.5792905
21
-6.0221297
0
LINE
8
layer1
10
-9.5792905
20
-6.0221297
11
-9.4736858
21
-5.8714535
0
LINE
8
layer1
10
-9.4736858
20
-5.8714535
11
-9.3733576
21
-5.7403343
0
LINE
8
layer1
10
-9.3733576
20
-5.7403343
11
-9.2787452
21
-5.6268524
0
LINE
8
layer1
10
-9.2787452
20
-5.6268524
11
-9.1919847
21
-5.5312207
0
LINE
8
layer1
10
-9.1919847
20
-5.5312207
11
-9.1130126
21
-5.4512072
0
LINE
8
layer1
10
-9.1130126
20
-5.4512072
11
-9.0456183
21
-5.3884059
0
LINE
8
layer1
10
-9.0456183
20
-5.3884059
11
-8.9444731
21
-5.3048162
0
LINE
8
layer1
10
-8.9444731
20
-5.3048162
11
-8.8688268
21
-5.2527035
0
LINE
8
layer1
10
-8.8688268
20
-5.2527035
11
-8.767318
21
-5.1763472
0
LINE
8
layer1
10
-8.767318
20
-5.1763472
11
-8.6875421
21
-5.1014796
0
LINE
8
layer1
10
-8.6875421
20
-5.1014796
11
-8.6557027
21
-5.0651333
0
LINE
8
layer1
10
-8.6557027
20
-5.0651333
11
-8.6291599
21
-5.0297798
0
LINE
8
layer1
10
-8.6291599
20
-5.0297798
11
-8.6078628
21
-4.9956289
0
LINE
8
layer1
10
-8.6078628
20
-4.9956289
11
-8.5917473
21
-4.9628948
0
LINE
8
layer1
10
-8.5917473
20
-4.9628948
11
-8.5807269
21
-4.9317692
0
LINE
8
layer1
10
-8.5807269
20
-4.9317692
11
-8.5747465
21
-4.9024483
0
LINE
8
layer1
10
-8.5747465
20
-4.9024483
11
-8.573715
21
-4.8751328
0
LINE
8
layer1
10
-8.573715
20
-4.8751328
11
-8.5775372
21
-4.8500098
0
LINE
8
layer1
10
-8.5775372
20
-4.8500098
11
-8.5890111
21
-4.8219843
0
LINE
8
layer1
10
-8.5890111
20
-4.8219843
11
-8.6691636
21
-4.6763944
0
LINE
8
layer1
10
-8.6691636
20
-4.6763944
11
-8.7764143
21
-4.4718064
0
LINE
8
layer1
10
-8.7764143
20
-4.4718064
11
-8.8788891
21
-4.264785
0
LINE
8
layer1
10
-8.8788891
20
-4.264785
11
-8.9495613
21
-4.1143647
0
LINE
8
layer1
10
-8.9495613
20
-4.1143647
11
-8.9654902
21
-4.0886091
0
LINE
8
layer1
10
-8.9654902
20
-4.0886091
11
-8.9835686
21
-4.07075
0
LINE
8
layer1
10
-8.9835686
20
-4.07075
11
-9.0062735
21
-4.0555288
0
LINE
8
layer1
10
-9.0062735
20
-4.0555288
11
-9.0335098
21
-4.0431327
0
LINE
8
layer1
10
-9.0335098
20
-4.0431327
11
-9.0651686
21
-4.0337532
0
LINE
8
layer1
10
-9.0651686
20
-4.0337532
11
-9.1011235
21
-4.0275503
0
LINE
8
layer1
10
-9.1011235
20
-4.0275503
11
-9.1412703
21
-4.0247066
0
LINE
8
layer1
10
-9.1412703
20
-4.0247066
11
-9.1854733
21
-4.0254
0
LINE
8
layer1
10
-9.1854733
20
-4.0254
11
-9.2335928
21
-4.0297948
0
LINE
8
layer1
10
-9.2335928
20
-4.0297948
11
-9.3410531
21
-4.0503288
0
LINE
8
layer1
10
-9.3410531
20
-4.0503288
11
-9.462492
21
-4.0875699
0
LINE
8
layer1
10
-9.462492
20
-4.0875699
11
-9.5491158
21
-4.118138
0
LINE
8
layer1
10
-9.5491158
20
-4.118138
11
-9.676193
21
-4.1508334
0
LINE
8
layer1
10
-9.676193
20
-4.1508334
11
-9.7666137
21
-4.1684429
0
LINE
8
layer1
10
-9.7666137
20
-4.1684429
11
-9.8777646
21
-4.1853019
0
LINE
8
layer1
10
-9.8777646
20
-4.1853019
11
-10.0061288
21
-4.1992817
0
LINE
8
layer1
10
-10.0061288
20
-4.1992817
11
-10.1535493
21
-4.2091218
0
LINE
8
layer1
10
-10.1535493
20
-4.2091218
11
-10.3185985
21
-4.2132191
0
LINE
8
layer1
10
-10.3185985
20
-4.2132191
11
-10.502571
21
-4.2100898
0
LINE
8
layer1
10
-10.502571
20
-4.2100898
11
-10.7039175
21
-4.1982149
0
LINE
8
layer1
10
-10.7039175
20
-4.1982149
11
-10.923003
21
-4.1760633
0
LINE
8
layer1
10
-10.923003
20
-4.1760633
11
-11.1581382
21
-4.1423027
0
LINE
8
layer1
10
-11.1581382
20
-4.1423027
11
-11.3839938
21
-4.1005214
0
ARC
8
layer1
10
0.0000163
20
0.0000046
40
12.1
50
196.190949
51
199.8090449
0
LINE
8
layer1
10
-11.6200705
20
-3.3739522
11
-11.4619079
21
-3.2073958
0
LINE
8
layer1
10
-11.4619079
20
-3.2073958
11
-11.2915235
21
-3.0418739
0
LINE
8
layer1
10
-11.2915235
20
-3.0418739
11
-11.1273
21
-2.8951777
0
LINE
8
layer1
10
-11.1273
20
-2.8951777
11
-10.9713871
21
-2.7672222
0
LINE
8
layer1
10
-10.9713871
20
-2.7672222
11
-10.8243896
21
-2.6565542
0
LINE
8
layer1
10
-10.8243896
20
-2.6565542
11
-10.6884537
21
-2.5628555
0
LINE
8
layer1
10
-10.6884537
20
-2.5628555
11
-10.5634041
21
-2.4841647
0
LINE
8
layer1
10
-10.5634041
20
-2.4841647
11
-10.4513382
21
-2.420024
0
LINE
8
layer1
10
-10.4513382
20
-2.420024
11
-10.3515057
21
-2.3683303
0
LINE
8
layer1
10
-10.3515057
20
-2.3683303
11
-10.2680032
21
-2.3294287
0
LINE
8
layer1
10
-10.2680032
20
-2.3294287
11
-10.1459777
21
-2.2811858
0
LINE
8
layer1
10
-10.1459777
20
-2.2811858
11
-10.0579301
21
-2.2549997
0
LINE
8
layer1
10
-10.0579301
20
-2.2549997
11
-9.9377942
21
-2.2137484
0
LINE
8
layer1
10
-9.9377942
20
-2.2137484
11
-9.8387875
21
-2.1671972
0
LINE
8
layer1
10
-9.8387875
20
-2.1671972
11
-9.7972748
21
-2.1424688
0
LINE
8
layer1
10
-9.7972748
20
-2.1424688
11
-9.7611062
21
-2.1170478
0
LINE
8
layer1
10
-9.7611062
20
-2.1170478
11
-9.7302983
21
-2.0911495
0
LINE
8
layer1
10
-9.7302983
20
-2.0911495
11
-9.7048561
21
-2.0649975
0
LINE
8
layer1
10
-9.7048561
20
-2.0649975
11
-9.6847567
21
-2.0388008
0
LINE
8
layer1
10
-9.6847567
20
-2.0388008
11
-9.6700083
21
-2.012763
0
LINE
8
layer1
10
-9.6700083
20
-2.012763
11
-9.6605864
21
-1.9871032
0
LINE
8
layer1
10
-9.6605864
20
-1.9871032
11
-9.6564581
21
-1.9620287
0
LINE
8
layer1
10
-9.6564581
20
-1.9620287
11
-9.6587101
21
-1.9318292
0
LINE
8
layer1
10
-9.6587101
20
-1.9318292
11
-9.6899499
21
-1.7685965
0
LINE
8
layer1
10
-9.6899499
20
-1.7685965
11
-9.7287302
21
-1.5408795
0
LINE
8
layer1
10
-9.7287302
20
-1.5408795
11
-9.7622164
21
-1.312324
0
LINE
8
layer1
10
-9.7622164
20
-1.312324
11
-9.7829472
21
-1.1474268
0
LINE
8
layer1
10
-9.7829472
20
-1.1474268
11
-9.7901376
21
-1.1180095
0
LINE
8
layer1
10
-9.7901376
20
-1.1180095
11
-9.8018123
21
-1.0954379
0
LINE
8
layer1
10
-9.8018123
20
-1.0954379
11
-9.8187024
21
-1.0739455
0
LINE
8
layer1
10
-9.8187024
20
-1.0739455
11
-9.8407751
21
-1.0537397
0
LINE
8
layer1
10
-9.8407751
20
-1.0537397
11
-9.867986
21
-1.0350361
0
LINE
8
layer1
10
-9.867986
20
-1.0350361
11
-9.9002643
21
-1.0180261
0
LINE
8
layer1
10
-9.9002643
20
-1.0180261
11
-9.9375674
21
-1.0029156
0
LINE
8
layer1
10
-9.9375674
20
-1.0029156
11
-9.9798213
21
-0.9899155
0
LINE
8
layer1
10
-9.9798213
20
-0.9899155
11
-10.0269437
21
-0.9792255
0
LINE
8
layer1
10
-10.0269437
20
-0.9792255
11
-10.1354898
21
-0.9655474
0
LINE
8
layer1
10
-10.1354898
20
-0.9655474
11
-10.2624932
21
-0.9634392
0
LINE
8
layer1
10
-10.2624932
20
-0.9634392
11
-10.3543234
21
-0.9657429
0
LINE
8
layer1
10
-10.3543234
20
-0.9657429
11
-10.4852844
21
-0.9575691
0
LINE
8
layer1
10
-10.4852844
20
-0.9575691
11
-10.5767213
21
-0.9463752
0
LINE
8
layer1
10
-10.5767213
20
-0.9463752
11
-10.6876418
21
-0.9280615
0
LINE
8
layer1
10
-10.6876418
20
-0.9280615
11
-10.8140434
21
-0.9016904
0
LINE
8
layer1
10
-10.8140434
20
-0.9016904
11
-10.9572894
21
-0.8654934
0
LINE
8
layer1
10
-10.9572894
20
-0.8654934
11
-11.1155266
21
-0.8183872
0
LINE
8
layer1
10
-11.1155266
20
-0.8183872
11
-11.2895278
21
-0.7585604
0
LINE
8
layer1
10
-11.2895278
20
-0.7585604
11
-11.4773502
21
-0.6850472
0
LINE
8
layer1
10
-11.4773502
20
-0.6850472
11
-11.6788677
21
-0.5962786
0
LINE
8
layer1
10
-11.6788677
20
-0.5962786
11
-11.892062
21
-0.4915097
0
LINE
8
layer1
10
-11.892062
20
-0.4915097
11
-12.0939523
21
-0.38198
0
ARC
8
layer1
10
0.0000169
20
1e-7
40
12.1
50
178.1909522
51
181.8090483
0
LINE
8
layer1
10
-12.0939523
20
0.38198
11
-11.892062
21
0.4915097
0
LINE
8
layer1
10
-11.892062
20
0.4915097
11
-11.6788677
21
0.5962786
0
LINE
8
layer1
10
-11.6788677
20
0.5962786
11
-11.4773502
21
0.6850472
0
LINE
8
layer1
10
-11.4773502
20
0.6850472
11
-11.2895278
21
0.7585604
0
LINE
8
layer1
10
-11.2895278
20
0.7585604
11
-11.1155266
21
0.8183872
0
LINE
8
layer1
10
-11.1155266
20
0.8183872
11
-10.9572894
21
0.8654934
0
LINE
8
layer1
10
-10.9572894
20
0.8654934
11
-10.8140434
21
0.9016904
0
LINE
8
layer1
10
-10.8140434
20
0.9016904
11
-10.6876418
21
0.9280615
0
LINE
8
layer1
10
-10.6876418
20
0.9280615
11
-10.5767213
21
0.9463752
0
LINE
8
layer1
10
-10.5767213
20
0.9463752
11
-10.4852844
21
0.9575691
0
LINE
8
layer1
10
-10.4852844
20
0.9575691
11
-10.3543234
21
0.9657429
0
LINE
8
layer1
10
-10.3543234
20
0.9657429
11
-10.2624932
21
0.9634392
0
LINE
8
layer1
10
-10.2624932
20
0.9634392
11
-10.1354898
21
0.9655474
0
LINE
8
layer1
10
-10.1354898
20
0.9655474
11
-10.0269437
21
0.9792255
0
LINE
8
layer1
10
-10.0269437
20
0.9792255
11
-9.9798213
21
0.9899155
0
LINE
8
layer1
10
-9.9798213
20
0.9899155
11
-9.9375674
21
1.0029156
0
LINE
8
layer1
10
-9.9375674
20
1.0029156
11
-9.9002643
21
1.0180261
0
LINE
8
layer1
10
-9.9002643
20
1.0180261
11
-9.867986
21
1.0350361
0
LINE
8
layer1
10
-9.867986
20
1.0350361
11
-9.8407751
21
1.0537397
0
LINE
8
layer1
10
-9.8407751
20
1.0537397
11
-9.8187024
21
1.0739455
0
LINE
8
layer1
10
-9.8187024
20
1.0739455
11
-9.8018123
21
1.0954379
0
LINE
8
layer1
10
-9.8018123
20
1.0954379
11
-9.7901376
21
1.1180095
0
LINE
8
layer1
10
-9.7901376
20
1.1180095
11
-9.7829472
21
1.1474268
0
LINE
8
layer1
10
-9.7829472
20
1.1474268
11
-9.7622164
21
1.312324
0
LINE
8
layer1
10
-9.7622164
20
1.312324
11
-9.7287302
21
1.5408795
0
LINE
8
layer1
10
-9.7287302
20
1.5408795
11
-9.6899499
21
1.7685965
0
LINE
8
layer1
10
-9.6899499
20
1.7685965
11
-9.6587101
21
1.9318292
0
LINE
8
layer1
10
-9.6587101
20
1.9318292
11
-9.6564581
21
1.9620287
0
LINE
8
layer1
10
-9.6564581
20
1.9620287
11
-9.6605864
21
1.9871032
0
LINE
8
layer1
10
-9.6605864
20
1.9871032
11
-9.6700083
21
2.012763
0
LINE
8
layer1
10
-9.6700083
20
2.012763
11
-9.6847567
21
2.0388008
0
LINE
8
layer1
10
-9.6847567
20
2.0388008
11
-9.7048561
21
2.0649975
0
LINE
8
layer1
10
-9.7048561
20
2.0649975
11
-9.7302983
21
2.0911495
0
LINE
8
layer1
10
-9.7302983
20
2.0911495
11
-9.7611062
21
2.1170478
0
LINE
8
layer1
10
-9.7611062
20
2.1170478
11
-9.7972748
21
2.1424688
0
LINE
8
layer1
10
-9.7972748
20
2.1424688
11
-9.8387875
21
2.1671972
0
LINE
8
layer1
10
-9.8387875
20
2.1671972
11
-9.9377942
21
2.2137484
0
LINE
8
layer1
10
-9.9377942
20
2.2137484
11
-10.0579301
21
2.2549997
0
LINE
8
layer1
10
-10.0579301
20
2.2549997
11
-10.1459777
21
2.2811858
0
LINE
8
layer1
10
-10.1459777
20
2.2811858
11
-10.2680032
21
2.3294287
0
LINE
8
layer1
10
-10.2680032
20
2.3294287
11
-10.3515057
21
2.3683303
0
LINE
8
layer1
10
-10.3515057
20
2.3683303
11
-10.4513382
21
2.420024
0
LINE
8
layer1
10
-10.4513382
20
2.420024
11
-10.5634041
21
2.4841647
0
LINE
8
layer1
10
-10.5634041
20
2.4841647
11
-10.6884537
21
2.5628555
0
LINE
8
layer1
10
-10.6884537
20
2.5628555
11
-10.8243896
21
2.6565542
0
LINE
8
layer1
10
-10.8243896
20
2.6565542
11
-10.9713871
21
2.7672222
0
LINE
8
layer1
10
-10.9713871
20
2.7672222
11
-11.1273
21
2.8951777
0
LINE
8
layer1
10
-11.1273
20
2.8951777
11
-11.2915235
21
3.0418739
0
LINE
8
layer1
10
-11.2915235
20
3.0418739
11
-11.4619079
21
3.2073958
0
LINE
8
layer1
10
-11.4619079
20
3.2073958
11
-11.6200705
21
3.3739522
0
ARC
8
layer1
10
0.0000162
20
-0.0000046
40
12.1
50
160.1909551
51
163.809051
0
LINE
8
layer1
10
-11.3839938
20
4.1005214
11
-11.1581382
21
4.1423027
0
LINE
8
layer1
10
-11.1581382
20
4.1423027
11
-10.923003
21
4.1760633
0
LINE
8
layer1
10
-10.923003
20
4.1760633
11
-10.7039175
21
4.1982149
0
LINE
8
layer1
10
-10.7039175
20
4.1982149
11
-10.502571
21
4.2100898
0
LINE
8
layer1
10
-10.502571
20
4.2100898
11
-10.3185985
21
4.2132191
0
LINE
8
layer1
10
-10.3185985
20
4.2132191
11
-10.1535493
21
4.2091218
0
LINE
8
layer1
10
-10.1535493
20
4.2091218
11
-10.0061288
21
4.1992817
0
LINE
8
layer1
10
-10.0061288
20
4.1992817
11
-9.8777646
21
4.1853019
0
LINE
8
layer1
10
-9.8777646
20
4.1853019
11
-9.7666137
21
4.1684429
0
LINE
8
layer1
10
-9.7666137
20
4.1684429
11
-9.676193
21
4.1508334
0
LINE
8
layer1
10
-9.676193
20
4.1508334
11
-9.5491158
21
4.118138
0
LINE
8
layer1
10
-9.5491158
20
4.118138
11
-9.462492
21
4.0875699
0
LINE
8
layer1
10
-9.462492
20
4.0875699
11
-9.3410531
21
4.0503288
0
LINE
8
layer1
10
-9.3410531
20
4.0503288
11
-9.2335928
21
4.0297948
0
LINE
8
layer1
10
-9.2335928
20
4.0297948
11
-9.1854733
21
4.0254
0
LINE
8
layer1
10
-9.1854733
20
4.0254
11
-9.1412703
21
4.0247066
0
LINE
8
layer1
10
-9.1412703
20
4.0247066
11
-9.1011235
21
4.0275503
0
LINE
8
layer1
10
-9.1011235
20
4.0275503
11
-9.0651686
21
4.0337532
0
LINE
8
layer1
10
-9.0651686
20
4.0337532
11
-9.0335098
21
4.0431327
0
LINE
8
layer1
10
-9.0335098
20
4.0431327
11
-9.0062735
21
4.0555288
0
LINE
8
layer1
10
-9.0062735
20
4.0555288
11
-8.9835686
21
4.07075
0
LINE
8
layer1
10
-8.9835686
20
4.07075
11
-8.9654902
21
4.0886091
0
LINE
8
layer1
10
-8.9654902
20
4.0886091
11
-8.9495613
21
4.1143647
0
LINE
8
layer1
10
-8.9495613
20
4.1143647
11
-8.8788891
21
4.264785
0
LINE
8
layer1
10
-8.8788891
20
4.264785
11
-8.7764143
21
4.4718064
0
LINE
8
layer1
10
-8.7764143
20
4.4718064
11
-8.6691636
21
4.6763944
0
LINE
8
layer1
10
-8.6691636
20
4.6763944
11
-8.5890111
21
4.8219843
0
LINE
8
layer1
10
-8.5890111
20
4.8219843
11
-8.5775372
21
4.8500098
0
LINE
8
layer1
10
-8.5775372
20
4.8500098
11
-8.573715
21
4.8751328
0
LINE
8
layer1
10
-8.573715
20
4.8751328
11
-8.5747465
21
4.9024483
0
LINE
8
layer1
10
-8.5747465
20
4.9024483
11
-8.5807269
21
4.9317692
0
LINE
8
layer1
10
-8.5807269
20
4.9317692
11
-8.5917473
21
4.9628948
0
LINE
8
layer1
10
-8.5917473
20
4.9628948
11
-8.6078628
21
4.9956289
0
LINE
8
layer1
10
-8.6078628
20
4.9956289
11
-8.6291599
21
5.0297798
0
LINE
8
layer1
10
-8.6291599
20
5.0297798
11
-8.6557027
21
5.0651333
0
LINE
8
layer1
10
-8.6557027
20
5.0651333
11
-8.6875421
21
5.1014796
0
LINE
8
layer1
10
-8.6875421
20
5.1014796
11
-8.767318
21
5.1763472
0
LINE
8
layer1
10
-8.767318
20
5.1763472
11
-8.8688268
21
5.2527035
0
LINE
8
layer1
10
-8.8688268
20
5.2527035
11
-8.9444731
21
5.3048162
0
LINE
8
layer1
10
-8.9444731
20
5.3048162
11
-9.0456183
21
5.3884059
0
LINE
8
layer1
10
-9.0456183
20
5.3884059
11
-9.1130126
21
5.4512072
0
LINE
8
layer1
10
-9.1130126
20
5.4512072
11
-9.1919847
21
5.5312207
0
LINE
8
layer1
10
-9.1919847
20
5.5312207
11
-9.2787452
21
5.6268524
0
LINE
8
layer1
10
-9.2787452
20
5.6268524
11
-9.3733576
21
5.7403343
0
LINE
8
layer1
10
-9.3733576
20
5.7403343
11
-9.4736858
21
5.8714535
0
LINE
8
layer1
10
-9.4736858
20
5.8714535
11
-9.5792905
21
6.0221297
0
LINE
8
layer1
10
-9.5792905
20
6.0221297
11
-9.688032
21
6.1920024
0
LINE
8
layer1
10
-9.688032
20
6.1920024
11
-9.7988862
21
6.3822667
0
LINE
8
layer1
10
-9.7988862
20
6.3822667
11
-9.9097824
21
6.592339
0
LINE
8
layer1
10
-9.9097824
20
6.592339
11
-10.0087352
21
6.7996185
0
ARC
8
layer1
10
0.0000135
20
-0.0000101
40
12.1
50
142.1909507
51
145.8090468
0
LINE
8
layer1
10
-9.5596907
20
7.4176752
11
-9.3319781
21
7.3876183
0
LINE
8
layer1
10
-9.3319781
20
7.3876183
11
-9.0979187
21
7.3470657
0
LINE
8
layer1
10
-9.0979187
20
7.3470657
11
-8.8827107
21
7.300432
0
LINE
8
layer1
10
-8.8827107
20
7.300432
11
-8.6875493
21
7.2495062
0
LINE
8
layer1
10
-8.6875493
20
7.2495062
11
-8.511614
21
7.1956317
0
LINE
8
layer1
10
-8.511614
20
7.1956317
11
-8.3559091
21
7.140732
0
LINE
8
layer1
10
-8.3559091
20
7.140732
11
-8.2187445
21
7.0858181
0
LINE
8
layer1
10
-8.2187445
20
7.0858181
11
-8.100983
21
7.0328558
0
LINE
8
layer1
10
-8.100983
20
7.0328558
11
-8.0004819
21
6.9824744
0
LINE
8
layer1
10
-8.0004819
20
6.9824744
11
-7.9199283
21
6.9377853
0
LINE
8
layer1
10
-7.9199283
20
6.9377853
11
-7.8091742
21
6.8674211
0
LINE
8
layer1
10
-7.8091742
20
6.8674211
11
-7.7362361
21
6.8115808
0
LINE
8
layer1
10
-7.7362361
20
6.8115808
11
-7.632249
21
6.7386357
0
LINE
8
layer1
10
-7.632249
20
6.7386357
11
-7.5363936
21
6.6858997
0
LINE
8
layer1
10
-7.5363936
20
6.6858997
11
-7.4919873
21
6.6668502
0
LINE
8
layer1
10
-7.4919873
20
6.6668502
11
-7.4501619
21
6.6525313
0
LINE
8
layer1
10
-7.4501619
20
6.6525313
11
-7.4111013
21
6.6428298
0
LINE
8
layer1
10
-7.4111013
20
6.6428298
11
-7.3749894
21
6.6376184
0
LINE
8
layer1
10
-7.3749894
20
6.6376184
11
-7.3419816
21
6.6367558
0
LINE
8
layer1
10
-7.3419816
20
6.6367558
11
-7.3122478
21
6.6401287
0
LINE
8
layer1
10
-7.3122478
20
6.6401287
11
-7.2859505
21
6.6475886
0
LINE
8
layer1
10
-7.2859505
20
6.6475886
11
-7.2632382
21
6.6589872
0
LINE
8
layer1
10
-7.2632382
20
6.6589872
11
-7.24013
21
6.6785599
0
LINE
8
layer1
10
-7.24013
20
6.6785599
11
-7.1264343
21
6.7997792
0
LINE
8
layer1
10
-7.1264343
20
6.7997792
11
-6.9650018
21
6.9650018
0
LINE
8
layer1
10
-6.9650018
20
6.9650018
11
-6.7997792
21
7.1264343
0
LINE
8
layer1
10
-6.7997792
20
7.1264343
11
-6.6785599
21
7.24013
0
LINE
8
layer1
10
-6.6785599
20
7.24013
11
-6.6589872
21
7.2632382
0
LINE
8
layer1
10
-6.6589872
20
7.2632382
11
-6.6475886
21
7.2859505
0
LINE
8
layer1
10
-6.6475886
20
7.2859505
11
-6.6401287
21
7.3122478
0
LINE
8
layer1
10
-6.6401287
20
7.3122478
11
-6.6367558
21
7.3419816
0
LINE
8
layer1
10
-6.6367558
20
7.3419816
11
-6.6376184
21
7.3749894
0
LINE
8
layer1
10
-6.6376184
20
7.3749894
11
-6.6428298
21
7.4111013
0
LINE
8
layer1
10
-6.6428298
20
7.4111013
11
-6.6525313
21
7.4501619
0
LINE
8
layer1
10
-6.6525313
20
7.4501619
11
-6.6668502
21
7.4919873
0
LINE
8
layer1
10
-6.6668502
20
7.4919873
11
-6.6858997
21
7.5363936
0
LINE
8
layer1
10
-6.6858997
20
7.5363936
11
-6.7386357
21
7.632249
0
LINE
8
layer1
10
-6.7386357
20
7.632249
11
-6.8115808
21
7.7362361
0
LINE
8
layer1
10
-6.8115808
20
7.7362361
11
-6.8674211
21
7.8091742
0
LINE
8
layer1
10
-6.8674211
20
7.8091742
11
-6.9377853
21
7.9199283
0
LINE
8
layer1
10
-6.9377853
20
7.9199283
11
-6.9824744
21
8.0004819
0
LINE
8
layer1
10
-6.9824744
20
8.0004819
11
-7.0328558
21
8.100983
0
LINE
8
layer1
10
-7.0328558
20
8.100983
11
-7.0858181
21
8.2187445
0
LINE
8
layer1
10
-7.0858181
20
8.2187445
11
-7.140732
21
8.3559091
0
LINE
8
layer1
10
-7.140732
20
8.3559091
11
-7.1956317
21
8.511614
0
LINE
8
layer1
10
-7.1956317
20
8.511614
11
-7.2495062
21
8.6875493
0
LINE
8
layer1
10
-7.2495062
20
8.6875493
11
-7.300432
21
8.8827107
0
LINE
8
layer1
10
-7.300432
20
8.8827107
11
-7.3470657
21
9.0979187
0
LINE
8
layer1
10
-7.3470657
20
9.0979187
11
-7.3876183
21
9.3319781
0
LINE
8
layer1
10
-7.3876183
20
9.3319781
11
-7.4176752
21
9.5596907
0
ARC
8
layer1
10
0.0000101
20
-0.0000135
40
12.1
50
124.1909532
51
127.8090493
0
LINE
8
layer1
10
-6.7996185
20
10.0087352
11
-6.592339
21
9.9097824
0
LINE
8
layer1
10
-6.592339
20
9.9097824
11
-6.3822667
21
9.7988862
0
LINE
8
layer1
10
-6.3822667
20
9.7988862
11
-6.1920024
21
9.688032
0
LINE
8
layer1
10
-6.1920024
20
9.688032
11
-6.0221297
21
9.5792905
0
LINE
8
layer1
10
-6.0221297
20
9.5792905
11
-5.8714535
21
9.4736858
0
LINE
8
layer1
10
-5.8714535
20
9.4736858
11
-5.7403343
21
9.3733576
0
LINE
8
layer1
10
-5.7403343
20
9.3733576
11
-5.6268524
21
9.2787452
0
LINE
8
layer1
10
-5.6268524
20
9.2787452
11
-5.5312207
21
9.1919847
0
LINE
8
layer1
10
-5.5312207
20
9.1919847
11
-5.4512072
21
9.1130126
0
LINE
8
layer1
10
-5.4512072
20
9.1130126
11
-5.3884059
21
9.0456183
0
LINE
8
layer1
10
-5.3884059
20
9.0456183
11
-5.3048162
21
8.9444731
0
LINE
8
layer1
10
-5.3048162
20
8.9444731
11
-5.2527035
21
8.8688268
0
LINE
8
layer1
10
-5.2527035
20
8.8688268
11
-5.1763472
21
8.767318
0
LINE
8
layer1
10
-5.1763472
20
8.767318
11
-5.1014796
21
8.6875421
0
LINE
8
layer1
10
-5.1014796
20
8.6875421
11
-5.0651333
21
8.6557027
0
LINE
8
layer1
10
-5.0651333
20
8.6557027
11
-5.0297798
21
8.6291599
0
LINE
8
layer1
10
-5.0297798
20
8.6291599
11
-4.9956289
21
8.6078628
0
LINE
8
layer1
10
-4.9956289
20
8.6078628
11
-4.9628948
21
8.5917473
0
LINE
8
layer1
10
-4.9628948
20
8.5917473
11
-4.9317692
21
8.5807269
0
LINE
8
layer1
10
-4.9317692
20
8.5807269
11
-4.9024483
21
8.5747465
0
LINE
8
layer1
10
-4.9024483
20
8.5747465
11
-4.8751328
21
8.573715
0
LINE
8
layer1
10
-4.8751328
20
8.573715
11
-4.8500098
21
8.5775372
0
LINE
8
layer1
10
-4.8500098
20
8.5775372
11
-4.8219843
21
8.5890111
0
LINE
8
layer1
10
-4.8219843
20
8.5890111
11
-4.6763944
21
8.6691636
0
LINE
8
layer1
10
-4.6763944
20
8.6691636
11
-4.4718064
21
8.7764143
0
LINE
8
layer1
10
-4.4718064
20
8.7764143
11
-4.264785
21
8.8788891
0
LINE
8
layer1
10
-4.264785
20
8.8788891
11
-4.1143647
21
8.9495613
0
LINE
8
layer1
10
-4.1143647
20
8.9495613
11
-4.0886091
21
8.9654902
0
LINE
8
layer1
10
-4.0886091
20
8.9654902
11
-4.07075
21
8.9835686
0
LINE
8
layer1
10
-4.07075
20
8.9835686
11
-4.0555288
21
9.0062735
0
LINE
8
layer1
10
-4.0555288
20
9.0062735
11
-4.0431327
21
9.0335098
0
LINE
8
layer1
10
-4.0431327
20
9.0335098
11
-4.0337532
21
9.0651686
0
LINE
8
layer1
10
-4.0337532
20
9.0651686
11
-4.0275503
21
9.1011235
0
LINE
8
layer1
10
-4.0275503
20
9.1011235
11
-4.0247066
21
9.1412703
0
LINE
8
layer1
10
-4.0247066
20
9.1412703
11
-4.0254
21
9.1854733
0
LINE
8
layer1
10
-4.0254
20
9.1854733
11
-4.0297948
21
9.2335928
0
LINE
8
layer1
10
-4.0297948
20
9.2335928
11
-4.0503288
21
9.3410531
0
LINE
8
layer1
10
-4.0503288
20
9.3410531
11
-4.0875699
21
9.462492
0
LINE
8
layer1
10
-4.0875699
20
9.462492
11
-4.118138
21
9.5491158
0
LINE
8
layer1
10
-4.118138
20
9.5491158
11
-4.1508334
21
9.676193
0
LINE
8
layer1
10
-4.1508334
20
9.676193
11
-4.1684429
21
9.7666137
0
LINE
8
layer1
10
-4.1684429
20
9.7666137
11
-4.1853019
21
9.8777646
0
LINE
8
layer1
10
-4.1853019
20
9.8777646
11
-4.1992817
21
10.0061288
0
LINE
8
layer1
10
-4.1992817
20
10.0061288
11
-4.2091218
21
10.1535493
0
LINE
8
layer1
10
-4.2091218
20
10.1535493
11
-4.2132191
21
10.3185985
0
LINE
8
layer1
10
-4.2132191
20
10.3185985
11
-4.2100898
21
10.502571
0
LINE
8
layer1
10
-4.2100898
20
10.502571
11
-4.1982149
21
10.7039175
0
LINE
8
layer1
10
-4.1982149
20
10.7039175
11
-4.1760633
21
10.923003
0
LINE
8
layer1
10
-4.1760633
20
10.923003
11
-4.1423027
21
11.1581382
0
LINE
8
layer1
10
-4.1423027
20
11.1581382
11
-4.1005214
21
11.3839938
0
ARC
8
layer1
10
0.0000046
20
-0.0000163
40
12.1
50
106.190949
51
109.8090449
0
LINE
8
layer1
10
-3.3739522
20
11.6200705
11
-3.2073958
21
11.4619079
0
LINE
8
layer1
10
-3.2073958
20
11.4619079
11
-3.0418739
21
11.2915235
0
LINE
8
layer1
10
-3.0418739
20
11.2915235
11
-2.8951777
21
11.1273
0
LINE
8
layer1
10
-2.8951777
20
11.1273
11
-2.7672222
21
10.9713871
0
LINE
8
layer1
10
-2.7672222
20
10.9713871
11
-2.6565542
21
10.8243896
0
LINE
8
layer1
10
-2.6565542
20
10.8243896
11
-2.5628555
21
10.6884537
0
LINE
8
layer1
10
-2.5628555
20
10.6884537
11
-2.4841647
21
10.5634041
0
LINE
8
layer1
10
-2.4841647
20
10.5634041
11
-2.420024
21
10.4513382
0
LINE
8
layer1
10
-2.420024
20
10.4513382
11
-2.3683303
21
10.3515057
0
LINE
8
layer1
10
-2.3683303
20
10.3515057
11
-2.3294287
21
10.2680032
0
LINE
8
layer1
10
-2.3294287
20
10.2680032
11
-2.2811858
21
10.1459777
0
LINE
8
layer1
10
-2.2811858
20
10.1459777
11
-2.2549997
21
10.0579301
0
LINE
8
layer1
10
-2.2549997
20
10.0579301
11
-2.2137484
21
9.9377942
0
LINE
8
layer1
10
-2.2137484
20
9.9377942
11
-2.1671972
21
9.8387875
0
LINE
8
layer1
10
-2.1671972
20
9.8387875
11
-2.1424688
21
9.7972748
0
LINE
8
layer1
10
-2.1424688
20
9.7972748
11
-2.1170478
21
9.7611062
0
LINE
8
layer1
10
-2.1170478
20
9.7611062
11
-2.0911495
21
9.7302983
0
LINE
8
layer1
10
-2.0911495
20
9.7302983
11
-2.0649975
21
9.7048561
0
LINE
8
layer1
10
-2.0649975
20
9.7048561
11
-2.0388008
21
9.6847567
0
LINE
8
layer1
10
-2.0388008
20
9.6847567
11
-2.012763
21
9.6700083
0
LINE
8
layer1
10
-2.012763
20
9.6700083
11
-1.9871032
21
9.6605864
0
LINE
8
layer1
10
-1.9871032
20
9.6605864
11
-1.9620287
21
9.6564581
0
LINE
8
layer1
10
-1.9620287
20
9.6564581
11
-1.9318292
21
9.6587101
0
LINE
8
layer1
10
-1.9318292
20
9.6587101
11
-1.7685965
21
9.6899499
0
LINE
8
layer1
10
-1.7685965
20
9.6899499
11
-1.5408795
21
9.7287302
0
LINE
8
layer1
10
-1.5408795
20
9.7287302
11
-1.312324
21
9.7622164
0
LINE
8
layer1
10
-1.312324
20
9.7622164
11
-1.1474268
21
9.7829472
0
LINE
8
layer1
10
-1.1474268
20
9.7829472
11
-1.1180095
21
9.7901376
0
LINE
8
layer1
10
-1.1180095
20
9.7901376
11
-1.0954379
21
9.8018123
0
LINE
8
layer1
10
-1.0954379
20
9.8018123
11
-1.0739455
21
9.8187024
0
LINE
8
layer1
10
-1.0739455
20
9.8187024
11
-1.0537397
21
9.8407751
0
LINE
8
layer1
10
-1.0537397
20
9.8407751
11
-1.0350361
21
9.867986
0
LINE
8
layer1
10
-1.0350361
20
9.867986
11
-1.0180261
21
9.9002643
0
LINE
8
layer1
10
-1.0180261
20
9.9002643
11
-1.0029156
21
9.9375674
0
LINE
8
layer1
10
-1.0029156
20
9.9375674
11
-0.9899155
21
9.9798213
0
LINE
8
layer1
10
-0.9899155
20
9.9798213
11
-0.9792255
21
10.0269437
0
LINE
8
layer1
10
-0.9792255
20
10.0269437
11
-0.9655474
21
10.1354898
0
LINE
8
layer1
10
-0.9655474
20
10.1354898
11
-0.9634392
21
10.2624932
0
LINE
8
layer1
10
-0.9634392
20
10.2624932
11
-0.9657429
21
10.3543234
0
LINE
8
layer1
10
-0.9657429
20
10.3543234
11
-0.9575691
21
10.4852844
0
LINE
8
layer1
10
-0.9575691
20
10.4852844
11
-0.9463752
21
10.5767213
0
LINE
8
layer1
10
-0.9463752
20
10.5767213
11
-0.9280615
21
10.6876418
0
LINE
8
layer1
10
-0.9280615
20
10.6876418
11
-0.9016904
21
10.8140434
0
LINE
8
layer1
10
-0.9016904
20
10.8140434
11
-0.8654934
21
10.9572894
0
LINE
8
layer1
10
-0.8654934
20
10.9572894
11
-0.8183872
21
11.1155266
0
LINE
8
layer1
10
-0.8183872
20
11.1155266
11
-0.7585604
21
11.2895278
0
LINE
8
layer1
10
-0.7585604
20
11.2895278
11
-0.6850472
21
11.4773502
0
LINE
8
layer1
10
-0.6850472
20
11.4773502
11
-0.5962786
21
11.6788677
0
LINE
8
layer1
10
-0.5962786
20
11.6788677
11
-0.4915097
21
11.892062
0
LINE
8
layer1
10
-0.4915097
20
11.892062
11
-0.38198
21
12.0939523
0
ARC
8
layer1
10
0
20
-0.0000169
40
12.1
50
88.1909517
51
91.8090478
0
LINE
8
layer1
10
0.38198
20
12.0939523
11
0.4915097
21
11.892062
0
LINE
8
layer1
10
0.4915097
20
11.892062
11
0.5962786
21
11.6788677
0
LINE
8
layer1
10
0.5962786
20
11.6788677
11
0.6850472
21
11.4773502
0
LINE
8
layer1
10
0.6850472
20
11.4773502
11
0.7585604
21
11.2895278
0
LINE
8
layer1
10
0.7585604
20
11.2895278
11
0.8183872
21
11.1155266
0
LINE
8
layer1
10
0.8183872
20
11.1155266
11
0.8654934
21
10.9572894
0
LINE
8
layer1
10
0.8654934
20
10.9572894
11
0.9016904
21
10.8140434
0
LINE
8
layer1
10
0.9016904
20
10.8140434
11
0.9280615
21
10.6876418
0
LINE
8
layer1
10
0.9280615
20
10.6876418
11
0.9463752
21
10.5767213
0
LINE
8
layer1
10
0.9463752
20
10.5767213
11
0.9575691
21
10.4852844
0
LINE
8
layer1
10
0.9575691
20
10.4852844
11
0.9657429
21
10.3543234
0
LINE
8
layer1
10
0.9657429
20
10.3543234
11
0.9634392
21
10.2624932
0
LINE
8
layer1
10
0.9634392
20
10.2624932
11
0.9655474
21
10.1354898
0
LINE
8
layer1
10
0.9655474
20
10.1354898
11
0.9792255
21
10.0269437
0
LINE
8
layer1
10
0.9792255
20
10.0269437
11
0.9899155
21
9.9798213
0
LINE
8
layer1
10
0.9899155
20
9.9798213
11
1.0029156
21
9.9375674
0
LINE
8
layer1
10
1.0029156
20
9.9375674
11
1.0180261
21
9.9002643
0
LINE
8
layer1
10
1.0180261
20
9.9002643
11
1.0350361
21
9.867986
0
LINE
8
layer1
10
1.0350361
20
9.867986
11
1.0537397
21
9.8407751
0
LINE
8
layer1
10
1.0537397
20
9.8407751
11
1.0739455
21
9.8187024
0
LINE
8
layer1
10
1.0739455
20
9.8187024
11
1.0954379
21
9.8018123
0
LINE
8
layer1
10
1.0954379
20
9.8018123
11
1.1180095
21
9.7901376
0
LINE
8
layer1
10
1.1180095
20
9.7901376
11
1.1474268
21
9.7829472
0
LINE
8
layer1
10
1.1474268
20
9.7829472
11
1.312324
21
9.7622164
0
LINE
8
layer1
10
1.312324
20
9.7622164
11
1.5408795
21
9.7287302
0
LINE
8
layer1
10
1.5408795
20
9.7287302
11
1.7685965
21
9.6899499
0
LINE
8
layer1
10
1.7685965
20
9.6899499
11
1.9318292
21
9.6587101
0
LINE
8
layer1
10
1.9318292
20
9.6587101
11
1.9620287
21
9.6564581
0
LINE
8
layer1
10
1.9620287
20
9.6564581
11
1.9871032
21
9.6605864
0
LINE
8
layer1
10
1.9871032
20
9.6605864
11
2.012763
21
9.6700083
0
LINE
8
layer1
10
2.012763
20
9.6700083
11
2.0388008
21
9.6847567
0
LINE
8
layer1
10
2.0388008
20
9.6847567
11
2.0649975
21
9.7048561
0
LINE
8
layer1
10
2.0649975
20
9.7048561
11
2.0911495
21
9.7302983
0
LINE
8
layer1
10
2.0911495
20
9.7302983
11
2.1170478
21
9.7611062
0
LINE
8
layer1
10
2.1170478
20
9.7611062
11
2.1424688
21
9.7972748
0
LINE
8
layer1
10
2.1424688
20
9.7972748
11
2.1671972
21
9.8387875
0
LINE
8
layer1
10
2.1671972
20
9.8387875
11
2.2137484
21
9.9377942
0
LINE
8
layer1
10
2.2137484
20
9.9377942
11
2.2549997
21
10.0579301
0
LINE
8
layer1
10
2.2549997
20
10.0579301
11
2.2811858
21
10.1459777
0
LINE
8
layer1
10
2.2811858
20
10.1459777
11
2.3294287
21
10.2680032
0
LINE
8
layer1
10
2.3294287
20
10.2680032
11
2.3683303
21
10.3515057
0
LINE
8
layer1
10
2.3683303
20
10.3515057
11
2.420024
21
10.4513382
0
LINE
8
layer1
10
2.420024
20
10.4513382
11
2.4841647
21
10.5634041
0
LINE
8
layer1
10
2.4841647
20
10.5634041
11
2.5628555
21
10.6884537
0
LINE
8
layer1
10
2.5628555
20
10.6884537
11
2.6565542
21
10.8243896
0
LINE
8
layer1
10
2.6565542
20
10.8243896
11
2.7672222
21
10.9713871
0
LINE
8
layer1
10
2.7672222
20
10.9713871
11
2.8951777
21
11.1273
0
LINE
8
layer1
10
2.8951777
20
11.1273
11
3.0418739
21
11.2915235
0
LINE
8
layer1
10
3.0418739
20
11.2915235
11
3.2073958
21
11.4619079
0
LINE
8
layer1
10
3.2073958
20
11.4619079
11
3.3739522
21
11.6200705
0
ARC
8
layer1
10
-0.0000046
20
-0.0000162
40
12.1
50
70.1909551
51
73.809051
0
LINE
8
layer1
10
4.1005214
20
11.3839938
11
4.1423027
21
11.1581382
0
LINE
8
layer1
10
4.1423027
20
11.1581382
11
4.1760633
21
10.923003
0
LINE
8
layer1
10
4.1760633
20
10.923003
11
4.1982149
21
10.7039175
0
LINE
8
layer1
10
4.1982149
20
10.7039175
11
4.2100898
21
10.502571
0
LINE
8
layer1
10
4.2100898
20
10.502571
11
4.2132191
21
10.3185985
0
LINE
8
layer1
10
4.2132191
20
10.3185985
11
4.2091218
21
10.1535493
0
LINE
8
layer1
10
4.2091218
20
10.1535493
11
4.1992817
21
10.0061288
0
LINE
8
layer1
10
4.1992817
20
10.0061288
11
4.1853019
21
9.8777646
0
LINE
8
layer1
10
4.1853019
20
9.8777646
11
4.1684429
21
9.7666137
0
LINE
8
layer1
10
4.1684429
20
9.7666137
11
4.1508334
21
9.676193
0
LINE
8
layer1
10
4.1508334
20
9.676193
11
4.118138
21
9.5491158
0
LINE
8
layer1
10
4.118138
20
9.5491158
11
4.0875699
21
9.462492
0
LINE
8
layer1
10
4.0875699
20
9.462492
11
4.0503288
21
9.3410531
0
LINE
8
layer1
10
4.0503288
20
9.3410531
11
4.0297948
21
9.2335928
0
LINE
8
layer1
10
4.0297948
20
9.2335928
11
4.0254
21
9.1854733
0
LINE
8
layer1
10
4.0254
20
9.1854733
11
4.0247066
21
9.1412703
0
LINE
8
layer1
10
4.0247066
20
9.1412703
11
4.0275503
21
9.1011235
0
LINE
8
layer1
10
4.0275503
20
9.1011235
11
4.0337532
21
9.0651686
0
LINE
8
layer1
10
4.0337532
20
9.0651686
11
4.0431327
21
9.0335098
0
LINE
8
layer1
10
4.0431327
20
9.0335098
11
4.0555288
21
9.0062735
0
LINE
8
layer1
10
4.0555288
20
9.0062735
11
4.07075
21
8.9835686
0
LINE
8
layer1
10
4.07075
20
8.9835686
11
4.0886091
21
8.9654902
0
LINE
8
layer1
10
4.0886091
20
8.9654902
11
4.1143647
21
8.9495613
0
LINE
8
layer1
10
4.1143647
20
8.9495613
11
4.264785
21
8.8788891
0
LINE
8
layer1
10
4.264785
20
8.8788891
11
4.4718064
21
8.7764143
0
LINE
8
layer1
10
4.4718064
20
8.7764143
11
4.6763944
21
8.6691636
0
LINE
8
layer1
10
4.6763944
20
8.6691636
11
4.8219843
21
8.5890111
0
LINE
8
layer1
10
4.8219843
20
8.5890111
11
4.8500098
21
8.5775372
0
LINE
8
layer1
10
4.8500098
20
8.5775372
11
4.8751328
21
8.573715
0
LINE
8
layer1
10
4.8751328
20
8.573715
11
4.9024483
21
8.5747465
0
LINE
8
layer1
10
4.9024483
20
8.5747465
11
4.9317692
21
8.5807269
0
LINE
8
layer1
10
4.9317692
20
8.5807269
11
4.9628948
21
8.5917473
0
LINE
8
layer1
10
4.9628948
20
8.5917473
11
4.9956289
21
8.6078628
0
LINE
8
layer1
10
4.9956289
20
8.6078628
11
5.0297798
21
8.6291599
0
LINE
8
layer1
10
5.0297798
20
8.6291599
11
5.0651333
21
8.6557027
0
LINE
8
layer1
10
5.0651333
20
8.6557027
11
5.1014796
21
8.6875421
0
LINE
8
layer1
10
5.1014796
20
8.6875421
11
5.1763472
21
8.767318
0
LINE
8
layer1
10
5.1763472
20
8.767318
11
5.2527035
21
8.8688268
0
LINE
8
layer1
10
5.2527035
20
8.8688268
11
5.3048162
21
8.9444731
0
LINE
8
layer1
10
5.3048162
20
8.9444731
11
5.3884059
21
9.0456183
0
LINE
8
layer1
10
5.3884059
20
9.0456183
11
5.4512072
21
9.1130126
0
LINE
8
layer1
10
5.4512072
20
9.1130126
11
5.5312207
21
9.1919847
0
LINE
8
layer1
10
5.5312207
20
9.1919847
11
5.6268524
21
9.2787452
0
LINE
8
layer1
10
5.6268524
20
9.2787452
11
5.7403343
21
9.3733576
0
LINE
8
layer1
10
5.7403343
20
9.3733576
11
5.8714535
21
9.4736858
0
LINE
8
layer1
10
5.8714535
20
9.4736858
11
6.0221297
21
9.5792905
0
LINE
8
layer1
10
6.0221297
20
9.5792905
11
6.1920024
21
9.688032
0
LINE
8
layer1
10
6.1920024
20
9.688032
11
6.3822667
21
9.7988862
0
LINE
8
layer1
10
6.3822667
20
9.7988862
11
6.592339
21
9.9097824
0
LINE
8
layer1
10
6.592339
20
9.9097824
11
6.7996185
21
10.0087352
0
ARC
8
layer1
10
-0.0000101
20
-0.0000135
40
12.1
50
52.1909507
51
55.8090468
0
LINE
8
layer1
10
7.4176752
20
9.5596907
11
7.3876183
21
9.3319781
0
LINE
8
layer1
10
7.3876183
20
9.3319781
11
7.3470657
21
9.0979187
0
LINE
8
layer1
10
7.3470657
20
9.0979187
11
7.300432
21
8.8827107
0
LINE
8
layer1
10
7.300432
20
8.8827107
11
7.2495062
21
8.6875493
0
LINE
8
layer1
10
7.2495062
20
8.6875493
11
7.1956317
21
8.511614
0
LINE
8
layer1
10
7.1956317
20
8.511614
11
7.140732
21
8.3559091
0
LINE
8
layer1
10
7.140732
20
8.3559091
11
7.0858181
21
8.2187445
0
LINE
8
layer1
10
7.0858181
20
8.2187445
11
7.0328558
21
8.100983
0
LINE
8
layer1
10
7.0328558
20
8.100983
11
6.9824744
21
8.0004819
0
LINE
8
layer1
10
6.9824744
20
8.0004819
11
6.9377853
21
7.9199283
0
LINE
8
layer1
10
6.9377853
20
7.9199283
11
6.8674211
21
7.8091742
0
LINE
8
layer1
10
6.8674211
20
7.8091742
11
6.8115808
21
7.7362361
0
LINE
8
layer1
10
6.8115808
20
7.7362361
11
6.7386357
21
7.632249
0
LINE
8
layer1
10
6.7386357
20
7.632249
11
6.6858997
21
7.5363936
0
LINE
8
layer1
10
6.6858997
20
7.5363936
11
6.6668502
21
7.4919873
0
LINE
8
layer1
10
6.6668502
20
7.4919873
11
6.6525313
21
7.4501619
0
LINE
8
layer1
10
6.6525313
20
7.4501619
11
6.6428298
21
7.4111013
0
LINE
8
layer1
10
6.6428298
20
7.4111013
11
6.6376184
21
7.3749894
0
LINE
8
layer1
10
6.6376184
20
7.3749894
11
6.6367558
21
7.3419816
0
LINE
8
layer1
10
6.6367558
20
7.3419816
11
6.6401287
21
7.3122478
0
LINE
8
layer1
10
6.6401287
20
7.3122478
11
6.6475886
21
7.2859505
0
LINE
8
layer1
10
6.6475886
20
7.2859505
11
6.6589872
21
7.2632382
0
LINE
8
layer1
10
6.6589872
20
7.2632382
11
6.6785599
21
7.24013
0
LINE
8
layer1
10
6.6785599
20
7.24013
11
6.7997792
21
7.1264343
0
LINE
8
layer1
10
6.7997792
20
7.1264343
11
6.9650018
21
6.9650018
0
LINE
8
layer1
10
6.9650018
20
6.9650018
11
7.1264343
21
6.7997792
0
LINE
8
layer1
10
7.1264343
20
6.7997792
11
7.24013
21
6.6785599
0
LINE
8
layer1
10
7.24013
20
6.6785599
11
7.2632382
21
6.6589872
0
LINE
8
layer1
10
7.2632382
20
6.6589872
11
7.2859505
21
6.6475886
0
LINE
8
layer1
10
7.2859505
20
6.6475886
11
7.3122478
21
6.6401287
0
LINE
8
layer1
10
7.3122478
20
6.6401287
11
7.3419816
21
6.6367558
0
LINE
8
layer1
10
7.3419816
20
6.6367558
11
7.3749894
21
6.6376184
0
LINE
8
layer1
10
7.3749894
20
6.6376184
11
7.4111013
21
6.6428298
0
LINE
8
layer1
10
7.4111013
20
6.6428298
11
7.4501619
21
6.6525313
0
LINE
8
layer1
10
7.4501619
20
6.6525313
11
7.4919873
21
6.6668502
0
LINE
8
layer1
10
7.4919873
20
6.6668502
11
7.5363936
21
6.6858997
0
LINE
8
layer1
10
7.5363936
20
6.6858997
11
7.632249
21
6.7386357
0
LINE
8
layer1
10
7.632249
20
6.7386357
11
7.7362361
21
6.8115808
0
LINE
8
layer1
10
7.7362361
20
6.8115808
11
7.8091742
21
6.8674211
0
LINE
8
layer1
10
7.8091742
20
6.8674211
11
7.9199283
21
6.9377853
0
LINE
8
layer1
10
7.9199283
20
6.9377853
11
8.0004819
21
6.9824744
0
LINE
8
layer1
10
8.0004819
20
6.9824744
11
8.100983
21
7.0328558
0
LINE
8
layer1
10
8.100983
20
7.0328558
11
8.2187445
21
7.0858181
0
LINE
8
layer1
10
8.2187445
20
7.0858181
11
8.3559091
21
7.140732
0
LINE
8
layer1
10
8.3559091
20
7.140732
11
8.511614
21
7.1956317
0
LINE
8
layer1
10
8.511614
20
7.1956317
11
8.6875493
21
7.2495062
0
LINE
8
layer1
10
8.6875493
20
7.2495062
11
8.8827107
21
7.300432
0
LINE
8
layer1
10
8.8827107
20
7.300432
11
9.0979187
21
7.3470657
0
LINE
8
layer1
10
9.0979187
20
7.3470657
11
9.3319781
21
7.3876183
0
LINE
8
layer1
10
9.3319781
20
7.3876183
11
9.5596907
21
7.4176752
0
ARC
8
layer1
10
-0.0000135
20
-0.0000101
40
12.1
50
34.1909532
51
37.8090493
0
LINE
8
layer1
10
10.0087352
20
6.7996185
11
9.9097824
21
6.592339
0
LINE
8
layer1
10
9.9097824
20
6.592339
11
9.7988862
21
6.3822667
0
LINE
8
layer1
10
9.7988862
20
6.3822667
11
9.688032
21
6.1920024
0
LINE
8
layer1
10
9.688032
20
6.1920024
11
9.5792905
21
6.0221297
0
LINE
8
layer1
10
9.5792905
20
6.0221297
11
9.4736858
21
5.8714535
0
LINE
8
layer1
10
9.4736858
20
5.8714535
11
9.3733576
21
5.7403343
0
LINE
8
layer1
10
9.3733576
20
5.7403343
11
9.2787452
21
5.6268524
0
LINE
8
layer1
10
9.2787452
20
5.6268524
11
9.1919847
21
5.5312207
0
LINE
8
layer1
10
9.1919847
20
5.5312207
11
9.1130126
21
5.4512072
0
LINE
8
layer1
10
9.1130126
20
5.4512072
11
9.0456183
21
5.3884059
0
LINE
8
layer1
10
9.0456183
20
5.3884059
11
8.9444731
21
5.3048162
0
LINE
8
layer1
10
8.9444731
20
5.3048162
11
8.8688268
21
5.2527035
0
LINE
8
layer1
10
8.8688268
20
5.2527035
11
8.767318
21
5.1763472
0
LINE
8
layer1
10
8.767318
20
5.1763472
11
8.6875421
21
5.1014796
0
LINE
8
layer1
10
8.6875421
20
5.1014796
11
8.6557027
21
5.0651333
0
LINE
8
layer1
10
8.6557027
20
5.0651333
11
8.6291599
21
5.0297798
0
LINE
8
layer1
10
8.6291599
20
5.0297798
11
8.6078628
21
4.9956289
0
LINE
8
layer1
10
8.6078628
20
4.9956289
11
8.5917473
21
4.9628948
0
LINE
8
layer1
10
8.5917473
20
4.9628948
11
8.5807269
21
4.9317692
0
LINE
8
layer1
10
8.5807269
20
4.9317692
11
8.5747465
21
4.9024483
0
LINE
8
layer1
10
8.5747465
20
4.9024483
11
8.573715
21
4.8751328
0
LINE
8
layer1
10
8.573715
20
4.8751328
11
8.5775372
21
4.8500098
0
LINE
8
layer1
10
8.5775372
20
4.8500098
11
8.5890111
21
4.8219843
0
LINE
8
layer1
10
8.5890111
20
4.8219843
11
8.6691636
21
4.6763944
0
LINE
8
layer1
10
8.6691636
20
4.6763944
11
8.7764143
21
4.4718064
0
LINE
8
layer1
10
8.7764143
20
4.4718064
11
8.8788891
21
4.264785
0
LINE
8
layer1
10
8.8788891
20
4.264785
11
8.9495613
21
4.1143647
0
LINE
8
layer1
10
8.9495613
20
4.1143647
11
8.9654902
21
4.0886091
0
LINE
8
layer1
10
8.9654902
20
4.0886091
11
8.9835686
21
4.07075
0
LINE
8
layer1
10
8.9835686
20
4.07075
11
9.0062735
21
4.0555288
0
LINE
8
layer1
10
9.0062735
20
4.0555288
11
9.0335098
21
4.0431327
0
LINE
8
layer1
10
9.0335098
20
4.0431327
11
9.0651686
21
4.0337532
0
LINE
8
layer1
10
9.0651686
20
4.0337532
11
9.1011235
21
4.0275503
0
LINE
8
layer1
10
9.1011235
20
4.0275503
11
9.1412703
21
4.0247066
0
LINE
8
layer1
10
9.1412703
20
4.0247066
11
9.1854733
21
4.0254
0
LINE
8
layer1
10
9.1854733
20
4.0254
11
9.2335928
21
4.0297948
0
LINE
8
layer1
10
9.2335928
20
4.0297948
11
9.3410531
21
4.0503288
0
LINE
8
layer1
10
9.3410531
20
4.0503288
11
9.462492
21
4.0875699
0
LINE
8
layer1
10
9.462492
20
4.0875699
11
9.5491158
21
4.118138
0
LINE
8
layer1
10
9.5491158
20
4.118138
11
9.676193
21
4.1508334
0
LINE
8
layer1
10
9.676193
20
4.1508334
11
9.7666137
21
4.1684429
0
LINE
8
layer1
10
9.7666137
20
4.1684429
11
9.8777646
21
4.1853019
0
LINE
8
layer1
10
9.8777646
20
4.1853019
11
10.0061288
21
4.1992817
0
LINE
8
layer1
10
10.0061288
20
4.1992817
11
10.1535493
21
4.2091218
0
LINE
8
layer1
10
10.1535493
20
4.2091218
11
10.3185985
21
4.2132191
0
LINE
8
layer1
10
10.3185985
20
4.2132191
11
10.502571
21
4.2100898
0
LINE
8
layer1
10
10.502571
20
4.2100898
11
10.7039175
21
4.1982149
0
LINE
8
layer1
10
10.7039175
20
4.1982149
11
10.923003
21
4.1760633
0
LINE
8
layer1
10
10.923003
20
4.1760633
11
11.1581382
21
4.1423027
0
LINE
8
layer1
10
11.1581382
20
4.1423027
11
11.3839938
21
4.1005214
0
ARC
8
layer1
10
-0.0000163
20
-0.0000046
40
12.1
50
16.190949
51
19.8090449
0
LINE
8
layer1
10
11.6200705
20
3.3739522
11
11.4619079
21
3.2073958
0
ENDSEC
0
EOF