0
SECTION
2
HEADER
0
ENDSEC
0
SECTION
2
TABLES
0
TABLE
2
LTYPE
0
LTYPE
72
65
70
64
2
CONTINUOUS
3
______
73
0
40
0
0
ENDTAB
0
TABLE
2
LAYER
0
ENDTAB
0
ENDSEC
0
SECTION
2
ENTITIES
0
CIRCLE
8
0
10
0
20
0
40
6
0
CIRCLE
8
0
10
0
20
0
40
6
0
LINE
8
layer0
10
9.3780058
20
2.624313
11
9.2379519
21
2.4882789
0
LINE
8
layer0
10
9.2379519
20
2.4882789
11
9.1039073
21
2.368576
0
LINE
8
layer0
10
9.1039073
20
2.368576
11
8.9764043
21
2.263952
0
LINE
8
layer0
10
8.9764043
20
2.263952
11
8.8563651
21
2.173571
0
LINE
8
layer0
10
8.8563651
20
2.173571
11
8.7442857
21
2.0963472
0
LINE
8
layer0
10
8.7442857
20
2.0963472
11
8.6424234
21
2.0322837
0
LINE
8
layer0
10
8.6424234
20
2.0322837
11
8.5499202
21
1.9793817
0
LINE
8
layer0
10
8.5499202
20
1.9793817
11
8.4700362
21
1.9380259
0
LINE
8
layer0
10
8.4700362
20
1.9380259
11
8.4018411
21
1.9062263
0
LINE
8
layer0
10
8.4018411
20
1.9062263
11
8.3020476
21
1.8666884
0
LINE
8
layer0
10
8.3020476
20
1.8666884
11
8.2066837
21
1.8384323
0
LINE
8
layer0
10
8.2066837
20
1.8384323
11
8.1106591
21
1.8036728
0
LINE
8
layer0
10
8.1106591
20
1.8036728
11
8.0319571
21
1.7647621
0
LINE
8
layer0
10
8.0319571
20
1.7647621
11
7.9991633
21
1.7441786
0
LINE
8
layer0
10
7.9991633
20
1.7441786
11
7.9707435
21
1.723083
0
LINE
8
layer0
10
7.9707435
20
1.723083
11
7.9467121
21
1.7016397
0
LINE
8
layer0
10
7.9467121
20
1.7016397
11
7.9270805
21
1.6800326
0
LINE
8
layer0
10
7.9270805
20
1.6800326
11
7.9118221
21
1.6584297
0
LINE
8
layer0
10
7.9118221
20
1.6584297
11
7.9009285
21
1.6370119
0
LINE
8
layer0
10
7.9009285
20
1.6370119
11
7.8944042
21
1.6159418
0
LINE
8
layer0
10
7.8944042
20
1.6159418
11
7.8922113
21
1.5953958
0
LINE
8
layer0
10
7.8922113
20
1.5953958
11
7.8943216
21
1.5755516
0
LINE
8
layer0
10
7.8943216
20
1.5755516
11
7.9508911
21
1.2592974
0
LINE
8
layer0
10
7.9508911
20
1.2592974
11
7.9948183
21
0.9410409
0
LINE
8
layer0
10
7.9948183
20
0.9410409
11
7.9989434
21
0.9215158
0
LINE
8
layer0
10
7.9989434
20
0.9215158
11
8.0073781
21
0.9026531
0
LINE
8
layer0
10
8.0073781
20
0.9026531
11
8.020094
21
0.8846304
0
LINE
8
layer0
10
8.020094
20
0.8846304
11
8.0370729
21
0.8676271
0
LINE
8
layer0
10
8.0370729
20
0.8676271
11
8.0582602
21
0.8517967
0
LINE
8
layer0
10
8.0582602
20
0.8517967
11
8.0836079
21
0.8373136
0
LINE
8
layer0
10
8.0836079
20
0.8373136
11
8.1130895
21
0.8243459
0
LINE
8
layer0
10
8.1130895
20
0.8243459
11
8.1466372
21
0.813065
0
LINE
8
layer0
10
8.1466372
20
0.813065
11
8.1841866
21
0.8036228
0
LINE
8
layer0
10
8.1841866
20
0.8036228
11
8.2710607
21
0.7909367
0
LINE
8
layer0
10
8.2710607
20
0.7909367
11
8.3731269
21
0.7875517
0
LINE
8
layer0
10
8.3731269
20
0.7875517
11
8.4725549
21
0.7901476
0
LINE
8
layer0
10
8.4725549
20
0.7901476
11
8.5796821
21
0.7833827
0
LINE
8
layer0
10
8.5796821
20
0.7833827
11
8.654366
21
0.774213
0
LINE
8
layer0
10
8.654366
20
0.774213
11
8.7431199
21
0.7595668
0
LINE
8
layer0
10
8.7431199
20
0.7595668
11
8.8474432
21
0.7378391
0
LINE
8
layer0
10
8.8474432
20
0.7378391
11
8.9641168
21
0.7083883
0
LINE
8
layer0
10
8.9641168
20
0.7083883
11
9.0945742
21
0.6695785
0
LINE
8
layer0
10
9.0945742
20
0.6695785
11
9.2366675
21
0.6207152
0
LINE
8
layer0
10
9.2366675
20
0.6207152
11
9.3902606
21
0.5606125
0
LINE
8
layer0
10
9.3902606
20
0.5606125
11
9.5547349
21
0.4881903
0
LINE
8
layer0
10
9.5547349
20
0.4881903
11
9.7299708
21
0.4020932
0
LINE
8
layer0
10
9.7299708
20
0.4020932
11
9.895052
21
0.3125269
0
ARC
8
layer0
10
-0.0000138
20
0
40
9.9
50
358.1909643
51
361.8090351
0
LINE
8
layer0
10
9.895052
20
-0.3125269
11
9.7299708
21
-0.4020932
0
LINE
8
layer0
10
9.7299708
20
-0.4020932
11
9.5547349
21
-0.4881903
0
LINE
8
layer0
10
9.5547349
20
-0.4881903
11
9.3902606
21
-0.5606125
0
LINE
8
layer0
10
9.3902606
20
-0.5606125
11
9.2366675
21
-0.6207152
0
LINE
8
layer0
10
9.2366675
20
-0.6207152
11
9.0945742
21
-0.6695785
0
LINE
8
layer0
10
9.0945742
20
-0.6695785
11
8.9641168
21
-0.7083883
0
LINE
8
layer0
10
8.9641168
20
-0.7083883
11
8.8474432
21
-0.7378391
0
LINE
8
layer0
10
8.8474432
20
-0.7378391
11
8.7431199
21
-0.7595668
0
LINE
8
layer0
10
8.7431199
20
-0.7595668
11
8.654366
21
-0.774213
0
LINE
8
layer0
10
8.654366
20
-0.774213
11
8.5796821
21
-0.7833827
0
LINE
8
layer0
10
8.5796821
20
-0.7833827
11
8.4725549
21
-0.7901476
0
LINE
8
layer0
10
8.4725549
20
-0.7901476
11
8.3731269
21
-0.7875517
0
LINE
8
layer0
10
8.3731269
20
-0.7875517
11
8.2710607
21
-0.7909367
0
LINE
8
layer0
10
8.2710607
20
-0.7909367
11
8.1841866
21
-0.8036228
0
LINE
8
layer0
10
8.1841866
20
-0.8036228
11
8.1466372
21
-0.813065
0
LINE
8
layer0
10
8.1466372
20
-0.813065
11
8.1130895
21
-0.8243459
0
LINE
8
layer0
10
8.1130895
20
-0.8243459
11
8.0836079
21
-0.8373136
0
LINE
8
layer0
10
8.0836079
20
-0.8373136
11
8.0582602
21
-0.8517967
0
LINE
8
layer0
10
8.0582602
20
-0.8517967
11
8.0370729
21
-0.8676271
0
LINE
8
layer0
10
8.0370729
20
-0.8676271
11
8.020094
21
-0.8846304
0
LINE
8
layer0
10
8.020094
20
-0.8846304
11
8.0073781
21
-0.9026531
0
LINE
8
layer0
10
8.0073781
20
-0.9026531
11
7.9989434
21
-0.9215158
0
LINE
8
layer0
10
7.9989434
20
-0.9215158
11
7.9948183
21
-0.9410409
0
LINE
8
layer0
10
7.9948183
20
-0.9410409
11
7.9508911
21
-1.2592974
0
LINE
8
layer0
10
7.9508911
20
-1.2592974
11
7.8943216
21
-1.5755516
0
LINE
8
layer0
10
7.8943216
20
-1.5755516
11
7.8922113
21
-1.5953958
0
LINE
8
layer0
10
7.8922113
20
-1.5953958
11
7.8944042
21
-1.6159418
0
LINE
8
layer0
10
7.8944042
20
-1.6159418
11
7.9009285
21
-1.6370119
0
LINE
8
layer0
10
7.9009285
20
-1.6370119
11
7.9118221
21
-1.6584297
0
LINE
8
layer0
10
7.9118221
20
-1.6584297
11
7.9270805
21
-1.6800326
0
LINE
8
layer0
10
7.9270805
20
-1.6800326
11
7.9467121
21
-1.7016397
0
LINE
8
layer0
10
7.9467121
20
-1.7016397
11
7.9707435
21
-1.723083
0
LINE
8
layer0
10
7.9707435
20
-1.723083
11
7.9991633
21
-1.7441786
0
LINE
8
layer0
10
7.9991633
20
-1.7441786
11
8.0319571
21
-1.7647621
0
LINE
8
layer0
10
8.0319571
20
-1.7647621
11
8.1106591
21
-1.8036728
0
LINE
8
layer0
10
8.1106591
20
-1.8036728
11
8.2066837
21
-1.8384323
0
LINE
8
layer0
10
8.2066837
20
-1.8384323
11
8.3020476
21
-1.8666884
0
LINE
8
layer0
10
8.3020476
20
-1.8666884
11
8.4018411
21
-1.9062263
0
LINE
8
layer0
10
8.4018411
20
-1.9062263
11
8.4700362
21
-1.9380259
0
LINE
8
layer0
10
8.4700362
20
-1.9380259
11
8.5499202
21
-1.9793817
0
LINE
8
layer0
10
8.5499202
20
-1.9793817
11
8.6424234
21
-2.0322837
0
LINE
8
layer0
10
8.6424234
20
-2.0322837
11
8.7442857
21
-2.0963472
0
LINE
8
layer0
10
8.7442857
20
-2.0963472
11
8.8563651
21
-2.173571
0
LINE
8
layer0
10
8.8563651
20
-2.173571
11
8.9764043
21
-2.263952
0
LINE
8
layer0
10
8.9764043
20
-2.263952
11
9.1039073
21
-2.368576
0
LINE
8
layer0
10
9.1039073
20
-2.368576
11
9.2379519
21
-2.4882789
0
LINE
8
layer0
10
9.2379519
20
-2.4882789
11
9.3780058
21
-2.624313
0
LINE
8
layer0
10
9.3780058
20
-2.624313
11
9.5073298
21
-2.7605084
0
ARC
8
layer0
10
-0.0000131
20
0.0000045
40
9.9
50
340.1909633
51
343.8090342
0
LINE
8
layer0
10
9.3141775
20
-3.35497
11
9.1294985
21
-3.3891397
0
LINE
8
layer0
10
9.1294985
20
-3.3891397
11
8.9362338
21
-3.416872
0
LINE
8
layer0
10
8.9362338
20
-3.416872
11
8.7574297
21
-3.4349242
0
LINE
8
layer0
10
8.7574297
20
-3.4349242
11
8.5927812
21
-3.4446224
0
LINE
8
layer0
10
8.5927812
20
-3.4446224
11
8.4425429
21
-3.4471849
0
LINE
8
layer0
10
8.4425429
20
-3.4471849
11
8.3064777
21
-3.4437817
0
LINE
8
layer0
10
8.3064777
20
-3.4437817
11
8.1864137
21
-3.435737
0
LINE
8
layer0
10
8.1864137
20
-3.435737
11
8.0804821
21
-3.4241636
0
LINE
8
layer0
10
8.0804821
20
-3.4241636
11
7.9915462
21
-3.4106665
0
LINE
8
layer0
10
7.9915462
20
-3.4106665
11
7.917684
21
-3.3963088
0
LINE
8
layer0
10
7.917684
20
-3.3963088
11
7.8137095
21
-3.3696385
0
LINE
8
layer0
10
7.8137095
20
-3.3696385
11
7.71995
21
-3.3364447
0
LINE
8
layer0
10
7.71995
20
-3.3364447
11
7.6218333
21
-3.3081238
0
LINE
8
layer0
10
7.6218333
20
-3.3081238
11
7.5352909
21
-3.2933434
0
LINE
8
layer0
10
7.5352909
20
-3.2933434
11
7.4966615
21
-3.2907201
0
LINE
8
layer0
10
7.4966615
20
-3.2907201
11
7.4612697
21
-3.291082
0
LINE
8
layer0
10
7.4612697
20
-3.291082
11
7.4292239
21
-3.2943048
0
LINE
8
layer0
10
7.4292239
20
-3.2943048
11
7.4006412
21
-3.3002461
0
LINE
8
layer0
10
7.4006412
20
-3.3002461
11
7.375599
21
-3.3087546
0
LINE
8
layer0
10
7.375599
20
-3.3087546
11
7.3541968
21
-3.3196788
0
LINE
8
layer0
10
7.3541968
20
-3.3196788
11
7.3365339
21
-3.33289
0
LINE
8
layer0
10
7.3365339
20
-3.33289
11
7.3226832
21
-3.3482231
0
LINE
8
layer0
10
7.3226832
20
-3.3482231
11
7.3127264
21
-3.3655178
0
LINE
8
layer0
10
7.3127264
20
-3.3655178
11
7.1726025
21
-3.6546235
0
LINE
8
layer0
10
7.1726025
20
-3.6546235
11
7.0210738
21
-3.9379182
0
LINE
8
layer0
10
7.0210738
20
-3.9379182
11
7.0129346
21
-3.956139
0
LINE
8
layer0
10
7.0129346
20
-3.956139
11
7.0086711
21
-3.9763571
0
LINE
8
layer0
10
7.0086711
20
-3.9763571
11
7.008365
21
-3.998412
0
LINE
8
layer0
10
7.008365
20
-3.998412
11
7.012107
21
-4.0221478
0
LINE
8
layer0
10
7.012107
20
-4.0221478
11
7.019943
21
-4.0474085
0
LINE
8
layer0
10
7.019943
20
-4.0474085
11
7.0319368
21
-4.0740246
0
LINE
8
layer0
10
7.0319368
20
-4.0740246
11
7.0481656
21
-4.1018445
0
LINE
8
layer0
10
7.0481656
20
-4.1018445
11
7.0686756
21
-4.1306898
0
LINE
8
layer0
10
7.0686756
20
-4.1306898
11
7.0935037
21
-4.1603997
0
LINE
8
layer0
10
7.0935037
20
-4.1603997
11
7.1563296
21
-4.2217263
0
LINE
8
layer0
10
7.1563296
20
-4.2217263
11
7.2369132
21
-4.2844578
0
LINE
8
layer0
10
7.2369132
20
-4.2844578
11
7.318878
21
-4.3408
0
LINE
8
layer0
10
7.318878
20
-4.3408
11
7.4015694
21
-4.4092407
0
LINE
8
layer0
10
7.4015694
20
-4.4092407
11
7.4566001
21
-4.4605573
0
LINE
8
layer0
10
7.4566001
20
-4.4605573
11
7.5197947
21
-4.5245745
0
LINE
8
layer0
10
7.5197947
20
-4.5245745
11
7.5914229
21
-4.6034723
0
LINE
8
layer0
10
7.5914229
20
-4.6034723
11
7.668503
21
-4.6958775
0
LINE
8
layer0
10
7.668503
20
-4.6958775
11
7.7512334
21
-4.8039562
0
LINE
8
layer0
10
7.7512334
20
-4.8039562
11
7.8374682
21
-4.9270078
0
LINE
8
layer0
10
7.8374682
20
-4.9270078
11
7.9264001
21
-5.0659117
0
LINE
8
layer0
10
7.9264001
20
-5.0659117
11
8.0168939
21
-5.221178
0
LINE
8
layer0
10
8.0168939
20
-5.221178
11
8.1080562
21
-5.3938331
0
LINE
8
layer0
10
8.1080562
20
-5.3938331
11
8.1889639
21
-5.563326
0
ARC
8
layer0
10
-0.0000108
20
0.0000087
40
9.9
50
322.1909605
51
325.8090313
0
LINE
8
layer0
10
7.8215665
20
-6.0690052
11
7.6353673
21
-6.0444336
0
LINE
8
layer0
10
7.6353673
20
-6.0444336
11
7.4429918
21
-6.0110865
0
LINE
8
layer0
10
7.4429918
20
-6.0110865
11
7.2673607
21
-5.9730017
0
LINE
8
layer0
10
7.2673607
20
-5.9730017
11
7.1077737
21
-5.931346
0
LINE
8
layer0
10
7.1077737
20
-5.931346
11
6.9640967
21
-5.8873569
0
LINE
8
layer0
10
6.9640967
20
-5.8873569
11
6.8357427
21
-5.8420738
0
LINE
8
layer0
10
6.8357427
20
-5.8420738
11
6.724041
21
-5.797321
0
LINE
8
layer0
10
6.724041
20
-5.797321
11
6.6268704
21
-5.7535794
0
LINE
8
layer0
10
6.6268704
20
-5.7535794
11
6.5464582
21
-5.7132602
0
LINE
8
layer0
10
6.5464582
20
-5.7132602
11
6.4806478
21
-5.6767805
0
LINE
8
layer0
10
6.4806478
20
-5.6767805
11
6.3900038
21
-5.6192857
0
LINE
8
layer0
10
6.3900038
20
-5.6192857
11
6.3110907
21
-5.5587432
0
LINE
8
layer0
10
6.3110907
20
-5.5587432
11
6.2265278
21
-5.5014887
0
LINE
8
layer0
10
6.2265278
20
-5.5014887
11
6.1487884
21
-5.4606887
0
LINE
8
layer0
10
6.1487884
20
-5.4606887
11
6.1128603
21
-5.4462566
0
LINE
8
layer0
10
6.1128603
20
-5.4462566
11
6.0790889
21
-5.4356642
0
LINE
8
layer0
10
6.0790889
20
-5.4356642
11
6.0476156
21
-5.4288265
0
LINE
8
layer0
10
6.0476156
20
-5.4288265
11
6.0185959
21
-5.4256445
0
LINE
8
layer0
10
6.0185959
20
-5.4256445
11
5.9921501
21
-5.425998
0
LINE
8
layer0
10
5.9921501
20
-5.425998
11
5.9684196
21
-5.429774
0
LINE
8
layer0
10
5.9684196
20
-5.429774
11
5.9475388
21
-5.4368804
0
LINE
8
layer0
10
5.9475388
20
-5.4368804
11
5.9296278
21
-5.4471829
0
LINE
8
layer0
10
5.9296278
20
-5.4471829
11
5.9148139
21
-5.4605543
0
LINE
8
layer0
10
5.9148139
20
-5.4605543
11
5.6922096
21
-5.6922096
0
LINE
8
layer0
10
5.6922096
20
-5.6922096
11
5.4605543
21
-5.9148139
0
LINE
8
layer0
10
5.4605543
20
-5.9148139
11
5.4471829
21
-5.9296278
0
LINE
8
layer0
10
5.4471829
20
-5.9296278
11
5.4368804
21
-5.9475388
0
LINE
8
layer0
10
5.4368804
20
-5.9475388
11
5.429774
21
-5.9684196
0
LINE
8
layer0
10
5.429774
20
-5.9684196
11
5.425998
21
-5.9921501
0
LINE
8
layer0
10
5.425998
20
-5.9921501
11
5.4256445
21
-6.0185959
0
LINE
8
layer0
10
5.4256445
20
-6.0185959
11
5.4288265
21
-6.0476156
0
LINE
8
layer0
10
5.4288265
20
-6.0476156
11
5.4356642
21
-6.0790889
0
LINE
8
layer0
10
5.4356642
20
-6.0790889
11
5.4462566
21
-6.1128603
0
LINE
8
layer0
10
5.4462566
20
-6.1128603
11
5.4606887
21
-6.1487884
0
LINE
8
layer0
10
5.4606887
20
-6.1487884
11
5.5014887
21
-6.2265278
0
LINE
8
layer0
10
5.5014887
20
-6.2265278
11
5.5587432
21
-6.3110907
0
LINE
8
layer0
10
5.5587432
20
-6.3110907
11
5.6192857
21
-6.3900038
0
LINE
8
layer0
10
5.6192857
20
-6.3900038
11
5.6767805
21
-6.4806478
0
LINE
8
layer0
10
5.6767805
20
-6.4806478
11
5.7132602
21
-6.5464582
0
LINE
8
layer0
10
5.7132602
20
-6.5464582
11
5.7535794
21
-6.6268704
0
LINE
8
layer0
10
5.7535794
20
-6.6268704
11
5.797321
21
-6.724041
0
LINE
8
layer0
10
5.797321
20
-6.724041
11
5.8420738
21
-6.8357427
0
LINE
8
layer0
10
5.8420738
20
-6.8357427
11
5.8873569
21
-6.9640967
0
LINE
8
layer0
10
5.8873569
20
-6.9640967
11
5.931346
21
-7.1077737
0
LINE
8
layer0
10
5.931346
20
-7.1077737
11
5.9730017
21
-7.2673607
0
LINE
8
layer0
10
5.9730017
20
-7.2673607
11
6.0110865
21
-7.4429918
0
LINE
8
layer0
10
6.0110865
20
-7.4429918
11
6.0444336
21
-7.6353673
0
LINE
8
layer0
10
6.0444336
20
-7.6353673
11
6.0690052
21
-7.8215665
0
ARC
8
layer0
10
-0.0000087
20
0.0000107
40
9.9
50
304.1909687
51
307.8090395
0
LINE
8
layer0
10
5.563326
20
-8.1889639
11
5.3938331
21
-8.1080562
0
LINE
8
layer0
10
5.3938331
20
-8.1080562
11
5.221178
21
-8.0168939
0
LINE
8
layer0
10
5.221178
20
-8.0168939
11
5.0659117
21
-7.9264001
0
LINE
8
layer0
10
5.0659117
20
-7.9264001
11
4.9270078
21
-7.8374682
0
LINE
8
layer0
10
4.9270078
20
-7.8374682
11
4.8039562
21
-7.7512334
0
LINE
8
layer0
10
4.8039562
20
-7.7512334
11
4.6958775
21
-7.668503
0
LINE
8
layer0
10
4.6958775
20
-7.668503
11
4.6034723
21
-7.5914229
0
LINE
8
layer0
10
4.6034723
20
-7.5914229
11
4.5245745
21
-7.5197947
0
LINE
8
layer0
10
4.5245745
20
-7.5197947
11
4.4605573
21
-7.4566001
0
LINE
8
layer0
10
4.4605573
20
-7.4566001
11
4.4092407
21
-7.4015694
0
LINE
8
layer0
10
4.4092407
20
-7.4015694
11
4.3408
21
-7.318878
0
LINE
8
layer0
10
4.3408
20
-7.318878
11
4.2844578
21
-7.2369132
0
LINE
8
layer0
10
4.2844578
20
-7.2369132
11
4.2217263
21
-7.1563296
0
LINE
8
layer0
10
4.2217263
20
-7.1563296
11
4.1603997
21
-7.0935037
0
LINE
8
layer0
10
4.1603997
20
-7.0935037
11
4.1306898
21
-7.0686756
0
LINE
8
layer0
10
4.1306898
20
-7.0686756
11
4.1018445
21
-7.0481656
0
LINE
8
layer0
10
4.1018445
20
-7.0481656
11
4.0740246
21
-7.0319368
0
LINE
8
layer0
10
4.0740246
20
-7.0319368
11
4.0474085
21
-7.019943
0
LINE
8
layer0
10
4.0474085
20
-7.019943
11
4.0221478
21
-7.012107
0
LINE
8
layer0
10
4.0221478
20
-7.012107
11
3.998412
21
-7.008365
0
LINE
8
layer0
10
3.998412
20
-7.008365
11
3.9763571
21
-7.0086711
0
LINE
8
layer0
10
3.9763571
20
-7.0086711
11
3.956139
21
-7.0129346
0
LINE
8
layer0
10
3.956139
20
-7.0129346
11
3.9379182
21
-7.0210738
0
LINE
8
layer0
10
3.9379182
20
-7.0210738
11
3.6546235
21
-7.1726025
0
LINE
8
layer0
10
3.6546235
20
-7.1726025
11
3.3655178
21
-7.3127264
0
LINE
8
layer0
10
3.3655178
20
-7.3127264
11
3.3482231
21
-7.3226832
0
LINE
8
layer0
10
3.3482231
20
-7.3226832
11
3.33289
21
-7.3365339
0
LINE
8
layer0
10
3.33289
20
-7.3365339
11
3.3196788
21
-7.3541968
0
LINE
8
layer0
10
3.3196788
20
-7.3541968
11
3.3087546
21
-7.375599
0
LINE
8
layer0
10
3.3087546
20
-7.375599
11
3.3002461
21
-7.4006412
0
LINE
8
layer0
10
3.3002461
20
-7.4006412
11
3.2943048
21
-7.4292239
0
LINE
8
layer0
10
3.2943048
20
-7.4292239
11
3.291082
21
-7.4612697
0
LINE
8
layer0
10
3.291082
20
-7.4612697
11
3.2907201
21
-7.4966615
0
LINE
8
layer0
10
3.2907201
20
-7.4966615
11
3.2933434
21
-7.5352909
0
LINE
8
layer0
10
3.2933434
20
-7.5352909
11
3.3081238
21
-7.6218333
0
LINE
8
layer0
10
3.3081238
20
-7.6218333
11
3.3364447
21
-7.71995
0
LINE
8
layer0
10
3.3364447
20
-7.71995
11
3.3696385
21
-7.8137095
0
LINE
8
layer0
10
3.3696385
20
-7.8137095
11
3.3963088
21
-7.917684
0
LINE
8
layer0
10
3.3963088
20
-7.917684
11
3.4106665
21
-7.9915462
0
LINE
8
layer0
10
3.4106665
20
-7.9915462
11
3.4241636
21
-8.0804821
0
LINE
8
layer0
10
3.4241636
20
-8.0804821
11
3.435737
21
-8.1864137
0
LINE
8
layer0
10
3.435737
20
-8.1864137
11
3.4437817
21
-8.3064777
0
LINE
8
layer0
10
3.4437817
20
-8.3064777
11
3.4471849
21
-8.4425429
0
LINE
8
layer0
10
3.4471849
20
-8.4425429
11
3.4446224
21
-8.5927812
0
LINE
8
layer0
10
3.4446224
20
-8.5927812
11
3.4349242
21
-8.7574297
0
LINE
8
layer0
10
3.4349242
20
-8.7574297
11
3.416872
21
-8.9362338
0
LINE
8
layer0
10
3.416872
20
-8.9362338
11
3.3891397
21
-9.1294985
0
LINE
8
layer0
10
3.3891397
20
-9.1294985
11
3.35497
21
-9.3141775
0
ARC
8
layer0
10
-0.0000045
20
0.0000131
40
9.9
50
286.1909658
51
289.8090367
0
LINE
8
layer0
10
2.7605084
20
-9.5073298
11
2.624313
21
-9.3780058
0
LINE
8
layer0
10
2.624313
20
-9.3780058
11
2.4882789
21
-9.2379519
0
LINE
8
layer0
10
2.4882789
20
-9.2379519
11
2.368576
21
-9.1039073
0
LINE
8
layer0
10
2.368576
20
-9.1039073
11
2.263952
21
-8.9764043
0
LINE
8
layer0
10
2.263952
20
-8.9764043
11
2.173571
21
-8.8563651
0
LINE
8
layer0
10
2.173571
20
-8.8563651
11
2.0963472
21
-8.7442857
0
LINE
8
layer0
10
2.0963472
20
-8.7442857
11
2.0322837
21
-8.6424234
0
LINE
8
layer0
10
2.0322837
20
-8.6424234
11
1.9793817
21
-8.5499202
0
LINE
8
layer0
10
1.9793817
20
-8.5499202
11
1.9380259
21
-8.4700362
0
LINE
8
layer0
10
1.9380259
20
-8.4700362
11
1.9062263
21
-8.4018411
0
LINE
8
layer0
10
1.9062263
20
-8.4018411
11
1.8666884
21
-8.3020476
0
LINE
8
layer0
10
1.8666884
20
-8.3020476
11
1.8384323
21
-8.2066837
0
LINE
8
layer0
10
1.8384323
20
-8.2066837
11
1.8036728
21
-8.1106591
0
LINE
8
layer0
10
1.8036728
20
-8.1106591
11
1.7647621
21
-8.0319571
0
LINE
8
layer0
10
1.7647621
20
-8.0319571
11
1.7441786
21
-7.9991633
0
LINE
8
layer0
10
1.7441786
20
-7.9991633
11
1.723083
21
-7.9707435
0
LINE
8
layer0
10
1.723083
20
-7.9707435
11
1.7016397
21
-7.9467121
0
LINE
8
layer0
10
1.7016397
20
-7.9467121
11
1.6800326
21
-7.9270805
0
LINE
8
layer0
10
1.6800326
20
-7.9270805
11
1.6584297
21
-7.9118221
0
LINE
8
layer0
10
1.6584297
20
-7.9118221
11
1.6370119
21
-7.9009285
0
LINE
8
layer0
10
1.6370119
20
-7.9009285
11
1.6159418
21
-7.8944042
0
LINE
8
layer0
10
1.6159418
20
-7.8944042
11
1.5953958
21
-7.8922113
0
LINE
8
layer0
10
1.5953958
20
-7.8922113
11
1.5755516
21
-7.8943216
0
LINE
8
layer0
10
1.5755516
20
-7.8943216
11
1.2592974
21
-7.9508911
0
LINE
8
layer0
10
1.2592974
20
-7.9508911
11
0.9410409
21
-7.9948183
0
LINE
8
layer0
10
0.9410409
20
-7.9948183
11
0.9215158
21
-7.9989434
0
LINE
8
layer0
10
0.9215158
20
-7.9989434
11
0.9026531
21
-8.0073781
0
LINE
8
layer0
10
0.9026531
20
-8.0073781
11
0.8846304
21
-8.020094
0
LINE
8
layer0
10
0.8846304
20
-8.020094
11
0.8676271
21
-8.0370729
0
LINE
8
layer0
10
0.8676271
20
-8.0370729
11
0.8517967
21
-8.0582602
0
LINE
8
layer0
10
0.8517967
20
-8.0582602
11
0.8373136
21
-8.0836079
0
LINE
8
layer0
10
0.8373136
20
-8.0836079
11
0.8243459
21
-8.1130895
0
LINE
8
layer0
10
0.8243459
20
-8.1130895
11
0.813065
21
-8.1466372
0
LINE
8
layer0
10
0.813065
20
-8.1466372
11
0.8036228
21
-8.1841866
0
LINE
8
layer0
10
0.8036228
20
-8.1841866
11
0.7909367
21
-8.2710607
0
LINE
8
layer0
10
0.7909367
20
-8.2710607
11
0.7875517
21
-8.3731269
0
LINE
8
layer0
10
0.7875517
20
-8.3731269
11
0.7901476
21
-8.4725549
0
LINE
8
layer0
10
0.7901476
20
-8.4725549
11
0.7833827
21
-8.5796821
0
LINE
8
layer0
10
0.7833827
20
-8.5796821
11
0.774213
21
-8.654366
0
LINE
8
layer0
10
0.774213
20
-8.654366
11
0.7595668
21
-8.7431199
0
LINE
8
layer0
10
0.7595668
20
-8.7431199
11
0.7378391
21
-8.8474432
0
LINE
8
layer0
10
0.7378391
20
-8.8474432
11
0.7083883
21
-8.9641168
0
LINE
8
layer0
10
0.7083883
20
-8.9641168
11
0.6695785
21
-9.0945742
0
LINE
8
layer0
10
0.6695785
20
-9.0945742
11
0.6207152
21
-9.2366675
0
LINE
8
layer0
10
0.6207152
20
-9.2366675
11
0.5606125
21
-9.3902606
0
LINE
8
layer0
10
0.5606125
20
-9.3902606
11
0.4881903
21
-9.5547349
0
LINE
8
layer0
10
0.4881903
20
-9.5547349
11
0.4020932
21
-9.7299708
0
LINE
8
layer0
10
0.4020932
20
-9.7299708
11
0.3125269
21
-9.895052
0
ARC
8
layer0
10
-1e-7
20
0.0000138
40
9.9
50
268.1909649
51
271.8090357
0
LINE
8
layer0
10
-0.3125269
20
-9.895052
11
-0.4020932
21
-9.7299708
0
LINE
8
layer0
10
-0.4020932
20
-9.7299708
11
-0.4881903
21
-9.5547349
0
LINE
8
layer0
10
-0.4881903
20
-9.5547349
11
-0.5606125
21
-9.3902606
0
LINE
8
layer0
10
-0.5606125
20
-9.3902606
11
-0.6207152
21
-9.2366675
0
LINE
8
layer0
10
-0.6207152
20
-9.2366675
11
-0.6695785
21
-9.0945742
0
LINE
8
layer0
10
-0.6695785
20
-9.0945742
11
-0.7083883
21
-8.9641168
0
LINE
8
layer0
10
-0.7083883
20
-8.9641168
11
-0.7378391
21
-8.8474432
0
LINE
8
layer0
10
-0.7378391
20
-8.8474432
11
-0.7595668
21
-8.7431199
0
LINE
8
layer0
10
-0.7595668
20
-8.7431199
11
-0.774213
21
-8.654366
0
LINE
8
layer0
10
-0.774213
20
-8.654366
11
-0.7833827
21
-8.5796821
0
LINE
8
layer0
10
-0.7833827
20
-8.5796821
11
-0.7901476
21
-8.4725549
0
LINE
8
layer0
10
-0.7901476
20
-8.4725549
11
-0.7875517
21
-8.3731269
0
LINE
8
layer0
10
-0.7875517
20
-8.3731269
11
-0.7909367
21
-8.2710607
0
LINE
8
layer0
10
-0.7909367
20
-8.2710607
11
-0.8036228
21
-8.1841866
0
LINE
8
layer0
10
-0.8036228
20
-8.1841866
11
-0.813065
21
-8.1466372
0
LINE
8
layer0
10
-0.813065
20
-8.1466372
11
-0.8243459
21
-8.1130895
0
LINE
8
layer0
10
-0.8243459
20
-8.1130895
11
-0.8373136
21
-8.0836079
0
LINE
8
layer0
10
-0.8373136
20
-8.0836079
11
-0.8517967
21
-8.0582602
0
LINE
8
layer0
10
-0.8517967
20
-8.0582602
11
-0.8676271
21
-8.0370729
0
LINE
8
layer0
10
-0.8676271
20
-8.0370729
11
-0.8846304
21
-8.020094
0
LINE
8
layer0
10
-0.8846304
20
-8.020094
11
-0.9026531
21
-8.0073781
0
LINE
8
layer0
10
-0.9026531
20
-8.0073781
11
-0.9215158
21
-7.9989434
0
LINE
8
layer0
10
-0.9215158
20
-7.9989434
11
-0.9410409
21
-7.9948183
0
LINE
8
layer0
10
-0.9410409
20
-7.9948183
11
-1.2592974
21
-7.9508911
0
LINE
8
layer0
10
-1.2592974
20
-7.9508911
11
-1.5755516
21
-7.8943216
0
LINE
8
layer0
10
-1.5755516
20
-7.8943216
11
-1.5953958
21
-7.8922113
0
LINE
8
layer0
10
-1.5953958
20
-7.8922113
11
-1.6159418
21
-7.8944042
0
LINE
8
layer0
10
-1.6159418
20
-7.8944042
11
-1.6370119
21
-7.9009285
0
LINE
8
layer0
10
-1.6370119
20
-7.9009285
11
-1.6584297
21
-7.9118221
0
LINE
8
layer0
10
-1.6584297
20
-7.9118221
11
-1.6800326
21
-7.9270805
0
LINE
8
layer0
10
-1.6800326
20
-7.9270805
11
-1.7016397
21
-7.9467121
0
LINE
8
layer0
10
-1.7016397
20
-7.9467121
11
-1.723083
21
-7.9707435
0
LINE
8
layer0
10
-1.723083
20
-7.9707435
11
-1.7441786
21
-7.9991633
0
LINE
8
layer0
10
-1.7441786
20
-7.9991633
11
-1.7647621
21
-8.0319571
0
LINE
8
layer0
10
-1.7647621
20
-8.0319571
11
-1.8036728
21
-8.1106591
0
LINE
8
layer0
10
-1.8036728
20
-8.1106591
11
-1.8384323
21
-8.2066837
0
LINE
8
layer0
10
-1.8384323
20
-8.2066837
11
-1.8666884
21
-8.3020476
0
LINE
8
layer0
10
-1.8666884
20
-8.3020476
11
-1.9062263
21
-8.4018411
0
LINE
8
layer0
10
-1.9062263
20
-8.4018411
11
-1.9380259
21
-8.4700362
0
LINE
8
layer0
10
-1.9380259
20
-8.4700362
11
-1.9793817
21
-8.5499202
0
LINE
8
layer0
10
-1.9793817
20
-8.5499202
11
-2.0322837
21
-8.6424234
0
LINE
8
layer0
10
-2.0322837
20
-8.6424234
11
-2.0963472
21
-8.7442857
0
LINE
8
layer0
10
-2.0963472
20
-8.7442857
11
-2.173571
21
-8.8563651
0
LINE
8
layer0
10
-2.173571
20
-8.8563651
11
-2.263952
21
-8.9764043
0
LINE
8
layer0
10
-2.263952
20
-8.9764043
11
-2.368576
21
-9.1039073
0
LINE
8
layer0
10
-2.368576
20
-9.1039073
11
-2.4882789
21
-9.2379519
0
LINE
8
layer0
10
-2.4882789
20
-9.2379519
11
-2.624313
21
-9.3780058
0
LINE
8
layer0
10
-2.624313
20
-9.3780058
11
-2.7605084
21
-9.5073298
0
ARC
8
layer0
10
0.0000045
20
0.0000131
40
9.9
50
250.1909633
51
253.8090342
0
LINE
8
layer0
10
-3.35497
20
-9.3141775
11
-3.3891397
21
-9.1294985
0
LINE
8
layer0
10
-3.3891397
20
-9.1294985
11
-3.416872
21
-8.9362338
0
LINE
8
layer0
10
-3.416872
20
-8.9362338
11
-3.4349242
21
-8.7574297
0
LINE
8
layer0
10
-3.4349242
20
-8.7574297
11
-3.4446224
21
-8.5927812
0
LINE
8
layer0
10
-3.4446224
20
-8.5927812
11
-3.4471849
21
-8.4425429
0
LINE
8
layer0
10
-3.4471849
20
-8.4425429
11
-3.4437817
21
-8.3064777
0
LINE
8
layer0
10
-3.4437817
20
-8.3064777
11
-3.435737
21
-8.1864137
0
LINE
8
layer0
10
-3.435737
20
-8.1864137
11
-3.4241636
21
-8.0804821
0
LINE
8
layer0
10
-3.4241636
20
-8.0804821
11
-3.4106665
21
-7.9915462
0
LINE
8
layer0
10
-3.4106665
20
-7.9915462
11
-3.3963088
21
-7.917684
0
LINE
8
layer0
10
-3.3963088
20
-7.917684
11
-3.3696385
21
-7.8137095
0
LINE
8
layer0
10
-3.3696385
20
-7.8137095
11
-3.3364447
21
-7.71995
0
LINE
8
layer0
10
-3.3364447
20
-7.71995
11
-3.3081238
21
-7.6218333
0
LINE
8
layer0
10
-3.3081238
20
-7.6218333
11
-3.2933434
21
-7.5352909
0
LINE
8
layer0
10
-3.2933434
20
-7.5352909
11
-3.2907201
21
-7.4966615
0
LINE
8
layer0
10
-3.2907201
20
-7.4966615
11
-3.291082
21
-7.4612697
0
LINE
8
layer0
10
-3.291082
20
-7.4612697
11
-3.2943048
21
-7.4292239
0
LINE
8
layer0
10
-3.2943048
20
-7.4292239
11
-3.3002461
21
-7.4006412
0
LINE
8
layer0
10
-3.3002461
20
-7.4006412
11
-3.3087546
21
-7.375599
0
LINE
8
layer0
10
-3.3087546
20
-7.375599
11
-3.3196788
21
-7.3541968
0
LINE
8
layer0
10
-3.3196788
20
-7.3541968
11
-3.33289
21
-7.3365339
0
LINE
8
layer0
10
-3.33289
20
-7.3365339
11
-3.3482231
21
-7.3226832
0
LINE
8
layer0
10
-3.3482231
20
-7.3226832
11
-3.3655178
21
-7.3127264
0
LINE
8
layer0
10
-3.3655178
20
-7.3127264
11
-3.6546235
21
-7.1726025
0
LINE
8
layer0
10
-3.6546235
20
-7.1726025
11
-3.9379182
21
-7.0210738
0
LINE
8
layer0
10
-3.9379182
20
-7.0210738
11
-3.956139
21
-7.0129346
0
LINE
8
layer0
10
-3.956139
20
-7.0129346
11
-3.9763571
21
-7.0086711
0
LINE
8
layer0
10
-3.9763571
20
-7.0086711
11
-3.998412
21
-7.008365
0
LINE
8
layer0
10
-3.998412
20
-7.008365
11
-4.0221478
21
-7.012107
0
LINE
8
layer0
10
-4.0221478
20
-7.012107
11
-4.0474085
21
-7.019943
0
LINE
8
layer0
10
-4.0474085
20
-7.019943
11
-4.0740246
21
-7.0319368
0
LINE
8
layer0
10
-4.0740246
20
-7.0319368
11
-4.1018445
21
-7.0481656
0
LINE
8
layer0
10
-4.1018445
20
-7.0481656
11
-4.1306898
21
-7.0686756
0
LINE
8
layer0
10
-4.1306898
20
-7.0686756
11
-4.1603997
21
-7.0935037
0
LINE
8
layer0
10
-4.1603997
20
-7.0935037
11
-4.2217263
21
-7.1563296
0
LINE
8
layer0
10
-4.2217263
20
-7.1563296
11
-4.2844578
21
-7.2369132
0
LINE
8
layer0
10
-4.2844578
20
-7.2369132
11
-4.3408
21
-7.318878
0
LINE
8
layer0
10
-4.3408
20
-7.318878
11
-4.4092407
21
-7.4015694
0
LINE
8
layer0
10
-4.4092407
20
-7.4015694
11
-4.4605573
21
-7.4566001
0
LINE
8
layer0
10
-4.4605573
20
-7.4566001
11
-4.5245745
21
-7.5197947
0
LINE
8
layer0
10
-4.5245745
20
-7.5197947
11
-4.6034723
21
-7.5914229
0
LINE
8
layer0
10
-4.6034723
20
-7.5914229
11
-4.6958775
21
-7.668503
0
LINE
8
layer0
10
-4.6958775
20
-7.668503
11
-4.8039562
21
-7.7512334
0
LINE
8
layer0
10
-4.8039562
20
-7.7512334
11
-4.9270078
21
-7.8374682
0
LINE
8
layer0
10
-4.9270078
20
-7.8374682
11
-5.0659117
21
-7.9264001
0
LINE
8
layer0
10
-5.0659117
20
-7.9264001
11
-5.221178
21
-8.0168939
0
LINE
8
layer0
10
-5.221178
20
-8.0168939
11
-5.3938331
21
-8.1080562
0
LINE
8
layer0
10
-5.3938331
20
-8.1080562
11
-5.563326
21
-8.1889639
0
ARC
8
layer0
10
0.0000087
20
0.0000108
40
9.9
50
232.1909605
51
235.8090313
0
LINE
8
layer0
10
-6.0690052
20
-7.8215665
11
-6.0444336
21
-7.6353673
0
LINE
8
layer0
10
-6.0444336
20
-7.6353673
11
-6.0110865
21
-7.4429918
0
LINE
8
layer0
10
-6.0110865
20
-7.4429918
11
-5.9730017
21
-7.2673607
0
LINE
8
layer0
10
-5.9730017
20
-7.2673607
11
-5.931346
21
-7.1077737
0
LINE
8
layer0
10
-5.931346
20
-7.1077737
11
-5.8873569
21
-6.9640967
0
LINE
8
layer0
10
-5.8873569
20
-6.9640967
11
-5.8420738
21
-6.8357427
0
LINE
8
layer0
10
-5.8420738
20
-6.8357427
11
-5.797321
21
-6.724041
0
LINE
8
layer0
10
-5.797321
20
-6.724041
11
-5.7535794
21
-6.6268704
0
LINE
8
layer0
10
-5.7535794
20
-6.6268704
11
-5.7132602
21
-6.5464582
0
LINE
8
layer0
10
-5.7132602
20
-6.5464582
11
-5.6767805
21
-6.4806478
0
LINE
8
layer0
10
-5.6767805
20
-6.4806478
11
-5.6192857
21
-6.3900038
0
LINE
8
layer0
10
-5.6192857
20
-6.3900038
11
-5.5587432
21
-6.3110907
0
LINE
8
layer0
10
-5.5587432
20
-6.3110907
11
-5.5014887
21
-6.2265278
0
LINE
8
layer0
10
-5.5014887
20
-6.2265278
11
-5.4606887
21
-6.1487884
0
LINE
8
layer0
10
-5.4606887
20
-6.1487884
11
-5.4462566
21
-6.1128603
0
LINE
8
layer0
10
-5.4462566
20
-6.1128603
11
-5.4356642
21
-6.0790889
0
LINE
8
layer0
10
-5.4356642
20
-6.0790889
11
-5.4288265
21
-6.0476156
0
LINE
8
layer0
10
-5.4288265
20
-6.0476156
11
-5.4256445
21
-6.0185959
0
LINE
8
layer0
10
-5.4256445
20
-6.0185959
11
-5.425998
21
-5.9921501
0
LINE
8
layer0
10
-5.425998
20
-5.9921501
11
-5.429774
21
-5.9684196
0
LINE
8
layer0
10
-5.429774
20
-5.9684196
11
-5.4368804
21
-5.9475388
0
LINE
8
layer0
10
-5.4368804
20
-5.9475388
11
-5.4471829
21
-5.9296278
0
LINE
8
layer0
10
-5.4471829
20
-5.9296278
11
-5.4605543
21
-5.9148139
0
LINE
8
layer0
10
-5.4605543
20
-5.9148139
11
-5.6922096
21
-5.6922096
0
LINE
8
layer0
10
-5.6922096
20
-5.6922096
11
-5.9148139
21
-5.4605543
0
LINE
8
layer0
10
-5.9148139
20
-5.4605543
11
-5.9296278
21
-5.4471829
0
LINE
8
layer0
10
-5.9296278
20
-5.4471829
11
-5.9475388
21
-5.4368804
0
LINE
8
layer0
10
-5.9475388
20
-5.4368804
11
-5.9684196
21
-5.429774
0
LINE
8
layer0
10
-5.9684196
20
-5.429774
11
-5.9921501
21
-5.425998
0
LINE
8
layer0
10
-5.9921501
20
-5.425998
11
-6.0185959
21
-5.4256445
0
LINE
8
layer0
10
-6.0185959
20
-5.4256445
11
-6.0476156
21
-5.4288265
0
LINE
8
layer0
10
-6.0476156
20
-5.4288265
11
-6.0790889
21
-5.4356642
0
LINE
8
layer0
10
-6.0790889
20
-5.4356642
11
-6.1128603
21
-5.4462566
0
LINE
8
layer0
10
-6.1128603
20
-5.4462566
11
-6.1487884
21
-5.4606887
0
LINE
8
layer0
10
-6.1487884
20
-5.4606887
11
-6.2265278
21
-5.5014887
0
LINE
8
layer0
10
-6.2265278
20
-5.5014887
11
-6.3110907
21
-5.5587432
0
LINE
8
layer0
10
-6.3110907
20
-5.5587432
11
-6.3900038
21
-5.6192857
0
LINE
8
layer0
10
-6.3900038
20
-5.6192857
11
-6.4806478
21
-5.6767805
0
LINE
8
layer0
10
-6.4806478
20
-5.6767805
11
-6.5464582
21
-5.7132602
0
LINE
8
layer0
10
-6.5464582
20
-5.7132602
11
-6.6268704
21
-5.7535794
0
LINE
8
layer0
10
-6.6268704
20
-5.7535794
11
-6.724041
21
-5.797321
0
LINE
8
layer0
10
-6.724041
20
-5.797321
11
-6.8357427
21
-5.8420738
0
LINE
8
layer0
10
-6.8357427
20
-5.8420738
11
-6.9640967
21
-5.8873569
0
LINE
8
layer0
10
-6.9640967
20
-5.8873569
11
-7.1077737
21
-5.931346
0
LINE
8
layer0
10
-7.1077737
20
-5.931346
11
-7.2673607
21
-5.9730017
0
LINE
8
layer0
10
-7.2673607
20
-5.9730017
11
-7.4429918
21
-6.0110865
0
LINE
8
layer0
10
-7.4429918
20
-6.0110865
11
-7.6353673
21
-6.0444336
0
LINE
8
layer0
10
-7.6353673
20
-6.0444336
11
-7.8215665
21
-6.0690052
0
ARC
8
layer0
10
0.0000107
20
0.0000087
40
9.9
50
214.1909687
51
217.8090395
0
LINE
8
layer0
10
-8.1889639
20
-5.563326
11
-8.1080562
21
-5.3938331
0
LINE
8
layer0
10
-8.1080562
20
-5.3938331
11
-8.0168939
21
-5.221178
0
LINE
8
layer0
10
-8.0168939
20
-5.221178
11
-7.9264001
21
-5.0659117
0
LINE
8
layer0
10
-7.9264001
20
-5.0659117
11
-7.8374682
21
-4.9270078
0
LINE
8
layer0
10
-7.8374682
20
-4.9270078
11
-7.7512334
21
-4.8039562
0
LINE
8
layer0
10
-7.7512334
20
-4.8039562
11
-7.668503
21
-4.6958775
0
LINE
8
layer0
10
-7.668503
20
-4.6958775
11
-7.5914229
21
-4.6034723
0
LINE
8
layer0
10
-7.5914229
20
-4.6034723
11
-7.5197947
21
-4.5245745
0
LINE
8
layer0
10
-7.5197947
20
-4.5245745
11
-7.4566001
21
-4.4605573
0
LINE
8
layer0
10
-7.4566001
20
-4.4605573
11
-7.4015694
21
-4.4092407
0
LINE
8
layer0
10
-7.4015694
20
-4.4092407
11
-7.318878
21
-4.3408
0
LINE
8
layer0
10
-7.318878
20
-4.3408
11
-7.2369132
21
-4.2844578
0
LINE
8
layer0
10
-7.2369132
20
-4.2844578
11
-7.1563296
21
-4.2217263
0
LINE
8
layer0
10
-7.1563296
20
-4.2217263
11
-7.0935037
21
-4.1603997
0
LINE
8
layer0
10
-7.0935037
20
-4.1603997
11
-7.0686756
21
-4.1306898
0
LINE
8
layer0
10
-7.0686756
20
-4.1306898
11
-7.0481656
21
-4.1018445
0
LINE
8
layer0
10
-7.0481656
20
-4.1018445
11
-7.0319368
21
-4.0740246
0
LINE
8
layer0
10
-7.0319368
20
-4.0740246
11
-7.019943
21
-4.0474085
0
LINE
8
layer0
10
-7.019943
20
-4.0474085
11
-7.012107
21
-4.0221478
0
LINE
8
layer0
10
-7.012107
20
-4.0221478
11
-7.008365
21
-3.998412
0
LINE
8
layer0
10
-7.008365
20
-3.998412
11
-7.0086711
21
-3.9763571
0
LINE
8
layer0
10
-7.0086711
20
-3.9763571
11
-7.0129346
21
-3.956139
0
LINE
8
layer0
10
-7.0129346
20
-3.956139
11
-7.0210738
21
-3.9379182
0
LINE
8
layer0
10
-7.0210738
20
-3.9379182
11
-7.1726025
21
-3.6546235
0
LINE
8
layer0
10
-7.1726025
20
-3.6546235
11
-7.3127264
21
-3.3655178
0
LINE
8
layer0
10
-7.3127264
20
-3.3655178
11
-7.3226832
21
-3.3482231
0
LINE
8
layer0
10
-7.3226832
20
-3.3482231
11
-7.3365339
21
-3.33289
0
LINE
8
layer0
10
-7.3365339
20
-3.33289
11
-7.3541968
21
-3.3196788
0
LINE
8
layer0
10
-7.3541968
20
-3.3196788
11
-7.375599
21
-3.3087546
0
LINE
8
layer0
10
-7.375599
20
-3.3087546
11
-7.4006412
21
-3.3002461
0
LINE
8
layer0
10
-7.4006412
20
-3.3002461
11
-7.4292239
21
-3.2943048
0
LINE
8
layer0
10
-7.4292239
20
-3.2943048
11
-7.4612697
21
-3.291082
0
LINE
8
layer0
10
-7.4612697
20
-3.291082
11
-7.4966615
21
-3.2907201
0
LINE
8
layer0
10
-7.4966615
20
-3.2907201
11
-7.5352909
21
-3.2933434
0
LINE
8
layer0
10
-7.5352909
20
-3.2933434
11
-7.6218333
21
-3.3081238
0
LINE
8
layer0
10
-7.6218333
20
-3.3081238
11
-7.71995
21
-3.3364447
0
LINE
8
layer0
10
-7.71995
20
-3.3364447
11
-7.8137095
21
-3.3696385
0
LINE
8
layer0
10
-7.8137095
20
-3.3696385
11
-7.917684
21
-3.3963088
0
LINE
8
layer0
10
-7.917684
20
-3.3963088
11
-7.9915462
21
-3.4106665
0
LINE
8
layer0
10
-7.9915462
20
-3.4106665
11
-8.0804821
21
-3.4241636
0
LINE
8
layer0
10
-8.0804821
20
-3.4241636
11
-8.1864137
21
-3.435737
0
LINE
8
layer0
10
-8.1864137
20
-3.435737
11
-8.3064777
21
-3.4437817
0
LINE
8
layer0
10
-8.3064777
20
-3.4437817
11
-8.4425429
21
-3.4471849
0
LINE
8
layer0
10
-8.4425429
20
-3.4471849
11
-8.5927812
21
-3.4446224
0
LINE
8
layer0
10
-8.5927812
20
-3.4446224
11
-8.7574297
21
-3.4349242
0
LINE
8
layer0
10
-8.7574297
20
-3.4349242
11
-8.9362338
21
-3.416872
0
LINE
8
layer0
10
-8.9362338
20
-3.416872
11
-9.1294985
21
-3.3891397
0
LINE
8
layer0
10
-9.1294985
20
-3.3891397
11
-9.3141775
21
-3.35497
0
ARC
8
layer0
10
0.0000131
20
0.0000045
40
9.9
50
196.1909658
51
199.8090367
0
LINE
8
layer0
10
-9.5073298
20
-2.7605084
11
-9.3780058
21
-2.624313
0
LINE
8
layer0
10
-9.3780058
20
-2.624313
11
-9.2379519
21
-2.4882789
0
LINE
8
layer0
10
-9.2379519
20
-2.4882789
11
-9.1039073
21
-2.368576
0
LINE
8
layer0
10
-9.1039073
20
-2.368576
11
-8.9764043
21
-2.263952
0
LINE
8
layer0
10
-8.9764043
20
-2.263952
11
-8.8563651
21
-2.173571
0
LINE
8
layer0
10
-8.8563651
20
-2.173571
11
-8.7442857
21
-2.0963472
0
LINE
8
layer0
10
-8.7442857
20
-2.0963472
11
-8.6424234
21
-2.0322837
0
LINE
8
layer0
10
-8.6424234
20
-2.0322837
11
-8.5499202
21
-1.9793817
0
LINE
8
layer0
10
-8.5499202
20
-1.9793817
11
-8.4700362
21
-1.9380259
0
LINE
8
layer0
10
-8.4700362
20
-1.9380259
11
-8.4018411
21
-1.9062263
0
LINE
8
layer0
10
-8.4018411
20
-1.9062263
11
-8.3020476
21
-1.8666884
0
LINE
8
layer0
10
-8.3020476
20
-1.8666884
11
-8.2066837
21
-1.8384323
0
LINE
8
layer0
10
-8.2066837
20
-1.8384323
11
-8.1106591
21
-1.8036728
0
LINE
8
layer0
10
-8.1106591
20
-1.8036728
11
-8.0319571
21
-1.7647621
0
LINE
8
layer0
10
-8.0319571
20
-1.7647621
11
-7.9991633
21
-1.7441786
0
LINE
8
layer0
10
-7.9991633
20
-1.7441786
11
-7.9707435
21
-1.723083
0
LINE
8
layer0
10
-7.9707435
20
-1.723083
11
-7.9467121
21
-1.7016397
0
LINE
8
layer0
10
-7.9467121
20
-1.7016397
11
-7.9270805
21
-1.6800326
0
LINE
8
layer0
10
-7.9270805
20
-1.6800326
11
-7.9118221
21
-1.6584297
0
LINE
8
layer0
10
-7.9118221
20
-1.6584297
11
-7.9009285
21
-1.6370119
0
LINE
8
layer0
10
-7.9009285
20
-1.6370119
11
-7.8944042
21
-1.6159418
0
LINE
8
layer0
10
-7.8944042
20
-1.6159418
11
-7.8922113
21
-1.5953958
0
LINE
8
layer0
10
-7.8922113
20
-1.5953958
11
-7.8943216
21
-1.5755516
0
LINE
8
layer0
10
-7.8943216
20
-1.5755516
11
-7.9508911
21
-1.2592974
0
LINE
8
layer0
10
-7.9508911
20
-1.2592974
11
-7.9948183
21
-0.9410409
0
LINE
8
layer0
10
-7.9948183
20
-0.9410409
11
-7.9989434
21
-0.9215158
0
LINE
8
layer0
10
-7.9989434
20
-0.9215158
11
-8.0073781
21
-0.9026531
0
LINE
8
layer0
10
-8.0073781
20
-0.9026531
11
-8.020094
21
-0.8846304
0
LINE
8
layer0
10
-8.020094
20
-0.8846304
11
-8.0370729
21
-0.8676271
0
LINE
8
layer0
10
-8.0370729
20
-0.8676271
11
-8.0582602
21
-0.8517967
0
LINE
8
layer0
10
-8.0582602
20
-0.8517967
11
-8.0836079
21
-0.8373136
0
LINE
8
layer0
10
-8.0836079
20
-0.8373136
11
-8.1130895
21
-0.8243459
0
LINE
8
layer0
10
-8.1130895
20
-0.8243459
11
-8.1466372
21
-0.813065
0
LINE
8
layer0
10
-8.1466372
20
-0.813065
11
-8.1841866
21
-0.8036228
0
LINE
8
layer0
10
-8.1841866
20
-0.8036228
11
-8.2710607
21
-0.7909367
0
LINE
8
layer0
10
-8.2710607
20
-0.7909367
11
-8.3731269
21
-0.7875517
0
LINE
8
layer0
10
-8.3731269
20
-0.7875517
11
-8.4725549
21
-0.7901476
0
LINE
8
layer0
10
-8.4725549
20
-0.7901476
11
-8.5796821
21
-0.7833827
0
LINE
8
layer0
10
-8.5796821
20
-0.7833827
11
-8.654366
21
-0.774213
0
LINE
8
layer0
10
-8.654366
20
-0.774213
11
-8.7431199
21
-0.7595668
0
LINE
8
layer0
10
-8.7431199
20
-0.7595668
11
-8.8474432
21
-0.7378391
0
LINE
8
layer0
10
-8.8474432
20
-0.7378391
11
-8.9641168
21
-0.7083883
0
LINE
8
layer0
10
-8.9641168
20
-0.7083883
11
-9.0945742
21
-0.6695785
0
LINE
8
layer0
10
-9.0945742
20
-0.6695785
11
-9.2366675
21
-0.6207152
0
LINE
8
layer0
10
-9.2366675
20
-0.6207152
11
-9.3902606
21
-0.5606125
0
LINE
8
layer0
10
-9.3902606
20
-0.5606125
11
-9.5547349
21
-0.4881903
0
LINE
8
layer0
10
-9.5547349
20
-0.4881903
11
-9.7299708
21
-0.4020932
0
LINE
8
layer0
10
-9.7299708
20
-0.4020932
11
-9.895052
21
-0.3125269
0
ARC
8
layer0
10
0.0000138
20
1e-7
40
9.9
50
178.1909649
51
181.8090357
0
LINE
8
layer0
10
-9.895052
20
0.3125269
11
-9.7299708
21
0.4020932
0
LINE
8
layer0
10
-9.7299708
20
0.4020932
11
-9.5547349
21
0.4881903
0
LINE
8
layer0
10
-9.5547349
20
0.4881903
11
-9.3902606
21
0.5606125
0
LINE
8
layer0
10
-9.3902606
20
0.5606125
11
-9.2366675
21
0.6207152
0
LINE
8
layer0
10
-9.2366675
20
0.6207152
11
-9.0945742
21
0.6695785
0
LINE
8
layer0
10
-9.0945742
20
0.6695785
11
-8.9641168
21
0.7083883
0
LINE
8
layer0
10
-8.9641168
20
0.7083883
11
-8.8474432
21
0.7378391
0
LINE
8
layer0
10
-8.8474432
20
0.7378391
11
-8.7431199
21
0.7595668
0
LINE
8
layer0
10
-8.7431199
20
0.7595668
11
-8.654366
21
0.774213
0
LINE
8
layer0
10
-8.654366
20
0.774213
11
-8.5796821
21
0.7833827
0
LINE
8
layer0
10
-8.5796821
20
0.7833827
11
-8.4725549
21
0.7901476
0
LINE
8
layer0
10
-8.4725549
20
0.7901476
11
-8.3731269
21
0.7875517
0
LINE
8
layer0
10
-8.3731269
20
0.7875517
11
-8.2710607
21
0.7909367
0
LINE
8
layer0
10
-8.2710607
20
0.7909367
11
-8.1841866
21
0.8036228
0
LINE
8
layer0
10
-8.1841866
20
0.8036228
11
-8.1466372
21
0.813065
0
LINE
8
layer0
10
-8.1466372
20
0.813065
11
-8.1130895
21
0.8243459
0
LINE
8
layer0
10
-8.1130895
20
0.8243459
11
-8.0836079
21
0.8373136
0
LINE
8
layer0
10
-8.0836079
20
0.8373136
11
-8.0582602
21
0.8517967
0
LINE
8
layer0
10
-8.0582602
20
0.8517967
11
-8.0370729
21
0.8676271
0
LINE
8
layer0
10
-8.0370729
20
0.8676271
11
-8.020094
21
0.8846304
0
LINE
8
layer0
10
-8.020094
20
0.8846304
11
-8.0073781
21
0.9026531
0
LINE
8
layer0
10
-8.0073781
20
0.9026531
11
-7.9989434
21
0.9215158
0
LINE
8
layer0
10
-7.9989434
20
0.9215158
11
-7.9948183
21
0.9410409
0
LINE
8
layer0
10
-7.9948183
20
0.9410409
11
-7.9508911
21
1.2592974
0
LINE
8
layer0
10
-7.9508911
20
1.2592974
11
-7.8943216
21
1.5755516
0
LINE
8
layer0
10
-7.8943216
20
1.5755516
11
-7.8922113
21
1.5953958
0
LINE
8
layer0
10
-7.8922113
20
1.5953958
11
-7.8944042
21
1.6159418
0
LINE
8
layer0
10
-7.8944042
20
1.6159418
11
-7.9009285
21
1.6370119
0
LINE
8
layer0
10
-7.9009285
20
1.6370119
11
-7.9118221
21
1.6584297
0
LINE
8
layer0
10
-7.9118221
20
1.6584297
11
-7.9270805
21
1.6800326
0
LINE
8
layer0
10
-7.9270805
20
1.6800326
11
-7.9467121
21
1.7016397
0
LINE
8
layer0
10
-7.9467121
20
1.7016397
11
-7.9707435
21
1.723083
0
LINE
8
layer0
10
-7.9707435
20
1.723083
11
-7.9991633
21
1.7441786
0
LINE
8
layer0
10
-7.9991633
20
1.7441786
11
-8.0319571
21
1.7647621
0
LINE
8
layer0
10
-8.0319571
20
1.7647621
11
-8.1106591
21
1.8036728
0
LINE
8
layer0
10
-8.1106591
20
1.8036728
11
-8.2066837
21
1.8384323
0
LINE
8
layer0
10
-8.2066837
20
1.8384323
11
-8.3020476
21
1.8666884
0
LINE
8
layer0
10
-8.3020476
20
1.8666884
11
-8.4018411
21
1.9062263
0
LINE
8
layer0
10
-8.4018411
20
1.9062263
11
-8.4700362
21
1.9380259
0
LINE
8
layer0
10
-8.4700362
20
1.9380259
11
-8.5499202
21
1.9793817
0
LINE
8
layer0
10
-8.5499202
20
1.9793817
11
-8.6424234
21
2.0322837
0
LINE
8
layer0
10
-8.6424234
20
2.0322837
11
-8.7442857
21
2.0963472
0
LINE
8
layer0
10
-8.7442857
20
2.0963472
11
-8.8563651
21
2.173571
0
LINE
8
layer0
10
-8.8563651
20
2.173571
11
-8.9764043
21
2.263952
0
LINE
8
layer0
10
-8.9764043
20
2.263952
11
-9.1039073
21
2.368576
0
LINE
8
layer0
10
-9.1039073
20
2.368576
11
-9.2379519
21
2.4882789
0
LINE
8
layer0
10
-9.2379519
20
2.4882789
11
-9.3780058
21
2.624313
0
LINE
8
layer0
10
-9.3780058
20
2.624313
11
-9.5073298
21
2.7605084
0
ARC
8
layer0
10
0.0000131
20
-0.0000045
40
9.9
50
160.1909633
51
163.8090342
0
LINE
8
layer0
10
-9.3141775
20
3.35497
11
-9.1294985
21
3.3891397
0
LINE
8
layer0
10
-9.1294985
20
3.3891397
11
-8.9362338
21
3.416872
0
LINE
8
layer0
10
-8.9362338
20
3.416872
11
-8.7574297
21
3.4349242
0
LINE
8
layer0
10
-8.7574297
20
3.4349242
11
-8.5927812
21
3.4446224
0
LINE
8
layer0
10
-8.5927812
20
3.4446224
11
-8.4425429
21
3.4471849
0
LINE
8
layer0
10
-8.4425429
20
3.4471849
11
-8.3064777
21
3.4437817
0
LINE
8
layer0
10
-8.3064777
20
3.4437817
11
-8.1864137
21
3.435737
0
LINE
8
layer0
10
-8.1864137
20
3.435737
11
-8.0804821
21
3.4241636
0
LINE
8
layer0
10
-8.0804821
20
3.4241636
11
-7.9915462
21
3.4106665
0
LINE
8
layer0
10
-7.9915462
20
3.4106665
11
-7.917684
21
3.3963088
0
LINE
8
layer0
10
-7.917684
20
3.3963088
11
-7.8137095
21
3.3696385
0
LINE
8
layer0
10
-7.8137095
20
3.3696385
11
-7.71995
21
3.3364447
0
LINE
8
layer0
10
-7.71995
20
3.3364447
11
-7.6218333
21
3.3081238
0
LINE
8
layer0
10
-7.6218333
20
3.3081238
11
-7.5352909
21
3.2933434
0
LINE
8
layer0
10
-7.5352909
20
3.2933434
11
-7.4966615
21
3.2907201
0
LINE
8
layer0
10
-7.4966615
20
3.2907201
11
-7.4612697
21
3.291082
0
LINE
8
layer0
10
-7.4612697
20
3.291082
11
-7.4292239
21
3.2943048
0
LINE
8
layer0
10
-7.4292239
20
3.2943048
11
-7.4006412
21
3.3002461
0
LINE
8
layer0
10
-7.4006412
20
3.3002461
11
-7.375599
21
3.3087546
0
LINE
8
layer0
10
-7.375599
20
3.3087546
11
-7.3541968
21
3.3196788
0
LINE
8
layer0
10
-7.3541968
20
3.3196788
11
-7.3365339
21
3.33289
0
LINE
8
layer0
10
-7.3365339
20
3.33289
11
-7.3226832
21
3.3482231
0
LINE
8
layer0
10
-7.3226832
20
3.3482231
11
-7.3127264
21
3.3655178
0
LINE
8
layer0
10
-7.3127264
20
3.3655178
11
-7.1726025
21
3.6546235
0
LINE
8
layer0
10
-7.1726025
20
3.6546235
11
-7.0210738
21
3.9379182
0
LINE
8
layer0
10
-7.0210738
20
3.9379182
11
-7.0129346
21
3.956139
0
LINE
8
layer0
10
-7.0129346
20
3.956139
11
-7.0086711
21
3.9763571
0
LINE
8
layer0
10
-7.0086711
20
3.9763571
11
-7.008365
21
3.998412
0
LINE
8
layer0
10
-7.008365
20
3.998412
11
-7.012107
21
4.0221478
0
LINE
8
layer0
10
-7.012107
20
4.0221478
11
-7.019943
21
4.0474085
0
LINE
8
layer0
10
-7.019943
20
4.0474085
11
-7.0319368
21
4.0740246
0
LINE
8
layer0
10
-7.0319368
20
4.0740246
11
-7.0481656
21
4.1018445
0
LINE
8
layer0
10
-7.0481656
20
4.1018445
11
-7.0686756
21
4.1306898
0
LINE
8
layer0
10
-7.0686756
20
4.1306898
11
-7.0935037
21
4.1603997
0
LINE
8
layer0
10
-7.0935037
20
4.1603997
11
-7.1563296
21
4.2217263
0
LINE
8
layer0
10
-7.1563296
20
4.2217263
11
-7.2369132
21
4.2844578
0
LINE
8
layer0
10
-7.2369132
20
4.2844578
11
-7.318878
21
4.3408
0
LINE
8
layer0
10
-7.318878
20
4.3408
11
-7.4015694
21
4.4092407
0
LINE
8
layer0
10
-7.4015694
20
4.4092407
11
-7.4566001
21
4.4605573
0
LINE
8
layer0
10
-7.4566001
20
4.4605573
11
-7.5197947
21
4.5245745
0
LINE
8
layer0
10
-7.5197947
20
4.5245745
11
-7.5914229
21
4.6034723
0
LINE
8
layer0
10
-7.5914229
20
4.6034723
11
-7.668503
21
4.6958775
0
LINE
8
layer0
10
-7.668503
20
4.6958775
11
-7.7512334
21
4.8039562
0
LINE
8
layer0
10
-7.7512334
20
4.8039562
11
-7.8374682
21
4.9270078
0
LINE
8
layer0
10
-7.8374682
20
4.9270078
11
-7.9264001
21
5.0659117
0
LINE
8
layer0
10
-7.9264001
20
5.0659117
11
-8.0168939
21
5.221178
0
LINE
8
layer0
10
-8.0168939
20
5.221178
11
-8.1080562
21
5.3938331
0
LINE
8
layer0
10
-8.1080562
20
5.3938331
11
-8.1889639
21
5.563326
0
ARC
8
layer0
10
0.0000108
20
-0.0000087
40
9.9
50
142.1909605
51
145.8090313
0
LINE
8
layer0
10
-7.8215665
20
6.0690052
11
-7.6353673
21
6.0444336
0
LINE
8
layer0
10
-7.6353673
20
6.0444336
11
-7.4429918
21
6.0110865
0
LINE
8
layer0
10
-7.4429918
20
6.0110865
11
-7.2673607
21
5.9730017
0
LINE
8
layer0
10
-7.2673607
20
5.9730017
11
-7.1077737
21
5.931346
0
LINE
8
layer0
10
-7.1077737
20
5.931346
11
-6.9640967
21
5.8873569
0
LINE
8
layer0
10
-6.9640967
20
5.8873569
11
-6.8357427
21
5.8420738
0
LINE
8
layer0
10
-6.8357427
20
5.8420738
11
-6.724041
21
5.797321
0
LINE
8
layer0
10
-6.724041
20
5.797321
11
-6.6268704
21
5.7535794
0
LINE
8
layer0
10
-6.6268704
20
5.7535794
11
-6.5464582
21
5.7132602
0
LINE
8
layer0
10
-6.5464582
20
5.7132602
11
-6.4806478
21
5.6767805
0
LINE
8
layer0
10
-6.4806478
20
5.6767805
11
-6.3900038
21
5.6192857
0
LINE
8
layer0
10
-6.3900038
20
5.6192857
11
-6.3110907
21
5.5587432
0
LINE
8
layer0
10
-6.3110907
20
5.5587432
11
-6.2265278
21
5.5014887
0
LINE
8
layer0
10
-6.2265278
20
5.5014887
11
-6.1487884
21
5.4606887
0
LINE
8
layer0
10
-6.1487884
20
5.4606887
11
-6.1128603
21
5.4462566
0
LINE
8
layer0
10
-6.1128603
20
5.4462566
11
-6.0790889
21
5.4356642
0
LINE
8
layer0
10
-6.0790889
20
5.4356642
11
-6.0476156
21
5.4288265
0
LINE
8
layer0
10
-6.0476156
20
5.4288265
11
-6.0185959
21
5.4256445
0
LINE
8
layer0
10
-6.0185959
20
5.4256445
11
-5.9921501
21
5.425998
0
LINE
8
layer0
10
-5.9921501
20
5.425998
11
-5.9684196
21
5.429774
0
LINE
8
layer0
10
-5.9684196
20
5.429774
11
-5.9475388
21
5.4368804
0
LINE
8
layer0
10
-5.9475388
20
5.4368804
11
-5.9296278
21
5.4471829
0
LINE
8
layer0
10
-5.9296278
20
5.4471829
11
-5.9148139
21
5.4605543
0
LINE
8
layer0
10
-5.9148139
20
5.4605543
11
-5.6922096
21
5.6922096
0
LINE
8
layer0
10
-5.6922096
20
5.6922096
11
-5.4605543
21
5.9148139
0
LINE
8
layer0
10
-5.4605543
20
5.9148139
11
-5.4471829
21
5.9296278
0
LINE
8
layer0
10
-5.4471829
20
5.9296278
11
-5.4368804
21
5.9475388
0
LINE
8
layer0
10
-5.4368804
20
5.9475388
11
-5.429774
21
5.9684196
0
LINE
8
layer0
10
-5.429774
20
5.9684196
11
-5.425998
21
5.9921501
0
LINE
8
layer0
10
-5.425998
20
5.9921501
11
-5.4256445
21
6.0185959
0
LINE
8
layer0
10
-5.4256445
20
6.0185959
11
-5.4288265
21
6.0476156
0
LINE
8
layer0
10
-5.4288265
20
6.0476156
11
-5.4356642
21
6.0790889
0
LINE
8
layer0
10
-5.4356642
20
6.0790889
11
-5.4462566
21
6.1128603
0
LINE
8
layer0
10
-5.4462566
20
6.1128603
11
-5.4606887
21
6.1487884
0
LINE
8
layer0
10
-5.4606887
20
6.1487884
11
-5.5014887
21
6.2265278
0
LINE
8
layer0
10
-5.5014887
20
6.2265278
11
-5.5587432
21
6.3110907
0
LINE
8
layer0
10
-5.5587432
20
6.3110907
11
-5.6192857
21
6.3900038
0
LINE
8
layer0
10
-5.6192857
20
6.3900038
11
-5.6767805
21
6.4806478
0
LINE
8
layer0
10
-5.6767805
20
6.4806478
11
-5.7132602
21
6.5464582
0
LINE
8
layer0
10
-5.7132602
20
6.5464582
11
-5.7535794
21
6.6268704
0
LINE
8
layer0
10
-5.7535794
20
6.6268704
11
-5.797321
21
6.724041
0
LINE
8
layer0
10
-5.797321
20
6.724041
11
-5.8420738
21
6.8357427
0
LINE
8
layer0
10
-5.8420738
20
6.8357427
11
-5.8873569
21
6.9640967
0
LINE
8
layer0
10
-5.8873569
20
6.9640967
11
-5.931346
21
7.1077737
0
LINE
8
layer0
10
-5.931346
20
7.1077737
11
-5.9730017
21
7.2673607
0
LINE
8
layer0
10
-5.9730017
20
7.2673607
11
-6.0110865
21
7.4429918
0
LINE
8
layer0
10
-6.0110865
20
7.4429918
11
-6.0444336
21
7.6353673
0
LINE
8
layer0
10
-6.0444336
20
7.6353673
11
-6.0690052
21
7.8215665
0
ARC
8
layer0
10
0.0000087
20
-0.0000107
40
9.9
50
124.1909687
51
127.8090395
0
LINE
8
layer0
10
-5.563326
20
8.1889639
11
-5.3938331
21
8.1080562
0
LINE
8
layer0
10
-5.3938331
20
8.1080562
11
-5.221178
21
8.0168939
0
LINE
8
layer0
10
-5.221178
20
8.0168939
11
-5.0659117
21
7.9264001
0
LINE
8
layer0
10
-5.0659117
20
7.9264001
11
-4.9270078
21
7.8374682
0
LINE
8
layer0
10
-4.9270078
20
7.8374682
11
-4.8039562
21
7.7512334
0
LINE
8
layer0
10
-4.8039562
20
7.7512334
11
-4.6958775
21
7.668503
0
LINE
8
layer0
10
-4.6958775
20
7.668503
11
-4.6034723
21
7.5914229
0
LINE
8
layer0
10
-4.6034723
20
7.5914229
11
-4.5245745
21
7.5197947
0
LINE
8
layer0
10
-4.5245745
20
7.5197947
11
-4.4605573
21
7.4566001
0
LINE
8
layer0
10
-4.4605573
20
7.4566001
11
-4.4092407
21
7.4015694
0
LINE
8
layer0
10
-4.4092407
20
7.4015694
11
-4.3408
21
7.318878
0
LINE
8
layer0
10
-4.3408
20
7.318878
11
-4.2844578
21
7.2369132
0
LINE
8
layer0
10
-4.2844578
20
7.2369132
11
-4.2217263
21
7.1563296
0
LINE
8
layer0
10
-4.2217263
20
7.1563296
11
-4.1603997
21
7.0935037
0
LINE
8
layer0
10
-4.1603997
20
7.0935037
11
-4.1306898
21
7.0686756
0
LINE
8
layer0
10
-4.1306898
20
7.0686756
11
-4.1018445
21
7.0481656
0
LINE
8
layer0
10
-4.1018445
20
7.0481656
11
-4.0740246
21
7.0319368
0
LINE
8
layer0
10
-4.0740246
20
7.0319368
11
-4.0474085
21
7.019943
0
LINE
8
layer0
10
-4.0474085
20
7.019943
11
-4.0221478
21
7.012107
0
LINE
8
layer0
10
-4.0221478
20
7.012107
11
-3.998412
21
7.008365
0
LINE
8
layer0
10
-3.998412
20
7.008365
11
-3.9763571
21
7.0086711
0
LINE
8
layer0
10
-3.9763571
20
7.0086711
11
-3.956139
21
7.0129346
0
LINE
8
layer0
10
-3.956139
20
7.0129346
11
-3.9379182
21
7.0210738
0
LINE
8
layer0
10
-3.9379182
20
7.0210738
11
-3.6546235
21
7.1726025
0
LINE
8
layer0
10
-3.6546235
20
7.1726025
11
-3.3655178
21
7.3127264
0
LINE
8
layer0
10
-3.3655178
20
7.3127264
11
-3.3482231
21
7.3226832
0
LINE
8
layer0
10
-3.3482231
20
7.3226832
11
-3.33289
21
7.3365339
0
LINE
8
layer0
10
-3.33289
20
7.3365339
11
-3.3196788
21
7.3541968
0
LINE
8
layer0
10
-3.3196788
20
7.3541968
11
-3.3087546
21
7.375599
0
LINE
8
layer0
10
-3.3087546
20
7.375599
11
-3.3002461
21
7.4006412
0
LINE
8
layer0
10
-3.3002461
20
7.4006412
11
-3.2943048
21
7.4292239
0
LINE
8
layer0
10
-3.2943048
20
7.4292239
11
-3.291082
21
7.4612697
0
LINE
8
layer0
10
-3.291082
20
7.4612697
11
-3.2907201
21
7.4966615
0
LINE
8
layer0
10
-3.2907201
20
7.4966615
11
-3.2933434
21
7.5352909
0
LINE
8
layer0
10
-3.2933434
20
7.5352909
11
-3.3081238
21
7.6218333
0
LINE
8
layer0
10
-3.3081238
20
7.6218333
11
-3.3364447
21
7.71995
0
LINE
8
layer0
10
-3.3364447
20
7.71995
11
-3.3696385
21
7.8137095
0
LINE
8
layer0
10
-3.3696385
20
7.8137095
11
-3.3963088
21
7.917684
0
LINE
8
layer0
10
-3.3963088
20
7.917684
11
-3.4106665
21
7.9915462
0
LINE
8
layer0
10
-3.4106665
20
7.9915462
11
-3.4241636
21
8.0804821
0
LINE
8
layer0
10
-3.4241636
20
8.0804821
11
-3.435737
21
8.1864137
0
LINE
8
layer0
10
-3.435737
20
8.1864137
11
-3.4437817
21
8.3064777
0
LINE
8
layer0
10
-3.4437817
20
8.3064777
11
-3.4471849
21
8.4425429
0
LINE
8
layer0
10
-3.4471849
20
8.4425429
11
-3.4446224
21
8.5927812
0
LINE
8
layer0
10
-3.4446224
20
8.5927812
11
-3.4349242
21
8.7574297
0
LINE
8
layer0
10
-3.4349242
20
8.7574297
11
-3.416872
21
8.9362338
0
LINE
8
layer0
10
-3.416872
20
8.9362338
11
-3.3891397
21
9.1294985
0
LINE
8
layer0
10
-3.3891397
20
9.1294985
11
-3.35497
21
9.3141775
0
ARC
8
layer0
10
0.0000045
20
-0.0000131
40
9.9
50
106.1909658
51
109.8090367
0
LINE
8
layer0
10
-2.7605084
20
9.5073298
11
-2.624313
21
9.3780058
0
LINE
8
layer0
10
-2.624313
20
9.3780058
11
-2.4882789
21
9.2379519
0
LINE
8
layer0
10
-2.4882789
20
9.2379519
11
-2.368576
21
9.1039073
0
LINE
8
layer0
10
-2.368576
20
9.1039073
11
-2.263952
21
8.9764043
0
LINE
8
layer0
10
-2.263952
20
8.9764043
11
-2.173571
21
8.8563651
0
LINE
8
layer0
10
-2.173571
20
8.8563651
11
-2.0963472
21
8.7442857
0
LINE
8
layer0
10
-2.0963472
20
8.7442857
11
-2.0322837
21
8.6424234
0
LINE
8
layer0
10
-2.0322837
20
8.6424234
11
-1.9793817
21
8.5499202
0
LINE
8
layer0
10
-1.9793817
20
8.5499202
11
-1.9380259
21
8.4700362
0
LINE
8
layer0
10
-1.9380259
20
8.4700362
11
-1.9062263
21
8.4018411
0
LINE
8
layer0
10
-1.9062263
20
8.4018411
11
-1.8666884
21
8.3020476
0
LINE
8
layer0
10
-1.8666884
20
8.3020476
11
-1.8384323
21
8.2066837
0
LINE
8
layer0
10
-1.8384323
20
8.2066837
11
-1.8036728
21
8.1106591
0
LINE
8
layer0
10
-1.8036728
20
8.1106591
11
-1.7647621
21
8.0319571
0
LINE
8
layer0
10
-1.7647621
20
8.0319571
11
-1.7441786
21
7.9991633
0
LINE
8
layer0
10
-1.7441786
20
7.9991633
11
-1.723083
21
7.9707435
0
LINE
8
layer0
10
-1.723083
20
7.9707435
11
-1.7016397
21
7.9467121
0
LINE
8
layer0
10
-1.7016397
20
7.9467121
11
-1.6800326
21
7.9270805
0
LINE
8
layer0
10
-1.6800326
20
7.9270805
11
-1.6584297
21
7.9118221
0
LINE
8
layer0
10
-1.6584297
20
7.9118221
11
-1.6370119
21
7.9009285
0
LINE
8
layer0
10
-1.6370119
20
7.9009285
11
-1.6159418
21
7.8944042
0
LINE
8
layer0
10
-1.6159418
20
7.8944042
11
-1.5953958
21
7.8922113
0
LINE
8
layer0
10
-1.5953958
20
7.8922113
11
-1.5755516
21
7.8943216
0
LINE
8
layer0
10
-1.5755516
20
7.8943216
11
-1.2592974
21
7.9508911
0
LINE
8
layer0
10
-1.2592974
20
7.9508911
11
-0.9410409
21
7.9948183
0
LINE
8
layer0
10
-0.9410409
20
7.9948183
11
-0.9215158
21
7.9989434
0
LINE
8
layer0
10
-0.9215158
20
7.9989434
11
-0.9026531
21
8.0073781
0
LINE
8
layer0
10
-0.9026531
20
8.0073781
11
-0.8846304
21
8.020094
0
LINE
8
layer0
10
-0.8846304
20
8.020094
11
-0.8676271
21
8.0370729
0
LINE
8
layer0
10
-0.8676271
20
8.0370729
11
-0.8517967
21
8.0582602
0
LINE
8
layer0
10
-0.8517967
20
8.0582602
11
-0.8373136
21
8.0836079
0
LINE
8
layer0
10
-0.8373136
20
8.0836079
11
-0.8243459
21
8.1130895
0
LINE
8
layer0
10
-0.8243459
20
8.1130895
11
-0.813065
21
8.1466372
0
LINE
8
layer0
10
-0.813065
20
8.1466372
11
-0.8036228
21
8.1841866
0
LINE
8
layer0
10
-0.8036228
20
8.1841866
11
-0.7909367
21
8.2710607
0
LINE
8
layer0
10
-0.7909367
20
8.2710607
11
-0.7875517
21
8.3731269
0
LINE
8
layer0
10
-0.7875517
20
8.3731269
11
-0.7901476
21
8.4725549
0
LINE
8
layer0
10
-0.7901476
20
8.4725549
11
-0.7833827
21
8.5796821
0
LINE
8
layer0
10
-0.7833827
20
8.5796821
11
-0.774213
21
8.654366
0
LINE
8
layer0
10
-0.774213
20
8.654366
11
-0.7595668
21
8.7431199
0
LINE
8
layer0
10
-0.7595668
20
8.7431199
11
-0.7378391
21
8.8474432
0
LINE
8
layer0
10
-0.7378391
20
8.8474432
11
-0.7083883
21
8.9641168
0
LINE
8
layer0
10
-0.7083883
20
8.9641168
11
-0.6695785
21
9.0945742
0
LINE
8
layer0
10
-0.6695785
20
9.0945742
11
-0.6207152
21
9.2366675
0
LINE
8
layer0
10
-0.6207152
20
9.2366675
11
-0.5606125
21
9.3902606
0
LINE
8
layer0
10
-0.5606125
20
9.3902606
11
-0.4881903
21
9.5547349
0
LINE
8
layer0
10
-0.4881903
20
9.5547349
11
-0.4020932
21
9.7299708
0
LINE
8
layer0
10
-0.4020932
20
9.7299708
11
-0.3125269
21
9.895052
0
ARC
8
layer0
10
1e-7
20
-0.0000138
40
9.9
50
88.1909649
51
91.8090357
0
LINE
8
layer0
10
0.3125269
20
9.895052
11
0.4020932
21
9.7299708
0
LINE
8
layer0
10
0.4020932
20
9.7299708
11
0.4881903
21
9.5547349
0
LINE
8
layer0
10
0.4881903
20
9.5547349
11
0.5606125
21
9.3902606
0
LINE
8
layer0
10
0.5606125
20
9.3902606
11
0.6207152
21
9.2366675
0
LINE
8
layer0
10
0.6207152
20
9.2366675
11
0.6695785
21
9.0945742
0
LINE
8
layer0
10
0.6695785
20
9.0945742
11
0.7083883
21
8.9641168
0
LINE
8
layer0
10
0.7083883
20
8.9641168
11
0.7378391
21
8.8474432
0
LINE
8
layer0
10
0.7378391
20
8.8474432
11
0.7595668
21
8.7431199
0
LINE
8
layer0
10
0.7595668
20
8.7431199
11
0.774213
21
8.654366
0
LINE
8
layer0
10
0.774213
20
8.654366
11
0.7833827
21
8.5796821
0
LINE
8
layer0
10
0.7833827
20
8.5796821
11
0.7901476
21
8.4725549
0
LINE
8
layer0
10
0.7901476
20
8.4725549
11
0.7875517
21
8.3731269
0
LINE
8
layer0
10
0.7875517
20
8.3731269
11
0.7909367
21
8.2710607
0
LINE
8
layer0
10
0.7909367
20
8.2710607
11
0.8036228
21
8.1841866
0
LINE
8
layer0
10
0.8036228
20
8.1841866
11
0.813065
21
8.1466372
0
LINE
8
layer0
10
0.813065
20
8.1466372
11
0.8243459
21
8.1130895
0
LINE
8
layer0
10
0.8243459
20
8.1130895
11
0.8373136
21
8.0836079
0
LINE
8
layer0
10
0.8373136
20
8.0836079
11
0.8517967
21
8.0582602
0
LINE
8
layer0
10
0.8517967
20
8.0582602
11
0.8676271
21
8.0370729
0
LINE
8
layer0
10
0.8676271
20
8.0370729
11
0.8846304
21
8.020094
0
LINE
8
layer0
10
0.8846304
20
8.020094
11
0.9026531
21
8.0073781
0
LINE
8
layer0
10
0.9026531
20
8.0073781
11
0.9215158
21
7.9989434
0
LINE
8
layer0
10
0.9215158
20
7.9989434
11
0.9410409
21
7.9948183
0
LINE
8
layer0
10
0.9410409
20
7.9948183
11
1.2592974
21
7.9508911
0
LINE
8
layer0
10
1.2592974
20
7.9508911
11
1.5755516
21
7.8943216
0
LINE
8
layer0
10
1.5755516
20
7.8943216
11
1.5953958
21
7.8922113
0
LINE
8
layer0
10
1.5953958
20
7.8922113
11
1.6159418
21
7.8944042
0
LINE
8
layer0
10
1.6159418
20
7.8944042
11
1.6370119
21
7.9009285
0
LINE
8
layer0
10
1.6370119
20
7.9009285
11
1.6584297
21
7.9118221
0
LINE
8
layer0
10
1.6584297
20
7.9118221
11
1.6800326
21
7.9270805
0
LINE
8
layer0
10
1.6800326
20
7.9270805
11
1.7016397
21
7.9467121
0
LINE
8
layer0
10
1.7016397
20
7.9467121
11
1.723083
21
7.9707435
0
LINE
8
layer0
10
1.723083
20
7.9707435
11
1.7441786
21
7.9991633
0
LINE
8
layer0
10
1.7441786
20
7.9991633
11
1.7647621
21
8.0319571
0
LINE
8
layer0
10
1.7647621
20
8.0319571
11
1.8036728
21
8.1106591
0
LINE
8
layer0
10
1.8036728
20
8.1106591
11
1.8384323
21
8.2066837
0
LINE
8
layer0
10
1.8384323
20
8.2066837
11
1.8666884
21
8.3020476
0
LINE
8
layer0
10
1.8666884
20
8.3020476
11
1.9062263
21
8.4018411
0
LINE
8
layer0
10
1.9062263
20
8.4018411
11
1.9380259
21
8.4700362
0
LINE
8
layer0
10
1.9380259
20
8.4700362
11
1.9793817
21
8.5499202
0
LINE
8
layer0
10
1.9793817
20
8.5499202
11
2.0322837
21
8.6424234
0
LINE
8
layer0
10
2.0322837
20
8.6424234
11
2.0963472
21
8.7442857
0
LINE
8
layer0
10
2.0963472
20
8.7442857
11
2.173571
21
8.8563651
0
LINE
8
layer0
10
2.173571
20
8.8563651
11
2.263952
21
8.9764043
0
LINE
8
layer0
10
2.263952
20
8.9764043
11
2.368576
21
9.1039073
0
LINE
8
layer0
10
2.368576
20
9.1039073
11
2.4882789
21
9.2379519
0
LINE
8
layer0
10
2.4882789
20
9.2379519
11
2.624313
21
9.3780058
0
LINE
8
layer0
10
2.624313
20
9.3780058
11
2.7605084
21
9.5073298
0
ARC
8
layer0
10
-0.0000045
20
-0.0000131
40
9.9
50
70.1909633
51
73.8090342
0
LINE
8
layer0
10
3.35497
20
9.3141775
11
3.3891397
21
9.1294985
0
LINE
8
layer0
10
3.3891397
20
9.1294985
11
3.416872
21
8.9362338
0
LINE
8
layer0
10
3.416872
20
8.9362338
11
3.4349242
21
8.7574297
0
LINE
8
layer0
10
3.4349242
20
8.7574297
11
3.4446224
21
8.5927812
0
LINE
8
layer0
10
3.4446224
20
8.5927812
11
3.4471849
21
8.4425429
0
LINE
8
layer0
10
3.4471849
20
8.4425429
11
3.4437817
21
8.3064777
0
LINE
8
layer0
10
3.4437817
20
8.3064777
11
3.435737
21
8.1864137
0
LINE
8
layer0
10
3.435737
20
8.1864137
11
3.4241636
21
8.0804821
0
LINE
8
layer0
10
3.4241636
20
8.0804821
11
3.4106665
21
7.9915462
0
LINE
8
layer0
10
3.4106665
20
7.9915462
11
3.3963088
21
7.917684
0
LINE
8
layer0
10
3.3963088
20
7.917684
11
3.3696385
21
7.8137095
0
LINE
8
layer0
10
3.3696385
20
7.8137095
11
3.3364447
21
7.71995
0
LINE
8
layer0
10
3.3364447
20
7.71995
11
3.3081238
21
7.6218333
0
LINE
8
layer0
10
3.3081238
20
7.6218333
11
3.2933434
21
7.5352909
0
LINE
8
layer0
10
3.2933434
20
7.5352909
11
3.2907201
21
7.4966615
0
LINE
8
layer0
10
3.2907201
20
7.4966615
11
3.291082
21
7.4612697
0
LINE
8
layer0
10
3.291082
20
7.4612697
11
3.2943048
21
7.4292239
0
LINE
8
layer0
10
3.2943048
20
7.4292239
11
3.3002461
21
7.4006412
0
LINE
8
layer0
10
3.3002461
20
7.4006412
11
3.3087546
21
7.375599
0
LINE
8
layer0
10
3.3087546
20
7.375599
11
3.3196788
21
7.3541968
0
LINE
8
layer0
10
3.3196788
20
7.3541968
11
3.33289
21
7.3365339
0
LINE
8
layer0
10
3.33289
20
7.3365339
11
3.3482231
21
7.3226832
0
LINE
8
layer0
10
3.3482231
20
7.3226832
11
3.3655178
21
7.3127264
0
LINE
8
layer0
10
3.3655178
20
7.3127264
11
3.6546235
21
7.1726025
0
LINE
8
layer0
10
3.6546235
20
7.1726025
11
3.9379182
21
7.0210738
0
LINE
8
layer0
10
3.9379182
20
7.0210738
11
3.956139
21
7.0129346
0
LINE
8
layer0
10
3.956139
20
7.0129346
11
3.9763571
21
7.0086711
0
LINE
8
layer0
10
3.9763571
20
7.0086711
11
3.998412
21
7.008365
0
LINE
8
layer0
10
3.998412
20
7.008365
11
4.0221478
21
7.012107
0
LINE
8
layer0
10
4.0221478
20
7.012107
11
4.0474085
21
7.019943
0
LINE
8
layer0
10
4.0474085
20
7.019943
11
4.0740246
21
7.0319368
0
LINE
8
layer0
10
4.0740246
20
7.0319368
11
4.1018445
21
7.0481656
0
LINE
8
layer0
10
4.1018445
20
7.0481656
11
4.1306898
21
7.0686756
0
LINE
8
layer0
10
4.1306898
20
7.0686756
11
4.1603997
21
7.0935037
0
LINE
8
layer0
10
4.1603997
20
7.0935037
11
4.2217263
21
7.1563296
0
LINE
8
layer0
10
4.2217263
20
7.1563296
11
4.2844578
21
7.2369132
0
LINE
8
layer0
10
4.2844578
20
7.2369132
11
4.3408
21
7.318878
0
LINE
8
layer0
10
4.3408
20
7.318878
11
4.4092407
21
7.4015694
0
LINE
8
layer0
10
4.4092407
20
7.4015694
11
4.4605573
21
7.4566001
0
LINE
8
layer0
10
4.4605573
20
7.4566001
11
4.5245745
21
7.5197947
0
LINE
8
layer0
10
4.5245745
20
7.5197947
11
4.6034723
21
7.5914229
0
LINE
8
layer0
10
4.6034723
20
7.5914229
11
4.6958775
21
7.668503
0
LINE
8
layer0
10
4.6958775
20
7.668503
11
4.8039562
21
7.7512334
0
LINE
8
layer0
10
4.8039562
20
7.7512334
11
4.9270078
21
7.8374682
0
LINE
8
layer0
10
4.9270078
20
7.8374682
11
5.0659117
21
7.9264001
0
LINE
8
layer0
10
5.0659117
20
7.9264001
11
5.221178
21
8.0168939
0
LINE
8
layer0
10
5.221178
20
8.0168939
11
5.3938331
21
8.1080562
0
LINE
8
layer0
10
5.3938331
20
8.1080562
11
5.563326
21
8.1889639
0
ARC
8
layer0
10
-0.0000087
20
-0.0000108
40
9.9
50
52.1909605
51
55.8090313
0
LINE
8
layer0
10
6.0690052
20
7.8215665
11
6.0444336
21
7.6353673
0
LINE
8
layer0
10
6.0444336
20
7.6353673
11
6.0110865
21
7.4429918
0
LINE
8
layer0
10
6.0110865
20
7.4429918
11
5.9730017
21
7.2673607
0
LINE
8
layer0
10
5.9730017
20
7.2673607
11
5.931346
21
7.1077737
0
LINE
8
layer0
10
5.931346
20
7.1077737
11
5.8873569
21
6.9640967
0
LINE
8
layer0
10
5.8873569
20
6.9640967
11
5.8420738
21
6.8357427
0
LINE
8
layer0
10
5.8420738
20
6.8357427
11
5.797321
21
6.724041
0
LINE
8
layer0
10
5.797321
20
6.724041
11
5.7535794
21
6.6268704
0
LINE
8
layer0
10
5.7535794
20
6.6268704
11
5.7132602
21
6.5464582
0
LINE
8
layer0
10
5.7132602
20
6.5464582
11
5.6767805
21
6.4806478
0
LINE
8
layer0
10
5.6767805
20
6.4806478
11
5.6192857
21
6.3900038
0
LINE
8
layer0
10
5.6192857
20
6.3900038
11
5.5587432
21
6.3110907
0
LINE
8
layer0
10
5.5587432
20
6.3110907
11
5.5014887
21
6.2265278
0
LINE
8
layer0
10
5.5014887
20
6.2265278
11
5.4606887
21
6.1487884
0
LINE
8
layer0
10
5.4606887
20
6.1487884
11
5.4462566
21
6.1128603
0
LINE
8
layer0
10
5.4462566
20
6.1128603
11
5.4356642
21
6.0790889
0
LINE
8
layer0
10
5.4356642
20
6.0790889
11
5.4288265
21
6.0476156
0
LINE
8
layer0
10
5.4288265
20
6.0476156
11
5.4256445
21
6.0185959
0
LINE
8
layer0
10
5.4256445
20
6.0185959
11
5.425998
21
5.9921501
0
LINE
8
layer0
10
5.425998
20
5.9921501
11
5.429774
21
5.9684196
0
LINE
8
layer0
10
5.429774
20
5.9684196
11
5.4368804
21
5.9475388
0
LINE
8
layer0
10
5.4368804
20
5.9475388
11
5.4471829
21
5.9296278
0
LINE
8
layer0
10
5.4471829
20
5.9296278
11
5.4605543
21
5.9148139
0
LINE
8
layer0
10
5.4605543
20
5.9148139
11
5.6922096
21
5.6922096
0
LINE
8
layer0
10
5.6922096
20
5.6922096
11
5.9148139
21
5.4605543
0
LINE
8
layer0
10
5.9148139
20
5.4605543
11
5.9296278
21
5.4471829
0
LINE
8
layer0
10
5.9296278
20
5.4471829
11
5.9475388
21
5.4368804
0
LINE
8
layer0
10
5.9475388
20
5.4368804
11
5.9684196
21
5.429774
0
LINE
8
layer0
10
5.9684196
20
5.429774
11
5.9921501
21
5.425998
0
LINE
8
layer0
10
5.9921501
20
5.425998
11
6.0185959
21
5.4256445
0
LINE
8
layer0
10
6.0185959
20
5.4256445
11
6.0476156
21
5.4288265
0
LINE
8
layer0
10
6.0476156
20
5.4288265
11
6.0790889
21
5.4356642
0
LINE
8
layer0
10
6.0790889
20
5.4356642
11
6.1128603
21
5.4462566
0
LINE
8
layer0
10
6.1128603
20
5.4462566
11
6.1487884
21
5.4606887
0
LINE
8
layer0
10
6.1487884
20
5.4606887
11
6.2265278
21
5.5014887
0
LINE
8
layer0
10
6.2265278
20
5.5014887
11
6.3110907
21
5.5587432
0
LINE
8
layer0
10
6.3110907
20
5.5587432
11
6.3900038
21
5.6192857
0
LINE
8
layer0
10
6.3900038
20
5.6192857
11
6.4806478
21
5.6767805
0
LINE
8
layer0
10
6.4806478
20
5.6767805
11
6.5464582
21
5.7132602
0
LINE
8
layer0
10
6.5464582
20
5.7132602
11
6.6268704
21
5.7535794
0
LINE
8
layer0
10
6.6268704
20
5.7535794
11
6.724041
21
5.797321
0
LINE
8
layer0
10
6.724041
20
5.797321
11
6.8357427
21
5.8420738
0
LINE
8
layer0
10
6.8357427
20
5.8420738
11
6.9640967
21
5.8873569
0
LINE
8
layer0
10
6.9640967
20
5.8873569
11
7.1077737
21
5.931346
0
LINE
8
layer0
10
7.1077737
20
5.931346
11
7.2673607
21
5.9730017
0
LINE
8
layer0
10
7.2673607
20
5.9730017
11
7.4429918
21
6.0110865
0
LINE
8
layer0
10
7.4429918
20
6.0110865
11
7.6353673
21
6.0444336
0
LINE
8
layer0
10
7.6353673
20
6.0444336
11
7.8215665
21
6.0690052
0
ARC
8
layer0
10
-0.0000107
20
-0.0000087
40
9.9
50
34.1909687
51
37.8090395
0
LINE
8
layer0
10
8.1889639
20
5.563326
11
8.1080562
21
5.3938331
0
LINE
8
layer0
10
8.1080562
20
5.3938331
11
8.0168939
21
5.221178
0
LINE
8
layer0
10
8.0168939
20
5.221178
11
7.9264001
21
5.0659117
0
LINE
8
layer0
10
7.9264001
20
5.0659117
11
7.8374682
21
4.9270078
0
LINE
8
layer0
10
7.8374682
20
4.9270078
11
7.7512334
21
4.8039562
0
LINE
8
layer0
10
7.7512334
20
4.8039562
11
7.668503
21
4.6958775
0
LINE
8
layer0
10
7.668503
20
4.6958775
11
7.5914229
21
4.6034723
0
LINE
8
layer0
10
7.5914229
20
4.6034723
11
7.5197947
21
4.5245745
0
LINE
8
layer0
10
7.5197947
20
4.5245745
11
7.4566001
21
4.4605573
0
LINE
8
layer0
10
7.4566001
20
4.4605573
11
7.4015694
21
4.4092407
0
LINE
8
layer0
10
7.4015694
20
4.4092407
11
7.318878
21
4.3408
0
LINE
8
layer0
10
7.318878
20
4.3408
11
7.2369132
21
4.2844578
0
LINE
8
layer0
10
7.2369132
20
4.2844578
11
7.1563296
21
4.2217263
0
LINE
8
layer0
10
7.1563296
20
4.2217263
11
7.0935037
21
4.1603997
0
LINE
8
layer0
10
7.0935037
20
4.1603997
11
7.0686756
21
4.1306898
0
LINE
8
layer0
10
7.0686756
20
4.1306898
11
7.0481656
21
4.1018445
0
LINE
8
layer0
10
7.0481656
20
4.1018445
11
7.0319368
21
4.0740246
0
LINE
8
layer0
10
7.0319368
20
4.0740246
11
7.019943
21
4.0474085
0
LINE
8
layer0
10
7.019943
20
4.0474085
11
7.012107
21
4.0221478
0
LINE
8
layer0
10
7.012107
20
4.0221478
11
7.008365
21
3.998412
0
LINE
8
layer0
10
7.008365
20
3.998412
11
7.0086711
21
3.9763571
0
LINE
8
layer0
10
7.0086711
20
3.9763571
11
7.0129346
21
3.956139
0
LINE
8
layer0
10
7.0129346
20
3.956139
11
7.0210738
21
3.9379182
0
LINE
8
layer0
10
7.0210738
20
3.9379182
11
7.1726025
21
3.6546235
0
LINE
8
layer0
10
7.1726025
20
3.6546235
11
7.3127264
21
3.3655178
0
LINE
8
layer0
10
7.3127264
20
3.3655178
11
7.3226832
21
3.3482231
0
LINE
8
layer0
10
7.3226832
20
3.3482231
11
7.3365339
21
3.33289
0
LINE
8
layer0
10
7.3365339
20
3.33289
11
7.3541968
21
3.3196788
0
LINE
8
layer0
10
7.3541968
20
3.3196788
11
7.375599
21
3.3087546
0
LINE
8
layer0
10
7.375599
20
3.3087546
11
7.4006412
21
3.3002461
0
LINE
8
layer0
10
7.4006412
20
3.3002461
11
7.4292239
21
3.2943048
0
LINE
8
layer0
10
7.4292239
20
3.2943048
11
7.4612697
21
3.291082
0
LINE
8
layer0
10
7.4612697
20
3.291082
11
7.4966615
21
3.2907201
0
LINE
8
layer0
10
7.4966615
20
3.2907201
11
7.5352909
21
3.2933434
0
LINE
8
layer0
10
7.5352909
20
3.2933434
11
7.6218333
21
3.3081238
0
LINE
8
layer0
10
7.6218333
20
3.3081238
11
7.71995
21
3.3364447
0
LINE
8
layer0
10
7.71995
20
3.3364447
11
7.8137095
21
3.3696385
0
LINE
8
layer0
10
7.8137095
20
3.3696385
11
7.917684
21
3.3963088
0
LINE
8
layer0
10
7.917684
20
3.3963088
11
7.9915462
21
3.4106665
0
LINE
8
layer0
10
7.9915462
20
3.4106665
11
8.0804821
21
3.4241636
0
LINE
8
layer0
10
8.0804821
20
3.4241636
11
8.1864137
21
3.435737
0
LINE
8
layer0
10
8.1864137
20
3.435737
11
8.3064777
21
3.4437817
0
LINE
8
layer0
10
8.3064777
20
3.4437817
11
8.4425429
21
3.4471849
0
LINE
8
layer0
10
8.4425429
20
3.4471849
11
8.5927812
21
3.4446224
0
LINE
8
layer0
10
8.5927812
20
3.4446224
11
8.7574297
21
3.4349242
0
LINE
8
layer0
10
8.7574297
20
3.4349242
11
8.9362338
21
3.416872
0
LINE
8
layer0
10
8.9362338
20
3.416872
11
9.1294985
21
3.3891397
0
LINE
8
layer0
10
9.1294985
20
3.3891397
11
9.3141775
21
3.35497
0
ARC
8
layer0
10
-0.0000131
20
-0.0000045
40
9.9
50
16.1909658
51
19.8090367
0
LINE
8
layer0
10
9.5073298
20
2.7605084
11
9.3780058
21
2.624313
0
LINE
8
layer1
10
9.3780058
20
2.624313
11
9.2379519
21
2.4882789
0
LINE
8
layer1
10
9.2379519
20
2.4882789
11
9.1039073
21
2.368576
0
LINE
8
layer1
10
9.1039073
20
2.368576
11
8.9764043
21
2.263952
0
LINE
8
layer1
10
8.9764043
20
2.263952
11
8.8563651
21
2.173571
0
LINE
8
layer1
10
8.8563651
20
2.173571
11
8.7442857
21
2.0963472
0
LINE
8
layer1
10
8.7442857
20
2.0963472
11
8.6424234
21
2.0322837
0
LINE
8
layer1
10
8.6424234
20
2.0322837
11
8.5499202
21
1.9793817
0
LINE
8
layer1
10
8.5499202
20
1.9793817
11
8.4700362
21
1.9380259
0
LINE
8
layer1
10
8.4700362
20
1.9380259
11
8.4018411
21
1.9062263
0
LINE
8
layer1
10
8.4018411
20
1.9062263
11
8.3020476
21
1.8666884
0
LINE
8
layer1
10
8.3020476
20
1.8666884
11
8.2066837
21
1.8384323
0
LINE
8
layer1
10
8.2066837
20
1.8384323
11
8.1106591
21
1.8036728
0
LINE
8
layer1
10
8.1106591
20
1.8036728
11
8.0319571
21
1.7647621
0
LINE
8
layer1
10
8.0319571
20
1.7647621
11
7.9991633
21
1.7441786
0
LINE
8
layer1
10
7.9991633
20
1.7441786
11
7.9707435
21
1.723083
0
LINE
8
layer1
10
7.9707435
20
1.723083
11
7.9467121
21
1.7016397
0
LINE
8
layer1
10
7.9467121
20
1.7016397
11
7.9270805
21
1.6800326
0
LINE
8
layer1
10
7.9270805
20
1.6800326
11
7.9118221
21
1.6584297
0
LINE
8
layer1
10
7.9118221
20
1.6584297
11
7.9009285
21
1.6370119
0
LINE
8
layer1
10
7.9009285
20
1.6370119
11
7.8944042
21
1.6159418
0
LINE
8
layer1
10
7.8944042
20
1.6159418
11
7.8922113
21
1.5953958
0
LINE
8
layer1
10
7.8922113
20
1.5953958
11
7.8943216
21
1.5755516
0
LINE
8
layer1
10
7.8943216
20
1.5755516
11
7.9508911
21
1.2592974
0
LINE
8
layer1
10
7.9508911
20
1.2592974
11
7.9948183
21
0.9410409
0
LINE
8
layer1
10
7.9948183
20
0.9410409
11
7.9989434
21
0.9215158
0
LINE
8
layer1
10
7.9989434
20
0.9215158
11
8.0073781
21
0.9026531
0
LINE
8
layer1
10
8.0073781
20
0.9026531
11
8.020094
21
0.8846304
0
LINE
8
layer1
10
8.020094
20
0.8846304
11
8.0370729
21
0.8676271
0
LINE
8
layer1
10
8.0370729
20
0.8676271
11
8.0582602
21
0.8517967
0
LINE
8
layer1
10
8.0582602
20
0.8517967
11
8.0836079
21
0.8373136
0
LINE
8
layer1
10
8.0836079
20
0.8373136
11
8.1130895
21
0.8243459
0
LINE
8
layer1
10
8.1130895
20
0.8243459
11
8.1466372
21
0.813065
0
LINE
8
layer1
10
8.1466372
20
0.813065
11
8.1841866
21
0.8036228
0
LINE
8
layer1
10
8.1841866
20
0.8036228
11
8.2710607
21
0.7909367
0
LINE
8
layer1
10
8.2710607
20
0.7909367
11
8.3731269
21
0.7875517
0
LINE
8
layer1
10
8.3731269
20
0.7875517
11
8.4725549
21
0.7901476
0
LINE
8
layer1
10
8.4725549
20
0.7901476
11
8.5796821
21
0.7833827
0
LINE
8
layer1
10
8.5796821
20
0.7833827
11
8.654366
21
0.774213
0
LINE
8
layer1
10
8.654366
20
0.774213
11
8.7431199
21
0.7595668
0
LINE
8
layer1
10
8.7431199
20
0.7595668
11
8.8474432
21
0.7378391
0
LINE
8
layer1
10
8.8474432
20
0.7378391
11
8.9641168
21
0.7083883
0
LINE
8
layer1
10
8.9641168
20
0.7083883
11
9.0945742
21
0.6695785
0
LINE
8
layer1
10
9.0945742
20
0.6695785
11
9.2366675
21
0.6207152
0
LINE
8
layer1
10
9.2366675
20
0.6207152
11
9.3902606
21
0.5606125
0
LINE
8
layer1
10
9.3902606
20
0.5606125
11
9.5547349
21
0.4881903
0
LINE
8
layer1
10
9.5547349
20
0.4881903
11
9.7299708
21
0.4020932
0
LINE
8
layer1
10
9.7299708
20
0.4020932
11
9.895052
21
0.3125269
0
ARC
8
layer1
10
-0.0000138
20
0
40
9.9
50
358.1909643
51
361.8090351
0
LINE
8
layer1
10
9.895052
20
-0.3125269
11
9.7299708
21
-0.4020932
0
LINE
8
layer1
10
9.7299708
20
-0.4020932
11
9.5547349
21
-0.4881903
0
LINE
8
layer1
10
9.5547349
20
-0.4881903
11
9.3902606
21
-0.5606125
0
LINE
8
layer1
10
9.3902606
20
-0.5606125
11
9.2366675
21
-0.6207152
0
LINE
8
layer1
10
9.2366675
20
-0.6207152
11
9.0945742
21
-0.6695785
0
LINE
8
layer1
10
9.0945742
20
-0.6695785
11
8.9641168
21
-0.7083883
0
LINE
8
layer1
10
8.9641168
20
-0.7083883
11
8.8474432
21
-0.7378391
0
LINE
8
layer1
10
8.8474432
20
-0.7378391
11
8.7431199
21
-0.7595668
0
LINE
8
layer1
10
8.7431199
20
-0.7595668
11
8.654366
21
-0.774213
0
LINE
8
layer1
10
8.654366
20
-0.774213
11
8.5796821
21
-0.7833827
0
LINE
8
layer1
10
8.5796821
20
-0.7833827
11
8.4725549
21
-0.7901476
0
LINE
8
layer1
10
8.4725549
20
-0.7901476
11
8.3731269
21
-0.7875517
0
LINE
8
layer1
10
8.3731269
20
-0.7875517
11
8.2710607
21
-0.7909367
0
LINE
8
layer1
10
8.2710607
20
-0.7909367
11
8.1841866
21
-0.8036228
0
LINE
8
layer1
10
8.1841866
20
-0.8036228
11
8.1466372
21
-0.813065
0
LINE
8
layer1
10
8.1466372
20
-0.813065
11
8.1130895
21
-0.8243459
0
LINE
8
layer1
10
8.1130895
20
-0.8243459
11
8.0836079
21
-0.8373136
0
LINE
8
layer1
10
8.0836079
20
-0.8373136
11
8.0582602
21
-0.8517967
0
LINE
8
layer1
10
8.0582602
20
-0.8517967
11
8.0370729
21
-0.8676271
0
LINE
8
layer1
10
8.0370729
20
-0.8676271
11
8.020094
21
-0.8846304
0
LINE
8
layer1
10
8.020094
20
-0.8846304
11
8.0073781
21
-0.9026531
0
LINE
8
layer1
10
8.0073781
20
-0.9026531
11
7.9989434
21
-0.9215158
0
LINE
8
layer1
10
7.9989434
20
-0.9215158
11
7.9948183
21
-0.9410409
0
LINE
8
layer1
10
7.9948183
20
-0.9410409
11
7.9508911
21
-1.2592974
0
LINE
8
layer1
10
7.9508911
20
-1.2592974
11
7.8943216
21
-1.5755516
0
LINE
8
layer1
10
7.8943216
20
-1.5755516
11
7.8922113
21
-1.5953958
0
LINE
8
layer1
10
7.8922113
20
-1.5953958
11
7.8944042
21
-1.6159418
0
LINE
8
layer1
10
7.8944042
20
-1.6159418
11
7.9009285
21
-1.6370119
0
LINE
8
layer1
10
7.9009285
20
-1.6370119
11
7.9118221
21
-1.6584297
0
LINE
8
layer1
10
7.9118221
20
-1.6584297
11
7.9270805
21
-1.6800326
0
LINE
8
layer1
10
7.9270805
20
-1.6800326
11
7.9467121
21
-1.7016397
0
LINE
8
layer1
10
7.9467121
20
-1.7016397
11
7.9707435
21
-1.723083
0
LINE
8
layer1
10
7.9707435
20
-1.723083
11
7.9991633
21
-1.7441786
0
LINE
8
layer1
10
7.9991633
20
-1.7441786
11
8.0319571
21
-1.7647621
0
LINE
8
layer1
10
8.0319571
20
-1.7647621
11
8.1106591
21
-1.8036728
0
LINE
8
layer1
10
8.1106591
20
-1.8036728
11
8.2066837
21
-1.8384323
0
LINE
8
layer1
10
8.2066837
20
-1.8384323
11
8.3020476
21
-1.8666884
0
LINE
8
layer1
10
8.3020476
20
-1.8666884
11
8.4018411
21
-1.9062263
0
LINE
8
layer1
10
8.4018411
20
-1.9062263
11
8.4700362
21
-1.9380259
0
LINE
8
layer1
10
8.4700362
20
-1.9380259
11
8.5499202
21
-1.9793817
0
LINE
8
layer1
10
8.5499202
20
-1.9793817
11
8.6424234
21
-2.0322837
0
LINE
8
layer1
10
8.6424234
20
-2.0322837
11
8.7442857
21
-2.0963472
0
LINE
8
layer1
10
8.7442857
20
-2.0963472
11
8.8563651
21
-2.173571
0
LINE
8
layer1
10
8.8563651
20
-2.173571
11
8.9764043
21
-2.263952
0
LINE
8
layer1
10
8.9764043
20
-2.263952
11
9.1039073
21
-2.368576
0
LINE
8
layer1
10
9.1039073
20
-2.368576
11
9.2379519
21
-2.4882789
0
LINE
8
layer1
10
9.2379519
20
-2.4882789
11
9.3780058
21
-2.624313
0
LINE
8
layer1
10
9.3780058
20
-2.624313
11
9.5073298
21
-2.7605084
0
ARC
8
layer1
10
-0.0000131
20
0.0000045
40
9.9
50
340.1909633
51
343.8090342
0
LINE
8
layer1
10
9.3141775
20
-3.35497
11
9.1294985
21
-3.3891397
0
LINE
8
layer1
10
9.1294985
20
-3.3891397
11
8.9362338
21
-3.416872
0
LINE
8
layer1
10
8.9362338
20
-3.416872
11
8.7574297
21
-3.4349242
0
LINE
8
layer1
10
8.7574297
20
-3.4349242
11
8.5927812
21
-3.4446224
0
LINE
8
layer1
10
8.5927812
20
-3.4446224
11
8.4425429
21
-3.4471849
0
LINE
8
layer1
10
8.4425429
20
-3.4471849
11
8.3064777
21
-3.4437817
0
LINE
8
layer1
10
8.3064777
20
-3.4437817
11
8.1864137
21
-3.435737
0
LINE
8
layer1
10
8.1864137
20
-3.435737
11
8.0804821
21
-3.4241636
0
LINE
8
layer1
10
8.0804821
20
-3.4241636
11
7.9915462
21
-3.4106665
0
LINE
8
layer1
10
7.9915462
20
-3.4106665
11
7.917684
21
-3.3963088
0
LINE
8
layer1
10
7.917684
20
-3.3963088
11
7.8137095
21
-3.3696385
0
LINE
8
layer1
10
7.8137095
20
-3.3696385
11
7.71995
21
-3.3364447
0
LINE
8
layer1
10
7.71995
20
-3.3364447
11
7.6218333
21
-3.3081238
0
LINE
8
layer1
10
7.6218333
20
-3.3081238
11
7.5352909
21
-3.2933434
0
LINE
8
layer1
10
7.5352909
20
-3.2933434
11
7.4966615
21
-3.2907201
0
LINE
8
layer1
10
7.4966615
20
-3.2907201
11
7.4612697
21
-3.291082
0
LINE
8
layer1
10
7.4612697
20
-3.291082
11
7.4292239
21
-3.2943048
0
LINE
8
layer1
10
7.4292239
20
-3.2943048
11
7.4006412
21
-3.3002461
0
LINE
8
layer1
10
7.4006412
20
-3.3002461
11
7.375599
21
-3.3087546
0
LINE
8
layer1
10
7.375599
20
-3.3087546
11
7.3541968
21
-3.3196788
0
LINE
8
layer1
10
7.3541968
20
-3.3196788
11
7.3365339
21
-3.33289
0
LINE
8
layer1
10
7.3365339
20
-3.33289
11
7.3226832
21
-3.3482231
0
LINE
8
layer1
10
7.3226832
20
-3.3482231
11
7.3127264
21
-3.3655178
0
LINE
8
layer1
10
7.3127264
20
-3.3655178
11
7.1726025
21
-3.6546235
0
LINE
8
layer1
10
7.1726025
20
-3.6546235
11
7.0210738
21
-3.9379182
0
LINE
8
layer1
10
7.0210738
20
-3.9379182
11
7.0129346
21
-3.956139
0
LINE
8
layer1
10
7.0129346
20
-3.956139
11
7.0086711
21
-3.9763571
0
LINE
8
layer1
10
7.0086711
20
-3.9763571
11
7.008365
21
-3.998412
0
LINE
8
layer1
10
7.008365
20
-3.998412
11
7.012107
21
-4.0221478
0
LINE
8
layer1
10
7.012107
20
-4.0221478
11
7.019943
21
-4.0474085
0
LINE
8
layer1
10
7.019943
20
-4.0474085
11
7.0319368
21
-4.0740246
0
LINE
8
layer1
10
7.0319368
20
-4.0740246
11
7.0481656
21
-4.1018445
0
LINE
8
layer1
10
7.0481656
20
-4.1018445
11
7.0686756
21
-4.1306898
0
LINE
8
layer1
10
7.0686756
20
-4.1306898
11
7.0935037
21
-4.1603997
0
LINE
8
layer1
10
7.0935037
20
-4.1603997
11
7.1563296
21
-4.2217263
0
LINE
8
layer1
10
7.1563296
20
-4.2217263
11
7.2369132
21
-4.2844578
0
LINE
8
layer1
10
7.2369132
20
-4.2844578
11
7.318878
21
-4.3408
0
LINE
8
layer1
10
7.318878
20
-4.3408
11
7.4015694
21
-4.4092407
0
LINE
8
layer1
10
7.4015694
20
-4.4092407
11
7.4566001
21
-4.4605573
0
LINE
8
layer1
10
7.4566001
20
-4.4605573
11
7.5197947
21
-4.5245745
0
LINE
8
layer1
10
7.5197947
20
-4.5245745
11
7.5914229
21
-4.6034723
0
LINE
8
layer1
10
7.5914229
20
-4.6034723
11
7.668503
21
-4.6958775
0
LINE
8
layer1
10
7.668503
20
-4.6958775
11
7.7512334
21
-4.8039562
0
LINE
8
layer1
10
7.7512334
20
-4.8039562
11
7.8374682
21
-4.9270078
0
LINE
8
layer1
10
7.8374682
20
-4.9270078
11
7.9264001
21
-5.0659117
0
LINE
8
layer1
10
7.9264001
20
-5.0659117
11
8.0168939
21
-5.221178
0
LINE
8
layer1
10
8.0168939
20
-5.221178
11
8.1080562
21
-5.3938331
0
LINE
8
layer1
10
8.1080562
20
-5.3938331
11
8.1889639
21
-5.563326
0
ARC
8
layer1
10
-0.0000108
20
0.0000087
40
9.9
50
322.1909605
51
325.8090313
0
LINE
8
layer1
10
7.8215665
20
-6.0690052
11
7.6353673
21
-6.0444336
0
LINE
8
layer1
10
7.6353673
20
-6.0444336
11
7.4429918
21
-6.0110865
0
LINE
8
layer1
10
7.4429918
20
-6.0110865
11
7.2673607
21
-5.9730017
0
LINE
8
layer1
10
7.2673607
20
-5.9730017
11
7.1077737
21
-5.931346
0
LINE
8
layer1
10
7.1077737
20
-5.931346
11
6.9640967
21
-5.8873569
0
LINE
8
layer1
10
6.9640967
20
-5.8873569
11
6.8357427
21
-5.8420738
0
LINE
8
layer1
10
6.8357427
20
-5.8420738
11
6.724041
21
-5.797321
0
LINE
8
layer1
10
6.724041
20
-5.797321
11
6.6268704
21
-5.7535794
0
LINE
8
layer1
10
6.6268704
20
-5.7535794
11
6.5464582
21
-5.7132602
0
LINE
8
layer1
10
6.5464582
20
-5.7132602
11
6.4806478
21
-5.6767805
0
LINE
8
layer1
10
6.4806478
20
-5.6767805
11
6.3900038
21
-5.6192857
0
LINE
8
layer1
10
6.3900038
20
-5.6192857
11
6.3110907
21
-5.5587432
0
LINE
8
layer1
10
6.3110907
20
-5.5587432
11
6.2265278
21
-5.5014887
0
LINE
8
layer1
10
6.2265278
20
-5.5014887
11
6.1487884
21
-5.4606887
0
LINE
8
layer1
10
6.1487884
20
-5.4606887
11
6.1128603
21
-5.4462566
0
LINE
8
layer1
10
6.1128603
20
-5.4462566
11
6.0790889
21
-5.4356642
0
LINE
8
layer1
10
6.0790889
20
-5.4356642
11
6.0476156
21
-5.4288265
0
LINE
8
layer1
10
6.0476156
20
-5.4288265
11
6.0185959
21
-5.4256445
0
LINE
8
layer1
10
6.0185959
20
-5.4256445
11
5.9921501
21
-5.425998
0
LINE
8
layer1
10
5.9921501
20
-5.425998
11
5.9684196
21
-5.429774
0
LINE
8
layer1
10
5.9684196
20
-5.429774
11
5.9475388
21
-5.4368804
0
LINE
8
layer1
10
5.9475388
20
-5.4368804
11
5.9296278
21
-5.4471829
0
LINE
8
layer1
10
5.9296278
20
-5.4471829
11
5.9148139
21
-5.4605543
0
LINE
8
layer1
10
5.9148139
20
-5.4605543
11
5.6922096
21
-5.6922096
0
LINE
8
layer1
10
5.6922096
20
-5.6922096
11
5.4605543
21
-5.9148139
0
LINE
8
layer1
10
5.4605543
20
-5.9148139
11
5.4471829
21
-5.9296278
0
LINE
8
layer1
10
5.4471829
20
-5.9296278
11
5.4368804
21
-5.9475388
0
LINE
8
layer1
10
5.4368804
20
-5.9475388
11
5.429774
21
-5.9684196
0
LINE
8
layer1
10
5.429774
20
-5.9684196
11
5.425998
21
-5.9921501
0
LINE
8
layer1
10
5.425998
20
-5.9921501
11
5.4256445
21
-6.0185959
0
LINE
8
layer1
10
5.4256445
20
-6.0185959
11
5.4288265
21
-6.0476156
0
LINE
8
layer1
10
5.4288265
20
-6.0476156
11
5.4356642
21
-6.0790889
0
LINE
8
layer1
10
5.4356642
20
-6.0790889
11
5.4462566
21
-6.1128603
0
LINE
8
layer1
10
5.4462566
20
-6.1128603
11
5.4606887
21
-6.1487884
0
LINE
8
layer1
10
5.4606887
20
-6.1487884
11
5.5014887
21
-6.2265278
0
LINE
8
layer1
10
5.5014887
20
-6.2265278
11
5.5587432
21
-6.3110907
0
LINE
8
layer1
10
5.5587432
20
-6.3110907
11
5.6192857
21
-6.3900038
0
LINE
8
layer1
10
5.6192857
20
-6.3900038
11
5.6767805
21
-6.4806478
0
LINE
8
layer1
10
5.6767805
20
-6.4806478
11
5.7132602
21
-6.5464582
0
LINE
8
layer1
10
5.7132602
20
-6.5464582
11
5.7535794
21
-6.6268704
0
LINE
8
layer1
10
5.7535794
20
-6.6268704
11
5.797321
21
-6.724041
0
LINE
8
layer1
10
5.797321
20
-6.724041
11
5.8420738
21
-6.8357427
0
LINE
8
layer1
10
5.8420738
20
-6.8357427
11
5.8873569
21
-6.9640967
0
LINE
8
layer1
10
5.8873569
20
-6.9640967
11
5.931346
21
-7.1077737
0
LINE
8
layer1
10
5.931346
20
-7.1077737
11
5.9730017
21
-7.2673607
0
LINE
8
layer1
10
5.9730017
20
-7.2673607
11
6.0110865
21
-7.4429918
0
LINE
8
layer1
10
6.0110865
20
-7.4429918
11
6.0444336
21
-7.6353673
0
LINE
8
layer1
10
6.0444336
20
-7.6353673
11
6.0690052
21
-7.8215665
0
ARC
8
layer1
10
-0.0000087
20
0.0000107
40
9.9
50
304.1909687
51
307.8090395
0
LINE
8
layer1
10
5.563326
20
-8.1889639
11
5.3938331
21
-8.1080562
0
LINE
8
layer1
10
5.3938331
20
-8.1080562
11
5.221178
21
-8.0168939
0
LINE
8
layer1
10
5.221178
20
-8.0168939
11
5.0659117
21
-7.9264001
0
LINE
8
layer1
10
5.0659117
20
-7.9264001
11
4.9270078
21
-7.8374682
0
LINE
8
layer1
10
4.9270078
20
-7.8374682
11
4.8039562
21
-7.7512334
0
LINE
8
layer1
10
4.8039562
20
-7.7512334
11
4.6958775
21
-7.668503
0
LINE
8
layer1
10
4.6958775
20
-7.668503
11
4.6034723
21
-7.5914229
0
LINE
8
layer1
10
4.6034723
20
-7.5914229
11
4.5245745
21
-7.5197947
0
LINE
8
layer1
10
4.5245745
20
-7.5197947
11
4.4605573
21
-7.4566001
0
LINE
8
layer1
10
4.4605573
20
-7.4566001
11
4.4092407
21
-7.4015694
0
LINE
8
layer1
10
4.4092407
20
-7.4015694
11
4.3408
21
-7.318878
0
LINE
8
layer1
10
4.3408
20
-7.318878
11
4.2844578
21
-7.2369132
0
LINE
8
layer1
10
4.2844578
20
-7.2369132
11
4.2217263
21
-7.1563296
0
LINE
8
layer1
10
4.2217263
20
-7.1563296
11
4.1603997
21
-7.0935037
0
LINE
8
layer1
10
4.1603997
20
-7.0935037
11
4.1306898
21
-7.0686756
0
LINE
8
layer1
10
4.1306898
20
-7.0686756
11
4.1018445
21
-7.0481656
0
LINE
8
layer1
10
4.1018445
20
-7.0481656
11
4.0740246
21
-7.0319368
0
LINE
8
layer1
10
4.0740246
20
-7.0319368
11
4.0474085
21
-7.019943
0
LINE
8
layer1
10
4.0474085
20
-7.019943
11
4.0221478
21
-7.012107
0
LINE
8
layer1
10
4.0221478
20
-7.012107
11
3.998412
21
-7.008365
0
LINE
8
layer1
10
3.998412
20
-7.008365
11
3.9763571
21
-7.0086711
0
LINE
8
layer1
10
3.9763571
20
-7.0086711
11
3.956139
21
-7.0129346
0
LINE
8
layer1
10
3.956139
20
-7.0129346
11
3.9379182
21
-7.0210738
0
LINE
8
layer1
10
3.9379182
20
-7.0210738
11
3.6546235
21
-7.1726025
0
LINE
8
layer1
10
3.6546235
20
-7.1726025
11
3.3655178
21
-7.3127264
0
LINE
8
layer1
10
3.3655178
20
-7.3127264
11
3.3482231
21
-7.3226832
0
LINE
8
layer1
10
3.3482231
20
-7.3226832
11
3.33289
21
-7.3365339
0
LINE
8
layer1
10
3.33289
20
-7.3365339
11
3.3196788
21
-7.3541968
0
LINE
8
layer1
10
3.3196788
20
-7.3541968
11
3.3087546
21
-7.375599
0
LINE
8
layer1
10
3.3087546
20
-7.375599
11
3.3002461
21
-7.4006412
0
LINE
8
layer1
10
3.3002461
20
-7.4006412
11
3.2943048
21
-7.4292239
0
LINE
8
layer1
10
3.2943048
20
-7.4292239
11
3.291082
21
-7.4612697
0
LINE
8
layer1
10
3.291082
20
-7.4612697
11
3.2907201
21
-7.4966615
0
LINE
8
layer1
10
3.2907201
20
-7.4966615
11
3.2933434
21
-7.5352909
0
LINE
8
layer1
10
3.2933434
20
-7.5352909
11
3.3081238
21
-7.6218333
0
LINE
8
layer1
10
3.3081238
20
-7.6218333
11
3.3364447
21
-7.71995
0
LINE
8
layer1
10
3.3364447
20
-7.71995
11
3.3696385
21
-7.8137095
0
LINE
8
layer1
10
3.3696385
20
-7.8137095
11
3.3963088
21
-7.917684
0
LINE
8
layer1
10
3.3963088
20
-7.917684
11
3.4106665
21
-7.9915462
0
LINE
8
layer1
10
3.4106665
20
-7.9915462
11
3.4241636
21
-8.0804821
0
LINE
8
layer1
10
3.4241636
20
-8.0804821
11
3.435737
21
-8.1864137
0
LINE
8
layer1
10
3.435737
20
-8.1864137
11
3.4437817
21
-8.3064777
0
LINE
8
layer1
10
3.4437817
20
-8.3064777
11
3.4471849
21
-8.4425429
0
LINE
8
layer1
10
3.4471849
20
-8.4425429
11
3.4446224
21
-8.5927812
0
LINE
8
layer1
10
3.4446224
20
-8.5927812
11
3.4349242
21
-8.7574297
0
LINE
8
layer1
10
3.4349242
20
-8.7574297
11
3.416872
21
-8.9362338
0
LINE
8
layer1
10
3.416872
20
-8.9362338
11
3.3891397
21
-9.1294985
0
LINE
8
layer1
10
3.3891397
20
-9.1294985
11
3.35497
21
-9.3141775
0
ARC
8
layer1
10
-0.0000045
20
0.0000131
40
9.9
50
286.1909658
51
289.8090367
0
LINE
8
layer1
10
2.7605084
20
-9.5073298
11
2.624313
21
-9.3780058
0
LINE
8
layer1
10
2.624313
20
-9.3780058
11
2.4882789
21
-9.2379519
0
LINE
8
layer1
10
2.4882789
20
-9.2379519
11
2.368576
21
-9.1039073
0
LINE
8
layer1
10
2.368576
20
-9.1039073
11
2.263952
21
-8.9764043
0
LINE
8
layer1
10
2.263952
20
-8.9764043
11
2.173571
21
-8.8563651
0
LINE
8
layer1
10
2.173571
20
-8.8563651
11
2.0963472
21
-8.7442857
0
LINE
8
layer1
10
2.0963472
20
-8.7442857
11
2.0322837
21
-8.6424234
0
LINE
8
layer1
10
2.0322837
20
-8.6424234
11
1.9793817
21
-8.5499202
0
LINE
8
layer1
10
1.9793817
20
-8.5499202
11
1.9380259
21
-8.4700362
0
LINE
8
layer1
10
1.9380259
20
-8.4700362
11
1.9062263
21
-8.4018411
0
LINE
8
layer1
10
1.9062263
20
-8.4018411
11
1.8666884
21
-8.3020476
0
LINE
8
layer1
10
1.8666884
20
-8.3020476
11
1.8384323
21
-8.2066837
0
LINE
8
layer1
10
1.8384323
20
-8.2066837
11
1.8036728
21
-8.1106591
0
LINE
8
layer1
10
1.8036728
20
-8.1106591
11
1.7647621
21
-8.0319571
0
LINE
8
layer1
10
1.7647621
20
-8.0319571
11
1.7441786
21
-7.9991633
0
LINE
8
layer1
10
1.7441786
20
-7.9991633
11
1.723083
21
-7.9707435
0
LINE
8
layer1
10
1.723083
20
-7.9707435
11
1.7016397
21
-7.9467121
0
LINE
8
layer1
10
1.7016397
20
-7.9467121
11
1.6800326
21
-7.9270805
0
LINE
8
layer1
10
1.6800326
20
-7.9270805
11
1.6584297
21
-7.9118221
0
LINE
8
layer1
10
1.6584297
20
-7.9118221
11
1.6370119
21
-7.9009285
0
LINE
8
layer1
10
1.6370119
20
-7.9009285
11
1.6159418
21
-7.8944042
0
LINE
8
layer1
10
1.6159418
20
-7.8944042
11
1.5953958
21
-7.8922113
0
LINE
8
layer1
10
1.5953958
20
-7.8922113
11
1.5755516
21
-7.8943216
0
LINE
8
layer1
10
1.5755516
20
-7.8943216
11
1.2592974
21
-7.9508911
0
LINE
8
layer1
10
1.2592974
20
-7.9508911
11
0.9410409
21
-7.9948183
0
LINE
8
layer1
10
0.9410409
20
-7.9948183
11
0.9215158
21
-7.9989434
0
LINE
8
layer1
10
0.9215158
20
-7.9989434
11
0.9026531
21
-8.0073781
0
LINE
8
layer1
10
0.9026531
20
-8.0073781
11
0.8846304
21
-8.020094
0
LINE
8
layer1
10
0.8846304
20
-8.020094
11
0.8676271
21
-8.0370729
0
LINE
8
layer1
10
0.8676271
20
-8.0370729
11
0.8517967
21
-8.0582602
0
LINE
8
layer1
10
0.8517967
20
-8.0582602
11
0.8373136
21
-8.0836079
0
LINE
8
layer1
10
0.8373136
20
-8.0836079
11
0.8243459
21
-8.1130895
0
LINE
8
layer1
10
0.8243459
20
-8.1130895
11
0.813065
21
-8.1466372
0
LINE
8
layer1
10
0.813065
20
-8.1466372
11
0.8036228
21
-8.1841866
0
LINE
8
layer1
10
0.8036228
20
-8.1841866
11
0.7909367
21
-8.2710607
0
LINE
8
layer1
10
0.7909367
20
-8.2710607
11
0.7875517
21
-8.3731269
0
LINE
8
layer1
10
0.7875517
20
-8.3731269
11
0.7901476
21
-8.4725549
0
LINE
8
layer1
10
0.7901476
20
-8.4725549
11
0.7833827
21
-8.5796821
0
LINE
8
layer1
10
0.7833827
20
-8.5796821
11
0.774213
21
-8.654366
0
LINE
8
layer1
10
0.774213
20
-8.654366
11
0.7595668
21
-8.7431199
0
LINE
8
layer1
10
0.7595668
20
-8.7431199
11
0.7378391
21
-8.8474432
0
LINE
8
layer1
10
0.7378391
20
-8.8474432
11
0.7083883
21
-8.9641168
0
LINE
8
layer1
10
0.7083883
20
-8.9641168
11
0.6695785
21
-9.0945742
0
LINE
8
layer1
10
0.6695785
20
-9.0945742
11
0.6207152
21
-9.2366675
0
LINE
8
layer1
10
0.6207152
20
-9.2366675
11
0.5606125
21
-9.3902606
0
LINE
8
layer1
10
0.5606125
20
-9.3902606
11
0.4881903
21
-9.5547349
0
LINE
8
layer1
10
0.4881903
20
-9.5547349
11
0.4020932
21
-9.7299708
0
LINE
8
layer1
10
0.4020932
20
-9.7299708
11
0.3125269
21
-9.895052
0
ARC
8
layer1
10
-1e-7
20
0.0000138
40
9.9
50
268.1909649
51
271.8090357
0
LINE
8
layer1
10
-0.3125269
20
-9.895052
11
-0.4020932
21
-9.7299708
0
LINE
8
layer1
10
-0.4020932
20
-9.7299708
11
-0.4881903
21
-9.5547349
0
LINE
8
layer1
10
-0.4881903
20
-9.5547349
11
-0.5606125
21
-9.3902606
0
LINE
8
layer1
10
-0.5606125
20
-9.3902606
11
-0.6207152
21
-9.2366675
0
LINE
8
layer1
10
-0.6207152
20
-9.2366675
11
-0.6695785
21
-9.0945742
0
LINE
8
layer1
10
-0.6695785
20
-9.0945742
11
-0.7083883
21
-8.9641168
0
LINE
8
layer1
10
-0.7083883
20
-8.9641168
11
-0.7378391
21
-8.8474432
0
LINE
8
layer1
10
-0.7378391
20
-8.8474432
11
-0.7595668
21
-8.7431199
0
LINE
8
layer1
10
-0.7595668
20
-8.7431199
11
-0.774213
21
-8.654366
0
LINE
8
layer1
10
-0.774213
20
-8.654366
11
-0.7833827
21
-8.5796821
0
LINE
8
layer1
10
-0.7833827
20
-8.5796821
11
-0.7901476
21
-8.4725549
0
LINE
8
layer1
10
-0.7901476
20
-8.4725549
11
-0.7875517
21
-8.3731269
0
LINE
8
layer1
10
-0.7875517
20
-8.3731269
11
-0.7909367
21
-8.2710607
0
LINE
8
layer1
10
-0.7909367
20
-8.2710607
11
-0.8036228
21
-8.1841866
0
LINE
8
layer1
10
-0.8036228
20
-8.1841866
11
-0.813065
21
-8.1466372
0
LINE
8
layer1
10
-0.813065
20
-8.1466372
11
-0.8243459
21
-8.1130895
0
LINE
8
layer1
10
-0.8243459
20
-8.1130895
11
-0.8373136
21
-8.0836079
0
LINE
8
layer1
10
-0.8373136
20
-8.0836079
11
-0.8517967
21
-8.0582602
0
LINE
8
layer1
10
-0.8517967
20
-8.0582602
11
-0.8676271
21
-8.0370729
0
LINE
8
layer1
10
-0.8676271
20
-8.0370729
11
-0.8846304
21
-8.020094
0
LINE
8
layer1
10
-0.8846304
20
-8.020094
11
-0.9026531
21
-8.0073781
0
LINE
8
layer1
10
-0.9026531
20
-8.0073781
11
-0.9215158
21
-7.9989434
0
LINE
8
layer1
10
-0.9215158
20
-7.9989434
11
-0.9410409
21
-7.9948183
0
LINE
8
layer1
10
-0.9410409
20
-7.9948183
11
-1.2592974
21
-7.9508911
0
LINE
8
layer1
10
-1.2592974
20
-7.9508911
11
-1.5755516
21
-7.8943216
0
LINE
8
layer1
10
-1.5755516
20
-7.8943216
11
-1.5953958
21
-7.8922113
0
LINE
8
layer1
10
-1.5953958
20
-7.8922113
11
-1.6159418
21
-7.8944042
0
LINE
8
layer1
10
-1.6159418
20
-7.8944042
11
-1.6370119
21
-7.9009285
0
LINE
8
layer1
10
-1.6370119
20
-7.9009285
11
-1.6584297
21
-7.9118221
0
LINE
8
layer1
10
-1.6584297
20
-7.9118221
11
-1.6800326
21
-7.9270805
0
LINE
8
layer1
10
-1.6800326
20
-7.9270805
11
-1.7016397
21
-7.9467121
0
LINE
8
layer1
10
-1.7016397
20
-7.9467121
11
-1.723083
21
-7.9707435
0
LINE
8
layer1
10
-1.723083
20
-7.9707435
11
-1.7441786
21
-7.9991633
0
LINE
8
layer1
10
-1.7441786
20
-7.9991633
11
-1.7647621
21
-8.0319571
0
LINE
8
layer1
10
-1.7647621
20
-8.0319571
11
-1.8036728
21
-8.1106591
0
LINE
8
layer1
10
-1.8036728
20
-8.1106591
11
-1.8384323
21
-8.2066837
0
LINE
8
layer1
10
-1.8384323
20
-8.2066837
11
-1.8666884
21
-8.3020476
0
LINE
8
layer1
10
-1.8666884
20
-8.3020476
11
-1.9062263
21
-8.4018411
0
LINE
8
layer1
10
-1.9062263
20
-8.4018411
11
-1.9380259
21
-8.4700362
0
LINE
8
layer1
10
-1.9380259
20
-8.4700362
11
-1.9793817
21
-8.5499202
0
LINE
8
layer1
10
-1.9793817
20
-8.5499202
11
-2.0322837
21
-8.6424234
0
LINE
8
layer1
10
-2.0322837
20
-8.6424234
11
-2.0963472
21
-8.7442857
0
LINE
8
layer1
10
-2.0963472
20
-8.7442857
11
-2.173571
21
-8.8563651
0
LINE
8
layer1
10
-2.173571
20
-8.8563651
11
-2.263952
21
-8.9764043
0
LINE
8
layer1
10
-2.263952
20
-8.9764043
11
-2.368576
21
-9.1039073
0
LINE
8
layer1
10
-2.368576
20
-9.1039073
11
-2.4882789
21
-9.2379519
0
LINE
8
layer1
10
-2.4882789
20
-9.2379519
11
-2.624313
21
-9.3780058
0
LINE
8
layer1
10
-2.624313
20
-9.3780058
11
-2.7605084
21
-9.5073298
0
ARC
8
layer1
10
0.0000045
20
0.0000131
40
9.9
50
250.1909633
51
253.8090342
0
LINE
8
layer1
10
-3.35497
20
-9.3141775
11
-3.3891397
21
-9.1294985
0
LINE
8
layer1
10
-3.3891397
20
-9.1294985
11
-3.416872
21
-8.9362338
0
LINE
8
layer1
10
-3.416872
20
-8.9362338
11
-3.4349242
21
-8.7574297
0
LINE
8
layer1
10
-3.4349242
20
-8.7574297
11
-3.4446224
21
-8.5927812
0
LINE
8
layer1
10
-3.4446224
20
-8.5927812
11
-3.4471849
21
-8.4425429
0
LINE
8
layer1
10
-3.4471849
20
-8.4425429
11
-3.4437817
21
-8.3064777
0
LINE
8
layer1
10
-3.4437817
20
-8.3064777
11
-3.435737
21
-8.1864137
0
LINE
8
layer1
10
-3.435737
20
-8.1864137
11
-3.4241636
21
-8.0804821
0
LINE
8
layer1
10
-3.4241636
20
-8.0804821
11
-3.4106665
21
-7.9915462
0
LINE
8
layer1
10
-3.4106665
20
-7.9915462
11
-3.3963088
21
-7.917684
0
LINE
8
layer1
10
-3.3963088
20
-7.917684
11
-3.3696385
21
-7.8137095
0
LINE
8
layer1
10
-3.3696385
20
-7.8137095
11
-3.3364447
21
-7.71995
0
LINE
8
layer1
10
-3.3364447
20
-7.71995
11
-3.3081238
21
-7.6218333
0
LINE
8
layer1
10
-3.3081238
20
-7.6218333
11
-3.2933434
21
-7.5352909
0
LINE
8
layer1
10
-3.2933434
20
-7.5352909
11
-3.2907201
21
-7.4966615
0
LINE
8
layer1
10
-3.2907201
20
-7.4966615
11
-3.291082
21
-7.4612697
0
LINE
8
layer1
10
-3.291082
20
-7.4612697
11
-3.2943048
21
-7.4292239
0
LINE
8
layer1
10
-3.2943048
20
-7.4292239
11
-3.3002461
21
-7.4006412
0
LINE
8
layer1
10
-3.3002461
20
-7.4006412
11
-3.3087546
21
-7.375599
0
LINE
8
layer1
10
-3.3087546
20
-7.375599
11
-3.3196788
21
-7.3541968
0
LINE
8
layer1
10
-3.3196788
20
-7.3541968
11
-3.33289
21
-7.3365339
0
LINE
8
layer1
10
-3.33289
20
-7.3365339
11
-3.3482231
21
-7.3226832
0
LINE
8
layer1
10
-3.3482231
20
-7.3226832
11
-3.3655178
21
-7.3127264
0
LINE
8
layer1
10
-3.3655178
20
-7.3127264
11
-3.6546235
21
-7.1726025
0
LINE
8
layer1
10
-3.6546235
20
-7.1726025
11
-3.9379182
21
-7.0210738
0
LINE
8
layer1
10
-3.9379182
20
-7.0210738
11
-3.956139
21
-7.0129346
0
LINE
8
layer1
10
-3.956139
20
-7.0129346
11
-3.9763571
21
-7.0086711
0
LINE
8
layer1
10
-3.9763571
20
-7.0086711
11
-3.998412
21
-7.008365
0
LINE
8
layer1
10
-3.998412
20
-7.008365
11
-4.0221478
21
-7.012107
0
LINE
8
layer1
10
-4.0221478
20
-7.012107
11
-4.0474085
21
-7.019943
0
LINE
8
layer1
10
-4.0474085
20
-7.019943
11
-4.0740246
21
-7.0319368
0
LINE
8
layer1
10
-4.0740246
20
-7.0319368
11
-4.1018445
21
-7.0481656
0
LINE
8
layer1
10
-4.1018445
20
-7.0481656
11
-4.1306898
21
-7.0686756
0
LINE
8
layer1
10
-4.1306898
20
-7.0686756
11
-4.1603997
21
-7.0935037
0
LINE
8
layer1
10
-4.1603997
20
-7.0935037
11
-4.2217263
21
-7.1563296
0
LINE
8
layer1
10
-4.2217263
20
-7.1563296
11
-4.2844578
21
-7.2369132
0
LINE
8
layer1
10
-4.2844578
20
-7.2369132
11
-4.3408
21
-7.318878
0
LINE
8
layer1
10
-4.3408
20
-7.318878
11
-4.4092407
21
-7.4015694
0
LINE
8
layer1
10
-4.4092407
20
-7.4015694
11
-4.4605573
21
-7.4566001
0
LINE
8
layer1
10
-4.4605573
20
-7.4566001
11
-4.5245745
21
-7.5197947
0
LINE
8
layer1
10
-4.5245745
20
-7.5197947
11
-4.6034723
21
-7.5914229
0
LINE
8
layer1
10
-4.6034723
20
-7.5914229
11
-4.6958775
21
-7.668503
0
LINE
8
layer1
10
-4.6958775
20
-7.668503
11
-4.8039562
21
-7.7512334
0
LINE
8
layer1
10
-4.8039562
20
-7.7512334
11
-4.9270078
21
-7.8374682
0
LINE
8
layer1
10
-4.9270078
20
-7.8374682
11
-5.0659117
21
-7.9264001
0
LINE
8
layer1
10
-5.0659117
20
-7.9264001
11
-5.221178
21
-8.0168939
0
LINE
8
layer1
10
-5.221178
20
-8.0168939
11
-5.3938331
21
-8.1080562
0
LINE
8
layer1
10
-5.3938331
20
-8.1080562
11
-5.563326
21
-8.1889639
0
ARC
8
layer1
10
0.0000087
20
0.0000108
40
9.9
50
232.1909605
51
235.8090313
0
LINE
8
layer1
10
-6.0690052
20
-7.8215665
11
-6.0444336
21
-7.6353673
0
LINE
8
layer1
10
-6.0444336
20
-7.6353673
11
-6.0110865
21
-7.4429918
0
LINE
8
layer1
10
-6.0110865
20
-7.4429918
11
-5.9730017
21
-7.2673607
0
LINE
8
layer1
10
-5.9730017
20
-7.2673607
11
-5.931346
21
-7.1077737
0
LINE
8
layer1
10
-5.931346
20
-7.1077737
11
-5.8873569
21
-6.9640967
0
LINE
8
layer1
10
-5.8873569
20
-6.9640967
11
-5.8420738
21
-6.8357427
0
LINE
8
layer1
10
-5.8420738
20
-6.8357427
11
-5.797321
21
-6.724041
0
LINE
8
layer1
10
-5.797321
20
-6.724041
11
-5.7535794
21
-6.6268704
0
LINE
8
layer1
10
-5.7535794
20
-6.6268704
11
-5.7132602
21
-6.5464582
0
LINE
8
layer1
10
-5.7132602
20
-6.5464582
11
-5.6767805
21
-6.4806478
0
LINE
8
layer1
10
-5.6767805
20
-6.4806478
11
-5.6192857
21
-6.3900038
0
LINE
8
layer1
10
-5.6192857
20
-6.3900038
11
-5.5587432
21
-6.3110907
0
LINE
8
layer1
10
-5.5587432
20
-6.3110907
11
-5.5014887
21
-6.2265278
0
LINE
8
layer1
10
-5.5014887
20
-6.2265278
11
-5.4606887
21
-6.1487884
0
LINE
8
layer1
10
-5.4606887
20
-6.1487884
11
-5.4462566
21
-6.1128603
0
LINE
8
layer1
10
-5.4462566
20
-6.1128603
11
-5.4356642
21
-6.0790889
0
LINE
8
layer1
10
-5.4356642
20
-6.0790889
11
-5.4288265
21
-6.0476156
0
LINE
8
layer1
10
-5.4288265
20
-6.0476156
11
-5.4256445
21
-6.0185959
0
LINE
8
layer1
10
-5.4256445
20
-6.0185959
11
-5.425998
21
-5.9921501
0
LINE
8
layer1
10
-5.425998
20
-5.9921501
11
-5.429774
21
-5.9684196
0
LINE
8
layer1
10
-5.429774
20
-5.9684196
11
-5.4368804
21
-5.9475388
0
LINE
8
layer1
10
-5.4368804
20
-5.9475388
11
-5.4471829
21
-5.9296278
0
LINE
8
layer1
10
-5.4471829
20
-5.9296278
11
-5.4605543
21
-5.9148139
0
LINE
8
layer1
10
-5.4605543
20
-5.9148139
11
-5.6922096
21
-5.6922096
0
LINE
8
layer1
10
-5.6922096
20
-5.6922096
11
-5.9148139
21
-5.4605543
0
LINE
8
layer1
10
-5.9148139
20
-5.4605543
11
-5.9296278
21
-5.4471829
0
LINE
8
layer1
10
-5.9296278
20
-5.4471829
11
-5.9475388
21
-5.4368804
0
LINE
8
layer1
10
-5.9475388
20
-5.4368804
11
-5.9684196
21
-5.429774
0
LINE
8
layer1
10
-5.9684196
20
-5.429774
11
-5.9921501
21
-5.425998
0
LINE
8
layer1
10
-5.9921501
20
-5.425998
11
-6.0185959
21
-5.4256445
0
LINE
8
layer1
10
-6.0185959
20
-5.4256445
11
-6.0476156
21
-5.4288265
0
LINE
8
layer1
10
-6.0476156
20
-5.4288265
11
-6.0790889
21
-5.4356642
0
LINE
8
layer1
10
-6.0790889
20
-5.4356642
11
-6.1128603
21
-5.4462566
0
LINE
8
layer1
10
-6.1128603
20
-5.4462566
11
-6.1487884
21
-5.4606887
0
LINE
8
layer1
10
-6.1487884
20
-5.4606887
11
-6.2265278
21
-5.5014887
0
LINE
8
layer1
10
-6.2265278
20
-5.5014887
11
-6.3110907
21
-5.5587432
0
LINE
8
layer1
10
-6.3110907
20
-5.5587432
11
-6.3900038
21
-5.6192857
0
LINE
8
layer1
10
-6.3900038
20
-5.6192857
11
-6.4806478
21
-5.6767805
0
LINE
8
layer1
10
-6.4806478
20
-5.6767805
11
-6.5464582
21
-5.7132602
0
LINE
8
layer1
10
-6.5464582
20
-5.7132602
11
-6.6268704
21
-5.7535794
0
LINE
8
layer1
10
-6.6268704
20
-5.7535794
11
-6.724041
21
-5.797321
0
LINE
8
layer1
10
-6.724041
20
-5.797321
11
-6.8357427
21
-5.8420738
0
LINE
8
layer1
10
-6.8357427
20
-5.8420738
11
-6.9640967
21
-5.8873569
0
LINE
8
layer1
10
-6.9640967
20
-5.8873569
11
-7.1077737
21
-5.931346
0
LINE
8
layer1
10
-7.1077737
20
-5.931346
11
-7.2673607
21
-5.9730017
0
LINE
8
layer1
10
-7.2673607
20
-5.9730017
11
-7.4429918
21
-6.0110865
0
LINE
8
layer1
10
-7.4429918
20
-6.0110865
11
-7.6353673
21
-6.0444336
0
LINE
8
layer1
10
-7.6353673
20
-6.0444336
11
-7.8215665
21
-6.0690052
0
ARC
8
layer1
10
0.0000107
20
0.0000087
40
9.9
50
214.1909687
51
217.8090395
0
LINE
8
layer1
10
-8.1889639
20
-5.563326
11
-8.1080562
21
-5.3938331
0
LINE
8
layer1
10
-8.1080562
20
-5.3938331
11
-8.0168939
21
-5.221178
0
LINE
8
layer1
10
-8.0168939
20
-5.221178
11
-7.9264001
21
-5.0659117
0
LINE
8
layer1
10
-7.9264001
20
-5.0659117
11
-7.8374682
21
-4.9270078
0
LINE
8
layer1
10
-7.8374682
20
-4.9270078
11
-7.7512334
21
-4.8039562
0
LINE
8
layer1
10
-7.7512334
20
-4.8039562
11
-7.668503
21
-4.6958775
0
LINE
8
layer1
10
-7.668503
20
-4.6958775
11
-7.5914229
21
-4.6034723
0
LINE
8
layer1
10
-7.5914229
20
-4.6034723
11
-7.5197947
21
-4.5245745
0
LINE
8
layer1
10
-7.5197947
20
-4.5245745
11
-7.4566001
21
-4.4605573
0
LINE
8
layer1
10
-7.4566001
20
-4.4605573
11
-7.4015694
21
-4.4092407
0
LINE
8
layer1
10
-7.4015694
20
-4.4092407
11
-7.318878
21
-4.3408
0
LINE
8
layer1
10
-7.318878
20
-4.3408
11
-7.2369132
21
-4.2844578
0
LINE
8
layer1
10
-7.2369132
20
-4.2844578
11
-7.1563296
21
-4.2217263
0
LINE
8
layer1
10
-7.1563296
20
-4.2217263
11
-7.0935037
21
-4.1603997
0
LINE
8
layer1
10
-7.0935037
20
-4.1603997
11
-7.0686756
21
-4.1306898
0
LINE
8
layer1
10
-7.0686756
20
-4.1306898
11
-7.0481656
21
-4.1018445
0
LINE
8
layer1
10
-7.0481656
20
-4.1018445
11
-7.0319368
21
-4.0740246
0
LINE
8
layer1
10
-7.0319368
20
-4.0740246
11
-7.019943
21
-4.0474085
0
LINE
8
layer1
10
-7.019943
20
-4.0474085
11
-7.012107
21
-4.0221478
0
LINE
8
layer1
10
-7.012107
20
-4.0221478
11
-7.008365
21
-3.998412
0
LINE
8
layer1
10
-7.008365
20
-3.998412
11
-7.0086711
21
-3.9763571
0
LINE
8
layer1
10
-7.0086711
20
-3.9763571
11
-7.0129346
21
-3.956139
0
LINE
8
layer1
10
-7.0129346
20
-3.956139
11
-7.0210738
21
-3.9379182
0
LINE
8
layer1
10
-7.0210738
20
-3.9379182
11
-7.1726025
21
-3.6546235
0
LINE
8
layer1
10
-7.1726025
20
-3.6546235
11
-7.3127264
21
-3.3655178
0
LINE
8
layer1
10
-7.3127264
20
-3.3655178
11
-7.3226832
21
-3.3482231
0
LINE
8
layer1
10
-7.3226832
20
-3.3482231
11
-7.3365339
21
-3.33289
0
LINE
8
layer1
10
-7.3365339
20
-3.33289
11
-7.3541968
21
-3.3196788
0
LINE
8
layer1
10
-7.3541968
20
-3.3196788
11
-7.375599
21
-3.3087546
0
LINE
8
layer1
10
-7.375599
20
-3.3087546
11
-7.4006412
21
-3.3002461
0
LINE
8
layer1
10
-7.4006412
20
-3.3002461
11
-7.4292239
21
-3.2943048
0
LINE
8
layer1
10
-7.4292239
20
-3.2943048
11
-7.4612697
21
-3.291082
0
LINE
8
layer1
10
-7.4612697
20
-3.291082
11
-7.4966615
21
-3.2907201
0
LINE
8
layer1
10
-7.4966615
20
-3.2907201
11
-7.5352909
21
-3.2933434
0
LINE
8
layer1
10
-7.5352909
20
-3.2933434
11
-7.6218333
21
-3.3081238
0
LINE
8
layer1
10
-7.6218333
20
-3.3081238
11
-7.71995
21
-3.3364447
0
LINE
8
layer1
10
-7.71995
20
-3.3364447
11
-7.8137095
21
-3.3696385
0
LINE
8
layer1
10
-7.8137095
20
-3.3696385
11
-7.917684
21
-3.3963088
0
LINE
8
layer1
10
-7.917684
20
-3.3963088
11
-7.9915462
21
-3.4106665
0
LINE
8
layer1
10
-7.9915462
20
-3.4106665
11
-8.0804821
21
-3.4241636
0
LINE
8
layer1
10
-8.0804821
20
-3.4241636
11
-8.1864137
21
-3.435737
0
LINE
8
layer1
10
-8.1864137
20
-3.435737
11
-8.3064777
21
-3.4437817
0
LINE
8
layer1
10
-8.3064777
20
-3.4437817
11
-8.4425429
21
-3.4471849
0
LINE
8
layer1
10
-8.4425429
20
-3.4471849
11
-8.5927812
21
-3.4446224
0
LINE
8
layer1
10
-8.5927812
20
-3.4446224
11
-8.7574297
21
-3.4349242
0
LINE
8
layer1
10
-8.7574297
20
-3.4349242
11
-8.9362338
21
-3.416872
0
LINE
8
layer1
10
-8.9362338
20
-3.416872
11
-9.1294985
21
-3.3891397
0
LINE
8
layer1
10
-9.1294985
20
-3.3891397
11
-9.3141775
21
-3.35497
0
ARC
8
layer1
10
0.0000131
20
0.0000045
40
9.9
50
196.1909658
51
199.8090367
0
LINE
8
layer1
10
-9.5073298
20
-2.7605084
11
-9.3780058
21
-2.624313
0
LINE
8
layer1
10
-9.3780058
20
-2.624313
11
-9.2379519
21
-2.4882789
0
LINE
8
layer1
10
-9.2379519
20
-2.4882789
11
-9.1039073
21
-2.368576
0
LINE
8
layer1
10
-9.1039073
20
-2.368576
11
-8.9764043
21
-2.263952
0
LINE
8
layer1
10
-8.9764043
20
-2.263952
11
-8.8563651
21
-2.173571
0
LINE
8
layer1
10
-8.8563651
20
-2.173571
11
-8.7442857
21
-2.0963472
0
LINE
8
layer1
10
-8.7442857
20
-2.0963472
11
-8.6424234
21
-2.0322837
0
LINE
8
layer1
10
-8.6424234
20
-2.0322837
11
-8.5499202
21
-1.9793817
0
LINE
8
layer1
10
-8.5499202
20
-1.9793817
11
-8.4700362
21
-1.9380259
0
LINE
8
layer1
10
-8.4700362
20
-1.9380259
11
-8.4018411
21
-1.9062263
0
LINE
8
layer1
10
-8.4018411
20
-1.9062263
11
-8.3020476
21
-1.8666884
0
LINE
8
layer1
10
-8.3020476
20
-1.8666884
11
-8.2066837
21
-1.8384323
0
LINE
8
layer1
10
-8.2066837
20
-1.8384323
11
-8.1106591
21
-1.8036728
0
LINE
8
layer1
10
-8.1106591
20
-1.8036728
11
-8.0319571
21
-1.7647621
0
LINE
8
layer1
10
-8.0319571
20
-1.7647621
11
-7.9991633
21
-1.7441786
0
LINE
8
layer1
10
-7.9991633
20
-1.7441786
11
-7.9707435
21
-1.723083
0
LINE
8
layer1
10
-7.9707435
20
-1.723083
11
-7.9467121
21
-1.7016397
0
LINE
8
layer1
10
-7.9467121
20
-1.7016397
11
-7.9270805
21
-1.6800326
0
LINE
8
layer1
10
-7.9270805
20
-1.6800326
11
-7.9118221
21
-1.6584297
0
LINE
8
layer1
10
-7.9118221
20
-1.6584297
11
-7.9009285
21
-1.6370119
0
LINE
8
layer1
10
-7.9009285
20
-1.6370119
11
-7.8944042
21
-1.6159418
0
LINE
8
layer1
10
-7.8944042
20
-1.6159418
11
-7.8922113
21
-1.5953958
0
LINE
8
layer1
10
-7.8922113
20
-1.5953958
11
-7.8943216
21
-1.5755516
0
LINE
8
layer1
10
-7.8943216
20
-1.5755516
11
-7.9508911
21
-1.2592974
0
LINE
8
layer1
10
-7.9508911
20
-1.2592974
11
-7.9948183
21
-0.9410409
0
LINE
8
layer1
10
-7.9948183
20
-0.9410409
11
-7.9989434
21
-0.9215158
0
LINE
8
layer1
10
-7.9989434
20
-0.9215158
11
-8.0073781
21
-0.9026531
0
LINE
8
layer1
10
-8.0073781
20
-0.9026531
11
-8.020094
21
-0.8846304
0
LINE
8
layer1
10
-8.020094
20
-0.8846304
11
-8.0370729
21
-0.8676271
0
LINE
8
layer1
10
-8.0370729
20
-0.8676271
11
-8.0582602
21
-0.8517967
0
LINE
8
layer1
10
-8.0582602
20
-0.8517967
11
-8.0836079
21
-0.8373136
0
LINE
8
layer1
10
-8.0836079
20
-0.8373136
11
-8.1130895
21
-0.8243459
0
LINE
8
layer1
10
-8.1130895
20
-0.8243459
11
-8.1466372
21
-0.813065
0
LINE
8
layer1
10
-8.1466372
20
-0.813065
11
-8.1841866
21
-0.8036228
0
LINE
8
layer1
10
-8.1841866
20
-0.8036228
11
-8.2710607
21
-0.7909367
0
LINE
8
layer1
10
-8.2710607
20
-0.7909367
11
-8.3731269
21
-0.7875517
0
LINE
8
layer1
10
-8.3731269
20
-0.7875517
11
-8.4725549
21
-0.7901476
0
LINE
8
layer1
10
-8.4725549
20
-0.7901476
11
-8.5796821
21
-0.7833827
0
LINE
8
layer1
10
-8.5796821
20
-0.7833827
11
-8.654366
21
-0.774213
0
LINE
8
layer1
10
-8.654366
20
-0.774213
11
-8.7431199
21
-0.7595668
0
LINE
8
layer1
10
-8.7431199
20
-0.7595668
11
-8.8474432
21
-0.7378391
0
LINE
8
layer1
10
-8.8474432
20
-0.7378391
11
-8.9641168
21
-0.7083883
0
LINE
8
layer1
10
-8.9641168
20
-0.7083883
11
-9.0945742
21
-0.6695785
0
LINE
8
layer1
10
-9.0945742
20
-0.6695785
11
-9.2366675
21
-0.6207152
0
LINE
8
layer1
10
-9.2366675
20
-0.6207152
11
-9.3902606
21
-0.5606125
0
LINE
8
layer1
10
-9.3902606
20
-0.5606125
11
-9.5547349
21
-0.4881903
0
LINE
8
layer1
10
-9.5547349
20
-0.4881903
11
-9.7299708
21
-0.4020932
0
LINE
8
layer1
10
-9.7299708
20
-0.4020932
11
-9.895052
21
-0.3125269
0
ARC
8
layer1
10
0.0000138
20
1e-7
40
9.9
50
178.1909649
51
181.8090357
0
LINE
8
layer1
10
-9.895052
20
0.3125269
11
-9.7299708
21
0.4020932
0
LINE
8
layer1
10
-9.7299708
20
0.4020932
11
-9.5547349
21
0.4881903
0
LINE
8
layer1
10
-9.5547349
20
0.4881903
11
-9.3902606
21
0.5606125
0
LINE
8
layer1
10
-9.3902606
20
0.5606125
11
-9.2366675
21
0.6207152
0
LINE
8
layer1
10
-9.2366675
20
0.6207152
11
-9.0945742
21
0.6695785
0
LINE
8
layer1
10
-9.0945742
20
0.6695785
11
-8.9641168
21
0.7083883
0
LINE
8
layer1
10
-8.9641168
20
0.7083883
11
-8.8474432
21
0.7378391
0
LINE
8
layer1
10
-8.8474432
20
0.7378391
11
-8.7431199
21
0.7595668
0
LINE
8
layer1
10
-8.7431199
20
0.7595668
11
-8.654366
21
0.774213
0
LINE
8
layer1
10
-8.654366
20
0.774213
11
-8.5796821
21
0.7833827
0
LINE
8
layer1
10
-8.5796821
20
0.7833827
11
-8.4725549
21
0.7901476
0
LINE
8
layer1
10
-8.4725549
20
0.7901476
11
-8.3731269
21
0.7875517
0
LINE
8
layer1
10
-8.3731269
20
0.7875517
11
-8.2710607
21
0.7909367
0
LINE
8
layer1
10
-8.2710607
20
0.7909367
11
-8.1841866
21
0.8036228
0
LINE
8
layer1
10
-8.1841866
20
0.8036228
11
-8.1466372
21
0.813065
0
LINE
8
layer1
10
-8.1466372
20
0.813065
11
-8.1130895
21
0.8243459
0
LINE
8
layer1
10
-8.1130895
20
0.8243459
11
-8.0836079
21
0.8373136
0
LINE
8
layer1
10
-8.0836079
20
0.8373136
11
-8.0582602
21
0.8517967
0
LINE
8
layer1
10
-8.0582602
20
0.8517967
11
-8.0370729
21
0.8676271
0
LINE
8
layer1
10
-8.0370729
20
0.8676271
11
-8.020094
21
0.8846304
0
LINE
8
layer1
10
-8.020094
20
0.8846304
11
-8.0073781
21
0.9026531
0
LINE
8
layer1
10
-8.0073781
20
0.9026531
11
-7.9989434
21
0.9215158
0
LINE
8
layer1
10
-7.9989434
20
0.9215158
11
-7.9948183
21
0.9410409
0
LINE
8
layer1
10
-7.9948183
20
0.9410409
11
-7.9508911
21
1.2592974
0
LINE
8
layer1
10
-7.9508911
20
1.2592974
11
-7.8943216
21
1.5755516
0
LINE
8
layer1
10
-7.8943216
20
1.5755516
11
-7.8922113
21
1.5953958
0
LINE
8
layer1
10
-7.8922113
20
1.5953958
11
-7.8944042
21
1.6159418
0
LINE
8
layer1
10
-7.8944042
20
1.6159418
11
-7.9009285
21
1.6370119
0
LINE
8
layer1
10
-7.9009285
20
1.6370119
11
-7.9118221
21
1.6584297
0
LINE
8
layer1
10
-7.9118221
20
1.6584297
11
-7.9270805
21
1.6800326
0
LINE
8
layer1
10
-7.9270805
20
1.6800326
11
-7.9467121
21
1.7016397
0
LINE
8
layer1
10
-7.9467121
20
1.7016397
11
-7.9707435
21
1.723083
0
LINE
8
layer1
10
-7.9707435
20
1.723083
11
-7.9991633
21
1.7441786
0
LINE
8
layer1
10
-7.9991633
20
1.7441786
11
-8.0319571
21
1.7647621
0
LINE
8
layer1
10
-8.0319571
20
1.7647621
11
-8.1106591
21
1.8036728
0
LINE
8
layer1
10
-8.1106591
20
1.8036728
11
-8.2066837
21
1.8384323
0
LINE
8
layer1
10
-8.2066837
20
1.8384323
11
-8.3020476
21
1.8666884
0
LINE
8
layer1
10
-8.3020476
20
1.8666884
11
-8.4018411
21
1.9062263
0
LINE
8
layer1
10
-8.4018411
20
1.9062263
11
-8.4700362
21
1.9380259
0
LINE
8
layer1
10
-8.4700362
20
1.9380259
11
-8.5499202
21
1.9793817
0
LINE
8
layer1
10
-8.5499202
20
1.9793817
11
-8.6424234
21
2.0322837
0
LINE
8
layer1
10
-8.6424234
20
2.0322837
11
-8.7442857
21
2.0963472
0
LINE
8
layer1
10
-8.7442857
20
2.0963472
11
-8.8563651
21
2.173571
0
LINE
8
layer1
10
-8.8563651
20
2.173571
11
-8.9764043
21
2.263952
0
LINE
8
layer1
10
-8.9764043
20
2.263952
11
-9.1039073
21
2.368576
0
LINE
8
layer1
10
-9.1039073
20
2.368576
11
-9.2379519
21
2.4882789
0
LINE
8
layer1
10
-9.2379519
20
2.4882789
11
-9.3780058
21
2.624313
0
LINE
8
layer1
10
-9.3780058
20
2.624313
11
-9.5073298
21
2.7605084
0
ARC
8
layer1
10
0.0000131
20
-0.0000045
40
9.9
50
160.1909633
51
163.8090342
0
LINE
8
layer1
10
-9.3141775
20
3.35497
11
-9.1294985
21
3.3891397
0
LINE
8
layer1
10
-9.1294985
20
3.3891397
11
-8.9362338
21
3.416872
0
LINE
8
layer1
10
-8.9362338
20
3.416872
11
-8.7574297
21
3.4349242
0
LINE
8
layer1
10
-8.7574297
20
3.4349242
11
-8.5927812
21
3.4446224
0
LINE
8
layer1
10
-8.5927812
20
3.4446224
11
-8.4425429
21
3.4471849
0
LINE
8
layer1
10
-8.4425429
20
3.4471849
11
-8.3064777
21
3.4437817
0
LINE
8
layer1
10
-8.3064777
20
3.4437817
11
-8.1864137
21
3.435737
0
LINE
8
layer1
10
-8.1864137
20
3.435737
11
-8.0804821
21
3.4241636
0
LINE
8
layer1
10
-8.0804821
20
3.4241636
11
-7.9915462
21
3.4106665
0
LINE
8
layer1
10
-7.9915462
20
3.4106665
11
-7.917684
21
3.3963088
0
LINE
8
layer1
10
-7.917684
20
3.3963088
11
-7.8137095
21
3.3696385
0
LINE
8
layer1
10
-7.8137095
20
3.3696385
11
-7.71995
21
3.3364447
0
LINE
8
layer1
10
-7.71995
20
3.3364447
11
-7.6218333
21
3.3081238
0
LINE
8
layer1
10
-7.6218333
20
3.3081238
11
-7.5352909
21
3.2933434
0
LINE
8
layer1
10
-7.5352909
20
3.2933434
11
-7.4966615
21
3.2907201
0
LINE
8
layer1
10
-7.4966615
20
3.2907201
11
-7.4612697
21
3.291082
0
LINE
8
layer1
10
-7.4612697
20
3.291082
11
-7.4292239
21
3.2943048
0
LINE
8
layer1
10
-7.4292239
20
3.2943048
11
-7.4006412
21
3.3002461
0
LINE
8
layer1
10
-7.4006412
20
3.3002461
11
-7.375599
21
3.3087546
0
LINE
8
layer1
10
-7.375599
20
3.3087546
11
-7.3541968
21
3.3196788
0
LINE
8
layer1
10
-7.3541968
20
3.3196788
11
-7.3365339
21
3.33289
0
LINE
8
layer1
10
-7.3365339
20
3.33289
11
-7.3226832
21
3.3482231
0
LINE
8
layer1
10
-7.3226832
20
3.3482231
11
-7.3127264
21
3.3655178
0
LINE
8
layer1
10
-7.3127264
20
3.3655178
11
-7.1726025
21
3.6546235
0
LINE
8
layer1
10
-7.1726025
20
3.6546235
11
-7.0210738
21
3.9379182
0
LINE
8
layer1
10
-7.0210738
20
3.9379182
11
-7.0129346
21
3.956139
0
LINE
8
layer1
10
-7.0129346
20
3.956139
11
-7.0086711
21
3.9763571
0
LINE
8
layer1
10
-7.0086711
20
3.9763571
11
-7.008365
21
3.998412
0
LINE
8
layer1
10
-7.008365
20
3.998412
11
-7.012107
21
4.0221478
0
LINE
8
layer1
10
-7.012107
20
4.0221478
11
-7.019943
21
4.0474085
0
LINE
8
layer1
10
-7.019943
20
4.0474085
11
-7.0319368
21
4.0740246
0
LINE
8
layer1
10
-7.0319368
20
4.0740246
11
-7.0481656
21
4.1018445
0
LINE
8
layer1
10
-7.0481656
20
4.1018445
11
-7.0686756
21
4.1306898
0
LINE
8
layer1
10
-7.0686756
20
4.1306898
11
-7.0935037
21
4.1603997
0
LINE
8
layer1
10
-7.0935037
20
4.1603997
11
-7.1563296
21
4.2217263
0
LINE
8
layer1
10
-7.1563296
20
4.2217263
11
-7.2369132
21
4.2844578
0
LINE
8
layer1
10
-7.2369132
20
4.2844578
11
-7.318878
21
4.3408
0
LINE
8
layer1
10
-7.318878
20
4.3408
11
-7.4015694
21
4.4092407
0
LINE
8
layer1
10
-7.4015694
20
4.4092407
11
-7.4566001
21
4.4605573
0
LINE
8
layer1
10
-7.4566001
20
4.4605573
11
-7.5197947
21
4.5245745
0
LINE
8
layer1
10
-7.5197947
20
4.5245745
11
-7.5914229
21
4.6034723
0
LINE
8
layer1
10
-7.5914229
20
4.6034723
11
-7.668503
21
4.6958775
0
LINE
8
layer1
10
-7.668503
20
4.6958775
11
-7.7512334
21
4.8039562
0
LINE
8
layer1
10
-7.7512334
20
4.8039562
11
-7.8374682
21
4.9270078
0
LINE
8
layer1
10
-7.8374682
20
4.9270078
11
-7.9264001
21
5.0659117
0
LINE
8
layer1
10
-7.9264001
20
5.0659117
11
-8.0168939
21
5.221178
0
LINE
8
layer1
10
-8.0168939
20
5.221178
11
-8.1080562
21
5.3938331
0
LINE
8
layer1
10
-8.1080562
20
5.3938331
11
-8.1889639
21
5.563326
0
ARC
8
layer1
10
0.0000108
20
-0.0000087
40
9.9
50
142.1909605
51
145.8090313
0
LINE
8
layer1
10
-7.8215665
20
6.0690052
11
-7.6353673
21
6.0444336
0
LINE
8
layer1
10
-7.6353673
20
6.0444336
11
-7.4429918
21
6.0110865
0
LINE
8
layer1
10
-7.4429918
20
6.0110865
11
-7.2673607
21
5.9730017
0
LINE
8
layer1
10
-7.2673607
20
5.9730017
11
-7.1077737
21
5.931346
0
LINE
8
layer1
10
-7.1077737
20
5.931346
11
-6.9640967
21
5.8873569
0
LINE
8
layer1
10
-6.9640967
20
5.8873569
11
-6.8357427
21
5.8420738
0
LINE
8
layer1
10
-6.8357427
20
5.8420738
11
-6.724041
21
5.797321
0
LINE
8
layer1
10
-6.724041
20
5.797321
11
-6.6268704
21
5.7535794
0
LINE
8
layer1
10
-6.6268704
20
5.7535794
11
-6.5464582
21
5.7132602
0
LINE
8
layer1
10
-6.5464582
20
5.7132602
11
-6.4806478
21
5.6767805
0
LINE
8
layer1
10
-6.4806478
20
5.6767805
11
-6.3900038
21
5.6192857
0
LINE
8
layer1
10
-6.3900038
20
5.6192857
11
-6.3110907
21
5.5587432
0
LINE
8
layer1
10
-6.3110907
20
5.5587432
11
-6.2265278
21
5.5014887
0
LINE
8
layer1
10
-6.2265278
20
5.5014887
11
-6.1487884
21
5.4606887
0
LINE
8
layer1
10
-6.1487884
20
5.4606887
11
-6.1128603
21
5.4462566
0
LINE
8
layer1
10
-6.1128603
20
5.4462566
11
-6.0790889
21
5.4356642
0
LINE
8
layer1
10
-6.0790889
20
5.4356642
11
-6.0476156
21
5.4288265
0
LINE
8
layer1
10
-6.0476156
20
5.4288265
11
-6.0185959
21
5.4256445
0
LINE
8
layer1
10
-6.0185959
20
5.4256445
11
-5.9921501
21
5.425998
0
LINE
8
layer1
10
-5.9921501
20
5.425998
11
-5.9684196
21
5.429774
0
LINE
8
layer1
10
-5.9684196
20
5.429774
11
-5.9475388
21
5.4368804
0
LINE
8
layer1
10
-5.9475388
20
5.4368804
11
-5.9296278
21
5.4471829
0
LINE
8
layer1
10
-5.9296278
20
5.4471829
11
-5.9148139
21
5.4605543
0
LINE
8
layer1
10
-5.9148139
20
5.4605543
11
-5.6922096
21
5.6922096
0
LINE
8
layer1
10
-5.6922096
20
5.6922096
11
-5.4605543
21
5.9148139
0
LINE
8
layer1
10
-5.4605543
20
5.9148139
11
-5.4471829
21
5.9296278
0
LINE
8
layer1
10
-5.4471829
20
5.9296278
11
-5.4368804
21
5.9475388
0
LINE
8
layer1
10
-5.4368804
20
5.9475388
11
-5.429774
21
5.9684196
0
LINE
8
layer1
10
-5.429774
20
5.9684196
11
-5.425998
21
5.9921501
0
LINE
8
layer1
10
-5.425998
20
5.9921501
11
-5.4256445
21
6.0185959
0
LINE
8
layer1
10
-5.4256445
20
6.0185959
11
-5.4288265
21
6.0476156
0
LINE
8
layer1
10
-5.4288265
20
6.0476156
11
-5.4356642
21
6.0790889
0
LINE
8
layer1
10
-5.4356642
20
6.0790889
11
-5.4462566
21
6.1128603
0
LINE
8
layer1
10
-5.4462566
20
6.1128603
11
-5.4606887
21
6.1487884
0
LINE
8
layer1
10
-5.4606887
20
6.1487884
11
-5.5014887
21
6.2265278
0
LINE
8
layer1
10
-5.5014887
20
6.2265278
11
-5.5587432
21
6.3110907
0
LINE
8
layer1
10
-5.5587432
20
6.3110907
11
-5.6192857
21
6.3900038
0
LINE
8
layer1
10
-5.6192857
20
6.3900038
11
-5.6767805
21
6.4806478
0
LINE
8
layer1
10
-5.6767805
20
6.4806478
11
-5.7132602
21
6.5464582
0
LINE
8
layer1
10
-5.7132602
20
6.5464582
11
-5.7535794
21
6.6268704
0
LINE
8
layer1
10
-5.7535794
20
6.6268704
11
-5.797321
21
6.724041
0
LINE
8
layer1
10
-5.797321
20
6.724041
11
-5.8420738
21
6.8357427
0
LINE
8
layer1
10
-5.8420738
20
6.8357427
11
-5.8873569
21
6.9640967
0
LINE
8
layer1
10
-5.8873569
20
6.9640967
11
-5.931346
21
7.1077737
0
LINE
8
layer1
10
-5.931346
20
7.1077737
11
-5.9730017
21
7.2673607
0
LINE
8
layer1
10
-5.9730017
20
7.2673607
11
-6.0110865
21
7.4429918
0
LINE
8
layer1
10
-6.0110865
20
7.4429918
11
-6.0444336
21
7.6353673
0
LINE
8
layer1
10
-6.0444336
20
7.6353673
11
-6.0690052
21
7.8215665
0
ARC
8
layer1
10
0.0000087
20
-0.0000107
40
9.9
50
124.1909687
51
127.8090395
0
LINE
8
layer1
10
-5.563326
20
8.1889639
11
-5.3938331
21
8.1080562
0
LINE
8
layer1
10
-5.3938331
20
8.1080562
11
-5.221178
21
8.0168939
0
LINE
8
layer1
10
-5.221178
20
8.0168939
11
-5.0659117
21
7.9264001
0
LINE
8
layer1
10
-5.0659117
20
7.9264001
11
-4.9270078
21
7.8374682
0
LINE
8
layer1
10
-4.9270078
20
7.8374682
11
-4.8039562
21
7.7512334
0
LINE
8
layer1
10
-4.8039562
20
7.7512334
11
-4.6958775
21
7.668503
0
LINE
8
layer1
10
-4.6958775
20
7.668503
11
-4.6034723
21
7.5914229
0
LINE
8
layer1
10
-4.6034723
20
7.5914229
11
-4.5245745
21
7.5197947
0
LINE
8
layer1
10
-4.5245745
20
7.5197947
11
-4.4605573
21
7.4566001
0
LINE
8
layer1
10
-4.4605573
20
7.4566001
11
-4.4092407
21
7.4015694
0
LINE
8
layer1
10
-4.4092407
20
7.4015694
11
-4.3408
21
7.318878
0
LINE
8
layer1
10
-4.3408
20
7.318878
11
-4.2844578
21
7.2369132
0
LINE
8
layer1
10
-4.2844578
20
7.2369132
11
-4.2217263
21
7.1563296
0
LINE
8
layer1
10
-4.2217263
20
7.1563296
11
-4.1603997
21
7.0935037
0
LINE
8
layer1
10
-4.1603997
20
7.0935037
11
-4.1306898
21
7.0686756
0
LINE
8
layer1
10
-4.1306898
20
7.0686756
11
-4.1018445
21
7.0481656
0
LINE
8
layer1
10
-4.1018445
20
7.0481656
11
-4.0740246
21
7.0319368
0
LINE
8
layer1
10
-4.0740246
20
7.0319368
11
-4.0474085
21
7.019943
0
LINE
8
layer1
10
-4.0474085
20
7.019943
11
-4.0221478
21
7.012107
0
LINE
8
layer1
10
-4.0221478
20
7.012107
11
-3.998412
21
7.008365
0
LINE
8
layer1
10
-3.998412
20
7.008365
11
-3.9763571
21
7.0086711
0
LINE
8
layer1
10
-3.9763571
20
7.0086711
11
-3.956139
21
7.0129346
0
LINE
8
layer1
10
-3.956139
20
7.0129346
11
-3.9379182
21
7.0210738
0
LINE
8
layer1
10
-3.9379182
20
7.0210738
11
-3.6546235
21
7.1726025
0
LINE
8
layer1
10
-3.6546235
20
7.1726025
11
-3.3655178
21
7.3127264
0
LINE
8
layer1
10
-3.3655178
20
7.3127264
11
-3.3482231
21
7.3226832
0
LINE
8
layer1
10
-3.3482231
20
7.3226832
11
-3.33289
21
7.3365339
0
LINE
8
layer1
10
-3.33289
20
7.3365339
11
-3.3196788
21
7.3541968
0
LINE
8
layer1
10
-3.3196788
20
7.3541968
11
-3.3087546
21
7.375599
0
LINE
8
layer1
10
-3.3087546
20
7.375599
11
-3.3002461
21
7.4006412
0
LINE
8
layer1
10
-3.3002461
20
7.4006412
11
-3.2943048
21
7.4292239
0
LINE
8
layer1
10
-3.2943048
20
7.4292239
11
-3.291082
21
7.4612697
0
LINE
8
layer1
10
-3.291082
20
7.4612697
11
-3.2907201
21
7.4966615
0
LINE
8
layer1
10
-3.2907201
20
7.4966615
11
-3.2933434
21
7.5352909
0
LINE
8
layer1
10
-3.2933434
20
7.5352909
11
-3.3081238
21
7.6218333
0
LINE
8
layer1
10
-3.3081238
20
7.6218333
11
-3.3364447
21
7.71995
0
LINE
8
layer1
10
-3.3364447
20
7.71995
11
-3.3696385
21
7.8137095
0
LINE
8
layer1
10
-3.3696385
20
7.8137095
11
-3.3963088
21
7.917684
0
LINE
8
layer1
10
-3.3963088
20
7.917684
11
-3.4106665
21
7.9915462
0
LINE
8
layer1
10
-3.4106665
20
7.9915462
11
-3.4241636
21
8.0804821
0
LINE
8
layer1
10
-3.4241636
20
8.0804821
11
-3.435737
21
8.1864137
0
LINE
8
layer1
10
-3.435737
20
8.1864137
11
-3.4437817
21
8.3064777
0
LINE
8
layer1
10
-3.4437817
20
8.3064777
11
-3.4471849
21
8.4425429
0
LINE
8
layer1
10
-3.4471849
20
8.4425429
11
-3.4446224
21
8.5927812
0
LINE
8
layer1
10
-3.4446224
20
8.5927812
11
-3.4349242
21
8.7574297
0
LINE
8
layer1
10
-3.4349242
20
8.7574297
11
-3.416872
21
8.9362338
0
LINE
8
layer1
10
-3.416872
20
8.9362338
11
-3.3891397
21
9.1294985
0
LINE
8
layer1
10
-3.3891397
20
9.1294985
11
-3.35497
21
9.3141775
0
ARC
8
layer1
10
0.0000045
20
-0.0000131
40
9.9
50
106.1909658
51
109.8090367
0
LINE
8
layer1
10
-2.7605084
20
9.5073298
11
-2.624313
21
9.3780058
0
LINE
8
layer1
10
-2.624313
20
9.3780058
11
-2.4882789
21
9.2379519
0
LINE
8
layer1
10
-2.4882789
20
9.2379519
11
-2.368576
21
9.1039073
0
LINE
8
layer1
10
-2.368576
20
9.1039073
11
-2.263952
21
8.9764043
0
LINE
8
layer1
10
-2.263952
20
8.9764043
11
-2.173571
21
8.8563651
0
LINE
8
layer1
10
-2.173571
20
8.8563651
11
-2.0963472
21
8.7442857
0
LINE
8
layer1
10
-2.0963472
20
8.7442857
11
-2.0322837
21
8.6424234
0
LINE
8
layer1
10
-2.0322837
20
8.6424234
11
-1.9793817
21
8.5499202
0
LINE
8
layer1
10
-1.9793817
20
8.5499202
11
-1.9380259
21
8.4700362
0
LINE
8
layer1
10
-1.9380259
20
8.4700362
11
-1.9062263
21
8.4018411
0
LINE
8
layer1
10
-1.9062263
20
8.4018411
11
-1.8666884
21
8.3020476
0
LINE
8
layer1
10
-1.8666884
20
8.3020476
11
-1.8384323
21
8.2066837
0
LINE
8
layer1
10
-1.8384323
20
8.2066837
11
-1.8036728
21
8.1106591
0
LINE
8
layer1
10
-1.8036728
20
8.1106591
11
-1.7647621
21
8.0319571
0
LINE
8
layer1
10
-1.7647621
20
8.0319571
11
-1.7441786
21
7.9991633
0
LINE
8
layer1
10
-1.7441786
20
7.9991633
11
-1.723083
21
7.9707435
0
LINE
8
layer1
10
-1.723083
20
7.9707435
11
-1.7016397
21
7.9467121
0
LINE
8
layer1
10
-1.7016397
20
7.9467121
11
-1.6800326
21
7.9270805
0
LINE
8
layer1
10
-1.6800326
20
7.9270805
11
-1.6584297
21
7.9118221
0
LINE
8
layer1
10
-1.6584297
20
7.9118221
11
-1.6370119
21
7.9009285
0
LINE
8
layer1
10
-1.6370119
20
7.9009285
11
-1.6159418
21
7.8944042
0
LINE
8
layer1
10
-1.6159418
20
7.8944042
11
-1.5953958
21
7.8922113
0
LINE
8
layer1
10
-1.5953958
20
7.8922113
11
-1.5755516
21
7.8943216
0
LINE
8
layer1
10
-1.5755516
20
7.8943216
11
-1.2592974
21
7.9508911
0
LINE
8
layer1
10
-1.2592974
20
7.9508911
11
-0.9410409
21
7.9948183
0
LINE
8
layer1
10
-0.9410409
20
7.9948183
11
-0.9215158
21
7.9989434
0
LINE
8
layer1
10
-0.9215158
20
7.9989434
11
-0.9026531
21
8.0073781
0
LINE
8
layer1
10
-0.9026531
20
8.0073781
11
-0.8846304
21
8.020094
0
LINE
8
layer1
10
-0.8846304
20
8.020094
11
-0.8676271
21
8.0370729
0
LINE
8
layer1
10
-0.8676271
20
8.0370729
11
-0.8517967
21
8.0582602
0
LINE
8
layer1
10
-0.8517967
20
8.0582602
11
-0.8373136
21
8.0836079
0
LINE
8
layer1
10
-0.8373136
20
8.0836079
11
-0.8243459
21
8.1130895
0
LINE
8
layer1
10
-0.8243459
20
8.1130895
11
-0.813065
21
8.1466372
0
LINE
8
layer1
10
-0.813065
20
8.1466372
11
-0.8036228
21
8.1841866
0
LINE
8
layer1
10
-0.8036228
20
8.1841866
11
-0.7909367
21
8.2710607
0
LINE
8
layer1
10
-0.7909367
20
8.2710607
11
-0.7875517
21
8.3731269
0
LINE
8
layer1
10
-0.7875517
20
8.3731269
11
-0.7901476
21
8.4725549
0
LINE
8
layer1
10
-0.7901476
20
8.4725549
11
-0.7833827
21
8.5796821
0
LINE
8
layer1
10
-0.7833827
20
8.5796821
11
-0.774213
21
8.654366
0
LINE
8
layer1
10
-0.774213
20
8.654366
11
-0.7595668
21
8.7431199
0
LINE
8
layer1
10
-0.7595668
20
8.7431199
11
-0.7378391
21
8.8474432
0
LINE
8
layer1
10
-0.7378391
20
8.8474432
11
-0.7083883
21
8.9641168
0
LINE
8
layer1
10
-0.7083883
20
8.9641168
11
-0.6695785
21
9.0945742
0
LINE
8
layer1
10
-0.6695785
20
9.0945742
11
-0.6207152
21
9.2366675
0
LINE
8
layer1
10
-0.6207152
20
9.2366675
11
-0.5606125
21
9.3902606
0
LINE
8
layer1
10
-0.5606125
20
9.3902606
11
-0.4881903
21
9.5547349
0
LINE
8
layer1
10
-0.4881903
20
9.5547349
11
-0.4020932
21
9.7299708
0
LINE
8
layer1
10
-0.4020932
20
9.7299708
11
-0.3125269
21
9.895052
0
ARC
8
layer1
10
1e-7
20
-0.0000138
40
9.9
50
88.1909649
51
91.8090357
0
LINE
8
layer1
10
0.3125269
20
9.895052
11
0.4020932
21
9.7299708
0
LINE
8
layer1
10
0.4020932
20
9.7299708
11
0.4881903
21
9.5547349
0
LINE
8
layer1
10
0.4881903
20
9.5547349
11
0.5606125
21
9.3902606
0
LINE
8
layer1
10
0.5606125
20
9.3902606
11
0.6207152
21
9.2366675
0
LINE
8
layer1
10
0.6207152
20
9.2366675
11
0.6695785
21
9.0945742
0
LINE
8
layer1
10
0.6695785
20
9.0945742
11
0.7083883
21
8.9641168
0
LINE
8
layer1
10
0.7083883
20
8.9641168
11
0.7378391
21
8.8474432
0
LINE
8
layer1
10
0.7378391
20
8.8474432
11
0.7595668
21
8.7431199
0
LINE
8
layer1
10
0.7595668
20
8.7431199
11
0.774213
21
8.654366
0
LINE
8
layer1
10
0.774213
20
8.654366
11
0.7833827
21
8.5796821
0
LINE
8
layer1
10
0.7833827
20
8.5796821
11
0.7901476
21
8.4725549
0
LINE
8
layer1
10
0.7901476
20
8.4725549
11
0.7875517
21
8.3731269
0
LINE
8
layer1
10
0.7875517
20
8.3731269
11
0.7909367
21
8.2710607
0
LINE
8
layer1
10
0.7909367
20
8.2710607
11
0.8036228
21
8.1841866
0
LINE
8
layer1
10
0.8036228
20
8.1841866
11
0.813065
21
8.1466372
0
LINE
8
layer1
10
0.813065
20
8.1466372
11
0.8243459
21
8.1130895
0
LINE
8
layer1
10
0.8243459
20
8.1130895
11
0.8373136
21
8.0836079
0
LINE
8
layer1
10
0.8373136
20
8.0836079
11
0.8517967
21
8.0582602
0
LINE
8
layer1
10
0.8517967
20
8.0582602
11
0.8676271
21
8.0370729
0
LINE
8
layer1
10
0.8676271
20
8.0370729
11
0.8846304
21
8.020094
0
LINE
8
layer1
10
0.8846304
20
8.020094
11
0.9026531
21
8.0073781
0
LINE
8
layer1
10
0.9026531
20
8.0073781
11
0.9215158
21
7.9989434
0
LINE
8
layer1
10
0.9215158
20
7.9989434
11
0.9410409
21
7.9948183
0
LINE
8
layer1
10
0.9410409
20
7.9948183
11
1.2592974
21
7.9508911
0
LINE
8
layer1
10
1.2592974
20
7.9508911
11
1.5755516
21
7.8943216
0
LINE
8
layer1
10
1.5755516
20
7.8943216
11
1.5953958
21
7.8922113
0
LINE
8
layer1
10
1.5953958
20
7.8922113
11
1.6159418
21
7.8944042
0
LINE
8
layer1
10
1.6159418
20
7.8944042
11
1.6370119
21
7.9009285
0
LINE
8
layer1
10
1.6370119
20
7.9009285
11
1.6584297
21
7.9118221
0
LINE
8
layer1
10
1.6584297
20
7.9118221
11
1.6800326
21
7.9270805
0
LINE
8
layer1
10
1.6800326
20
7.9270805
11
1.7016397
21
7.9467121
0
LINE
8
layer1
10
1.7016397
20
7.9467121
11
1.723083
21
7.9707435
0
LINE
8
layer1
10
1.723083
20
7.9707435
11
1.7441786
21
7.9991633
0
LINE
8
layer1
10
1.7441786
20
7.9991633
11
1.7647621
21
8.0319571
0
LINE
8
layer1
10
1.7647621
20
8.0319571
11
1.8036728
21
8.1106591
0
LINE
8
layer1
10
1.8036728
20
8.1106591
11
1.8384323
21
8.2066837
0
LINE
8
layer1
10
1.8384323
20
8.2066837
11
1.8666884
21
8.3020476
0
LINE
8
layer1
10
1.8666884
20
8.3020476
11
1.9062263
21
8.4018411
0
LINE
8
layer1
10
1.9062263
20
8.4018411
11
1.9380259
21
8.4700362
0
LINE
8
layer1
10
1.9380259
20
8.4700362
11
1.9793817
21
8.5499202
0
LINE
8
layer1
10
1.9793817
20
8.5499202
11
2.0322837
21
8.6424234
0
LINE
8
layer1
10
2.0322837
20
8.6424234
11
2.0963472
21
8.7442857
0
LINE
8
layer1
10
2.0963472
20
8.7442857
11
2.173571
21
8.8563651
0
LINE
8
layer1
10
2.173571
20
8.8563651
11
2.263952
21
8.9764043
0
LINE
8
layer1
10
2.263952
20
8.9764043
11
2.368576
21
9.1039073
0
LINE
8
layer1
10
2.368576
20
9.1039073
11
2.4882789
21
9.2379519
0
LINE
8
layer1
10
2.4882789
20
9.2379519
11
2.624313
21
9.3780058
0
LINE
8
layer1
10
2.624313
20
9.3780058
11
2.7605084
21
9.5073298
0
ARC
8
layer1
10
-0.0000045
20
-0.0000131
40
9.9
50
70.1909633
51
73.8090342
0
LINE
8
layer1
10
3.35497
20
9.3141775
11
3.3891397
21
9.1294985
0
LINE
8
layer1
10
3.3891397
20
9.1294985
11
3.416872
21
8.9362338
0
LINE
8
layer1
10
3.416872
20
8.9362338
11
3.4349242
21
8.7574297
0
LINE
8
layer1
10
3.4349242
20
8.7574297
11
3.4446224
21
8.5927812
0
LINE
8
layer1
10
3.4446224
20
8.5927812
11
3.4471849
21
8.4425429
0
LINE
8
layer1
10
3.4471849
20
8.4425429
11
3.4437817
21
8.3064777
0
LINE
8
layer1
10
3.4437817
20
8.3064777
11
3.435737
21
8.1864137
0
LINE
8
layer1
10
3.435737
20
8.1864137
11
3.4241636
21
8.0804821
0
LINE
8
layer1
10
3.4241636
20
8.0804821
11
3.4106665
21
7.9915462
0
LINE
8
layer1
10
3.4106665
20
7.9915462
11
3.3963088
21
7.917684
0
LINE
8
layer1
10
3.3963088
20
7.917684
11
3.3696385
21
7.8137095
0
LINE
8
layer1
10
3.3696385
20
7.8137095
11
3.3364447
21
7.71995
0
LINE
8
layer1
10
3.3364447
20
7.71995
11
3.3081238
21
7.6218333
0
LINE
8
layer1
10
3.3081238
20
7.6218333
11
3.2933434
21
7.5352909
0
LINE
8
layer1
10
3.2933434
20
7.5352909
11
3.2907201
21
7.4966615
0
LINE
8
layer1
10
3.2907201
20
7.4966615
11
3.291082
21
7.4612697
0
LINE
8
layer1
10
3.291082
20
7.4612697
11
3.2943048
21
7.4292239
0
LINE
8
layer1
10
3.2943048
20
7.4292239
11
3.3002461
21
7.4006412
0
LINE
8
layer1
10
3.3002461
20
7.4006412
11
3.3087546
21
7.375599
0
LINE
8
layer1
10
3.3087546
20
7.375599
11
3.3196788
21
7.3541968
0
LINE
8
layer1
10
3.3196788
20
7.3541968
11
3.33289
21
7.3365339
0
LINE
8
layer1
10
3.33289
20
7.3365339
11
3.3482231
21
7.3226832
0
LINE
8
layer1
10
3.3482231
20
7.3226832
11
3.3655178
21
7.3127264
0
LINE
8
layer1
10
3.3655178
20
7.3127264
11
3.6546235
21
7.1726025
0
LINE
8
layer1
10
3.6546235
20
7.1726025
11
3.9379182
21
7.0210738
0
LINE
8
layer1
10
3.9379182
20
7.0210738
11
3.956139
21
7.0129346
0
LINE
8
layer1
10
3.956139
20
7.0129346
11
3.9763571
21
7.0086711
0
LINE
8
layer1
10
3.9763571
20
7.0086711
11
3.998412
21
7.008365
0
LINE
8
layer1
10
3.998412
20
7.008365
11
4.0221478
21
7.012107
0
LINE
8
layer1
10
4.0221478
20
7.012107
11
4.0474085
21
7.019943
0
LINE
8
layer1
10
4.0474085
20
7.019943
11
4.0740246
21
7.0319368
0
LINE
8
layer1
10
4.0740246
20
7.0319368
11
4.1018445
21
7.0481656
0
LINE
8
layer1
10
4.1018445
20
7.0481656
11
4.1306898
21
7.0686756
0
LINE
8
layer1
10
4.1306898
20
7.0686756
11
4.1603997
21
7.0935037
0
LINE
8
layer1
10
4.1603997
20
7.0935037
11
4.2217263
21
7.1563296
0
LINE
8
layer1
10
4.2217263
20
7.1563296
11
4.2844578
21
7.2369132
0
LINE
8
layer1
10
4.2844578
20
7.2369132
11
4.3408
21
7.318878
0
LINE
8
layer1
10
4.3408
20
7.318878
11
4.4092407
21
7.4015694
0
LINE
8
layer1
10
4.4092407
20
7.4015694
11
4.4605573
21
7.4566001
0
LINE
8
layer1
10
4.4605573
20
7.4566001
11
4.5245745
21
7.5197947
0
LINE
8
layer1
10
4.5245745
20
7.5197947
11
4.6034723
21
7.5914229
0
LINE
8
layer1
10
4.6034723
20
7.5914229
11
4.6958775
21
7.668503
0
LINE
8
layer1
10
4.6958775
20
7.668503
11
4.8039562
21
7.7512334
0
LINE
8
layer1
10
4.8039562
20
7.7512334
11
4.9270078
21
7.8374682
0
LINE
8
layer1
10
4.9270078
20
7.8374682
11
5.0659117
21
7.9264001
0
LINE
8
layer1
10
5.0659117
20
7.9264001
11
5.221178
21
8.0168939
0
LINE
8
layer1
10
5.221178
20
8.0168939
11
5.3938331
21
8.1080562
0
LINE
8
layer1
10
5.3938331
20
8.1080562
11
5.563326
21
8.1889639
0
ARC
8
layer1
10
-0.0000087
20
-0.0000108
40
9.9
50
52.1909605
51
55.8090313
0
LINE
8
layer1
10
6.0690052
20
7.8215665
11
6.0444336
21
7.6353673
0
LINE
8
layer1
10
6.0444336
20
7.6353673
11
6.0110865
21
7.4429918
0
LINE
8
layer1
10
6.0110865
20
7.4429918
11
5.9730017
21
7.2673607
0
LINE
8
layer1
10
5.9730017
20
7.2673607
11
5.931346
21
7.1077737
0
LINE
8
layer1
10
5.931346
20
7.1077737
11
5.8873569
21
6.9640967
0
LINE
8
layer1
10
5.8873569
20
6.9640967
11
5.8420738
21
6.8357427
0
LINE
8
layer1
10
5.8420738
20
6.8357427
11
5.797321
21
6.724041
0
LINE
8
layer1
10
5.797321
20
6.724041
11
5.7535794
21
6.6268704
0
LINE
8
layer1
10
5.7535794
20
6.6268704
11
5.7132602
21
6.5464582
0
LINE
8
layer1
10
5.7132602
20
6.5464582
11
5.6767805
21
6.4806478
0
LINE
8
layer1
10
5.6767805
20
6.4806478
11
5.6192857
21
6.3900038
0
LINE
8
layer1
10
5.6192857
20
6.3900038
11
5.5587432
21
6.3110907
0
LINE
8
layer1
10
5.5587432
20
6.3110907
11
5.5014887
21
6.2265278
0
LINE
8
layer1
10
5.5014887
20
6.2265278
11
5.4606887
21
6.1487884
0
LINE
8
layer1
10
5.4606887
20
6.1487884
11
5.4462566
21
6.1128603
0
LINE
8
layer1
10
5.4462566
20
6.1128603
11
5.4356642
21
6.0790889
0
LINE
8
layer1
10
5.4356642
20
6.0790889
11
5.4288265
21
6.0476156
0
LINE
8
layer1
10
5.4288265
20
6.0476156
11
5.4256445
21
6.0185959
0
LINE
8
layer1
10
5.4256445
20
6.0185959
11
5.425998
21
5.9921501
0
LINE
8
layer1
10
5.425998
20
5.9921501
11
5.429774
21
5.9684196
0
LINE
8
layer1
10
5.429774
20
5.9684196
11
5.4368804
21
5.9475388
0
LINE
8
layer1
10
5.4368804
20
5.9475388
11
5.4471829
21
5.9296278
0
LINE
8
layer1
10
5.4471829
20
5.9296278
11
5.4605543
21
5.9148139
0
LINE
8
layer1
10
5.4605543
20
5.9148139
11
5.6922096
21
5.6922096
0
LINE
8
layer1
10
5.6922096
20
5.6922096
11
5.9148139
21
5.4605543
0
LINE
8
layer1
10
5.9148139
20
5.4605543
11
5.9296278
21
5.4471829
0
LINE
8
layer1
10
5.9296278
20
5.4471829
11
5.9475388
21
5.4368804
0
LINE
8
layer1
10
5.9475388
20
5.4368804
11
5.9684196
21
5.429774
0
LINE
8
layer1
10
5.9684196
20
5.429774
11
5.9921501
21
5.425998
0
LINE
8
layer1
10
5.9921501
20
5.425998
11
6.0185959
21
5.4256445
0
LINE
8
layer1
10
6.0185959
20
5.4256445
11
6.0476156
21
5.4288265
0
LINE
8
layer1
10
6.0476156
20
5.4288265
11
6.0790889
21
5.4356642
0
LINE
8
layer1
10
6.0790889
20
5.4356642
11
6.1128603
21
5.4462566
0
LINE
8
layer1
10
6.1128603
20
5.4462566
11
6.1487884
21
5.4606887
0
LINE
8
layer1
10
6.1487884
20
5.4606887
11
6.2265278
21
5.5014887
0
LINE
8
layer1
10
6.2265278
20
5.5014887
11
6.3110907
21
5.5587432
0
LINE
8
layer1
10
6.3110907
20
5.5587432
11
6.3900038
21
5.6192857
0
LINE
8
layer1
10
6.3900038
20
5.6192857
11
6.4806478
21
5.6767805
0
LINE
8
layer1
10
6.4806478
20
5.6767805
11
6.5464582
21
5.7132602
0
LINE
8
layer1
10
6.5464582
20
5.7132602
11
6.6268704
21
5.7535794
0
LINE
8
layer1
10
6.6268704
20
5.7535794
11
6.724041
21
5.797321
0
LINE
8
layer1
10
6.724041
20
5.797321
11
6.8357427
21
5.8420738
0
LINE
8
layer1
10
6.8357427
20
5.8420738
11
6.9640967
21
5.8873569
0
LINE
8
layer1
10
6.9640967
20
5.8873569
11
7.1077737
21
5.931346
0
LINE
8
layer1
10
7.1077737
20
5.931346
11
7.2673607
21
5.9730017
0
LINE
8
layer1
10
7.2673607
20
5.9730017
11
7.4429918
21
6.0110865
0
LINE
8
layer1
10
7.4429918
20
6.0110865
11
7.6353673
21
6.0444336
0
LINE
8
layer1
10
7.6353673
20
6.0444336
11
7.8215665
21
6.0690052
0
ARC
8
layer1
10
-0.0000107
20
-0.0000087
40
9.9
50
34.1909687
51
37.8090395
0
LINE
8
layer1
10
8.1889639
20
5.563326
11
8.1080562
21
5.3938331
0
LINE
8
layer1
10
8.1080562
20
5.3938331
11
8.0168939
21
5.221178
0
LINE
8
layer1
10
8.0168939
20
5.221178
11
7.9264001
21
5.0659117
0
LINE
8
layer1
10
7.9264001
20
5.0659117
11
7.8374682
21
4.9270078
0
LINE
8
layer1
10
7.8374682
20
4.9270078
11
7.7512334
21
4.8039562
0
LINE
8
layer1
10
7.7512334
20
4.8039562
11
7.668503
21
4.6958775
0
LINE
8
layer1
10
7.668503
20
4.6958775
11
7.5914229
21
4.6034723
0
LINE
8
layer1
10
7.5914229
20
4.6034723
11
7.5197947
21
4.5245745
0
LINE
8
layer1
10
7.5197947
20
4.5245745
11
7.4566001
21
4.4605573
0
LINE
8
layer1
10
7.4566001
20
4.4605573
11
7.4015694
21
4.4092407
0
LINE
8
layer1
10
7.4015694
20
4.4092407
11
7.318878
21
4.3408
0
LINE
8
layer1
10
7.318878
20
4.3408
11
7.2369132
21
4.2844578
0
LINE
8
layer1
10
7.2369132
20
4.2844578
11
7.1563296
21
4.2217263
0
LINE
8
layer1
10
7.1563296
20
4.2217263
11
7.0935037
21
4.1603997
0
LINE
8
layer1
10
7.0935037
20
4.1603997
11
7.0686756
21
4.1306898
0
LINE
8
layer1
10
7.0686756
20
4.1306898
11
7.0481656
21
4.1018445
0
LINE
8
layer1
10
7.0481656
20
4.1018445
11
7.0319368
21
4.0740246
0
LINE
8
layer1
10
7.0319368
20
4.0740246
11
7.019943
21
4.0474085
0
LINE
8
layer1
10
7.019943
20
4.0474085
11
7.012107
21
4.0221478
0
LINE
8
layer1
10
7.012107
20
4.0221478
11
7.008365
21
3.998412
0
LINE
8
layer1
10
7.008365
20
3.998412
11
7.0086711
21
3.9763571
0
LINE
8
layer1
10
7.0086711
20
3.9763571
11
7.0129346
21
3.956139
0
LINE
8
layer1
10
7.0129346
20
3.956139
11
7.0210738
21
3.9379182
0
LINE
8
layer1
10
7.0210738
20
3.9379182
11
7.1726025
21
3.6546235
0
LINE
8
layer1
10
7.1726025
20
3.6546235
11
7.3127264
21
3.3655178
0
LINE
8
layer1
10
7.3127264
20
3.3655178
11
7.3226832
21
3.3482231
0
LINE
8
layer1
10
7.3226832
20
3.3482231
11
7.3365339
21
3.33289
0
LINE
8
layer1
10
7.3365339
20
3.33289
11
7.3541968
21
3.3196788
0
LINE
8
layer1
10
7.3541968
20
3.3196788
11
7.375599
21
3.3087546
0
LINE
8
layer1
10
7.375599
20
3.3087546
11
7.4006412
21
3.3002461
0
LINE
8
layer1
10
7.4006412
20
3.3002461
11
7.4292239
21
3.2943048
0
LINE
8
layer1
10
7.4292239
20
3.2943048
11
7.4612697
21
3.291082
0
LINE
8
layer1
10
7.4612697
20
3.291082
11
7.4966615
21
3.2907201
0
LINE
8
layer1
10
7.4966615
20
3.2907201
11
7.5352909
21
3.2933434
0
LINE
8
layer1
10
7.5352909
20
3.2933434
11
7.6218333
21
3.3081238
0
LINE
8
layer1
10
7.6218333
20
3.3081238
11
7.71995
21
3.3364447
0
LINE
8
layer1
10
7.71995
20
3.3364447
11
7.8137095
21
3.3696385
0
LINE
8
layer1
10
7.8137095
20
3.3696385
11
7.917684
21
3.3963088
0
LINE
8
layer1
10
7.917684
20
3.3963088
11
7.9915462
21
3.4106665
0
LINE
8
layer1
10
7.9915462
20
3.4106665
11
8.0804821
21
3.4241636
0
LINE
8
layer1
10
8.0804821
20
3.4241636
11
8.1864137
21
3.435737
0
LINE
8
layer1
10
8.1864137
20
3.435737
11
8.3064777
21
3.4437817
0
LINE
8
layer1
10
8.3064777
20
3.4437817
11
8.4425429
21
3.4471849
0
LINE
8
layer1
10
8.4425429
20
3.4471849
11
8.5927812
21
3.4446224
0
LINE
8
layer1
10
8.5927812
20
3.4446224
11
8.7574297
21
3.4349242
0
LINE
8
layer1
10
8.7574297
20
3.4349242
11
8.9362338
21
3.416872
0
LINE
8
layer1
10
8.9362338
20
3.416872
11
9.1294985
21
3.3891397
0
LINE
8
layer1
10
9.1294985
20
3.3891397
11
9.3141775
21
3.35497
0
ARC
8
layer1
10
-0.0000131
20
-0.0000045
40
9.9
50
16.1909658
51
19.8090367
0
LINE
8
layer1
10
9.5073298
20
2.7605084
11
9.3780058
21
2.624313
0
ENDSEC
0
EOF