0
SECTION
2
HEADER
0
ENDSEC
0
SECTION
2
TABLES
0
TABLE
2
LTYPE
0
LTYPE
72
65
70
64
2
CONTINUOUS
3
______
73
0
40
0
0
ENDTAB
0
TABLE
2
LAYER
0
ENDTAB
0
ENDSEC
0
SECTION
2
ENTITIES
0
LINE
8
layer0
10
20.0915633
20
-4.7460873
11
20.0827796
21
-4.6007381
0
LINE
8
layer0
10
20.0827796
20
-4.6007381
11
20.0802682
21
-4.4632061
0
LINE
8
layer0
10
20.0802682
20
-4.4632061
11
20.083293
21
-4.3350878
0
LINE
8
layer0
10
20.083293
20
-4.3350878
11
20.0911946
21
-4.2141038
0
LINE
8
layer0
10
20.0911946
20
-4.2141038
11
20.1034158
21
-4.1005391
0
LINE
8
layer0
10
20.1034158
20
-4.1005391
11
20.1189755
21
-3.9969269
0
LINE
8
layer0
10
20.1189755
20
-3.9969269
11
20.1374657
21
-3.9011944
0
LINE
8
layer0
10
20.1374657
20
-3.9011944
11
20.1582228
21
-3.8135463
0
LINE
8
layer0
10
20.1582228
20
-3.8135463
11
20.2037798
21
-3.6633546
0
LINE
8
layer0
10
20.2037798
20
-3.6633546
11
20.2497787
21
-3.5475421
0
LINE
8
layer0
10
20.2497787
20
-3.5475421
11
20.2916073
21
-3.4634126
0
LINE
8
layer0
10
20.2916073
20
-3.4634126
11
20.3161523
21
-3.4219566
0
LINE
8
layer0
10
20.3161523
20
-3.4219566
11
20.3937687
21
-3.3612018
0
LINE
8
layer0
10
20.3937687
20
-3.3612018
11
20.4770922
21
-3.2885176
0
LINE
8
layer0
10
20.4770922
20
-3.2885176
11
20.5493853
21
-3.2151026
0
LINE
8
layer0
10
20.5493853
20
-3.2151026
11
20.6107518
21
-3.1417183
0
LINE
8
layer0
10
20.6107518
20
-3.1417183
11
20.6613417
21
-3.0691657
0
LINE
8
layer0
10
20.6613417
20
-3.0691657
11
20.7013226
21
-2.9982048
0
LINE
8
layer0
10
20.7013226
20
-2.9982048
11
20.7309546
21
-2.9295964
0
LINE
8
layer0
10
20.7309546
20
-2.9295964
11
20.7505012
21
-2.8640593
0
LINE
8
layer0
10
20.7505012
20
-2.8640593
11
20.7602953
21
-2.8023324
0
LINE
8
layer0
10
20.7602953
20
-2.8023324
11
20.7606964
21
-2.7450931
0
LINE
8
layer0
10
20.7606964
20
-2.7450931
11
20.752114
21
-2.6930161
0
LINE
8
layer0
10
20.752114
20
-2.6930161
11
20.7349818
21
-2.6467425
0
LINE
8
layer0
10
20.7349818
20
-2.6467425
11
20.7023
21
-2.5980083
0
LINE
8
layer0
10
20.7023
20
-2.5980083
11
20.6189321
21
-2.5123447
0
LINE
8
layer0
10
20.6189321
20
-2.5123447
11
20.4718436
21
-2.3474282
0
LINE
8
layer0
10
20.4718436
20
-2.3474282
11
20.3349742
21
-2.1739369
0
LINE
8
layer0
10
20.3349742
20
-2.1739369
11
20.2650887
21
-2.0769602
0
LINE
8
layer0
10
20.2650887
20
-2.0769602
11
20.2227701
21
-2.0363123
0
LINE
8
layer0
10
20.2227701
20
-2.0363123
11
20.1801745
21
-2.011405
0
LINE
8
layer0
10
20.1801745
20
-2.011405
11
20.1303789
21
-1.9939099
0
LINE
8
layer0
10
20.1303789
20
-1.9939099
11
20.0739395
21
-1.9843655
0
LINE
8
layer0
10
20.0739395
20
-1.9843655
11
20.0114497
21
-1.983292
0
LINE
8
layer0
10
20.0114497
20
-1.983292
11
19.943514
21
-1.9911613
0
LINE
8
layer0
10
19.943514
20
-1.9911613
11
19.8708025
21
-2.0084294
0
LINE
8
layer0
10
19.8708025
20
-2.0084294
11
19.7939769
21
-2.0354807
0
LINE
8
layer0
10
19.7939769
20
-2.0354807
11
19.7137417
21
-2.0727033
0
LINE
8
layer0
10
19.7137417
20
-2.0727033
11
19.6308161
21
-2.1203945
0
LINE
8
layer0
10
19.6308161
20
-2.1203945
11
19.5459629
21
-2.178841
0
LINE
8
layer0
10
19.5459629
20
-2.178841
11
19.459914
21
-2.2482771
0
LINE
8
layer0
10
19.459914
20
-2.2482771
11
19.3866043
21
-2.3141644
0
LINE
8
layer0
10
19.3866043
20
-2.3141644
11
19.3415158
21
-2.3311377
0
LINE
8
layer0
10
19.3415158
20
-2.3311377
11
19.251401
21
-2.3577219
0
LINE
8
layer0
10
19.251401
20
-2.3577219
11
19.1293603
21
-2.3829113
0
LINE
8
layer0
10
19.1293603
20
-2.3829113
11
18.9735395
21
-2.4016957
0
LINE
8
layer0
10
18.9735395
20
-2.4016957
11
18.8836185
21
-2.4069175
0
LINE
8
layer0
10
18.8836185
20
-2.4069175
11
18.7861297
21
-2.4085031
0
LINE
8
layer0
10
18.7861297
20
-2.4085031
11
18.6813897
21
-2.4058343
0
LINE
8
layer0
10
18.6813897
20
-2.4058343
11
18.567428
21
-2.3981495
0
LINE
8
layer0
10
18.567428
20
-2.3981495
11
18.44691
21
-2.3849225
0
LINE
8
layer0
10
18.44691
20
-2.3849225
11
18.3202128
21
-2.3656538
0
LINE
8
layer0
10
18.3202128
20
-2.3656538
11
18.1852063
21
-2.3392983
0
LINE
8
layer0
10
18.1852063
20
-2.3392983
11
18.0435906
21
-2.3054085
0
LINE
8
layer0
10
18.0435906
20
-2.3054085
11
17.912537
21
-2.2682735
0
ARC
8
layer0
10
23.2694417
20
0.0000151
40
5.81735
50
197.0506082
51
202.9493878
0
LINE
8
layer0
10
17.7077867
20
-1.7057266
11
17.7843096
21
-1.59304
0
LINE
8
layer0
10
17.7843096
20
-1.59304
11
17.8710096
21
-1.47605
0
LINE
8
layer0
10
17.8710096
20
-1.47605
11
17.9574896
21
-1.36908
0
LINE
8
layer0
10
17.9574896
20
-1.36908
11
18.0421596
21
-1.27288
0
LINE
8
layer0
10
18.0421596
20
-1.27288
11
18.1259796
21
-1.18528
0
LINE
8
layer0
10
18.1259796
20
-1.18528
11
18.2083396
21
-1.10614
0
LINE
8
layer0
10
18.2083396
20
-1.10614
11
18.2868596
21
-1.03677
0
LINE
8
layer0
10
18.2868596
20
-1.03677
11
18.3625596
21
-0.97532
0
LINE
8
layer0
10
18.3625596
20
-0.97532
11
18.4347996
21
-0.92152
0
LINE
8
layer0
10
18.4347996
20
-0.92152
11
18.5662396
21
-0.83575
0
LINE
8
layer0
10
18.5662396
20
-0.83575
11
18.6759196
21
-0.7766
0
LINE
8
layer0
10
18.6759196
20
-0.7766
11
18.7620396
21
-0.73904
0
LINE
8
layer0
10
18.7620396
20
-0.73904
11
18.8074896
21
-0.72306
0
LINE
8
layer0
10
18.8074896
20
-0.72306
11
18.9059996
21
-0.72641
0
LINE
8
layer0
10
18.9059996
20
-0.72641
11
19.0165496
21
-0.72429
0
LINE
8
layer0
10
19.0165496
20
-0.72429
11
19.1191196
21
-0.71452
0
LINE
8
layer0
10
19.1191196
20
-0.71452
11
19.2132996
21
-0.69775
0
LINE
8
layer0
10
19.2132996
20
-0.69775
11
19.2986896
21
-0.67469
0
LINE
8
layer0
10
19.2986896
20
-0.67469
11
19.3749296
21
-0.64603
0
LINE
8
layer0
10
19.3749296
20
-0.64603
11
19.4417296
21
-0.61252
0
LINE
8
layer0
10
19.4417296
20
-0.61252
11
19.4988296
21
-0.57488
0
LINE
8
layer0
10
19.4988296
20
-0.57488
11
19.5460096
21
-0.53389
0
LINE
8
layer0
10
19.5460096
20
-0.53389
11
19.5831096
21
-0.4903
0
LINE
8
layer0
10
19.5831096
20
-0.4903
11
19.6100096
21
-0.44489
0
LINE
8
layer0
10
19.6100096
20
-0.44489
11
19.6266296
21
-0.39843
0
LINE
8
layer0
10
19.6266296
20
-0.39843
11
19.6329196
21
-0.34009
0
LINE
8
layer0
10
19.6329196
20
-0.34009
11
19.6241196
21
-0.22088
0
LINE
8
layer0
10
19.6241196
20
-0.22088
11
19.6174496
21
0
0
LINE
8
layer0
10
19.6174496
20
0
11
19.6241196
21
0.22088
0
LINE
8
layer0
10
19.6241196
20
0.22088
11
19.6329196
21
0.34009
0
LINE
8
layer0
10
19.6329196
20
0.34009
11
19.6266296
21
0.39843
0
LINE
8
layer0
10
19.6266296
20
0.39843
11
19.6100096
21
0.44489
0
LINE
8
layer0
10
19.6100096
20
0.44489
11
19.5831096
21
0.4903
0
LINE
8
layer0
10
19.5831096
20
0.4903
11
19.5460096
21
0.53389
0
LINE
8
layer0
10
19.5460096
20
0.53389
11
19.4988296
21
0.57488
0
LINE
8
layer0
10
19.4988296
20
0.57488
11
19.4417296
21
0.61252
0
LINE
8
layer0
10
19.4417296
20
0.61252
11
19.3749296
21
0.64603
0
LINE
8
layer0
10
19.3749296
20
0.64603
11
19.2986896
21
0.67469
0
LINE
8
layer0
10
19.2986896
20
0.67469
11
19.2132996
21
0.69775
0
LINE
8
layer0
10
19.2132996
20
0.69775
11
19.1191196
21
0.71452
0
LINE
8
layer0
10
19.1191196
20
0.71452
11
19.0165496
21
0.72429
0
LINE
8
layer0
10
19.0165496
20
0.72429
11
18.9059996
21
0.72641
0
LINE
8
layer0
10
18.9059996
20
0.72641
11
18.8074896
21
0.72306
0
LINE
8
layer0
10
18.8074896
20
0.72306
11
18.7620396
21
0.73904
0
LINE
8
layer0
10
18.7620396
20
0.73904
11
18.6759196
21
0.7766
0
LINE
8
layer0
10
18.6759196
20
0.7766
11
18.5662396
21
0.83575
0
LINE
8
layer0
10
18.5662396
20
0.83575
11
18.4347996
21
0.92152
0
LINE
8
layer0
10
18.4347996
20
0.92152
11
18.3625596
21
0.97532
0
LINE
8
layer0
10
18.3625596
20
0.97532
11
18.2868596
21
1.03677
0
LINE
8
layer0
10
18.2868596
20
1.03677
11
18.2083396
21
1.10614
0
LINE
8
layer0
10
18.2083396
20
1.10614
11
18.1259796
21
1.18528
0
LINE
8
layer0
10
18.1259796
20
1.18528
11
18.0421596
21
1.27288
0
LINE
8
layer0
10
18.0421596
20
1.27288
11
17.9574896
21
1.36908
0
LINE
8
layer0
10
17.9574896
20
1.36908
11
17.8710096
21
1.47605
0
LINE
8
layer0
10
17.8710096
20
1.47605
11
17.7843096
21
1.59304
0
LINE
8
layer0
10
17.7843096
20
1.59304
11
17.7077867
21
1.7057266
0
ARC
8
layer0
10
23.2694417
20
-0.0000151
40
5.81735
50
157.0506122
51
162.9493918
0
LINE
8
layer0
10
17.912537
20
2.2682735
11
18.0435906
21
2.3054085
0
LINE
8
layer0
10
18.0435906
20
2.3054085
11
18.1852063
21
2.3392983
0
LINE
8
layer0
10
18.1852063
20
2.3392983
11
18.3202128
21
2.3656538
0
LINE
8
layer0
10
18.3202128
20
2.3656538
11
18.44691
21
2.3849225
0
LINE
8
layer0
10
18.44691
20
2.3849225
11
18.567428
21
2.3981495
0
LINE
8
layer0
10
18.567428
20
2.3981495
11
18.6813897
21
2.4058343
0
LINE
8
layer0
10
18.6813897
20
2.4058343
11
18.7861297
21
2.4085031
0
LINE
8
layer0
10
18.7861297
20
2.4085031
11
18.8836185
21
2.4069175
0
LINE
8
layer0
10
18.8836185
20
2.4069175
11
18.9735395
21
2.4016957
0
LINE
8
layer0
10
18.9735395
20
2.4016957
11
19.1293603
21
2.3829113
0
LINE
8
layer0
10
19.1293603
20
2.3829113
11
19.251401
21
2.3577219
0
LINE
8
layer0
10
19.251401
20
2.3577219
11
19.3415158
21
2.3311377
0
LINE
8
layer0
10
19.3415158
20
2.3311377
11
19.3866043
21
2.3141644
0
LINE
8
layer0
10
19.3866043
20
2.3141644
11
19.459914
21
2.2482771
0
LINE
8
layer0
10
19.459914
20
2.2482771
11
19.5459629
21
2.178841
0
LINE
8
layer0
10
19.5459629
20
2.178841
11
19.6308161
21
2.1203945
0
LINE
8
layer0
10
19.6308161
20
2.1203945
11
19.7137417
21
2.0727033
0
LINE
8
layer0
10
19.7137417
20
2.0727033
11
19.7939769
21
2.0354807
0
LINE
8
layer0
10
19.7939769
20
2.0354807
11
19.8708025
21
2.0084294
0
LINE
8
layer0
10
19.8708025
20
2.0084294
11
19.943514
21
1.9911613
0
LINE
8
layer0
10
19.943514
20
1.9911613
11
20.0114497
21
1.983292
0
LINE
8
layer0
10
20.0114497
20
1.983292
11
20.0739395
21
1.9843655
0
LINE
8
layer0
10
20.0739395
20
1.9843655
11
20.1303789
21
1.9939099
0
LINE
8
layer0
10
20.1303789
20
1.9939099
11
20.1801745
21
2.011405
0
LINE
8
layer0
10
20.1801745
20
2.011405
11
20.2227701
21
2.0363123
0
LINE
8
layer0
10
20.2227701
20
2.0363123
11
20.2650887
21
2.0769602
0
LINE
8
layer0
10
20.2650887
20
2.0769602
11
20.3349742
21
2.1739369
0
LINE
8
layer0
10
20.3349742
20
2.1739369
11
20.4718436
21
2.3474282
0
LINE
8
layer0
10
20.4718436
20
2.3474282
11
20.6189321
21
2.5123447
0
LINE
8
layer0
10
20.6189321
20
2.5123447
11
20.7023
21
2.5980083
0
LINE
8
layer0
10
20.7023
20
2.5980083
11
20.7349818
21
2.6467425
0
LINE
8
layer0
10
20.7349818
20
2.6467425
11
20.752114
21
2.6930161
0
LINE
8
layer0
10
20.752114
20
2.6930161
11
20.7606964
21
2.7450931
0
LINE
8
layer0
10
20.7606964
20
2.7450931
11
20.7602953
21
2.8023324
0
LINE
8
layer0
10
20.7602953
20
2.8023324
11
20.7505012
21
2.8640593
0
LINE
8
layer0
10
20.7505012
20
2.8640593
11
20.7309546
21
2.9295964
0
LINE
8
layer0
10
20.7309546
20
2.9295964
11
20.7013226
21
2.9982048
0
LINE
8
layer0
10
20.7013226
20
2.9982048
11
20.6613417
21
3.0691657
0
LINE
8
layer0
10
20.6613417
20
3.0691657
11
20.6107518
21
3.1417183
0
LINE
8
layer0
10
20.6107518
20
3.1417183
11
20.5493853
21
3.2151026
0
LINE
8
layer0
10
20.5493853
20
3.2151026
11
20.4770922
21
3.2885176
0
LINE
8
layer0
10
20.4770922
20
3.2885176
11
20.3937687
21
3.3612018
0
LINE
8
layer0
10
20.3937687
20
3.3612018
11
20.3161523
21
3.4219566
0
LINE
8
layer0
10
20.3161523
20
3.4219566
11
20.2916073
21
3.4634126
0
LINE
8
layer0
10
20.2916073
20
3.4634126
11
20.2497787
21
3.5475421
0
LINE
8
layer0
10
20.2497787
20
3.5475421
11
20.2037798
21
3.6633546
0
LINE
8
layer0
10
20.2037798
20
3.6633546
11
20.1582228
21
3.8135463
0
LINE
8
layer0
10
20.1582228
20
3.8135463
11
20.1374657
21
3.9011944
0
LINE
8
layer0
10
20.1374657
20
3.9011944
11
20.1189755
21
3.9969269
0
LINE
8
layer0
10
20.1189755
20
3.9969269
11
20.1034158
21
4.1005391
0
LINE
8
layer0
10
20.1034158
20
4.1005391
11
20.0911946
21
4.2141038
0
LINE
8
layer0
10
20.0911946
20
4.2141038
11
20.083293
21
4.3350878
0
LINE
8
layer0
10
20.083293
20
4.3350878
11
20.0802682
21
4.4632061
0
LINE
8
layer0
10
20.0802682
20
4.4632061
11
20.0827796
21
4.6007381
0
LINE
8
layer0
10
20.0827796
20
4.6007381
11
20.0915633
21
4.7460873
0
LINE
8
layer0
10
20.0915633
20
4.7460873
11
20.1053768
21
4.8815983
0
ARC
8
layer0
10
23.269422
20
-0.0000386
40
5.81735
50
117.0506105
51
122.949391
0
LINE
8
layer0
10
20.6238229
20
5.1809233
11
20.7480856
21
5.1251307
0
LINE
8
layer0
10
20.7480856
20
5.1251307
11
20.8783536
21
5.0600629
0
LINE
8
layer0
10
20.8783536
20
5.0600629
11
20.9987156
21
4.9934719
0
LINE
8
layer0
10
20.9987156
20
4.9934719
11
21.1081569
21
4.9267932
0
LINE
8
layer0
10
21.1081569
20
4.9267932
11
21.2089812
21
4.8594582
0
LINE
8
layer0
10
21.2089812
20
4.8594582
11
21.3012205
21
4.7920919
0
LINE
8
layer0
10
21.3012205
20
4.7920919
11
21.3831715
21
4.7268108
0
LINE
8
layer0
10
21.3831715
20
4.7268108
11
21.4568331
21
4.6629315
0
LINE
8
layer0
10
21.4568331
20
4.6629315
11
21.5223601
21
4.6011313
0
LINE
8
layer0
10
21.5223601
20
4.6011313
11
21.6296514
21
4.486582
0
LINE
8
layer0
10
21.6296514
20
4.486582
11
21.7069485
21
4.3888395
0
LINE
8
layer0
10
21.7069485
20
4.3888395
11
21.7588925
21
4.3105501
0
LINE
8
layer0
10
21.7588925
20
4.3105501
11
21.782522
21
4.2685655
0
LINE
8
layer0
10
21.782522
20
4.2685655
11
21.796329
21
4.1709704
0
LINE
8
layer0
10
21.796329
20
4.1709704
11
21.8176136
21
4.062468
0
LINE
8
layer0
10
21.8176136
20
4.062468
11
21.8450462
21
3.9631528
0
LINE
8
layer0
10
21.8450462
20
3.9631528
11
21.8779157
21
3.8733157
0
LINE
8
layer0
10
21.8779157
20
3.8733157
11
21.9154531
21
3.7932273
0
LINE
8
layer0
10
21.9154531
20
3.7932273
11
21.9569167
21
3.7231223
0
LINE
8
layer0
10
21.9569167
20
3.7231223
11
22.0015173
21
3.6631561
0
LINE
8
layer0
10
22.0015173
20
3.6631561
11
22.0485008
21
3.6134597
0
LINE
8
layer0
10
22.0485008
20
3.6134597
11
22.0970607
21
3.5741143
0
LINE
8
layer0
10
22.0970607
20
3.5741143
11
22.1464309
21
3.5451473
0
LINE
8
layer0
10
22.1464309
20
3.5451473
11
22.1958221
21
3.5265413
0
LINE
8
layer0
10
22.1958221
20
3.5265413
11
22.2444623
21
3.5182415
0
LINE
8
layer0
10
22.2444623
20
3.5182415
11
22.3030082
21
3.5221777
0
LINE
8
layer0
10
22.3030082
20
3.5221777
11
22.4188791
21
3.5515446
0
LINE
8
layer0
10
22.4188791
20
3.5515446
11
22.6352452
21
3.5964687
0
LINE
8
layer0
10
22.6352452
20
3.5964687
11
22.8539278
21
3.6282554
0
LINE
8
layer0
10
22.8539278
20
3.6282554
11
22.9728548
21
3.6402897
0
LINE
8
layer0
10
22.9728548
20
3.6402897
11
23.0292162
21
3.6566148
0
LINE
8
layer0
10
23.0292162
20
3.6566148
11
23.0720844
21
3.68105
0
LINE
8
layer0
10
23.0720844
20
3.68105
11
23.1121333
21
3.7154267
0
LINE
8
layer0
10
23.1121333
20
3.7154267
11
23.1486188
21
3.7595324
0
LINE
8
layer0
10
23.1486188
20
3.7595324
11
23.1807933
21
3.8131134
0
LINE
8
layer0
10
23.1807933
20
3.8131134
11
23.2079462
21
3.8758821
0
LINE
8
layer0
10
23.2079462
20
3.8758821
11
23.2293474
21
3.9474862
0
LINE
8
layer0
10
23.2293474
20
3.9474862
11
23.244333
21
4.0275447
0
LINE
8
layer0
10
23.244333
20
4.0275447
11
23.2522149
21
4.1156417
0
LINE
8
layer0
10
23.2522149
20
4.1156417
11
23.2523759
21
4.211303
0
LINE
8
layer0
10
23.2523759
20
4.211303
11
23.2441864
21
4.3140113
0
LINE
8
layer0
10
23.2441864
20
4.3140113
11
23.2270774
21
4.4232499
0
LINE
8
layer0
10
23.2270774
20
4.4232499
11
23.2066722
21
4.5196816
0
LINE
8
layer0
10
23.2066722
20
4.5196816
11
23.2145171
21
4.567216
0
LINE
8
layer0
10
23.2145171
20
4.567216
11
23.2365519
21
4.6585499
0
LINE
8
layer0
10
23.2365519
20
4.6585499
11
23.2757576
21
4.7768349
0
LINE
8
layer0
10
23.2757576
20
4.7768349
11
23.3374002
21
4.9211718
0
LINE
8
layer0
10
23.3374002
20
4.9211718
11
23.3778385
21
5.0016566
0
LINE
8
layer0
10
23.3778385
20
5.0016566
11
23.4252098
21
5.0868772
0
LINE
8
layer0
10
23.4252098
20
5.0868772
11
23.479891
21
5.1762503
0
LINE
8
layer0
10
23.479891
20
5.1762503
11
23.5435271
21
5.2711016
0
LINE
8
layer0
10
23.5435271
20
5.2711016
11
23.615241
21
5.3688598
0
LINE
8
layer0
10
23.615241
20
5.3688598
11
23.6952768
21
5.4689484
0
LINE
8
layer0
10
23.6952768
20
5.4689484
11
23.7856045
21
5.5726897
0
LINE
8
layer0
10
23.7856045
20
5.5726897
11
23.8857619
21
5.6783877
0
LINE
8
layer0
10
23.8857619
20
5.6783877
11
23.9834485
21
5.7733159
0
ARC
8
layer0
10
23.2693916
20
-0.0000439
40
5.81735
50
77.0506067
51
82.9493867
0
LINE
8
layer0
10
24.5730036
20
5.6693614
11
24.6323315
21
5.5467473
0
LINE
8
layer0
10
24.6323315
20
5.5467473
11
24.6902978
21
5.4131679
0
LINE
8
layer0
10
24.6902978
20
5.4131679
11
24.7396966
21
5.284789
0
LINE
8
layer0
10
24.7396966
20
5.284789
11
24.7806732
21
5.1633626
0
LINE
8
layer0
10
24.7806732
20
5.1633626
11
24.8146271
21
5.0469724
0
LINE
8
layer0
10
24.8146271
20
5.0469724
11
24.8419843
21
4.9360765
0
LINE
8
layer0
10
24.8419843
20
4.9360765
11
24.8628005
21
4.8333912
0
LINE
8
layer0
10
24.8628005
20
4.8333912
11
24.8781677
21
4.7371081
0
LINE
8
layer0
10
24.8781677
20
4.7371081
11
24.8886399
21
4.6476464
0
LINE
8
layer0
10
24.8886399
20
4.6476464
11
24.8971989
21
4.490931
0
LINE
8
layer0
10
24.8971989
20
4.490931
11
24.8935843
21
4.3663704
0
LINE
8
layer0
10
24.8935843
20
4.3663704
11
24.8830522
21
4.2730083
0
LINE
8
layer0
10
24.8830522
20
4.2730083
11
24.8741663
21
4.2256574
0
LINE
8
layer0
10
24.8741663
20
4.2256574
11
24.8220101
21
4.1420202
0
LINE
8
layer0
10
24.8220101
20
4.1420202
11
24.7685711
21
4.0452211
0
LINE
8
layer0
10
24.7685711
20
4.0452211
11
24.7257472
21
3.9515079
0
LINE
8
layer0
10
24.7257472
20
3.9515079
11
24.6931804
21
3.8615606
0
LINE
8
layer0
10
24.6931804
20
3.8615606
11
24.670456
21
3.7760807
0
LINE
8
layer0
10
24.670456
20
3.7760807
11
24.6571563
21
3.695725
0
LINE
8
layer0
10
24.6571563
20
3.695725
11
24.6527768
21
3.6211195
0
LINE
8
layer0
10
24.6527768
20
3.6211195
11
24.656824
21
3.5528494
0
LINE
8
layer0
10
24.656824
20
3.5528494
11
24.6687323
21
3.4914953
0
LINE
8
layer0
10
24.6687323
20
3.4914953
11
24.6879324
21
3.4375708
0
LINE
8
layer0
10
24.6879324
20
3.4375708
11
24.7138086
21
3.3915697
0
LINE
8
layer0
10
24.7138086
20
3.3915697
11
24.7457341
21
3.3539464
0
LINE
8
layer0
10
24.7457341
20
3.3539464
11
24.7931131
21
3.3193291
0
LINE
8
layer0
10
24.7931131
20
3.3193291
11
24.900752
21
3.2673451
0
LINE
8
layer0
10
24.900752
20
3.2673451
11
25.0953746
21
3.1626815
0
LINE
8
layer0
10
25.0953746
20
3.1626815
11
25.2833273
21
3.0464651
0
LINE
8
layer0
10
25.2833273
20
3.0464651
11
25.3821662
21
2.9792391
0
LINE
8
layer0
10
25.3821662
20
2.9792391
11
25.4358351
21
2.9555164
0
LINE
8
layer0
10
25.4358351
20
2.9555164
11
25.4843807
21
2.9466797
0
LINE
8
layer0
10
25.4843807
20
2.9466797
11
25.5371569
21
2.9472708
0
LINE
8
layer0
10
25.5371569
20
2.9472708
11
25.5934569
21
2.9576053
0
LINE
8
layer0
10
25.5934569
20
2.9576053
11
25.6525453
21
2.9779694
0
LINE
8
layer0
10
25.6525453
20
2.9779694
11
25.7136925
21
3.0085995
0
LINE
8
layer0
10
25.7136925
20
3.0085995
11
25.776113
21
3.049695
0
LINE
8
layer0
10
25.776113
20
3.049695
11
25.8390533
21
3.1013907
0
LINE
8
layer0
10
25.8390533
20
3.1013907
11
25.9017189
21
3.1638106
0
LINE
8
layer0
10
25.9017189
20
3.1638106
11
25.9633321
21
3.2369879
0
LINE
8
layer0
10
25.9633321
20
3.2369879
11
26.0230782
21
3.3209311
0
LINE
8
layer0
10
26.0230782
20
3.3209311
11
26.0801892
21
3.4156102
0
LINE
8
layer0
10
26.0801892
20
3.4156102
11
26.126543
21
3.5025974
0
LINE
8
layer0
10
26.126543
20
3.5025974
11
26.1631071
21
3.5339683
0
LINE
8
layer0
10
26.1631071
20
3.5339683
11
26.238695
21
3.5897704
0
LINE
8
layer0
10
26.238695
20
3.5897704
11
26.3447604
21
3.655181
0
LINE
8
layer0
10
26.3447604
20
3.655181
11
26.4847594
21
3.7261264
0
LINE
8
layer0
10
26.4847594
20
3.7261264
11
26.5674715
21
3.7617881
0
LINE
8
layer0
10
26.5674715
20
3.7617881
11
26.6585388
21
3.7966212
0
LINE
8
layer0
10
26.6585388
20
3.7966212
11
26.757875
21
3.8299365
0
LINE
8
layer0
10
26.757875
20
3.8299365
11
26.8675922
21
3.8616924
0
LINE
8
layer0
10
26.8675922
20
3.8616924
11
26.9853661
21
3.8904826
0
LINE
8
layer0
10
26.9853661
20
3.8904826
11
27.1110127
21
3.915709
0
LINE
8
layer0
10
27.1110127
20
3.915709
11
27.2468914
21
3.9371179
0
LINE
8
layer0
10
27.2468914
20
3.9371179
11
27.3915578
21
3.9537073
0
LINE
8
layer0
10
27.3915578
20
3.9537073
11
27.5274087
21
3.9636348
0
ARC
8
layer0
10
23.2693655
20
-0.0000288
40
5.81735
50
37.0506104
51
42.9493909
0
LINE
8
layer0
10
27.9122135
20
3.5050423
11
27.8788465
21
3.3729792
0
LINE
8
layer0
10
27.8788465
20
3.3729792
11
27.8373881
21
3.2333914
0
LINE
8
layer0
10
27.8373881
20
3.2333914
11
27.7927093
21
3.1032946
0
LINE
8
layer0
10
27.7927093
20
3.1032946
11
27.7460479
21
2.9839373
0
LINE
8
layer0
10
27.7460479
20
2.9839373
11
27.6972438
21
2.8729521
0
LINE
8
layer0
10
27.6972438
20
2.8729521
11
27.6469182
21
2.7704161
0
LINE
8
layer0
10
27.6469182
20
2.7704161
11
27.5968595
21
2.6783742
0
LINE
8
layer0
10
27.5968595
20
2.6783742
11
27.5467419
21
2.5947391
0
LINE
8
layer0
10
27.5467419
20
2.5947391
11
27.4972592
21
2.5194761
0
LINE
8
layer0
10
27.4972592
20
2.5194761
11
27.4030811
21
2.3939236
0
LINE
8
layer0
10
27.4030811
20
2.3939236
11
27.3202461
21
2.300828
0
LINE
8
layer0
10
27.3202461
20
2.300828
11
27.252166
21
2.2360783
0
LINE
8
layer0
10
27.252166
20
2.2360783
11
27.2149225
21
2.2055172
0
LINE
8
layer0
10
27.2149225
20
2.2055172
11
27.1212076
21
2.1749728
0
LINE
8
layer0
10
27.1212076
20
2.1749728
11
27.0180496
21
2.1351703
0
LINE
8
layer0
10
27.0180496
20
2.1351703
11
26.9250069
21
2.0909085
0
LINE
8
layer0
10
26.9250069
20
2.0909085
11
26.8422423
21
2.0429384
0
LINE
8
layer0
10
26.8422423
20
2.0429384
11
26.769889
21
1.992064
0
LINE
8
layer0
10
26.769889
20
1.992064
11
26.7080491
21
1.9390568
0
LINE
8
layer0
10
26.7080491
20
1.9390568
11
26.6567387
21
1.8847208
0
LINE
8
layer0
10
26.6567387
20
1.8847208
11
26.6159559
21
1.8298214
0
LINE
8
layer0
10
26.6159559
20
1.8298214
11
26.5856406
21
1.7751669
0
LINE
8
layer0
10
26.5856406
20
1.7751669
11
26.5656867
21
1.7215167
0
LINE
8
layer0
10
26.5656867
20
1.7215167
11
26.5559401
21
1.6696449
0
LINE
8
layer0
10
26.5559401
20
1.6696449
11
26.5562126
21
1.6203024
0
LINE
8
layer0
10
26.5562126
20
1.6203024
11
26.5702554
21
1.5633295
0
LINE
8
layer0
10
26.5702554
20
1.5633295
11
26.619297
21
1.4543185
0
LINE
8
layer0
10
26.619297
20
1.4543185
11
26.7011101
21
1.2490405
0
LINE
8
layer0
10
26.7011101
20
1.2490405
11
26.7703878
21
1.0391999
0
LINE
8
layer0
10
26.7703878
20
1.0391999
11
26.8028907
21
0.9241693
0
LINE
8
layer0
10
26.8028907
20
0.9241693
11
26.8287548
21
0.871499
0
LINE
8
layer0
10
26.8287548
20
0.871499
11
26.8602628
21
0.8335252
0
LINE
8
layer0
10
26.8602628
20
0.8335252
11
26.9010716
21
0.8000541
0
LINE
8
layer0
10
26.9010716
20
0.8000541
11
26.9508429
21
0.7717819
0
LINE
8
layer0
10
26.9508429
20
0.7717819
11
27.009197
21
0.7494004
0
LINE
8
layer0
10
27.009197
20
0.7494004
11
27.0757271
21
0.7335597
0
LINE
8
layer0
10
27.0757271
20
0.7335597
11
27.1499596
21
0.7249176
0
LINE
8
layer0
10
27.1499596
20
0.7249176
11
27.2314041
21
0.7240616
0
LINE
8
layer0
10
27.2314041
20
0.7240616
11
27.3195314
21
0.7315974
0
LINE
8
layer0
10
27.3195314
20
0.7315974
11
27.4137674
21
0.7480502
0
LINE
8
layer0
10
27.4137674
20
0.7480502
11
27.5134932
21
0.7739504
0
LINE
8
layer0
10
27.5134932
20
0.7739504
11
27.6181013
21
0.8097686
0
LINE
8
layer0
10
27.6181013
20
0.8097686
11
27.7095246
21
0.846609
0
LINE
8
layer0
10
27.7095246
20
0.846609
11
27.7576991
21
0.8471375
0
LINE
8
layer0
10
27.7576991
20
0.8471375
11
27.8514717
21
0.8412974
0
LINE
8
layer0
10
27.8514717
20
0.8412974
11
27.9747677
21
0.8232273
0
LINE
8
layer0
10
27.9747677
20
0.8232273
11
28.127616
21
0.787585
0
LINE
8
layer0
10
28.127616
20
0.787585
11
28.2139001
21
0.7617371
0
LINE
8
layer0
10
28.2139001
20
0.7617371
11
28.3060519
21
0.7298839
0
LINE
8
layer0
10
28.3060519
20
0.7298839
11
28.4035625
21
0.6915529
0
LINE
8
layer0
10
28.4035625
20
0.6915529
11
28.5080231
21
0.6453544
0
LINE
8
layer0
10
28.5080231
20
0.6453544
11
28.6167491
21
0.5917054
0
LINE
8
layer0
10
28.6167491
20
0.5917054
11
28.7292152
21
0.5302658
0
LINE
8
layer0
10
28.7292152
20
0.5302658
11
28.8470657
21
0.4593248
0
LINE
8
layer0
10
28.8470657
20
0.4593248
11
28.96855
21
0.3790433
0
LINE
8
layer0
10
28.96855
20
0.3790433
11
29.0789992
21
0.299325
0
ARC
8
layer0
10
23.269355
20
0
40
5.81735
50
357.0506097
51
362.9493903
0
LINE
8
layer0
10
29.0789992
20
-0.299325
11
28.96855
21
-0.3790433
0
LINE
8
layer0
10
28.96855
20
-0.3790433
11
28.8470657
21
-0.4593248
0
LINE
8
layer0
10
28.8470657
20
-0.4593248
11
28.7292152
21
-0.5302658
0
LINE
8
layer0
10
28.7292152
20
-0.5302658
11
28.6167491
21
-0.5917054
0
LINE
8
layer0
10
28.6167491
20
-0.5917054
11
28.5080231
21
-0.6453544
0
LINE
8
layer0
10
28.5080231
20
-0.6453544
11
28.4035625
21
-0.6915529
0
LINE
8
layer0
10
28.4035625
20
-0.6915529
11
28.3060519
21
-0.7298839
0
LINE
8
layer0
10
28.3060519
20
-0.7298839
11
28.2139001
21
-0.7617371
0
LINE
8
layer0
10
28.2139001
20
-0.7617371
11
28.127616
21
-0.787585
0
LINE
8
layer0
10
28.127616
20
-0.787585
11
27.9747677
21
-0.8232273
0
LINE
8
layer0
10
27.9747677
20
-0.8232273
11
27.8514717
21
-0.8412974
0
LINE
8
layer0
10
27.8514717
20
-0.8412974
11
27.7576991
21
-0.8471375
0
LINE
8
layer0
10
27.7576991
20
-0.8471375
11
27.7095246
21
-0.846609
0
LINE
8
layer0
10
27.7095246
20
-0.846609
11
27.6181013
21
-0.8097686
0
LINE
8
layer0
10
27.6181013
20
-0.8097686
11
27.5134932
21
-0.7739504
0
LINE
8
layer0
10
27.5134932
20
-0.7739504
11
27.4137674
21
-0.7480502
0
LINE
8
layer0
10
27.4137674
20
-0.7480502
11
27.3195314
21
-0.7315974
0
LINE
8
layer0
10
27.3195314
20
-0.7315974
11
27.2314041
21
-0.7240616
0
LINE
8
layer0
10
27.2314041
20
-0.7240616
11
27.1499596
21
-0.7249176
0
LINE
8
layer0
10
27.1499596
20
-0.7249176
11
27.0757271
21
-0.7335597
0
LINE
8
layer0
10
27.0757271
20
-0.7335597
11
27.009197
21
-0.7494004
0
LINE
8
layer0
10
27.009197
20
-0.7494004
11
26.9508429
21
-0.7717819
0
LINE
8
layer0
10
26.9508429
20
-0.7717819
11
26.9010716
21
-0.8000541
0
LINE
8
layer0
10
26.9010716
20
-0.8000541
11
26.8602628
21
-0.8335252
0
LINE
8
layer0
10
26.8602628
20
-0.8335252
11
26.8287548
21
-0.871499
0
LINE
8
layer0
10
26.8287548
20
-0.871499
11
26.8028907
21
-0.9241693
0
LINE
8
layer0
10
26.8028907
20
-0.9241693
11
26.7703878
21
-1.0391999
0
LINE
8
layer0
10
26.7703878
20
-1.0391999
11
26.7011101
21
-1.2490405
0
LINE
8
layer0
10
26.7011101
20
-1.2490405
11
26.619297
21
-1.4543185
0
LINE
8
layer0
10
26.619297
20
-1.4543185
11
26.5702554
21
-1.5633295
0
LINE
8
layer0
10
26.5702554
20
-1.5633295
11
26.5562126
21
-1.6203024
0
LINE
8
layer0
10
26.5562126
20
-1.6203024
11
26.5559401
21
-1.6696449
0
LINE
8
layer0
10
26.5559401
20
-1.6696449
11
26.5656867
21
-1.7215167
0
LINE
8
layer0
10
26.5656867
20
-1.7215167
11
26.5856406
21
-1.7751669
0
LINE
8
layer0
10
26.5856406
20
-1.7751669
11
26.6159559
21
-1.8298214
0
LINE
8
layer0
10
26.6159559
20
-1.8298214
11
26.6567387
21
-1.8847208
0
LINE
8
layer0
10
26.6567387
20
-1.8847208
11
26.7080491
21
-1.9390568
0
LINE
8
layer0
10
26.7080491
20
-1.9390568
11
26.769889
21
-1.992064
0
LINE
8
layer0
10
26.769889
20
-1.992064
11
26.8422423
21
-2.0429384
0
LINE
8
layer0
10
26.8422423
20
-2.0429384
11
26.9250069
21
-2.0909085
0
LINE
8
layer0
10
26.9250069
20
-2.0909085
11
27.0180496
21
-2.1351703
0
LINE
8
layer0
10
27.0180496
20
-2.1351703
11
27.1212076
21
-2.1749728
0
LINE
8
layer0
10
27.1212076
20
-2.1749728
11
27.2149225
21
-2.2055172
0
LINE
8
layer0
10
27.2149225
20
-2.2055172
11
27.252166
21
-2.2360783
0
LINE
8
layer0
10
27.252166
20
-2.2360783
11
27.3202461
21
-2.300828
0
LINE
8
layer0
10
27.3202461
20
-2.300828
11
27.4030811
21
-2.3939236
0
LINE
8
layer0
10
27.4030811
20
-2.3939236
11
27.4972592
21
-2.5194761
0
LINE
8
layer0
10
27.4972592
20
-2.5194761
11
27.5467419
21
-2.5947391
0
LINE
8
layer0
10
27.5467419
20
-2.5947391
11
27.5968595
21
-2.6783742
0
LINE
8
layer0
10
27.5968595
20
-2.6783742
11
27.6469182
21
-2.7704161
0
LINE
8
layer0
10
27.6469182
20
-2.7704161
11
27.6972438
21
-2.8729521
0
LINE
8
layer0
10
27.6972438
20
-2.8729521
11
27.7460479
21
-2.9839373
0
LINE
8
layer0
10
27.7460479
20
-2.9839373
11
27.7927093
21
-3.1032946
0
LINE
8
layer0
10
27.7927093
20
-3.1032946
11
27.8373881
21
-3.2333914
0
LINE
8
layer0
10
27.8373881
20
-3.2333914
11
27.8788465
21
-3.3729792
0
LINE
8
layer0
10
27.8788465
20
-3.3729792
11
27.9122135
21
-3.5050423
0
ARC
8
layer0
10
23.2693655
20
0.0000288
40
5.81735
50
317.0506091
51
322.9493896
0
LINE
8
layer0
10
27.5274087
20
-3.9636348
11
27.3915578
21
-3.9537073
0
LINE
8
layer0
10
27.3915578
20
-3.9537073
11
27.2468914
21
-3.9371179
0
LINE
8
layer0
10
27.2468914
20
-3.9371179
11
27.1110127
21
-3.915709
0
LINE
8
layer0
10
27.1110127
20
-3.915709
11
26.9853661
21
-3.8904826
0
LINE
8
layer0
10
26.9853661
20
-3.8904826
11
26.8675922
21
-3.8616924
0
LINE
8
layer0
10
26.8675922
20
-3.8616924
11
26.757875
21
-3.8299365
0
LINE
8
layer0
10
26.757875
20
-3.8299365
11
26.6585388
21
-3.7966212
0
LINE
8
layer0
10
26.6585388
20
-3.7966212
11
26.5674715
21
-3.7617881
0
LINE
8
layer0
10
26.5674715
20
-3.7617881
11
26.4847594
21
-3.7261264
0
LINE
8
layer0
10
26.4847594
20
-3.7261264
11
26.3447604
21
-3.655181
0
LINE
8
layer0
10
26.3447604
20
-3.655181
11
26.238695
21
-3.5897704
0
LINE
8
layer0
10
26.238695
20
-3.5897704
11
26.1631071
21
-3.5339683
0
LINE
8
layer0
10
26.1631071
20
-3.5339683
11
26.126543
21
-3.5025974
0
LINE
8
layer0
10
26.126543
20
-3.5025974
11
26.0801892
21
-3.4156102
0
LINE
8
layer0
10
26.0801892
20
-3.4156102
11
26.0230782
21
-3.3209311
0
LINE
8
layer0
10
26.0230782
20
-3.3209311
11
25.9633321
21
-3.2369879
0
LINE
8
layer0
10
25.9633321
20
-3.2369879
11
25.9017189
21
-3.1638106
0
LINE
8
layer0
10
25.9017189
20
-3.1638106
11
25.8390533
21
-3.1013907
0
LINE
8
layer0
10
25.8390533
20
-3.1013907
11
25.776113
21
-3.049695
0
LINE
8
layer0
10
25.776113
20
-3.049695
11
25.7136925
21
-3.0085995
0
LINE
8
layer0
10
25.7136925
20
-3.0085995
11
25.6525453
21
-2.9779694
0
LINE
8
layer0
10
25.6525453
20
-2.9779694
11
25.5934569
21
-2.9576053
0
LINE
8
layer0
10
25.5934569
20
-2.9576053
11
25.5371569
21
-2.9472708
0
LINE
8
layer0
10
25.5371569
20
-2.9472708
11
25.4843807
21
-2.9466797
0
LINE
8
layer0
10
25.4843807
20
-2.9466797
11
25.4358351
21
-2.9555164
0
LINE
8
layer0
10
25.4358351
20
-2.9555164
11
25.3821662
21
-2.9792391
0
LINE
8
layer0
10
25.3821662
20
-2.9792391
11
25.2833273
21
-3.0464651
0
LINE
8
layer0
10
25.2833273
20
-3.0464651
11
25.0953746
21
-3.1626815
0
LINE
8
layer0
10
25.0953746
20
-3.1626815
11
24.900752
21
-3.2673451
0
LINE
8
layer0
10
24.900752
20
-3.2673451
11
24.7931131
21
-3.3193291
0
LINE
8
layer0
10
24.7931131
20
-3.3193291
11
24.7457341
21
-3.3539464
0
LINE
8
layer0
10
24.7457341
20
-3.3539464
11
24.7138086
21
-3.3915697
0
LINE
8
layer0
10
24.7138086
20
-3.3915697
11
24.6879324
21
-3.4375708
0
LINE
8
layer0
10
24.6879324
20
-3.4375708
11
24.6687323
21
-3.4914953
0
LINE
8
layer0
10
24.6687323
20
-3.4914953
11
24.656824
21
-3.5528494
0
LINE
8
layer0
10
24.656824
20
-3.5528494
11
24.6527768
21
-3.6211195
0
LINE
8
layer0
10
24.6527768
20
-3.6211195
11
24.6571563
21
-3.695725
0
LINE
8
layer0
10
24.6571563
20
-3.695725
11
24.670456
21
-3.7760807
0
LINE
8
layer0
10
24.670456
20
-3.7760807
11
24.6931804
21
-3.8615606
0
LINE
8
layer0
10
24.6931804
20
-3.8615606
11
24.7257472
21
-3.9515079
0
LINE
8
layer0
10
24.7257472
20
-3.9515079
11
24.7685711
21
-4.0452211
0
LINE
8
layer0
10
24.7685711
20
-4.0452211
11
24.8220101
21
-4.1420202
0
LINE
8
layer0
10
24.8220101
20
-4.1420202
11
24.8741663
21
-4.2256574
0
LINE
8
layer0
10
24.8741663
20
-4.2256574
11
24.8830522
21
-4.2730083
0
LINE
8
layer0
10
24.8830522
20
-4.2730083
11
24.8935843
21
-4.3663704
0
LINE
8
layer0
10
24.8935843
20
-4.3663704
11
24.8971989
21
-4.490931
0
LINE
8
layer0
10
24.8971989
20
-4.490931
11
24.8886399
21
-4.6476464
0
LINE
8
layer0
10
24.8886399
20
-4.6476464
11
24.8781677
21
-4.7371081
0
LINE
8
layer0
10
24.8781677
20
-4.7371081
11
24.8628005
21
-4.8333912
0
LINE
8
layer0
10
24.8628005
20
-4.8333912
11
24.8419843
21
-4.9360765
0
LINE
8
layer0
10
24.8419843
20
-4.9360765
11
24.8146271
21
-5.0469724
0
LINE
8
layer0
10
24.8146271
20
-5.0469724
11
24.7806732
21
-5.1633626
0
LINE
8
layer0
10
24.7806732
20
-5.1633626
11
24.7396966
21
-5.284789
0
LINE
8
layer0
10
24.7396966
20
-5.284789
11
24.6902978
21
-5.4131679
0
LINE
8
layer0
10
24.6902978
20
-5.4131679
11
24.6323315
21
-5.5467473
0
LINE
8
layer0
10
24.6323315
20
-5.5467473
11
24.5730036
21
-5.6693614
0
ARC
8
layer0
10
23.2693917
20
0.0000439
40
5.81735
50
277.0506123
51
282.9493924
0
LINE
8
layer0
10
23.9834485
20
-5.7733159
11
23.8857619
21
-5.6783877
0
LINE
8
layer0
10
23.8857619
20
-5.6783877
11
23.7856045
21
-5.5726897
0
LINE
8
layer0
10
23.7856045
20
-5.5726897
11
23.6952768
21
-5.4689484
0
LINE
8
layer0
10
23.6952768
20
-5.4689484
11
23.615241
21
-5.3688598
0
LINE
8
layer0
10
23.615241
20
-5.3688598
11
23.5435271
21
-5.2711016
0
LINE
8
layer0
10
23.5435271
20
-5.2711016
11
23.479891
21
-5.1762503
0
LINE
8
layer0
10
23.479891
20
-5.1762503
11
23.4252098
21
-5.0868772
0
LINE
8
layer0
10
23.4252098
20
-5.0868772
11
23.3778385
21
-5.0016566
0
LINE
8
layer0
10
23.3778385
20
-5.0016566
11
23.3374002
21
-4.9211718
0
LINE
8
layer0
10
23.3374002
20
-4.9211718
11
23.2757576
21
-4.7768349
0
LINE
8
layer0
10
23.2757576
20
-4.7768349
11
23.2365519
21
-4.6585499
0
LINE
8
layer0
10
23.2365519
20
-4.6585499
11
23.2145171
21
-4.567216
0
LINE
8
layer0
10
23.2145171
20
-4.567216
11
23.2066722
21
-4.5196816
0
LINE
8
layer0
10
23.2066722
20
-4.5196816
11
23.2270774
21
-4.4232499
0
LINE
8
layer0
10
23.2270774
20
-4.4232499
11
23.2441864
21
-4.3140113
0
LINE
8
layer0
10
23.2441864
20
-4.3140113
11
23.2523759
21
-4.211303
0
LINE
8
layer0
10
23.2523759
20
-4.211303
11
23.2522149
21
-4.1156417
0
LINE
8
layer0
10
23.2522149
20
-4.1156417
11
23.244333
21
-4.0275447
0
LINE
8
layer0
10
23.244333
20
-4.0275447
11
23.2293474
21
-3.9474862
0
LINE
8
layer0
10
23.2293474
20
-3.9474862
11
23.2079462
21
-3.8758821
0
LINE
8
layer0
10
23.2079462
20
-3.8758821
11
23.1807933
21
-3.8131134
0
LINE
8
layer0
10
23.1807933
20
-3.8131134
11
23.1486188
21
-3.7595324
0
LINE
8
layer0
10
23.1486188
20
-3.7595324
11
23.1121333
21
-3.7154267
0
LINE
8
layer0
10
23.1121333
20
-3.7154267
11
23.0720844
21
-3.68105
0
LINE
8
layer0
10
23.0720844
20
-3.68105
11
23.0292162
21
-3.6566148
0
LINE
8
layer0
10
23.0292162
20
-3.6566148
11
22.9728548
21
-3.6402897
0
LINE
8
layer0
10
22.9728548
20
-3.6402897
11
22.8539278
21
-3.6282554
0
LINE
8
layer0
10
22.8539278
20
-3.6282554
11
22.6352452
21
-3.5964687
0
LINE
8
layer0
10
22.6352452
20
-3.5964687
11
22.4188791
21
-3.5515446
0
LINE
8
layer0
10
22.4188791
20
-3.5515446
11
22.3030082
21
-3.5221777
0
LINE
8
layer0
10
22.3030082
20
-3.5221777
11
22.2444623
21
-3.5182415
0
LINE
8
layer0
10
22.2444623
20
-3.5182415
11
22.1958221
21
-3.5265413
0
LINE
8
layer0
10
22.1958221
20
-3.5265413
11
22.1464309
21
-3.5451473
0
LINE
8
layer0
10
22.1464309
20
-3.5451473
11
22.0970607
21
-3.5741143
0
LINE
8
layer0
10
22.0970607
20
-3.5741143
11
22.0485008
21
-3.6134597
0
LINE
8
layer0
10
22.0485008
20
-3.6134597
11
22.0015173
21
-3.6631561
0
LINE
8
layer0
10
22.0015173
20
-3.6631561
11
21.9569167
21
-3.7231223
0
LINE
8
layer0
10
21.9569167
20
-3.7231223
11
21.9154531
21
-3.7932273
0
LINE
8
layer0
10
21.9154531
20
-3.7932273
11
21.8779157
21
-3.8733157
0
LINE
8
layer0
10
21.8779157
20
-3.8733157
11
21.8450462
21
-3.9631528
0
LINE
8
layer0
10
21.8450462
20
-3.9631528
11
21.8176136
21
-4.062468
0
LINE
8
layer0
10
21.8176136
20
-4.062468
11
21.796329
21
-4.1709704
0
LINE
8
layer0
10
21.796329
20
-4.1709704
11
21.782522
21
-4.2685655
0
LINE
8
layer0
10
21.782522
20
-4.2685655
11
21.7588925
21
-4.3105501
0
LINE
8
layer0
10
21.7588925
20
-4.3105501
11
21.7069485
21
-4.3888395
0
LINE
8
layer0
10
21.7069485
20
-4.3888395
11
21.6296514
21
-4.486582
0
LINE
8
layer0
10
21.6296514
20
-4.486582
11
21.5223601
21
-4.6011313
0
LINE
8
layer0
10
21.5223601
20
-4.6011313
11
21.4568331
21
-4.6629315
0
LINE
8
layer0
10
21.4568331
20
-4.6629315
11
21.3831715
21
-4.7268108
0
LINE
8
layer0
10
21.3831715
20
-4.7268108
11
21.3012205
21
-4.7920919
0
LINE
8
layer0
10
21.3012205
20
-4.7920919
11
21.2089812
21
-4.8594582
0
LINE
8
layer0
10
21.2089812
20
-4.8594582
11
21.1081569
21
-4.9267932
0
LINE
8
layer0
10
21.1081569
20
-4.9267932
11
20.9987156
21
-4.9934719
0
LINE
8
layer0
10
20.9987156
20
-4.9934719
11
20.8783536
21
-5.0600629
0
LINE
8
layer0
10
20.8783536
20
-5.0600629
11
20.7480856
21
-5.1251307
0
LINE
8
layer0
10
20.7480856
20
-5.1251307
11
20.6238229
21
-5.1809233
0
ARC
8
layer0
10
23.269422
20
0.0000386
40
5.81735
50
237.050609
51
242.9493895
0
LINE
8
layer0
10
20.1053768
20
-4.8815983
11
20.0915633
21
-4.7460873
0
LINE
8
layer1
10
20.0915633
20
-4.7460873
11
20.0827796
21
-4.6007381
0
LINE
8
layer1
10
20.0827796
20
-4.6007381
11
20.0802682
21
-4.4632061
0
LINE
8
layer1
10
20.0802682
20
-4.4632061
11
20.083293
21
-4.3350878
0
LINE
8
layer1
10
20.083293
20
-4.3350878
11
20.0911946
21
-4.2141038
0
LINE
8
layer1
10
20.0911946
20
-4.2141038
11
20.1034158
21
-4.1005391
0
LINE
8
layer1
10
20.1034158
20
-4.1005391
11
20.1189755
21
-3.9969269
0
LINE
8
layer1
10
20.1189755
20
-3.9969269
11
20.1374657
21
-3.9011944
0
LINE
8
layer1
10
20.1374657
20
-3.9011944
11
20.1582228
21
-3.8135463
0
LINE
8
layer1
10
20.1582228
20
-3.8135463
11
20.2037798
21
-3.6633546
0
LINE
8
layer1
10
20.2037798
20
-3.6633546
11
20.2497787
21
-3.5475421
0
LINE
8
layer1
10
20.2497787
20
-3.5475421
11
20.2916073
21
-3.4634126
0
LINE
8
layer1
10
20.2916073
20
-3.4634126
11
20.3161523
21
-3.4219566
0
LINE
8
layer1
10
20.3161523
20
-3.4219566
11
20.3937687
21
-3.3612018
0
LINE
8
layer1
10
20.3937687
20
-3.3612018
11
20.4770922
21
-3.2885176
0
LINE
8
layer1
10
20.4770922
20
-3.2885176
11
20.5493853
21
-3.2151026
0
LINE
8
layer1
10
20.5493853
20
-3.2151026
11
20.6107518
21
-3.1417183
0
LINE
8
layer1
10
20.6107518
20
-3.1417183
11
20.6613417
21
-3.0691657
0
LINE
8
layer1
10
20.6613417
20
-3.0691657
11
20.7013226
21
-2.9982048
0
LINE
8
layer1
10
20.7013226
20
-2.9982048
11
20.7309546
21
-2.9295964
0
LINE
8
layer1
10
20.7309546
20
-2.9295964
11
20.7505012
21
-2.8640593
0
LINE
8
layer1
10
20.7505012
20
-2.8640593
11
20.7602953
21
-2.8023324
0
LINE
8
layer1
10
20.7602953
20
-2.8023324
11
20.7606964
21
-2.7450931
0
LINE
8
layer1
10
20.7606964
20
-2.7450931
11
20.752114
21
-2.6930161
0
LINE
8
layer1
10
20.752114
20
-2.6930161
11
20.7349818
21
-2.6467425
0
LINE
8
layer1
10
20.7349818
20
-2.6467425
11
20.7023
21
-2.5980083
0
LINE
8
layer1
10
20.7023
20
-2.5980083
11
20.6189321
21
-2.5123447
0
LINE
8
layer1
10
20.6189321
20
-2.5123447
11
20.4718436
21
-2.3474282
0
LINE
8
layer1
10
20.4718436
20
-2.3474282
11
20.3349742
21
-2.1739369
0
LINE
8
layer1
10
20.3349742
20
-2.1739369
11
20.2650887
21
-2.0769602
0
LINE
8
layer1
10
20.2650887
20
-2.0769602
11
20.2227701
21
-2.0363123
0
LINE
8
layer1
10
20.2227701
20
-2.0363123
11
20.1801745
21
-2.011405
0
LINE
8
layer1
10
20.1801745
20
-2.011405
11
20.1303789
21
-1.9939099
0
LINE
8
layer1
10
20.1303789
20
-1.9939099
11
20.0739395
21
-1.9843655
0
LINE
8
layer1
10
20.0739395
20
-1.9843655
11
20.0114497
21
-1.983292
0
LINE
8
layer1
10
20.0114497
20
-1.983292
11
19.943514
21
-1.9911613
0
LINE
8
layer1
10
19.943514
20
-1.9911613
11
19.8708025
21
-2.0084294
0
LINE
8
layer1
10
19.8708025
20
-2.0084294
11
19.7939769
21
-2.0354807
0
LINE
8
layer1
10
19.7939769
20
-2.0354807
11
19.7137417
21
-2.0727033
0
LINE
8
layer1
10
19.7137417
20
-2.0727033
11
19.6308161
21
-2.1203945
0
LINE
8
layer1
10
19.6308161
20
-2.1203945
11
19.5459629
21
-2.178841
0
LINE
8
layer1
10
19.5459629
20
-2.178841
11
19.459914
21
-2.2482771
0
LINE
8
layer1
10
19.459914
20
-2.2482771
11
19.3866043
21
-2.3141644
0
LINE
8
layer1
10
19.3866043
20
-2.3141644
11
19.3415158
21
-2.3311377
0
LINE
8
layer1
10
19.3415158
20
-2.3311377
11
19.251401
21
-2.3577219
0
LINE
8
layer1
10
19.251401
20
-2.3577219
11
19.1293603
21
-2.3829113
0
LINE
8
layer1
10
19.1293603
20
-2.3829113
11
18.9735395
21
-2.4016957
0
LINE
8
layer1
10
18.9735395
20
-2.4016957
11
18.8836185
21
-2.4069175
0
LINE
8
layer1
10
18.8836185
20
-2.4069175
11
18.7861297
21
-2.4085031
0
LINE
8
layer1
10
18.7861297
20
-2.4085031
11
18.6813897
21
-2.4058343
0
LINE
8
layer1
10
18.6813897
20
-2.4058343
11
18.567428
21
-2.3981495
0
LINE
8
layer1
10
18.567428
20
-2.3981495
11
18.44691
21
-2.3849225
0
LINE
8
layer1
10
18.44691
20
-2.3849225
11
18.3202128
21
-2.3656538
0
LINE
8
layer1
10
18.3202128
20
-2.3656538
11
18.1852063
21
-2.3392983
0
LINE
8
layer1
10
18.1852063
20
-2.3392983
11
18.0435906
21
-2.3054085
0
LINE
8
layer1
10
18.0435906
20
-2.3054085
11
17.912537
21
-2.2682735
0
ARC
8
layer1
10
23.2694417
20
0.0000151
40
5.81735
50
197.0506082
51
202.9493878
0
LINE
8
layer1
10
17.7077867
20
-1.7057266
11
17.7843096
21
-1.59304
0
LINE
8
layer1
10
17.7843096
20
-1.59304
11
17.8710096
21
-1.47605
0
LINE
8
layer1
10
17.8710096
20
-1.47605
11
17.9574896
21
-1.36908
0
LINE
8
layer1
10
17.9574896
20
-1.36908
11
18.0421596
21
-1.27288
0
LINE
8
layer1
10
18.0421596
20
-1.27288
11
18.1259796
21
-1.18528
0
LINE
8
layer1
10
18.1259796
20
-1.18528
11
18.2083396
21
-1.10614
0
LINE
8
layer1
10
18.2083396
20
-1.10614
11
18.2868596
21
-1.03677
0
LINE
8
layer1
10
18.2868596
20
-1.03677
11
18.3625596
21
-0.97532
0
LINE
8
layer1
10
18.3625596
20
-0.97532
11
18.4347996
21
-0.92152
0
LINE
8
layer1
10
18.4347996
20
-0.92152
11
18.5662396
21
-0.83575
0
LINE
8
layer1
10
18.5662396
20
-0.83575
11
18.6759196
21
-0.7766
0
LINE
8
layer1
10
18.6759196
20
-0.7766
11
18.7620396
21
-0.73904
0
LINE
8
layer1
10
18.7620396
20
-0.73904
11
18.8074896
21
-0.72306
0
LINE
8
layer1
10
18.8074896
20
-0.72306
11
18.9059996
21
-0.72641
0
LINE
8
layer1
10
18.9059996
20
-0.72641
11
19.0165496
21
-0.72429
0
LINE
8
layer1
10
19.0165496
20
-0.72429
11
19.1191196
21
-0.71452
0
LINE
8
layer1
10
19.1191196
20
-0.71452
11
19.2132996
21
-0.69775
0
LINE
8
layer1
10
19.2132996
20
-0.69775
11
19.2986896
21
-0.67469
0
LINE
8
layer1
10
19.2986896
20
-0.67469
11
19.3749296
21
-0.64603
0
LINE
8
layer1
10
19.3749296
20
-0.64603
11
19.4417296
21
-0.61252
0
LINE
8
layer1
10
19.4417296
20
-0.61252
11
19.4988296
21
-0.57488
0
LINE
8
layer1
10
19.4988296
20
-0.57488
11
19.5460096
21
-0.53389
0
LINE
8
layer1
10
19.5460096
20
-0.53389
11
19.5831096
21
-0.4903
0
LINE
8
layer1
10
19.5831096
20
-0.4903
11
19.6100096
21
-0.44489
0
LINE
8
layer1
10
19.6100096
20
-0.44489
11
19.6266296
21
-0.39843
0
LINE
8
layer1
10
19.6266296
20
-0.39843
11
19.6329196
21
-0.34009
0
LINE
8
layer1
10
19.6329196
20
-0.34009
11
19.6241196
21
-0.22088
0
LINE
8
layer1
10
19.6241196
20
-0.22088
11
19.6174496
21
0
0
LINE
8
layer1
10
19.6174496
20
0
11
19.6241196
21
0.22088
0
LINE
8
layer1
10
19.6241196
20
0.22088
11
19.6329196
21
0.34009
0
LINE
8
layer1
10
19.6329196
20
0.34009
11
19.6266296
21
0.39843
0
LINE
8
layer1
10
19.6266296
20
0.39843
11
19.6100096
21
0.44489
0
LINE
8
layer1
10
19.6100096
20
0.44489
11
19.5831096
21
0.4903
0
LINE
8
layer1
10
19.5831096
20
0.4903
11
19.5460096
21
0.53389
0
LINE
8
layer1
10
19.5460096
20
0.53389
11
19.4988296
21
0.57488
0
LINE
8
layer1
10
19.4988296
20
0.57488
11
19.4417296
21
0.61252
0
LINE
8
layer1
10
19.4417296
20
0.61252
11
19.3749296
21
0.64603
0
LINE
8
layer1
10
19.3749296
20
0.64603
11
19.2986896
21
0.67469
0
LINE
8
layer1
10
19.2986896
20
0.67469
11
19.2132996
21
0.69775
0
LINE
8
layer1
10
19.2132996
20
0.69775
11
19.1191196
21
0.71452
0
LINE
8
layer1
10
19.1191196
20
0.71452
11
19.0165496
21
0.72429
0
LINE
8
layer1
10
19.0165496
20
0.72429
11
18.9059996
21
0.72641
0
LINE
8
layer1
10
18.9059996
20
0.72641
11
18.8074896
21
0.72306
0
LINE
8
layer1
10
18.8074896
20
0.72306
11
18.7620396
21
0.73904
0
LINE
8
layer1
10
18.7620396
20
0.73904
11
18.6759196
21
0.7766
0
LINE
8
layer1
10
18.6759196
20
0.7766
11
18.5662396
21
0.83575
0
LINE
8
layer1
10
18.5662396
20
0.83575
11
18.4347996
21
0.92152
0
LINE
8
layer1
10
18.4347996
20
0.92152
11
18.3625596
21
0.97532
0
LINE
8
layer1
10
18.3625596
20
0.97532
11
18.2868596
21
1.03677
0
LINE
8
layer1
10
18.2868596
20
1.03677
11
18.2083396
21
1.10614
0
LINE
8
layer1
10
18.2083396
20
1.10614
11
18.1259796
21
1.18528
0
LINE
8
layer1
10
18.1259796
20
1.18528
11
18.0421596
21
1.27288
0
LINE
8
layer1
10
18.0421596
20
1.27288
11
17.9574896
21
1.36908
0
LINE
8
layer1
10
17.9574896
20
1.36908
11
17.8710096
21
1.47605
0
LINE
8
layer1
10
17.8710096
20
1.47605
11
17.7843096
21
1.59304
0
LINE
8
layer1
10
17.7843096
20
1.59304
11
17.7077867
21
1.7057266
0
ARC
8
layer1
10
23.2694417
20
-0.0000151
40
5.81735
50
157.0506122
51
162.9493918
0
LINE
8
layer1
10
17.912537
20
2.2682735
11
18.0435906
21
2.3054085
0
LINE
8
layer1
10
18.0435906
20
2.3054085
11
18.1852063
21
2.3392983
0
LINE
8
layer1
10
18.1852063
20
2.3392983
11
18.3202128
21
2.3656538
0
LINE
8
layer1
10
18.3202128
20
2.3656538
11
18.44691
21
2.3849225
0
LINE
8
layer1
10
18.44691
20
2.3849225
11
18.567428
21
2.3981495
0
LINE
8
layer1
10
18.567428
20
2.3981495
11
18.6813897
21
2.4058343
0
LINE
8
layer1
10
18.6813897
20
2.4058343
11
18.7861297
21
2.4085031
0
LINE
8
layer1
10
18.7861297
20
2.4085031
11
18.8836185
21
2.4069175
0
LINE
8
layer1
10
18.8836185
20
2.4069175
11
18.9735395
21
2.4016957
0
LINE
8
layer1
10
18.9735395
20
2.4016957
11
19.1293603
21
2.3829113
0
LINE
8
layer1
10
19.1293603
20
2.3829113
11
19.251401
21
2.3577219
0
LINE
8
layer1
10
19.251401
20
2.3577219
11
19.3415158
21
2.3311377
0
LINE
8
layer1
10
19.3415158
20
2.3311377
11
19.3866043
21
2.3141644
0
LINE
8
layer1
10
19.3866043
20
2.3141644
11
19.459914
21
2.2482771
0
LINE
8
layer1
10
19.459914
20
2.2482771
11
19.5459629
21
2.178841
0
LINE
8
layer1
10
19.5459629
20
2.178841
11
19.6308161
21
2.1203945
0
LINE
8
layer1
10
19.6308161
20
2.1203945
11
19.7137417
21
2.0727033
0
LINE
8
layer1
10
19.7137417
20
2.0727033
11
19.7939769
21
2.0354807
0
LINE
8
layer1
10
19.7939769
20
2.0354807
11
19.8708025
21
2.0084294
0
LINE
8
layer1
10
19.8708025
20
2.0084294
11
19.943514
21
1.9911613
0
LINE
8
layer1
10
19.943514
20
1.9911613
11
20.0114497
21
1.983292
0
LINE
8
layer1
10
20.0114497
20
1.983292
11
20.0739395
21
1.9843655
0
LINE
8
layer1
10
20.0739395
20
1.9843655
11
20.1303789
21
1.9939099
0
LINE
8
layer1
10
20.1303789
20
1.9939099
11
20.1801745
21
2.011405
0
LINE
8
layer1
10
20.1801745
20
2.011405
11
20.2227701
21
2.0363123
0
LINE
8
layer1
10
20.2227701
20
2.0363123
11
20.2650887
21
2.0769602
0
LINE
8
layer1
10
20.2650887
20
2.0769602
11
20.3349742
21
2.1739369
0
LINE
8
layer1
10
20.3349742
20
2.1739369
11
20.4718436
21
2.3474282
0
LINE
8
layer1
10
20.4718436
20
2.3474282
11
20.6189321
21
2.5123447
0
LINE
8
layer1
10
20.6189321
20
2.5123447
11
20.7023
21
2.5980083
0
LINE
8
layer1
10
20.7023
20
2.5980083
11
20.7349818
21
2.6467425
0
LINE
8
layer1
10
20.7349818
20
2.6467425
11
20.752114
21
2.6930161
0
LINE
8
layer1
10
20.752114
20
2.6930161
11
20.7606964
21
2.7450931
0
LINE
8
layer1
10
20.7606964
20
2.7450931
11
20.7602953
21
2.8023324
0
LINE
8
layer1
10
20.7602953
20
2.8023324
11
20.7505012
21
2.8640593
0
LINE
8
layer1
10
20.7505012
20
2.8640593
11
20.7309546
21
2.9295964
0
LINE
8
layer1
10
20.7309546
20
2.9295964
11
20.7013226
21
2.9982048
0
LINE
8
layer1
10
20.7013226
20
2.9982048
11
20.6613417
21
3.0691657
0
LINE
8
layer1
10
20.6613417
20
3.0691657
11
20.6107518
21
3.1417183
0
LINE
8
layer1
10
20.6107518
20
3.1417183
11
20.5493853
21
3.2151026
0
LINE
8
layer1
10
20.5493853
20
3.2151026
11
20.4770922
21
3.2885176
0
LINE
8
layer1
10
20.4770922
20
3.2885176
11
20.3937687
21
3.3612018
0
LINE
8
layer1
10
20.3937687
20
3.3612018
11
20.3161523
21
3.4219566
0
LINE
8
layer1
10
20.3161523
20
3.4219566
11
20.2916073
21
3.4634126
0
LINE
8
layer1
10
20.2916073
20
3.4634126
11
20.2497787
21
3.5475421
0
LINE
8
layer1
10
20.2497787
20
3.5475421
11
20.2037798
21
3.6633546
0
LINE
8
layer1
10
20.2037798
20
3.6633546
11
20.1582228
21
3.8135463
0
LINE
8
layer1
10
20.1582228
20
3.8135463
11
20.1374657
21
3.9011944
0
LINE
8
layer1
10
20.1374657
20
3.9011944
11
20.1189755
21
3.9969269
0
LINE
8
layer1
10
20.1189755
20
3.9969269
11
20.1034158
21
4.1005391
0
LINE
8
layer1
10
20.1034158
20
4.1005391
11
20.0911946
21
4.2141038
0
LINE
8
layer1
10
20.0911946
20
4.2141038
11
20.083293
21
4.3350878
0
LINE
8
layer1
10
20.083293
20
4.3350878
11
20.0802682
21
4.4632061
0
LINE
8
layer1
10
20.0802682
20
4.4632061
11
20.0827796
21
4.6007381
0
LINE
8
layer1
10
20.0827796
20
4.6007381
11
20.0915633
21
4.7460873
0
LINE
8
layer1
10
20.0915633
20
4.7460873
11
20.1053768
21
4.8815983
0
ARC
8
layer1
10
23.269422
20
-0.0000386
40
5.81735
50
117.0506105
51
122.949391
0
LINE
8
layer1
10
20.6238229
20
5.1809233
11
20.7480856
21
5.1251307
0
LINE
8
layer1
10
20.7480856
20
5.1251307
11
20.8783536
21
5.0600629
0
LINE
8
layer1
10
20.8783536
20
5.0600629
11
20.9987156
21
4.9934719
0
LINE
8
layer1
10
20.9987156
20
4.9934719
11
21.1081569
21
4.9267932
0
LINE
8
layer1
10
21.1081569
20
4.9267932
11
21.2089812
21
4.8594582
0
LINE
8
layer1
10
21.2089812
20
4.8594582
11
21.3012205
21
4.7920919
0
LINE
8
layer1
10
21.3012205
20
4.7920919
11
21.3831715
21
4.7268108
0
LINE
8
layer1
10
21.3831715
20
4.7268108
11
21.4568331
21
4.6629315
0
LINE
8
layer1
10
21.4568331
20
4.6629315
11
21.5223601
21
4.6011313
0
LINE
8
layer1
10
21.5223601
20
4.6011313
11
21.6296514
21
4.486582
0
LINE
8
layer1
10
21.6296514
20
4.486582
11
21.7069485
21
4.3888395
0
LINE
8
layer1
10
21.7069485
20
4.3888395
11
21.7588925
21
4.3105501
0
LINE
8
layer1
10
21.7588925
20
4.3105501
11
21.782522
21
4.2685655
0
LINE
8
layer1
10
21.782522
20
4.2685655
11
21.796329
21
4.1709704
0
LINE
8
layer1
10
21.796329
20
4.1709704
11
21.8176136
21
4.062468
0
LINE
8
layer1
10
21.8176136
20
4.062468
11
21.8450462
21
3.9631528
0
LINE
8
layer1
10
21.8450462
20
3.9631528
11
21.8779157
21
3.8733157
0
LINE
8
layer1
10
21.8779157
20
3.8733157
11
21.9154531
21
3.7932273
0
LINE
8
layer1
10
21.9154531
20
3.7932273
11
21.9569167
21
3.7231223
0
LINE
8
layer1
10
21.9569167
20
3.7231223
11
22.0015173
21
3.6631561
0
LINE
8
layer1
10
22.0015173
20
3.6631561
11
22.0485008
21
3.6134597
0
LINE
8
layer1
10
22.0485008
20
3.6134597
11
22.0970607
21
3.5741143
0
LINE
8
layer1
10
22.0970607
20
3.5741143
11
22.1464309
21
3.5451473
0
LINE
8
layer1
10
22.1464309
20
3.5451473
11
22.1958221
21
3.5265413
0
LINE
8
layer1
10
22.1958221
20
3.5265413
11
22.2444623
21
3.5182415
0
LINE
8
layer1
10
22.2444623
20
3.5182415
11
22.3030082
21
3.5221777
0
LINE
8
layer1
10
22.3030082
20
3.5221777
11
22.4188791
21
3.5515446
0
LINE
8
layer1
10
22.4188791
20
3.5515446
11
22.6352452
21
3.5964687
0
LINE
8
layer1
10
22.6352452
20
3.5964687
11
22.8539278
21
3.6282554
0
LINE
8
layer1
10
22.8539278
20
3.6282554
11
22.9728548
21
3.6402897
0
LINE
8
layer1
10
22.9728548
20
3.6402897
11
23.0292162
21
3.6566148
0
LINE
8
layer1
10
23.0292162
20
3.6566148
11
23.0720844
21
3.68105
0
LINE
8
layer1
10
23.0720844
20
3.68105
11
23.1121333
21
3.7154267
0
LINE
8
layer1
10
23.1121333
20
3.7154267
11
23.1486188
21
3.7595324
0
LINE
8
layer1
10
23.1486188
20
3.7595324
11
23.1807933
21
3.8131134
0
LINE
8
layer1
10
23.1807933
20
3.8131134
11
23.2079462
21
3.8758821
0
LINE
8
layer1
10
23.2079462
20
3.8758821
11
23.2293474
21
3.9474862
0
LINE
8
layer1
10
23.2293474
20
3.9474862
11
23.244333
21
4.0275447
0
LINE
8
layer1
10
23.244333
20
4.0275447
11
23.2522149
21
4.1156417
0
LINE
8
layer1
10
23.2522149
20
4.1156417
11
23.2523759
21
4.211303
0
LINE
8
layer1
10
23.2523759
20
4.211303
11
23.2441864
21
4.3140113
0
LINE
8
layer1
10
23.2441864
20
4.3140113
11
23.2270774
21
4.4232499
0
LINE
8
layer1
10
23.2270774
20
4.4232499
11
23.2066722
21
4.5196816
0
LINE
8
layer1
10
23.2066722
20
4.5196816
11
23.2145171
21
4.567216
0
LINE
8
layer1
10
23.2145171
20
4.567216
11
23.2365519
21
4.6585499
0
LINE
8
layer1
10
23.2365519
20
4.6585499
11
23.2757576
21
4.7768349
0
LINE
8
layer1
10
23.2757576
20
4.7768349
11
23.3374002
21
4.9211718
0
LINE
8
layer1
10
23.3374002
20
4.9211718
11
23.3778385
21
5.0016566
0
LINE
8
layer1
10
23.3778385
20
5.0016566
11
23.4252098
21
5.0868772
0
LINE
8
layer1
10
23.4252098
20
5.0868772
11
23.479891
21
5.1762503
0
LINE
8
layer1
10
23.479891
20
5.1762503
11
23.5435271
21
5.2711016
0
LINE
8
layer1
10
23.5435271
20
5.2711016
11
23.615241
21
5.3688598
0
LINE
8
layer1
10
23.615241
20
5.3688598
11
23.6952768
21
5.4689484
0
LINE
8
layer1
10
23.6952768
20
5.4689484
11
23.7856045
21
5.5726897
0
LINE
8
layer1
10
23.7856045
20
5.5726897
11
23.8857619
21
5.6783877
0
LINE
8
layer1
10
23.8857619
20
5.6783877
11
23.9834485
21
5.7733159
0
ARC
8
layer1
10
23.2693916
20
-0.0000439
40
5.81735
50
77.0506067
51
82.9493867
0
LINE
8
layer1
10
24.5730036
20
5.6693614
11
24.6323315
21
5.5467473
0
LINE
8
layer1
10
24.6323315
20
5.5467473
11
24.6902978
21
5.4131679
0
LINE
8
layer1
10
24.6902978
20
5.4131679
11
24.7396966
21
5.284789
0
LINE
8
layer1
10
24.7396966
20
5.284789
11
24.7806732
21
5.1633626
0
LINE
8
layer1
10
24.7806732
20
5.1633626
11
24.8146271
21
5.0469724
0
LINE
8
layer1
10
24.8146271
20
5.0469724
11
24.8419843
21
4.9360765
0
LINE
8
layer1
10
24.8419843
20
4.9360765
11
24.8628005
21
4.8333912
0
LINE
8
layer1
10
24.8628005
20
4.8333912
11
24.8781677
21
4.7371081
0
LINE
8
layer1
10
24.8781677
20
4.7371081
11
24.8886399
21
4.6476464
0
LINE
8
layer1
10
24.8886399
20
4.6476464
11
24.8971989
21
4.490931
0
LINE
8
layer1
10
24.8971989
20
4.490931
11
24.8935843
21
4.3663704
0
LINE
8
layer1
10
24.8935843
20
4.3663704
11
24.8830522
21
4.2730083
0
LINE
8
layer1
10
24.8830522
20
4.2730083
11
24.8741663
21
4.2256574
0
LINE
8
layer1
10
24.8741663
20
4.2256574
11
24.8220101
21
4.1420202
0
LINE
8
layer1
10
24.8220101
20
4.1420202
11
24.7685711
21
4.0452211
0
LINE
8
layer1
10
24.7685711
20
4.0452211
11
24.7257472
21
3.9515079
0
LINE
8
layer1
10
24.7257472
20
3.9515079
11
24.6931804
21
3.8615606
0
LINE
8
layer1
10
24.6931804
20
3.8615606
11
24.670456
21
3.7760807
0
LINE
8
layer1
10
24.670456
20
3.7760807
11
24.6571563
21
3.695725
0
LINE
8
layer1
10
24.6571563
20
3.695725
11
24.6527768
21
3.6211195
0
LINE
8
layer1
10
24.6527768
20
3.6211195
11
24.656824
21
3.5528494
0
LINE
8
layer1
10
24.656824
20
3.5528494
11
24.6687323
21
3.4914953
0
LINE
8
layer1
10
24.6687323
20
3.4914953
11
24.6879324
21
3.4375708
0
LINE
8
layer1
10
24.6879324
20
3.4375708
11
24.7138086
21
3.3915697
0
LINE
8
layer1
10
24.7138086
20
3.3915697
11
24.7457341
21
3.3539464
0
LINE
8
layer1
10
24.7457341
20
3.3539464
11
24.7931131
21
3.3193291
0
LINE
8
layer1
10
24.7931131
20
3.3193291
11
24.900752
21
3.2673451
0
LINE
8
layer1
10
24.900752
20
3.2673451
11
25.0953746
21
3.1626815
0
LINE
8
layer1
10
25.0953746
20
3.1626815
11
25.2833273
21
3.0464651
0
LINE
8
layer1
10
25.2833273
20
3.0464651
11
25.3821662
21
2.9792391
0
LINE
8
layer1
10
25.3821662
20
2.9792391
11
25.4358351
21
2.9555164
0
LINE
8
layer1
10
25.4358351
20
2.9555164
11
25.4843807
21
2.9466797
0
LINE
8
layer1
10
25.4843807
20
2.9466797
11
25.5371569
21
2.9472708
0
LINE
8
layer1
10
25.5371569
20
2.9472708
11
25.5934569
21
2.9576053
0
LINE
8
layer1
10
25.5934569
20
2.9576053
11
25.6525453
21
2.9779694
0
LINE
8
layer1
10
25.6525453
20
2.9779694
11
25.7136925
21
3.0085995
0
LINE
8
layer1
10
25.7136925
20
3.0085995
11
25.776113
21
3.049695
0
LINE
8
layer1
10
25.776113
20
3.049695
11
25.8390533
21
3.1013907
0
LINE
8
layer1
10
25.8390533
20
3.1013907
11
25.9017189
21
3.1638106
0
LINE
8
layer1
10
25.9017189
20
3.1638106
11
25.9633321
21
3.2369879
0
LINE
8
layer1
10
25.9633321
20
3.2369879
11
26.0230782
21
3.3209311
0
LINE
8
layer1
10
26.0230782
20
3.3209311
11
26.0801892
21
3.4156102
0
LINE
8
layer1
10
26.0801892
20
3.4156102
11
26.126543
21
3.5025974
0
LINE
8
layer1
10
26.126543
20
3.5025974
11
26.1631071
21
3.5339683
0
LINE
8
layer1
10
26.1631071
20
3.5339683
11
26.238695
21
3.5897704
0
LINE
8
layer1
10
26.238695
20
3.5897704
11
26.3447604
21
3.655181
0
LINE
8
layer1
10
26.3447604
20
3.655181
11
26.4847594
21
3.7261264
0
LINE
8
layer1
10
26.4847594
20
3.7261264
11
26.5674715
21
3.7617881
0
LINE
8
layer1
10
26.5674715
20
3.7617881
11
26.6585388
21
3.7966212
0
LINE
8
layer1
10
26.6585388
20
3.7966212
11
26.757875
21
3.8299365
0
LINE
8
layer1
10
26.757875
20
3.8299365
11
26.8675922
21
3.8616924
0
LINE
8
layer1
10
26.8675922
20
3.8616924
11
26.9853661
21
3.8904826
0
LINE
8
layer1
10
26.9853661
20
3.8904826
11
27.1110127
21
3.915709
0
LINE
8
layer1
10
27.1110127
20
3.915709
11
27.2468914
21
3.9371179
0
LINE
8
layer1
10
27.2468914
20
3.9371179
11
27.3915578
21
3.9537073
0
LINE
8
layer1
10
27.3915578
20
3.9537073
11
27.5274087
21
3.9636348
0
ARC
8
layer1
10
23.2693655
20
-0.0000288
40
5.81735
50
37.0506104
51
42.9493909
0
LINE
8
layer1
10
27.9122135
20
3.5050423
11
27.8788465
21
3.3729792
0
LINE
8
layer1
10
27.8788465
20
3.3729792
11
27.8373881
21
3.2333914
0
LINE
8
layer1
10
27.8373881
20
3.2333914
11
27.7927093
21
3.1032946
0
LINE
8
layer1
10
27.7927093
20
3.1032946
11
27.7460479
21
2.9839373
0
LINE
8
layer1
10
27.7460479
20
2.9839373
11
27.6972438
21
2.8729521
0
LINE
8
layer1
10
27.6972438
20
2.8729521
11
27.6469182
21
2.7704161
0
LINE
8
layer1
10
27.6469182
20
2.7704161
11
27.5968595
21
2.6783742
0
LINE
8
layer1
10
27.5968595
20
2.6783742
11
27.5467419
21
2.5947391
0
LINE
8
layer1
10
27.5467419
20
2.5947391
11
27.4972592
21
2.5194761
0
LINE
8
layer1
10
27.4972592
20
2.5194761
11
27.4030811
21
2.3939236
0
LINE
8
layer1
10
27.4030811
20
2.3939236
11
27.3202461
21
2.300828
0
LINE
8
layer1
10
27.3202461
20
2.300828
11
27.252166
21
2.2360783
0
LINE
8
layer1
10
27.252166
20
2.2360783
11
27.2149225
21
2.2055172
0
LINE
8
layer1
10
27.2149225
20
2.2055172
11
27.1212076
21
2.1749728
0
LINE
8
layer1
10
27.1212076
20
2.1749728
11
27.0180496
21
2.1351703
0
LINE
8
layer1
10
27.0180496
20
2.1351703
11
26.9250069
21
2.0909085
0
LINE
8
layer1
10
26.9250069
20
2.0909085
11
26.8422423
21
2.0429384
0
LINE
8
layer1
10
26.8422423
20
2.0429384
11
26.769889
21
1.992064
0
LINE
8
layer1
10
26.769889
20
1.992064
11
26.7080491
21
1.9390568
0
LINE
8
layer1
10
26.7080491
20
1.9390568
11
26.6567387
21
1.8847208
0
LINE
8
layer1
10
26.6567387
20
1.8847208
11
26.6159559
21
1.8298214
0
LINE
8
layer1
10
26.6159559
20
1.8298214
11
26.5856406
21
1.7751669
0
LINE
8
layer1
10
26.5856406
20
1.7751669
11
26.5656867
21
1.7215167
0
LINE
8
layer1
10
26.5656867
20
1.7215167
11
26.5559401
21
1.6696449
0
LINE
8
layer1
10
26.5559401
20
1.6696449
11
26.5562126
21
1.6203024
0
LINE
8
layer1
10
26.5562126
20
1.6203024
11
26.5702554
21
1.5633295
0
LINE
8
layer1
10
26.5702554
20
1.5633295
11
26.619297
21
1.4543185
0
LINE
8
layer1
10
26.619297
20
1.4543185
11
26.7011101
21
1.2490405
0
LINE
8
layer1
10
26.7011101
20
1.2490405
11
26.7703878
21
1.0391999
0
LINE
8
layer1
10
26.7703878
20
1.0391999
11
26.8028907
21
0.9241693
0
LINE
8
layer1
10
26.8028907
20
0.9241693
11
26.8287548
21
0.871499
0
LINE
8
layer1
10
26.8287548
20
0.871499
11
26.8602628
21
0.8335252
0
LINE
8
layer1
10
26.8602628
20
0.8335252
11
26.9010716
21
0.8000541
0
LINE
8
layer1
10
26.9010716
20
0.8000541
11
26.9508429
21
0.7717819
0
LINE
8
layer1
10
26.9508429
20
0.7717819
11
27.009197
21
0.7494004
0
LINE
8
layer1
10
27.009197
20
0.7494004
11
27.0757271
21
0.7335597
0
LINE
8
layer1
10
27.0757271
20
0.7335597
11
27.1499596
21
0.7249176
0
LINE
8
layer1
10
27.1499596
20
0.7249176
11
27.2314041
21
0.7240616
0
LINE
8
layer1
10
27.2314041
20
0.7240616
11
27.3195314
21
0.7315974
0
LINE
8
layer1
10
27.3195314
20
0.7315974
11
27.4137674
21
0.7480502
0
LINE
8
layer1
10
27.4137674
20
0.7480502
11
27.5134932
21
0.7739504
0
LINE
8
layer1
10
27.5134932
20
0.7739504
11
27.6181013
21
0.8097686
0
LINE
8
layer1
10
27.6181013
20
0.8097686
11
27.7095246
21
0.846609
0
LINE
8
layer1
10
27.7095246
20
0.846609
11
27.7576991
21
0.8471375
0
LINE
8
layer1
10
27.7576991
20
0.8471375
11
27.8514717
21
0.8412974
0
LINE
8
layer1
10
27.8514717
20
0.8412974
11
27.9747677
21
0.8232273
0
LINE
8
layer1
10
27.9747677
20
0.8232273
11
28.127616
21
0.787585
0
LINE
8
layer1
10
28.127616
20
0.787585
11
28.2139001
21
0.7617371
0
LINE
8
layer1
10
28.2139001
20
0.7617371
11
28.3060519
21
0.7298839
0
LINE
8
layer1
10
28.3060519
20
0.7298839
11
28.4035625
21
0.6915529
0
LINE
8
layer1
10
28.4035625
20
0.6915529
11
28.5080231
21
0.6453544
0
LINE
8
layer1
10
28.5080231
20
0.6453544
11
28.6167491
21
0.5917054
0
LINE
8
layer1
10
28.6167491
20
0.5917054
11
28.7292152
21
0.5302658
0
LINE
8
layer1
10
28.7292152
20
0.5302658
11
28.8470657
21
0.4593248
0
LINE
8
layer1
10
28.8470657
20
0.4593248
11
28.96855
21
0.3790433
0
LINE
8
layer1
10
28.96855
20
0.3790433
11
29.0789992
21
0.299325
0
ARC
8
layer1
10
23.269355
20
0
40
5.81735
50
357.0506097
51
362.9493903
0
LINE
8
layer1
10
29.0789992
20
-0.299325
11
28.96855
21
-0.3790433
0
LINE
8
layer1
10
28.96855
20
-0.3790433
11
28.8470657
21
-0.4593248
0
LINE
8
layer1
10
28.8470657
20
-0.4593248
11
28.7292152
21
-0.5302658
0
LINE
8
layer1
10
28.7292152
20
-0.5302658
11
28.6167491
21
-0.5917054
0
LINE
8
layer1
10
28.6167491
20
-0.5917054
11
28.5080231
21
-0.6453544
0
LINE
8
layer1
10
28.5080231
20
-0.6453544
11
28.4035625
21
-0.6915529
0
LINE
8
layer1
10
28.4035625
20
-0.6915529
11
28.3060519
21
-0.7298839
0
LINE
8
layer1
10
28.3060519
20
-0.7298839
11
28.2139001
21
-0.7617371
0
LINE
8
layer1
10
28.2139001
20
-0.7617371
11
28.127616
21
-0.787585
0
LINE
8
layer1
10
28.127616
20
-0.787585
11
27.9747677
21
-0.8232273
0
LINE
8
layer1
10
27.9747677
20
-0.8232273
11
27.8514717
21
-0.8412974
0
LINE
8
layer1
10
27.8514717
20
-0.8412974
11
27.7576991
21
-0.8471375
0
LINE
8
layer1
10
27.7576991
20
-0.8471375
11
27.7095246
21
-0.846609
0
LINE
8
layer1
10
27.7095246
20
-0.846609
11
27.6181013
21
-0.8097686
0
LINE
8
layer1
10
27.6181013
20
-0.8097686
11
27.5134932
21
-0.7739504
0
LINE
8
layer1
10
27.5134932
20
-0.7739504
11
27.4137674
21
-0.7480502
0
LINE
8
layer1
10
27.4137674
20
-0.7480502
11
27.3195314
21
-0.7315974
0
LINE
8
layer1
10
27.3195314
20
-0.7315974
11
27.2314041
21
-0.7240616
0
LINE
8
layer1
10
27.2314041
20
-0.7240616
11
27.1499596
21
-0.7249176
0
LINE
8
layer1
10
27.1499596
20
-0.7249176
11
27.0757271
21
-0.7335597
0
LINE
8
layer1
10
27.0757271
20
-0.7335597
11
27.009197
21
-0.7494004
0
LINE
8
layer1
10
27.009197
20
-0.7494004
11
26.9508429
21
-0.7717819
0
LINE
8
layer1
10
26.9508429
20
-0.7717819
11
26.9010716
21
-0.8000541
0
LINE
8
layer1
10
26.9010716
20
-0.8000541
11
26.8602628
21
-0.8335252
0
LINE
8
layer1
10
26.8602628
20
-0.8335252
11
26.8287548
21
-0.871499
0
LINE
8
layer1
10
26.8287548
20
-0.871499
11
26.8028907
21
-0.9241693
0
LINE
8
layer1
10
26.8028907
20
-0.9241693
11
26.7703878
21
-1.0391999
0
LINE
8
layer1
10
26.7703878
20
-1.0391999
11
26.7011101
21
-1.2490405
0
LINE
8
layer1
10
26.7011101
20
-1.2490405
11
26.619297
21
-1.4543185
0
LINE
8
layer1
10
26.619297
20
-1.4543185
11
26.5702554
21
-1.5633295
0
LINE
8
layer1
10
26.5702554
20
-1.5633295
11
26.5562126
21
-1.6203024
0
LINE
8
layer1
10
26.5562126
20
-1.6203024
11
26.5559401
21
-1.6696449
0
LINE
8
layer1
10
26.5559401
20
-1.6696449
11
26.5656867
21
-1.7215167
0
LINE
8
layer1
10
26.5656867
20
-1.7215167
11
26.5856406
21
-1.7751669
0
LINE
8
layer1
10
26.5856406
20
-1.7751669
11
26.6159559
21
-1.8298214
0
LINE
8
layer1
10
26.6159559
20
-1.8298214
11
26.6567387
21
-1.8847208
0
LINE
8
layer1
10
26.6567387
20
-1.8847208
11
26.7080491
21
-1.9390568
0
LINE
8
layer1
10
26.7080491
20
-1.9390568
11
26.769889
21
-1.992064
0
LINE
8
layer1
10
26.769889
20
-1.992064
11
26.8422423
21
-2.0429384
0
LINE
8
layer1
10
26.8422423
20
-2.0429384
11
26.9250069
21
-2.0909085
0
LINE
8
layer1
10
26.9250069
20
-2.0909085
11
27.0180496
21
-2.1351703
0
LINE
8
layer1
10
27.0180496
20
-2.1351703
11
27.1212076
21
-2.1749728
0
LINE
8
layer1
10
27.1212076
20
-2.1749728
11
27.2149225
21
-2.2055172
0
LINE
8
layer1
10
27.2149225
20
-2.2055172
11
27.252166
21
-2.2360783
0
LINE
8
layer1
10
27.252166
20
-2.2360783
11
27.3202461
21
-2.300828
0
LINE
8
layer1
10
27.3202461
20
-2.300828
11
27.4030811
21
-2.3939236
0
LINE
8
layer1
10
27.4030811
20
-2.3939236
11
27.4972592
21
-2.5194761
0
LINE
8
layer1
10
27.4972592
20
-2.5194761
11
27.5467419
21
-2.5947391
0
LINE
8
layer1
10
27.5467419
20
-2.5947391
11
27.5968595
21
-2.6783742
0
LINE
8
layer1
10
27.5968595
20
-2.6783742
11
27.6469182
21
-2.7704161
0
LINE
8
layer1
10
27.6469182
20
-2.7704161
11
27.6972438
21
-2.8729521
0
LINE
8
layer1
10
27.6972438
20
-2.8729521
11
27.7460479
21
-2.9839373
0
LINE
8
layer1
10
27.7460479
20
-2.9839373
11
27.7927093
21
-3.1032946
0
LINE
8
layer1
10
27.7927093
20
-3.1032946
11
27.8373881
21
-3.2333914
0
LINE
8
layer1
10
27.8373881
20
-3.2333914
11
27.8788465
21
-3.3729792
0
LINE
8
layer1
10
27.8788465
20
-3.3729792
11
27.9122135
21
-3.5050423
0
ARC
8
layer1
10
23.2693655
20
0.0000288
40
5.81735
50
317.0506091
51
322.9493896
0
LINE
8
layer1
10
27.5274087
20
-3.9636348
11
27.3915578
21
-3.9537073
0
LINE
8
layer1
10
27.3915578
20
-3.9537073
11
27.2468914
21
-3.9371179
0
LINE
8
layer1
10
27.2468914
20
-3.9371179
11
27.1110127
21
-3.915709
0
LINE
8
layer1
10
27.1110127
20
-3.915709
11
26.9853661
21
-3.8904826
0
LINE
8
layer1
10
26.9853661
20
-3.8904826
11
26.8675922
21
-3.8616924
0
LINE
8
layer1
10
26.8675922
20
-3.8616924
11
26.757875
21
-3.8299365
0
LINE
8
layer1
10
26.757875
20
-3.8299365
11
26.6585388
21
-3.7966212
0
LINE
8
layer1
10
26.6585388
20
-3.7966212
11
26.5674715
21
-3.7617881
0
LINE
8
layer1
10
26.5674715
20
-3.7617881
11
26.4847594
21
-3.7261264
0
LINE
8
layer1
10
26.4847594
20
-3.7261264
11
26.3447604
21
-3.655181
0
LINE
8
layer1
10
26.3447604
20
-3.655181
11
26.238695
21
-3.5897704
0
LINE
8
layer1
10
26.238695
20
-3.5897704
11
26.1631071
21
-3.5339683
0
LINE
8
layer1
10
26.1631071
20
-3.5339683
11
26.126543
21
-3.5025974
0
LINE
8
layer1
10
26.126543
20
-3.5025974
11
26.0801892
21
-3.4156102
0
LINE
8
layer1
10
26.0801892
20
-3.4156102
11
26.0230782
21
-3.3209311
0
LINE
8
layer1
10
26.0230782
20
-3.3209311
11
25.9633321
21
-3.2369879
0
LINE
8
layer1
10
25.9633321
20
-3.2369879
11
25.9017189
21
-3.1638106
0
LINE
8
layer1
10
25.9017189
20
-3.1638106
11
25.8390533
21
-3.1013907
0
LINE
8
layer1
10
25.8390533
20
-3.1013907
11
25.776113
21
-3.049695
0
LINE
8
layer1
10
25.776113
20
-3.049695
11
25.7136925
21
-3.0085995
0
LINE
8
layer1
10
25.7136925
20
-3.0085995
11
25.6525453
21
-2.9779694
0
LINE
8
layer1
10
25.6525453
20
-2.9779694
11
25.5934569
21
-2.9576053
0
LINE
8
layer1
10
25.5934569
20
-2.9576053
11
25.5371569
21
-2.9472708
0
LINE
8
layer1
10
25.5371569
20
-2.9472708
11
25.4843807
21
-2.9466797
0
LINE
8
layer1
10
25.4843807
20
-2.9466797
11
25.4358351
21
-2.9555164
0
LINE
8
layer1
10
25.4358351
20
-2.9555164
11
25.3821662
21
-2.9792391
0
LINE
8
layer1
10
25.3821662
20
-2.9792391
11
25.2833273
21
-3.0464651
0
LINE
8
layer1
10
25.2833273
20
-3.0464651
11
25.0953746
21
-3.1626815
0
LINE
8
layer1
10
25.0953746
20
-3.1626815
11
24.900752
21
-3.2673451
0
LINE
8
layer1
10
24.900752
20
-3.2673451
11
24.7931131
21
-3.3193291
0
LINE
8
layer1
10
24.7931131
20
-3.3193291
11
24.7457341
21
-3.3539464
0
LINE
8
layer1
10
24.7457341
20
-3.3539464
11
24.7138086
21
-3.3915697
0
LINE
8
layer1
10
24.7138086
20
-3.3915697
11
24.6879324
21
-3.4375708
0
LINE
8
layer1
10
24.6879324
20
-3.4375708
11
24.6687323
21
-3.4914953
0
LINE
8
layer1
10
24.6687323
20
-3.4914953
11
24.656824
21
-3.5528494
0
LINE
8
layer1
10
24.656824
20
-3.5528494
11
24.6527768
21
-3.6211195
0
LINE
8
layer1
10
24.6527768
20
-3.6211195
11
24.6571563
21
-3.695725
0
LINE
8
layer1
10
24.6571563
20
-3.695725
11
24.670456
21
-3.7760807
0
LINE
8
layer1
10
24.670456
20
-3.7760807
11
24.6931804
21
-3.8615606
0
LINE
8
layer1
10
24.6931804
20
-3.8615606
11
24.7257472
21
-3.9515079
0
LINE
8
layer1
10
24.7257472
20
-3.9515079
11
24.7685711
21
-4.0452211
0
LINE
8
layer1
10
24.7685711
20
-4.0452211
11
24.8220101
21
-4.1420202
0
LINE
8
layer1
10
24.8220101
20
-4.1420202
11
24.8741663
21
-4.2256574
0
LINE
8
layer1
10
24.8741663
20
-4.2256574
11
24.8830522
21
-4.2730083
0
LINE
8
layer1
10
24.8830522
20
-4.2730083
11
24.8935843
21
-4.3663704
0
LINE
8
layer1
10
24.8935843
20
-4.3663704
11
24.8971989
21
-4.490931
0
LINE
8
layer1
10
24.8971989
20
-4.490931
11
24.8886399
21
-4.6476464
0
LINE
8
layer1
10
24.8886399
20
-4.6476464
11
24.8781677
21
-4.7371081
0
LINE
8
layer1
10
24.8781677
20
-4.7371081
11
24.8628005
21
-4.8333912
0
LINE
8
layer1
10
24.8628005
20
-4.8333912
11
24.8419843
21
-4.9360765
0
LINE
8
layer1
10
24.8419843
20
-4.9360765
11
24.8146271
21
-5.0469724
0
LINE
8
layer1
10
24.8146271
20
-5.0469724
11
24.7806732
21
-5.1633626
0
LINE
8
layer1
10
24.7806732
20
-5.1633626
11
24.7396966
21
-5.284789
0
LINE
8
layer1
10
24.7396966
20
-5.284789
11
24.6902978
21
-5.4131679
0
LINE
8
layer1
10
24.6902978
20
-5.4131679
11
24.6323315
21
-5.5467473
0
LINE
8
layer1
10
24.6323315
20
-5.5467473
11
24.5730036
21
-5.6693614
0
ARC
8
layer1
10
23.2693917
20
0.0000439
40
5.81735
50
277.0506123
51
282.9493924
0
LINE
8
layer1
10
23.9834485
20
-5.7733159
11
23.8857619
21
-5.6783877
0
LINE
8
layer1
10
23.8857619
20
-5.6783877
11
23.7856045
21
-5.5726897
0
LINE
8
layer1
10
23.7856045
20
-5.5726897
11
23.6952768
21
-5.4689484
0
LINE
8
layer1
10
23.6952768
20
-5.4689484
11
23.615241
21
-5.3688598
0
LINE
8
layer1
10
23.615241
20
-5.3688598
11
23.5435271
21
-5.2711016
0
LINE
8
layer1
10
23.5435271
20
-5.2711016
11
23.479891
21
-5.1762503
0
LINE
8
layer1
10
23.479891
20
-5.1762503
11
23.4252098
21
-5.0868772
0
LINE
8
layer1
10
23.4252098
20
-5.0868772
11
23.3778385
21
-5.0016566
0
LINE
8
layer1
10
23.3778385
20
-5.0016566
11
23.3374002
21
-4.9211718
0
LINE
8
layer1
10
23.3374002
20
-4.9211718
11
23.2757576
21
-4.7768349
0
LINE
8
layer1
10
23.2757576
20
-4.7768349
11
23.2365519
21
-4.6585499
0
LINE
8
layer1
10
23.2365519
20
-4.6585499
11
23.2145171
21
-4.567216
0
LINE
8
layer1
10
23.2145171
20
-4.567216
11
23.2066722
21
-4.5196816
0
LINE
8
layer1
10
23.2066722
20
-4.5196816
11
23.2270774
21
-4.4232499
0
LINE
8
layer1
10
23.2270774
20
-4.4232499
11
23.2441864
21
-4.3140113
0
LINE
8
layer1
10
23.2441864
20
-4.3140113
11
23.2523759
21
-4.211303
0
LINE
8
layer1
10
23.2523759
20
-4.211303
11
23.2522149
21
-4.1156417
0
LINE
8
layer1
10
23.2522149
20
-4.1156417
11
23.244333
21
-4.0275447
0
LINE
8
layer1
10
23.244333
20
-4.0275447
11
23.2293474
21
-3.9474862
0
LINE
8
layer1
10
23.2293474
20
-3.9474862
11
23.2079462
21
-3.8758821
0
LINE
8
layer1
10
23.2079462
20
-3.8758821
11
23.1807933
21
-3.8131134
0
LINE
8
layer1
10
23.1807933
20
-3.8131134
11
23.1486188
21
-3.7595324
0
LINE
8
layer1
10
23.1486188
20
-3.7595324
11
23.1121333
21
-3.7154267
0
LINE
8
layer1
10
23.1121333
20
-3.7154267
11
23.0720844
21
-3.68105
0
LINE
8
layer1
10
23.0720844
20
-3.68105
11
23.0292162
21
-3.6566148
0
LINE
8
layer1
10
23.0292162
20
-3.6566148
11
22.9728548
21
-3.6402897
0
LINE
8
layer1
10
22.9728548
20
-3.6402897
11
22.8539278
21
-3.6282554
0
LINE
8
layer1
10
22.8539278
20
-3.6282554
11
22.6352452
21
-3.5964687
0
LINE
8
layer1
10
22.6352452
20
-3.5964687
11
22.4188791
21
-3.5515446
0
LINE
8
layer1
10
22.4188791
20
-3.5515446
11
22.3030082
21
-3.5221777
0
LINE
8
layer1
10
22.3030082
20
-3.5221777
11
22.2444623
21
-3.5182415
0
LINE
8
layer1
10
22.2444623
20
-3.5182415
11
22.1958221
21
-3.5265413
0
LINE
8
layer1
10
22.1958221
20
-3.5265413
11
22.1464309
21
-3.5451473
0
LINE
8
layer1
10
22.1464309
20
-3.5451473
11
22.0970607
21
-3.5741143
0
LINE
8
layer1
10
22.0970607
20
-3.5741143
11
22.0485008
21
-3.6134597
0
LINE
8
layer1
10
22.0485008
20
-3.6134597
11
22.0015173
21
-3.6631561
0
LINE
8
layer1
10
22.0015173
20
-3.6631561
11
21.9569167
21
-3.7231223
0
LINE
8
layer1
10
21.9569167
20
-3.7231223
11
21.9154531
21
-3.7932273
0
LINE
8
layer1
10
21.9154531
20
-3.7932273
11
21.8779157
21
-3.8733157
0
LINE
8
layer1
10
21.8779157
20
-3.8733157
11
21.8450462
21
-3.9631528
0
LINE
8
layer1
10
21.8450462
20
-3.9631528
11
21.8176136
21
-4.062468
0
LINE
8
layer1
10
21.8176136
20
-4.062468
11
21.796329
21
-4.1709704
0
LINE
8
layer1
10
21.796329
20
-4.1709704
11
21.782522
21
-4.2685655
0
LINE
8
layer1
10
21.782522
20
-4.2685655
11
21.7588925
21
-4.3105501
0
LINE
8
layer1
10
21.7588925
20
-4.3105501
11
21.7069485
21
-4.3888395
0
LINE
8
layer1
10
21.7069485
20
-4.3888395
11
21.6296514
21
-4.486582
0
LINE
8
layer1
10
21.6296514
20
-4.486582
11
21.5223601
21
-4.6011313
0
LINE
8
layer1
10
21.5223601
20
-4.6011313
11
21.4568331
21
-4.6629315
0
LINE
8
layer1
10
21.4568331
20
-4.6629315
11
21.3831715
21
-4.7268108
0
LINE
8
layer1
10
21.3831715
20
-4.7268108
11
21.3012205
21
-4.7920919
0
LINE
8
layer1
10
21.3012205
20
-4.7920919
11
21.2089812
21
-4.8594582
0
LINE
8
layer1
10
21.2089812
20
-4.8594582
11
21.1081569
21
-4.9267932
0
LINE
8
layer1
10
21.1081569
20
-4.9267932
11
20.9987156
21
-4.9934719
0
LINE
8
layer1
10
20.9987156
20
-4.9934719
11
20.8783536
21
-5.0600629
0
LINE
8
layer1
10
20.8783536
20
-5.0600629
11
20.7480856
21
-5.1251307
0
LINE
8
layer1
10
20.7480856
20
-5.1251307
11
20.6238229
21
-5.1809233
0
ARC
8
layer1
10
23.269422
20
0.0000386
40
5.81735
50
237.050609
51
242.9493895
0
LINE
8
layer1
10
20.1053768
20
-4.8815983
11
20.0915633
21
-4.7460873
0
ENDSEC
0
EOF