0
SECTION
2
HEADER
0
ENDSEC
0
SECTION
2
TABLES
0
TABLE
2
LTYPE
0
LTYPE
72
65
70
64
2
CONTINUOUS
3
______
73
0
40
0
0
ENDTAB
0
TABLE
2
LAYER
0
ENDTAB
0
ENDSEC
0
SECTION
2
ENTITIES
0
CIRCLE
8
0
10
0
20
0
40
3.5
0
CIRCLE
8
0
10
0
20
0
40
3.5
0
LINE
8
layer0
10
5.2098951
20
1.4578457
11
5.1320181
21
1.3822118
0
LINE
8
layer0
10
5.1320181
20
1.3822118
11
5.0569993
21
1.3152519
0
LINE
8
layer0
10
5.0569993
20
1.3152519
11
4.9867298
21
1.2576198
0
LINE
8
layer0
10
4.9867298
20
1.2576198
11
4.9200585
21
1.2074423
0
LINE
8
layer0
10
4.9200585
20
1.2074423
11
4.8576555
21
1.1644511
0
LINE
8
layer0
10
4.8576555
20
1.1644511
11
4.8023766
21
1.1296653
0
LINE
8
layer0
10
4.8023766
20
1.1296653
11
4.7500499
21
1.0997007
0
LINE
8
layer0
10
4.7500499
20
1.0997007
11
4.7052535
21
1.0765276
0
LINE
8
layer0
10
4.7052535
20
1.0765276
11
4.6677086
21
1.0590289
0
LINE
8
layer0
10
4.6677086
20
1.0590289
11
4.6119173
21
1.0369393
0
LINE
8
layer0
10
4.6119173
20
1.0369393
11
4.5666242
21
1.0239337
0
LINE
8
layer0
10
4.5666242
20
1.0239337
11
4.5087846
21
1.005124
0
LINE
8
layer0
10
4.5087846
20
1.005124
11
4.4605457
21
0.983613
0
LINE
8
layer0
10
4.4605457
20
0.983613
11
4.4400635
21
0.9721072
0
LINE
8
layer0
10
4.4400635
20
0.9721072
11
4.4220227
21
0.9602085
0
LINE
8
layer0
10
4.4220227
20
0.9602085
11
4.4064261
21
0.9480287
0
LINE
8
layer0
10
4.4064261
20
0.9480287
11
4.3932692
21
0.9356582
0
LINE
8
layer0
10
4.3932692
20
0.9356582
11
4.3825647
21
0.9232104
0
LINE
8
layer0
10
4.3825647
20
0.9232104
11
4.3743098
21
0.9107659
0
LINE
8
layer0
10
4.3743098
20
0.9107659
11
4.368489
21
0.8984233
0
LINE
8
layer0
10
4.368489
20
0.8984233
11
4.3650964
21
0.8862831
0
LINE
8
layer0
10
4.3650964
20
0.8862831
11
4.3641278
21
0.8744357
0
LINE
8
layer0
10
4.3641278
20
0.8744357
11
4.3690557
21
0.844984
0
LINE
8
layer0
10
4.3690557
20
0.844984
11
4.3952131
21
0.6961334
0
LINE
8
layer0
10
4.3952131
20
0.6961334
11
4.4163333
21
0.5464849
0
LINE
8
layer0
10
4.4163333
20
0.5464849
11
4.4207477
21
0.5169518
0
LINE
8
layer0
10
4.4207477
20
0.5169518
11
4.4253299
21
0.5059836
0
LINE
8
layer0
10
4.4253299
20
0.5059836
11
4.432308
21
0.495486
0
LINE
8
layer0
10
4.432308
20
0.495486
11
4.441658
21
0.4855463
0
LINE
8
layer0
10
4.441658
20
0.4855463
11
4.4533544
21
0.4762617
0
LINE
8
layer0
10
4.4533544
20
0.4762617
11
4.4673816
21
0.467731
0
LINE
8
layer0
10
4.4673816
20
0.467731
11
4.4837172
21
0.4600317
0
LINE
8
layer0
10
4.4837172
20
0.4600317
11
4.5023143
21
0.4532676
0
LINE
8
layer0
10
4.5023143
20
0.4532676
11
4.523149
21
0.4475262
0
LINE
8
layer0
10
4.523149
20
0.4475262
11
4.5461842
21
0.4429129
0
LINE
8
layer0
10
4.5461842
20
0.4429129
11
4.5987094
21
0.4373613
0
LINE
8
layer0
10
4.5987094
20
0.4373613
11
4.6595306
21
0.4373456
0
LINE
8
layer0
10
4.6595306
20
0.4373456
11
4.7066259
21
0.438973
0
LINE
8
layer0
10
4.7066259
20
0.438973
11
4.7665126
21
0.4352049
0
LINE
8
layer0
10
4.7665126
20
0.4352049
11
4.8076273
21
0.4301646
0
LINE
8
layer0
10
4.8076273
20
0.4301646
11
4.8573921
21
0.4219687
0
LINE
8
layer0
10
4.8573921
20
0.4219687
11
4.9164174
21
0.4096405
0
LINE
8
layer0
10
4.9164174
20
0.4096405
11
4.9797401
21
0.3936393
0
LINE
8
layer0
10
4.9797401
20
0.3936393
11
5.0523739
21
0.3720358
0
LINE
8
layer0
10
5.0523739
20
0.3720358
11
5.1312878
21
0.3449168
0
LINE
8
layer0
10
5.1312878
20
0.3449168
11
5.2159274
21
0.3118198
0
LINE
8
layer0
10
5.2159274
20
0.3118198
11
5.3079662
21
0.2713192
0
LINE
8
layer0
10
5.3079662
20
0.2713192
11
5.4054038
21
0.2234525
0
LINE
8
layer0
10
5.4054038
20
0.2234525
11
5.4972511
21
0.1736251
0
ARC
8
layer0
10
-0.0000077
20
0
40
5.5
50
358.1909759
51
361.8090252
0
LINE
8
layer0
10
5.4972511
20
-0.1736251
11
5.4054038
21
-0.2234525
0
LINE
8
layer0
10
5.4054038
20
-0.2234525
11
5.3079662
21
-0.2713192
0
LINE
8
layer0
10
5.3079662
20
-0.2713192
11
5.2159274
21
-0.3118198
0
LINE
8
layer0
10
5.2159274
20
-0.3118198
11
5.1312878
21
-0.3449168
0
LINE
8
layer0
10
5.1312878
20
-0.3449168
11
5.0523739
21
-0.3720358
0
LINE
8
layer0
10
5.0523739
20
-0.3720358
11
4.9797401
21
-0.3936393
0
LINE
8
layer0
10
4.9797401
20
-0.3936393
11
4.9164174
21
-0.4096405
0
LINE
8
layer0
10
4.9164174
20
-0.4096405
11
4.8573921
21
-0.4219687
0
LINE
8
layer0
10
4.8573921
20
-0.4219687
11
4.8076273
21
-0.4301646
0
LINE
8
layer0
10
4.8076273
20
-0.4301646
11
4.7665126
21
-0.4352049
0
LINE
8
layer0
10
4.7665126
20
-0.4352049
11
4.7066259
21
-0.438973
0
LINE
8
layer0
10
4.7066259
20
-0.438973
11
4.6595306
21
-0.4373456
0
LINE
8
layer0
10
4.6595306
20
-0.4373456
11
4.5987094
21
-0.4373613
0
LINE
8
layer0
10
4.5987094
20
-0.4373613
11
4.5461842
21
-0.4429129
0
LINE
8
layer0
10
4.5461842
20
-0.4429129
11
4.523149
21
-0.4475262
0
LINE
8
layer0
10
4.523149
20
-0.4475262
11
4.5023143
21
-0.4532676
0
LINE
8
layer0
10
4.5023143
20
-0.4532676
11
4.4837172
21
-0.4600317
0
LINE
8
layer0
10
4.4837172
20
-0.4600317
11
4.4673816
21
-0.467731
0
LINE
8
layer0
10
4.4673816
20
-0.467731
11
4.4533544
21
-0.4762617
0
LINE
8
layer0
10
4.4533544
20
-0.4762617
11
4.441658
21
-0.4855463
0
LINE
8
layer0
10
4.441658
20
-0.4855463
11
4.432308
21
-0.495486
0
LINE
8
layer0
10
4.432308
20
-0.495486
11
4.4253299
21
-0.5059836
0
LINE
8
layer0
10
4.4253299
20
-0.5059836
11
4.4207477
21
-0.5169518
0
LINE
8
layer0
10
4.4207477
20
-0.5169518
11
4.4163333
21
-0.5464849
0
LINE
8
layer0
10
4.4163333
20
-0.5464849
11
4.3952131
21
-0.6961334
0
LINE
8
layer0
10
4.3952131
20
-0.6961334
11
4.3690557
21
-0.844984
0
LINE
8
layer0
10
4.3690557
20
-0.844984
11
4.3641278
21
-0.8744357
0
LINE
8
layer0
10
4.3641278
20
-0.8744357
11
4.3650964
21
-0.8862831
0
LINE
8
layer0
10
4.3650964
20
-0.8862831
11
4.368489
21
-0.8984233
0
LINE
8
layer0
10
4.368489
20
-0.8984233
11
4.3743098
21
-0.9107659
0
LINE
8
layer0
10
4.3743098
20
-0.9107659
11
4.3825647
21
-0.9232104
0
LINE
8
layer0
10
4.3825647
20
-0.9232104
11
4.3932692
21
-0.9356582
0
LINE
8
layer0
10
4.3932692
20
-0.9356582
11
4.4064261
21
-0.9480287
0
LINE
8
layer0
10
4.4064261
20
-0.9480287
11
4.4220227
21
-0.9602085
0
LINE
8
layer0
10
4.4220227
20
-0.9602085
11
4.4400635
21
-0.9721072
0
LINE
8
layer0
10
4.4400635
20
-0.9721072
11
4.4605457
21
-0.983613
0
LINE
8
layer0
10
4.4605457
20
-0.983613
11
4.5087846
21
-1.005124
0
LINE
8
layer0
10
4.5087846
20
-1.005124
11
4.5666242
21
-1.0239337
0
LINE
8
layer0
10
4.5666242
20
-1.0239337
11
4.6119173
21
-1.0369393
0
LINE
8
layer0
10
4.6119173
20
-1.0369393
11
4.6677086
21
-1.0590289
0
LINE
8
layer0
10
4.6677086
20
-1.0590289
11
4.7052535
21
-1.0765276
0
LINE
8
layer0
10
4.7052535
20
-1.0765276
11
4.7500499
21
-1.0997007
0
LINE
8
layer0
10
4.7500499
20
-1.0997007
11
4.8023766
21
-1.1296653
0
LINE
8
layer0
10
4.8023766
20
-1.1296653
11
4.8576555
21
-1.1644511
0
LINE
8
layer0
10
4.8576555
20
-1.1644511
11
4.9200585
21
-1.2074423
0
LINE
8
layer0
10
4.9200585
20
-1.2074423
11
4.9867298
21
-1.2576198
0
LINE
8
layer0
10
4.9867298
20
-1.2576198
11
5.0569993
21
-1.3152519
0
LINE
8
layer0
10
5.0569993
20
-1.3152519
11
5.1320181
21
-1.3822118
0
LINE
8
layer0
10
5.1320181
20
-1.3822118
11
5.2098951
21
-1.4578457
0
LINE
8
layer0
10
5.2098951
20
-1.4578457
11
5.2818496
21
-1.5336168
0
ARC
8
layer0
10
-0.0000073
20
0.0000025
40
5.5
50
340.1909736
51
343.8090232
0
LINE
8
layer0
10
5.1745434
20
-1.8638713
11
5.0717939
21
-1.8828776
0
LINE
8
layer0
10
5.0717939
20
-1.8828776
11
4.9643336
21
-1.8982917
0
LINE
8
layer0
10
4.9643336
20
-1.8982917
11
4.8642841
21
-1.9083685
0
LINE
8
layer0
10
4.8642841
20
-1.9083685
11
4.7735596
21
-1.9136905
0
LINE
8
layer0
10
4.7735596
20
-1.9136905
11
4.6901277
21
-1.9150965
0
LINE
8
layer0
10
4.6901277
20
-1.9150965
11
4.614373
21
-1.9131976
0
LINE
8
layer0
10
4.614373
20
-1.9131976
11
4.5492049
21
-1.9088478
0
LINE
8
layer0
10
4.5492049
20
-1.9088478
11
4.4892589
21
-1.9023328
0
LINE
8
layer0
10
4.4892589
20
-1.9023328
11
4.4393971
21
-1.8947494
0
LINE
8
layer0
10
4.4393971
20
-1.8947494
11
4.3987372
21
-1.8868379
0
LINE
8
layer0
10
4.3987372
20
-1.8868379
11
4.3406171
21
-1.8719155
0
LINE
8
layer0
10
4.3406171
20
-1.8719155
11
4.2963297
21
-1.8558146
0
LINE
8
layer0
10
4.2963297
20
-1.8558146
11
4.2384804
21
-1.8370346
0
LINE
8
layer0
10
4.2384804
20
-1.8370346
11
4.1868105
21
-1.8260834
0
LINE
8
layer0
10
4.1868105
20
-1.8260834
11
4.1634771
21
-1.8233526
0
LINE
8
layer0
10
4.1634771
20
-1.8233526
11
4.1418879
21
-1.8223747
0
LINE
8
layer0
10
4.1418879
20
-1.8223747
11
4.1221109
21
-1.8230609
0
LINE
8
layer0
10
4.1221109
20
-1.8230609
11
4.1041956
21
-1.8253355
0
LINE
8
layer0
10
4.1041956
20
-1.8253355
11
4.0882188
21
-1.829114
0
LINE
8
layer0
10
4.0882188
20
-1.829114
11
4.0742257
21
-1.8343298
0
LINE
8
layer0
10
4.0742257
20
-1.8343298
11
4.0622618
21
-1.8408937
0
LINE
8
layer0
10
4.0622618
20
-1.8408937
11
4.0523813
21
-1.8487211
0
LINE
8
layer0
10
4.0523813
20
-1.8487211
11
4.044634
21
-1.8577366
0
LINE
8
layer0
10
4.044634
20
-1.8577366
11
4.0313095
21
-1.8844601
0
LINE
8
layer0
10
4.0313095
20
-1.8844601
11
3.964979
21
-2.0202577
0
LINE
8
layer0
10
3.964979
20
-2.0202577
11
3.8941045
21
-2.15374
0
LINE
8
layer0
10
3.8941045
20
-2.15374
11
3.8803166
21
-2.1802275
0
LINE
8
layer0
10
3.8803166
20
-2.1802275
11
3.8775768
21
-2.1917943
0
LINE
8
layer0
10
3.8775768
20
-2.1917943
11
3.8770518
21
-2.2043887
0
LINE
8
layer0
10
3.8770518
20
-2.2043887
11
3.8787738
21
-2.2179259
0
LINE
8
layer0
10
3.8787738
20
-2.2179259
11
3.882779
21
-2.2323123
0
LINE
8
layer0
10
3.882779
20
-2.2323123
11
3.889113
21
-2.2474587
0
LINE
8
layer0
10
3.889113
20
-2.2474587
11
3.8978032
21
-2.2632894
0
LINE
8
layer0
10
3.8978032
20
-2.2632894
11
3.9088728
21
-2.2796927
0
LINE
8
layer0
10
3.9088728
20
-2.2796927
11
3.9223537
21
-2.296584
0
LINE
8
layer0
10
3.9223537
20
-2.296584
11
3.938278
21
-2.313856
0
LINE
8
layer0
10
3.938278
20
-2.313856
11
3.9775085
21
-2.3492208
0
LINE
8
layer0
10
3.9775085
20
-2.3492208
11
4.0267048
21
-2.3849833
0
LINE
8
layer0
10
4.0267048
20
-2.3849833
11
4.0657622
21
-2.4113487
0
LINE
8
layer0
10
4.0657622
20
-2.4113487
11
4.1119968
21
-2.4495976
0
LINE
8
layer0
10
4.1119968
20
-2.4495976
11
4.1422966
21
-2.4778419
0
LINE
8
layer0
10
4.1422966
20
-2.4778419
11
4.1777397
21
-2.5137236
0
LINE
8
layer0
10
4.1777397
20
-2.5137236
11
4.2182458
21
-2.5583915
0
LINE
8
layer0
10
4.2182458
20
-2.5583915
11
4.2600698
21
-2.6085569
0
LINE
8
layer0
10
4.2600698
20
-2.6085569
11
4.3061335
21
-2.6687276
0
LINE
8
layer0
10
4.3061335
20
-2.6687276
11
4.354036
21
-2.7370518
0
LINE
8
layer0
10
4.354036
20
-2.7370518
11
4.403057
21
-2.8135776
0
LINE
8
layer0
10
4.403057
20
-2.8135776
11
4.4537123
21
-2.9004424
0
LINE
8
layer0
10
4.4537123
20
-2.9004424
11
4.5044056
21
-2.9964398
0
LINE
8
layer0
10
4.5044056
20
-2.9964398
11
4.5494238
21
-3.0907375
0
ARC
8
layer0
10
-0.000006
20
0.0000049
40
5.5
50
322.190971
51
325.8090201
0
LINE
8
layer0
10
4.3453153
20
-3.3716687
11
4.2417214
21
-3.3579935
0
LINE
8
layer0
10
4.2417214
20
-3.3579935
11
4.1347574
21
-3.3394461
0
LINE
8
layer0
10
4.1347574
20
-3.3394461
11
4.0364908
21
-3.3181127
0
LINE
8
layer0
10
4.0364908
20
-3.3181127
11
3.948562
21
-3.2951388
0
LINE
8
layer0
10
3.948562
20
-3.2951388
11
3.8687792
21
-3.2706941
0
LINE
8
layer0
10
3.8687792
20
-3.2706941
11
3.797319
21
-3.2454787
0
LINE
8
layer0
10
3.797319
20
-3.2454787
11
3.7366846
21
-3.2212037
0
LINE
8
layer0
10
3.7366846
20
-3.2212037
11
3.6816858
21
-3.1964833
0
LINE
8
layer0
10
3.6816858
20
-3.1964833
11
3.6366077
21
-3.1738629
0
LINE
8
layer0
10
3.6366077
20
-3.1738629
11
3.6003827
21
-3.153774
0
LINE
8
layer0
10
3.6003827
20
-3.153774
11
3.5497185
21
-3.1216219
0
LINE
8
layer0
10
3.5497185
20
-3.1216219
11
3.5125741
21
-3.0926234
0
LINE
8
layer0
10
3.5125741
20
-3.0926234
11
3.4633595
21
-3.0568863
0
LINE
8
layer0
10
3.4633595
20
-3.0568863
11
3.4176026
21
-3.0305041
0
LINE
8
layer0
10
3.4176026
20
-3.0305041
11
3.3962551
21
-3.0206965
0
LINE
8
layer0
10
3.3962551
20
-3.0206965
11
3.3760248
21
-3.0130951
0
LINE
8
layer0
10
3.3760248
20
-3.0130951
11
3.3570036
21
-3.0076363
0
LINE
8
layer0
10
3.3570036
20
-3.0076363
11
3.3392623
21
-3.0042634
0
LINE
8
layer0
10
3.3392623
20
-3.0042634
11
3.3228998
21
-3.0029199
0
LINE
8
layer0
10
3.3228998
20
-3.0029199
11
3.3079799
21
-3.0035563
0
LINE
8
layer0
10
3.3079799
20
-3.0035563
11
3.2945731
21
-3.0061018
0
LINE
8
layer0
10
3.2945731
20
-3.0061018
11
3.2827574
21
-3.010493
0
LINE
8
layer0
10
3.2827574
20
-3.010493
11
3.2726033
21
-3.0166731
0
LINE
8
layer0
10
3.2726033
20
-3.0166731
11
3.251673
21
-3.0379711
0
LINE
8
layer0
10
3.251673
20
-3.0379711
11
3.1466252
21
-3.1466252
0
LINE
8
layer0
10
3.1466252
20
-3.1466252
11
3.0379711
21
-3.251673
0
LINE
8
layer0
10
3.0379711
20
-3.251673
11
3.0166731
21
-3.2726033
0
LINE
8
layer0
10
3.0166731
20
-3.2726033
11
3.010493
21
-3.2827574
0
LINE
8
layer0
10
3.010493
20
-3.2827574
11
3.0061018
21
-3.2945731
0
LINE
8
layer0
10
3.0061018
20
-3.2945731
11
3.0035563
21
-3.3079799
0
LINE
8
layer0
10
3.0035563
20
-3.3079799
11
3.0029199
21
-3.3228998
0
LINE
8
layer0
10
3.0029199
20
-3.3228998
11
3.0042634
21
-3.3392623
0
LINE
8
layer0
10
3.0042634
20
-3.3392623
11
3.0076363
21
-3.3570036
0
LINE
8
layer0
10
3.0076363
20
-3.3570036
11
3.0130951
21
-3.3760248
0
LINE
8
layer0
10
3.0130951
20
-3.3760248
11
3.0206965
21
-3.3962551
0
LINE
8
layer0
10
3.0206965
20
-3.3962551
11
3.0305041
21
-3.4176026
0
LINE
8
layer0
10
3.0305041
20
-3.4176026
11
3.0568863
21
-3.4633595
0
LINE
8
layer0
10
3.0568863
20
-3.4633595
11
3.0926234
21
-3.5125741
0
LINE
8
layer0
10
3.0926234
20
-3.5125741
11
3.1216219
21
-3.5497185
0
LINE
8
layer0
10
3.1216219
20
-3.5497185
11
3.153774
21
-3.6003827
0
LINE
8
layer0
10
3.153774
20
-3.6003827
11
3.1738629
21
-3.6366077
0
LINE
8
layer0
10
3.1738629
20
-3.6366077
11
3.1964833
21
-3.6816858
0
LINE
8
layer0
10
3.1964833
20
-3.6816858
11
3.2212037
21
-3.7366846
0
LINE
8
layer0
10
3.2212037
20
-3.7366846
11
3.2454787
21
-3.797319
0
LINE
8
layer0
10
3.2454787
20
-3.797319
11
3.2706941
21
-3.8687792
0
LINE
8
layer0
10
3.2706941
20
-3.8687792
11
3.2951388
21
-3.948562
0
LINE
8
layer0
10
3.2951388
20
-3.948562
11
3.3181127
21
-4.0364908
0
LINE
8
layer0
10
3.3181127
20
-4.0364908
11
3.3394461
21
-4.1347574
0
LINE
8
layer0
10
3.3394461
20
-4.1347574
11
3.3579935
21
-4.2417214
0
LINE
8
layer0
10
3.3579935
20
-4.2417214
11
3.3716687
21
-4.3453153
0
ARC
8
layer0
10
-0.0000049
20
0.000006
40
5.5
50
304.1909799
51
307.809029
0
LINE
8
layer0
10
3.0907375
20
-4.5494238
11
2.9964398
21
-4.5044056
0
LINE
8
layer0
10
2.9964398
20
-4.5044056
11
2.9004424
21
-4.4537123
0
LINE
8
layer0
10
2.9004424
20
-4.4537123
11
2.8135776
21
-4.403057
0
LINE
8
layer0
10
2.8135776
20
-4.403057
11
2.7370518
21
-4.354036
0
LINE
8
layer0
10
2.7370518
20
-4.354036
11
2.6687276
21
-4.3061335
0
LINE
8
layer0
10
2.6687276
20
-4.3061335
11
2.6085569
21
-4.2600698
0
LINE
8
layer0
10
2.6085569
20
-4.2600698
11
2.5583915
21
-4.2182458
0
LINE
8
layer0
10
2.5583915
20
-4.2182458
11
2.5137236
21
-4.1777397
0
LINE
8
layer0
10
2.5137236
20
-4.1777397
11
2.4778419
21
-4.1422966
0
LINE
8
layer0
10
2.4778419
20
-4.1422966
11
2.4495976
21
-4.1119968
0
LINE
8
layer0
10
2.4495976
20
-4.1119968
11
2.4113487
21
-4.0657622
0
LINE
8
layer0
10
2.4113487
20
-4.0657622
11
2.3849833
21
-4.0267048
0
LINE
8
layer0
10
2.3849833
20
-4.0267048
11
2.3492208
21
-3.9775085
0
LINE
8
layer0
10
2.3492208
20
-3.9775085
11
2.313856
21
-3.938278
0
LINE
8
layer0
10
2.313856
20
-3.938278
11
2.296584
21
-3.9223537
0
LINE
8
layer0
10
2.296584
20
-3.9223537
11
2.2796927
21
-3.9088728
0
LINE
8
layer0
10
2.2796927
20
-3.9088728
11
2.2632894
21
-3.8978032
0
LINE
8
layer0
10
2.2632894
20
-3.8978032
11
2.2474587
21
-3.889113
0
LINE
8
layer0
10
2.2474587
20
-3.889113
11
2.2323123
21
-3.882779
0
LINE
8
layer0
10
2.2323123
20
-3.882779
11
2.2179259
21
-3.8787738
0
LINE
8
layer0
10
2.2179259
20
-3.8787738
11
2.2043887
21
-3.8770518
0
LINE
8
layer0
10
2.2043887
20
-3.8770518
11
2.1917943
21
-3.8775768
0
LINE
8
layer0
10
2.1917943
20
-3.8775768
11
2.1802275
21
-3.8803166
0
LINE
8
layer0
10
2.1802275
20
-3.8803166
11
2.15374
21
-3.8941045
0
LINE
8
layer0
10
2.15374
20
-3.8941045
11
2.0202577
21
-3.964979
0
LINE
8
layer0
10
2.0202577
20
-3.964979
11
1.8844601
21
-4.0313095
0
LINE
8
layer0
10
1.8844601
20
-4.0313095
11
1.8577366
21
-4.044634
0
LINE
8
layer0
10
1.8577366
20
-4.044634
11
1.8487211
21
-4.0523813
0
LINE
8
layer0
10
1.8487211
20
-4.0523813
11
1.8408937
21
-4.0622618
0
LINE
8
layer0
10
1.8408937
20
-4.0622618
11
1.8343298
21
-4.0742257
0
LINE
8
layer0
10
1.8343298
20
-4.0742257
11
1.829114
21
-4.0882188
0
LINE
8
layer0
10
1.829114
20
-4.0882188
11
1.8253355
21
-4.1041956
0
LINE
8
layer0
10
1.8253355
20
-4.1041956
11
1.8230609
21
-4.1221109
0
LINE
8
layer0
10
1.8230609
20
-4.1221109
11
1.8223747
21
-4.1418879
0
LINE
8
layer0
10
1.8223747
20
-4.1418879
11
1.8233526
21
-4.1634771
0
LINE
8
layer0
10
1.8233526
20
-4.1634771
11
1.8260834
21
-4.1868105
0
LINE
8
layer0
10
1.8260834
20
-4.1868105
11
1.8370346
21
-4.2384804
0
LINE
8
layer0
10
1.8370346
20
-4.2384804
11
1.8558146
21
-4.2963297
0
LINE
8
layer0
10
1.8558146
20
-4.2963297
11
1.8719155
21
-4.3406171
0
LINE
8
layer0
10
1.8719155
20
-4.3406171
11
1.8868379
21
-4.3987372
0
LINE
8
layer0
10
1.8868379
20
-4.3987372
11
1.8947494
21
-4.4393971
0
LINE
8
layer0
10
1.8947494
20
-4.4393971
11
1.9023328
21
-4.4892589
0
LINE
8
layer0
10
1.9023328
20
-4.4892589
11
1.9088478
21
-4.5492049
0
LINE
8
layer0
10
1.9088478
20
-4.5492049
11
1.9131976
21
-4.614373
0
LINE
8
layer0
10
1.9131976
20
-4.614373
11
1.9150965
21
-4.6901277
0
LINE
8
layer0
10
1.9150965
20
-4.6901277
11
1.9136905
21
-4.7735596
0
LINE
8
layer0
10
1.9136905
20
-4.7735596
11
1.9083685
21
-4.8642841
0
LINE
8
layer0
10
1.9083685
20
-4.8642841
11
1.8982917
21
-4.9643336
0
LINE
8
layer0
10
1.8982917
20
-4.9643336
11
1.8828776
21
-5.0717939
0
LINE
8
layer0
10
1.8828776
20
-5.0717939
11
1.8638713
21
-5.1745434
0
ARC
8
layer0
10
-0.0000024
20
0.0000073
40
5.5
50
286.1909758
51
289.8090254
0
LINE
8
layer0
10
1.5336168
20
-5.2818496
11
1.4578457
21
-5.2098951
0
LINE
8
layer0
10
1.4578457
20
-5.2098951
11
1.3822118
21
-5.1320181
0
LINE
8
layer0
10
1.3822118
20
-5.1320181
11
1.3152519
21
-5.0569993
0
LINE
8
layer0
10
1.3152519
20
-5.0569993
11
1.2576198
21
-4.9867298
0
LINE
8
layer0
10
1.2576198
20
-4.9867298
11
1.2074423
21
-4.9200585
0
LINE
8
layer0
10
1.2074423
20
-4.9200585
11
1.1644511
21
-4.8576555
0
LINE
8
layer0
10
1.1644511
20
-4.8576555
11
1.1296653
21
-4.8023766
0
LINE
8
layer0
10
1.1296653
20
-4.8023766
11
1.0997007
21
-4.7500499
0
LINE
8
layer0
10
1.0997007
20
-4.7500499
11
1.0765276
21
-4.7052535
0
LINE
8
layer0
10
1.0765276
20
-4.7052535
11
1.0590289
21
-4.6677086
0
LINE
8
layer0
10
1.0590289
20
-4.6677086
11
1.0369393
21
-4.6119173
0
LINE
8
layer0
10
1.0369393
20
-4.6119173
11
1.0239337
21
-4.5666242
0
LINE
8
layer0
10
1.0239337
20
-4.5666242
11
1.005124
21
-4.5087846
0
LINE
8
layer0
10
1.005124
20
-4.5087846
11
0.983613
21
-4.4605457
0
LINE
8
layer0
10
0.983613
20
-4.4605457
11
0.9721072
21
-4.4400635
0
LINE
8
layer0
10
0.9721072
20
-4.4400635
11
0.9602085
21
-4.4220227
0
LINE
8
layer0
10
0.9602085
20
-4.4220227
11
0.9480287
21
-4.4064261
0
LINE
8
layer0
10
0.9480287
20
-4.4064261
11
0.9356582
21
-4.3932692
0
LINE
8
layer0
10
0.9356582
20
-4.3932692
11
0.9232104
21
-4.3825647
0
LINE
8
layer0
10
0.9232104
20
-4.3825647
11
0.9107659
21
-4.3743098
0
LINE
8
layer0
10
0.9107659
20
-4.3743098
11
0.8984233
21
-4.368489
0
LINE
8
layer0
10
0.8984233
20
-4.368489
11
0.8862831
21
-4.3650964
0
LINE
8
layer0
10
0.8862831
20
-4.3650964
11
0.8744357
21
-4.3641278
0
LINE
8
layer0
10
0.8744357
20
-4.3641278
11
0.844984
21
-4.3690557
0
LINE
8
layer0
10
0.844984
20
-4.3690557
11
0.6961334
21
-4.3952131
0
LINE
8
layer0
10
0.6961334
20
-4.3952131
11
0.5464849
21
-4.4163333
0
LINE
8
layer0
10
0.5464849
20
-4.4163333
11
0.5169518
21
-4.4207477
0
LINE
8
layer0
10
0.5169518
20
-4.4207477
11
0.5059836
21
-4.4253299
0
LINE
8
layer0
10
0.5059836
20
-4.4253299
11
0.495486
21
-4.432308
0
LINE
8
layer0
10
0.495486
20
-4.432308
11
0.4855463
21
-4.441658
0
LINE
8
layer0
10
0.4855463
20
-4.441658
11
0.4762617
21
-4.4533544
0
LINE
8
layer0
10
0.4762617
20
-4.4533544
11
0.467731
21
-4.4673816
0
LINE
8
layer0
10
0.467731
20
-4.4673816
11
0.4600317
21
-4.4837172
0
LINE
8
layer0
10
0.4600317
20
-4.4837172
11
0.4532676
21
-4.5023143
0
LINE
8
layer0
10
0.4532676
20
-4.5023143
11
0.4475262
21
-4.523149
0
LINE
8
layer0
10
0.4475262
20
-4.523149
11
0.4429129
21
-4.5461842
0
LINE
8
layer0
10
0.4429129
20
-4.5461842
11
0.4373613
21
-4.5987094
0
LINE
8
layer0
10
0.4373613
20
-4.5987094
11
0.4373456
21
-4.6595306
0
LINE
8
layer0
10
0.4373456
20
-4.6595306
11
0.438973
21
-4.7066259
0
LINE
8
layer0
10
0.438973
20
-4.7066259
11
0.4352049
21
-4.7665126
0
LINE
8
layer0
10
0.4352049
20
-4.7665126
11
0.4301646
21
-4.8076273
0
LINE
8
layer0
10
0.4301646
20
-4.8076273
11
0.4219687
21
-4.8573921
0
LINE
8
layer0
10
0.4219687
20
-4.8573921
11
0.4096405
21
-4.9164174
0
LINE
8
layer0
10
0.4096405
20
-4.9164174
11
0.3936393
21
-4.9797401
0
LINE
8
layer0
10
0.3936393
20
-4.9797401
11
0.3720358
21
-5.0523739
0
LINE
8
layer0
10
0.3720358
20
-5.0523739
11
0.3449168
21
-5.1312878
0
LINE
8
layer0
10
0.3449168
20
-5.1312878
11
0.3118198
21
-5.2159274
0
LINE
8
layer0
10
0.3118198
20
-5.2159274
11
0.2713192
21
-5.3079662
0
LINE
8
layer0
10
0.2713192
20
-5.3079662
11
0.2234525
21
-5.4054038
0
LINE
8
layer0
10
0.2234525
20
-5.4054038
11
0.1736251
21
-5.4972511
0
ARC
8
layer0
10
1e-7
20
0.0000077
40
5.5
50
268.1909748
51
271.8090241
0
LINE
8
layer0
10
-0.1736251
20
-5.4972511
11
-0.2234525
21
-5.4054038
0
LINE
8
layer0
10
-0.2234525
20
-5.4054038
11
-0.2713192
21
-5.3079662
0
LINE
8
layer0
10
-0.2713192
20
-5.3079662
11
-0.3118198
21
-5.2159274
0
LINE
8
layer0
10
-0.3118198
20
-5.2159274
11
-0.3449168
21
-5.1312878
0
LINE
8
layer0
10
-0.3449168
20
-5.1312878
11
-0.3720358
21
-5.0523739
0
LINE
8
layer0
10
-0.3720358
20
-5.0523739
11
-0.3936393
21
-4.9797401
0
LINE
8
layer0
10
-0.3936393
20
-4.9797401
11
-0.4096405
21
-4.9164174
0
LINE
8
layer0
10
-0.4096405
20
-4.9164174
11
-0.4219687
21
-4.8573921
0
LINE
8
layer0
10
-0.4219687
20
-4.8573921
11
-0.4301646
21
-4.8076273
0
LINE
8
layer0
10
-0.4301646
20
-4.8076273
11
-0.4352049
21
-4.7665126
0
LINE
8
layer0
10
-0.4352049
20
-4.7665126
11
-0.438973
21
-4.7066259
0
LINE
8
layer0
10
-0.438973
20
-4.7066259
11
-0.4373456
21
-4.6595306
0
LINE
8
layer0
10
-0.4373456
20
-4.6595306
11
-0.4373613
21
-4.5987094
0
LINE
8
layer0
10
-0.4373613
20
-4.5987094
11
-0.4429129
21
-4.5461842
0
LINE
8
layer0
10
-0.4429129
20
-4.5461842
11
-0.4475262
21
-4.523149
0
LINE
8
layer0
10
-0.4475262
20
-4.523149
11
-0.4532676
21
-4.5023143
0
LINE
8
layer0
10
-0.4532676
20
-4.5023143
11
-0.4600317
21
-4.4837172
0
LINE
8
layer0
10
-0.4600317
20
-4.4837172
11
-0.467731
21
-4.4673816
0
LINE
8
layer0
10
-0.467731
20
-4.4673816
11
-0.4762617
21
-4.4533544
0
LINE
8
layer0
10
-0.4762617
20
-4.4533544
11
-0.4855463
21
-4.441658
0
LINE
8
layer0
10
-0.4855463
20
-4.441658
11
-0.495486
21
-4.432308
0
LINE
8
layer0
10
-0.495486
20
-4.432308
11
-0.5059836
21
-4.4253299
0
LINE
8
layer0
10
-0.5059836
20
-4.4253299
11
-0.5169518
21
-4.4207477
0
LINE
8
layer0
10
-0.5169518
20
-4.4207477
11
-0.5464849
21
-4.4163333
0
LINE
8
layer0
10
-0.5464849
20
-4.4163333
11
-0.6961334
21
-4.3952131
0
LINE
8
layer0
10
-0.6961334
20
-4.3952131
11
-0.844984
21
-4.3690557
0
LINE
8
layer0
10
-0.844984
20
-4.3690557
11
-0.8744357
21
-4.3641278
0
LINE
8
layer0
10
-0.8744357
20
-4.3641278
11
-0.8862831
21
-4.3650964
0
LINE
8
layer0
10
-0.8862831
20
-4.3650964
11
-0.8984233
21
-4.368489
0
LINE
8
layer0
10
-0.8984233
20
-4.368489
11
-0.9107659
21
-4.3743098
0
LINE
8
layer0
10
-0.9107659
20
-4.3743098
11
-0.9232104
21
-4.3825647
0
LINE
8
layer0
10
-0.9232104
20
-4.3825647
11
-0.9356582
21
-4.3932692
0
LINE
8
layer0
10
-0.9356582
20
-4.3932692
11
-0.9480287
21
-4.4064261
0
LINE
8
layer0
10
-0.9480287
20
-4.4064261
11
-0.9602085
21
-4.4220227
0
LINE
8
layer0
10
-0.9602085
20
-4.4220227
11
-0.9721072
21
-4.4400635
0
LINE
8
layer0
10
-0.9721072
20
-4.4400635
11
-0.983613
21
-4.4605457
0
LINE
8
layer0
10
-0.983613
20
-4.4605457
11
-1.005124
21
-4.5087846
0
LINE
8
layer0
10
-1.005124
20
-4.5087846
11
-1.0239337
21
-4.5666242
0
LINE
8
layer0
10
-1.0239337
20
-4.5666242
11
-1.0369393
21
-4.6119173
0
LINE
8
layer0
10
-1.0369393
20
-4.6119173
11
-1.0590289
21
-4.6677086
0
LINE
8
layer0
10
-1.0590289
20
-4.6677086
11
-1.0765276
21
-4.7052535
0
LINE
8
layer0
10
-1.0765276
20
-4.7052535
11
-1.0997007
21
-4.7500499
0
LINE
8
layer0
10
-1.0997007
20
-4.7500499
11
-1.1296653
21
-4.8023766
0
LINE
8
layer0
10
-1.1296653
20
-4.8023766
11
-1.1644511
21
-4.8576555
0
LINE
8
layer0
10
-1.1644511
20
-4.8576555
11
-1.2074423
21
-4.9200585
0
LINE
8
layer0
10
-1.2074423
20
-4.9200585
11
-1.2576198
21
-4.9867298
0
LINE
8
layer0
10
-1.2576198
20
-4.9867298
11
-1.3152519
21
-5.0569993
0
LINE
8
layer0
10
-1.3152519
20
-5.0569993
11
-1.3822118
21
-5.1320181
0
LINE
8
layer0
10
-1.3822118
20
-5.1320181
11
-1.4578457
21
-5.2098951
0
LINE
8
layer0
10
-1.4578457
20
-5.2098951
11
-1.5336168
21
-5.2818496
0
ARC
8
layer0
10
0.0000025
20
0.0000073
40
5.5
50
250.1909736
51
253.8090232
0
LINE
8
layer0
10
-1.8638713
20
-5.1745434
11
-1.8828776
21
-5.0717939
0
LINE
8
layer0
10
-1.8828776
20
-5.0717939
11
-1.8982917
21
-4.9643336
0
LINE
8
layer0
10
-1.8982917
20
-4.9643336
11
-1.9083685
21
-4.8642841
0
LINE
8
layer0
10
-1.9083685
20
-4.8642841
11
-1.9136905
21
-4.7735596
0
LINE
8
layer0
10
-1.9136905
20
-4.7735596
11
-1.9150965
21
-4.6901277
0
LINE
8
layer0
10
-1.9150965
20
-4.6901277
11
-1.9131976
21
-4.614373
0
LINE
8
layer0
10
-1.9131976
20
-4.614373
11
-1.9088478
21
-4.5492049
0
LINE
8
layer0
10
-1.9088478
20
-4.5492049
11
-1.9023328
21
-4.4892589
0
LINE
8
layer0
10
-1.9023328
20
-4.4892589
11
-1.8947494
21
-4.4393971
0
LINE
8
layer0
10
-1.8947494
20
-4.4393971
11
-1.8868379
21
-4.3987372
0
LINE
8
layer0
10
-1.8868379
20
-4.3987372
11
-1.8719155
21
-4.3406171
0
LINE
8
layer0
10
-1.8719155
20
-4.3406171
11
-1.8558146
21
-4.2963297
0
LINE
8
layer0
10
-1.8558146
20
-4.2963297
11
-1.8370346
21
-4.2384804
0
LINE
8
layer0
10
-1.8370346
20
-4.2384804
11
-1.8260834
21
-4.1868105
0
LINE
8
layer0
10
-1.8260834
20
-4.1868105
11
-1.8233526
21
-4.1634771
0
LINE
8
layer0
10
-1.8233526
20
-4.1634771
11
-1.8223747
21
-4.1418879
0
LINE
8
layer0
10
-1.8223747
20
-4.1418879
11
-1.8230609
21
-4.1221109
0
LINE
8
layer0
10
-1.8230609
20
-4.1221109
11
-1.8253355
21
-4.1041956
0
LINE
8
layer0
10
-1.8253355
20
-4.1041956
11
-1.829114
21
-4.0882188
0
LINE
8
layer0
10
-1.829114
20
-4.0882188
11
-1.8343298
21
-4.0742257
0
LINE
8
layer0
10
-1.8343298
20
-4.0742257
11
-1.8408937
21
-4.0622618
0
LINE
8
layer0
10
-1.8408937
20
-4.0622618
11
-1.8487211
21
-4.0523813
0
LINE
8
layer0
10
-1.8487211
20
-4.0523813
11
-1.8577366
21
-4.044634
0
LINE
8
layer0
10
-1.8577366
20
-4.044634
11
-1.8844601
21
-4.0313095
0
LINE
8
layer0
10
-1.8844601
20
-4.0313095
11
-2.0202577
21
-3.964979
0
LINE
8
layer0
10
-2.0202577
20
-3.964979
11
-2.15374
21
-3.8941045
0
LINE
8
layer0
10
-2.15374
20
-3.8941045
11
-2.1802275
21
-3.8803166
0
LINE
8
layer0
10
-2.1802275
20
-3.8803166
11
-2.1917943
21
-3.8775768
0
LINE
8
layer0
10
-2.1917943
20
-3.8775768
11
-2.2043887
21
-3.8770518
0
LINE
8
layer0
10
-2.2043887
20
-3.8770518
11
-2.2179259
21
-3.8787738
0
LINE
8
layer0
10
-2.2179259
20
-3.8787738
11
-2.2323123
21
-3.882779
0
LINE
8
layer0
10
-2.2323123
20
-3.882779
11
-2.2474587
21
-3.889113
0
LINE
8
layer0
10
-2.2474587
20
-3.889113
11
-2.2632894
21
-3.8978032
0
LINE
8
layer0
10
-2.2632894
20
-3.8978032
11
-2.2796927
21
-3.9088728
0
LINE
8
layer0
10
-2.2796927
20
-3.9088728
11
-2.296584
21
-3.9223537
0
LINE
8
layer0
10
-2.296584
20
-3.9223537
11
-2.313856
21
-3.938278
0
LINE
8
layer0
10
-2.313856
20
-3.938278
11
-2.3492208
21
-3.9775085
0
LINE
8
layer0
10
-2.3492208
20
-3.9775085
11
-2.3849833
21
-4.0267048
0
LINE
8
layer0
10
-2.3849833
20
-4.0267048
11
-2.4113487
21
-4.0657622
0
LINE
8
layer0
10
-2.4113487
20
-4.0657622
11
-2.4495976
21
-4.1119968
0
LINE
8
layer0
10
-2.4495976
20
-4.1119968
11
-2.4778419
21
-4.1422966
0
LINE
8
layer0
10
-2.4778419
20
-4.1422966
11
-2.5137236
21
-4.1777397
0
LINE
8
layer0
10
-2.5137236
20
-4.1777397
11
-2.5583915
21
-4.2182458
0
LINE
8
layer0
10
-2.5583915
20
-4.2182458
11
-2.6085569
21
-4.2600698
0
LINE
8
layer0
10
-2.6085569
20
-4.2600698
11
-2.6687276
21
-4.3061335
0
LINE
8
layer0
10
-2.6687276
20
-4.3061335
11
-2.7370518
21
-4.354036
0
LINE
8
layer0
10
-2.7370518
20
-4.354036
11
-2.8135776
21
-4.403057
0
LINE
8
layer0
10
-2.8135776
20
-4.403057
11
-2.9004424
21
-4.4537123
0
LINE
8
layer0
10
-2.9004424
20
-4.4537123
11
-2.9964398
21
-4.5044056
0
LINE
8
layer0
10
-2.9964398
20
-4.5044056
11
-3.0907375
21
-4.5494238
0
ARC
8
layer0
10
0.0000049
20
0.000006
40
5.5
50
232.190971
51
235.8090201
0
LINE
8
layer0
10
-3.3716687
20
-4.3453153
11
-3.3579935
21
-4.2417214
0
LINE
8
layer0
10
-3.3579935
20
-4.2417214
11
-3.3394461
21
-4.1347574
0
LINE
8
layer0
10
-3.3394461
20
-4.1347574
11
-3.3181127
21
-4.0364908
0
LINE
8
layer0
10
-3.3181127
20
-4.0364908
11
-3.2951388
21
-3.948562
0
LINE
8
layer0
10
-3.2951388
20
-3.948562
11
-3.2706941
21
-3.8687792
0
LINE
8
layer0
10
-3.2706941
20
-3.8687792
11
-3.2454787
21
-3.797319
0
LINE
8
layer0
10
-3.2454787
20
-3.797319
11
-3.2212037
21
-3.7366846
0
LINE
8
layer0
10
-3.2212037
20
-3.7366846
11
-3.1964833
21
-3.6816858
0
LINE
8
layer0
10
-3.1964833
20
-3.6816858
11
-3.1738629
21
-3.6366077
0
LINE
8
layer0
10
-3.1738629
20
-3.6366077
11
-3.153774
21
-3.6003827
0
LINE
8
layer0
10
-3.153774
20
-3.6003827
11
-3.1216219
21
-3.5497185
0
LINE
8
layer0
10
-3.1216219
20
-3.5497185
11
-3.0926234
21
-3.5125741
0
LINE
8
layer0
10
-3.0926234
20
-3.5125741
11
-3.0568863
21
-3.4633595
0
LINE
8
layer0
10
-3.0568863
20
-3.4633595
11
-3.0305041
21
-3.4176026
0
LINE
8
layer0
10
-3.0305041
20
-3.4176026
11
-3.0206965
21
-3.3962551
0
LINE
8
layer0
10
-3.0206965
20
-3.3962551
11
-3.0130951
21
-3.3760248
0
LINE
8
layer0
10
-3.0130951
20
-3.3760248
11
-3.0076363
21
-3.3570036
0
LINE
8
layer0
10
-3.0076363
20
-3.3570036
11
-3.0042634
21
-3.3392623
0
LINE
8
layer0
10
-3.0042634
20
-3.3392623
11
-3.0029199
21
-3.3228998
0
LINE
8
layer0
10
-3.0029199
20
-3.3228998
11
-3.0035563
21
-3.3079799
0
LINE
8
layer0
10
-3.0035563
20
-3.3079799
11
-3.0061018
21
-3.2945731
0
LINE
8
layer0
10
-3.0061018
20
-3.2945731
11
-3.010493
21
-3.2827574
0
LINE
8
layer0
10
-3.010493
20
-3.2827574
11
-3.0166731
21
-3.2726033
0
LINE
8
layer0
10
-3.0166731
20
-3.2726033
11
-3.0379711
21
-3.251673
0
LINE
8
layer0
10
-3.0379711
20
-3.251673
11
-3.1466252
21
-3.1466252
0
LINE
8
layer0
10
-3.1466252
20
-3.1466252
11
-3.251673
21
-3.0379711
0
LINE
8
layer0
10
-3.251673
20
-3.0379711
11
-3.2726033
21
-3.0166731
0
LINE
8
layer0
10
-3.2726033
20
-3.0166731
11
-3.2827574
21
-3.010493
0
LINE
8
layer0
10
-3.2827574
20
-3.010493
11
-3.2945731
21
-3.0061018
0
LINE
8
layer0
10
-3.2945731
20
-3.0061018
11
-3.3079799
21
-3.0035563
0
LINE
8
layer0
10
-3.3079799
20
-3.0035563
11
-3.3228998
21
-3.0029199
0
LINE
8
layer0
10
-3.3228998
20
-3.0029199
11
-3.3392623
21
-3.0042634
0
LINE
8
layer0
10
-3.3392623
20
-3.0042634
11
-3.3570036
21
-3.0076363
0
LINE
8
layer0
10
-3.3570036
20
-3.0076363
11
-3.3760248
21
-3.0130951
0
LINE
8
layer0
10
-3.3760248
20
-3.0130951
11
-3.3962551
21
-3.0206965
0
LINE
8
layer0
10
-3.3962551
20
-3.0206965
11
-3.4176026
21
-3.0305041
0
LINE
8
layer0
10
-3.4176026
20
-3.0305041
11
-3.4633595
21
-3.0568863
0
LINE
8
layer0
10
-3.4633595
20
-3.0568863
11
-3.5125741
21
-3.0926234
0
LINE
8
layer0
10
-3.5125741
20
-3.0926234
11
-3.5497185
21
-3.1216219
0
LINE
8
layer0
10
-3.5497185
20
-3.1216219
11
-3.6003827
21
-3.153774
0
LINE
8
layer0
10
-3.6003827
20
-3.153774
11
-3.6366077
21
-3.1738629
0
LINE
8
layer0
10
-3.6366077
20
-3.1738629
11
-3.6816858
21
-3.1964833
0
LINE
8
layer0
10
-3.6816858
20
-3.1964833
11
-3.7366846
21
-3.2212037
0
LINE
8
layer0
10
-3.7366846
20
-3.2212037
11
-3.797319
21
-3.2454787
0
LINE
8
layer0
10
-3.797319
20
-3.2454787
11
-3.8687792
21
-3.2706941
0
LINE
8
layer0
10
-3.8687792
20
-3.2706941
11
-3.948562
21
-3.2951388
0
LINE
8
layer0
10
-3.948562
20
-3.2951388
11
-4.0364908
21
-3.3181127
0
LINE
8
layer0
10
-4.0364908
20
-3.3181127
11
-4.1347574
21
-3.3394461
0
LINE
8
layer0
10
-4.1347574
20
-3.3394461
11
-4.2417214
21
-3.3579935
0
LINE
8
layer0
10
-4.2417214
20
-3.3579935
11
-4.3453153
21
-3.3716687
0
ARC
8
layer0
10
0.000006
20
0.0000049
40
5.5
50
214.1909799
51
217.809029
0
LINE
8
layer0
10
-4.5494238
20
-3.0907375
11
-4.5044056
21
-2.9964398
0
LINE
8
layer0
10
-4.5044056
20
-2.9964398
11
-4.4537123
21
-2.9004424
0
LINE
8
layer0
10
-4.4537123
20
-2.9004424
11
-4.403057
21
-2.8135776
0
LINE
8
layer0
10
-4.403057
20
-2.8135776
11
-4.354036
21
-2.7370518
0
LINE
8
layer0
10
-4.354036
20
-2.7370518
11
-4.3061335
21
-2.6687276
0
LINE
8
layer0
10
-4.3061335
20
-2.6687276
11
-4.2600698
21
-2.6085569
0
LINE
8
layer0
10
-4.2600698
20
-2.6085569
11
-4.2182458
21
-2.5583915
0
LINE
8
layer0
10
-4.2182458
20
-2.5583915
11
-4.1777397
21
-2.5137236
0
LINE
8
layer0
10
-4.1777397
20
-2.5137236
11
-4.1422966
21
-2.4778419
0
LINE
8
layer0
10
-4.1422966
20
-2.4778419
11
-4.1119968
21
-2.4495976
0
LINE
8
layer0
10
-4.1119968
20
-2.4495976
11
-4.0657622
21
-2.4113487
0
LINE
8
layer0
10
-4.0657622
20
-2.4113487
11
-4.0267048
21
-2.3849833
0
LINE
8
layer0
10
-4.0267048
20
-2.3849833
11
-3.9775085
21
-2.3492208
0
LINE
8
layer0
10
-3.9775085
20
-2.3492208
11
-3.938278
21
-2.313856
0
LINE
8
layer0
10
-3.938278
20
-2.313856
11
-3.9223537
21
-2.296584
0
LINE
8
layer0
10
-3.9223537
20
-2.296584
11
-3.9088728
21
-2.2796927
0
LINE
8
layer0
10
-3.9088728
20
-2.2796927
11
-3.8978032
21
-2.2632894
0
LINE
8
layer0
10
-3.8978032
20
-2.2632894
11
-3.889113
21
-2.2474587
0
LINE
8
layer0
10
-3.889113
20
-2.2474587
11
-3.882779
21
-2.2323123
0
LINE
8
layer0
10
-3.882779
20
-2.2323123
11
-3.8787738
21
-2.2179259
0
LINE
8
layer0
10
-3.8787738
20
-2.2179259
11
-3.8770518
21
-2.2043887
0
LINE
8
layer0
10
-3.8770518
20
-2.2043887
11
-3.8775768
21
-2.1917943
0
LINE
8
layer0
10
-3.8775768
20
-2.1917943
11
-3.8803166
21
-2.1802275
0
LINE
8
layer0
10
-3.8803166
20
-2.1802275
11
-3.8941045
21
-2.15374
0
LINE
8
layer0
10
-3.8941045
20
-2.15374
11
-3.964979
21
-2.0202577
0
LINE
8
layer0
10
-3.964979
20
-2.0202577
11
-4.0313095
21
-1.8844601
0
LINE
8
layer0
10
-4.0313095
20
-1.8844601
11
-4.044634
21
-1.8577366
0
LINE
8
layer0
10
-4.044634
20
-1.8577366
11
-4.0523813
21
-1.8487211
0
LINE
8
layer0
10
-4.0523813
20
-1.8487211
11
-4.0622618
21
-1.8408937
0
LINE
8
layer0
10
-4.0622618
20
-1.8408937
11
-4.0742257
21
-1.8343298
0
LINE
8
layer0
10
-4.0742257
20
-1.8343298
11
-4.0882188
21
-1.829114
0
LINE
8
layer0
10
-4.0882188
20
-1.829114
11
-4.1041956
21
-1.8253355
0
LINE
8
layer0
10
-4.1041956
20
-1.8253355
11
-4.1221109
21
-1.8230609
0
LINE
8
layer0
10
-4.1221109
20
-1.8230609
11
-4.1418879
21
-1.8223747
0
LINE
8
layer0
10
-4.1418879
20
-1.8223747
11
-4.1634771
21
-1.8233526
0
LINE
8
layer0
10
-4.1634771
20
-1.8233526
11
-4.1868105
21
-1.8260834
0
LINE
8
layer0
10
-4.1868105
20
-1.8260834
11
-4.2384804
21
-1.8370346
0
LINE
8
layer0
10
-4.2384804
20
-1.8370346
11
-4.2963297
21
-1.8558146
0
LINE
8
layer0
10
-4.2963297
20
-1.8558146
11
-4.3406171
21
-1.8719155
0
LINE
8
layer0
10
-4.3406171
20
-1.8719155
11
-4.3987372
21
-1.8868379
0
LINE
8
layer0
10
-4.3987372
20
-1.8868379
11
-4.4393971
21
-1.8947494
0
LINE
8
layer0
10
-4.4393971
20
-1.8947494
11
-4.4892589
21
-1.9023328
0
LINE
8
layer0
10
-4.4892589
20
-1.9023328
11
-4.5492049
21
-1.9088478
0
LINE
8
layer0
10
-4.5492049
20
-1.9088478
11
-4.614373
21
-1.9131976
0
LINE
8
layer0
10
-4.614373
20
-1.9131976
11
-4.6901277
21
-1.9150965
0
LINE
8
layer0
10
-4.6901277
20
-1.9150965
11
-4.7735596
21
-1.9136905
0
LINE
8
layer0
10
-4.7735596
20
-1.9136905
11
-4.8642841
21
-1.9083685
0
LINE
8
layer0
10
-4.8642841
20
-1.9083685
11
-4.9643336
21
-1.8982917
0
LINE
8
layer0
10
-4.9643336
20
-1.8982917
11
-5.0717939
21
-1.8828776
0
LINE
8
layer0
10
-5.0717939
20
-1.8828776
11
-5.1745434
21
-1.8638713
0
ARC
8
layer0
10
0.0000073
20
0.0000024
40
5.5
50
196.1909758
51
199.8090254
0
LINE
8
layer0
10
-5.2818496
20
-1.5336168
11
-5.2098951
21
-1.4578457
0
LINE
8
layer0
10
-5.2098951
20
-1.4578457
11
-5.1320181
21
-1.3822118
0
LINE
8
layer0
10
-5.1320181
20
-1.3822118
11
-5.0569993
21
-1.3152519
0
LINE
8
layer0
10
-5.0569993
20
-1.3152519
11
-4.9867298
21
-1.2576198
0
LINE
8
layer0
10
-4.9867298
20
-1.2576198
11
-4.9200585
21
-1.2074423
0
LINE
8
layer0
10
-4.9200585
20
-1.2074423
11
-4.8576555
21
-1.1644511
0
LINE
8
layer0
10
-4.8576555
20
-1.1644511
11
-4.8023766
21
-1.1296653
0
LINE
8
layer0
10
-4.8023766
20
-1.1296653
11
-4.7500499
21
-1.0997007
0
LINE
8
layer0
10
-4.7500499
20
-1.0997007
11
-4.7052535
21
-1.0765276
0
LINE
8
layer0
10
-4.7052535
20
-1.0765276
11
-4.6677086
21
-1.0590289
0
LINE
8
layer0
10
-4.6677086
20
-1.0590289
11
-4.6119173
21
-1.0369393
0
LINE
8
layer0
10
-4.6119173
20
-1.0369393
11
-4.5666242
21
-1.0239337
0
LINE
8
layer0
10
-4.5666242
20
-1.0239337
11
-4.5087846
21
-1.005124
0
LINE
8
layer0
10
-4.5087846
20
-1.005124
11
-4.4605457
21
-0.983613
0
LINE
8
layer0
10
-4.4605457
20
-0.983613
11
-4.4400635
21
-0.9721072
0
LINE
8
layer0
10
-4.4400635
20
-0.9721072
11
-4.4220227
21
-0.9602085
0
LINE
8
layer0
10
-4.4220227
20
-0.9602085
11
-4.4064261
21
-0.9480287
0
LINE
8
layer0
10
-4.4064261
20
-0.9480287
11
-4.3932692
21
-0.9356582
0
LINE
8
layer0
10
-4.3932692
20
-0.9356582
11
-4.3825647
21
-0.9232104
0
LINE
8
layer0
10
-4.3825647
20
-0.9232104
11
-4.3743098
21
-0.9107659
0
LINE
8
layer0
10
-4.3743098
20
-0.9107659
11
-4.368489
21
-0.8984233
0
LINE
8
layer0
10
-4.368489
20
-0.8984233
11
-4.3650964
21
-0.8862831
0
LINE
8
layer0
10
-4.3650964
20
-0.8862831
11
-4.3641278
21
-0.8744357
0
LINE
8
layer0
10
-4.3641278
20
-0.8744357
11
-4.3690557
21
-0.844984
0
LINE
8
layer0
10
-4.3690557
20
-0.844984
11
-4.3952131
21
-0.6961334
0
LINE
8
layer0
10
-4.3952131
20
-0.6961334
11
-4.4163333
21
-0.5464849
0
LINE
8
layer0
10
-4.4163333
20
-0.5464849
11
-4.4207477
21
-0.5169518
0
LINE
8
layer0
10
-4.4207477
20
-0.5169518
11
-4.4253299
21
-0.5059836
0
LINE
8
layer0
10
-4.4253299
20
-0.5059836
11
-4.432308
21
-0.495486
0
LINE
8
layer0
10
-4.432308
20
-0.495486
11
-4.441658
21
-0.4855463
0
LINE
8
layer0
10
-4.441658
20
-0.4855463
11
-4.4533544
21
-0.4762617
0
LINE
8
layer0
10
-4.4533544
20
-0.4762617
11
-4.4673816
21
-0.467731
0
LINE
8
layer0
10
-4.4673816
20
-0.467731
11
-4.4837172
21
-0.4600317
0
LINE
8
layer0
10
-4.4837172
20
-0.4600317
11
-4.5023143
21
-0.4532676
0
LINE
8
layer0
10
-4.5023143
20
-0.4532676
11
-4.523149
21
-0.4475262
0
LINE
8
layer0
10
-4.523149
20
-0.4475262
11
-4.5461842
21
-0.4429129
0
LINE
8
layer0
10
-4.5461842
20
-0.4429129
11
-4.5987094
21
-0.4373613
0
LINE
8
layer0
10
-4.5987094
20
-0.4373613
11
-4.6595306
21
-0.4373456
0
LINE
8
layer0
10
-4.6595306
20
-0.4373456
11
-4.7066259
21
-0.438973
0
LINE
8
layer0
10
-4.7066259
20
-0.438973
11
-4.7665126
21
-0.4352049
0
LINE
8
layer0
10
-4.7665126
20
-0.4352049
11
-4.8076273
21
-0.4301646
0
LINE
8
layer0
10
-4.8076273
20
-0.4301646
11
-4.8573921
21
-0.4219687
0
LINE
8
layer0
10
-4.8573921
20
-0.4219687
11
-4.9164174
21
-0.4096405
0
LINE
8
layer0
10
-4.9164174
20
-0.4096405
11
-4.9797401
21
-0.3936393
0
LINE
8
layer0
10
-4.9797401
20
-0.3936393
11
-5.0523739
21
-0.3720358
0
LINE
8
layer0
10
-5.0523739
20
-0.3720358
11
-5.1312878
21
-0.3449168
0
LINE
8
layer0
10
-5.1312878
20
-0.3449168
11
-5.2159274
21
-0.3118198
0
LINE
8
layer0
10
-5.2159274
20
-0.3118198
11
-5.3079662
21
-0.2713192
0
LINE
8
layer0
10
-5.3079662
20
-0.2713192
11
-5.4054038
21
-0.2234525
0
LINE
8
layer0
10
-5.4054038
20
-0.2234525
11
-5.4972511
21
-0.1736251
0
ARC
8
layer0
10
0.0000077
20
-1e-7
40
5.5
50
178.1909748
51
181.8090241
0
LINE
8
layer0
10
-5.4972511
20
0.1736251
11
-5.4054038
21
0.2234525
0
LINE
8
layer0
10
-5.4054038
20
0.2234525
11
-5.3079662
21
0.2713192
0
LINE
8
layer0
10
-5.3079662
20
0.2713192
11
-5.2159274
21
0.3118198
0
LINE
8
layer0
10
-5.2159274
20
0.3118198
11
-5.1312878
21
0.3449168
0
LINE
8
layer0
10
-5.1312878
20
0.3449168
11
-5.0523739
21
0.3720358
0
LINE
8
layer0
10
-5.0523739
20
0.3720358
11
-4.9797401
21
0.3936393
0
LINE
8
layer0
10
-4.9797401
20
0.3936393
11
-4.9164174
21
0.4096405
0
LINE
8
layer0
10
-4.9164174
20
0.4096405
11
-4.8573921
21
0.4219687
0
LINE
8
layer0
10
-4.8573921
20
0.4219687
11
-4.8076273
21
0.4301646
0
LINE
8
layer0
10
-4.8076273
20
0.4301646
11
-4.7665126
21
0.4352049
0
LINE
8
layer0
10
-4.7665126
20
0.4352049
11
-4.7066259
21
0.438973
0
LINE
8
layer0
10
-4.7066259
20
0.438973
11
-4.6595306
21
0.4373456
0
LINE
8
layer0
10
-4.6595306
20
0.4373456
11
-4.5987094
21
0.4373613
0
LINE
8
layer0
10
-4.5987094
20
0.4373613
11
-4.5461842
21
0.4429129
0
LINE
8
layer0
10
-4.5461842
20
0.4429129
11
-4.523149
21
0.4475262
0
LINE
8
layer0
10
-4.523149
20
0.4475262
11
-4.5023143
21
0.4532676
0
LINE
8
layer0
10
-4.5023143
20
0.4532676
11
-4.4837172
21
0.4600317
0
LINE
8
layer0
10
-4.4837172
20
0.4600317
11
-4.4673816
21
0.467731
0
LINE
8
layer0
10
-4.4673816
20
0.467731
11
-4.4533544
21
0.4762617
0
LINE
8
layer0
10
-4.4533544
20
0.4762617
11
-4.441658
21
0.4855463
0
LINE
8
layer0
10
-4.441658
20
0.4855463
11
-4.432308
21
0.495486
0
LINE
8
layer0
10
-4.432308
20
0.495486
11
-4.4253299
21
0.5059836
0
LINE
8
layer0
10
-4.4253299
20
0.5059836
11
-4.4207477
21
0.5169518
0
LINE
8
layer0
10
-4.4207477
20
0.5169518
11
-4.4163333
21
0.5464849
0
LINE
8
layer0
10
-4.4163333
20
0.5464849
11
-4.3952131
21
0.6961334
0
LINE
8
layer0
10
-4.3952131
20
0.6961334
11
-4.3690557
21
0.844984
0
LINE
8
layer0
10
-4.3690557
20
0.844984
11
-4.3641278
21
0.8744357
0
LINE
8
layer0
10
-4.3641278
20
0.8744357
11
-4.3650964
21
0.8862831
0
LINE
8
layer0
10
-4.3650964
20
0.8862831
11
-4.368489
21
0.8984233
0
LINE
8
layer0
10
-4.368489
20
0.8984233
11
-4.3743098
21
0.9107659
0
LINE
8
layer0
10
-4.3743098
20
0.9107659
11
-4.3825647
21
0.9232104
0
LINE
8
layer0
10
-4.3825647
20
0.9232104
11
-4.3932692
21
0.9356582
0
LINE
8
layer0
10
-4.3932692
20
0.9356582
11
-4.4064261
21
0.9480287
0
LINE
8
layer0
10
-4.4064261
20
0.9480287
11
-4.4220227
21
0.9602085
0
LINE
8
layer0
10
-4.4220227
20
0.9602085
11
-4.4400635
21
0.9721072
0
LINE
8
layer0
10
-4.4400635
20
0.9721072
11
-4.4605457
21
0.983613
0
LINE
8
layer0
10
-4.4605457
20
0.983613
11
-4.5087846
21
1.005124
0
LINE
8
layer0
10
-4.5087846
20
1.005124
11
-4.5666242
21
1.0239337
0
LINE
8
layer0
10
-4.5666242
20
1.0239337
11
-4.6119173
21
1.0369393
0
LINE
8
layer0
10
-4.6119173
20
1.0369393
11
-4.6677086
21
1.0590289
0
LINE
8
layer0
10
-4.6677086
20
1.0590289
11
-4.7052535
21
1.0765276
0
LINE
8
layer0
10
-4.7052535
20
1.0765276
11
-4.7500499
21
1.0997007
0
LINE
8
layer0
10
-4.7500499
20
1.0997007
11
-4.8023766
21
1.1296653
0
LINE
8
layer0
10
-4.8023766
20
1.1296653
11
-4.8576555
21
1.1644511
0
LINE
8
layer0
10
-4.8576555
20
1.1644511
11
-4.9200585
21
1.2074423
0
LINE
8
layer0
10
-4.9200585
20
1.2074423
11
-4.9867298
21
1.2576198
0
LINE
8
layer0
10
-4.9867298
20
1.2576198
11
-5.0569993
21
1.3152519
0
LINE
8
layer0
10
-5.0569993
20
1.3152519
11
-5.1320181
21
1.3822118
0
LINE
8
layer0
10
-5.1320181
20
1.3822118
11
-5.2098951
21
1.4578457
0
LINE
8
layer0
10
-5.2098951
20
1.4578457
11
-5.2818496
21
1.5336168
0
ARC
8
layer0
10
0.0000073
20
-0.0000025
40
5.5
50
160.1909736
51
163.8090232
0
LINE
8
layer0
10
-5.1745434
20
1.8638713
11
-5.0717939
21
1.8828776
0
LINE
8
layer0
10
-5.0717939
20
1.8828776
11
-4.9643336
21
1.8982917
0
LINE
8
layer0
10
-4.9643336
20
1.8982917
11
-4.8642841
21
1.9083685
0
LINE
8
layer0
10
-4.8642841
20
1.9083685
11
-4.7735596
21
1.9136905
0
LINE
8
layer0
10
-4.7735596
20
1.9136905
11
-4.6901277
21
1.9150965
0
LINE
8
layer0
10
-4.6901277
20
1.9150965
11
-4.614373
21
1.9131976
0
LINE
8
layer0
10
-4.614373
20
1.9131976
11
-4.5492049
21
1.9088478
0
LINE
8
layer0
10
-4.5492049
20
1.9088478
11
-4.4892589
21
1.9023328
0
LINE
8
layer0
10
-4.4892589
20
1.9023328
11
-4.4393971
21
1.8947494
0
LINE
8
layer0
10
-4.4393971
20
1.8947494
11
-4.3987372
21
1.8868379
0
LINE
8
layer0
10
-4.3987372
20
1.8868379
11
-4.3406171
21
1.8719155
0
LINE
8
layer0
10
-4.3406171
20
1.8719155
11
-4.2963297
21
1.8558146
0
LINE
8
layer0
10
-4.2963297
20
1.8558146
11
-4.2384804
21
1.8370346
0
LINE
8
layer0
10
-4.2384804
20
1.8370346
11
-4.1868105
21
1.8260834
0
LINE
8
layer0
10
-4.1868105
20
1.8260834
11
-4.1634771
21
1.8233526
0
LINE
8
layer0
10
-4.1634771
20
1.8233526
11
-4.1418879
21
1.8223747
0
LINE
8
layer0
10
-4.1418879
20
1.8223747
11
-4.1221109
21
1.8230609
0
LINE
8
layer0
10
-4.1221109
20
1.8230609
11
-4.1041956
21
1.8253355
0
LINE
8
layer0
10
-4.1041956
20
1.8253355
11
-4.0882188
21
1.829114
0
LINE
8
layer0
10
-4.0882188
20
1.829114
11
-4.0742257
21
1.8343298
0
LINE
8
layer0
10
-4.0742257
20
1.8343298
11
-4.0622618
21
1.8408937
0
LINE
8
layer0
10
-4.0622618
20
1.8408937
11
-4.0523813
21
1.8487211
0
LINE
8
layer0
10
-4.0523813
20
1.8487211
11
-4.044634
21
1.8577366
0
LINE
8
layer0
10
-4.044634
20
1.8577366
11
-4.0313095
21
1.8844601
0
LINE
8
layer0
10
-4.0313095
20
1.8844601
11
-3.964979
21
2.0202577
0
LINE
8
layer0
10
-3.964979
20
2.0202577
11
-3.8941045
21
2.15374
0
LINE
8
layer0
10
-3.8941045
20
2.15374
11
-3.8803166
21
2.1802275
0
LINE
8
layer0
10
-3.8803166
20
2.1802275
11
-3.8775768
21
2.1917943
0
LINE
8
layer0
10
-3.8775768
20
2.1917943
11
-3.8770518
21
2.2043887
0
LINE
8
layer0
10
-3.8770518
20
2.2043887
11
-3.8787738
21
2.2179259
0
LINE
8
layer0
10
-3.8787738
20
2.2179259
11
-3.882779
21
2.2323123
0
LINE
8
layer0
10
-3.882779
20
2.2323123
11
-3.889113
21
2.2474587
0
LINE
8
layer0
10
-3.889113
20
2.2474587
11
-3.8978032
21
2.2632894
0
LINE
8
layer0
10
-3.8978032
20
2.2632894
11
-3.9088728
21
2.2796927
0
LINE
8
layer0
10
-3.9088728
20
2.2796927
11
-3.9223537
21
2.296584
0
LINE
8
layer0
10
-3.9223537
20
2.296584
11
-3.938278
21
2.313856
0
LINE
8
layer0
10
-3.938278
20
2.313856
11
-3.9775085
21
2.3492208
0
LINE
8
layer0
10
-3.9775085
20
2.3492208
11
-4.0267048
21
2.3849833
0
LINE
8
layer0
10
-4.0267048
20
2.3849833
11
-4.0657622
21
2.4113487
0
LINE
8
layer0
10
-4.0657622
20
2.4113487
11
-4.1119968
21
2.4495976
0
LINE
8
layer0
10
-4.1119968
20
2.4495976
11
-4.1422966
21
2.4778419
0
LINE
8
layer0
10
-4.1422966
20
2.4778419
11
-4.1777397
21
2.5137236
0
LINE
8
layer0
10
-4.1777397
20
2.5137236
11
-4.2182458
21
2.5583915
0
LINE
8
layer0
10
-4.2182458
20
2.5583915
11
-4.2600698
21
2.6085569
0
LINE
8
layer0
10
-4.2600698
20
2.6085569
11
-4.3061335
21
2.6687276
0
LINE
8
layer0
10
-4.3061335
20
2.6687276
11
-4.354036
21
2.7370518
0
LINE
8
layer0
10
-4.354036
20
2.7370518
11
-4.403057
21
2.8135776
0
LINE
8
layer0
10
-4.403057
20
2.8135776
11
-4.4537123
21
2.9004424
0
LINE
8
layer0
10
-4.4537123
20
2.9004424
11
-4.5044056
21
2.9964398
0
LINE
8
layer0
10
-4.5044056
20
2.9964398
11
-4.5494238
21
3.0907375
0
ARC
8
layer0
10
0.000006
20
-0.0000049
40
5.5
50
142.190971
51
145.8090201
0
LINE
8
layer0
10
-4.3453153
20
3.3716687
11
-4.2417214
21
3.3579935
0
LINE
8
layer0
10
-4.2417214
20
3.3579935
11
-4.1347574
21
3.3394461
0
LINE
8
layer0
10
-4.1347574
20
3.3394461
11
-4.0364908
21
3.3181127
0
LINE
8
layer0
10
-4.0364908
20
3.3181127
11
-3.948562
21
3.2951388
0
LINE
8
layer0
10
-3.948562
20
3.2951388
11
-3.8687792
21
3.2706941
0
LINE
8
layer0
10
-3.8687792
20
3.2706941
11
-3.797319
21
3.2454787
0
LINE
8
layer0
10
-3.797319
20
3.2454787
11
-3.7366846
21
3.2212037
0
LINE
8
layer0
10
-3.7366846
20
3.2212037
11
-3.6816858
21
3.1964833
0
LINE
8
layer0
10
-3.6816858
20
3.1964833
11
-3.6366077
21
3.1738629
0
LINE
8
layer0
10
-3.6366077
20
3.1738629
11
-3.6003827
21
3.153774
0
LINE
8
layer0
10
-3.6003827
20
3.153774
11
-3.5497185
21
3.1216219
0
LINE
8
layer0
10
-3.5497185
20
3.1216219
11
-3.5125741
21
3.0926234
0
LINE
8
layer0
10
-3.5125741
20
3.0926234
11
-3.4633595
21
3.0568863
0
LINE
8
layer0
10
-3.4633595
20
3.0568863
11
-3.4176026
21
3.0305041
0
LINE
8
layer0
10
-3.4176026
20
3.0305041
11
-3.3962551
21
3.0206965
0
LINE
8
layer0
10
-3.3962551
20
3.0206965
11
-3.3760248
21
3.0130951
0
LINE
8
layer0
10
-3.3760248
20
3.0130951
11
-3.3570036
21
3.0076363
0
LINE
8
layer0
10
-3.3570036
20
3.0076363
11
-3.3392623
21
3.0042634
0
LINE
8
layer0
10
-3.3392623
20
3.0042634
11
-3.3228998
21
3.0029199
0
LINE
8
layer0
10
-3.3228998
20
3.0029199
11
-3.3079799
21
3.0035563
0
LINE
8
layer0
10
-3.3079799
20
3.0035563
11
-3.2945731
21
3.0061018
0
LINE
8
layer0
10
-3.2945731
20
3.0061018
11
-3.2827574
21
3.010493
0
LINE
8
layer0
10
-3.2827574
20
3.010493
11
-3.2726033
21
3.0166731
0
LINE
8
layer0
10
-3.2726033
20
3.0166731
11
-3.251673
21
3.0379711
0
LINE
8
layer0
10
-3.251673
20
3.0379711
11
-3.1466252
21
3.1466252
0
LINE
8
layer0
10
-3.1466252
20
3.1466252
11
-3.0379711
21
3.251673
0
LINE
8
layer0
10
-3.0379711
20
3.251673
11
-3.0166731
21
3.2726033
0
LINE
8
layer0
10
-3.0166731
20
3.2726033
11
-3.010493
21
3.2827574
0
LINE
8
layer0
10
-3.010493
20
3.2827574
11
-3.0061018
21
3.2945731
0
LINE
8
layer0
10
-3.0061018
20
3.2945731
11
-3.0035563
21
3.3079799
0
LINE
8
layer0
10
-3.0035563
20
3.3079799
11
-3.0029199
21
3.3228998
0
LINE
8
layer0
10
-3.0029199
20
3.3228998
11
-3.0042634
21
3.3392623
0
LINE
8
layer0
10
-3.0042634
20
3.3392623
11
-3.0076363
21
3.3570036
0
LINE
8
layer0
10
-3.0076363
20
3.3570036
11
-3.0130951
21
3.3760248
0
LINE
8
layer0
10
-3.0130951
20
3.3760248
11
-3.0206965
21
3.3962551
0
LINE
8
layer0
10
-3.0206965
20
3.3962551
11
-3.0305041
21
3.4176026
0
LINE
8
layer0
10
-3.0305041
20
3.4176026
11
-3.0568863
21
3.4633595
0
LINE
8
layer0
10
-3.0568863
20
3.4633595
11
-3.0926234
21
3.5125741
0
LINE
8
layer0
10
-3.0926234
20
3.5125741
11
-3.1216219
21
3.5497185
0
LINE
8
layer0
10
-3.1216219
20
3.5497185
11
-3.153774
21
3.6003827
0
LINE
8
layer0
10
-3.153774
20
3.6003827
11
-3.1738629
21
3.6366077
0
LINE
8
layer0
10
-3.1738629
20
3.6366077
11
-3.1964833
21
3.6816858
0
LINE
8
layer0
10
-3.1964833
20
3.6816858
11
-3.2212037
21
3.7366846
0
LINE
8
layer0
10
-3.2212037
20
3.7366846
11
-3.2454787
21
3.797319
0
LINE
8
layer0
10
-3.2454787
20
3.797319
11
-3.2706941
21
3.8687792
0
LINE
8
layer0
10
-3.2706941
20
3.8687792
11
-3.2951388
21
3.948562
0
LINE
8
layer0
10
-3.2951388
20
3.948562
11
-3.3181127
21
4.0364908
0
LINE
8
layer0
10
-3.3181127
20
4.0364908
11
-3.3394461
21
4.1347574
0
LINE
8
layer0
10
-3.3394461
20
4.1347574
11
-3.3579935
21
4.2417214
0
LINE
8
layer0
10
-3.3579935
20
4.2417214
11
-3.3716687
21
4.3453153
0
ARC
8
layer0
10
0.0000049
20
-0.000006
40
5.5
50
124.1909799
51
127.809029
0
LINE
8
layer0
10
-3.0907375
20
4.5494238
11
-2.9964398
21
4.5044056
0
LINE
8
layer0
10
-2.9964398
20
4.5044056
11
-2.9004424
21
4.4537123
0
LINE
8
layer0
10
-2.9004424
20
4.4537123
11
-2.8135776
21
4.403057
0
LINE
8
layer0
10
-2.8135776
20
4.403057
11
-2.7370518
21
4.354036
0
LINE
8
layer0
10
-2.7370518
20
4.354036
11
-2.6687276
21
4.3061335
0
LINE
8
layer0
10
-2.6687276
20
4.3061335
11
-2.6085569
21
4.2600698
0
LINE
8
layer0
10
-2.6085569
20
4.2600698
11
-2.5583915
21
4.2182458
0
LINE
8
layer0
10
-2.5583915
20
4.2182458
11
-2.5137236
21
4.1777397
0
LINE
8
layer0
10
-2.5137236
20
4.1777397
11
-2.4778419
21
4.1422966
0
LINE
8
layer0
10
-2.4778419
20
4.1422966
11
-2.4495976
21
4.1119968
0
LINE
8
layer0
10
-2.4495976
20
4.1119968
11
-2.4113487
21
4.0657622
0
LINE
8
layer0
10
-2.4113487
20
4.0657622
11
-2.3849833
21
4.0267048
0
LINE
8
layer0
10
-2.3849833
20
4.0267048
11
-2.3492208
21
3.9775085
0
LINE
8
layer0
10
-2.3492208
20
3.9775085
11
-2.313856
21
3.938278
0
LINE
8
layer0
10
-2.313856
20
3.938278
11
-2.296584
21
3.9223537
0
LINE
8
layer0
10
-2.296584
20
3.9223537
11
-2.2796927
21
3.9088728
0
LINE
8
layer0
10
-2.2796927
20
3.9088728
11
-2.2632894
21
3.8978032
0
LINE
8
layer0
10
-2.2632894
20
3.8978032
11
-2.2474587
21
3.889113
0
LINE
8
layer0
10
-2.2474587
20
3.889113
11
-2.2323123
21
3.882779
0
LINE
8
layer0
10
-2.2323123
20
3.882779
11
-2.2179259
21
3.8787738
0
LINE
8
layer0
10
-2.2179259
20
3.8787738
11
-2.2043887
21
3.8770518
0
LINE
8
layer0
10
-2.2043887
20
3.8770518
11
-2.1917943
21
3.8775768
0
LINE
8
layer0
10
-2.1917943
20
3.8775768
11
-2.1802275
21
3.8803166
0
LINE
8
layer0
10
-2.1802275
20
3.8803166
11
-2.15374
21
3.8941045
0
LINE
8
layer0
10
-2.15374
20
3.8941045
11
-2.0202577
21
3.964979
0
LINE
8
layer0
10
-2.0202577
20
3.964979
11
-1.8844601
21
4.0313095
0
LINE
8
layer0
10
-1.8844601
20
4.0313095
11
-1.8577366
21
4.044634
0
LINE
8
layer0
10
-1.8577366
20
4.044634
11
-1.8487211
21
4.0523813
0
LINE
8
layer0
10
-1.8487211
20
4.0523813
11
-1.8408937
21
4.0622618
0
LINE
8
layer0
10
-1.8408937
20
4.0622618
11
-1.8343298
21
4.0742257
0
LINE
8
layer0
10
-1.8343298
20
4.0742257
11
-1.829114
21
4.0882188
0
LINE
8
layer0
10
-1.829114
20
4.0882188
11
-1.8253355
21
4.1041956
0
LINE
8
layer0
10
-1.8253355
20
4.1041956
11
-1.8230609
21
4.1221109
0
LINE
8
layer0
10
-1.8230609
20
4.1221109
11
-1.8223747
21
4.1418879
0
LINE
8
layer0
10
-1.8223747
20
4.1418879
11
-1.8233526
21
4.1634771
0
LINE
8
layer0
10
-1.8233526
20
4.1634771
11
-1.8260834
21
4.1868105
0
LINE
8
layer0
10
-1.8260834
20
4.1868105
11
-1.8370346
21
4.2384804
0
LINE
8
layer0
10
-1.8370346
20
4.2384804
11
-1.8558146
21
4.2963297
0
LINE
8
layer0
10
-1.8558146
20
4.2963297
11
-1.8719155
21
4.3406171
0
LINE
8
layer0
10
-1.8719155
20
4.3406171
11
-1.8868379
21
4.3987372
0
LINE
8
layer0
10
-1.8868379
20
4.3987372
11
-1.8947494
21
4.4393971
0
LINE
8
layer0
10
-1.8947494
20
4.4393971
11
-1.9023328
21
4.4892589
0
LINE
8
layer0
10
-1.9023328
20
4.4892589
11
-1.9088478
21
4.5492049
0
LINE
8
layer0
10
-1.9088478
20
4.5492049
11
-1.9131976
21
4.614373
0
LINE
8
layer0
10
-1.9131976
20
4.614373
11
-1.9150965
21
4.6901277
0
LINE
8
layer0
10
-1.9150965
20
4.6901277
11
-1.9136905
21
4.7735596
0
LINE
8
layer0
10
-1.9136905
20
4.7735596
11
-1.9083685
21
4.8642841
0
LINE
8
layer0
10
-1.9083685
20
4.8642841
11
-1.8982917
21
4.9643336
0
LINE
8
layer0
10
-1.8982917
20
4.9643336
11
-1.8828776
21
5.0717939
0
LINE
8
layer0
10
-1.8828776
20
5.0717939
11
-1.8638713
21
5.1745434
0
ARC
8
layer0
10
0.0000024
20
-0.0000073
40
5.5
50
106.1909758
51
109.8090254
0
LINE
8
layer0
10
-1.5336168
20
5.2818496
11
-1.4578457
21
5.2098951
0
LINE
8
layer0
10
-1.4578457
20
5.2098951
11
-1.3822118
21
5.1320181
0
LINE
8
layer0
10
-1.3822118
20
5.1320181
11
-1.3152519
21
5.0569993
0
LINE
8
layer0
10
-1.3152519
20
5.0569993
11
-1.2576198
21
4.9867298
0
LINE
8
layer0
10
-1.2576198
20
4.9867298
11
-1.2074423
21
4.9200585
0
LINE
8
layer0
10
-1.2074423
20
4.9200585
11
-1.1644511
21
4.8576555
0
LINE
8
layer0
10
-1.1644511
20
4.8576555
11
-1.1296653
21
4.8023766
0
LINE
8
layer0
10
-1.1296653
20
4.8023766
11
-1.0997007
21
4.7500499
0
LINE
8
layer0
10
-1.0997007
20
4.7500499
11
-1.0765276
21
4.7052535
0
LINE
8
layer0
10
-1.0765276
20
4.7052535
11
-1.0590289
21
4.6677086
0
LINE
8
layer0
10
-1.0590289
20
4.6677086
11
-1.0369393
21
4.6119173
0
LINE
8
layer0
10
-1.0369393
20
4.6119173
11
-1.0239337
21
4.5666242
0
LINE
8
layer0
10
-1.0239337
20
4.5666242
11
-1.005124
21
4.5087846
0
LINE
8
layer0
10
-1.005124
20
4.5087846
11
-0.983613
21
4.4605457
0
LINE
8
layer0
10
-0.983613
20
4.4605457
11
-0.9721072
21
4.4400635
0
LINE
8
layer0
10
-0.9721072
20
4.4400635
11
-0.9602085
21
4.4220227
0
LINE
8
layer0
10
-0.9602085
20
4.4220227
11
-0.9480287
21
4.4064261
0
LINE
8
layer0
10
-0.9480287
20
4.4064261
11
-0.9356582
21
4.3932692
0
LINE
8
layer0
10
-0.9356582
20
4.3932692
11
-0.9232104
21
4.3825647
0
LINE
8
layer0
10
-0.9232104
20
4.3825647
11
-0.9107659
21
4.3743098
0
LINE
8
layer0
10
-0.9107659
20
4.3743098
11
-0.8984233
21
4.368489
0
LINE
8
layer0
10
-0.8984233
20
4.368489
11
-0.8862831
21
4.3650964
0
LINE
8
layer0
10
-0.8862831
20
4.3650964
11
-0.8744357
21
4.3641278
0
LINE
8
layer0
10
-0.8744357
20
4.3641278
11
-0.844984
21
4.3690557
0
LINE
8
layer0
10
-0.844984
20
4.3690557
11
-0.6961334
21
4.3952131
0
LINE
8
layer0
10
-0.6961334
20
4.3952131
11
-0.5464849
21
4.4163333
0
LINE
8
layer0
10
-0.5464849
20
4.4163333
11
-0.5169518
21
4.4207477
0
LINE
8
layer0
10
-0.5169518
20
4.4207477
11
-0.5059836
21
4.4253299
0
LINE
8
layer0
10
-0.5059836
20
4.4253299
11
-0.495486
21
4.432308
0
LINE
8
layer0
10
-0.495486
20
4.432308
11
-0.4855463
21
4.441658
0
LINE
8
layer0
10
-0.4855463
20
4.441658
11
-0.4762617
21
4.4533544
0
LINE
8
layer0
10
-0.4762617
20
4.4533544
11
-0.467731
21
4.4673816
0
LINE
8
layer0
10
-0.467731
20
4.4673816
11
-0.4600317
21
4.4837172
0
LINE
8
layer0
10
-0.4600317
20
4.4837172
11
-0.4532676
21
4.5023143
0
LINE
8
layer0
10
-0.4532676
20
4.5023143
11
-0.4475262
21
4.523149
0
LINE
8
layer0
10
-0.4475262
20
4.523149
11
-0.4429129
21
4.5461842
0
LINE
8
layer0
10
-0.4429129
20
4.5461842
11
-0.4373613
21
4.5987094
0
LINE
8
layer0
10
-0.4373613
20
4.5987094
11
-0.4373456
21
4.6595306
0
LINE
8
layer0
10
-0.4373456
20
4.6595306
11
-0.438973
21
4.7066259
0
LINE
8
layer0
10
-0.438973
20
4.7066259
11
-0.4352049
21
4.7665126
0
LINE
8
layer0
10
-0.4352049
20
4.7665126
11
-0.4301646
21
4.8076273
0
LINE
8
layer0
10
-0.4301646
20
4.8076273
11
-0.4219687
21
4.8573921
0
LINE
8
layer0
10
-0.4219687
20
4.8573921
11
-0.4096405
21
4.9164174
0
LINE
8
layer0
10
-0.4096405
20
4.9164174
11
-0.3936393
21
4.9797401
0
LINE
8
layer0
10
-0.3936393
20
4.9797401
11
-0.3720358
21
5.0523739
0
LINE
8
layer0
10
-0.3720358
20
5.0523739
11
-0.3449168
21
5.1312878
0
LINE
8
layer0
10
-0.3449168
20
5.1312878
11
-0.3118198
21
5.2159274
0
LINE
8
layer0
10
-0.3118198
20
5.2159274
11
-0.2713192
21
5.3079662
0
LINE
8
layer0
10
-0.2713192
20
5.3079662
11
-0.2234525
21
5.4054038
0
LINE
8
layer0
10
-0.2234525
20
5.4054038
11
-0.1736251
21
5.4972511
0
ARC
8
layer0
10
-1e-7
20
-0.0000077
40
5.5
50
88.1909748
51
91.8090241
0
LINE
8
layer0
10
0.1736251
20
5.4972511
11
0.2234525
21
5.4054038
0
LINE
8
layer0
10
0.2234525
20
5.4054038
11
0.2713192
21
5.3079662
0
LINE
8
layer0
10
0.2713192
20
5.3079662
11
0.3118198
21
5.2159274
0
LINE
8
layer0
10
0.3118198
20
5.2159274
11
0.3449168
21
5.1312878
0
LINE
8
layer0
10
0.3449168
20
5.1312878
11
0.3720358
21
5.0523739
0
LINE
8
layer0
10
0.3720358
20
5.0523739
11
0.3936393
21
4.9797401
0
LINE
8
layer0
10
0.3936393
20
4.9797401
11
0.4096405
21
4.9164174
0
LINE
8
layer0
10
0.4096405
20
4.9164174
11
0.4219687
21
4.8573921
0
LINE
8
layer0
10
0.4219687
20
4.8573921
11
0.4301646
21
4.8076273
0
LINE
8
layer0
10
0.4301646
20
4.8076273
11
0.4352049
21
4.7665126
0
LINE
8
layer0
10
0.4352049
20
4.7665126
11
0.438973
21
4.7066259
0
LINE
8
layer0
10
0.438973
20
4.7066259
11
0.4373456
21
4.6595306
0
LINE
8
layer0
10
0.4373456
20
4.6595306
11
0.4373613
21
4.5987094
0
LINE
8
layer0
10
0.4373613
20
4.5987094
11
0.4429129
21
4.5461842
0
LINE
8
layer0
10
0.4429129
20
4.5461842
11
0.4475262
21
4.523149
0
LINE
8
layer0
10
0.4475262
20
4.523149
11
0.4532676
21
4.5023143
0
LINE
8
layer0
10
0.4532676
20
4.5023143
11
0.4600317
21
4.4837172
0
LINE
8
layer0
10
0.4600317
20
4.4837172
11
0.467731
21
4.4673816
0
LINE
8
layer0
10
0.467731
20
4.4673816
11
0.4762617
21
4.4533544
0
LINE
8
layer0
10
0.4762617
20
4.4533544
11
0.4855463
21
4.441658
0
LINE
8
layer0
10
0.4855463
20
4.441658
11
0.495486
21
4.432308
0
LINE
8
layer0
10
0.495486
20
4.432308
11
0.5059836
21
4.4253299
0
LINE
8
layer0
10
0.5059836
20
4.4253299
11
0.5169518
21
4.4207477
0
LINE
8
layer0
10
0.5169518
20
4.4207477
11
0.5464849
21
4.4163333
0
LINE
8
layer0
10
0.5464849
20
4.4163333
11
0.6961334
21
4.3952131
0
LINE
8
layer0
10
0.6961334
20
4.3952131
11
0.844984
21
4.3690557
0
LINE
8
layer0
10
0.844984
20
4.3690557
11
0.8744357
21
4.3641278
0
LINE
8
layer0
10
0.8744357
20
4.3641278
11
0.8862831
21
4.3650964
0
LINE
8
layer0
10
0.8862831
20
4.3650964
11
0.8984233
21
4.368489
0
LINE
8
layer0
10
0.8984233
20
4.368489
11
0.9107659
21
4.3743098
0
LINE
8
layer0
10
0.9107659
20
4.3743098
11
0.9232104
21
4.3825647
0
LINE
8
layer0
10
0.9232104
20
4.3825647
11
0.9356582
21
4.3932692
0
LINE
8
layer0
10
0.9356582
20
4.3932692
11
0.9480287
21
4.4064261
0
LINE
8
layer0
10
0.9480287
20
4.4064261
11
0.9602085
21
4.4220227
0
LINE
8
layer0
10
0.9602085
20
4.4220227
11
0.9721072
21
4.4400635
0
LINE
8
layer0
10
0.9721072
20
4.4400635
11
0.983613
21
4.4605457
0
LINE
8
layer0
10
0.983613
20
4.4605457
11
1.005124
21
4.5087846
0
LINE
8
layer0
10
1.005124
20
4.5087846
11
1.0239337
21
4.5666242
0
LINE
8
layer0
10
1.0239337
20
4.5666242
11
1.0369393
21
4.6119173
0
LINE
8
layer0
10
1.0369393
20
4.6119173
11
1.0590289
21
4.6677086
0
LINE
8
layer0
10
1.0590289
20
4.6677086
11
1.0765276
21
4.7052535
0
LINE
8
layer0
10
1.0765276
20
4.7052535
11
1.0997007
21
4.7500499
0
LINE
8
layer0
10
1.0997007
20
4.7500499
11
1.1296653
21
4.8023766
0
LINE
8
layer0
10
1.1296653
20
4.8023766
11
1.1644511
21
4.8576555
0
LINE
8
layer0
10
1.1644511
20
4.8576555
11
1.2074423
21
4.9200585
0
LINE
8
layer0
10
1.2074423
20
4.9200585
11
1.2576198
21
4.9867298
0
LINE
8
layer0
10
1.2576198
20
4.9867298
11
1.3152519
21
5.0569993
0
LINE
8
layer0
10
1.3152519
20
5.0569993
11
1.3822118
21
5.1320181
0
LINE
8
layer0
10
1.3822118
20
5.1320181
11
1.4578457
21
5.2098951
0
LINE
8
layer0
10
1.4578457
20
5.2098951
11
1.5336168
21
5.2818496
0
ARC
8
layer0
10
-0.0000025
20
-0.0000073
40
5.5
50
70.1909736
51
73.8090232
0
LINE
8
layer0
10
1.8638713
20
5.1745434
11
1.8828776
21
5.0717939
0
LINE
8
layer0
10
1.8828776
20
5.0717939
11
1.8982917
21
4.9643336
0
LINE
8
layer0
10
1.8982917
20
4.9643336
11
1.9083685
21
4.8642841
0
LINE
8
layer0
10
1.9083685
20
4.8642841
11
1.9136905
21
4.7735596
0
LINE
8
layer0
10
1.9136905
20
4.7735596
11
1.9150965
21
4.6901277
0
LINE
8
layer0
10
1.9150965
20
4.6901277
11
1.9131976
21
4.614373
0
LINE
8
layer0
10
1.9131976
20
4.614373
11
1.9088478
21
4.5492049
0
LINE
8
layer0
10
1.9088478
20
4.5492049
11
1.9023328
21
4.4892589
0
LINE
8
layer0
10
1.9023328
20
4.4892589
11
1.8947494
21
4.4393971
0
LINE
8
layer0
10
1.8947494
20
4.4393971
11
1.8868379
21
4.3987372
0
LINE
8
layer0
10
1.8868379
20
4.3987372
11
1.8719155
21
4.3406171
0
LINE
8
layer0
10
1.8719155
20
4.3406171
11
1.8558146
21
4.2963297
0
LINE
8
layer0
10
1.8558146
20
4.2963297
11
1.8370346
21
4.2384804
0
LINE
8
layer0
10
1.8370346
20
4.2384804
11
1.8260834
21
4.1868105
0
LINE
8
layer0
10
1.8260834
20
4.1868105
11
1.8233526
21
4.1634771
0
LINE
8
layer0
10
1.8233526
20
4.1634771
11
1.8223747
21
4.1418879
0
LINE
8
layer0
10
1.8223747
20
4.1418879
11
1.8230609
21
4.1221109
0
LINE
8
layer0
10
1.8230609
20
4.1221109
11
1.8253355
21
4.1041956
0
LINE
8
layer0
10
1.8253355
20
4.1041956
11
1.829114
21
4.0882188
0
LINE
8
layer0
10
1.829114
20
4.0882188
11
1.8343298
21
4.0742257
0
LINE
8
layer0
10
1.8343298
20
4.0742257
11
1.8408937
21
4.0622618
0
LINE
8
layer0
10
1.8408937
20
4.0622618
11
1.8487211
21
4.0523813
0
LINE
8
layer0
10
1.8487211
20
4.0523813
11
1.8577366
21
4.044634
0
LINE
8
layer0
10
1.8577366
20
4.044634
11
1.8844601
21
4.0313095
0
LINE
8
layer0
10
1.8844601
20
4.0313095
11
2.0202577
21
3.964979
0
LINE
8
layer0
10
2.0202577
20
3.964979
11
2.15374
21
3.8941045
0
LINE
8
layer0
10
2.15374
20
3.8941045
11
2.1802275
21
3.8803166
0
LINE
8
layer0
10
2.1802275
20
3.8803166
11
2.1917943
21
3.8775768
0
LINE
8
layer0
10
2.1917943
20
3.8775768
11
2.2043887
21
3.8770518
0
LINE
8
layer0
10
2.2043887
20
3.8770518
11
2.2179259
21
3.8787738
0
LINE
8
layer0
10
2.2179259
20
3.8787738
11
2.2323123
21
3.882779
0
LINE
8
layer0
10
2.2323123
20
3.882779
11
2.2474587
21
3.889113
0
LINE
8
layer0
10
2.2474587
20
3.889113
11
2.2632894
21
3.8978032
0
LINE
8
layer0
10
2.2632894
20
3.8978032
11
2.2796927
21
3.9088728
0
LINE
8
layer0
10
2.2796927
20
3.9088728
11
2.296584
21
3.9223537
0
LINE
8
layer0
10
2.296584
20
3.9223537
11
2.313856
21
3.938278
0
LINE
8
layer0
10
2.313856
20
3.938278
11
2.3492208
21
3.9775085
0
LINE
8
layer0
10
2.3492208
20
3.9775085
11
2.3849833
21
4.0267048
0
LINE
8
layer0
10
2.3849833
20
4.0267048
11
2.4113487
21
4.0657622
0
LINE
8
layer0
10
2.4113487
20
4.0657622
11
2.4495976
21
4.1119968
0
LINE
8
layer0
10
2.4495976
20
4.1119968
11
2.4778419
21
4.1422966
0
LINE
8
layer0
10
2.4778419
20
4.1422966
11
2.5137236
21
4.1777397
0
LINE
8
layer0
10
2.5137236
20
4.1777397
11
2.5583915
21
4.2182458
0
LINE
8
layer0
10
2.5583915
20
4.2182458
11
2.6085569
21
4.2600698
0
LINE
8
layer0
10
2.6085569
20
4.2600698
11
2.6687276
21
4.3061335
0
LINE
8
layer0
10
2.6687276
20
4.3061335
11
2.7370518
21
4.354036
0
LINE
8
layer0
10
2.7370518
20
4.354036
11
2.8135776
21
4.403057
0
LINE
8
layer0
10
2.8135776
20
4.403057
11
2.9004424
21
4.4537123
0
LINE
8
layer0
10
2.9004424
20
4.4537123
11
2.9964398
21
4.5044056
0
LINE
8
layer0
10
2.9964398
20
4.5044056
11
3.0907375
21
4.5494238
0
ARC
8
layer0
10
-0.0000049
20
-0.000006
40
5.5
50
52.190971
51
55.8090201
0
LINE
8
layer0
10
3.3716687
20
4.3453153
11
3.3579935
21
4.2417214
0
LINE
8
layer0
10
3.3579935
20
4.2417214
11
3.3394461
21
4.1347574
0
LINE
8
layer0
10
3.3394461
20
4.1347574
11
3.3181127
21
4.0364908
0
LINE
8
layer0
10
3.3181127
20
4.0364908
11
3.2951388
21
3.948562
0
LINE
8
layer0
10
3.2951388
20
3.948562
11
3.2706941
21
3.8687792
0
LINE
8
layer0
10
3.2706941
20
3.8687792
11
3.2454787
21
3.797319
0
LINE
8
layer0
10
3.2454787
20
3.797319
11
3.2212037
21
3.7366846
0
LINE
8
layer0
10
3.2212037
20
3.7366846
11
3.1964833
21
3.6816858
0
LINE
8
layer0
10
3.1964833
20
3.6816858
11
3.1738629
21
3.6366077
0
LINE
8
layer0
10
3.1738629
20
3.6366077
11
3.153774
21
3.6003827
0
LINE
8
layer0
10
3.153774
20
3.6003827
11
3.1216219
21
3.5497185
0
LINE
8
layer0
10
3.1216219
20
3.5497185
11
3.0926234
21
3.5125741
0
LINE
8
layer0
10
3.0926234
20
3.5125741
11
3.0568863
21
3.4633595
0
LINE
8
layer0
10
3.0568863
20
3.4633595
11
3.0305041
21
3.4176026
0
LINE
8
layer0
10
3.0305041
20
3.4176026
11
3.0206965
21
3.3962551
0
LINE
8
layer0
10
3.0206965
20
3.3962551
11
3.0130951
21
3.3760248
0
LINE
8
layer0
10
3.0130951
20
3.3760248
11
3.0076363
21
3.3570036
0
LINE
8
layer0
10
3.0076363
20
3.3570036
11
3.0042634
21
3.3392623
0
LINE
8
layer0
10
3.0042634
20
3.3392623
11
3.0029199
21
3.3228998
0
LINE
8
layer0
10
3.0029199
20
3.3228998
11
3.0035563
21
3.3079799
0
LINE
8
layer0
10
3.0035563
20
3.3079799
11
3.0061018
21
3.2945731
0
LINE
8
layer0
10
3.0061018
20
3.2945731
11
3.010493
21
3.2827574
0
LINE
8
layer0
10
3.010493
20
3.2827574
11
3.0166731
21
3.2726033
0
LINE
8
layer0
10
3.0166731
20
3.2726033
11
3.0379711
21
3.251673
0
LINE
8
layer0
10
3.0379711
20
3.251673
11
3.1466252
21
3.1466252
0
LINE
8
layer0
10
3.1466252
20
3.1466252
11
3.251673
21
3.0379711
0
LINE
8
layer0
10
3.251673
20
3.0379711
11
3.2726033
21
3.0166731
0
LINE
8
layer0
10
3.2726033
20
3.0166731
11
3.2827574
21
3.010493
0
LINE
8
layer0
10
3.2827574
20
3.010493
11
3.2945731
21
3.0061018
0
LINE
8
layer0
10
3.2945731
20
3.0061018
11
3.3079799
21
3.0035563
0
LINE
8
layer0
10
3.3079799
20
3.0035563
11
3.3228998
21
3.0029199
0
LINE
8
layer0
10
3.3228998
20
3.0029199
11
3.3392623
21
3.0042634
0
LINE
8
layer0
10
3.3392623
20
3.0042634
11
3.3570036
21
3.0076363
0
LINE
8
layer0
10
3.3570036
20
3.0076363
11
3.3760248
21
3.0130951
0
LINE
8
layer0
10
3.3760248
20
3.0130951
11
3.3962551
21
3.0206965
0
LINE
8
layer0
10
3.3962551
20
3.0206965
11
3.4176026
21
3.0305041
0
LINE
8
layer0
10
3.4176026
20
3.0305041
11
3.4633595
21
3.0568863
0
LINE
8
layer0
10
3.4633595
20
3.0568863
11
3.5125741
21
3.0926234
0
LINE
8
layer0
10
3.5125741
20
3.0926234
11
3.5497185
21
3.1216219
0
LINE
8
layer0
10
3.5497185
20
3.1216219
11
3.6003827
21
3.153774
0
LINE
8
layer0
10
3.6003827
20
3.153774
11
3.6366077
21
3.1738629
0
LINE
8
layer0
10
3.6366077
20
3.1738629
11
3.6816858
21
3.1964833
0
LINE
8
layer0
10
3.6816858
20
3.1964833
11
3.7366846
21
3.2212037
0
LINE
8
layer0
10
3.7366846
20
3.2212037
11
3.797319
21
3.2454787
0
LINE
8
layer0
10
3.797319
20
3.2454787
11
3.8687792
21
3.2706941
0
LINE
8
layer0
10
3.8687792
20
3.2706941
11
3.948562
21
3.2951388
0
LINE
8
layer0
10
3.948562
20
3.2951388
11
4.0364908
21
3.3181127
0
LINE
8
layer0
10
4.0364908
20
3.3181127
11
4.1347574
21
3.3394461
0
LINE
8
layer0
10
4.1347574
20
3.3394461
11
4.2417214
21
3.3579935
0
LINE
8
layer0
10
4.2417214
20
3.3579935
11
4.3453153
21
3.3716687
0
ARC
8
layer0
10
-0.000006
20
-0.0000049
40
5.5
50
34.1909799
51
37.809029
0
LINE
8
layer0
10
4.5494238
20
3.0907375
11
4.5044056
21
2.9964398
0
LINE
8
layer0
10
4.5044056
20
2.9964398
11
4.4537123
21
2.9004424
0
LINE
8
layer0
10
4.4537123
20
2.9004424
11
4.403057
21
2.8135776
0
LINE
8
layer0
10
4.403057
20
2.8135776
11
4.354036
21
2.7370518
0
LINE
8
layer0
10
4.354036
20
2.7370518
11
4.3061335
21
2.6687276
0
LINE
8
layer0
10
4.3061335
20
2.6687276
11
4.2600698
21
2.6085569
0
LINE
8
layer0
10
4.2600698
20
2.6085569
11
4.2182458
21
2.5583915
0
LINE
8
layer0
10
4.2182458
20
2.5583915
11
4.1777397
21
2.5137236
0
LINE
8
layer0
10
4.1777397
20
2.5137236
11
4.1422966
21
2.4778419
0
LINE
8
layer0
10
4.1422966
20
2.4778419
11
4.1119968
21
2.4495976
0
LINE
8
layer0
10
4.1119968
20
2.4495976
11
4.0657622
21
2.4113487
0
LINE
8
layer0
10
4.0657622
20
2.4113487
11
4.0267048
21
2.3849833
0
LINE
8
layer0
10
4.0267048
20
2.3849833
11
3.9775085
21
2.3492208
0
LINE
8
layer0
10
3.9775085
20
2.3492208
11
3.938278
21
2.313856
0
LINE
8
layer0
10
3.938278
20
2.313856
11
3.9223537
21
2.296584
0
LINE
8
layer0
10
3.9223537
20
2.296584
11
3.9088728
21
2.2796927
0
LINE
8
layer0
10
3.9088728
20
2.2796927
11
3.8978032
21
2.2632894
0
LINE
8
layer0
10
3.8978032
20
2.2632894
11
3.889113
21
2.2474587
0
LINE
8
layer0
10
3.889113
20
2.2474587
11
3.882779
21
2.2323123
0
LINE
8
layer0
10
3.882779
20
2.2323123
11
3.8787738
21
2.2179259
0
LINE
8
layer0
10
3.8787738
20
2.2179259
11
3.8770518
21
2.2043887
0
LINE
8
layer0
10
3.8770518
20
2.2043887
11
3.8775768
21
2.1917943
0
LINE
8
layer0
10
3.8775768
20
2.1917943
11
3.8803166
21
2.1802275
0
LINE
8
layer0
10
3.8803166
20
2.1802275
11
3.8941045
21
2.15374
0
LINE
8
layer0
10
3.8941045
20
2.15374
11
3.964979
21
2.0202577
0
LINE
8
layer0
10
3.964979
20
2.0202577
11
4.0313095
21
1.8844601
0
LINE
8
layer0
10
4.0313095
20
1.8844601
11
4.044634
21
1.8577366
0
LINE
8
layer0
10
4.044634
20
1.8577366
11
4.0523813
21
1.8487211
0
LINE
8
layer0
10
4.0523813
20
1.8487211
11
4.0622618
21
1.8408937
0
LINE
8
layer0
10
4.0622618
20
1.8408937
11
4.0742257
21
1.8343298
0
LINE
8
layer0
10
4.0742257
20
1.8343298
11
4.0882188
21
1.829114
0
LINE
8
layer0
10
4.0882188
20
1.829114
11
4.1041956
21
1.8253355
0
LINE
8
layer0
10
4.1041956
20
1.8253355
11
4.1221109
21
1.8230609
0
LINE
8
layer0
10
4.1221109
20
1.8230609
11
4.1418879
21
1.8223747
0
LINE
8
layer0
10
4.1418879
20
1.8223747
11
4.1634771
21
1.8233526
0
LINE
8
layer0
10
4.1634771
20
1.8233526
11
4.1868105
21
1.8260834
0
LINE
8
layer0
10
4.1868105
20
1.8260834
11
4.2384804
21
1.8370346
0
LINE
8
layer0
10
4.2384804
20
1.8370346
11
4.2963297
21
1.8558146
0
LINE
8
layer0
10
4.2963297
20
1.8558146
11
4.3406171
21
1.8719155
0
LINE
8
layer0
10
4.3406171
20
1.8719155
11
4.3987372
21
1.8868379
0
LINE
8
layer0
10
4.3987372
20
1.8868379
11
4.4393971
21
1.8947494
0
LINE
8
layer0
10
4.4393971
20
1.8947494
11
4.4892589
21
1.9023328
0
LINE
8
layer0
10
4.4892589
20
1.9023328
11
4.5492049
21
1.9088478
0
LINE
8
layer0
10
4.5492049
20
1.9088478
11
4.614373
21
1.9131976
0
LINE
8
layer0
10
4.614373
20
1.9131976
11
4.6901277
21
1.9150965
0
LINE
8
layer0
10
4.6901277
20
1.9150965
11
4.7735596
21
1.9136905
0
LINE
8
layer0
10
4.7735596
20
1.9136905
11
4.8642841
21
1.9083685
0
LINE
8
layer0
10
4.8642841
20
1.9083685
11
4.9643336
21
1.8982917
0
LINE
8
layer0
10
4.9643336
20
1.8982917
11
5.0717939
21
1.8828776
0
LINE
8
layer0
10
5.0717939
20
1.8828776
11
5.1745434
21
1.8638713
0
ARC
8
layer0
10
-0.0000073
20
-0.0000024
40
5.5
50
16.1909758
51
19.8090254
0
LINE
8
layer0
10
5.2818496
20
1.5336168
11
5.2098951
21
1.4578457
0
LINE
8
layer1
10
5.2098951
20
1.4578457
11
5.1320181
21
1.3822118
0
LINE
8
layer1
10
5.1320181
20
1.3822118
11
5.0569993
21
1.3152519
0
LINE
8
layer1
10
5.0569993
20
1.3152519
11
4.9867298
21
1.2576198
0
LINE
8
layer1
10
4.9867298
20
1.2576198
11
4.9200585
21
1.2074423
0
LINE
8
layer1
10
4.9200585
20
1.2074423
11
4.8576555
21
1.1644511
0
LINE
8
layer1
10
4.8576555
20
1.1644511
11
4.8023766
21
1.1296653
0
LINE
8
layer1
10
4.8023766
20
1.1296653
11
4.7500499
21
1.0997007
0
LINE
8
layer1
10
4.7500499
20
1.0997007
11
4.7052535
21
1.0765276
0
LINE
8
layer1
10
4.7052535
20
1.0765276
11
4.6677086
21
1.0590289
0
LINE
8
layer1
10
4.6677086
20
1.0590289
11
4.6119173
21
1.0369393
0
LINE
8
layer1
10
4.6119173
20
1.0369393
11
4.5666242
21
1.0239337
0
LINE
8
layer1
10
4.5666242
20
1.0239337
11
4.5087846
21
1.005124
0
LINE
8
layer1
10
4.5087846
20
1.005124
11
4.4605457
21
0.983613
0
LINE
8
layer1
10
4.4605457
20
0.983613
11
4.4400635
21
0.9721072
0
LINE
8
layer1
10
4.4400635
20
0.9721072
11
4.4220227
21
0.9602085
0
LINE
8
layer1
10
4.4220227
20
0.9602085
11
4.4064261
21
0.9480287
0
LINE
8
layer1
10
4.4064261
20
0.9480287
11
4.3932692
21
0.9356582
0
LINE
8
layer1
10
4.3932692
20
0.9356582
11
4.3825647
21
0.9232104
0
LINE
8
layer1
10
4.3825647
20
0.9232104
11
4.3743098
21
0.9107659
0
LINE
8
layer1
10
4.3743098
20
0.9107659
11
4.368489
21
0.8984233
0
LINE
8
layer1
10
4.368489
20
0.8984233
11
4.3650964
21
0.8862831
0
LINE
8
layer1
10
4.3650964
20
0.8862831
11
4.3641278
21
0.8744357
0
LINE
8
layer1
10
4.3641278
20
0.8744357
11
4.3690557
21
0.844984
0
LINE
8
layer1
10
4.3690557
20
0.844984
11
4.3952131
21
0.6961334
0
LINE
8
layer1
10
4.3952131
20
0.6961334
11
4.4163333
21
0.5464849
0
LINE
8
layer1
10
4.4163333
20
0.5464849
11
4.4207477
21
0.5169518
0
LINE
8
layer1
10
4.4207477
20
0.5169518
11
4.4253299
21
0.5059836
0
LINE
8
layer1
10
4.4253299
20
0.5059836
11
4.432308
21
0.495486
0
LINE
8
layer1
10
4.432308
20
0.495486
11
4.441658
21
0.4855463
0
LINE
8
layer1
10
4.441658
20
0.4855463
11
4.4533544
21
0.4762617
0
LINE
8
layer1
10
4.4533544
20
0.4762617
11
4.4673816
21
0.467731
0
LINE
8
layer1
10
4.4673816
20
0.467731
11
4.4837172
21
0.4600317
0
LINE
8
layer1
10
4.4837172
20
0.4600317
11
4.5023143
21
0.4532676
0
LINE
8
layer1
10
4.5023143
20
0.4532676
11
4.523149
21
0.4475262
0
LINE
8
layer1
10
4.523149
20
0.4475262
11
4.5461842
21
0.4429129
0
LINE
8
layer1
10
4.5461842
20
0.4429129
11
4.5987094
21
0.4373613
0
LINE
8
layer1
10
4.5987094
20
0.4373613
11
4.6595306
21
0.4373456
0
LINE
8
layer1
10
4.6595306
20
0.4373456
11
4.7066259
21
0.438973
0
LINE
8
layer1
10
4.7066259
20
0.438973
11
4.7665126
21
0.4352049
0
LINE
8
layer1
10
4.7665126
20
0.4352049
11
4.8076273
21
0.4301646
0
LINE
8
layer1
10
4.8076273
20
0.4301646
11
4.8573921
21
0.4219687
0
LINE
8
layer1
10
4.8573921
20
0.4219687
11
4.9164174
21
0.4096405
0
LINE
8
layer1
10
4.9164174
20
0.4096405
11
4.9797401
21
0.3936393
0
LINE
8
layer1
10
4.9797401
20
0.3936393
11
5.0523739
21
0.3720358
0
LINE
8
layer1
10
5.0523739
20
0.3720358
11
5.1312878
21
0.3449168
0
LINE
8
layer1
10
5.1312878
20
0.3449168
11
5.2159274
21
0.3118198
0
LINE
8
layer1
10
5.2159274
20
0.3118198
11
5.3079662
21
0.2713192
0
LINE
8
layer1
10
5.3079662
20
0.2713192
11
5.4054038
21
0.2234525
0
LINE
8
layer1
10
5.4054038
20
0.2234525
11
5.4972511
21
0.1736251
0
ARC
8
layer1
10
-0.0000077
20
0
40
5.5
50
358.1909759
51
361.8090252
0
LINE
8
layer1
10
5.4972511
20
-0.1736251
11
5.4054038
21
-0.2234525
0
LINE
8
layer1
10
5.4054038
20
-0.2234525
11
5.3079662
21
-0.2713192
0
LINE
8
layer1
10
5.3079662
20
-0.2713192
11
5.2159274
21
-0.3118198
0
LINE
8
layer1
10
5.2159274
20
-0.3118198
11
5.1312878
21
-0.3449168
0
LINE
8
layer1
10
5.1312878
20
-0.3449168
11
5.0523739
21
-0.3720358
0
LINE
8
layer1
10
5.0523739
20
-0.3720358
11
4.9797401
21
-0.3936393
0
LINE
8
layer1
10
4.9797401
20
-0.3936393
11
4.9164174
21
-0.4096405
0
LINE
8
layer1
10
4.9164174
20
-0.4096405
11
4.8573921
21
-0.4219687
0
LINE
8
layer1
10
4.8573921
20
-0.4219687
11
4.8076273
21
-0.4301646
0
LINE
8
layer1
10
4.8076273
20
-0.4301646
11
4.7665126
21
-0.4352049
0
LINE
8
layer1
10
4.7665126
20
-0.4352049
11
4.7066259
21
-0.438973
0
LINE
8
layer1
10
4.7066259
20
-0.438973
11
4.6595306
21
-0.4373456
0
LINE
8
layer1
10
4.6595306
20
-0.4373456
11
4.5987094
21
-0.4373613
0
LINE
8
layer1
10
4.5987094
20
-0.4373613
11
4.5461842
21
-0.4429129
0
LINE
8
layer1
10
4.5461842
20
-0.4429129
11
4.523149
21
-0.4475262
0
LINE
8
layer1
10
4.523149
20
-0.4475262
11
4.5023143
21
-0.4532676
0
LINE
8
layer1
10
4.5023143
20
-0.4532676
11
4.4837172
21
-0.4600317
0
LINE
8
layer1
10
4.4837172
20
-0.4600317
11
4.4673816
21
-0.467731
0
LINE
8
layer1
10
4.4673816
20
-0.467731
11
4.4533544
21
-0.4762617
0
LINE
8
layer1
10
4.4533544
20
-0.4762617
11
4.441658
21
-0.4855463
0
LINE
8
layer1
10
4.441658
20
-0.4855463
11
4.432308
21
-0.495486
0
LINE
8
layer1
10
4.432308
20
-0.495486
11
4.4253299
21
-0.5059836
0
LINE
8
layer1
10
4.4253299
20
-0.5059836
11
4.4207477
21
-0.5169518
0
LINE
8
layer1
10
4.4207477
20
-0.5169518
11
4.4163333
21
-0.5464849
0
LINE
8
layer1
10
4.4163333
20
-0.5464849
11
4.3952131
21
-0.6961334
0
LINE
8
layer1
10
4.3952131
20
-0.6961334
11
4.3690557
21
-0.844984
0
LINE
8
layer1
10
4.3690557
20
-0.844984
11
4.3641278
21
-0.8744357
0
LINE
8
layer1
10
4.3641278
20
-0.8744357
11
4.3650964
21
-0.8862831
0
LINE
8
layer1
10
4.3650964
20
-0.8862831
11
4.368489
21
-0.8984233
0
LINE
8
layer1
10
4.368489
20
-0.8984233
11
4.3743098
21
-0.9107659
0
LINE
8
layer1
10
4.3743098
20
-0.9107659
11
4.3825647
21
-0.9232104
0
LINE
8
layer1
10
4.3825647
20
-0.9232104
11
4.3932692
21
-0.9356582
0
LINE
8
layer1
10
4.3932692
20
-0.9356582
11
4.4064261
21
-0.9480287
0
LINE
8
layer1
10
4.4064261
20
-0.9480287
11
4.4220227
21
-0.9602085
0
LINE
8
layer1
10
4.4220227
20
-0.9602085
11
4.4400635
21
-0.9721072
0
LINE
8
layer1
10
4.4400635
20
-0.9721072
11
4.4605457
21
-0.983613
0
LINE
8
layer1
10
4.4605457
20
-0.983613
11
4.5087846
21
-1.005124
0
LINE
8
layer1
10
4.5087846
20
-1.005124
11
4.5666242
21
-1.0239337
0
LINE
8
layer1
10
4.5666242
20
-1.0239337
11
4.6119173
21
-1.0369393
0
LINE
8
layer1
10
4.6119173
20
-1.0369393
11
4.6677086
21
-1.0590289
0
LINE
8
layer1
10
4.6677086
20
-1.0590289
11
4.7052535
21
-1.0765276
0
LINE
8
layer1
10
4.7052535
20
-1.0765276
11
4.7500499
21
-1.0997007
0
LINE
8
layer1
10
4.7500499
20
-1.0997007
11
4.8023766
21
-1.1296653
0
LINE
8
layer1
10
4.8023766
20
-1.1296653
11
4.8576555
21
-1.1644511
0
LINE
8
layer1
10
4.8576555
20
-1.1644511
11
4.9200585
21
-1.2074423
0
LINE
8
layer1
10
4.9200585
20
-1.2074423
11
4.9867298
21
-1.2576198
0
LINE
8
layer1
10
4.9867298
20
-1.2576198
11
5.0569993
21
-1.3152519
0
LINE
8
layer1
10
5.0569993
20
-1.3152519
11
5.1320181
21
-1.3822118
0
LINE
8
layer1
10
5.1320181
20
-1.3822118
11
5.2098951
21
-1.4578457
0
LINE
8
layer1
10
5.2098951
20
-1.4578457
11
5.2818496
21
-1.5336168
0
ARC
8
layer1
10
-0.0000073
20
0.0000025
40
5.5
50
340.1909736
51
343.8090232
0
LINE
8
layer1
10
5.1745434
20
-1.8638713
11
5.0717939
21
-1.8828776
0
LINE
8
layer1
10
5.0717939
20
-1.8828776
11
4.9643336
21
-1.8982917
0
LINE
8
layer1
10
4.9643336
20
-1.8982917
11
4.8642841
21
-1.9083685
0
LINE
8
layer1
10
4.8642841
20
-1.9083685
11
4.7735596
21
-1.9136905
0
LINE
8
layer1
10
4.7735596
20
-1.9136905
11
4.6901277
21
-1.9150965
0
LINE
8
layer1
10
4.6901277
20
-1.9150965
11
4.614373
21
-1.9131976
0
LINE
8
layer1
10
4.614373
20
-1.9131976
11
4.5492049
21
-1.9088478
0
LINE
8
layer1
10
4.5492049
20
-1.9088478
11
4.4892589
21
-1.9023328
0
LINE
8
layer1
10
4.4892589
20
-1.9023328
11
4.4393971
21
-1.8947494
0
LINE
8
layer1
10
4.4393971
20
-1.8947494
11
4.3987372
21
-1.8868379
0
LINE
8
layer1
10
4.3987372
20
-1.8868379
11
4.3406171
21
-1.8719155
0
LINE
8
layer1
10
4.3406171
20
-1.8719155
11
4.2963297
21
-1.8558146
0
LINE
8
layer1
10
4.2963297
20
-1.8558146
11
4.2384804
21
-1.8370346
0
LINE
8
layer1
10
4.2384804
20
-1.8370346
11
4.1868105
21
-1.8260834
0
LINE
8
layer1
10
4.1868105
20
-1.8260834
11
4.1634771
21
-1.8233526
0
LINE
8
layer1
10
4.1634771
20
-1.8233526
11
4.1418879
21
-1.8223747
0
LINE
8
layer1
10
4.1418879
20
-1.8223747
11
4.1221109
21
-1.8230609
0
LINE
8
layer1
10
4.1221109
20
-1.8230609
11
4.1041956
21
-1.8253355
0
LINE
8
layer1
10
4.1041956
20
-1.8253355
11
4.0882188
21
-1.829114
0
LINE
8
layer1
10
4.0882188
20
-1.829114
11
4.0742257
21
-1.8343298
0
LINE
8
layer1
10
4.0742257
20
-1.8343298
11
4.0622618
21
-1.8408937
0
LINE
8
layer1
10
4.0622618
20
-1.8408937
11
4.0523813
21
-1.8487211
0
LINE
8
layer1
10
4.0523813
20
-1.8487211
11
4.044634
21
-1.8577366
0
LINE
8
layer1
10
4.044634
20
-1.8577366
11
4.0313095
21
-1.8844601
0
LINE
8
layer1
10
4.0313095
20
-1.8844601
11
3.964979
21
-2.0202577
0
LINE
8
layer1
10
3.964979
20
-2.0202577
11
3.8941045
21
-2.15374
0
LINE
8
layer1
10
3.8941045
20
-2.15374
11
3.8803166
21
-2.1802275
0
LINE
8
layer1
10
3.8803166
20
-2.1802275
11
3.8775768
21
-2.1917943
0
LINE
8
layer1
10
3.8775768
20
-2.1917943
11
3.8770518
21
-2.2043887
0
LINE
8
layer1
10
3.8770518
20
-2.2043887
11
3.8787738
21
-2.2179259
0
LINE
8
layer1
10
3.8787738
20
-2.2179259
11
3.882779
21
-2.2323123
0
LINE
8
layer1
10
3.882779
20
-2.2323123
11
3.889113
21
-2.2474587
0
LINE
8
layer1
10
3.889113
20
-2.2474587
11
3.8978032
21
-2.2632894
0
LINE
8
layer1
10
3.8978032
20
-2.2632894
11
3.9088728
21
-2.2796927
0
LINE
8
layer1
10
3.9088728
20
-2.2796927
11
3.9223537
21
-2.296584
0
LINE
8
layer1
10
3.9223537
20
-2.296584
11
3.938278
21
-2.313856
0
LINE
8
layer1
10
3.938278
20
-2.313856
11
3.9775085
21
-2.3492208
0
LINE
8
layer1
10
3.9775085
20
-2.3492208
11
4.0267048
21
-2.3849833
0
LINE
8
layer1
10
4.0267048
20
-2.3849833
11
4.0657622
21
-2.4113487
0
LINE
8
layer1
10
4.0657622
20
-2.4113487
11
4.1119968
21
-2.4495976
0
LINE
8
layer1
10
4.1119968
20
-2.4495976
11
4.1422966
21
-2.4778419
0
LINE
8
layer1
10
4.1422966
20
-2.4778419
11
4.1777397
21
-2.5137236
0
LINE
8
layer1
10
4.1777397
20
-2.5137236
11
4.2182458
21
-2.5583915
0
LINE
8
layer1
10
4.2182458
20
-2.5583915
11
4.2600698
21
-2.6085569
0
LINE
8
layer1
10
4.2600698
20
-2.6085569
11
4.3061335
21
-2.6687276
0
LINE
8
layer1
10
4.3061335
20
-2.6687276
11
4.354036
21
-2.7370518
0
LINE
8
layer1
10
4.354036
20
-2.7370518
11
4.403057
21
-2.8135776
0
LINE
8
layer1
10
4.403057
20
-2.8135776
11
4.4537123
21
-2.9004424
0
LINE
8
layer1
10
4.4537123
20
-2.9004424
11
4.5044056
21
-2.9964398
0
LINE
8
layer1
10
4.5044056
20
-2.9964398
11
4.5494238
21
-3.0907375
0
ARC
8
layer1
10
-0.000006
20
0.0000049
40
5.5
50
322.190971
51
325.8090201
0
LINE
8
layer1
10
4.3453153
20
-3.3716687
11
4.2417214
21
-3.3579935
0
LINE
8
layer1
10
4.2417214
20
-3.3579935
11
4.1347574
21
-3.3394461
0
LINE
8
layer1
10
4.1347574
20
-3.3394461
11
4.0364908
21
-3.3181127
0
LINE
8
layer1
10
4.0364908
20
-3.3181127
11
3.948562
21
-3.2951388
0
LINE
8
layer1
10
3.948562
20
-3.2951388
11
3.8687792
21
-3.2706941
0
LINE
8
layer1
10
3.8687792
20
-3.2706941
11
3.797319
21
-3.2454787
0
LINE
8
layer1
10
3.797319
20
-3.2454787
11
3.7366846
21
-3.2212037
0
LINE
8
layer1
10
3.7366846
20
-3.2212037
11
3.6816858
21
-3.1964833
0
LINE
8
layer1
10
3.6816858
20
-3.1964833
11
3.6366077
21
-3.1738629
0
LINE
8
layer1
10
3.6366077
20
-3.1738629
11
3.6003827
21
-3.153774
0
LINE
8
layer1
10
3.6003827
20
-3.153774
11
3.5497185
21
-3.1216219
0
LINE
8
layer1
10
3.5497185
20
-3.1216219
11
3.5125741
21
-3.0926234
0
LINE
8
layer1
10
3.5125741
20
-3.0926234
11
3.4633595
21
-3.0568863
0
LINE
8
layer1
10
3.4633595
20
-3.0568863
11
3.4176026
21
-3.0305041
0
LINE
8
layer1
10
3.4176026
20
-3.0305041
11
3.3962551
21
-3.0206965
0
LINE
8
layer1
10
3.3962551
20
-3.0206965
11
3.3760248
21
-3.0130951
0
LINE
8
layer1
10
3.3760248
20
-3.0130951
11
3.3570036
21
-3.0076363
0
LINE
8
layer1
10
3.3570036
20
-3.0076363
11
3.3392623
21
-3.0042634
0
LINE
8
layer1
10
3.3392623
20
-3.0042634
11
3.3228998
21
-3.0029199
0
LINE
8
layer1
10
3.3228998
20
-3.0029199
11
3.3079799
21
-3.0035563
0
LINE
8
layer1
10
3.3079799
20
-3.0035563
11
3.2945731
21
-3.0061018
0
LINE
8
layer1
10
3.2945731
20
-3.0061018
11
3.2827574
21
-3.010493
0
LINE
8
layer1
10
3.2827574
20
-3.010493
11
3.2726033
21
-3.0166731
0
LINE
8
layer1
10
3.2726033
20
-3.0166731
11
3.251673
21
-3.0379711
0
LINE
8
layer1
10
3.251673
20
-3.0379711
11
3.1466252
21
-3.1466252
0
LINE
8
layer1
10
3.1466252
20
-3.1466252
11
3.0379711
21
-3.251673
0
LINE
8
layer1
10
3.0379711
20
-3.251673
11
3.0166731
21
-3.2726033
0
LINE
8
layer1
10
3.0166731
20
-3.2726033
11
3.010493
21
-3.2827574
0
LINE
8
layer1
10
3.010493
20
-3.2827574
11
3.0061018
21
-3.2945731
0
LINE
8
layer1
10
3.0061018
20
-3.2945731
11
3.0035563
21
-3.3079799
0
LINE
8
layer1
10
3.0035563
20
-3.3079799
11
3.0029199
21
-3.3228998
0
LINE
8
layer1
10
3.0029199
20
-3.3228998
11
3.0042634
21
-3.3392623
0
LINE
8
layer1
10
3.0042634
20
-3.3392623
11
3.0076363
21
-3.3570036
0
LINE
8
layer1
10
3.0076363
20
-3.3570036
11
3.0130951
21
-3.3760248
0
LINE
8
layer1
10
3.0130951
20
-3.3760248
11
3.0206965
21
-3.3962551
0
LINE
8
layer1
10
3.0206965
20
-3.3962551
11
3.0305041
21
-3.4176026
0
LINE
8
layer1
10
3.0305041
20
-3.4176026
11
3.0568863
21
-3.4633595
0
LINE
8
layer1
10
3.0568863
20
-3.4633595
11
3.0926234
21
-3.5125741
0
LINE
8
layer1
10
3.0926234
20
-3.5125741
11
3.1216219
21
-3.5497185
0
LINE
8
layer1
10
3.1216219
20
-3.5497185
11
3.153774
21
-3.6003827
0
LINE
8
layer1
10
3.153774
20
-3.6003827
11
3.1738629
21
-3.6366077
0
LINE
8
layer1
10
3.1738629
20
-3.6366077
11
3.1964833
21
-3.6816858
0
LINE
8
layer1
10
3.1964833
20
-3.6816858
11
3.2212037
21
-3.7366846
0
LINE
8
layer1
10
3.2212037
20
-3.7366846
11
3.2454787
21
-3.797319
0
LINE
8
layer1
10
3.2454787
20
-3.797319
11
3.2706941
21
-3.8687792
0
LINE
8
layer1
10
3.2706941
20
-3.8687792
11
3.2951388
21
-3.948562
0
LINE
8
layer1
10
3.2951388
20
-3.948562
11
3.3181127
21
-4.0364908
0
LINE
8
layer1
10
3.3181127
20
-4.0364908
11
3.3394461
21
-4.1347574
0
LINE
8
layer1
10
3.3394461
20
-4.1347574
11
3.3579935
21
-4.2417214
0
LINE
8
layer1
10
3.3579935
20
-4.2417214
11
3.3716687
21
-4.3453153
0
ARC
8
layer1
10
-0.0000049
20
0.000006
40
5.5
50
304.1909799
51
307.809029
0
LINE
8
layer1
10
3.0907375
20
-4.5494238
11
2.9964398
21
-4.5044056
0
LINE
8
layer1
10
2.9964398
20
-4.5044056
11
2.9004424
21
-4.4537123
0
LINE
8
layer1
10
2.9004424
20
-4.4537123
11
2.8135776
21
-4.403057
0
LINE
8
layer1
10
2.8135776
20
-4.403057
11
2.7370518
21
-4.354036
0
LINE
8
layer1
10
2.7370518
20
-4.354036
11
2.6687276
21
-4.3061335
0
LINE
8
layer1
10
2.6687276
20
-4.3061335
11
2.6085569
21
-4.2600698
0
LINE
8
layer1
10
2.6085569
20
-4.2600698
11
2.5583915
21
-4.2182458
0
LINE
8
layer1
10
2.5583915
20
-4.2182458
11
2.5137236
21
-4.1777397
0
LINE
8
layer1
10
2.5137236
20
-4.1777397
11
2.4778419
21
-4.1422966
0
LINE
8
layer1
10
2.4778419
20
-4.1422966
11
2.4495976
21
-4.1119968
0
LINE
8
layer1
10
2.4495976
20
-4.1119968
11
2.4113487
21
-4.0657622
0
LINE
8
layer1
10
2.4113487
20
-4.0657622
11
2.3849833
21
-4.0267048
0
LINE
8
layer1
10
2.3849833
20
-4.0267048
11
2.3492208
21
-3.9775085
0
LINE
8
layer1
10
2.3492208
20
-3.9775085
11
2.313856
21
-3.938278
0
LINE
8
layer1
10
2.313856
20
-3.938278
11
2.296584
21
-3.9223537
0
LINE
8
layer1
10
2.296584
20
-3.9223537
11
2.2796927
21
-3.9088728
0
LINE
8
layer1
10
2.2796927
20
-3.9088728
11
2.2632894
21
-3.8978032
0
LINE
8
layer1
10
2.2632894
20
-3.8978032
11
2.2474587
21
-3.889113
0
LINE
8
layer1
10
2.2474587
20
-3.889113
11
2.2323123
21
-3.882779
0
LINE
8
layer1
10
2.2323123
20
-3.882779
11
2.2179259
21
-3.8787738
0
LINE
8
layer1
10
2.2179259
20
-3.8787738
11
2.2043887
21
-3.8770518
0
LINE
8
layer1
10
2.2043887
20
-3.8770518
11
2.1917943
21
-3.8775768
0
LINE
8
layer1
10
2.1917943
20
-3.8775768
11
2.1802275
21
-3.8803166
0
LINE
8
layer1
10
2.1802275
20
-3.8803166
11
2.15374
21
-3.8941045
0
LINE
8
layer1
10
2.15374
20
-3.8941045
11
2.0202577
21
-3.964979
0
LINE
8
layer1
10
2.0202577
20
-3.964979
11
1.8844601
21
-4.0313095
0
LINE
8
layer1
10
1.8844601
20
-4.0313095
11
1.8577366
21
-4.044634
0
LINE
8
layer1
10
1.8577366
20
-4.044634
11
1.8487211
21
-4.0523813
0
LINE
8
layer1
10
1.8487211
20
-4.0523813
11
1.8408937
21
-4.0622618
0
LINE
8
layer1
10
1.8408937
20
-4.0622618
11
1.8343298
21
-4.0742257
0
LINE
8
layer1
10
1.8343298
20
-4.0742257
11
1.829114
21
-4.0882188
0
LINE
8
layer1
10
1.829114
20
-4.0882188
11
1.8253355
21
-4.1041956
0
LINE
8
layer1
10
1.8253355
20
-4.1041956
11
1.8230609
21
-4.1221109
0
LINE
8
layer1
10
1.8230609
20
-4.1221109
11
1.8223747
21
-4.1418879
0
LINE
8
layer1
10
1.8223747
20
-4.1418879
11
1.8233526
21
-4.1634771
0
LINE
8
layer1
10
1.8233526
20
-4.1634771
11
1.8260834
21
-4.1868105
0
LINE
8
layer1
10
1.8260834
20
-4.1868105
11
1.8370346
21
-4.2384804
0
LINE
8
layer1
10
1.8370346
20
-4.2384804
11
1.8558146
21
-4.2963297
0
LINE
8
layer1
10
1.8558146
20
-4.2963297
11
1.8719155
21
-4.3406171
0
LINE
8
layer1
10
1.8719155
20
-4.3406171
11
1.8868379
21
-4.3987372
0
LINE
8
layer1
10
1.8868379
20
-4.3987372
11
1.8947494
21
-4.4393971
0
LINE
8
layer1
10
1.8947494
20
-4.4393971
11
1.9023328
21
-4.4892589
0
LINE
8
layer1
10
1.9023328
20
-4.4892589
11
1.9088478
21
-4.5492049
0
LINE
8
layer1
10
1.9088478
20
-4.5492049
11
1.9131976
21
-4.614373
0
LINE
8
layer1
10
1.9131976
20
-4.614373
11
1.9150965
21
-4.6901277
0
LINE
8
layer1
10
1.9150965
20
-4.6901277
11
1.9136905
21
-4.7735596
0
LINE
8
layer1
10
1.9136905
20
-4.7735596
11
1.9083685
21
-4.8642841
0
LINE
8
layer1
10
1.9083685
20
-4.8642841
11
1.8982917
21
-4.9643336
0
LINE
8
layer1
10
1.8982917
20
-4.9643336
11
1.8828776
21
-5.0717939
0
LINE
8
layer1
10
1.8828776
20
-5.0717939
11
1.8638713
21
-5.1745434
0
ARC
8
layer1
10
-0.0000024
20
0.0000073
40
5.5
50
286.1909758
51
289.8090254
0
LINE
8
layer1
10
1.5336168
20
-5.2818496
11
1.4578457
21
-5.2098951
0
LINE
8
layer1
10
1.4578457
20
-5.2098951
11
1.3822118
21
-5.1320181
0
LINE
8
layer1
10
1.3822118
20
-5.1320181
11
1.3152519
21
-5.0569993
0
LINE
8
layer1
10
1.3152519
20
-5.0569993
11
1.2576198
21
-4.9867298
0
LINE
8
layer1
10
1.2576198
20
-4.9867298
11
1.2074423
21
-4.9200585
0
LINE
8
layer1
10
1.2074423
20
-4.9200585
11
1.1644511
21
-4.8576555
0
LINE
8
layer1
10
1.1644511
20
-4.8576555
11
1.1296653
21
-4.8023766
0
LINE
8
layer1
10
1.1296653
20
-4.8023766
11
1.0997007
21
-4.7500499
0
LINE
8
layer1
10
1.0997007
20
-4.7500499
11
1.0765276
21
-4.7052535
0
LINE
8
layer1
10
1.0765276
20
-4.7052535
11
1.0590289
21
-4.6677086
0
LINE
8
layer1
10
1.0590289
20
-4.6677086
11
1.0369393
21
-4.6119173
0
LINE
8
layer1
10
1.0369393
20
-4.6119173
11
1.0239337
21
-4.5666242
0
LINE
8
layer1
10
1.0239337
20
-4.5666242
11
1.005124
21
-4.5087846
0
LINE
8
layer1
10
1.005124
20
-4.5087846
11
0.983613
21
-4.4605457
0
LINE
8
layer1
10
0.983613
20
-4.4605457
11
0.9721072
21
-4.4400635
0
LINE
8
layer1
10
0.9721072
20
-4.4400635
11
0.9602085
21
-4.4220227
0
LINE
8
layer1
10
0.9602085
20
-4.4220227
11
0.9480287
21
-4.4064261
0
LINE
8
layer1
10
0.9480287
20
-4.4064261
11
0.9356582
21
-4.3932692
0
LINE
8
layer1
10
0.9356582
20
-4.3932692
11
0.9232104
21
-4.3825647
0
LINE
8
layer1
10
0.9232104
20
-4.3825647
11
0.9107659
21
-4.3743098
0
LINE
8
layer1
10
0.9107659
20
-4.3743098
11
0.8984233
21
-4.368489
0
LINE
8
layer1
10
0.8984233
20
-4.368489
11
0.8862831
21
-4.3650964
0
LINE
8
layer1
10
0.8862831
20
-4.3650964
11
0.8744357
21
-4.3641278
0
LINE
8
layer1
10
0.8744357
20
-4.3641278
11
0.844984
21
-4.3690557
0
LINE
8
layer1
10
0.844984
20
-4.3690557
11
0.6961334
21
-4.3952131
0
LINE
8
layer1
10
0.6961334
20
-4.3952131
11
0.5464849
21
-4.4163333
0
LINE
8
layer1
10
0.5464849
20
-4.4163333
11
0.5169518
21
-4.4207477
0
LINE
8
layer1
10
0.5169518
20
-4.4207477
11
0.5059836
21
-4.4253299
0
LINE
8
layer1
10
0.5059836
20
-4.4253299
11
0.495486
21
-4.432308
0
LINE
8
layer1
10
0.495486
20
-4.432308
11
0.4855463
21
-4.441658
0
LINE
8
layer1
10
0.4855463
20
-4.441658
11
0.4762617
21
-4.4533544
0
LINE
8
layer1
10
0.4762617
20
-4.4533544
11
0.467731
21
-4.4673816
0
LINE
8
layer1
10
0.467731
20
-4.4673816
11
0.4600317
21
-4.4837172
0
LINE
8
layer1
10
0.4600317
20
-4.4837172
11
0.4532676
21
-4.5023143
0
LINE
8
layer1
10
0.4532676
20
-4.5023143
11
0.4475262
21
-4.523149
0
LINE
8
layer1
10
0.4475262
20
-4.523149
11
0.4429129
21
-4.5461842
0
LINE
8
layer1
10
0.4429129
20
-4.5461842
11
0.4373613
21
-4.5987094
0
LINE
8
layer1
10
0.4373613
20
-4.5987094
11
0.4373456
21
-4.6595306
0
LINE
8
layer1
10
0.4373456
20
-4.6595306
11
0.438973
21
-4.7066259
0
LINE
8
layer1
10
0.438973
20
-4.7066259
11
0.4352049
21
-4.7665126
0
LINE
8
layer1
10
0.4352049
20
-4.7665126
11
0.4301646
21
-4.8076273
0
LINE
8
layer1
10
0.4301646
20
-4.8076273
11
0.4219687
21
-4.8573921
0
LINE
8
layer1
10
0.4219687
20
-4.8573921
11
0.4096405
21
-4.9164174
0
LINE
8
layer1
10
0.4096405
20
-4.9164174
11
0.3936393
21
-4.9797401
0
LINE
8
layer1
10
0.3936393
20
-4.9797401
11
0.3720358
21
-5.0523739
0
LINE
8
layer1
10
0.3720358
20
-5.0523739
11
0.3449168
21
-5.1312878
0
LINE
8
layer1
10
0.3449168
20
-5.1312878
11
0.3118198
21
-5.2159274
0
LINE
8
layer1
10
0.3118198
20
-5.2159274
11
0.2713192
21
-5.3079662
0
LINE
8
layer1
10
0.2713192
20
-5.3079662
11
0.2234525
21
-5.4054038
0
LINE
8
layer1
10
0.2234525
20
-5.4054038
11
0.1736251
21
-5.4972511
0
ARC
8
layer1
10
1e-7
20
0.0000077
40
5.5
50
268.1909748
51
271.8090241
0
LINE
8
layer1
10
-0.1736251
20
-5.4972511
11
-0.2234525
21
-5.4054038
0
LINE
8
layer1
10
-0.2234525
20
-5.4054038
11
-0.2713192
21
-5.3079662
0
LINE
8
layer1
10
-0.2713192
20
-5.3079662
11
-0.3118198
21
-5.2159274
0
LINE
8
layer1
10
-0.3118198
20
-5.2159274
11
-0.3449168
21
-5.1312878
0
LINE
8
layer1
10
-0.3449168
20
-5.1312878
11
-0.3720358
21
-5.0523739
0
LINE
8
layer1
10
-0.3720358
20
-5.0523739
11
-0.3936393
21
-4.9797401
0
LINE
8
layer1
10
-0.3936393
20
-4.9797401
11
-0.4096405
21
-4.9164174
0
LINE
8
layer1
10
-0.4096405
20
-4.9164174
11
-0.4219687
21
-4.8573921
0
LINE
8
layer1
10
-0.4219687
20
-4.8573921
11
-0.4301646
21
-4.8076273
0
LINE
8
layer1
10
-0.4301646
20
-4.8076273
11
-0.4352049
21
-4.7665126
0
LINE
8
layer1
10
-0.4352049
20
-4.7665126
11
-0.438973
21
-4.7066259
0
LINE
8
layer1
10
-0.438973
20
-4.7066259
11
-0.4373456
21
-4.6595306
0
LINE
8
layer1
10
-0.4373456
20
-4.6595306
11
-0.4373613
21
-4.5987094
0
LINE
8
layer1
10
-0.4373613
20
-4.5987094
11
-0.4429129
21
-4.5461842
0
LINE
8
layer1
10
-0.4429129
20
-4.5461842
11
-0.4475262
21
-4.523149
0
LINE
8
layer1
10
-0.4475262
20
-4.523149
11
-0.4532676
21
-4.5023143
0
LINE
8
layer1
10
-0.4532676
20
-4.5023143
11
-0.4600317
21
-4.4837172
0
LINE
8
layer1
10
-0.4600317
20
-4.4837172
11
-0.467731
21
-4.4673816
0
LINE
8
layer1
10
-0.467731
20
-4.4673816
11
-0.4762617
21
-4.4533544
0
LINE
8
layer1
10
-0.4762617
20
-4.4533544
11
-0.4855463
21
-4.441658
0
LINE
8
layer1
10
-0.4855463
20
-4.441658
11
-0.495486
21
-4.432308
0
LINE
8
layer1
10
-0.495486
20
-4.432308
11
-0.5059836
21
-4.4253299
0
LINE
8
layer1
10
-0.5059836
20
-4.4253299
11
-0.5169518
21
-4.4207477
0
LINE
8
layer1
10
-0.5169518
20
-4.4207477
11
-0.5464849
21
-4.4163333
0
LINE
8
layer1
10
-0.5464849
20
-4.4163333
11
-0.6961334
21
-4.3952131
0
LINE
8
layer1
10
-0.6961334
20
-4.3952131
11
-0.844984
21
-4.3690557
0
LINE
8
layer1
10
-0.844984
20
-4.3690557
11
-0.8744357
21
-4.3641278
0
LINE
8
layer1
10
-0.8744357
20
-4.3641278
11
-0.8862831
21
-4.3650964
0
LINE
8
layer1
10
-0.8862831
20
-4.3650964
11
-0.8984233
21
-4.368489
0
LINE
8
layer1
10
-0.8984233
20
-4.368489
11
-0.9107659
21
-4.3743098
0
LINE
8
layer1
10
-0.9107659
20
-4.3743098
11
-0.9232104
21
-4.3825647
0
LINE
8
layer1
10
-0.9232104
20
-4.3825647
11
-0.9356582
21
-4.3932692
0
LINE
8
layer1
10
-0.9356582
20
-4.3932692
11
-0.9480287
21
-4.4064261
0
LINE
8
layer1
10
-0.9480287
20
-4.4064261
11
-0.9602085
21
-4.4220227
0
LINE
8
layer1
10
-0.9602085
20
-4.4220227
11
-0.9721072
21
-4.4400635
0
LINE
8
layer1
10
-0.9721072
20
-4.4400635
11
-0.983613
21
-4.4605457
0
LINE
8
layer1
10
-0.983613
20
-4.4605457
11
-1.005124
21
-4.5087846
0
LINE
8
layer1
10
-1.005124
20
-4.5087846
11
-1.0239337
21
-4.5666242
0
LINE
8
layer1
10
-1.0239337
20
-4.5666242
11
-1.0369393
21
-4.6119173
0
LINE
8
layer1
10
-1.0369393
20
-4.6119173
11
-1.0590289
21
-4.6677086
0
LINE
8
layer1
10
-1.0590289
20
-4.6677086
11
-1.0765276
21
-4.7052535
0
LINE
8
layer1
10
-1.0765276
20
-4.7052535
11
-1.0997007
21
-4.7500499
0
LINE
8
layer1
10
-1.0997007
20
-4.7500499
11
-1.1296653
21
-4.8023766
0
LINE
8
layer1
10
-1.1296653
20
-4.8023766
11
-1.1644511
21
-4.8576555
0
LINE
8
layer1
10
-1.1644511
20
-4.8576555
11
-1.2074423
21
-4.9200585
0
LINE
8
layer1
10
-1.2074423
20
-4.9200585
11
-1.2576198
21
-4.9867298
0
LINE
8
layer1
10
-1.2576198
20
-4.9867298
11
-1.3152519
21
-5.0569993
0
LINE
8
layer1
10
-1.3152519
20
-5.0569993
11
-1.3822118
21
-5.1320181
0
LINE
8
layer1
10
-1.3822118
20
-5.1320181
11
-1.4578457
21
-5.2098951
0
LINE
8
layer1
10
-1.4578457
20
-5.2098951
11
-1.5336168
21
-5.2818496
0
ARC
8
layer1
10
0.0000025
20
0.0000073
40
5.5
50
250.1909736
51
253.8090232
0
LINE
8
layer1
10
-1.8638713
20
-5.1745434
11
-1.8828776
21
-5.0717939
0
LINE
8
layer1
10
-1.8828776
20
-5.0717939
11
-1.8982917
21
-4.9643336
0
LINE
8
layer1
10
-1.8982917
20
-4.9643336
11
-1.9083685
21
-4.8642841
0
LINE
8
layer1
10
-1.9083685
20
-4.8642841
11
-1.9136905
21
-4.7735596
0
LINE
8
layer1
10
-1.9136905
20
-4.7735596
11
-1.9150965
21
-4.6901277
0
LINE
8
layer1
10
-1.9150965
20
-4.6901277
11
-1.9131976
21
-4.614373
0
LINE
8
layer1
10
-1.9131976
20
-4.614373
11
-1.9088478
21
-4.5492049
0
LINE
8
layer1
10
-1.9088478
20
-4.5492049
11
-1.9023328
21
-4.4892589
0
LINE
8
layer1
10
-1.9023328
20
-4.4892589
11
-1.8947494
21
-4.4393971
0
LINE
8
layer1
10
-1.8947494
20
-4.4393971
11
-1.8868379
21
-4.3987372
0
LINE
8
layer1
10
-1.8868379
20
-4.3987372
11
-1.8719155
21
-4.3406171
0
LINE
8
layer1
10
-1.8719155
20
-4.3406171
11
-1.8558146
21
-4.2963297
0
LINE
8
layer1
10
-1.8558146
20
-4.2963297
11
-1.8370346
21
-4.2384804
0
LINE
8
layer1
10
-1.8370346
20
-4.2384804
11
-1.8260834
21
-4.1868105
0
LINE
8
layer1
10
-1.8260834
20
-4.1868105
11
-1.8233526
21
-4.1634771
0
LINE
8
layer1
10
-1.8233526
20
-4.1634771
11
-1.8223747
21
-4.1418879
0
LINE
8
layer1
10
-1.8223747
20
-4.1418879
11
-1.8230609
21
-4.1221109
0
LINE
8
layer1
10
-1.8230609
20
-4.1221109
11
-1.8253355
21
-4.1041956
0
LINE
8
layer1
10
-1.8253355
20
-4.1041956
11
-1.829114
21
-4.0882188
0
LINE
8
layer1
10
-1.829114
20
-4.0882188
11
-1.8343298
21
-4.0742257
0
LINE
8
layer1
10
-1.8343298
20
-4.0742257
11
-1.8408937
21
-4.0622618
0
LINE
8
layer1
10
-1.8408937
20
-4.0622618
11
-1.8487211
21
-4.0523813
0
LINE
8
layer1
10
-1.8487211
20
-4.0523813
11
-1.8577366
21
-4.044634
0
LINE
8
layer1
10
-1.8577366
20
-4.044634
11
-1.8844601
21
-4.0313095
0
LINE
8
layer1
10
-1.8844601
20
-4.0313095
11
-2.0202577
21
-3.964979
0
LINE
8
layer1
10
-2.0202577
20
-3.964979
11
-2.15374
21
-3.8941045
0
LINE
8
layer1
10
-2.15374
20
-3.8941045
11
-2.1802275
21
-3.8803166
0
LINE
8
layer1
10
-2.1802275
20
-3.8803166
11
-2.1917943
21
-3.8775768
0
LINE
8
layer1
10
-2.1917943
20
-3.8775768
11
-2.2043887
21
-3.8770518
0
LINE
8
layer1
10
-2.2043887
20
-3.8770518
11
-2.2179259
21
-3.8787738
0
LINE
8
layer1
10
-2.2179259
20
-3.8787738
11
-2.2323123
21
-3.882779
0
LINE
8
layer1
10
-2.2323123
20
-3.882779
11
-2.2474587
21
-3.889113
0
LINE
8
layer1
10
-2.2474587
20
-3.889113
11
-2.2632894
21
-3.8978032
0
LINE
8
layer1
10
-2.2632894
20
-3.8978032
11
-2.2796927
21
-3.9088728
0
LINE
8
layer1
10
-2.2796927
20
-3.9088728
11
-2.296584
21
-3.9223537
0
LINE
8
layer1
10
-2.296584
20
-3.9223537
11
-2.313856
21
-3.938278
0
LINE
8
layer1
10
-2.313856
20
-3.938278
11
-2.3492208
21
-3.9775085
0
LINE
8
layer1
10
-2.3492208
20
-3.9775085
11
-2.3849833
21
-4.0267048
0
LINE
8
layer1
10
-2.3849833
20
-4.0267048
11
-2.4113487
21
-4.0657622
0
LINE
8
layer1
10
-2.4113487
20
-4.0657622
11
-2.4495976
21
-4.1119968
0
LINE
8
layer1
10
-2.4495976
20
-4.1119968
11
-2.4778419
21
-4.1422966
0
LINE
8
layer1
10
-2.4778419
20
-4.1422966
11
-2.5137236
21
-4.1777397
0
LINE
8
layer1
10
-2.5137236
20
-4.1777397
11
-2.5583915
21
-4.2182458
0
LINE
8
layer1
10
-2.5583915
20
-4.2182458
11
-2.6085569
21
-4.2600698
0
LINE
8
layer1
10
-2.6085569
20
-4.2600698
11
-2.6687276
21
-4.3061335
0
LINE
8
layer1
10
-2.6687276
20
-4.3061335
11
-2.7370518
21
-4.354036
0
LINE
8
layer1
10
-2.7370518
20
-4.354036
11
-2.8135776
21
-4.403057
0
LINE
8
layer1
10
-2.8135776
20
-4.403057
11
-2.9004424
21
-4.4537123
0
LINE
8
layer1
10
-2.9004424
20
-4.4537123
11
-2.9964398
21
-4.5044056
0
LINE
8
layer1
10
-2.9964398
20
-4.5044056
11
-3.0907375
21
-4.5494238
0
ARC
8
layer1
10
0.0000049
20
0.000006
40
5.5
50
232.190971
51
235.8090201
0
LINE
8
layer1
10
-3.3716687
20
-4.3453153
11
-3.3579935
21
-4.2417214
0
LINE
8
layer1
10
-3.3579935
20
-4.2417214
11
-3.3394461
21
-4.1347574
0
LINE
8
layer1
10
-3.3394461
20
-4.1347574
11
-3.3181127
21
-4.0364908
0
LINE
8
layer1
10
-3.3181127
20
-4.0364908
11
-3.2951388
21
-3.948562
0
LINE
8
layer1
10
-3.2951388
20
-3.948562
11
-3.2706941
21
-3.8687792
0
LINE
8
layer1
10
-3.2706941
20
-3.8687792
11
-3.2454787
21
-3.797319
0
LINE
8
layer1
10
-3.2454787
20
-3.797319
11
-3.2212037
21
-3.7366846
0
LINE
8
layer1
10
-3.2212037
20
-3.7366846
11
-3.1964833
21
-3.6816858
0
LINE
8
layer1
10
-3.1964833
20
-3.6816858
11
-3.1738629
21
-3.6366077
0
LINE
8
layer1
10
-3.1738629
20
-3.6366077
11
-3.153774
21
-3.6003827
0
LINE
8
layer1
10
-3.153774
20
-3.6003827
11
-3.1216219
21
-3.5497185
0
LINE
8
layer1
10
-3.1216219
20
-3.5497185
11
-3.0926234
21
-3.5125741
0
LINE
8
layer1
10
-3.0926234
20
-3.5125741
11
-3.0568863
21
-3.4633595
0
LINE
8
layer1
10
-3.0568863
20
-3.4633595
11
-3.0305041
21
-3.4176026
0
LINE
8
layer1
10
-3.0305041
20
-3.4176026
11
-3.0206965
21
-3.3962551
0
LINE
8
layer1
10
-3.0206965
20
-3.3962551
11
-3.0130951
21
-3.3760248
0
LINE
8
layer1
10
-3.0130951
20
-3.3760248
11
-3.0076363
21
-3.3570036
0
LINE
8
layer1
10
-3.0076363
20
-3.3570036
11
-3.0042634
21
-3.3392623
0
LINE
8
layer1
10
-3.0042634
20
-3.3392623
11
-3.0029199
21
-3.3228998
0
LINE
8
layer1
10
-3.0029199
20
-3.3228998
11
-3.0035563
21
-3.3079799
0
LINE
8
layer1
10
-3.0035563
20
-3.3079799
11
-3.0061018
21
-3.2945731
0
LINE
8
layer1
10
-3.0061018
20
-3.2945731
11
-3.010493
21
-3.2827574
0
LINE
8
layer1
10
-3.010493
20
-3.2827574
11
-3.0166731
21
-3.2726033
0
LINE
8
layer1
10
-3.0166731
20
-3.2726033
11
-3.0379711
21
-3.251673
0
LINE
8
layer1
10
-3.0379711
20
-3.251673
11
-3.1466252
21
-3.1466252
0
LINE
8
layer1
10
-3.1466252
20
-3.1466252
11
-3.251673
21
-3.0379711
0
LINE
8
layer1
10
-3.251673
20
-3.0379711
11
-3.2726033
21
-3.0166731
0
LINE
8
layer1
10
-3.2726033
20
-3.0166731
11
-3.2827574
21
-3.010493
0
LINE
8
layer1
10
-3.2827574
20
-3.010493
11
-3.2945731
21
-3.0061018
0
LINE
8
layer1
10
-3.2945731
20
-3.0061018
11
-3.3079799
21
-3.0035563
0
LINE
8
layer1
10
-3.3079799
20
-3.0035563
11
-3.3228998
21
-3.0029199
0
LINE
8
layer1
10
-3.3228998
20
-3.0029199
11
-3.3392623
21
-3.0042634
0
LINE
8
layer1
10
-3.3392623
20
-3.0042634
11
-3.3570036
21
-3.0076363
0
LINE
8
layer1
10
-3.3570036
20
-3.0076363
11
-3.3760248
21
-3.0130951
0
LINE
8
layer1
10
-3.3760248
20
-3.0130951
11
-3.3962551
21
-3.0206965
0
LINE
8
layer1
10
-3.3962551
20
-3.0206965
11
-3.4176026
21
-3.0305041
0
LINE
8
layer1
10
-3.4176026
20
-3.0305041
11
-3.4633595
21
-3.0568863
0
LINE
8
layer1
10
-3.4633595
20
-3.0568863
11
-3.5125741
21
-3.0926234
0
LINE
8
layer1
10
-3.5125741
20
-3.0926234
11
-3.5497185
21
-3.1216219
0
LINE
8
layer1
10
-3.5497185
20
-3.1216219
11
-3.6003827
21
-3.153774
0
LINE
8
layer1
10
-3.6003827
20
-3.153774
11
-3.6366077
21
-3.1738629
0
LINE
8
layer1
10
-3.6366077
20
-3.1738629
11
-3.6816858
21
-3.1964833
0
LINE
8
layer1
10
-3.6816858
20
-3.1964833
11
-3.7366846
21
-3.2212037
0
LINE
8
layer1
10
-3.7366846
20
-3.2212037
11
-3.797319
21
-3.2454787
0
LINE
8
layer1
10
-3.797319
20
-3.2454787
11
-3.8687792
21
-3.2706941
0
LINE
8
layer1
10
-3.8687792
20
-3.2706941
11
-3.948562
21
-3.2951388
0
LINE
8
layer1
10
-3.948562
20
-3.2951388
11
-4.0364908
21
-3.3181127
0
LINE
8
layer1
10
-4.0364908
20
-3.3181127
11
-4.1347574
21
-3.3394461
0
LINE
8
layer1
10
-4.1347574
20
-3.3394461
11
-4.2417214
21
-3.3579935
0
LINE
8
layer1
10
-4.2417214
20
-3.3579935
11
-4.3453153
21
-3.3716687
0
ARC
8
layer1
10
0.000006
20
0.0000049
40
5.5
50
214.1909799
51
217.809029
0
LINE
8
layer1
10
-4.5494238
20
-3.0907375
11
-4.5044056
21
-2.9964398
0
LINE
8
layer1
10
-4.5044056
20
-2.9964398
11
-4.4537123
21
-2.9004424
0
LINE
8
layer1
10
-4.4537123
20
-2.9004424
11
-4.403057
21
-2.8135776
0
LINE
8
layer1
10
-4.403057
20
-2.8135776
11
-4.354036
21
-2.7370518
0
LINE
8
layer1
10
-4.354036
20
-2.7370518
11
-4.3061335
21
-2.6687276
0
LINE
8
layer1
10
-4.3061335
20
-2.6687276
11
-4.2600698
21
-2.6085569
0
LINE
8
layer1
10
-4.2600698
20
-2.6085569
11
-4.2182458
21
-2.5583915
0
LINE
8
layer1
10
-4.2182458
20
-2.5583915
11
-4.1777397
21
-2.5137236
0
LINE
8
layer1
10
-4.1777397
20
-2.5137236
11
-4.1422966
21
-2.4778419
0
LINE
8
layer1
10
-4.1422966
20
-2.4778419
11
-4.1119968
21
-2.4495976
0
LINE
8
layer1
10
-4.1119968
20
-2.4495976
11
-4.0657622
21
-2.4113487
0
LINE
8
layer1
10
-4.0657622
20
-2.4113487
11
-4.0267048
21
-2.3849833
0
LINE
8
layer1
10
-4.0267048
20
-2.3849833
11
-3.9775085
21
-2.3492208
0
LINE
8
layer1
10
-3.9775085
20
-2.3492208
11
-3.938278
21
-2.313856
0
LINE
8
layer1
10
-3.938278
20
-2.313856
11
-3.9223537
21
-2.296584
0
LINE
8
layer1
10
-3.9223537
20
-2.296584
11
-3.9088728
21
-2.2796927
0
LINE
8
layer1
10
-3.9088728
20
-2.2796927
11
-3.8978032
21
-2.2632894
0
LINE
8
layer1
10
-3.8978032
20
-2.2632894
11
-3.889113
21
-2.2474587
0
LINE
8
layer1
10
-3.889113
20
-2.2474587
11
-3.882779
21
-2.2323123
0
LINE
8
layer1
10
-3.882779
20
-2.2323123
11
-3.8787738
21
-2.2179259
0
LINE
8
layer1
10
-3.8787738
20
-2.2179259
11
-3.8770518
21
-2.2043887
0
LINE
8
layer1
10
-3.8770518
20
-2.2043887
11
-3.8775768
21
-2.1917943
0
LINE
8
layer1
10
-3.8775768
20
-2.1917943
11
-3.8803166
21
-2.1802275
0
LINE
8
layer1
10
-3.8803166
20
-2.1802275
11
-3.8941045
21
-2.15374
0
LINE
8
layer1
10
-3.8941045
20
-2.15374
11
-3.964979
21
-2.0202577
0
LINE
8
layer1
10
-3.964979
20
-2.0202577
11
-4.0313095
21
-1.8844601
0
LINE
8
layer1
10
-4.0313095
20
-1.8844601
11
-4.044634
21
-1.8577366
0
LINE
8
layer1
10
-4.044634
20
-1.8577366
11
-4.0523813
21
-1.8487211
0
LINE
8
layer1
10
-4.0523813
20
-1.8487211
11
-4.0622618
21
-1.8408937
0
LINE
8
layer1
10
-4.0622618
20
-1.8408937
11
-4.0742257
21
-1.8343298
0
LINE
8
layer1
10
-4.0742257
20
-1.8343298
11
-4.0882188
21
-1.829114
0
LINE
8
layer1
10
-4.0882188
20
-1.829114
11
-4.1041956
21
-1.8253355
0
LINE
8
layer1
10
-4.1041956
20
-1.8253355
11
-4.1221109
21
-1.8230609
0
LINE
8
layer1
10
-4.1221109
20
-1.8230609
11
-4.1418879
21
-1.8223747
0
LINE
8
layer1
10
-4.1418879
20
-1.8223747
11
-4.1634771
21
-1.8233526
0
LINE
8
layer1
10
-4.1634771
20
-1.8233526
11
-4.1868105
21
-1.8260834
0
LINE
8
layer1
10
-4.1868105
20
-1.8260834
11
-4.2384804
21
-1.8370346
0
LINE
8
layer1
10
-4.2384804
20
-1.8370346
11
-4.2963297
21
-1.8558146
0
LINE
8
layer1
10
-4.2963297
20
-1.8558146
11
-4.3406171
21
-1.8719155
0
LINE
8
layer1
10
-4.3406171
20
-1.8719155
11
-4.3987372
21
-1.8868379
0
LINE
8
layer1
10
-4.3987372
20
-1.8868379
11
-4.4393971
21
-1.8947494
0
LINE
8
layer1
10
-4.4393971
20
-1.8947494
11
-4.4892589
21
-1.9023328
0
LINE
8
layer1
10
-4.4892589
20
-1.9023328
11
-4.5492049
21
-1.9088478
0
LINE
8
layer1
10
-4.5492049
20
-1.9088478
11
-4.614373
21
-1.9131976
0
LINE
8
layer1
10
-4.614373
20
-1.9131976
11
-4.6901277
21
-1.9150965
0
LINE
8
layer1
10
-4.6901277
20
-1.9150965
11
-4.7735596
21
-1.9136905
0
LINE
8
layer1
10
-4.7735596
20
-1.9136905
11
-4.8642841
21
-1.9083685
0
LINE
8
layer1
10
-4.8642841
20
-1.9083685
11
-4.9643336
21
-1.8982917
0
LINE
8
layer1
10
-4.9643336
20
-1.8982917
11
-5.0717939
21
-1.8828776
0
LINE
8
layer1
10
-5.0717939
20
-1.8828776
11
-5.1745434
21
-1.8638713
0
ARC
8
layer1
10
0.0000073
20
0.0000024
40
5.5
50
196.1909758
51
199.8090254
0
LINE
8
layer1
10
-5.2818496
20
-1.5336168
11
-5.2098951
21
-1.4578457
0
LINE
8
layer1
10
-5.2098951
20
-1.4578457
11
-5.1320181
21
-1.3822118
0
LINE
8
layer1
10
-5.1320181
20
-1.3822118
11
-5.0569993
21
-1.3152519
0
LINE
8
layer1
10
-5.0569993
20
-1.3152519
11
-4.9867298
21
-1.2576198
0
LINE
8
layer1
10
-4.9867298
20
-1.2576198
11
-4.9200585
21
-1.2074423
0
LINE
8
layer1
10
-4.9200585
20
-1.2074423
11
-4.8576555
21
-1.1644511
0
LINE
8
layer1
10
-4.8576555
20
-1.1644511
11
-4.8023766
21
-1.1296653
0
LINE
8
layer1
10
-4.8023766
20
-1.1296653
11
-4.7500499
21
-1.0997007
0
LINE
8
layer1
10
-4.7500499
20
-1.0997007
11
-4.7052535
21
-1.0765276
0
LINE
8
layer1
10
-4.7052535
20
-1.0765276
11
-4.6677086
21
-1.0590289
0
LINE
8
layer1
10
-4.6677086
20
-1.0590289
11
-4.6119173
21
-1.0369393
0
LINE
8
layer1
10
-4.6119173
20
-1.0369393
11
-4.5666242
21
-1.0239337
0
LINE
8
layer1
10
-4.5666242
20
-1.0239337
11
-4.5087846
21
-1.005124
0
LINE
8
layer1
10
-4.5087846
20
-1.005124
11
-4.4605457
21
-0.983613
0
LINE
8
layer1
10
-4.4605457
20
-0.983613
11
-4.4400635
21
-0.9721072
0
LINE
8
layer1
10
-4.4400635
20
-0.9721072
11
-4.4220227
21
-0.9602085
0
LINE
8
layer1
10
-4.4220227
20
-0.9602085
11
-4.4064261
21
-0.9480287
0
LINE
8
layer1
10
-4.4064261
20
-0.9480287
11
-4.3932692
21
-0.9356582
0
LINE
8
layer1
10
-4.3932692
20
-0.9356582
11
-4.3825647
21
-0.9232104
0
LINE
8
layer1
10
-4.3825647
20
-0.9232104
11
-4.3743098
21
-0.9107659
0
LINE
8
layer1
10
-4.3743098
20
-0.9107659
11
-4.368489
21
-0.8984233
0
LINE
8
layer1
10
-4.368489
20
-0.8984233
11
-4.3650964
21
-0.8862831
0
LINE
8
layer1
10
-4.3650964
20
-0.8862831
11
-4.3641278
21
-0.8744357
0
LINE
8
layer1
10
-4.3641278
20
-0.8744357
11
-4.3690557
21
-0.844984
0
LINE
8
layer1
10
-4.3690557
20
-0.844984
11
-4.3952131
21
-0.6961334
0
LINE
8
layer1
10
-4.3952131
20
-0.6961334
11
-4.4163333
21
-0.5464849
0
LINE
8
layer1
10
-4.4163333
20
-0.5464849
11
-4.4207477
21
-0.5169518
0
LINE
8
layer1
10
-4.4207477
20
-0.5169518
11
-4.4253299
21
-0.5059836
0
LINE
8
layer1
10
-4.4253299
20
-0.5059836
11
-4.432308
21
-0.495486
0
LINE
8
layer1
10
-4.432308
20
-0.495486
11
-4.441658
21
-0.4855463
0
LINE
8
layer1
10
-4.441658
20
-0.4855463
11
-4.4533544
21
-0.4762617
0
LINE
8
layer1
10
-4.4533544
20
-0.4762617
11
-4.4673816
21
-0.467731
0
LINE
8
layer1
10
-4.4673816
20
-0.467731
11
-4.4837172
21
-0.4600317
0
LINE
8
layer1
10
-4.4837172
20
-0.4600317
11
-4.5023143
21
-0.4532676
0
LINE
8
layer1
10
-4.5023143
20
-0.4532676
11
-4.523149
21
-0.4475262
0
LINE
8
layer1
10
-4.523149
20
-0.4475262
11
-4.5461842
21
-0.4429129
0
LINE
8
layer1
10
-4.5461842
20
-0.4429129
11
-4.5987094
21
-0.4373613
0
LINE
8
layer1
10
-4.5987094
20
-0.4373613
11
-4.6595306
21
-0.4373456
0
LINE
8
layer1
10
-4.6595306
20
-0.4373456
11
-4.7066259
21
-0.438973
0
LINE
8
layer1
10
-4.7066259
20
-0.438973
11
-4.7665126
21
-0.4352049
0
LINE
8
layer1
10
-4.7665126
20
-0.4352049
11
-4.8076273
21
-0.4301646
0
LINE
8
layer1
10
-4.8076273
20
-0.4301646
11
-4.8573921
21
-0.4219687
0
LINE
8
layer1
10
-4.8573921
20
-0.4219687
11
-4.9164174
21
-0.4096405
0
LINE
8
layer1
10
-4.9164174
20
-0.4096405
11
-4.9797401
21
-0.3936393
0
LINE
8
layer1
10
-4.9797401
20
-0.3936393
11
-5.0523739
21
-0.3720358
0
LINE
8
layer1
10
-5.0523739
20
-0.3720358
11
-5.1312878
21
-0.3449168
0
LINE
8
layer1
10
-5.1312878
20
-0.3449168
11
-5.2159274
21
-0.3118198
0
LINE
8
layer1
10
-5.2159274
20
-0.3118198
11
-5.3079662
21
-0.2713192
0
LINE
8
layer1
10
-5.3079662
20
-0.2713192
11
-5.4054038
21
-0.2234525
0
LINE
8
layer1
10
-5.4054038
20
-0.2234525
11
-5.4972511
21
-0.1736251
0
ARC
8
layer1
10
0.0000077
20
-1e-7
40
5.5
50
178.1909748
51
181.8090241
0
LINE
8
layer1
10
-5.4972511
20
0.1736251
11
-5.4054038
21
0.2234525
0
LINE
8
layer1
10
-5.4054038
20
0.2234525
11
-5.3079662
21
0.2713192
0
LINE
8
layer1
10
-5.3079662
20
0.2713192
11
-5.2159274
21
0.3118198
0
LINE
8
layer1
10
-5.2159274
20
0.3118198
11
-5.1312878
21
0.3449168
0
LINE
8
layer1
10
-5.1312878
20
0.3449168
11
-5.0523739
21
0.3720358
0
LINE
8
layer1
10
-5.0523739
20
0.3720358
11
-4.9797401
21
0.3936393
0
LINE
8
layer1
10
-4.9797401
20
0.3936393
11
-4.9164174
21
0.4096405
0
LINE
8
layer1
10
-4.9164174
20
0.4096405
11
-4.8573921
21
0.4219687
0
LINE
8
layer1
10
-4.8573921
20
0.4219687
11
-4.8076273
21
0.4301646
0
LINE
8
layer1
10
-4.8076273
20
0.4301646
11
-4.7665126
21
0.4352049
0
LINE
8
layer1
10
-4.7665126
20
0.4352049
11
-4.7066259
21
0.438973
0
LINE
8
layer1
10
-4.7066259
20
0.438973
11
-4.6595306
21
0.4373456
0
LINE
8
layer1
10
-4.6595306
20
0.4373456
11
-4.5987094
21
0.4373613
0
LINE
8
layer1
10
-4.5987094
20
0.4373613
11
-4.5461842
21
0.4429129
0
LINE
8
layer1
10
-4.5461842
20
0.4429129
11
-4.523149
21
0.4475262
0
LINE
8
layer1
10
-4.523149
20
0.4475262
11
-4.5023143
21
0.4532676
0
LINE
8
layer1
10
-4.5023143
20
0.4532676
11
-4.4837172
21
0.4600317
0
LINE
8
layer1
10
-4.4837172
20
0.4600317
11
-4.4673816
21
0.467731
0
LINE
8
layer1
10
-4.4673816
20
0.467731
11
-4.4533544
21
0.4762617
0
LINE
8
layer1
10
-4.4533544
20
0.4762617
11
-4.441658
21
0.4855463
0
LINE
8
layer1
10
-4.441658
20
0.4855463
11
-4.432308
21
0.495486
0
LINE
8
layer1
10
-4.432308
20
0.495486
11
-4.4253299
21
0.5059836
0
LINE
8
layer1
10
-4.4253299
20
0.5059836
11
-4.4207477
21
0.5169518
0
LINE
8
layer1
10
-4.4207477
20
0.5169518
11
-4.4163333
21
0.5464849
0
LINE
8
layer1
10
-4.4163333
20
0.5464849
11
-4.3952131
21
0.6961334
0
LINE
8
layer1
10
-4.3952131
20
0.6961334
11
-4.3690557
21
0.844984
0
LINE
8
layer1
10
-4.3690557
20
0.844984
11
-4.3641278
21
0.8744357
0
LINE
8
layer1
10
-4.3641278
20
0.8744357
11
-4.3650964
21
0.8862831
0
LINE
8
layer1
10
-4.3650964
20
0.8862831
11
-4.368489
21
0.8984233
0
LINE
8
layer1
10
-4.368489
20
0.8984233
11
-4.3743098
21
0.9107659
0
LINE
8
layer1
10
-4.3743098
20
0.9107659
11
-4.3825647
21
0.9232104
0
LINE
8
layer1
10
-4.3825647
20
0.9232104
11
-4.3932692
21
0.9356582
0
LINE
8
layer1
10
-4.3932692
20
0.9356582
11
-4.4064261
21
0.9480287
0
LINE
8
layer1
10
-4.4064261
20
0.9480287
11
-4.4220227
21
0.9602085
0
LINE
8
layer1
10
-4.4220227
20
0.9602085
11
-4.4400635
21
0.9721072
0
LINE
8
layer1
10
-4.4400635
20
0.9721072
11
-4.4605457
21
0.983613
0
LINE
8
layer1
10
-4.4605457
20
0.983613
11
-4.5087846
21
1.005124
0
LINE
8
layer1
10
-4.5087846
20
1.005124
11
-4.5666242
21
1.0239337
0
LINE
8
layer1
10
-4.5666242
20
1.0239337
11
-4.6119173
21
1.0369393
0
LINE
8
layer1
10
-4.6119173
20
1.0369393
11
-4.6677086
21
1.0590289
0
LINE
8
layer1
10
-4.6677086
20
1.0590289
11
-4.7052535
21
1.0765276
0
LINE
8
layer1
10
-4.7052535
20
1.0765276
11
-4.7500499
21
1.0997007
0
LINE
8
layer1
10
-4.7500499
20
1.0997007
11
-4.8023766
21
1.1296653
0
LINE
8
layer1
10
-4.8023766
20
1.1296653
11
-4.8576555
21
1.1644511
0
LINE
8
layer1
10
-4.8576555
20
1.1644511
11
-4.9200585
21
1.2074423
0
LINE
8
layer1
10
-4.9200585
20
1.2074423
11
-4.9867298
21
1.2576198
0
LINE
8
layer1
10
-4.9867298
20
1.2576198
11
-5.0569993
21
1.3152519
0
LINE
8
layer1
10
-5.0569993
20
1.3152519
11
-5.1320181
21
1.3822118
0
LINE
8
layer1
10
-5.1320181
20
1.3822118
11
-5.2098951
21
1.4578457
0
LINE
8
layer1
10
-5.2098951
20
1.4578457
11
-5.2818496
21
1.5336168
0
ARC
8
layer1
10
0.0000073
20
-0.0000025
40
5.5
50
160.1909736
51
163.8090232
0
LINE
8
layer1
10
-5.1745434
20
1.8638713
11
-5.0717939
21
1.8828776
0
LINE
8
layer1
10
-5.0717939
20
1.8828776
11
-4.9643336
21
1.8982917
0
LINE
8
layer1
10
-4.9643336
20
1.8982917
11
-4.8642841
21
1.9083685
0
LINE
8
layer1
10
-4.8642841
20
1.9083685
11
-4.7735596
21
1.9136905
0
LINE
8
layer1
10
-4.7735596
20
1.9136905
11
-4.6901277
21
1.9150965
0
LINE
8
layer1
10
-4.6901277
20
1.9150965
11
-4.614373
21
1.9131976
0
LINE
8
layer1
10
-4.614373
20
1.9131976
11
-4.5492049
21
1.9088478
0
LINE
8
layer1
10
-4.5492049
20
1.9088478
11
-4.4892589
21
1.9023328
0
LINE
8
layer1
10
-4.4892589
20
1.9023328
11
-4.4393971
21
1.8947494
0
LINE
8
layer1
10
-4.4393971
20
1.8947494
11
-4.3987372
21
1.8868379
0
LINE
8
layer1
10
-4.3987372
20
1.8868379
11
-4.3406171
21
1.8719155
0
LINE
8
layer1
10
-4.3406171
20
1.8719155
11
-4.2963297
21
1.8558146
0
LINE
8
layer1
10
-4.2963297
20
1.8558146
11
-4.2384804
21
1.8370346
0
LINE
8
layer1
10
-4.2384804
20
1.8370346
11
-4.1868105
21
1.8260834
0
LINE
8
layer1
10
-4.1868105
20
1.8260834
11
-4.1634771
21
1.8233526
0
LINE
8
layer1
10
-4.1634771
20
1.8233526
11
-4.1418879
21
1.8223747
0
LINE
8
layer1
10
-4.1418879
20
1.8223747
11
-4.1221109
21
1.8230609
0
LINE
8
layer1
10
-4.1221109
20
1.8230609
11
-4.1041956
21
1.8253355
0
LINE
8
layer1
10
-4.1041956
20
1.8253355
11
-4.0882188
21
1.829114
0
LINE
8
layer1
10
-4.0882188
20
1.829114
11
-4.0742257
21
1.8343298
0
LINE
8
layer1
10
-4.0742257
20
1.8343298
11
-4.0622618
21
1.8408937
0
LINE
8
layer1
10
-4.0622618
20
1.8408937
11
-4.0523813
21
1.8487211
0
LINE
8
layer1
10
-4.0523813
20
1.8487211
11
-4.044634
21
1.8577366
0
LINE
8
layer1
10
-4.044634
20
1.8577366
11
-4.0313095
21
1.8844601
0
LINE
8
layer1
10
-4.0313095
20
1.8844601
11
-3.964979
21
2.0202577
0
LINE
8
layer1
10
-3.964979
20
2.0202577
11
-3.8941045
21
2.15374
0
LINE
8
layer1
10
-3.8941045
20
2.15374
11
-3.8803166
21
2.1802275
0
LINE
8
layer1
10
-3.8803166
20
2.1802275
11
-3.8775768
21
2.1917943
0
LINE
8
layer1
10
-3.8775768
20
2.1917943
11
-3.8770518
21
2.2043887
0
LINE
8
layer1
10
-3.8770518
20
2.2043887
11
-3.8787738
21
2.2179259
0
LINE
8
layer1
10
-3.8787738
20
2.2179259
11
-3.882779
21
2.2323123
0
LINE
8
layer1
10
-3.882779
20
2.2323123
11
-3.889113
21
2.2474587
0
LINE
8
layer1
10
-3.889113
20
2.2474587
11
-3.8978032
21
2.2632894
0
LINE
8
layer1
10
-3.8978032
20
2.2632894
11
-3.9088728
21
2.2796927
0
LINE
8
layer1
10
-3.9088728
20
2.2796927
11
-3.9223537
21
2.296584
0
LINE
8
layer1
10
-3.9223537
20
2.296584
11
-3.938278
21
2.313856
0
LINE
8
layer1
10
-3.938278
20
2.313856
11
-3.9775085
21
2.3492208
0
LINE
8
layer1
10
-3.9775085
20
2.3492208
11
-4.0267048
21
2.3849833
0
LINE
8
layer1
10
-4.0267048
20
2.3849833
11
-4.0657622
21
2.4113487
0
LINE
8
layer1
10
-4.0657622
20
2.4113487
11
-4.1119968
21
2.4495976
0
LINE
8
layer1
10
-4.1119968
20
2.4495976
11
-4.1422966
21
2.4778419
0
LINE
8
layer1
10
-4.1422966
20
2.4778419
11
-4.1777397
21
2.5137236
0
LINE
8
layer1
10
-4.1777397
20
2.5137236
11
-4.2182458
21
2.5583915
0
LINE
8
layer1
10
-4.2182458
20
2.5583915
11
-4.2600698
21
2.6085569
0
LINE
8
layer1
10
-4.2600698
20
2.6085569
11
-4.3061335
21
2.6687276
0
LINE
8
layer1
10
-4.3061335
20
2.6687276
11
-4.354036
21
2.7370518
0
LINE
8
layer1
10
-4.354036
20
2.7370518
11
-4.403057
21
2.8135776
0
LINE
8
layer1
10
-4.403057
20
2.8135776
11
-4.4537123
21
2.9004424
0
LINE
8
layer1
10
-4.4537123
20
2.9004424
11
-4.5044056
21
2.9964398
0
LINE
8
layer1
10
-4.5044056
20
2.9964398
11
-4.5494238
21
3.0907375
0
ARC
8
layer1
10
0.000006
20
-0.0000049
40
5.5
50
142.190971
51
145.8090201
0
LINE
8
layer1
10
-4.3453153
20
3.3716687
11
-4.2417214
21
3.3579935
0
LINE
8
layer1
10
-4.2417214
20
3.3579935
11
-4.1347574
21
3.3394461
0
LINE
8
layer1
10
-4.1347574
20
3.3394461
11
-4.0364908
21
3.3181127
0
LINE
8
layer1
10
-4.0364908
20
3.3181127
11
-3.948562
21
3.2951388
0
LINE
8
layer1
10
-3.948562
20
3.2951388
11
-3.8687792
21
3.2706941
0
LINE
8
layer1
10
-3.8687792
20
3.2706941
11
-3.797319
21
3.2454787
0
LINE
8
layer1
10
-3.797319
20
3.2454787
11
-3.7366846
21
3.2212037
0
LINE
8
layer1
10
-3.7366846
20
3.2212037
11
-3.6816858
21
3.1964833
0
LINE
8
layer1
10
-3.6816858
20
3.1964833
11
-3.6366077
21
3.1738629
0
LINE
8
layer1
10
-3.6366077
20
3.1738629
11
-3.6003827
21
3.153774
0
LINE
8
layer1
10
-3.6003827
20
3.153774
11
-3.5497185
21
3.1216219
0
LINE
8
layer1
10
-3.5497185
20
3.1216219
11
-3.5125741
21
3.0926234
0
LINE
8
layer1
10
-3.5125741
20
3.0926234
11
-3.4633595
21
3.0568863
0
LINE
8
layer1
10
-3.4633595
20
3.0568863
11
-3.4176026
21
3.0305041
0
LINE
8
layer1
10
-3.4176026
20
3.0305041
11
-3.3962551
21
3.0206965
0
LINE
8
layer1
10
-3.3962551
20
3.0206965
11
-3.3760248
21
3.0130951
0
LINE
8
layer1
10
-3.3760248
20
3.0130951
11
-3.3570036
21
3.0076363
0
LINE
8
layer1
10
-3.3570036
20
3.0076363
11
-3.3392623
21
3.0042634
0
LINE
8
layer1
10
-3.3392623
20
3.0042634
11
-3.3228998
21
3.0029199
0
LINE
8
layer1
10
-3.3228998
20
3.0029199
11
-3.3079799
21
3.0035563
0
LINE
8
layer1
10
-3.3079799
20
3.0035563
11
-3.2945731
21
3.0061018
0
LINE
8
layer1
10
-3.2945731
20
3.0061018
11
-3.2827574
21
3.010493
0
LINE
8
layer1
10
-3.2827574
20
3.010493
11
-3.2726033
21
3.0166731
0
LINE
8
layer1
10
-3.2726033
20
3.0166731
11
-3.251673
21
3.0379711
0
LINE
8
layer1
10
-3.251673
20
3.0379711
11
-3.1466252
21
3.1466252
0
LINE
8
layer1
10
-3.1466252
20
3.1466252
11
-3.0379711
21
3.251673
0
LINE
8
layer1
10
-3.0379711
20
3.251673
11
-3.0166731
21
3.2726033
0
LINE
8
layer1
10
-3.0166731
20
3.2726033
11
-3.010493
21
3.2827574
0
LINE
8
layer1
10
-3.010493
20
3.2827574
11
-3.0061018
21
3.2945731
0
LINE
8
layer1
10
-3.0061018
20
3.2945731
11
-3.0035563
21
3.3079799
0
LINE
8
layer1
10
-3.0035563
20
3.3079799
11
-3.0029199
21
3.3228998
0
LINE
8
layer1
10
-3.0029199
20
3.3228998
11
-3.0042634
21
3.3392623
0
LINE
8
layer1
10
-3.0042634
20
3.3392623
11
-3.0076363
21
3.3570036
0
LINE
8
layer1
10
-3.0076363
20
3.3570036
11
-3.0130951
21
3.3760248
0
LINE
8
layer1
10
-3.0130951
20
3.3760248
11
-3.0206965
21
3.3962551
0
LINE
8
layer1
10
-3.0206965
20
3.3962551
11
-3.0305041
21
3.4176026
0
LINE
8
layer1
10
-3.0305041
20
3.4176026
11
-3.0568863
21
3.4633595
0
LINE
8
layer1
10
-3.0568863
20
3.4633595
11
-3.0926234
21
3.5125741
0
LINE
8
layer1
10
-3.0926234
20
3.5125741
11
-3.1216219
21
3.5497185
0
LINE
8
layer1
10
-3.1216219
20
3.5497185
11
-3.153774
21
3.6003827
0
LINE
8
layer1
10
-3.153774
20
3.6003827
11
-3.1738629
21
3.6366077
0
LINE
8
layer1
10
-3.1738629
20
3.6366077
11
-3.1964833
21
3.6816858
0
LINE
8
layer1
10
-3.1964833
20
3.6816858
11
-3.2212037
21
3.7366846
0
LINE
8
layer1
10
-3.2212037
20
3.7366846
11
-3.2454787
21
3.797319
0
LINE
8
layer1
10
-3.2454787
20
3.797319
11
-3.2706941
21
3.8687792
0
LINE
8
layer1
10
-3.2706941
20
3.8687792
11
-3.2951388
21
3.948562
0
LINE
8
layer1
10
-3.2951388
20
3.948562
11
-3.3181127
21
4.0364908
0
LINE
8
layer1
10
-3.3181127
20
4.0364908
11
-3.3394461
21
4.1347574
0
LINE
8
layer1
10
-3.3394461
20
4.1347574
11
-3.3579935
21
4.2417214
0
LINE
8
layer1
10
-3.3579935
20
4.2417214
11
-3.3716687
21
4.3453153
0
ARC
8
layer1
10
0.0000049
20
-0.000006
40
5.5
50
124.1909799
51
127.809029
0
LINE
8
layer1
10
-3.0907375
20
4.5494238
11
-2.9964398
21
4.5044056
0
LINE
8
layer1
10
-2.9964398
20
4.5044056
11
-2.9004424
21
4.4537123
0
LINE
8
layer1
10
-2.9004424
20
4.4537123
11
-2.8135776
21
4.403057
0
LINE
8
layer1
10
-2.8135776
20
4.403057
11
-2.7370518
21
4.354036
0
LINE
8
layer1
10
-2.7370518
20
4.354036
11
-2.6687276
21
4.3061335
0
LINE
8
layer1
10
-2.6687276
20
4.3061335
11
-2.6085569
21
4.2600698
0
LINE
8
layer1
10
-2.6085569
20
4.2600698
11
-2.5583915
21
4.2182458
0
LINE
8
layer1
10
-2.5583915
20
4.2182458
11
-2.5137236
21
4.1777397
0
LINE
8
layer1
10
-2.5137236
20
4.1777397
11
-2.4778419
21
4.1422966
0
LINE
8
layer1
10
-2.4778419
20
4.1422966
11
-2.4495976
21
4.1119968
0
LINE
8
layer1
10
-2.4495976
20
4.1119968
11
-2.4113487
21
4.0657622
0
LINE
8
layer1
10
-2.4113487
20
4.0657622
11
-2.3849833
21
4.0267048
0
LINE
8
layer1
10
-2.3849833
20
4.0267048
11
-2.3492208
21
3.9775085
0
LINE
8
layer1
10
-2.3492208
20
3.9775085
11
-2.313856
21
3.938278
0
LINE
8
layer1
10
-2.313856
20
3.938278
11
-2.296584
21
3.9223537
0
LINE
8
layer1
10
-2.296584
20
3.9223537
11
-2.2796927
21
3.9088728
0
LINE
8
layer1
10
-2.2796927
20
3.9088728
11
-2.2632894
21
3.8978032
0
LINE
8
layer1
10
-2.2632894
20
3.8978032
11
-2.2474587
21
3.889113
0
LINE
8
layer1
10
-2.2474587
20
3.889113
11
-2.2323123
21
3.882779
0
LINE
8
layer1
10
-2.2323123
20
3.882779
11
-2.2179259
21
3.8787738
0
LINE
8
layer1
10
-2.2179259
20
3.8787738
11
-2.2043887
21
3.8770518
0
LINE
8
layer1
10
-2.2043887
20
3.8770518
11
-2.1917943
21
3.8775768
0
LINE
8
layer1
10
-2.1917943
20
3.8775768
11
-2.1802275
21
3.8803166
0
LINE
8
layer1
10
-2.1802275
20
3.8803166
11
-2.15374
21
3.8941045
0
LINE
8
layer1
10
-2.15374
20
3.8941045
11
-2.0202577
21
3.964979
0
LINE
8
layer1
10
-2.0202577
20
3.964979
11
-1.8844601
21
4.0313095
0
LINE
8
layer1
10
-1.8844601
20
4.0313095
11
-1.8577366
21
4.044634
0
LINE
8
layer1
10
-1.8577366
20
4.044634
11
-1.8487211
21
4.0523813
0
LINE
8
layer1
10
-1.8487211
20
4.0523813
11
-1.8408937
21
4.0622618
0
LINE
8
layer1
10
-1.8408937
20
4.0622618
11
-1.8343298
21
4.0742257
0
LINE
8
layer1
10
-1.8343298
20
4.0742257
11
-1.829114
21
4.0882188
0
LINE
8
layer1
10
-1.829114
20
4.0882188
11
-1.8253355
21
4.1041956
0
LINE
8
layer1
10
-1.8253355
20
4.1041956
11
-1.8230609
21
4.1221109
0
LINE
8
layer1
10
-1.8230609
20
4.1221109
11
-1.8223747
21
4.1418879
0
LINE
8
layer1
10
-1.8223747
20
4.1418879
11
-1.8233526
21
4.1634771
0
LINE
8
layer1
10
-1.8233526
20
4.1634771
11
-1.8260834
21
4.1868105
0
LINE
8
layer1
10
-1.8260834
20
4.1868105
11
-1.8370346
21
4.2384804
0
LINE
8
layer1
10
-1.8370346
20
4.2384804
11
-1.8558146
21
4.2963297
0
LINE
8
layer1
10
-1.8558146
20
4.2963297
11
-1.8719155
21
4.3406171
0
LINE
8
layer1
10
-1.8719155
20
4.3406171
11
-1.8868379
21
4.3987372
0
LINE
8
layer1
10
-1.8868379
20
4.3987372
11
-1.8947494
21
4.4393971
0
LINE
8
layer1
10
-1.8947494
20
4.4393971
11
-1.9023328
21
4.4892589
0
LINE
8
layer1
10
-1.9023328
20
4.4892589
11
-1.9088478
21
4.5492049
0
LINE
8
layer1
10
-1.9088478
20
4.5492049
11
-1.9131976
21
4.614373
0
LINE
8
layer1
10
-1.9131976
20
4.614373
11
-1.9150965
21
4.6901277
0
LINE
8
layer1
10
-1.9150965
20
4.6901277
11
-1.9136905
21
4.7735596
0
LINE
8
layer1
10
-1.9136905
20
4.7735596
11
-1.9083685
21
4.8642841
0
LINE
8
layer1
10
-1.9083685
20
4.8642841
11
-1.8982917
21
4.9643336
0
LINE
8
layer1
10
-1.8982917
20
4.9643336
11
-1.8828776
21
5.0717939
0
LINE
8
layer1
10
-1.8828776
20
5.0717939
11
-1.8638713
21
5.1745434
0
ARC
8
layer1
10
0.0000024
20
-0.0000073
40
5.5
50
106.1909758
51
109.8090254
0
LINE
8
layer1
10
-1.5336168
20
5.2818496
11
-1.4578457
21
5.2098951
0
LINE
8
layer1
10
-1.4578457
20
5.2098951
11
-1.3822118
21
5.1320181
0
LINE
8
layer1
10
-1.3822118
20
5.1320181
11
-1.3152519
21
5.0569993
0
LINE
8
layer1
10
-1.3152519
20
5.0569993
11
-1.2576198
21
4.9867298
0
LINE
8
layer1
10
-1.2576198
20
4.9867298
11
-1.2074423
21
4.9200585
0
LINE
8
layer1
10
-1.2074423
20
4.9200585
11
-1.1644511
21
4.8576555
0
LINE
8
layer1
10
-1.1644511
20
4.8576555
11
-1.1296653
21
4.8023766
0
LINE
8
layer1
10
-1.1296653
20
4.8023766
11
-1.0997007
21
4.7500499
0
LINE
8
layer1
10
-1.0997007
20
4.7500499
11
-1.0765276
21
4.7052535
0
LINE
8
layer1
10
-1.0765276
20
4.7052535
11
-1.0590289
21
4.6677086
0
LINE
8
layer1
10
-1.0590289
20
4.6677086
11
-1.0369393
21
4.6119173
0
LINE
8
layer1
10
-1.0369393
20
4.6119173
11
-1.0239337
21
4.5666242
0
LINE
8
layer1
10
-1.0239337
20
4.5666242
11
-1.005124
21
4.5087846
0
LINE
8
layer1
10
-1.005124
20
4.5087846
11
-0.983613
21
4.4605457
0
LINE
8
layer1
10
-0.983613
20
4.4605457
11
-0.9721072
21
4.4400635
0
LINE
8
layer1
10
-0.9721072
20
4.4400635
11
-0.9602085
21
4.4220227
0
LINE
8
layer1
10
-0.9602085
20
4.4220227
11
-0.9480287
21
4.4064261
0
LINE
8
layer1
10
-0.9480287
20
4.4064261
11
-0.9356582
21
4.3932692
0
LINE
8
layer1
10
-0.9356582
20
4.3932692
11
-0.9232104
21
4.3825647
0
LINE
8
layer1
10
-0.9232104
20
4.3825647
11
-0.9107659
21
4.3743098
0
LINE
8
layer1
10
-0.9107659
20
4.3743098
11
-0.8984233
21
4.368489
0
LINE
8
layer1
10
-0.8984233
20
4.368489
11
-0.8862831
21
4.3650964
0
LINE
8
layer1
10
-0.8862831
20
4.3650964
11
-0.8744357
21
4.3641278
0
LINE
8
layer1
10
-0.8744357
20
4.3641278
11
-0.844984
21
4.3690557
0
LINE
8
layer1
10
-0.844984
20
4.3690557
11
-0.6961334
21
4.3952131
0
LINE
8
layer1
10
-0.6961334
20
4.3952131
11
-0.5464849
21
4.4163333
0
LINE
8
layer1
10
-0.5464849
20
4.4163333
11
-0.5169518
21
4.4207477
0
LINE
8
layer1
10
-0.5169518
20
4.4207477
11
-0.5059836
21
4.4253299
0
LINE
8
layer1
10
-0.5059836
20
4.4253299
11
-0.495486
21
4.432308
0
LINE
8
layer1
10
-0.495486
20
4.432308
11
-0.4855463
21
4.441658
0
LINE
8
layer1
10
-0.4855463
20
4.441658
11
-0.4762617
21
4.4533544
0
LINE
8
layer1
10
-0.4762617
20
4.4533544
11
-0.467731
21
4.4673816
0
LINE
8
layer1
10
-0.467731
20
4.4673816
11
-0.4600317
21
4.4837172
0
LINE
8
layer1
10
-0.4600317
20
4.4837172
11
-0.4532676
21
4.5023143
0
LINE
8
layer1
10
-0.4532676
20
4.5023143
11
-0.4475262
21
4.523149
0
LINE
8
layer1
10
-0.4475262
20
4.523149
11
-0.4429129
21
4.5461842
0
LINE
8
layer1
10
-0.4429129
20
4.5461842
11
-0.4373613
21
4.5987094
0
LINE
8
layer1
10
-0.4373613
20
4.5987094
11
-0.4373456
21
4.6595306
0
LINE
8
layer1
10
-0.4373456
20
4.6595306
11
-0.438973
21
4.7066259
0
LINE
8
layer1
10
-0.438973
20
4.7066259
11
-0.4352049
21
4.7665126
0
LINE
8
layer1
10
-0.4352049
20
4.7665126
11
-0.4301646
21
4.8076273
0
LINE
8
layer1
10
-0.4301646
20
4.8076273
11
-0.4219687
21
4.8573921
0
LINE
8
layer1
10
-0.4219687
20
4.8573921
11
-0.4096405
21
4.9164174
0
LINE
8
layer1
10
-0.4096405
20
4.9164174
11
-0.3936393
21
4.9797401
0
LINE
8
layer1
10
-0.3936393
20
4.9797401
11
-0.3720358
21
5.0523739
0
LINE
8
layer1
10
-0.3720358
20
5.0523739
11
-0.3449168
21
5.1312878
0
LINE
8
layer1
10
-0.3449168
20
5.1312878
11
-0.3118198
21
5.2159274
0
LINE
8
layer1
10
-0.3118198
20
5.2159274
11
-0.2713192
21
5.3079662
0
LINE
8
layer1
10
-0.2713192
20
5.3079662
11
-0.2234525
21
5.4054038
0
LINE
8
layer1
10
-0.2234525
20
5.4054038
11
-0.1736251
21
5.4972511
0
ARC
8
layer1
10
-1e-7
20
-0.0000077
40
5.5
50
88.1909748
51
91.8090241
0
LINE
8
layer1
10
0.1736251
20
5.4972511
11
0.2234525
21
5.4054038
0
LINE
8
layer1
10
0.2234525
20
5.4054038
11
0.2713192
21
5.3079662
0
LINE
8
layer1
10
0.2713192
20
5.3079662
11
0.3118198
21
5.2159274
0
LINE
8
layer1
10
0.3118198
20
5.2159274
11
0.3449168
21
5.1312878
0
LINE
8
layer1
10
0.3449168
20
5.1312878
11
0.3720358
21
5.0523739
0
LINE
8
layer1
10
0.3720358
20
5.0523739
11
0.3936393
21
4.9797401
0
LINE
8
layer1
10
0.3936393
20
4.9797401
11
0.4096405
21
4.9164174
0
LINE
8
layer1
10
0.4096405
20
4.9164174
11
0.4219687
21
4.8573921
0
LINE
8
layer1
10
0.4219687
20
4.8573921
11
0.4301646
21
4.8076273
0
LINE
8
layer1
10
0.4301646
20
4.8076273
11
0.4352049
21
4.7665126
0
LINE
8
layer1
10
0.4352049
20
4.7665126
11
0.438973
21
4.7066259
0
LINE
8
layer1
10
0.438973
20
4.7066259
11
0.4373456
21
4.6595306
0
LINE
8
layer1
10
0.4373456
20
4.6595306
11
0.4373613
21
4.5987094
0
LINE
8
layer1
10
0.4373613
20
4.5987094
11
0.4429129
21
4.5461842
0
LINE
8
layer1
10
0.4429129
20
4.5461842
11
0.4475262
21
4.523149
0
LINE
8
layer1
10
0.4475262
20
4.523149
11
0.4532676
21
4.5023143
0
LINE
8
layer1
10
0.4532676
20
4.5023143
11
0.4600317
21
4.4837172
0
LINE
8
layer1
10
0.4600317
20
4.4837172
11
0.467731
21
4.4673816
0
LINE
8
layer1
10
0.467731
20
4.4673816
11
0.4762617
21
4.4533544
0
LINE
8
layer1
10
0.4762617
20
4.4533544
11
0.4855463
21
4.441658
0
LINE
8
layer1
10
0.4855463
20
4.441658
11
0.495486
21
4.432308
0
LINE
8
layer1
10
0.495486
20
4.432308
11
0.5059836
21
4.4253299
0
LINE
8
layer1
10
0.5059836
20
4.4253299
11
0.5169518
21
4.4207477
0
LINE
8
layer1
10
0.5169518
20
4.4207477
11
0.5464849
21
4.4163333
0
LINE
8
layer1
10
0.5464849
20
4.4163333
11
0.6961334
21
4.3952131
0
LINE
8
layer1
10
0.6961334
20
4.3952131
11
0.844984
21
4.3690557
0
LINE
8
layer1
10
0.844984
20
4.3690557
11
0.8744357
21
4.3641278
0
LINE
8
layer1
10
0.8744357
20
4.3641278
11
0.8862831
21
4.3650964
0
LINE
8
layer1
10
0.8862831
20
4.3650964
11
0.8984233
21
4.368489
0
LINE
8
layer1
10
0.8984233
20
4.368489
11
0.9107659
21
4.3743098
0
LINE
8
layer1
10
0.9107659
20
4.3743098
11
0.9232104
21
4.3825647
0
LINE
8
layer1
10
0.9232104
20
4.3825647
11
0.9356582
21
4.3932692
0
LINE
8
layer1
10
0.9356582
20
4.3932692
11
0.9480287
21
4.4064261
0
LINE
8
layer1
10
0.9480287
20
4.4064261
11
0.9602085
21
4.4220227
0
LINE
8
layer1
10
0.9602085
20
4.4220227
11
0.9721072
21
4.4400635
0
LINE
8
layer1
10
0.9721072
20
4.4400635
11
0.983613
21
4.4605457
0
LINE
8
layer1
10
0.983613
20
4.4605457
11
1.005124
21
4.5087846
0
LINE
8
layer1
10
1.005124
20
4.5087846
11
1.0239337
21
4.5666242
0
LINE
8
layer1
10
1.0239337
20
4.5666242
11
1.0369393
21
4.6119173
0
LINE
8
layer1
10
1.0369393
20
4.6119173
11
1.0590289
21
4.6677086
0
LINE
8
layer1
10
1.0590289
20
4.6677086
11
1.0765276
21
4.7052535
0
LINE
8
layer1
10
1.0765276
20
4.7052535
11
1.0997007
21
4.7500499
0
LINE
8
layer1
10
1.0997007
20
4.7500499
11
1.1296653
21
4.8023766
0
LINE
8
layer1
10
1.1296653
20
4.8023766
11
1.1644511
21
4.8576555
0
LINE
8
layer1
10
1.1644511
20
4.8576555
11
1.2074423
21
4.9200585
0
LINE
8
layer1
10
1.2074423
20
4.9200585
11
1.2576198
21
4.9867298
0
LINE
8
layer1
10
1.2576198
20
4.9867298
11
1.3152519
21
5.0569993
0
LINE
8
layer1
10
1.3152519
20
5.0569993
11
1.3822118
21
5.1320181
0
LINE
8
layer1
10
1.3822118
20
5.1320181
11
1.4578457
21
5.2098951
0
LINE
8
layer1
10
1.4578457
20
5.2098951
11
1.5336168
21
5.2818496
0
ARC
8
layer1
10
-0.0000025
20
-0.0000073
40
5.5
50
70.1909736
51
73.8090232
0
LINE
8
layer1
10
1.8638713
20
5.1745434
11
1.8828776
21
5.0717939
0
LINE
8
layer1
10
1.8828776
20
5.0717939
11
1.8982917
21
4.9643336
0
LINE
8
layer1
10
1.8982917
20
4.9643336
11
1.9083685
21
4.8642841
0
LINE
8
layer1
10
1.9083685
20
4.8642841
11
1.9136905
21
4.7735596
0
LINE
8
layer1
10
1.9136905
20
4.7735596
11
1.9150965
21
4.6901277
0
LINE
8
layer1
10
1.9150965
20
4.6901277
11
1.9131976
21
4.614373
0
LINE
8
layer1
10
1.9131976
20
4.614373
11
1.9088478
21
4.5492049
0
LINE
8
layer1
10
1.9088478
20
4.5492049
11
1.9023328
21
4.4892589
0
LINE
8
layer1
10
1.9023328
20
4.4892589
11
1.8947494
21
4.4393971
0
LINE
8
layer1
10
1.8947494
20
4.4393971
11
1.8868379
21
4.3987372
0
LINE
8
layer1
10
1.8868379
20
4.3987372
11
1.8719155
21
4.3406171
0
LINE
8
layer1
10
1.8719155
20
4.3406171
11
1.8558146
21
4.2963297
0
LINE
8
layer1
10
1.8558146
20
4.2963297
11
1.8370346
21
4.2384804
0
LINE
8
layer1
10
1.8370346
20
4.2384804
11
1.8260834
21
4.1868105
0
LINE
8
layer1
10
1.8260834
20
4.1868105
11
1.8233526
21
4.1634771
0
LINE
8
layer1
10
1.8233526
20
4.1634771
11
1.8223747
21
4.1418879
0
LINE
8
layer1
10
1.8223747
20
4.1418879
11
1.8230609
21
4.1221109
0
LINE
8
layer1
10
1.8230609
20
4.1221109
11
1.8253355
21
4.1041956
0
LINE
8
layer1
10
1.8253355
20
4.1041956
11
1.829114
21
4.0882188
0
LINE
8
layer1
10
1.829114
20
4.0882188
11
1.8343298
21
4.0742257
0
LINE
8
layer1
10
1.8343298
20
4.0742257
11
1.8408937
21
4.0622618
0
LINE
8
layer1
10
1.8408937
20
4.0622618
11
1.8487211
21
4.0523813
0
LINE
8
layer1
10
1.8487211
20
4.0523813
11
1.8577366
21
4.044634
0
LINE
8
layer1
10
1.8577366
20
4.044634
11
1.8844601
21
4.0313095
0
LINE
8
layer1
10
1.8844601
20
4.0313095
11
2.0202577
21
3.964979
0
LINE
8
layer1
10
2.0202577
20
3.964979
11
2.15374
21
3.8941045
0
LINE
8
layer1
10
2.15374
20
3.8941045
11
2.1802275
21
3.8803166
0
LINE
8
layer1
10
2.1802275
20
3.8803166
11
2.1917943
21
3.8775768
0
LINE
8
layer1
10
2.1917943
20
3.8775768
11
2.2043887
21
3.8770518
0
LINE
8
layer1
10
2.2043887
20
3.8770518
11
2.2179259
21
3.8787738
0
LINE
8
layer1
10
2.2179259
20
3.8787738
11
2.2323123
21
3.882779
0
LINE
8
layer1
10
2.2323123
20
3.882779
11
2.2474587
21
3.889113
0
LINE
8
layer1
10
2.2474587
20
3.889113
11
2.2632894
21
3.8978032
0
LINE
8
layer1
10
2.2632894
20
3.8978032
11
2.2796927
21
3.9088728
0
LINE
8
layer1
10
2.2796927
20
3.9088728
11
2.296584
21
3.9223537
0
LINE
8
layer1
10
2.296584
20
3.9223537
11
2.313856
21
3.938278
0
LINE
8
layer1
10
2.313856
20
3.938278
11
2.3492208
21
3.9775085
0
LINE
8
layer1
10
2.3492208
20
3.9775085
11
2.3849833
21
4.0267048
0
LINE
8
layer1
10
2.3849833
20
4.0267048
11
2.4113487
21
4.0657622
0
LINE
8
layer1
10
2.4113487
20
4.0657622
11
2.4495976
21
4.1119968
0
LINE
8
layer1
10
2.4495976
20
4.1119968
11
2.4778419
21
4.1422966
0
LINE
8
layer1
10
2.4778419
20
4.1422966
11
2.5137236
21
4.1777397
0
LINE
8
layer1
10
2.5137236
20
4.1777397
11
2.5583915
21
4.2182458
0
LINE
8
layer1
10
2.5583915
20
4.2182458
11
2.6085569
21
4.2600698
0
LINE
8
layer1
10
2.6085569
20
4.2600698
11
2.6687276
21
4.3061335
0
LINE
8
layer1
10
2.6687276
20
4.3061335
11
2.7370518
21
4.354036
0
LINE
8
layer1
10
2.7370518
20
4.354036
11
2.8135776
21
4.403057
0
LINE
8
layer1
10
2.8135776
20
4.403057
11
2.9004424
21
4.4537123
0
LINE
8
layer1
10
2.9004424
20
4.4537123
11
2.9964398
21
4.5044056
0
LINE
8
layer1
10
2.9964398
20
4.5044056
11
3.0907375
21
4.5494238
0
ARC
8
layer1
10
-0.0000049
20
-0.000006
40
5.5
50
52.190971
51
55.8090201
0
LINE
8
layer1
10
3.3716687
20
4.3453153
11
3.3579935
21
4.2417214
0
LINE
8
layer1
10
3.3579935
20
4.2417214
11
3.3394461
21
4.1347574
0
LINE
8
layer1
10
3.3394461
20
4.1347574
11
3.3181127
21
4.0364908
0
LINE
8
layer1
10
3.3181127
20
4.0364908
11
3.2951388
21
3.948562
0
LINE
8
layer1
10
3.2951388
20
3.948562
11
3.2706941
21
3.8687792
0
LINE
8
layer1
10
3.2706941
20
3.8687792
11
3.2454787
21
3.797319
0
LINE
8
layer1
10
3.2454787
20
3.797319
11
3.2212037
21
3.7366846
0
LINE
8
layer1
10
3.2212037
20
3.7366846
11
3.1964833
21
3.6816858
0
LINE
8
layer1
10
3.1964833
20
3.6816858
11
3.1738629
21
3.6366077
0
LINE
8
layer1
10
3.1738629
20
3.6366077
11
3.153774
21
3.6003827
0
LINE
8
layer1
10
3.153774
20
3.6003827
11
3.1216219
21
3.5497185
0
LINE
8
layer1
10
3.1216219
20
3.5497185
11
3.0926234
21
3.5125741
0
LINE
8
layer1
10
3.0926234
20
3.5125741
11
3.0568863
21
3.4633595
0
LINE
8
layer1
10
3.0568863
20
3.4633595
11
3.0305041
21
3.4176026
0
LINE
8
layer1
10
3.0305041
20
3.4176026
11
3.0206965
21
3.3962551
0
LINE
8
layer1
10
3.0206965
20
3.3962551
11
3.0130951
21
3.3760248
0
LINE
8
layer1
10
3.0130951
20
3.3760248
11
3.0076363
21
3.3570036
0
LINE
8
layer1
10
3.0076363
20
3.3570036
11
3.0042634
21
3.3392623
0
LINE
8
layer1
10
3.0042634
20
3.3392623
11
3.0029199
21
3.3228998
0
LINE
8
layer1
10
3.0029199
20
3.3228998
11
3.0035563
21
3.3079799
0
LINE
8
layer1
10
3.0035563
20
3.3079799
11
3.0061018
21
3.2945731
0
LINE
8
layer1
10
3.0061018
20
3.2945731
11
3.010493
21
3.2827574
0
LINE
8
layer1
10
3.010493
20
3.2827574
11
3.0166731
21
3.2726033
0
LINE
8
layer1
10
3.0166731
20
3.2726033
11
3.0379711
21
3.251673
0
LINE
8
layer1
10
3.0379711
20
3.251673
11
3.1466252
21
3.1466252
0
LINE
8
layer1
10
3.1466252
20
3.1466252
11
3.251673
21
3.0379711
0
LINE
8
layer1
10
3.251673
20
3.0379711
11
3.2726033
21
3.0166731
0
LINE
8
layer1
10
3.2726033
20
3.0166731
11
3.2827574
21
3.010493
0
LINE
8
layer1
10
3.2827574
20
3.010493
11
3.2945731
21
3.0061018
0
LINE
8
layer1
10
3.2945731
20
3.0061018
11
3.3079799
21
3.0035563
0
LINE
8
layer1
10
3.3079799
20
3.0035563
11
3.3228998
21
3.0029199
0
LINE
8
layer1
10
3.3228998
20
3.0029199
11
3.3392623
21
3.0042634
0
LINE
8
layer1
10
3.3392623
20
3.0042634
11
3.3570036
21
3.0076363
0
LINE
8
layer1
10
3.3570036
20
3.0076363
11
3.3760248
21
3.0130951
0
LINE
8
layer1
10
3.3760248
20
3.0130951
11
3.3962551
21
3.0206965
0
LINE
8
layer1
10
3.3962551
20
3.0206965
11
3.4176026
21
3.0305041
0
LINE
8
layer1
10
3.4176026
20
3.0305041
11
3.4633595
21
3.0568863
0
LINE
8
layer1
10
3.4633595
20
3.0568863
11
3.5125741
21
3.0926234
0
LINE
8
layer1
10
3.5125741
20
3.0926234
11
3.5497185
21
3.1216219
0
LINE
8
layer1
10
3.5497185
20
3.1216219
11
3.6003827
21
3.153774
0
LINE
8
layer1
10
3.6003827
20
3.153774
11
3.6366077
21
3.1738629
0
LINE
8
layer1
10
3.6366077
20
3.1738629
11
3.6816858
21
3.1964833
0
LINE
8
layer1
10
3.6816858
20
3.1964833
11
3.7366846
21
3.2212037
0
LINE
8
layer1
10
3.7366846
20
3.2212037
11
3.797319
21
3.2454787
0
LINE
8
layer1
10
3.797319
20
3.2454787
11
3.8687792
21
3.2706941
0
LINE
8
layer1
10
3.8687792
20
3.2706941
11
3.948562
21
3.2951388
0
LINE
8
layer1
10
3.948562
20
3.2951388
11
4.0364908
21
3.3181127
0
LINE
8
layer1
10
4.0364908
20
3.3181127
11
4.1347574
21
3.3394461
0
LINE
8
layer1
10
4.1347574
20
3.3394461
11
4.2417214
21
3.3579935
0
LINE
8
layer1
10
4.2417214
20
3.3579935
11
4.3453153
21
3.3716687
0
ARC
8
layer1
10
-0.000006
20
-0.0000049
40
5.5
50
34.1909799
51
37.809029
0
LINE
8
layer1
10
4.5494238
20
3.0907375
11
4.5044056
21
2.9964398
0
LINE
8
layer1
10
4.5044056
20
2.9964398
11
4.4537123
21
2.9004424
0
LINE
8
layer1
10
4.4537123
20
2.9004424
11
4.403057
21
2.8135776
0
LINE
8
layer1
10
4.403057
20
2.8135776
11
4.354036
21
2.7370518
0
LINE
8
layer1
10
4.354036
20
2.7370518
11
4.3061335
21
2.6687276
0
LINE
8
layer1
10
4.3061335
20
2.6687276
11
4.2600698
21
2.6085569
0
LINE
8
layer1
10
4.2600698
20
2.6085569
11
4.2182458
21
2.5583915
0
LINE
8
layer1
10
4.2182458
20
2.5583915
11
4.1777397
21
2.5137236
0
LINE
8
layer1
10
4.1777397
20
2.5137236
11
4.1422966
21
2.4778419
0
LINE
8
layer1
10
4.1422966
20
2.4778419
11
4.1119968
21
2.4495976
0
LINE
8
layer1
10
4.1119968
20
2.4495976
11
4.0657622
21
2.4113487
0
LINE
8
layer1
10
4.0657622
20
2.4113487
11
4.0267048
21
2.3849833
0
LINE
8
layer1
10
4.0267048
20
2.3849833
11
3.9775085
21
2.3492208
0
LINE
8
layer1
10
3.9775085
20
2.3492208
11
3.938278
21
2.313856
0
LINE
8
layer1
10
3.938278
20
2.313856
11
3.9223537
21
2.296584
0
LINE
8
layer1
10
3.9223537
20
2.296584
11
3.9088728
21
2.2796927
0
LINE
8
layer1
10
3.9088728
20
2.2796927
11
3.8978032
21
2.2632894
0
LINE
8
layer1
10
3.8978032
20
2.2632894
11
3.889113
21
2.2474587
0
LINE
8
layer1
10
3.889113
20
2.2474587
11
3.882779
21
2.2323123
0
LINE
8
layer1
10
3.882779
20
2.2323123
11
3.8787738
21
2.2179259
0
LINE
8
layer1
10
3.8787738
20
2.2179259
11
3.8770518
21
2.2043887
0
LINE
8
layer1
10
3.8770518
20
2.2043887
11
3.8775768
21
2.1917943
0
LINE
8
layer1
10
3.8775768
20
2.1917943
11
3.8803166
21
2.1802275
0
LINE
8
layer1
10
3.8803166
20
2.1802275
11
3.8941045
21
2.15374
0
LINE
8
layer1
10
3.8941045
20
2.15374
11
3.964979
21
2.0202577
0
LINE
8
layer1
10
3.964979
20
2.0202577
11
4.0313095
21
1.8844601
0
LINE
8
layer1
10
4.0313095
20
1.8844601
11
4.044634
21
1.8577366
0
LINE
8
layer1
10
4.044634
20
1.8577366
11
4.0523813
21
1.8487211
0
LINE
8
layer1
10
4.0523813
20
1.8487211
11
4.0622618
21
1.8408937
0
LINE
8
layer1
10
4.0622618
20
1.8408937
11
4.0742257
21
1.8343298
0
LINE
8
layer1
10
4.0742257
20
1.8343298
11
4.0882188
21
1.829114
0
LINE
8
layer1
10
4.0882188
20
1.829114
11
4.1041956
21
1.8253355
0
LINE
8
layer1
10
4.1041956
20
1.8253355
11
4.1221109
21
1.8230609
0
LINE
8
layer1
10
4.1221109
20
1.8230609
11
4.1418879
21
1.8223747
0
LINE
8
layer1
10
4.1418879
20
1.8223747
11
4.1634771
21
1.8233526
0
LINE
8
layer1
10
4.1634771
20
1.8233526
11
4.1868105
21
1.8260834
0
LINE
8
layer1
10
4.1868105
20
1.8260834
11
4.2384804
21
1.8370346
0
LINE
8
layer1
10
4.2384804
20
1.8370346
11
4.2963297
21
1.8558146
0
LINE
8
layer1
10
4.2963297
20
1.8558146
11
4.3406171
21
1.8719155
0
LINE
8
layer1
10
4.3406171
20
1.8719155
11
4.3987372
21
1.8868379
0
LINE
8
layer1
10
4.3987372
20
1.8868379
11
4.4393971
21
1.8947494
0
LINE
8
layer1
10
4.4393971
20
1.8947494
11
4.4892589
21
1.9023328
0
LINE
8
layer1
10
4.4892589
20
1.9023328
11
4.5492049
21
1.9088478
0
LINE
8
layer1
10
4.5492049
20
1.9088478
11
4.614373
21
1.9131976
0
LINE
8
layer1
10
4.614373
20
1.9131976
11
4.6901277
21
1.9150965
0
LINE
8
layer1
10
4.6901277
20
1.9150965
11
4.7735596
21
1.9136905
0
LINE
8
layer1
10
4.7735596
20
1.9136905
11
4.8642841
21
1.9083685
0
LINE
8
layer1
10
4.8642841
20
1.9083685
11
4.9643336
21
1.8982917
0
LINE
8
layer1
10
4.9643336
20
1.8982917
11
5.0717939
21
1.8828776
0
LINE
8
layer1
10
5.0717939
20
1.8828776
11
5.1745434
21
1.8638713
0
ARC
8
layer1
10
-0.0000073
20
-0.0000024
40
5.5
50
16.1909758
51
19.8090254
0
LINE
8
layer1
10
5.2818496
20
1.5336168
11
5.2098951
21
1.4578457
0
ENDSEC
0
EOF