0
SECTION
2
HEADER
0
ENDSEC
0
SECTION
2
TABLES
0
TABLE
2
LTYPE
0
LTYPE
72
65
70
64
2
CONTINUOUS
3
______
73
0
40
0
0
ENDTAB
0
TABLE
2
LAYER
0
ENDTAB
0
ENDSEC
0
SECTION
2
ENTITIES
0
LINE
8
layer0
10
19.0625762
20
2.9200815
11
18.9207736
21
2.8254997
0
LINE
8
layer0
10
18.9207736
20
2.8254997
11
18.7827216
21
2.7375508
0
LINE
8
layer0
10
18.7827216
20
2.7375508
11
18.5216995
21
2.5824987
0
LINE
8
layer0
10
18.5216995
20
2.5824987
11
18.2824703
21
2.4536055
0
LINE
8
layer0
10
18.2824703
20
2.4536055
11
18.0641311
21
2.3475166
0
LINE
8
layer0
10
18.0641311
20
2.3475166
11
17.8703403
21
2.2631859
0
LINE
8
layer0
10
17.8703403
20
2.2631859
11
17.7018381
21
2.1980794
0
LINE
8
layer0
10
17.7018381
20
2.1980794
11
17.4482349
21
2.1108654
0
LINE
8
layer0
10
17.4482349
20
2.1108654
11
17.4004895
21
2.0881441
0
LINE
8
layer0
10
17.4004895
20
2.0881441
11
17.3613595
21
2.0645214
0
LINE
8
layer0
10
17.3613595
20
2.0645214
11
17.3308335
21
2.0403478
0
LINE
8
layer0
10
17.3308335
20
2.0403478
11
17.3089317
21
2.0159563
0
LINE
8
layer0
10
17.3089317
20
2.0159563
11
17.2956501
21
1.9917282
0
LINE
8
layer0
10
17.2956501
20
1.9917282
11
17.2909489
21
1.9679913
0
LINE
8
layer0
10
17.2909489
20
1.9679913
11
17.3004478
21
1.8782916
0
LINE
8
layer0
10
17.3004478
20
1.8782916
11
17.3319945
21
1.5599077
0
LINE
8
layer0
10
17.3319945
20
1.5599077
11
17.3578044
21
1.2410075
0
LINE
8
layer0
10
17.3578044
20
1.2410075
11
17.3644746
21
1.1510533
0
LINE
8
layer0
10
17.3644746
20
1.1510533
11
17.3733387
21
1.1285372
0
LINE
8
layer0
10
17.3733387
20
1.1285372
11
17.390733
21
1.10707
0
LINE
8
layer0
10
17.390733
20
1.10707
11
17.416638
21
1.0869813
0
LINE
8
layer0
10
17.416638
20
1.0869813
11
17.4509898
21
1.0686467
0
LINE
8
layer0
10
17.4509898
20
1.0686467
11
17.493709
21
1.0523906
0
LINE
8
layer0
10
17.493709
20
1.0523906
11
17.5447442
21
1.0385597
0
LINE
8
layer0
10
17.5447442
20
1.0385597
11
17.8098445
21
0.9980299
0
LINE
8
layer0
10
17.8098445
20
0.9980299
11
17.987264
21
0.9640569
0
LINE
8
layer0
10
17.987264
20
0.9640569
11
18.1929984
21
0.9156841
0
LINE
8
layer0
10
18.1929984
20
0.9156841
11
18.4267717
21
0.8502861
0
LINE
8
layer0
10
18.4267717
20
0.8502861
11
18.6851711
21
0.7661802
0
LINE
8
layer0
10
18.6851711
20
0.7661802
11
18.9696841
21
0.6602272
0
LINE
8
layer0
10
18.9696841
20
0.6602272
11
19.1212215
21
0.5983418
0
LINE
8
layer0
10
19.1212215
20
0.5983418
11
19.2776335
21
0.5305998
0
LINE
8
layer0
10
19.2776335
20
0.5305998
11
19.563419
21
0.3968109
0
ARC
8
layer0
10
-0.0000071
20
0
40
19.56745
50
358.838012
51
361.1619883
0
LINE
8
layer0
10
19.563419
20
-0.3968109
11
19.2776335
21
-0.5305998
0
LINE
8
layer0
10
19.2776335
20
-0.5305998
11
19.1212215
21
-0.5983418
0
LINE
8
layer0
10
19.1212215
20
-0.5983418
11
18.9696841
21
-0.6602272
0
LINE
8
layer0
10
18.9696841
20
-0.6602272
11
18.6851711
21
-0.7661802
0
LINE
8
layer0
10
18.6851711
20
-0.7661802
11
18.4267717
21
-0.8502861
0
LINE
8
layer0
10
18.4267717
20
-0.8502861
11
18.1929984
21
-0.9156841
0
LINE
8
layer0
10
18.1929984
20
-0.9156841
11
17.987264
21
-0.9640569
0
LINE
8
layer0
10
17.987264
20
-0.9640569
11
17.8098445
21
-0.9980299
0
LINE
8
layer0
10
17.8098445
20
-0.9980299
11
17.5447442
21
-1.0385597
0
LINE
8
layer0
10
17.5447442
20
-1.0385597
11
17.493709
21
-1.0523906
0
LINE
8
layer0
10
17.493709
20
-1.0523906
11
17.4509898
21
-1.0686467
0
LINE
8
layer0
10
17.4509898
20
-1.0686467
11
17.416638
21
-1.0869813
0
LINE
8
layer0
10
17.416638
20
-1.0869813
11
17.390733
21
-1.10707
0
LINE
8
layer0
10
17.390733
20
-1.10707
11
17.3733387
21
-1.1285372
0
LINE
8
layer0
10
17.3733387
20
-1.1285372
11
17.3644746
21
-1.1510533
0
LINE
8
layer0
10
17.3644746
20
-1.1510533
11
17.3578044
21
-1.2410075
0
LINE
8
layer0
10
17.3578044
20
-1.2410075
11
17.3319945
21
-1.5599077
0
LINE
8
layer0
10
17.3319945
20
-1.5599077
11
17.3004478
21
-1.8782916
0
LINE
8
layer0
10
17.3004478
20
-1.8782916
11
17.2909489
21
-1.9679913
0
LINE
8
layer0
10
17.2909489
20
-1.9679913
11
17.2956501
21
-1.9917282
0
LINE
8
layer0
10
17.2956501
20
-1.9917282
11
17.3089317
21
-2.0159563
0
LINE
8
layer0
10
17.3089317
20
-2.0159563
11
17.3308335
21
-2.0403478
0
LINE
8
layer0
10
17.3308335
20
-2.0403478
11
17.3613595
21
-2.0645214
0
LINE
8
layer0
10
17.3613595
20
-2.0645214
11
17.4004895
21
-2.0881441
0
LINE
8
layer0
10
17.4004895
20
-2.0881441
11
17.4482349
21
-2.1108654
0
LINE
8
layer0
10
17.4482349
20
-2.1108654
11
17.7018381
21
-2.1980794
0
LINE
8
layer0
10
17.7018381
20
-2.1980794
11
17.8703403
21
-2.2631859
0
LINE
8
layer0
10
17.8703403
20
-2.2631859
11
18.0641311
21
-2.3475166
0
LINE
8
layer0
10
18.0641311
20
-2.3475166
11
18.2824703
21
-2.4536055
0
LINE
8
layer0
10
18.2824703
20
-2.4536055
11
18.5216995
21
-2.5824987
0
LINE
8
layer0
10
18.5216995
20
-2.5824987
11
18.7827216
21
-2.7375508
0
LINE
8
layer0
10
18.7827216
20
-2.7375508
11
18.9207736
21
-2.8254997
0
LINE
8
layer0
10
18.9207736
20
-2.8254997
11
19.0625762
21
-2.9200815
0
LINE
8
layer0
10
19.0625762
20
-2.9200815
11
19.3198801
21
-3.1027494
0
ARC
8
layer0
10
-0.0000071
20
5e-7
40
19.56745
50
348.5522998
51
350.8762762
0
LINE
8
layer0
10
19.1781735
20
-3.8836173
11
18.8730917
21
-3.9642272
0
LINE
8
layer0
10
18.8730917
20
-3.9642272
11
18.7070975
21
-4.0029522
0
LINE
8
layer0
10
18.7070975
20
-4.0029522
11
18.5469453
21
-4.036785
0
LINE
8
layer0
10
18.5469453
20
-4.036785
11
18.248086
21
-4.0902335
0
LINE
8
layer0
10
18.248086
20
-4.0902335
11
17.9788215
21
-4.1268488
0
LINE
8
layer0
10
17.9788215
20
-4.1268488
11
17.7371277
21
-4.149454
0
LINE
8
layer0
10
17.7371277
20
-4.149454
11
17.5260623
21
-4.1603141
0
LINE
8
layer0
10
17.5260623
20
-4.1603141
11
17.3454278
21
-4.1620617
0
LINE
8
layer0
10
17.3454278
20
-4.1620617
11
17.077351
21
-4.1546046
0
LINE
8
layer0
10
17.077351
20
-4.1546046
11
17.0246663
21
-4.1591006
0
LINE
8
layer0
10
17.0246663
20
-4.1591006
11
16.979731
21
-4.1674677
0
LINE
8
layer0
10
16.979731
20
-4.1674677
11
16.9426575
21
-4.1793738
0
LINE
8
layer0
10
16.9426575
20
-4.1793738
11
16.9135818
21
-4.1945142
0
LINE
8
layer0
10
16.9135818
20
-4.1945142
11
16.8926339
21
-4.2125306
0
LINE
8
layer0
10
16.8926339
20
-4.2125306
11
16.8798919
21
-4.2331021
0
LINE
8
layer0
10
16.8798919
20
-4.2331021
11
16.8572669
21
-4.3204197
0
LINE
8
layer0
10
16.8572669
20
-4.3204197
11
16.7749299
21
-4.6295865
0
LINE
8
layer0
10
16.7749299
20
-4.6295865
11
16.6870405
21
-4.9372209
0
LINE
8
layer0
10
16.6870405
20
-4.9372209
11
16.6616778
21
-5.023783
0
LINE
8
layer0
10
16.6616778
20
-5.023783
11
16.662065
21
-5.0479779
0
LINE
8
layer0
10
16.662065
20
-5.0479779
11
16.6708072
21
-5.0741882
0
LINE
8
layer0
10
16.6708072
20
-5.0741882
11
16.6880017
21
-5.1020984
0
LINE
8
layer0
10
16.6880017
20
-5.1020984
11
16.7137207
21
-5.1313341
0
LINE
8
layer0
10
16.7137207
20
-5.1313341
11
16.7480039
21
-5.1615641
0
LINE
8
layer0
10
16.7480039
20
-5.1615641
11
16.7909251
21
-5.1924456
0
LINE
8
layer0
10
16.7909251
20
-5.1924456
11
17.02488
21
-5.3235406
0
LINE
8
layer0
10
17.02488
20
-5.3235406
11
17.1790492
21
-5.417688
0
LINE
8
layer0
10
17.1790492
20
-5.417688
11
17.3546678
21
-5.5352662
0
LINE
8
layer0
10
17.3546678
20
-5.5352662
11
17.5505553
21
-5.6786362
0
LINE
8
layer0
10
17.5505553
20
-5.6786362
11
17.7629252
21
-5.8481741
0
LINE
8
layer0
10
17.7629252
20
-5.8481741
11
17.9920669
21
-6.0473416
0
LINE
8
layer0
10
17.9920669
20
-6.0473416
11
18.1121966
21
-6.1585273
0
LINE
8
layer0
10
18.1121966
20
-6.1585273
11
18.2348321
21
-6.2769091
0
LINE
8
layer0
10
18.2348321
20
-6.2769091
11
18.4553844
21
-6.5025847
0
ARC
8
layer0
10
-0.0000068
20
0.0000021
40
19.56745
50
338.2665844
51
340.590561
0
LINE
8
layer0
10
18.1765257
20
-7.2456011
11
17.8619533
21
-7.2704411
0
LINE
8
layer0
10
17.8619533
20
-7.2704411
11
17.6917121
21
-7.2789043
0
LINE
8
layer0
10
17.6917121
20
-7.2789043
11
17.5280925
21
-7.2835972
0
LINE
8
layer0
10
17.5280925
20
-7.2835972
11
17.2244923
21
-7.2828234
0
LINE
8
layer0
10
17.2244923
20
-7.2828234
11
16.9530171
21
-7.2707711
0
LINE
8
layer0
10
16.9530171
20
-7.2707711
11
16.7111711
21
-7.249857
0
LINE
8
layer0
10
16.7111711
20
-7.249857
11
16.5015585
21
-7.2228555
0
LINE
8
layer0
10
16.5015585
20
-7.2228555
11
16.3235149
21
-7.1923214
0
LINE
8
layer0
10
16.3235149
20
-7.1923214
11
16.0610776
21
-7.1371172
0
LINE
8
layer0
10
16.0610776
20
-7.1371172
11
16.0084368
21
-7.1321337
0
LINE
8
layer0
10
16.0084368
20
-7.1321337
11
15.9627296
21
-7.1323428
0
LINE
8
layer0
10
15.9627296
20
-7.1323428
11
15.924126
21
-7.1374379
0
LINE
8
layer0
10
15.924126
20
-7.1374379
11
15.8928141
21
-7.1471433
0
LINE
8
layer0
10
15.8928141
20
-7.1471433
11
15.8689859
21
-7.1611297
0
LINE
8
layer0
10
15.8689859
20
-7.1611297
11
15.8527755
21
-7.1790955
0
LINE
8
layer0
10
15.8527755
20
-7.1790955
11
15.8149229
21
-7.26097
0
LINE
8
layer0
10
15.8149229
20
-7.26097
11
15.6787053
21
-7.5504665
0
LINE
8
layer0
10
15.6787053
20
-7.5504665
11
15.5372981
21
-7.8374639
0
LINE
8
layer0
10
15.5372981
20
-7.8374639
11
15.4968867
21
-7.9181062
0
LINE
8
layer0
10
15.4968867
20
-7.9181062
11
15.4929475
21
-7.9419814
0
LINE
8
layer0
10
15.4929475
20
-7.9419814
11
15.4968692
21
-7.9693315
0
LINE
8
layer0
10
15.4968692
20
-7.9693315
11
15.5088038
21
-7.9998633
0
LINE
8
layer0
10
15.5088038
20
-7.9998633
11
15.5288893
21
-8.0332216
0
LINE
8
layer0
10
15.5288893
20
-8.0332216
11
15.5572237
21
-8.0690872
0
LINE
8
layer0
10
15.5572237
20
-8.0690872
11
15.593941
21
-8.1071363
0
LINE
8
layer0
10
15.593941
20
-8.1071363
11
15.8007283
21
-8.2778988
0
LINE
8
layer0
10
15.8007283
20
-8.2778988
11
15.9356092
21
-8.3980612
0
LINE
8
layer0
10
15.9356092
20
-8.3980612
11
16.0874112
21
-8.5451078
0
LINE
8
layer0
10
16.0874112
20
-8.5451078
11
16.2545511
21
-8.7211508
0
LINE
8
layer0
10
16.2545511
20
-8.7211508
11
16.4332359
21
-8.9258843
0
LINE
8
layer0
10
16.4332359
20
-8.9258843
11
16.6231325
21
-9.162766
0
LINE
8
layer0
10
16.6231325
20
-9.162766
11
16.7214786
21
-9.2936149
0
LINE
8
layer0
10
16.7214786
20
-9.2936149
11
16.8210055
21
-9.4319915
0
LINE
8
layer0
10
16.8210055
20
-9.4319915
11
16.9977174
21
-9.6934216
0
ARC
8
layer0
10
-0.0000061
20
0.0000037
40
19.56745
50
327.9808689
51
330.3048453
0
LINE
8
layer0
10
16.5906694
20
-10.3747053
11
16.276717
21
-10.342977
0
LINE
8
layer0
10
16.276717
20
-10.342977
11
16.1077004
21
-10.3209065
0
LINE
8
layer0
10
16.1077004
20
-10.3209065
11
15.9458723
21
-10.2963085
0
LINE
8
layer0
10
15.9458723
20
-10.2963085
11
15.6472893
21
-10.2413373
0
LINE
8
layer0
10
15.6472893
20
-10.2413373
11
15.3823288
21
-10.181005
0
LINE
8
layer0
10
15.3823288
20
-10.181005
11
15.1481038
21
-10.1172436
0
LINE
8
layer0
10
15.1481038
20
-10.1172436
11
14.946681
21
-10.0532482
0
LINE
8
layer0
10
14.946681
20
-10.0532482
11
14.7769507
21
-9.991414
0
LINE
8
layer0
10
14.7769507
20
-9.991414
11
14.528588
21
-9.8902369
0
LINE
8
layer0
10
14.528588
20
-9.8902369
11
14.477683
21
-9.8759341
0
LINE
8
layer0
10
14.477683
20
-9.8759341
11
14.432673
21
-9.8679785
0
LINE
8
layer0
10
14.432673
20
-9.8679785
11
14.39378
21
-9.8660988
0
LINE
8
layer0
10
14.39378
20
-9.8660988
11
14.3612383
21
-9.8700573
0
LINE
8
layer0
10
14.3612383
20
-9.8700573
11
14.3352957
21
-9.8795643
0
LINE
8
layer0
10
14.3352957
20
-9.8795643
11
14.3161379
21
-9.8943468
0
LINE
8
layer0
10
14.3161379
20
-9.8943468
11
14.2642744
21
-9.9681467
0
LINE
8
layer0
10
14.2642744
20
-9.9681467
11
14.0785542
21
-10.2286683
0
LINE
8
layer0
10
14.0785542
20
-10.2286683
11
13.8881741
21
-10.4858043
0
LINE
8
layer0
10
13.8881741
20
-10.4858043
11
13.8340129
21
-10.5579349
0
LINE
8
layer0
10
13.8340129
20
-10.5579349
11
13.825874
21
-10.5807231
0
LINE
8
layer0
10
13.825874
20
-10.5807231
11
13.824849
21
-10.6083339
0
LINE
8
layer0
10
13.824849
20
-10.6083339
11
13.8311402
21
-10.6405061
0
LINE
8
layer0
10
13.8311402
20
-10.6405061
11
13.8449465
21
-10.6769146
0
LINE
8
layer0
10
13.8449465
20
-10.6769146
11
13.8664216
21
-10.7172633
0
LINE
8
layer0
10
13.8664216
20
-10.7172633
11
13.8957549
21
-10.761257
0
LINE
8
layer0
10
13.8957549
20
-10.761257
11
14.0687282
21
-10.9661985
0
LINE
8
layer0
10
14.0687282
20
-10.9661985
11
14.1799857
21
-11.1085138
0
LINE
8
layer0
10
14.1799857
20
-11.1085138
11
14.303092
21
-11.2803026
0
LINE
8
layer0
10
14.303092
20
-11.2803026
11
14.4361121
21
-11.4833605
0
LINE
8
layer0
10
14.4361121
20
-11.4833605
11
14.5753689
21
-11.7167092
0
LINE
8
layer0
10
14.5753689
20
-11.7167092
11
14.7199169
21
-11.9836915
0
LINE
8
layer0
10
14.7199169
20
-11.9836915
11
14.7933185
21
-12.1299979
0
LINE
8
layer0
10
14.7933185
20
-12.1299979
11
14.8665379
21
-12.2839221
0
LINE
8
layer0
10
14.8665379
20
-12.2839221
11
14.9937298
21
-12.572704
0
ARC
8
layer0
10
-0.0000053
20
0.0000048
40
19.56745
50
317.6951541
51
320.0191307
0
LINE
8
layer0
10
14.4715754
20
-13.1703579
11
14.1683336
21
-13.0830812
0
LINE
8
layer0
10
14.1683336
20
-13.0830812
11
14.005974
21
-13.0311862
0
LINE
8
layer0
10
14.005974
20
-13.0311862
11
13.8511387
21
-12.9780881
0
LINE
8
layer0
10
13.8511387
20
-12.9780881
11
13.5671696
21
-12.8706862
0
LINE
8
layer0
10
13.5671696
20
-12.8706862
11
13.3172398
21
-12.7640129
0
LINE
8
layer0
10
13.3172398
20
-12.7640129
11
13.0981639
21
-12.6594537
0
LINE
8
layer0
10
13.0981639
20
-12.6594537
11
12.9114049
21
-12.5605213
0
LINE
8
layer0
10
12.9114049
20
-12.5605213
11
12.7554432
21
-12.4693742
0
LINE
8
layer0
10
12.7554432
20
-12.4693742
11
12.5291376
21
-12.3254763
0
LINE
8
layer0
10
12.5291376
20
-12.3254763
11
12.4816045
21
-12.3023139
0
LINE
8
layer0
10
12.4816045
20
-12.3023139
11
12.4387384
21
-12.2864494
0
LINE
8
layer0
10
12.4387384
20
-12.2864494
11
12.4008061
21
-12.2776552
0
LINE
8
layer0
10
12.4008061
20
-12.2776552
11
12.3680805
21
-12.2757396
0
LINE
8
layer0
10
12.3680805
20
-12.2757396
11
12.3408573
21
-12.2804615
0
LINE
8
layer0
10
12.3408573
20
-12.2804615
11
12.3193678
21
-12.2915857
0
LINE
8
layer0
10
12.3193678
20
-12.2915857
11
12.2551603
21
-12.354939
0
LINE
8
layer0
10
12.2551603
20
-12.354939
11
12.0259068
21
-12.5781124
0
LINE
8
layer0
10
12.0259068
20
-12.5781124
11
11.7926727
21
-12.7971224
0
LINE
8
layer0
10
11.7926727
20
-12.7971224
11
11.7265026
21
-12.858423
0
LINE
8
layer0
10
11.7265026
20
-12.858423
11
11.7144254
21
-12.8793917
0
LINE
8
layer0
10
11.7144254
20
-12.8793917
11
11.7084869
21
-12.9063757
0
LINE
8
layer0
10
11.7084869
20
-12.9063757
11
11.7089324
21
-12.9391542
0
LINE
8
layer0
10
11.7089324
20
-12.9391542
11
11.7160158
21
-12.9774429
0
LINE
8
layer0
10
11.7160158
20
-12.9774429
11
11.7299412
21
-13.0209776
0
LINE
8
layer0
10
11.7299412
20
-13.0209776
11
11.7509477
21
-13.069502
0
LINE
8
layer0
10
11.7509477
20
-13.069502
11
11.8845476
21
-13.3020356
0
LINE
8
layer0
10
11.8845476
20
-13.3020356
11
11.9686057
21
-13.4619296
0
LINE
8
layer0
10
11.9686057
20
-13.4619296
11
12.0590596
21
-13.6529392
0
LINE
8
layer0
10
12.0590596
20
-13.6529392
11
12.1536847
21
-13.8764855
0
LINE
8
layer0
10
12.1536847
20
-13.8764855
11
12.2490375
21
-14.1309495
0
LINE
8
layer0
10
12.2490375
20
-14.1309495
11
12.343591
21
-14.4194513
0
LINE
8
layer0
10
12.343591
20
-14.4194513
11
12.3896891
21
-14.5765129
0
LINE
8
layer0
10
12.3896891
20
-14.5765129
11
12.4342475
21
-14.7410372
0
LINE
8
layer0
10
12.4342475
20
-14.7410372
11
12.5078315
21
-15.0478893
0
ARC
8
layer0
10
-0.0000045
20
0.0000055
40
19.56745
50
307.4094406
51
309.7334172
0
LINE
8
layer0
10
11.887353
20
-15.5427044
11
11.6045683
21
-15.4026843
0
LINE
8
layer0
10
11.6045683
20
-15.4026843
11
11.4540841
21
-15.322633
0
LINE
8
layer0
10
11.4540841
20
-15.322633
11
11.3112181
21
-15.2427412
0
LINE
8
layer0
10
11.3112181
20
-15.2427412
11
11.0509898
21
-15.0863606
0
LINE
8
layer0
10
11.0509898
20
-15.0863606
11
10.8241238
21
-14.9367749
0
LINE
8
layer0
10
10.8241238
20
-14.9367749
11
10.6272383
21
-14.7947786
0
LINE
8
layer0
10
10.6272383
20
-14.7947786
11
10.4611456
21
-14.664089
0
LINE
8
layer0
10
10.4611456
20
-14.664089
11
10.3239652
21
-14.5465586
0
LINE
8
layer0
10
10.3239652
20
-14.5465586
11
10.1269904
21
-14.3645647
0
LINE
8
layer0
10
10.1269904
20
-14.3645647
11
10.084357
21
-14.3332872
0
LINE
8
layer0
10
10.084357
20
-14.3332872
11
10.0450125
21
-14.3100236
0
LINE
8
layer0
10
10.0450125
20
-14.3100236
11
10.00926
21
-14.2945977
0
LINE
8
layer0
10
10.00926
20
-14.2945977
11
9.9774025
21
-14.2868694
0
LINE
8
layer0
10
9.9774025
20
-14.2868694
11
9.9497735
21
-14.2866546
0
LINE
8
layer0
10
9.9497735
20
-14.2866546
11
9.9266431
21
-14.293763
0
LINE
8
layer0
10
9.9266431
20
-14.293763
11
9.8521553
21
-14.3446334
0
LINE
8
layer0
10
9.8521553
20
-14.3446334
11
9.5867368
21
-14.5232855
0
LINE
8
layer0
10
9.5867368
20
-14.5232855
11
9.3181452
21
-14.6971304
0
LINE
8
layer0
10
9.3181452
20
-14.6971304
11
9.2420928
21
-14.7456307
0
LINE
8
layer0
10
9.2420928
20
-14.7456307
11
9.2264656
21
-14.764106
0
LINE
8
layer0
10
9.2264656
20
-14.764106
11
9.2158043
21
-14.789596
0
LINE
8
layer0
10
9.2158043
20
-14.789596
11
9.2103898
21
-14.8219273
0
LINE
8
layer0
10
9.2103898
20
-14.8219273
11
9.2105227
21
-14.8608655
0
LINE
8
layer0
10
9.2105227
20
-14.8608655
11
9.2164509
21
-14.906187
0
LINE
8
layer0
10
9.2164509
20
-14.906187
11
9.2284555
21
-14.9576825
0
LINE
8
layer0
10
9.2284555
20
-14.9576825
11
9.3183879
21
-15.2103344
0
LINE
8
layer0
10
9.3183879
20
-15.2103344
11
9.372545
21
-15.382668
0
LINE
8
layer0
10
9.372545
20
-15.382668
11
9.4274391
21
-15.5867591
0
LINE
8
layer0
10
9.4274391
20
-15.5867591
11
9.4806278
21
-15.8236089
0
LINE
8
layer0
10
9.4806278
20
-15.8236089
11
9.529012
21
-16.0910094
0
LINE
8
layer0
10
9.529012
20
-16.0910094
11
9.570532
21
-16.391758
0
LINE
8
layer0
10
9.570532
20
-16.391758
11
9.5878448
21
-16.5545267
0
LINE
8
layer0
10
9.5878448
20
-16.5545267
11
9.6023102
21
-16.7243633
0
LINE
8
layer0
10
9.6023102
20
-16.7243633
11
9.6199211
21
-17.0394231
0
ARC
8
layer0
10
-0.0000035
20
0.0000062
40
19.56745
50
297.1237264
51
299.447703
0
LINE
8
layer0
10
8.9210613
20
-17.4154956
11
8.6678226
21
-17.2272325
0
LINE
8
layer0
10
8.6678226
20
-17.2272325
11
8.5340505
21
-17.1215976
0
LINE
8
layer0
10
8.5340505
20
-17.1215976
11
8.4077456
21
-17.01748
0
LINE
8
layer0
10
8.4077456
20
-17.01748
11
8.1796222
21
-16.817147
0
LINE
8
layer0
10
8.1796222
20
-16.817147
11
7.9831115
21
-16.6294568
0
LINE
8
layer0
10
7.9831115
20
-16.6294568
11
7.8147445
21
-16.4545871
0
LINE
8
layer0
10
7.8147445
20
-16.4545871
11
7.6746565
21
-16.2963407
0
LINE
8
layer0
10
7.6746565
20
-16.2963407
11
7.5606665
21
-16.1562046
0
LINE
8
layer0
10
7.5606665
20
-16.1562046
11
7.3993535
21
-15.9419642
0
LINE
8
layer0
10
7.3993535
20
-15.9419642
11
7.36299
21
-15.9035769
0
LINE
8
layer0
10
7.36299
20
-15.9035769
11
7.3284317
21
-15.8736618
0
LINE
8
layer0
10
7.3284317
20
-15.8736618
11
7.2960081
21
-15.8521
0
LINE
8
layer0
10
7.2960081
20
-15.8521
11
7.2660425
21
-15.8388076
0
LINE
8
layer0
10
7.2660425
20
-15.8388076
11
7.2388959
21
-15.8336628
0
LINE
8
layer0
10
7.2388959
20
-15.8336628
11
7.214868
21
-15.8365269
0
LINE
8
layer0
10
7.214868
20
-15.8365269
11
7.1324939
21
-15.8732795
0
LINE
8
layer0
10
7.1324939
20
-15.8732795
11
6.8394413
21
-16.0016683
0
LINE
8
layer0
10
6.8394413
20
-16.0016683
11
6.5441248
21
-16.1247605
0
LINE
8
layer0
10
6.5441248
20
-16.1247605
11
6.4606345
21
-16.1589017
0
LINE
8
layer0
10
6.4606345
20
-16.1589017
11
6.4419596
21
-16.1742898
0
LINE
8
layer0
10
6.4419596
20
-16.1742898
11
6.4269182
21
-16.1974665
0
LINE
8
layer0
10
6.4269182
20
-16.1974665
11
6.4158177
21
-16.2283114
0
LINE
8
layer0
10
6.4158177
20
-16.2283114
11
6.4089958
21
-16.2666476
0
LINE
8
layer0
10
6.4089958
20
-16.2666476
11
6.4067363
21
-16.3122993
0
LINE
8
layer0
10
6.4067363
20
-16.3122993
11
6.4093531
21
-16.3651107
0
LINE
8
layer0
10
6.4093531
20
-16.3651107
11
6.4527275
21
-16.6297604
0
LINE
8
layer0
10
6.4527275
20
-16.6297604
11
6.4752429
21
-16.8089947
0
LINE
8
layer0
10
6.4752429
20
-16.8089947
11
6.492813
21
-17.0196077
0
LINE
8
layer0
10
6.492813
20
-17.0196077
11
6.5028557
21
-17.2621485
0
LINE
8
layer0
10
6.5028557
20
-17.2621485
11
6.5027161
21
-17.5338911
0
LINE
8
layer0
10
6.5027161
20
-17.5338911
11
6.4898682
21
-17.8372202
0
LINE
8
layer0
10
6.4898682
20
-17.8372202
11
6.4778393
21
-18.0004645
0
LINE
8
layer0
10
6.4778393
20
-18.0004645
11
6.4617467
21
-18.1701546
0
LINE
8
layer0
10
6.4617467
20
-18.1701546
11
6.4228185
21
-18.4832958
0
ARC
8
layer0
10
-0.0000023
20
0.0000067
40
19.56745
50
286.8380122
51
289.1619886
0
LINE
8
layer0
10
5.6680394
20
-18.7285384
11
5.452486
21
-18.4980833
0
LINE
8
layer0
10
5.452486
20
-18.4980833
11
5.3397255
21
-18.3702601
0
LINE
8
layer0
10
5.3397255
20
-18.3702601
11
5.2340413
21
-18.2452631
0
LINE
8
layer0
10
5.2340413
20
-18.2452631
11
5.0453547
21
-18.0074165
0
LINE
8
layer0
10
5.0453547
20
-18.0074165
11
4.8855155
21
-17.7876542
0
LINE
8
layer0
10
4.8855155
20
-17.7876542
11
4.7510784
21
-17.5855316
0
LINE
8
layer0
10
4.7510784
20
-17.5855316
11
4.6414976
21
-17.4048146
0
LINE
8
layer0
10
4.6414976
20
-17.4048146
11
4.5543617
21
-17.2465769
0
LINE
8
layer0
10
4.5543617
20
-17.2465769
11
4.4338952
21
-17.0069759
0
LINE
8
layer0
10
4.4338952
20
-17.0069759
11
4.4049704
21
-16.9627125
0
LINE
8
layer0
10
4.4049704
20
-16.9627125
11
4.376309
21
-16.9271076
0
LINE
8
layer0
10
4.376309
20
-16.9271076
11
4.3482565
21
-16.9001028
0
LINE
8
layer0
10
4.3482565
20
-16.9001028
11
4.3211459
21
-16.8816734
0
LINE
8
layer0
10
4.3211459
20
-16.8816734
11
4.2953542
21
-16.8717641
0
LINE
8
layer0
10
4.2953542
20
-16.8717641
11
4.271201
21
-16.8702918
0
LINE
8
layer0
10
4.271201
20
-16.8702918
11
4.1835882
21
-16.8917454
0
LINE
8
layer0
10
4.1835882
20
-16.8917454
11
3.8723204
21
-16.9657443
0
LINE
8
layer0
10
3.8723204
20
-16.9657443
11
3.5597709
21
-17.0341276
0
LINE
8
layer0
10
3.5597709
20
-17.0341276
11
3.4715261
21
-17.0528124
0
LINE
8
layer0
10
3.4715261
20
-17.0528124
11
3.4504037
21
-17.0646186
0
LINE
8
layer0
10
3.4504037
20
-17.0646186
11
3.4314657
21
-17.0847371
0
LINE
8
layer0
10
3.4314657
20
-17.0847371
11
3.415036
21
-17.1131042
0
LINE
8
layer0
10
3.415036
20
-17.1131042
11
3.4014786
21
-17.1496062
0
LINE
8
layer0
10
3.4014786
20
-17.1496062
11
3.3911039
21
-17.1941209
0
LINE
8
layer0
10
3.3911039
20
-17.1941209
11
3.3842488
21
-17.2465508
0
LINE
8
layer0
10
3.3842488
20
-17.2465508
11
3.3796711
21
-17.5146923
0
LINE
8
layer0
10
3.3796711
20
-17.5146923
11
3.3698212
21
-17.6950665
0
LINE
8
layer0
10
3.3698212
20
-17.6950665
11
3.3495025
21
-17.9054321
0
LINE
8
layer0
10
3.3495025
20
-17.9054321
11
3.3160765
21
-18.1458684
0
LINE
8
layer0
10
3.3160765
20
-18.1458684
11
3.2674177
21
-18.413219
0
LINE
8
layer0
10
3.2674177
20
-18.413219
11
3.2006147
21
-18.7093794
0
LINE
8
layer0
10
3.2006147
20
-18.7093794
11
3.1596307
21
-18.8678525
0
LINE
8
layer0
10
3.1596307
20
-18.8678525
11
3.1134974
21
-19.0319422
0
LINE
8
layer0
10
3.1134974
20
-19.0319422
11
3.0192813
21
-19.3331001
0
ARC
8
layer0
10
1e-7
20
0.0000073
40
19.56745
50
276.5522944
51
278.8762709
0
LINE
8
layer0
10
2.232842
20
-19.4396306
11
2.061902
21
-19.1743905
0
LINE
8
layer0
10
2.061902
20
-19.1743905
11
1.9737773
21
-19.0284872
0
LINE
8
layer0
10
1.9737773
20
-19.0284872
11
1.8921106
21
-18.8866284
0
LINE
8
layer0
10
1.8921106
20
-18.8866284
11
1.7489254
21
-18.6189128
0
LINE
8
layer0
10
1.7489254
20
-18.6189128
11
1.630895
21
-18.3741417
0
LINE
8
layer0
10
1.630895
20
-18.3741417
11
1.5347087
21
-18.1512627
0
LINE
8
layer0
10
1.5347087
20
-18.1512627
11
1.4591572
21
-17.9538835
0
LINE
8
layer0
10
1.4591572
20
-17.9538835
11
1.4016761
21
-17.78263
0
LINE
8
layer0
10
1.4016761
20
-17.78263
11
1.3259278
21
-17.5253694
0
LINE
8
layer0
10
1.3259278
20
-17.5253694
11
1.3053715
21
-17.4766526
0
LINE
8
layer0
10
1.3053715
20
-17.4766526
11
1.2835281
21
-17.4365021
0
LINE
8
layer0
10
1.2835281
20
-17.4365021
11
1.2607484
21
-17.4049223
0
LINE
8
layer0
10
1.2607484
20
-17.4049223
11
1.2373641
21
-17.3819483
0
LINE
8
layer0
10
1.2373641
20
-17.3819483
11
1.2137563
21
-17.367593
0
LINE
8
layer0
10
1.2137563
20
-17.367593
11
1.1902541
21
-17.3618317
0
LINE
8
layer0
10
1.1902541
20
-17.3618317
11
1.1002187
21
-17.3672966
0
LINE
8
layer0
10
1.1002187
20
-17.3672966
11
0.78074
21
-17.3845273
0
LINE
8
layer0
10
0.78074
20
-17.3845273
11
0.461003
21
-17.3960038
0
LINE
8
layer0
10
0.461003
20
-17.3960038
11
0.3708401
21
-17.3986316
0
LINE
8
layer0
10
0.3708401
20
-17.3986316
11
0.347949
21
-17.4064765
0
LINE
8
layer0
10
0.347949
20
-17.4064765
11
0.325723
21
-17.4228902
0
LINE
8
layer0
10
0.325723
20
-17.4228902
11
0.3044922
21
-17.4478678
0
LINE
8
layer0
10
0.3044922
20
-17.4478678
11
0.284635
21
-17.4813625
0
LINE
8
layer0
10
0.284635
20
-17.4813625
11
0.2664786
21
-17.5233093
0
LINE
8
layer0
10
0.2664786
20
-17.5233093
11
0.2503719
21
-17.5736726
0
LINE
8
layer0
10
0.2503719
20
-17.5736726
11
0.1979893
21
-17.8366876
0
LINE
8
layer0
10
0.1979893
20
-17.8366876
11
0.1560906
21
-18.0124043
0
LINE
8
layer0
10
0.1560906
20
-18.0124043
11
0.0985363
21
-18.2157612
0
LINE
8
layer0
10
0.0985363
20
-18.2157612
11
0.0227159
21
-18.4463651
0
LINE
8
layer0
10
0.0227159
20
-18.4463651
11
-0.0728983
21
-18.700731
0
LINE
8
layer0
10
-0.0728983
20
-18.700731
11
-0.1915092
21
-18.9802038
0
LINE
8
layer0
10
-0.1915092
20
-18.9802038
11
-0.260131
21
-19.1288122
0
LINE
8
layer0
10
-0.260131
20
-19.1288122
11
-0.3348223
21
-19.2820275
0
LINE
8
layer0
10
-0.3348223
20
-19.2820275
11
-0.4812982
21
-19.5615228
0
ARC
8
layer0
10
2e-7
20
0.0000071
40
19.56745
50
266.2665835
51
268.5905599
0
LINE
8
layer0
10
-1.2741208
20
-19.5259171
11
-1.3949533
21
-19.2344169
0
LINE
8
layer0
10
-1.3949533
20
-19.2344169
11
-1.4556097
21
-19.0751232
0
LINE
8
layer0
10
-1.4556097
20
-19.0751232
11
-1.5106341
21
-18.9209619
0
LINE
8
layer0
10
-1.5106341
20
-18.9209619
11
-1.6037158
21
-18.6319819
0
LINE
8
layer0
10
-1.6037158
20
-18.6319819
11
-1.6761439
21
-18.3700692
0
LINE
8
layer0
10
-1.6761439
20
-18.3700692
11
-1.7309878
21
-18.1335972
0
LINE
8
layer0
10
-1.7309878
20
-18.1335972
11
-1.7700817
21
-17.9258998
0
LINE
8
layer0
10
-1.7700817
20
-17.9258998
11
-1.7960606
21
-17.7471347
0
LINE
8
layer0
10
-1.7960606
20
-17.7471347
11
-1.8246559
21
-17.480483
0
LINE
8
layer0
10
-1.8246559
20
-17.480483
11
-1.8361832
21
-17.4288786
0
LINE
8
layer0
10
-1.8361832
20
-17.4288786
11
-1.8505064
21
-17.3854732
0
LINE
8
layer0
10
-1.8505064
20
-17.3854732
11
-1.8672813
21
-17.3503334
0
LINE
8
layer0
10
-1.8672813
20
-17.3503334
11
-1.8861876
21
-17.3235532
0
LINE
8
layer0
10
-1.8861876
20
-17.3235532
11
-1.9068528
21
-17.3052132
0
LINE
8
layer0
10
-1.9068528
20
-17.3052132
11
-1.9289485
21
-17.295348
0
LINE
8
layer0
10
-1.9289485
20
-17.295348
11
-2.0185129
21
-17.2846486
0
LINE
8
layer0
10
-2.0185129
20
-17.2846486
11
-2.335934
21
-17.2445573
0
LINE
8
layer0
10
-2.335934
20
-17.2445573
11
-2.652582
21
-17.1987581
0
LINE
8
layer0
10
-2.652582
20
-17.1987581
11
-2.7417651
21
-17.1852445
0
LINE
8
layer0
10
-2.7417651
20
-17.1852445
11
-2.7656891
21
-17.1888759
0
LINE
8
layer0
10
-2.7656891
20
-17.1888759
11
-2.7904887
21
-17.2010573
0
LINE
8
layer0
10
-2.7904887
20
-17.2010573
11
-2.8158382
21
-17.2218426
0
LINE
8
layer0
10
-2.8158382
20
-17.2218426
11
-2.841357
21
-17.2512533
0
LINE
8
layer0
10
-2.841357
20
-17.2512533
11
-2.8667115
21
-17.2892841
0
LINE
8
layer0
10
-2.8667115
20
-17.2892841
11
-2.891552
21
-17.3359621
0
LINE
8
layer0
10
-2.891552
20
-17.3359621
11
-2.990056
21
-17.5853971
0
LINE
8
layer0
10
-2.990056
20
-17.5853971
11
-3.0626568
21
-17.7508086
0
LINE
8
layer0
10
-3.0626568
20
-17.7508086
11
-3.155597
21
-17.9406208
0
LINE
8
layer0
10
-3.155597
20
-17.9406208
11
-3.2713748
21
-18.1539805
0
LINE
8
layer0
10
-3.2713748
20
-18.1539805
11
-3.4108712
21
-18.387186
0
LINE
8
layer0
10
-3.4108712
20
-18.387186
11
-3.5774778
21
-18.6409889
0
LINE
8
layer0
10
-3.5774778
20
-18.6409889
11
-3.6715319
21
-18.7749561
0
LINE
8
layer0
10
-3.6715319
20
-18.7749561
11
-3.7723805
21
-18.9123725
0
LINE
8
layer0
10
-3.7723805
20
-18.9123725
11
-3.9664083
21
-19.1612219
0
ARC
8
layer0
10
0.0000026
20
0.0000068
40
19.56745
50
255.9808657
51
258.3048423
0
LINE
8
layer0
10
-4.7401323
20
-18.9846245
11
-4.8069735
21
-18.6762334
0
LINE
8
layer0
10
-4.8069735
20
-18.6762334
11
-4.8382122
21
-18.5086689
0
LINE
8
layer0
10
-4.8382122
20
-18.5086689
11
-4.8648258
21
-18.3471601
0
LINE
8
layer0
10
-4.8648258
20
-18.3471601
11
-4.9048122
21
-18.0462037
0
LINE
8
layer0
10
-4.9048122
20
-18.0462037
11
-4.9293101
21
-17.7755676
0
LINE
8
layer0
10
-4.9293101
20
-17.7755676
11
-4.941049
21
-17.533103
0
LINE
8
layer0
10
-4.941049
20
-17.533103
11
-4.9424288
21
-17.3217629
0
LINE
8
layer0
10
-4.9424288
20
-17.3217629
11
-4.9360705
21
-17.1412319
0
LINE
8
layer0
10
-4.9360705
20
-17.1412319
11
-4.9165937
21
-16.8737596
0
LINE
8
layer0
10
-4.9165937
20
-16.8737596
11
-4.9187214
21
-16.8209262
0
LINE
8
layer0
10
-4.9187214
20
-16.8209262
11
-4.9250641
21
-16.7756608
0
LINE
8
layer0
10
-4.9250641
20
-16.7756608
11
-4.9352949
21
-16.7380905
0
LINE
8
layer0
10
-4.9352949
20
-16.7380905
11
-4.9491156
21
-16.7083647
0
LINE
8
layer0
10
-4.9491156
20
-16.7083647
11
-4.966174
21
-16.6866296
0
LINE
8
layer0
10
-4.966174
20
-16.6866296
11
-4.9861531
21
-16.6729776
0
LINE
8
layer0
10
-4.9861531
20
-16.6729776
11
-5.0723677
21
-16.6464578
0
LINE
8
layer0
10
-5.0723677
20
-16.6464578
11
-5.3775292
21
-16.550333
0
LINE
8
layer0
10
-5.3775292
20
-16.550333
11
-5.6809107
21
-16.4487302
0
LINE
8
layer0
10
-5.6809107
20
-16.4487302
11
-5.7662477
21
-16.4195095
0
LINE
8
layer0
10
-5.7662477
20
-16.4195095
11
-5.7904357
21
-16.4188108
0
LINE
8
layer0
10
-5.7904357
20
-16.4188108
11
-5.8170117
21
-16.4263682
0
LINE
8
layer0
10
-5.8170117
20
-16.4263682
11
-5.8456652
21
-16.4422932
0
LINE
8
layer0
10
-5.8456652
20
-16.4422932
11
-5.8760255
21
-16.4666747
0
LINE
8
layer0
10
-5.8760255
20
-16.4666747
11
-5.9077631
21
-16.4995671
0
LINE
8
layer0
10
-5.9077631
20
-16.4995671
11
-5.9405392
21
-16.5410595
0
LINE
8
layer0
10
-5.9405392
20
-16.5410595
11
-6.0819985
21
-16.7688974
0
LINE
8
layer0
10
-6.0819985
20
-16.7688974
11
-6.1829679
21
-16.9186873
0
LINE
8
layer0
10
-6.1829679
20
-16.9186873
11
-6.3083068
21
-17.088854
0
LINE
8
layer0
10
-6.3083068
20
-17.088854
11
-6.4603209
21
-17.2781121
0
LINE
8
layer0
10
-6.4603209
20
-17.2781121
11
-6.639216
21
-17.4826618
0
LINE
8
layer0
10
-6.639216
20
-17.4826618
11
-6.8484634
21
-17.7026372
0
LINE
8
layer0
10
-6.8484634
20
-17.7026372
11
-6.9649267
21
-17.8176575
0
LINE
8
layer0
10
-6.9649267
20
-17.8176575
11
-7.0886913
21
-17.9348584
0
LINE
8
layer0
10
-7.0886913
20
-17.9348584
11
-7.3240347
21
-18.1450637
0
ARC
8
layer0
10
0.0000029
20
0.0000065
40
19.56745
50
245.6951545
51
248.0191309
0
LINE
8
layer0
10
-8.053792
20
-17.8331505
11
-8.0644937
21
-17.5177804
0
LINE
8
layer0
10
-8.0644937
20
-17.5177804
11
-8.0653106
21
-17.3473309
0
LINE
8
layer0
10
-8.0653106
20
-17.3473309
11
-8.062658
21
-17.1836655
0
LINE
8
layer0
10
-8.062658
20
-17.1836655
11
-8.048264
21
-16.8804058
0
LINE
8
layer0
10
-8.048264
20
-16.8804058
11
-8.0240442
21
-16.6097446
0
LINE
8
layer0
10
-8.0240442
20
-16.6097446
11
-7.9923007
21
-16.3690805
0
LINE
8
layer0
10
-7.9923007
20
-16.3690805
11
-7.9559221
21
-16.1608903
0
LINE
8
layer0
10
-7.9559221
20
-16.1608903
11
-7.9174309
21
-15.9843959
0
LINE
8
layer0
10
-7.9174309
20
-15.9843959
11
-7.8505081
21
-15.7246996
0
LINE
8
layer0
10
-7.8505081
20
-15.7246996
11
-7.8431679
21
-15.6723354
0
LINE
8
layer0
10
-7.8431679
20
-15.6723354
11
-7.8413262
21
-15.6266649
0
LINE
8
layer0
10
-7.8413262
20
-15.6266649
11
-7.8446842
21
-15.5878715
0
LINE
8
layer0
10
-7.8446842
20
-15.5878715
11
-7.852975
21
-15.5561557
0
LINE
8
layer0
10
-7.852975
20
-15.5561557
11
-7.8658783
21
-15.531724
0
LINE
8
layer0
10
-7.8658783
20
-15.531724
11
-7.8830987
21
-15.5147239
0
LINE
8
layer0
10
-7.8830987
20
-15.5147239
11
-7.9631925
21
-15.4732362
0
LINE
8
layer0
10
-7.9631925
20
-15.4732362
11
-8.2462862
21
-15.3241675
0
LINE
8
layer0
10
-8.2462862
20
-15.3241675
11
-8.5266503
21
-15.1700266
0
LINE
8
layer0
10
-8.5266503
20
-15.1700266
11
-8.6053984
21
-15.1260379
0
LINE
8
layer0
10
-8.6053984
20
-15.1260379
11
-8.6290728
21
-15.1210315
0
LINE
8
layer0
10
-8.6290728
20
-15.1210315
11
-8.6565713
21
-15.1237221
0
LINE
8
layer0
10
-8.6565713
20
-15.1237221
11
-8.6876078
21
-15.134275
0
LINE
8
layer0
10
-8.6876078
20
-15.134275
11
-8.7218336
21
-15.1528436
0
LINE
8
layer0
10
-8.7218336
20
-15.1528436
11
-8.7589344
21
-15.1795404
0
LINE
8
layer0
10
-8.7589344
20
-15.1795404
11
-8.7985925
21
-15.2145137
0
LINE
8
layer0
10
-8.7985925
20
-15.2145137
11
-8.9784605
21
-15.4134315
0
LINE
8
layer0
10
-8.9784605
20
-15.4134315
11
-9.1045533
21
-15.5427855
0
LINE
8
layer0
10
-9.1045533
20
-15.5427855
11
-9.2582624
21
-15.6878374
0
LINE
8
layer0
10
-9.2582624
20
-15.6878374
11
-9.4416269
21
-15.8469109
0
LINE
8
layer0
10
-9.4416269
20
-15.8469109
11
-9.6541708
21
-16.0162305
0
LINE
8
layer0
10
-9.6541708
20
-16.0162305
11
-9.8993337
21
-16.1953081
0
LINE
8
layer0
10
-9.8993337
20
-16.1953081
11
-10.0344631
21
-16.2876847
0
LINE
8
layer0
10
-10.0344631
20
-16.2876847
11
-10.1771657
21
-16.3809031
0
LINE
8
layer0
10
-10.1771657
20
-16.3809031
11
-10.4462607
21
-16.5457081
0
ARC
8
layer0
10
0.0000033
20
0.0000064
40
19.56745
50
235.4094426
51
237.7334191
0
LINE
8
layer0
10
-11.1085962
20
-16.1085043
11
-11.0628145
21
-15.7962915
0
LINE
8
layer0
10
-11.0628145
20
-15.7962915
11
-11.0331833
21
-15.6284353
0
LINE
8
layer0
10
-11.0331833
20
-15.6284353
11
-11.0013497
21
-15.4678737
0
LINE
8
layer0
10
-11.0013497
20
-15.4678737
11
-10.9330379
21
-15.1720577
0
LINE
8
layer0
10
-10.9330379
20
-15.1720577
11
-10.8608789
21
-14.9100708
0
LINE
8
layer0
10
-10.8608789
20
-14.9100708
11
-10.7866733
21
-14.6789423
0
LINE
8
layer0
10
-10.7866733
20
-14.6789423
11
-10.7137056
21
-14.4805934
0
LINE
8
layer0
10
-10.7137056
20
-14.4805934
11
-10.6443186
21
-14.3138082
0
LINE
8
layer0
10
-10.6443186
20
-14.3138082
11
-10.5321008
21
-14.0702349
0
LINE
8
layer0
10
-10.5321008
20
-14.0702349
11
-10.5155285
21
-14.0200228
0
LINE
8
layer0
10
-10.5155285
20
-14.0200228
11
-10.5055616
21
-13.9754151
0
LINE
8
layer0
10
-10.5055616
20
-13.9754151
11
-10.5019388
21
-13.9366456
0
LINE
8
layer0
10
-10.5019388
20
-13.9366456
11
-10.5044333
21
-13.9039591
0
LINE
8
layer0
10
-10.5044333
20
-13.9039591
11
-10.5127668
21
-13.877616
0
LINE
8
layer0
10
-10.5127668
20
-13.877616
11
-10.526675
21
-13.8578143
0
LINE
8
layer0
10
-10.526675
20
-13.8578143
11
-10.5980737
21
-13.802692
0
LINE
8
layer0
10
-10.5980737
20
-13.802692
11
-10.8500007
21
-13.6054705
0
LINE
8
layer0
10
-10.8500007
20
-13.6054705
11
-11.0983364
21
-13.4037458
0
LINE
8
layer0
10
-11.0983364
20
-13.4037458
11
-11.1679644
21
-13.346403
0
LINE
8
layer0
10
-11.1679644
20
-13.346403
11
-11.1903645
21
-13.3372499
0
LINE
8
layer0
10
-11.1903645
20
-13.3372499
11
-11.2179015
21
-13.3349872
0
LINE
8
layer0
10
-11.2179015
20
-13.3349872
11
-11.2503235
21
-13.3398287
0
LINE
8
layer0
10
-11.2503235
20
-13.3398287
11
-11.2873149
21
-13.3519876
0
LINE
8
layer0
10
-11.2873149
20
-13.3519876
11
-11.3285863
21
-13.3716308
0
LINE
8
layer0
10
-11.3285863
20
-13.3716308
11
-11.3738518
21
-13.3989608
0
LINE
8
layer0
10
-11.3738518
20
-13.3989608
11
-11.5863474
21
-13.5625653
0
LINE
8
layer0
10
-11.5863474
20
-13.5625653
11
-11.7335109
21
-13.6673258
0
LINE
8
layer0
10
-11.7335109
20
-13.6673258
11
-11.9106499
21
-13.7826008
0
LINE
8
layer0
10
-11.9106499
20
-13.7826008
11
-12.1194713
21
-13.9063769
0
LINE
8
layer0
10
-12.1194713
20
-13.9063769
11
-12.3588327
21
-14.0350243
0
LINE
8
layer0
10
-12.3588327
20
-14.0350243
11
-12.6320312
21
-14.1674486
0
LINE
8
layer0
10
-12.6320312
20
-14.1674486
11
-12.7814836
21
-14.2342124
0
LINE
8
layer0
10
-12.7814836
20
-14.2342124
11
-12.9385377
21
-14.3004522
0
LINE
8
layer0
10
-12.9385377
20
-14.3004522
11
-13.2327353
21
-14.4145599
0
ARC
8
layer0
10
0.0000046
20
0.0000055
40
19.56745
50
225.1237275
51
227.4477038
0
LINE
8
layer0
10
-13.806361
20
-13.8661176
11
-13.7055673
21
-13.5670968
0
LINE
8
layer0
10
-13.7055673
20
-13.5670968
11
-13.6464404
21
-13.407229
0
LINE
8
layer0
10
-13.6464404
20
-13.407229
11
-13.586449
21
-13.2549318
0
LINE
8
layer0
10
-13.586449
20
-13.2549318
11
-13.466415
21
-12.9760672
0
LINE
8
layer0
10
-13.466415
20
-12.9760672
11
-13.3486361
21
-12.731175
0
LINE
8
layer0
10
-13.3486361
20
-12.731175
11
-13.2343534
21
-12.5170107
0
LINE
8
layer0
10
-13.2343534
20
-12.5170107
11
-13.1271417
21
-12.3348783
0
LINE
8
layer0
10
-13.1271417
20
-12.3348783
11
-13.0290892
21
-12.1831629
0
LINE
8
layer0
10
-13.0290892
20
-12.1831629
11
-12.875183
21
-11.9635412
0
LINE
8
layer0
10
-12.875183
20
-11.9635412
11
-12.8499114
21
-11.9170952
0
LINE
8
layer0
10
-12.8499114
20
-11.9170952
11
-12.8321396
21
-11.874984
0
LINE
8
layer0
10
-12.8321396
20
-11.874984
11
-12.8216525
21
-11.8374844
0
LINE
8
layer0
10
-12.8216525
20
-11.8374844
11
-12.8182705
21
-11.8048777
0
LINE
8
layer0
10
-12.8182705
20
-11.8048777
11
-12.8217663
21
-11.77747
0
LINE
8
layer0
10
-12.8217663
20
-11.77747
11
-12.8319153
21
-11.7555031
0
LINE
8
layer0
10
-12.8319153
20
-11.7555031
11
-12.8923241
21
-11.6885179
0
LINE
8
layer0
10
-12.8923241
20
-11.6885179
11
-13.1049873
21
-11.4494826
0
LINE
8
layer0
10
-13.1049873
20
-11.4494826
11
-13.3133128
21
-11.2066576
0
LINE
8
layer0
10
-13.3133128
20
-11.2066576
11
-13.3715829
21
-11.1378038
0
LINE
8
layer0
10
-13.3715829
20
-11.1378038
11
-13.3919887
21
-11.124798
0
LINE
8
layer0
10
-13.3919887
20
-11.124798
11
-13.4186791
21
-11.1176548
0
LINE
8
layer0
10
-13.4186791
20
-11.1176548
11
-13.4514446
21
-11.1166293
0
LINE
8
layer0
10
-13.4514446
20
-11.1166293
11
-13.4900125
21
-11.1219878
0
LINE
8
layer0
10
-13.4900125
20
-11.1219878
11
-13.5341282
21
-11.133946
0
LINE
8
layer0
10
-13.5341282
20
-11.133946
11
-13.5835462
21
-11.1527543
0
LINE
8
layer0
10
-13.5835462
20
-11.1527543
11
-13.8218396
21
-11.2757871
0
LINE
8
layer0
10
-13.8218396
20
-11.2757871
11
-13.9853438
21
-11.352587
0
LINE
8
layer0
10
-13.9853438
20
-11.352587
11
-14.1802193
21
-11.4343801
0
LINE
8
layer0
10
-14.1802193
20
-11.4343801
11
-14.4077858
21
-11.5188805
0
LINE
8
layer0
10
-14.4077858
20
-11.5188805
11
-14.6662715
21
-11.6027209
0
LINE
8
layer0
10
-14.6662715
20
-11.6027209
11
-14.9587249
21
-11.6842356
0
LINE
8
layer0
10
-14.9587249
20
-11.6842356
11
-15.1176966
21
-11.7232407
0
LINE
8
layer0
10
-15.1176966
20
-11.7232407
11
-15.2840544
21
-11.7603729
0
LINE
8
layer0
10
-15.2840544
20
-11.7603729
11
-15.5938988
21
-11.8201159
0
ARC
8
layer0
10
0.0000055
20
0.0000046
40
19.56745
50
214.8380131
51
217.1619897
0
LINE
8
layer0
10
-16.060378
20
-11.1780624
11
-15.9078118
21
-10.9018444
0
LINE
8
layer0
10
-15.9078118
20
-10.9018444
11
-15.8210896
21
-10.7551033
0
LINE
8
layer0
10
-15.8210896
20
-10.7551033
11
-15.7348686
21
-10.6159655
0
LINE
8
layer0
10
-15.7348686
20
-10.6159655
11
-15.5669704
21
-10.3630152
0
LINE
8
layer0
10
-15.5669704
20
-10.3630152
11
-15.4073571
21
-10.1430888
0
LINE
8
layer0
10
-15.4073571
20
-10.1430888
11
-15.2566705
21
-9.9527722
0
LINE
8
layer0
10
-15.2566705
20
-9.9527722
11
-15.1186607
21
-9.7927101
0
LINE
8
layer0
10
-15.1186607
20
-9.7927101
11
-14.9950941
21
-9.6609408
0
LINE
8
layer0
10
-14.9950941
20
-9.6609408
11
-14.8044463
21
-9.4723295
0
LINE
8
layer0
10
-14.8044463
20
-9.4723295
11
-14.7712875
21
-9.4311423
0
LINE
8
layer0
10
-14.7712875
20
-9.4311423
11
-14.7462821
21
-9.3928811
0
LINE
8
layer0
10
-14.7462821
20
-9.3928811
11
-14.7292677
21
-9.3578567
0
LINE
8
layer0
10
-14.7292677
20
-9.3578567
11
-14.720118
21
-9.3263779
0
LINE
8
layer0
10
-14.720118
20
-9.3263779
11
-14.7186638
21
-9.2987864
0
LINE
8
layer0
10
-14.7186638
20
-9.2987864
11
-14.7247272
21
-9.2753604
0
LINE
8
layer0
10
-14.7247272
20
-9.2753604
11
-14.7722046
21
-9.1986652
0
LINE
8
layer0
10
-14.7722046
20
-9.1986652
11
-14.9387688
21
-8.9254989
0
LINE
8
layer0
10
-14.9387688
20
-8.9254989
11
-15.1003884
21
-8.6493782
0
LINE
8
layer0
10
-15.1003884
20
-8.6493782
11
-15.1454278
21
-8.5712264
0
LINE
8
layer0
10
-15.1454278
20
-8.5712264
11
-15.1631833
21
-8.554786
0
LINE
8
layer0
10
-15.1631833
20
-8.554786
11
-15.1881693
21
-8.5429919
0
LINE
8
layer0
10
-15.1881693
20
-8.5429919
11
-15.2202251
21
-8.5361323
0
LINE
8
layer0
10
-15.2202251
20
-8.5361323
11
-15.2591301
21
-8.5345181
0
LINE
8
layer0
10
-15.2591301
20
-8.5345181
11
-15.304672
21
-8.538407
0
LINE
8
layer0
10
-15.304672
20
-8.538407
11
-15.3566542
21
-8.5480892
0
LINE
8
layer0
10
-15.3566542
20
-8.5480892
11
-15.6130865
21
-8.6265958
0
LINE
8
layer0
10
-15.6130865
20
-8.6265958
11
-15.7876763
21
-8.6729667
0
LINE
8
layer0
10
-15.7876763
20
-8.6729667
11
-15.9940247
21
-8.718649
0
LINE
8
layer0
10
-15.9940247
20
-8.718649
11
-16.2330223
21
-8.7611579
0
LINE
8
layer0
10
-16.2330223
20
-8.7611579
11
-16.5023243
21
-8.7974965
0
LINE
8
layer0
10
-16.5023243
20
-8.7974965
11
-16.8046329
21
-8.8254816
0
LINE
8
layer0
10
-16.8046329
20
-8.8254816
11
-16.9680145
21
-8.8354744
0
LINE
8
layer0
10
-16.9680145
20
-8.8354744
11
-17.138329
21
-8.8423056
0
LINE
8
layer0
10
-17.138329
20
-8.8423056
11
-17.4538617
21
-8.8457636
0
ARC
8
layer0
10
0.0000061
20
0.0000036
40
19.56745
50
204.552299
51
206.8762756
0
LINE
8
layer0
10
-17.7982012
20
-8.1307351
11
-17.5987662
21
-7.8861978
0
LINE
8
layer0
10
-17.5987662
20
-7.8861978
11
-17.487236
21
-7.7572997
0
LINE
8
layer0
10
-17.487236
20
-7.7572997
11
-17.3775566
21
-7.6357933
0
LINE
8
layer0
10
-17.3775566
20
-7.6357933
11
-17.1671906
21
-7.4168874
0
LINE
8
layer0
10
-17.1671906
20
-7.4168874
11
-16.970873
21
-7.2289953
0
LINE
8
layer0
10
-16.970873
20
-7.2289953
11
-16.7886256
21
-7.0686433
0
LINE
8
layer0
10
-16.7886256
20
-7.0686433
11
-16.6242535
21
-6.9357961
0
LINE
8
layer0
10
-16.6242535
20
-6.9357961
11
-16.4791444
21
-6.828208
0
LINE
8
layer0
10
-16.4791444
20
-6.828208
11
-16.2578825
21
-6.6766693
0
LINE
8
layer0
10
-16.2578825
20
-6.6766693
11
-16.2179023
21
-6.6420647
0
LINE
8
layer0
10
-16.2179023
20
-6.6420647
11
-16.186467
21
-6.6088833
0
LINE
8
layer0
10
-16.186467
20
-6.6088833
11
-16.1634721
21
-6.5774597
0
LINE
8
layer0
10
-16.1634721
20
-6.5774597
11
-16.1488487
21
-6.5481206
0
LINE
8
layer0
10
-16.1488487
20
-6.5481206
11
-16.1424912
21
-6.5212322
0
LINE
8
layer0
10
-16.1424912
20
-6.5212322
11
-16.1442744
21
-6.4971
0
LINE
8
layer0
10
-16.1442744
20
-6.4971
11
-16.1772943
21
-6.4131599
0
LINE
8
layer0
10
-16.1772943
20
-6.4131599
11
-16.292406
21
-6.1146423
0
LINE
8
layer0
10
-16.292406
20
-6.1146423
11
-16.402125
21
-5.8141007
0
LINE
8
layer0
10
-16.402125
20
-5.8141007
11
-16.4324861
21
-5.7291627
0
LINE
8
layer0
10
-16.4324861
20
-5.7291627
11
-16.4470207
21
-5.7098162
0
LINE
8
layer0
10
-16.4470207
20
-5.7098162
11
-16.4694993
21
-5.6937501
0
LINE
8
layer0
10
-16.4694993
20
-5.6937501
11
-16.4998151
21
-5.681277
0
LINE
8
layer0
10
-16.4998151
20
-5.681277
11
-16.5378066
21
-5.672742
0
LINE
8
layer0
10
-16.5378066
20
-5.672742
11
-16.5833111
21
-5.6684366
0
LINE
8
layer0
10
-16.5833111
20
-5.6684366
11
-16.6361867
21
-5.6686814
0
LINE
8
layer0
10
-16.6361867
20
-5.6686814
11
-16.9025159
21
-5.7001386
0
LINE
8
layer0
10
-16.9025159
20
-5.7001386
11
-17.0825798
21
-5.7145901
0
LINE
8
layer0
10
-17.0825798
20
-5.7145901
11
-17.2937691
21
-5.7226933
0
LINE
8
layer0
10
-17.2937691
20
-5.7226933
11
-17.5365161
21
-5.7218444
0
LINE
8
layer0
10
-17.5365161
20
-5.7218444
11
-17.8079788
21
-5.7095133
0
LINE
8
layer0
10
-17.8079788
20
-5.7095133
11
-18.1104261
21
-5.6830695
0
LINE
8
layer0
10
-18.1104261
20
-5.6830695
11
-18.2729664
21
-5.6637287
0
LINE
8
layer0
10
-18.2729664
20
-5.6637287
11
-18.4417636
21
-5.6400393
0
LINE
8
layer0
10
-18.4417636
20
-5.6400393
11
-18.752843
21
-5.5871012
0
ARC
8
layer0
10
0.0000071
20
0.0000013
40
19.56745
50
194.2665813
51
196.5905578
0
LINE
8
layer0
10
-18.9639756
20
-4.8220793
11
-18.7240818
21
-4.6170823
0
LINE
8
layer0
10
-18.7240818
20
-4.6170823
11
-18.5913283
21
-4.5101701
0
LINE
8
layer0
10
-18.5913283
20
-4.5101701
11
-18.4617157
21
-4.4102004
0
LINE
8
layer0
10
-18.4617157
20
-4.4102004
11
-18.2156432
21
-4.2323747
0
LINE
8
layer0
10
-18.2156432
20
-4.2323747
11
-17.988931
21
-4.082556
0
LINE
8
layer0
10
-17.988931
20
-4.082556
11
-17.7809805
21
-3.9573225
0
LINE
8
layer0
10
-17.7809805
20
-3.9573225
11
-17.5955292
21
-3.8559599
0
LINE
8
layer0
10
-17.5955292
20
-3.8559599
11
-17.4335414
21
-3.7760111
0
LINE
8
layer0
10
-17.4335414
20
-3.7760111
11
-17.188777
21
-3.6664154
0
LINE
8
layer0
10
-17.188777
20
-3.6664154
11
-17.1432604
21
-3.6395057
0
LINE
8
layer0
10
-17.1432604
20
-3.6395057
11
-17.1064055
21
-3.6124705
0
LINE
8
layer0
10
-17.1064055
20
-3.6124705
11
-17.0781693
21
-3.5856579
0
LINE
8
layer0
10
-17.0781693
20
-3.5856579
11
-17.0585421
21
-3.5594014
0
LINE
8
layer0
10
-17.0585421
20
-3.5594014
11
-17.0474857
21
-3.5340802
0
LINE
8
layer0
10
-17.0474857
20
-3.5340802
11
-17.0449312
21
-3.5100174
0
LINE
8
layer0
10
-17.0449312
20
-3.5100174
11
-17.0624325
21
-3.4215304
0
LINE
8
layer0
10
-17.0624325
20
-3.4215304
11
-17.1223919
21
-3.107256
0
LINE
8
layer0
10
-17.1223919
20
-3.107256
11
-17.1766839
21
-2.7919532
0
LINE
8
layer0
10
-17.1766839
20
-2.7919532
11
-17.1913908
21
-2.702959
0
LINE
8
layer0
10
-17.1913908
20
-2.702959
11
-17.2022374
21
-2.6813281
0
LINE
8
layer0
10
-17.2022374
20
-2.6813281
11
-17.221486
21
-2.6615066
0
LINE
8
layer0
10
-17.221486
20
-2.6615066
11
-17.2490875
21
-2.6438208
0
LINE
8
layer0
10
-17.2490875
20
-2.6438208
11
-17.2849445
21
-2.6286393
0
LINE
8
layer0
10
-17.2849445
20
-2.6286393
11
-17.3289489
21
-2.616278
0
LINE
8
layer0
10
-17.3289489
20
-2.616278
11
-17.3810185
21
-2.6070775
0
LINE
8
layer0
10
-17.3810185
20
-2.6070775
11
-17.6486846
21
-2.5904743
0
LINE
8
layer0
10
-17.6486846
20
-2.5904743
11
-17.8284352
21
-2.5725418
0
LINE
8
layer0
10
-17.8284352
20
-2.5725418
11
-18.0376774
21
-2.5428056
0
LINE
8
layer0
10
-18.0376774
20
-2.5428056
11
-18.2763719
21
-2.4986262
0
LINE
8
layer0
10
-18.2763719
20
-2.4986262
11
-18.5412703
21
-2.4380217
0
LINE
8
layer0
10
-18.5412703
20
-2.4380217
11
-18.8341354
21
-2.3579987
0
LINE
8
layer0
10
-18.8341354
20
-2.3579987
11
-18.9906101
21
-2.3099462
0
LINE
8
layer0
10
-18.9906101
20
-2.3099462
11
-19.1524648
21
-2.2564975
0
LINE
8
layer0
10
-19.1524648
20
-2.2564975
11
-19.4490925
21
-2.1488648
0
ARC
8
layer0
10
0.0000072
20
4e-7
40
19.56745
50
183.9808681
51
186.3048447
0
LINE
8
layer0
10
-19.5202322
20
-1.3584379
11
-19.24759
21
-1.19957
0
LINE
8
layer0
10
-19.24759
20
-1.19957
11
-19.09788
21
-1.11808
0
LINE
8
layer0
10
-19.09788
20
-1.11808
11
-18.9525
21
-1.04286
0
LINE
8
layer0
10
-18.9525
20
-1.04286
11
-18.67863
21
-0.91183
0
LINE
8
layer0
10
-18.67863
20
-0.91183
11
-18.42881
21
-0.8049
0
LINE
8
layer0
10
-18.42881
20
-0.8049
11
-18.20184
21
-0.71881
0
LINE
8
layer0
10
-18.20184
20
-0.71881
11
-18.00127
21
-0.65219
0
LINE
8
layer0
10
-18.00127
20
-0.65219
11
-17.82761
21
-0.60245
0
LINE
8
layer0
10
-17.82761
20
-0.60245
11
-17.56721
21
-0.53832
0
LINE
8
layer0
10
-17.56721
20
-0.53832
11
-17.51762
21
-0.51997
0
LINE
8
layer0
10
-17.51762
20
-0.51997
11
-17.47653
21
-0.49995
0
LINE
8
layer0
10
-17.47653
20
-0.49995
11
-17.44396
21
-0.47861
0
LINE
8
layer0
10
-17.44396
20
-0.47861
11
-17.41996
21
-0.45628
0
LINE
8
layer0
10
-17.41996
20
-0.45628
11
-17.40456
21
-0.43334
0
LINE
8
layer0
10
-17.40456
20
-0.43334
11
-17.39775
21
-0.41012
0
LINE
8
layer0
10
-17.39775
20
-0.41012
11
-17.39917
21
-0.31993
0
LINE
8
layer0
10
-17.39917
20
-0.31993
11
-17.40205
21
0
0
LINE
8
layer0
10
-17.40205
20
0
11
-17.39917
21
0.31993
0
LINE
8
layer0
10
-17.39917
20
0.31993
11
-17.39775
21
0.41012
0
LINE
8
layer0
10
-17.39775
20
0.41012
11
-17.40456
21
0.43334
0
LINE
8
layer0
10
-17.40456
20
0.43334
11
-17.41996
21
0.45628
0
LINE
8
layer0
10
-17.41996
20
0.45628
11
-17.44396
21
0.47861
0
LINE
8
layer0
10
-17.44396
20
0.47861
11
-17.47653
21
0.49995
0
LINE
8
layer0
10
-17.47653
20
0.49995
11
-17.51762
21
0.51997
0
LINE
8
layer0
10
-17.51762
20
0.51997
11
-17.56721
21
0.53832
0
LINE
8
layer0
10
-17.56721
20
0.53832
11
-17.82761
21
0.60245
0
LINE
8
layer0
10
-17.82761
20
0.60245
11
-18.00127
21
0.65219
0
LINE
8
layer0
10
-18.00127
20
0.65219
11
-18.20184
21
0.71881
0
LINE
8
layer0
10
-18.20184
20
0.71881
11
-18.42881
21
0.8049
0
LINE
8
layer0
10
-18.42881
20
0.8049
11
-18.67863
21
0.91183
0
LINE
8
layer0
10
-18.67863
20
0.91183
11
-18.9525
21
1.04286
0
LINE
8
layer0
10
-18.9525
20
1.04286
11
-19.09788
21
1.11808
0
LINE
8
layer0
10
-19.09788
20
1.11808
11
-19.24759
21
1.19957
0
LINE
8
layer0
10
-19.24759
20
1.19957
11
-19.5202322
21
1.3584379
0
ARC
8
layer0
10
0.0000072
20
-4e-7
40
19.56745
50
173.6951553
51
176.0191319
0
LINE
8
layer0
10
-19.4490925
20
2.1488648
11
-19.1524648
21
2.2564975
0
LINE
8
layer0
10
-19.1524648
20
2.2564975
11
-18.9906101
21
2.3099462
0
LINE
8
layer0
10
-18.9906101
20
2.3099462
11
-18.8341354
21
2.3579987
0
LINE
8
layer0
10
-18.8341354
20
2.3579987
11
-18.5412703
21
2.4380217
0
LINE
8
layer0
10
-18.5412703
20
2.4380217
11
-18.2763719
21
2.4986262
0
LINE
8
layer0
10
-18.2763719
20
2.4986262
11
-18.0376774
21
2.5428056
0
LINE
8
layer0
10
-18.0376774
20
2.5428056
11
-17.8284352
21
2.5725418
0
LINE
8
layer0
10
-17.8284352
20
2.5725418
11
-17.6486846
21
2.5904743
0
LINE
8
layer0
10
-17.6486846
20
2.5904743
11
-17.3810185
21
2.6070775
0
LINE
8
layer0
10
-17.3810185
20
2.6070775
11
-17.3289489
21
2.616278
0
LINE
8
layer0
10
-17.3289489
20
2.616278
11
-17.2849445
21
2.6286393
0
LINE
8
layer0
10
-17.2849445
20
2.6286393
11
-17.2490875
21
2.6438208
0
LINE
8
layer0
10
-17.2490875
20
2.6438208
11
-17.221486
21
2.6615066
0
LINE
8
layer0
10
-17.221486
20
2.6615066
11
-17.2022374
21
2.6813281
0
LINE
8
layer0
10
-17.2022374
20
2.6813281
11
-17.1913908
21
2.702959
0
LINE
8
layer0
10
-17.1913908
20
2.702959
11
-17.1766839
21
2.7919532
0
LINE
8
layer0
10
-17.1766839
20
2.7919532
11
-17.1223919
21
3.107256
0
LINE
8
layer0
10
-17.1223919
20
3.107256
11
-17.0624325
21
3.4215304
0
LINE
8
layer0
10
-17.0624325
20
3.4215304
11
-17.0449312
21
3.5100174
0
LINE
8
layer0
10
-17.0449312
20
3.5100174
11
-17.0474857
21
3.5340802
0
LINE
8
layer0
10
-17.0474857
20
3.5340802
11
-17.0585421
21
3.5594014
0
LINE
8
layer0
10
-17.0585421
20
3.5594014
11
-17.0781693
21
3.5856579
0
LINE
8
layer0
10
-17.0781693
20
3.5856579
11
-17.1064055
21
3.6124705
0
LINE
8
layer0
10
-17.1064055
20
3.6124705
11
-17.1432604
21
3.6395057
0
LINE
8
layer0
10
-17.1432604
20
3.6395057
11
-17.188777
21
3.6664154
0
LINE
8
layer0
10
-17.188777
20
3.6664154
11
-17.4335414
21
3.7760111
0
LINE
8
layer0
10
-17.4335414
20
3.7760111
11
-17.5955292
21
3.8559599
0
LINE
8
layer0
10
-17.5955292
20
3.8559599
11
-17.7809805
21
3.9573225
0
LINE
8
layer0
10
-17.7809805
20
3.9573225
11
-17.988931
21
4.082556
0
LINE
8
layer0
10
-17.988931
20
4.082556
11
-18.2156432
21
4.2323747
0
LINE
8
layer0
10
-18.2156432
20
4.2323747
11
-18.4617157
21
4.4102004
0
LINE
8
layer0
10
-18.4617157
20
4.4102004
11
-18.5913283
21
4.5101701
0
LINE
8
layer0
10
-18.5913283
20
4.5101701
11
-18.7240818
21
4.6170823
0
LINE
8
layer0
10
-18.7240818
20
4.6170823
11
-18.9639756
21
4.8220793
0
ARC
8
layer0
10
0.0000071
20
-0.0000012
40
19.56745
50
163.4094425
51
165.733419
0
LINE
8
layer0
10
-18.752843
20
5.5871012
11
-18.4417636
21
5.6400393
0
LINE
8
layer0
10
-18.4417636
20
5.6400393
11
-18.2729664
21
5.6637287
0
LINE
8
layer0
10
-18.2729664
20
5.6637287
11
-18.1104261
21
5.6830695
0
LINE
8
layer0
10
-18.1104261
20
5.6830695
11
-17.8079788
21
5.7095133
0
LINE
8
layer0
10
-17.8079788
20
5.7095133
11
-17.5365161
21
5.7218444
0
LINE
8
layer0
10
-17.5365161
20
5.7218444
11
-17.2937691
21
5.7226933
0
LINE
8
layer0
10
-17.2937691
20
5.7226933
11
-17.0825798
21
5.7145901
0
LINE
8
layer0
10
-17.0825798
20
5.7145901
11
-16.9025159
21
5.7001386
0
LINE
8
layer0
10
-16.9025159
20
5.7001386
11
-16.6361867
21
5.6686814
0
LINE
8
layer0
10
-16.6361867
20
5.6686814
11
-16.5833111
21
5.6684366
0
LINE
8
layer0
10
-16.5833111
20
5.6684366
11
-16.5378066
21
5.672742
0
LINE
8
layer0
10
-16.5378066
20
5.672742
11
-16.4998151
21
5.681277
0
LINE
8
layer0
10
-16.4998151
20
5.681277
11
-16.4694993
21
5.6937501
0
LINE
8
layer0
10
-16.4694993
20
5.6937501
11
-16.4470207
21
5.7098162
0
LINE
8
layer0
10
-16.4470207
20
5.7098162
11
-16.4324861
21
5.7291627
0
LINE
8
layer0
10
-16.4324861
20
5.7291627
11
-16.402125
21
5.8141007
0
LINE
8
layer0
10
-16.402125
20
5.8141007
11
-16.292406
21
6.1146423
0
LINE
8
layer0
10
-16.292406
20
6.1146423
11
-16.1772943
21
6.4131599
0
LINE
8
layer0
10
-16.1772943
20
6.4131599
11
-16.1442744
21
6.4971
0
LINE
8
layer0
10
-16.1442744
20
6.4971
11
-16.1424912
21
6.5212322
0
LINE
8
layer0
10
-16.1424912
20
6.5212322
11
-16.1488487
21
6.5481206
0
LINE
8
layer0
10
-16.1488487
20
6.5481206
11
-16.1634721
21
6.5774597
0
LINE
8
layer0
10
-16.1634721
20
6.5774597
11
-16.186467
21
6.6088833
0
LINE
8
layer0
10
-16.186467
20
6.6088833
11
-16.2179023
21
6.6420647
0
LINE
8
layer0
10
-16.2179023
20
6.6420647
11
-16.2578825
21
6.6766693
0
LINE
8
layer0
10
-16.2578825
20
6.6766693
11
-16.4791444
21
6.828208
0
LINE
8
layer0
10
-16.4791444
20
6.828208
11
-16.6242535
21
6.9357961
0
LINE
8
layer0
10
-16.6242535
20
6.9357961
11
-16.7886256
21
7.0686433
0
LINE
8
layer0
10
-16.7886256
20
7.0686433
11
-16.970873
21
7.2289953
0
LINE
8
layer0
10
-16.970873
20
7.2289953
11
-17.1671906
21
7.4168874
0
LINE
8
layer0
10
-17.1671906
20
7.4168874
11
-17.3775566
21
7.6357933
0
LINE
8
layer0
10
-17.3775566
20
7.6357933
11
-17.487236
21
7.7572997
0
LINE
8
layer0
10
-17.487236
20
7.7572997
11
-17.5987662
21
7.8861978
0
LINE
8
layer0
10
-17.5987662
20
7.8861978
11
-17.7982012
21
8.1307351
0
ARC
8
layer0
10
0.0000062
20
-0.0000036
40
19.56745
50
153.1237244
51
155.447701
0
LINE
8
layer0
10
-17.4538617
20
8.8457636
11
-17.138329
21
8.8423056
0
LINE
8
layer0
10
-17.138329
20
8.8423056
11
-16.9680145
21
8.8354744
0
LINE
8
layer0
10
-16.9680145
20
8.8354744
11
-16.8046329
21
8.8254816
0
LINE
8
layer0
10
-16.8046329
20
8.8254816
11
-16.5023243
21
8.7974965
0
LINE
8
layer0
10
-16.5023243
20
8.7974965
11
-16.2330223
21
8.7611579
0
LINE
8
layer0
10
-16.2330223
20
8.7611579
11
-15.9940247
21
8.718649
0
LINE
8
layer0
10
-15.9940247
20
8.718649
11
-15.7876763
21
8.6729667
0
LINE
8
layer0
10
-15.7876763
20
8.6729667
11
-15.6130865
21
8.6265958
0
LINE
8
layer0
10
-15.6130865
20
8.6265958
11
-15.3566542
21
8.5480892
0
LINE
8
layer0
10
-15.3566542
20
8.5480892
11
-15.304672
21
8.538407
0
LINE
8
layer0
10
-15.304672
20
8.538407
11
-15.2591301
21
8.5345181
0
LINE
8
layer0
10
-15.2591301
20
8.5345181
11
-15.2202251
21
8.5361323
0
LINE
8
layer0
10
-15.2202251
20
8.5361323
11
-15.1881693
21
8.5429919
0
LINE
8
layer0
10
-15.1881693
20
8.5429919
11
-15.1631833
21
8.554786
0
LINE
8
layer0
10
-15.1631833
20
8.554786
11
-15.1454278
21
8.5712264
0
LINE
8
layer0
10
-15.1454278
20
8.5712264
11
-15.1003884
21
8.6493782
0
LINE
8
layer0
10
-15.1003884
20
8.6493782
11
-14.9387688
21
8.9254989
0
LINE
8
layer0
10
-14.9387688
20
8.9254989
11
-14.7722046
21
9.1986652
0
LINE
8
layer0
10
-14.7722046
20
9.1986652
11
-14.7247272
21
9.2753604
0
LINE
8
layer0
10
-14.7247272
20
9.2753604
11
-14.7186638
21
9.2987864
0
LINE
8
layer0
10
-14.7186638
20
9.2987864
11
-14.720118
21
9.3263779
0
LINE
8
layer0
10
-14.720118
20
9.3263779
11
-14.7292677
21
9.3578567
0
LINE
8
layer0
10
-14.7292677
20
9.3578567
11
-14.7462821
21
9.3928811
0
LINE
8
layer0
10
-14.7462821
20
9.3928811
11
-14.7712875
21
9.4311423
0
LINE
8
layer0
10
-14.7712875
20
9.4311423
11
-14.8044463
21
9.4723295
0
LINE
8
layer0
10
-14.8044463
20
9.4723295
11
-14.9950941
21
9.6609408
0
LINE
8
layer0
10
-14.9950941
20
9.6609408
11
-15.1186607
21
9.7927101
0
LINE
8
layer0
10
-15.1186607
20
9.7927101
11
-15.2566705
21
9.9527722
0
LINE
8
layer0
10
-15.2566705
20
9.9527722
11
-15.4073571
21
10.1430888
0
LINE
8
layer0
10
-15.4073571
20
10.1430888
11
-15.5669704
21
10.3630152
0
LINE
8
layer0
10
-15.5669704
20
10.3630152
11
-15.7348686
21
10.6159655
0
LINE
8
layer0
10
-15.7348686
20
10.6159655
11
-15.8210896
21
10.7551033
0
LINE
8
layer0
10
-15.8210896
20
10.7551033
11
-15.9078118
21
10.9018444
0
LINE
8
layer0
10
-15.9078118
20
10.9018444
11
-16.060378
21
11.1780624
0
ARC
8
layer0
10
0.0000055
20
-0.0000046
40
19.56745
50
142.8380103
51
145.1619869
0
LINE
8
layer0
10
-15.5938988
20
11.8201159
11
-15.2840544
21
11.7603729
0
LINE
8
layer0
10
-15.2840544
20
11.7603729
11
-15.1176966
21
11.7232407
0
LINE
8
layer0
10
-15.1176966
20
11.7232407
11
-14.9587249
21
11.6842356
0
LINE
8
layer0
10
-14.9587249
20
11.6842356
11
-14.6662715
21
11.6027209
0
LINE
8
layer0
10
-14.6662715
20
11.6027209
11
-14.4077858
21
11.5188805
0
LINE
8
layer0
10
-14.4077858
20
11.5188805
11
-14.1802193
21
11.4343801
0
LINE
8
layer0
10
-14.1802193
20
11.4343801
11
-13.9853438
21
11.352587
0
LINE
8
layer0
10
-13.9853438
20
11.352587
11
-13.8218396
21
11.2757871
0
LINE
8
layer0
10
-13.8218396
20
11.2757871
11
-13.5835462
21
11.1527543
0
LINE
8
layer0
10
-13.5835462
20
11.1527543
11
-13.5341282
21
11.133946
0
LINE
8
layer0
10
-13.5341282
20
11.133946
11
-13.4900125
21
11.1219878
0
LINE
8
layer0
10
-13.4900125
20
11.1219878
11
-13.4514446
21
11.1166293
0
LINE
8
layer0
10
-13.4514446
20
11.1166293
11
-13.4186791
21
11.1176548
0
LINE
8
layer0
10
-13.4186791
20
11.1176548
11
-13.3919887
21
11.124798
0
LINE
8
layer0
10
-13.3919887
20
11.124798
11
-13.3715829
21
11.1378038
0
LINE
8
layer0
10
-13.3715829
20
11.1378038
11
-13.3133128
21
11.2066576
0
LINE
8
layer0
10
-13.3133128
20
11.2066576
11
-13.1049873
21
11.4494826
0
LINE
8
layer0
10
-13.1049873
20
11.4494826
11
-12.8923241
21
11.6885179
0
LINE
8
layer0
10
-12.8923241
20
11.6885179
11
-12.8319153
21
11.7555031
0
LINE
8
layer0
10
-12.8319153
20
11.7555031
11
-12.8217663
21
11.77747
0
LINE
8
layer0
10
-12.8217663
20
11.77747
11
-12.8182705
21
11.8048777
0
LINE
8
layer0
10
-12.8182705
20
11.8048777
11
-12.8216525
21
11.8374844
0
LINE
8
layer0
10
-12.8216525
20
11.8374844
11
-12.8321396
21
11.874984
0
LINE
8
layer0
10
-12.8321396
20
11.874984
11
-12.8499114
21
11.9170952
0
LINE
8
layer0
10
-12.8499114
20
11.9170952
11
-12.875183
21
11.9635412
0
LINE
8
layer0
10
-12.875183
20
11.9635412
11
-13.0290892
21
12.1831629
0
LINE
8
layer0
10
-13.0290892
20
12.1831629
11
-13.1271417
21
12.3348783
0
LINE
8
layer0
10
-13.1271417
20
12.3348783
11
-13.2343534
21
12.5170107
0
LINE
8
layer0
10
-13.2343534
20
12.5170107
11
-13.3486361
21
12.731175
0
LINE
8
layer0
10
-13.3486361
20
12.731175
11
-13.466415
21
12.9760672
0
LINE
8
layer0
10
-13.466415
20
12.9760672
11
-13.586449
21
13.2549318
0
LINE
8
layer0
10
-13.586449
20
13.2549318
11
-13.6464404
21
13.407229
0
LINE
8
layer0
10
-13.6464404
20
13.407229
11
-13.7055673
21
13.5670968
0
LINE
8
layer0
10
-13.7055673
20
13.5670968
11
-13.806361
21
13.8661176
0
ARC
8
layer0
10
0.0000046
20
-0.0000055
40
19.56745
50
132.5522962
51
134.8762725
0
LINE
8
layer0
10
-13.2327353
20
14.4145599
11
-12.9385377
21
14.3004522
0
LINE
8
layer0
10
-12.9385377
20
14.3004522
11
-12.7814836
21
14.2342124
0
LINE
8
layer0
10
-12.7814836
20
14.2342124
11
-12.6320312
21
14.1674486
0
LINE
8
layer0
10
-12.6320312
20
14.1674486
11
-12.3588327
21
14.0350243
0
LINE
8
layer0
10
-12.3588327
20
14.0350243
11
-12.1194713
21
13.9063769
0
LINE
8
layer0
10
-12.1194713
20
13.9063769
11
-11.9106499
21
13.7826008
0
LINE
8
layer0
10
-11.9106499
20
13.7826008
11
-11.7335109
21
13.6673258
0
LINE
8
layer0
10
-11.7335109
20
13.6673258
11
-11.5863474
21
13.5625653
0
LINE
8
layer0
10
-11.5863474
20
13.5625653
11
-11.3738518
21
13.3989608
0
LINE
8
layer0
10
-11.3738518
20
13.3989608
11
-11.3285863
21
13.3716308
0
LINE
8
layer0
10
-11.3285863
20
13.3716308
11
-11.2873149
21
13.3519876
0
LINE
8
layer0
10
-11.2873149
20
13.3519876
11
-11.2503235
21
13.3398287
0
LINE
8
layer0
10
-11.2503235
20
13.3398287
11
-11.2179015
21
13.3349872
0
LINE
8
layer0
10
-11.2179015
20
13.3349872
11
-11.1903645
21
13.3372499
0
LINE
8
layer0
10
-11.1903645
20
13.3372499
11
-11.1679644
21
13.346403
0
LINE
8
layer0
10
-11.1679644
20
13.346403
11
-11.0983364
21
13.4037458
0
LINE
8
layer0
10
-11.0983364
20
13.4037458
11
-10.8500007
21
13.6054705
0
LINE
8
layer0
10
-10.8500007
20
13.6054705
11
-10.5980737
21
13.802692
0
LINE
8
layer0
10
-10.5980737
20
13.802692
11
-10.526675
21
13.8578143
0
LINE
8
layer0
10
-10.526675
20
13.8578143
11
-10.5127668
21
13.877616
0
LINE
8
layer0
10
-10.5127668
20
13.877616
11
-10.5044333
21
13.9039591
0
LINE
8
layer0
10
-10.5044333
20
13.9039591
11
-10.5019388
21
13.9366456
0
LINE
8
layer0
10
-10.5019388
20
13.9366456
11
-10.5055616
21
13.9754151
0
LINE
8
layer0
10
-10.5055616
20
13.9754151
11
-10.5155285
21
14.0200228
0
LINE
8
layer0
10
-10.5155285
20
14.0200228
11
-10.5321008
21
14.0702349
0
LINE
8
layer0
10
-10.5321008
20
14.0702349
11
-10.6443186
21
14.3138082
0
LINE
8
layer0
10
-10.6443186
20
14.3138082
11
-10.7137056
21
14.4805934
0
LINE
8
layer0
10
-10.7137056
20
14.4805934
11
-10.7866733
21
14.6789423
0
LINE
8
layer0
10
-10.7866733
20
14.6789423
11
-10.8608789
21
14.9100708
0
LINE
8
layer0
10
-10.8608789
20
14.9100708
11
-10.9330379
21
15.1720577
0
LINE
8
layer0
10
-10.9330379
20
15.1720577
11
-11.0013497
21
15.4678737
0
LINE
8
layer0
10
-11.0013497
20
15.4678737
11
-11.0331833
21
15.6284353
0
LINE
8
layer0
10
-11.0331833
20
15.6284353
11
-11.0628145
21
15.7962915
0
LINE
8
layer0
10
-11.0628145
20
15.7962915
11
-11.1085962
21
16.1085043
0
ARC
8
layer0
10
0.0000033
20
-0.0000064
40
19.56745
50
122.2665809
51
124.5905574
0
LINE
8
layer0
10
-10.4462607
20
16.5457081
11
-10.1771657
21
16.3809031
0
LINE
8
layer0
10
-10.1771657
20
16.3809031
11
-10.0344631
21
16.2876847
0
LINE
8
layer0
10
-10.0344631
20
16.2876847
11
-9.8993337
21
16.1953081
0
LINE
8
layer0
10
-9.8993337
20
16.1953081
11
-9.6541708
21
16.0162305
0
LINE
8
layer0
10
-9.6541708
20
16.0162305
11
-9.4416269
21
15.8469109
0
LINE
8
layer0
10
-9.4416269
20
15.8469109
11
-9.2582624
21
15.6878374
0
LINE
8
layer0
10
-9.2582624
20
15.6878374
11
-9.1045533
21
15.5427855
0
LINE
8
layer0
10
-9.1045533
20
15.5427855
11
-8.9784605
21
15.4134315
0
LINE
8
layer0
10
-8.9784605
20
15.4134315
11
-8.7985925
21
15.2145137
0
LINE
8
layer0
10
-8.7985925
20
15.2145137
11
-8.7589344
21
15.1795404
0
LINE
8
layer0
10
-8.7589344
20
15.1795404
11
-8.7218336
21
15.1528436
0
LINE
8
layer0
10
-8.7218336
20
15.1528436
11
-8.6876078
21
15.134275
0
LINE
8
layer0
10
-8.6876078
20
15.134275
11
-8.6565713
21
15.1237221
0
LINE
8
layer0
10
-8.6565713
20
15.1237221
11
-8.6290728
21
15.1210315
0
LINE
8
layer0
10
-8.6290728
20
15.1210315
11
-8.6053984
21
15.1260379
0
LINE
8
layer0
10
-8.6053984
20
15.1260379
11
-8.5266503
21
15.1700266
0
LINE
8
layer0
10
-8.5266503
20
15.1700266
11
-8.2462862
21
15.3241675
0
LINE
8
layer0
10
-8.2462862
20
15.3241675
11
-7.9631925
21
15.4732362
0
LINE
8
layer0
10
-7.9631925
20
15.4732362
11
-7.8830987
21
15.5147239
0
LINE
8
layer0
10
-7.8830987
20
15.5147239
11
-7.8658783
21
15.531724
0
LINE
8
layer0
10
-7.8658783
20
15.531724
11
-7.852975
21
15.5561557
0
LINE
8
layer0
10
-7.852975
20
15.5561557
11
-7.8446842
21
15.5878715
0
LINE
8
layer0
10
-7.8446842
20
15.5878715
11
-7.8413262
21
15.6266649
0
LINE
8
layer0
10
-7.8413262
20
15.6266649
11
-7.8431679
21
15.6723354
0
LINE
8
layer0
10
-7.8431679
20
15.6723354
11
-7.8505081
21
15.7246996
0
LINE
8
layer0
10
-7.8505081
20
15.7246996
11
-7.9174309
21
15.9843959
0
LINE
8
layer0
10
-7.9174309
20
15.9843959
11
-7.9559221
21
16.1608903
0
LINE
8
layer0
10
-7.9559221
20
16.1608903
11
-7.9923007
21
16.3690805
0
LINE
8
layer0
10
-7.9923007
20
16.3690805
11
-8.0240442
21
16.6097446
0
LINE
8
layer0
10
-8.0240442
20
16.6097446
11
-8.048264
21
16.8804058
0
LINE
8
layer0
10
-8.048264
20
16.8804058
11
-8.062658
21
17.1836655
0
LINE
8
layer0
10
-8.062658
20
17.1836655
11
-8.0653106
21
17.3473309
0
LINE
8
layer0
10
-8.0653106
20
17.3473309
11
-8.0644937
21
17.5177804
0
LINE
8
layer0
10
-8.0644937
20
17.5177804
11
-8.053792
21
17.8331505
0
ARC
8
layer0
10
0.0000028
20
-0.0000065
40
19.56745
50
111.9808691
51
114.3048455
0
LINE
8
layer0
10
-7.3240347
20
18.1450637
11
-7.0886913
21
17.9348584
0
LINE
8
layer0
10
-7.0886913
20
17.9348584
11
-6.9649267
21
17.8176575
0
LINE
8
layer0
10
-6.9649267
20
17.8176575
11
-6.8484634
21
17.7026372
0
LINE
8
layer0
10
-6.8484634
20
17.7026372
11
-6.639216
21
17.4826618
0
LINE
8
layer0
10
-6.639216
20
17.4826618
11
-6.4603209
21
17.2781121
0
LINE
8
layer0
10
-6.4603209
20
17.2781121
11
-6.3083068
21
17.088854
0
LINE
8
layer0
10
-6.3083068
20
17.088854
11
-6.1829679
21
16.9186873
0
LINE
8
layer0
10
-6.1829679
20
16.9186873
11
-6.0819985
21
16.7688974
0
LINE
8
layer0
10
-6.0819985
20
16.7688974
11
-5.9405392
21
16.5410595
0
LINE
8
layer0
10
-5.9405392
20
16.5410595
11
-5.9077631
21
16.4995671
0
LINE
8
layer0
10
-5.9077631
20
16.4995671
11
-5.8760255
21
16.4666747
0
LINE
8
layer0
10
-5.8760255
20
16.4666747
11
-5.8456652
21
16.4422932
0
LINE
8
layer0
10
-5.8456652
20
16.4422932
11
-5.8170117
21
16.4263682
0
LINE
8
layer0
10
-5.8170117
20
16.4263682
11
-5.7904357
21
16.4188108
0
LINE
8
layer0
10
-5.7904357
20
16.4188108
11
-5.7662477
21
16.4195095
0
LINE
8
layer0
10
-5.7662477
20
16.4195095
11
-5.6809107
21
16.4487302
0
LINE
8
layer0
10
-5.6809107
20
16.4487302
11
-5.3775292
21
16.550333
0
LINE
8
layer0
10
-5.3775292
20
16.550333
11
-5.0723677
21
16.6464578
0
LINE
8
layer0
10
-5.0723677
20
16.6464578
11
-4.9861531
21
16.6729776
0
LINE
8
layer0
10
-4.9861531
20
16.6729776
11
-4.966174
21
16.6866296
0
LINE
8
layer0
10
-4.966174
20
16.6866296
11
-4.9491156
21
16.7083647
0
LINE
8
layer0
10
-4.9491156
20
16.7083647
11
-4.9352949
21
16.7380905
0
LINE
8
layer0
10
-4.9352949
20
16.7380905
11
-4.9250641
21
16.7756608
0
LINE
8
layer0
10
-4.9250641
20
16.7756608
11
-4.9187214
21
16.8209262
0
LINE
8
layer0
10
-4.9187214
20
16.8209262
11
-4.9165937
21
16.8737596
0
LINE
8
layer0
10
-4.9165937
20
16.8737596
11
-4.9360705
21
17.1412319
0
LINE
8
layer0
10
-4.9360705
20
17.1412319
11
-4.9424288
21
17.3217629
0
LINE
8
layer0
10
-4.9424288
20
17.3217629
11
-4.941049
21
17.533103
0
LINE
8
layer0
10
-4.941049
20
17.533103
11
-4.9293101
21
17.7755676
0
LINE
8
layer0
10
-4.9293101
20
17.7755676
11
-4.9048122
21
18.0462037
0
LINE
8
layer0
10
-4.9048122
20
18.0462037
11
-4.8648258
21
18.3471601
0
LINE
8
layer0
10
-4.8648258
20
18.3471601
11
-4.8382122
21
18.5086689
0
LINE
8
layer0
10
-4.8382122
20
18.5086689
11
-4.8069735
21
18.6762334
0
LINE
8
layer0
10
-4.8069735
20
18.6762334
11
-4.7401323
21
18.9846245
0
ARC
8
layer0
10
0.0000026
20
-0.0000067
40
19.56745
50
101.6951577
51
104.0191343
0
LINE
8
layer0
10
-3.9664083
20
19.1612219
11
-3.7723805
21
18.9123725
0
LINE
8
layer0
10
-3.7723805
20
18.9123725
11
-3.6715319
21
18.7749561
0
LINE
8
layer0
10
-3.6715319
20
18.7749561
11
-3.5774778
21
18.6409889
0
LINE
8
layer0
10
-3.5774778
20
18.6409889
11
-3.4108712
21
18.387186
0
LINE
8
layer0
10
-3.4108712
20
18.387186
11
-3.2713748
21
18.1539805
0
LINE
8
layer0
10
-3.2713748
20
18.1539805
11
-3.155597
21
17.9406208
0
LINE
8
layer0
10
-3.155597
20
17.9406208
11
-3.0626568
21
17.7508086
0
LINE
8
layer0
10
-3.0626568
20
17.7508086
11
-2.990056
21
17.5853971
0
LINE
8
layer0
10
-2.990056
20
17.5853971
11
-2.891552
21
17.3359621
0
LINE
8
layer0
10
-2.891552
20
17.3359621
11
-2.8667115
21
17.2892841
0
LINE
8
layer0
10
-2.8667115
20
17.2892841
11
-2.841357
21
17.2512533
0
LINE
8
layer0
10
-2.841357
20
17.2512533
11
-2.8158382
21
17.2218426
0
LINE
8
layer0
10
-2.8158382
20
17.2218426
11
-2.7904887
21
17.2010573
0
LINE
8
layer0
10
-2.7904887
20
17.2010573
11
-2.7656891
21
17.1888759
0
LINE
8
layer0
10
-2.7656891
20
17.1888759
11
-2.7417651
21
17.1852445
0
LINE
8
layer0
10
-2.7417651
20
17.1852445
11
-2.652582
21
17.1987581
0
LINE
8
layer0
10
-2.652582
20
17.1987581
11
-2.335934
21
17.2445573
0
LINE
8
layer0
10
-2.335934
20
17.2445573
11
-2.0185129
21
17.2846486
0
LINE
8
layer0
10
-2.0185129
20
17.2846486
11
-1.9289485
21
17.295348
0
LINE
8
layer0
10
-1.9289485
20
17.295348
11
-1.9068528
21
17.3052132
0
LINE
8
layer0
10
-1.9068528
20
17.3052132
11
-1.8861876
21
17.3235532
0
LINE
8
layer0
10
-1.8861876
20
17.3235532
11
-1.8672813
21
17.3503334
0
LINE
8
layer0
10
-1.8672813
20
17.3503334
11
-1.8505064
21
17.3854732
0
LINE
8
layer0
10
-1.8505064
20
17.3854732
11
-1.8361832
21
17.4288786
0
LINE
8
layer0
10
-1.8361832
20
17.4288786
11
-1.8246559
21
17.480483
0
LINE
8
layer0
10
-1.8246559
20
17.480483
11
-1.7960606
21
17.7471347
0
LINE
8
layer0
10
-1.7960606
20
17.7471347
11
-1.7700817
21
17.9258998
0
LINE
8
layer0
10
-1.7700817
20
17.9258998
11
-1.7309878
21
18.1335972
0
LINE
8
layer0
10
-1.7309878
20
18.1335972
11
-1.6761439
21
18.3700692
0
LINE
8
layer0
10
-1.6761439
20
18.3700692
11
-1.6037158
21
18.6319819
0
LINE
8
layer0
10
-1.6037158
20
18.6319819
11
-1.5106341
21
18.9209619
0
LINE
8
layer0
10
-1.5106341
20
18.9209619
11
-1.4556097
21
19.0751232
0
LINE
8
layer0
10
-1.4556097
20
19.0751232
11
-1.3949533
21
19.2344169
0
LINE
8
layer0
10
-1.3949533
20
19.2344169
11
-1.2741208
21
19.5259171
0
ARC
8
layer0
10
2e-7
20
-0.0000071
40
19.56745
50
91.4094401
51
93.7334165
0
LINE
8
layer0
10
-0.4812982
20
19.5615228
11
-0.3348223
21
19.2820275
0
LINE
8
layer0
10
-0.3348223
20
19.2820275
11
-0.260131
21
19.1288122
0
LINE
8
layer0
10
-0.260131
20
19.1288122
11
-0.1915092
21
18.9802038
0
LINE
8
layer0
10
-0.1915092
20
18.9802038
11
-0.0728983
21
18.700731
0
LINE
8
layer0
10
-0.0728983
20
18.700731
11
0.0227159
21
18.4463651
0
LINE
8
layer0
10
0.0227159
20
18.4463651
11
0.0985363
21
18.2157612
0
LINE
8
layer0
10
0.0985363
20
18.2157612
11
0.1560906
21
18.0124043
0
LINE
8
layer0
10
0.1560906
20
18.0124043
11
0.1979893
21
17.8366876
0
LINE
8
layer0
10
0.1979893
20
17.8366876
11
0.2503719
21
17.5736726
0
LINE
8
layer0
10
0.2503719
20
17.5736726
11
0.2664786
21
17.5233093
0
LINE
8
layer0
10
0.2664786
20
17.5233093
11
0.284635
21
17.4813625
0
LINE
8
layer0
10
0.284635
20
17.4813625
11
0.3044922
21
17.4478678
0
LINE
8
layer0
10
0.3044922
20
17.4478678
11
0.325723
21
17.4228902
0
LINE
8
layer0
10
0.325723
20
17.4228902
11
0.347949
21
17.4064765
0
LINE
8
layer0
10
0.347949
20
17.4064765
11
0.3708401
21
17.3986316
0
LINE
8
layer0
10
0.3708401
20
17.3986316
11
0.461003
21
17.3960038
0
LINE
8
layer0
10
0.461003
20
17.3960038
11
0.78074
21
17.3845273
0
LINE
8
layer0
10
0.78074
20
17.3845273
11
1.1002187
21
17.3672966
0
LINE
8
layer0
10
1.1002187
20
17.3672966
11
1.1902541
21
17.3618317
0
LINE
8
layer0
10
1.1902541
20
17.3618317
11
1.2137563
21
17.367593
0
LINE
8
layer0
10
1.2137563
20
17.367593
11
1.2373641
21
17.3819483
0
LINE
8
layer0
10
1.2373641
20
17.3819483
11
1.2607484
21
17.4049223
0
LINE
8
layer0
10
1.2607484
20
17.4049223
11
1.2835281
21
17.4365021
0
LINE
8
layer0
10
1.2835281
20
17.4365021
11
1.3053715
21
17.4766526
0
LINE
8
layer0
10
1.3053715
20
17.4766526
11
1.3259278
21
17.5253694
0
LINE
8
layer0
10
1.3259278
20
17.5253694
11
1.4016761
21
17.78263
0
LINE
8
layer0
10
1.4016761
20
17.78263
11
1.4591572
21
17.9538835
0
LINE
8
layer0
10
1.4591572
20
17.9538835
11
1.5347087
21
18.1512627
0
LINE
8
layer0
10
1.5347087
20
18.1512627
11
1.630895
21
18.3741417
0
LINE
8
layer0
10
1.630895
20
18.3741417
11
1.7489254
21
18.6189128
0
LINE
8
layer0
10
1.7489254
20
18.6189128
11
1.8921106
21
18.8866284
0
LINE
8
layer0
10
1.8921106
20
18.8866284
11
1.9737773
21
19.0284872
0
LINE
8
layer0
10
1.9737773
20
19.0284872
11
2.061902
21
19.1743905
0
LINE
8
layer0
10
2.061902
20
19.1743905
11
2.232842
21
19.4396306
0
ARC
8
layer0
10
1e-7
20
-0.0000072
40
19.56745
50
81.1237291
51
83.4477056
0
LINE
8
layer0
10
3.0192813
20
19.3331001
11
3.1134974
21
19.0319422
0
LINE
8
layer0
10
3.1134974
20
19.0319422
11
3.1596307
21
18.8678525
0
LINE
8
layer0
10
3.1596307
20
18.8678525
11
3.2006147
21
18.7093794
0
LINE
8
layer0
10
3.2006147
20
18.7093794
11
3.2674177
21
18.413219
0
LINE
8
layer0
10
3.2674177
20
18.413219
11
3.3160765
21
18.1458684
0
LINE
8
layer0
10
3.3160765
20
18.1458684
11
3.3495025
21
17.9054321
0
LINE
8
layer0
10
3.3495025
20
17.9054321
11
3.3698212
21
17.6950665
0
LINE
8
layer0
10
3.3698212
20
17.6950665
11
3.3796711
21
17.5146923
0
LINE
8
layer0
10
3.3796711
20
17.5146923
11
3.3842488
21
17.2465508
0
LINE
8
layer0
10
3.3842488
20
17.2465508
11
3.3911039
21
17.1941209
0
LINE
8
layer0
10
3.3911039
20
17.1941209
11
3.4014786
21
17.1496062
0
LINE
8
layer0
10
3.4014786
20
17.1496062
11
3.415036
21
17.1131042
0
LINE
8
layer0
10
3.415036
20
17.1131042
11
3.4314657
21
17.0847371
0
LINE
8
layer0
10
3.4314657
20
17.0847371
11
3.4504037
21
17.0646186
0
LINE
8
layer0
10
3.4504037
20
17.0646186
11
3.4715261
21
17.0528124
0
LINE
8
layer0
10
3.4715261
20
17.0528124
11
3.5597709
21
17.0341276
0
LINE
8
layer0
10
3.5597709
20
17.0341276
11
3.8723204
21
16.9657443
0
LINE
8
layer0
10
3.8723204
20
16.9657443
11
4.1835882
21
16.8917454
0
LINE
8
layer0
10
4.1835882
20
16.8917454
11
4.271201
21
16.8702918
0
LINE
8
layer0
10
4.271201
20
16.8702918
11
4.2953542
21
16.8717641
0
LINE
8
layer0
10
4.2953542
20
16.8717641
11
4.3211459
21
16.8816734
0
LINE
8
layer0
10
4.3211459
20
16.8816734
11
4.3482565
21
16.9001028
0
LINE
8
layer0
10
4.3482565
20
16.9001028
11
4.376309
21
16.9271076
0
LINE
8
layer0
10
4.376309
20
16.9271076
11
4.4049704
21
16.9627125
0
LINE
8
layer0
10
4.4049704
20
16.9627125
11
4.4338952
21
17.0069759
0
LINE
8
layer0
10
4.4338952
20
17.0069759
11
4.5543617
21
17.2465769
0
LINE
8
layer0
10
4.5543617
20
17.2465769
11
4.6414976
21
17.4048146
0
LINE
8
layer0
10
4.6414976
20
17.4048146
11
4.7510784
21
17.5855316
0
LINE
8
layer0
10
4.7510784
20
17.5855316
11
4.8855155
21
17.7876542
0
LINE
8
layer0
10
4.8855155
20
17.7876542
11
5.0453547
21
18.0074165
0
LINE
8
layer0
10
5.0453547
20
18.0074165
11
5.2340413
21
18.2452631
0
LINE
8
layer0
10
5.2340413
20
18.2452631
11
5.3397255
21
18.3702601
0
LINE
8
layer0
10
5.3397255
20
18.3702601
11
5.452486
21
18.4980833
0
LINE
8
layer0
10
5.452486
20
18.4980833
11
5.6680394
21
18.7285384
0
ARC
8
layer0
10
-0.0000023
20
-0.0000067
40
19.56745
50
70.8380114
51
73.1619878
0
LINE
8
layer0
10
6.4228185
20
18.4832958
11
6.4617467
21
18.1701546
0
LINE
8
layer0
10
6.4617467
20
18.1701546
11
6.4778393
21
18.0004645
0
LINE
8
layer0
10
6.4778393
20
18.0004645
11
6.4898682
21
17.8372202
0
LINE
8
layer0
10
6.4898682
20
17.8372202
11
6.5027161
21
17.5338911
0
LINE
8
layer0
10
6.5027161
20
17.5338911
11
6.5028557
21
17.2621485
0
LINE
8
layer0
10
6.5028557
20
17.2621485
11
6.492813
21
17.0196077
0
LINE
8
layer0
10
6.492813
20
17.0196077
11
6.4752429
21
16.8089947
0
LINE
8
layer0
10
6.4752429
20
16.8089947
11
6.4527275
21
16.6297604
0
LINE
8
layer0
10
6.4527275
20
16.6297604
11
6.4093531
21
16.3651107
0
LINE
8
layer0
10
6.4093531
20
16.3651107
11
6.4067363
21
16.3122993
0
LINE
8
layer0
10
6.4067363
20
16.3122993
11
6.4089958
21
16.2666476
0
LINE
8
layer0
10
6.4089958
20
16.2666476
11
6.4158177
21
16.2283114
0
LINE
8
layer0
10
6.4158177
20
16.2283114
11
6.4269182
21
16.1974665
0
LINE
8
layer0
10
6.4269182
20
16.1974665
11
6.4419596
21
16.1742898
0
LINE
8
layer0
10
6.4419596
20
16.1742898
11
6.4606345
21
16.1589017
0
LINE
8
layer0
10
6.4606345
20
16.1589017
11
6.5441248
21
16.1247605
0
LINE
8
layer0
10
6.5441248
20
16.1247605
11
6.8394413
21
16.0016683
0
LINE
8
layer0
10
6.8394413
20
16.0016683
11
7.1324939
21
15.8732795
0
LINE
8
layer0
10
7.1324939
20
15.8732795
11
7.214868
21
15.8365269
0
LINE
8
layer0
10
7.214868
20
15.8365269
11
7.2388959
21
15.8336628
0
LINE
8
layer0
10
7.2388959
20
15.8336628
11
7.2660425
21
15.8388076
0
LINE
8
layer0
10
7.2660425
20
15.8388076
11
7.2960081
21
15.8521
0
LINE
8
layer0
10
7.2960081
20
15.8521
11
7.3284317
21
15.8736618
0
LINE
8
layer0
10
7.3284317
20
15.8736618
11
7.36299
21
15.9035769
0
LINE
8
layer0
10
7.36299
20
15.9035769
11
7.3993535
21
15.9419642
0
LINE
8
layer0
10
7.3993535
20
15.9419642
11
7.5606665
21
16.1562046
0
LINE
8
layer0
10
7.5606665
20
16.1562046
11
7.6746565
21
16.2963407
0
LINE
8
layer0
10
7.6746565
20
16.2963407
11
7.8147445
21
16.4545871
0
LINE
8
layer0
10
7.8147445
20
16.4545871
11
7.9831115
21
16.6294568
0
LINE
8
layer0
10
7.9831115
20
16.6294568
11
8.1796222
21
16.817147
0
LINE
8
layer0
10
8.1796222
20
16.817147
11
8.4077456
21
17.01748
0
LINE
8
layer0
10
8.4077456
20
17.01748
11
8.5340505
21
17.1215976
0
LINE
8
layer0
10
8.5340505
20
17.1215976
11
8.6678226
21
17.2272325
0
LINE
8
layer0
10
8.6678226
20
17.2272325
11
8.9210613
21
17.4154956
0
ARC
8
layer0
10
-0.0000035
20
-0.0000062
40
19.56745
50
60.552297
51
62.8762736
0
LINE
8
layer0
10
9.6199211
20
17.0394231
11
9.6023102
21
16.7243633
0
LINE
8
layer0
10
9.6023102
20
16.7243633
11
9.5878448
21
16.5545267
0
LINE
8
layer0
10
9.5878448
20
16.5545267
11
9.570532
21
16.391758
0
LINE
8
layer0
10
9.570532
20
16.391758
11
9.529012
21
16.0910094
0
LINE
8
layer0
10
9.529012
20
16.0910094
11
9.4806278
21
15.8236089
0
LINE
8
layer0
10
9.4806278
20
15.8236089
11
9.4274391
21
15.5867591
0
LINE
8
layer0
10
9.4274391
20
15.5867591
11
9.372545
21
15.382668
0
LINE
8
layer0
10
9.372545
20
15.382668
11
9.3183879
21
15.2103344
0
LINE
8
layer0
10
9.3183879
20
15.2103344
11
9.2284555
21
14.9576825
0
LINE
8
layer0
10
9.2284555
20
14.9576825
11
9.2164509
21
14.906187
0
LINE
8
layer0
10
9.2164509
20
14.906187
11
9.2105227
21
14.8608655
0
LINE
8
layer0
10
9.2105227
20
14.8608655
11
9.2103898
21
14.8219273
0
LINE
8
layer0
10
9.2103898
20
14.8219273
11
9.2158043
21
14.789596
0
LINE
8
layer0
10
9.2158043
20
14.789596
11
9.2264656
21
14.764106
0
LINE
8
layer0
10
9.2264656
20
14.764106
11
9.2420928
21
14.7456307
0
LINE
8
layer0
10
9.2420928
20
14.7456307
11
9.3181452
21
14.6971304
0
LINE
8
layer0
10
9.3181452
20
14.6971304
11
9.5867368
21
14.5232855
0
LINE
8
layer0
10
9.5867368
20
14.5232855
11
9.8521553
21
14.3446334
0
LINE
8
layer0
10
9.8521553
20
14.3446334
11
9.9266431
21
14.293763
0
LINE
8
layer0
10
9.9266431
20
14.293763
11
9.9497735
21
14.2866546
0
LINE
8
layer0
10
9.9497735
20
14.2866546
11
9.9774025
21
14.2868694
0
LINE
8
layer0
10
9.9774025
20
14.2868694
11
10.00926
21
14.2945977
0
LINE
8
layer0
10
10.00926
20
14.2945977
11
10.0450125
21
14.3100236
0
LINE
8
layer0
10
10.0450125
20
14.3100236
11
10.084357
21
14.3332872
0
LINE
8
layer0
10
10.084357
20
14.3332872
11
10.1269904
21
14.3645647
0
LINE
8
layer0
10
10.1269904
20
14.3645647
11
10.3239652
21
14.5465586
0
LINE
8
layer0
10
10.3239652
20
14.5465586
11
10.4611456
21
14.664089
0
LINE
8
layer0
10
10.4611456
20
14.664089
11
10.6272383
21
14.7947786
0
LINE
8
layer0
10
10.6272383
20
14.7947786
11
10.8241238
21
14.9367749
0
LINE
8
layer0
10
10.8241238
20
14.9367749
11
11.0509898
21
15.0863606
0
LINE
8
layer0
10
11.0509898
20
15.0863606
11
11.3112181
21
15.2427412
0
LINE
8
layer0
10
11.3112181
20
15.2427412
11
11.4540841
21
15.322633
0
LINE
8
layer0
10
11.4540841
20
15.322633
11
11.6045683
21
15.4026843
0
LINE
8
layer0
10
11.6045683
20
15.4026843
11
11.887353
21
15.5427044
0
ARC
8
layer0
10
-0.0000045
20
-0.0000055
40
19.56745
50
50.2665828
51
52.5905594
0
LINE
8
layer0
10
12.5078315
20
15.0478893
11
12.4342475
21
14.7410372
0
LINE
8
layer0
10
12.4342475
20
14.7410372
11
12.3896891
21
14.5765129
0
LINE
8
layer0
10
12.3896891
20
14.5765129
11
12.343591
21
14.4194513
0
LINE
8
layer0
10
12.343591
20
14.4194513
11
12.2490375
21
14.1309495
0
LINE
8
layer0
10
12.2490375
20
14.1309495
11
12.1536847
21
13.8764855
0
LINE
8
layer0
10
12.1536847
20
13.8764855
11
12.0590596
21
13.6529392
0
LINE
8
layer0
10
12.0590596
20
13.6529392
11
11.9686057
21
13.4619296
0
LINE
8
layer0
10
11.9686057
20
13.4619296
11
11.8845476
21
13.3020356
0
LINE
8
layer0
10
11.8845476
20
13.3020356
11
11.7509477
21
13.069502
0
LINE
8
layer0
10
11.7509477
20
13.069502
11
11.7299412
21
13.0209776
0
LINE
8
layer0
10
11.7299412
20
13.0209776
11
11.7160158
21
12.9774429
0
LINE
8
layer0
10
11.7160158
20
12.9774429
11
11.7089324
21
12.9391542
0
LINE
8
layer0
10
11.7089324
20
12.9391542
11
11.7084869
21
12.9063757
0
LINE
8
layer0
10
11.7084869
20
12.9063757
11
11.7144254
21
12.8793917
0
LINE
8
layer0
10
11.7144254
20
12.8793917
11
11.7265026
21
12.858423
0
LINE
8
layer0
10
11.7265026
20
12.858423
11
11.7926727
21
12.7971224
0
LINE
8
layer0
10
11.7926727
20
12.7971224
11
12.0259068
21
12.5781124
0
LINE
8
layer0
10
12.0259068
20
12.5781124
11
12.2551603
21
12.354939
0
LINE
8
layer0
10
12.2551603
20
12.354939
11
12.3193678
21
12.2915857
0
LINE
8
layer0
10
12.3193678
20
12.2915857
11
12.3408573
21
12.2804615
0
LINE
8
layer0
10
12.3408573
20
12.2804615
11
12.3680805
21
12.2757396
0
LINE
8
layer0
10
12.3680805
20
12.2757396
11
12.4008061
21
12.2776552
0
LINE
8
layer0
10
12.4008061
20
12.2776552
11
12.4387384
21
12.2864494
0
LINE
8
layer0
10
12.4387384
20
12.2864494
11
12.4816045
21
12.3023139
0
LINE
8
layer0
10
12.4816045
20
12.3023139
11
12.5291376
21
12.3254763
0
LINE
8
layer0
10
12.5291376
20
12.3254763
11
12.7554432
21
12.4693742
0
LINE
8
layer0
10
12.7554432
20
12.4693742
11
12.9114049
21
12.5605213
0
LINE
8
layer0
10
12.9114049
20
12.5605213
11
13.0981639
21
12.6594537
0
LINE
8
layer0
10
13.0981639
20
12.6594537
11
13.3172398
21
12.7640129
0
LINE
8
layer0
10
13.3172398
20
12.7640129
11
13.5671696
21
12.8706862
0
LINE
8
layer0
10
13.5671696
20
12.8706862
11
13.8511387
21
12.9780881
0
LINE
8
layer0
10
13.8511387
20
12.9780881
11
14.005974
21
13.0311862
0
LINE
8
layer0
10
14.005974
20
13.0311862
11
14.1683336
21
13.0830812
0
LINE
8
layer0
10
14.1683336
20
13.0830812
11
14.4715754
21
13.1703579
0
ARC
8
layer0
10
-0.0000052
20
-0.0000049
40
19.56745
50
39.9808696
51
42.3048461
0
LINE
8
layer0
10
14.9937298
20
12.572704
11
14.8665379
21
12.2839221
0
LINE
8
layer0
10
14.8665379
20
12.2839221
11
14.7933185
21
12.1299979
0
LINE
8
layer0
10
14.7933185
20
12.1299979
11
14.7199169
21
11.9836915
0
LINE
8
layer0
10
14.7199169
20
11.9836915
11
14.5753689
21
11.7167092
0
LINE
8
layer0
10
14.5753689
20
11.7167092
11
14.4361121
21
11.4833605
0
LINE
8
layer0
10
14.4361121
20
11.4833605
11
14.303092
21
11.2803026
0
LINE
8
layer0
10
14.303092
20
11.2803026
11
14.1799857
21
11.1085138
0
LINE
8
layer0
10
14.1799857
20
11.1085138
11
14.0687282
21
10.9661985
0
LINE
8
layer0
10
14.0687282
20
10.9661985
11
13.8957549
21
10.761257
0
LINE
8
layer0
10
13.8957549
20
10.761257
11
13.8664216
21
10.7172633
0
LINE
8
layer0
10
13.8664216
20
10.7172633
11
13.8449465
21
10.6769146
0
LINE
8
layer0
10
13.8449465
20
10.6769146
11
13.8311402
21
10.6405061
0
LINE
8
layer0
10
13.8311402
20
10.6405061
11
13.824849
21
10.6083339
0
LINE
8
layer0
10
13.824849
20
10.6083339
11
13.825874
21
10.5807231
0
LINE
8
layer0
10
13.825874
20
10.5807231
11
13.8340129
21
10.5579349
0
LINE
8
layer0
10
13.8340129
20
10.5579349
11
13.8881741
21
10.4858043
0
LINE
8
layer0
10
13.8881741
20
10.4858043
11
14.0785542
21
10.2286683
0
LINE
8
layer0
10
14.0785542
20
10.2286683
11
14.2642744
21
9.9681467
0
LINE
8
layer0
10
14.2642744
20
9.9681467
11
14.3161379
21
9.8943468
0
LINE
8
layer0
10
14.3161379
20
9.8943468
11
14.3352957
21
9.8795643
0
LINE
8
layer0
10
14.3352957
20
9.8795643
11
14.3612383
21
9.8700573
0
LINE
8
layer0
10
14.3612383
20
9.8700573
11
14.39378
21
9.8660988
0
LINE
8
layer0
10
14.39378
20
9.8660988
11
14.432673
21
9.8679785
0
LINE
8
layer0
10
14.432673
20
9.8679785
11
14.477683
21
9.8759341
0
LINE
8
layer0
10
14.477683
20
9.8759341
11
14.528588
21
9.8902369
0
LINE
8
layer0
10
14.528588
20
9.8902369
11
14.7769507
21
9.991414
0
LINE
8
layer0
10
14.7769507
20
9.991414
11
14.946681
21
10.0532482
0
LINE
8
layer0
10
14.946681
20
10.0532482
11
15.1481038
21
10.1172436
0
LINE
8
layer0
10
15.1481038
20
10.1172436
11
15.3823288
21
10.181005
0
LINE
8
layer0
10
15.3823288
20
10.181005
11
15.6472893
21
10.2413373
0
LINE
8
layer0
10
15.6472893
20
10.2413373
11
15.9458723
21
10.2963085
0
LINE
8
layer0
10
15.9458723
20
10.2963085
11
16.1077004
21
10.3209065
0
LINE
8
layer0
10
16.1077004
20
10.3209065
11
16.276717
21
10.342977
0
LINE
8
layer0
10
16.276717
20
10.342977
11
16.5906694
21
10.3747053
0
ARC
8
layer0
10
-0.0000062
20
-0.0000036
40
19.56745
50
29.6951545
51
32.0191309
0
LINE
8
layer0
10
16.9977174
20
9.6934216
11
16.8210055
21
9.4319915
0
LINE
8
layer0
10
16.8210055
20
9.4319915
11
16.7214786
21
9.2936149
0
LINE
8
layer0
10
16.7214786
20
9.2936149
11
16.6231325
21
9.162766
0
LINE
8
layer0
10
16.6231325
20
9.162766
11
16.4332359
21
8.9258843
0
LINE
8
layer0
10
16.4332359
20
8.9258843
11
16.2545511
21
8.7211508
0
LINE
8
layer0
10
16.2545511
20
8.7211508
11
16.0874112
21
8.5451078
0
LINE
8
layer0
10
16.0874112
20
8.5451078
11
15.9356092
21
8.3980612
0
LINE
8
layer0
10
15.9356092
20
8.3980612
11
15.8007283
21
8.2778988
0
LINE
8
layer0
10
15.8007283
20
8.2778988
11
15.593941
21
8.1071363
0
LINE
8
layer0
10
15.593941
20
8.1071363
11
15.5572237
21
8.0690872
0
LINE
8
layer0
10
15.5572237
20
8.0690872
11
15.5288893
21
8.0332216
0
LINE
8
layer0
10
15.5288893
20
8.0332216
11
15.5088038
21
7.9998633
0
LINE
8
layer0
10
15.5088038
20
7.9998633
11
15.4968692
21
7.9693315
0
LINE
8
layer0
10
15.4968692
20
7.9693315
11
15.4929475
21
7.9419814
0
LINE
8
layer0
10
15.4929475
20
7.9419814
11
15.4968867
21
7.9181062
0
LINE
8
layer0
10
15.4968867
20
7.9181062
11
15.5372981
21
7.8374639
0
LINE
8
layer0
10
15.5372981
20
7.8374639
11
15.6787053
21
7.5504665
0
LINE
8
layer0
10
15.6787053
20
7.5504665
11
15.8149229
21
7.26097
0
LINE
8
layer0
10
15.8149229
20
7.26097
11
15.8527755
21
7.1790955
0
LINE
8
layer0
10
15.8527755
20
7.1790955
11
15.8689859
21
7.1611297
0
LINE
8
layer0
10
15.8689859
20
7.1611297
11
15.8928141
21
7.1471433
0
LINE
8
layer0
10
15.8928141
20
7.1471433
11
15.924126
21
7.1374379
0
LINE
8
layer0
10
15.924126
20
7.1374379
11
15.9627296
21
7.1323428
0
LINE
8
layer0
10
15.9627296
20
7.1323428
11
16.0084368
21
7.1321337
0
LINE
8
layer0
10
16.0084368
20
7.1321337
11
16.0610776
21
7.1371172
0
LINE
8
layer0
10
16.0610776
20
7.1371172
11
16.3235149
21
7.1923214
0
LINE
8
layer0
10
16.3235149
20
7.1923214
11
16.5015585
21
7.2228555
0
LINE
8
layer0
10
16.5015585
20
7.2228555
11
16.7111711
21
7.249857
0
LINE
8
layer0
10
16.7111711
20
7.249857
11
16.9530171
21
7.2707711
0
LINE
8
layer0
10
16.9530171
20
7.2707711
11
17.2244923
21
7.2828234
0
LINE
8
layer0
10
17.2244923
20
7.2828234
11
17.5280925
21
7.2835972
0
LINE
8
layer0
10
17.5280925
20
7.2835972
11
17.6917121
21
7.2789043
0
LINE
8
layer0
10
17.6917121
20
7.2789043
11
17.8619533
21
7.2704411
0
LINE
8
layer0
10
17.8619533
20
7.2704411
11
18.1765257
21
7.2456011
0
ARC
8
layer0
10
-0.0000068
20
-0.0000021
40
19.56745
50
19.409439
51
21.7334156
0
LINE
8
layer0
10
18.4553844
20
6.5025847
11
18.2348321
21
6.2769091
0
LINE
8
layer0
10
18.2348321
20
6.2769091
11
18.1121966
21
6.1585273
0
LINE
8
layer0
10
18.1121966
20
6.1585273
11
17.9920669
21
6.0473416
0
LINE
8
layer0
10
17.9920669
20
6.0473416
11
17.7629252
21
5.8481741
0
LINE
8
layer0
10
17.7629252
20
5.8481741
11
17.5505553
21
5.6786362
0
LINE
8
layer0
10
17.5505553
20
5.6786362
11
17.3546678
21
5.5352662
0
LINE
8
layer0
10
17.3546678
20
5.5352662
11
17.1790492
21
5.417688
0
LINE
8
layer0
10
17.1790492
20
5.417688
11
17.02488
21
5.3235406
0
LINE
8
layer0
10
17.02488
20
5.3235406
11
16.7909251
21
5.1924456
0
LINE
8
layer0
10
16.7909251
20
5.1924456
11
16.7480039
21
5.1615641
0
LINE
8
layer0
10
16.7480039
20
5.1615641
11
16.7137207
21
5.1313341
0
LINE
8
layer0
10
16.7137207
20
5.1313341
11
16.6880017
21
5.1020984
0
LINE
8
layer0
10
16.6880017
20
5.1020984
11
16.6708072
21
5.0741882
0
LINE
8
layer0
10
16.6708072
20
5.0741882
11
16.662065
21
5.0479779
0
LINE
8
layer0
10
16.662065
20
5.0479779
11
16.6616778
21
5.023783
0
LINE
8
layer0
10
16.6616778
20
5.023783
11
16.6870405
21
4.9372209
0
LINE
8
layer0
10
16.6870405
20
4.9372209
11
16.7749299
21
4.6295865
0
LINE
8
layer0
10
16.7749299
20
4.6295865
11
16.8572669
21
4.3204197
0
LINE
8
layer0
10
16.8572669
20
4.3204197
11
16.8798919
21
4.2331021
0
LINE
8
layer0
10
16.8798919
20
4.2331021
11
16.8926339
21
4.2125306
0
LINE
8
layer0
10
16.8926339
20
4.2125306
11
16.9135818
21
4.1945142
0
LINE
8
layer0
10
16.9135818
20
4.1945142
11
16.9426575
21
4.1793738
0
LINE
8
layer0
10
16.9426575
20
4.1793738
11
16.979731
21
4.1674677
0
LINE
8
layer0
10
16.979731
20
4.1674677
11
17.0246663
21
4.1591006
0
LINE
8
layer0
10
17.0246663
20
4.1591006
11
17.077351
21
4.1546046
0
LINE
8
layer0
10
17.077351
20
4.1546046
11
17.3454278
21
4.1620617
0
LINE
8
layer0
10
17.3454278
20
4.1620617
11
17.5260623
21
4.1603141
0
LINE
8
layer0
10
17.5260623
20
4.1603141
11
17.7371277
21
4.149454
0
LINE
8
layer0
10
17.7371277
20
4.149454
11
17.9788215
21
4.1268488
0
LINE
8
layer0
10
17.9788215
20
4.1268488
11
18.248086
21
4.0902335
0
LINE
8
layer0
10
18.248086
20
4.0902335
11
18.5469453
21
4.036785
0
LINE
8
layer0
10
18.5469453
20
4.036785
11
18.7070975
21
4.0029522
0
LINE
8
layer0
10
18.7070975
20
4.0029522
11
18.8730917
21
3.9642272
0
LINE
8
layer0
10
18.8730917
20
3.9642272
11
19.1781735
21
3.8836173
0
ARC
8
layer0
10
-0.0000071
20
-5e-7
40
19.56745
50
9.1237238
51
11.4477002
0
LINE
8
layer0
10
19.3198801
20
3.1027494
11
19.0625762
21
2.9200815
0
LINE
8
layer1
10
19.0625762
20
2.9200815
11
18.9207736
21
2.8254997
0
LINE
8
layer1
10
18.9207736
20
2.8254997
11
18.7827216
21
2.7375508
0
LINE
8
layer1
10
18.7827216
20
2.7375508
11
18.5216995
21
2.5824987
0
LINE
8
layer1
10
18.5216995
20
2.5824987
11
18.2824703
21
2.4536055
0
LINE
8
layer1
10
18.2824703
20
2.4536055
11
18.0641311
21
2.3475166
0
LINE
8
layer1
10
18.0641311
20
2.3475166
11
17.8703403
21
2.2631859
0
LINE
8
layer1
10
17.8703403
20
2.2631859
11
17.7018381
21
2.1980794
0
LINE
8
layer1
10
17.7018381
20
2.1980794
11
17.4482349
21
2.1108654
0
LINE
8
layer1
10
17.4482349
20
2.1108654
11
17.4004895
21
2.0881441
0
LINE
8
layer1
10
17.4004895
20
2.0881441
11
17.3613595
21
2.0645214
0
LINE
8
layer1
10
17.3613595
20
2.0645214
11
17.3308335
21
2.0403478
0
LINE
8
layer1
10
17.3308335
20
2.0403478
11
17.3089317
21
2.0159563
0
LINE
8
layer1
10
17.3089317
20
2.0159563
11
17.2956501
21
1.9917282
0
LINE
8
layer1
10
17.2956501
20
1.9917282
11
17.2909489
21
1.9679913
0
LINE
8
layer1
10
17.2909489
20
1.9679913
11
17.3004478
21
1.8782916
0
LINE
8
layer1
10
17.3004478
20
1.8782916
11
17.3319945
21
1.5599077
0
LINE
8
layer1
10
17.3319945
20
1.5599077
11
17.3578044
21
1.2410075
0
LINE
8
layer1
10
17.3578044
20
1.2410075
11
17.3644746
21
1.1510533
0
LINE
8
layer1
10
17.3644746
20
1.1510533
11
17.3733387
21
1.1285372
0
LINE
8
layer1
10
17.3733387
20
1.1285372
11
17.390733
21
1.10707
0
LINE
8
layer1
10
17.390733
20
1.10707
11
17.416638
21
1.0869813
0
LINE
8
layer1
10
17.416638
20
1.0869813
11
17.4509898
21
1.0686467
0
LINE
8
layer1
10
17.4509898
20
1.0686467
11
17.493709
21
1.0523906
0
LINE
8
layer1
10
17.493709
20
1.0523906
11
17.5447442
21
1.0385597
0
LINE
8
layer1
10
17.5447442
20
1.0385597
11
17.8098445
21
0.9980299
0
LINE
8
layer1
10
17.8098445
20
0.9980299
11
17.987264
21
0.9640569
0
LINE
8
layer1
10
17.987264
20
0.9640569
11
18.1929984
21
0.9156841
0
LINE
8
layer1
10
18.1929984
20
0.9156841
11
18.4267717
21
0.8502861
0
LINE
8
layer1
10
18.4267717
20
0.8502861
11
18.6851711
21
0.7661802
0
LINE
8
layer1
10
18.6851711
20
0.7661802
11
18.9696841
21
0.6602272
0
LINE
8
layer1
10
18.9696841
20
0.6602272
11
19.1212215
21
0.5983418
0
LINE
8
layer1
10
19.1212215
20
0.5983418
11
19.2776335
21
0.5305998
0
LINE
8
layer1
10
19.2776335
20
0.5305998
11
19.563419
21
0.3968109
0
ARC
8
layer1
10
-0.0000071
20
0
40
19.56745
50
358.838012
51
361.1619883
0
LINE
8
layer1
10
19.563419
20
-0.3968109
11
19.2776335
21
-0.5305998
0
LINE
8
layer1
10
19.2776335
20
-0.5305998
11
19.1212215
21
-0.5983418
0
LINE
8
layer1
10
19.1212215
20
-0.5983418
11
18.9696841
21
-0.6602272
0
LINE
8
layer1
10
18.9696841
20
-0.6602272
11
18.6851711
21
-0.7661802
0
LINE
8
layer1
10
18.6851711
20
-0.7661802
11
18.4267717
21
-0.8502861
0
LINE
8
layer1
10
18.4267717
20
-0.8502861
11
18.1929984
21
-0.9156841
0
LINE
8
layer1
10
18.1929984
20
-0.9156841
11
17.987264
21
-0.9640569
0
LINE
8
layer1
10
17.987264
20
-0.9640569
11
17.8098445
21
-0.9980299
0
LINE
8
layer1
10
17.8098445
20
-0.9980299
11
17.5447442
21
-1.0385597
0
LINE
8
layer1
10
17.5447442
20
-1.0385597
11
17.493709
21
-1.0523906
0
LINE
8
layer1
10
17.493709
20
-1.0523906
11
17.4509898
21
-1.0686467
0
LINE
8
layer1
10
17.4509898
20
-1.0686467
11
17.416638
21
-1.0869813
0
LINE
8
layer1
10
17.416638
20
-1.0869813
11
17.390733
21
-1.10707
0
LINE
8
layer1
10
17.390733
20
-1.10707
11
17.3733387
21
-1.1285372
0
LINE
8
layer1
10
17.3733387
20
-1.1285372
11
17.3644746
21
-1.1510533
0
LINE
8
layer1
10
17.3644746
20
-1.1510533
11
17.3578044
21
-1.2410075
0
LINE
8
layer1
10
17.3578044
20
-1.2410075
11
17.3319945
21
-1.5599077
0
LINE
8
layer1
10
17.3319945
20
-1.5599077
11
17.3004478
21
-1.8782916
0
LINE
8
layer1
10
17.3004478
20
-1.8782916
11
17.2909489
21
-1.9679913
0
LINE
8
layer1
10
17.2909489
20
-1.9679913
11
17.2956501
21
-1.9917282
0
LINE
8
layer1
10
17.2956501
20
-1.9917282
11
17.3089317
21
-2.0159563
0
LINE
8
layer1
10
17.3089317
20
-2.0159563
11
17.3308335
21
-2.0403478
0
LINE
8
layer1
10
17.3308335
20
-2.0403478
11
17.3613595
21
-2.0645214
0
LINE
8
layer1
10
17.3613595
20
-2.0645214
11
17.4004895
21
-2.0881441
0
LINE
8
layer1
10
17.4004895
20
-2.0881441
11
17.4482349
21
-2.1108654
0
LINE
8
layer1
10
17.4482349
20
-2.1108654
11
17.7018381
21
-2.1980794
0
LINE
8
layer1
10
17.7018381
20
-2.1980794
11
17.8703403
21
-2.2631859
0
LINE
8
layer1
10
17.8703403
20
-2.2631859
11
18.0641311
21
-2.3475166
0
LINE
8
layer1
10
18.0641311
20
-2.3475166
11
18.2824703
21
-2.4536055
0
LINE
8
layer1
10
18.2824703
20
-2.4536055
11
18.5216995
21
-2.5824987
0
LINE
8
layer1
10
18.5216995
20
-2.5824987
11
18.7827216
21
-2.7375508
0
LINE
8
layer1
10
18.7827216
20
-2.7375508
11
18.9207736
21
-2.8254997
0
LINE
8
layer1
10
18.9207736
20
-2.8254997
11
19.0625762
21
-2.9200815
0
LINE
8
layer1
10
19.0625762
20
-2.9200815
11
19.3198801
21
-3.1027494
0
ARC
8
layer1
10
-0.0000071
20
5e-7
40
19.56745
50
348.5522998
51
350.8762762
0
LINE
8
layer1
10
19.1781735
20
-3.8836173
11
18.8730917
21
-3.9642272
0
LINE
8
layer1
10
18.8730917
20
-3.9642272
11
18.7070975
21
-4.0029522
0
LINE
8
layer1
10
18.7070975
20
-4.0029522
11
18.5469453
21
-4.036785
0
LINE
8
layer1
10
18.5469453
20
-4.036785
11
18.248086
21
-4.0902335
0
LINE
8
layer1
10
18.248086
20
-4.0902335
11
17.9788215
21
-4.1268488
0
LINE
8
layer1
10
17.9788215
20
-4.1268488
11
17.7371277
21
-4.149454
0
LINE
8
layer1
10
17.7371277
20
-4.149454
11
17.5260623
21
-4.1603141
0
LINE
8
layer1
10
17.5260623
20
-4.1603141
11
17.3454278
21
-4.1620617
0
LINE
8
layer1
10
17.3454278
20
-4.1620617
11
17.077351
21
-4.1546046
0
LINE
8
layer1
10
17.077351
20
-4.1546046
11
17.0246663
21
-4.1591006
0
LINE
8
layer1
10
17.0246663
20
-4.1591006
11
16.979731
21
-4.1674677
0
LINE
8
layer1
10
16.979731
20
-4.1674677
11
16.9426575
21
-4.1793738
0
LINE
8
layer1
10
16.9426575
20
-4.1793738
11
16.9135818
21
-4.1945142
0
LINE
8
layer1
10
16.9135818
20
-4.1945142
11
16.8926339
21
-4.2125306
0
LINE
8
layer1
10
16.8926339
20
-4.2125306
11
16.8798919
21
-4.2331021
0
LINE
8
layer1
10
16.8798919
20
-4.2331021
11
16.8572669
21
-4.3204197
0
LINE
8
layer1
10
16.8572669
20
-4.3204197
11
16.7749299
21
-4.6295865
0
LINE
8
layer1
10
16.7749299
20
-4.6295865
11
16.6870405
21
-4.9372209
0
LINE
8
layer1
10
16.6870405
20
-4.9372209
11
16.6616778
21
-5.023783
0
LINE
8
layer1
10
16.6616778
20
-5.023783
11
16.662065
21
-5.0479779
0
LINE
8
layer1
10
16.662065
20
-5.0479779
11
16.6708072
21
-5.0741882
0
LINE
8
layer1
10
16.6708072
20
-5.0741882
11
16.6880017
21
-5.1020984
0
LINE
8
layer1
10
16.6880017
20
-5.1020984
11
16.7137207
21
-5.1313341
0
LINE
8
layer1
10
16.7137207
20
-5.1313341
11
16.7480039
21
-5.1615641
0
LINE
8
layer1
10
16.7480039
20
-5.1615641
11
16.7909251
21
-5.1924456
0
LINE
8
layer1
10
16.7909251
20
-5.1924456
11
17.02488
21
-5.3235406
0
LINE
8
layer1
10
17.02488
20
-5.3235406
11
17.1790492
21
-5.417688
0
LINE
8
layer1
10
17.1790492
20
-5.417688
11
17.3546678
21
-5.5352662
0
LINE
8
layer1
10
17.3546678
20
-5.5352662
11
17.5505553
21
-5.6786362
0
LINE
8
layer1
10
17.5505553
20
-5.6786362
11
17.7629252
21
-5.8481741
0
LINE
8
layer1
10
17.7629252
20
-5.8481741
11
17.9920669
21
-6.0473416
0
LINE
8
layer1
10
17.9920669
20
-6.0473416
11
18.1121966
21
-6.1585273
0
LINE
8
layer1
10
18.1121966
20
-6.1585273
11
18.2348321
21
-6.2769091
0
LINE
8
layer1
10
18.2348321
20
-6.2769091
11
18.4553844
21
-6.5025847
0
ARC
8
layer1
10
-0.0000068
20
0.0000021
40
19.56745
50
338.2665844
51
340.590561
0
LINE
8
layer1
10
18.1765257
20
-7.2456011
11
17.8619533
21
-7.2704411
0
LINE
8
layer1
10
17.8619533
20
-7.2704411
11
17.6917121
21
-7.2789043
0
LINE
8
layer1
10
17.6917121
20
-7.2789043
11
17.5280925
21
-7.2835972
0
LINE
8
layer1
10
17.5280925
20
-7.2835972
11
17.2244923
21
-7.2828234
0
LINE
8
layer1
10
17.2244923
20
-7.2828234
11
16.9530171
21
-7.2707711
0
LINE
8
layer1
10
16.9530171
20
-7.2707711
11
16.7111711
21
-7.249857
0
LINE
8
layer1
10
16.7111711
20
-7.249857
11
16.5015585
21
-7.2228555
0
LINE
8
layer1
10
16.5015585
20
-7.2228555
11
16.3235149
21
-7.1923214
0
LINE
8
layer1
10
16.3235149
20
-7.1923214
11
16.0610776
21
-7.1371172
0
LINE
8
layer1
10
16.0610776
20
-7.1371172
11
16.0084368
21
-7.1321337
0
LINE
8
layer1
10
16.0084368
20
-7.1321337
11
15.9627296
21
-7.1323428
0
LINE
8
layer1
10
15.9627296
20
-7.1323428
11
15.924126
21
-7.1374379
0
LINE
8
layer1
10
15.924126
20
-7.1374379
11
15.8928141
21
-7.1471433
0
LINE
8
layer1
10
15.8928141
20
-7.1471433
11
15.8689859
21
-7.1611297
0
LINE
8
layer1
10
15.8689859
20
-7.1611297
11
15.8527755
21
-7.1790955
0
LINE
8
layer1
10
15.8527755
20
-7.1790955
11
15.8149229
21
-7.26097
0
LINE
8
layer1
10
15.8149229
20
-7.26097
11
15.6787053
21
-7.5504665
0
LINE
8
layer1
10
15.6787053
20
-7.5504665
11
15.5372981
21
-7.8374639
0
LINE
8
layer1
10
15.5372981
20
-7.8374639
11
15.4968867
21
-7.9181062
0
LINE
8
layer1
10
15.4968867
20
-7.9181062
11
15.4929475
21
-7.9419814
0
LINE
8
layer1
10
15.4929475
20
-7.9419814
11
15.4968692
21
-7.9693315
0
LINE
8
layer1
10
15.4968692
20
-7.9693315
11
15.5088038
21
-7.9998633
0
LINE
8
layer1
10
15.5088038
20
-7.9998633
11
15.5288893
21
-8.0332216
0
LINE
8
layer1
10
15.5288893
20
-8.0332216
11
15.5572237
21
-8.0690872
0
LINE
8
layer1
10
15.5572237
20
-8.0690872
11
15.593941
21
-8.1071363
0
LINE
8
layer1
10
15.593941
20
-8.1071363
11
15.8007283
21
-8.2778988
0
LINE
8
layer1
10
15.8007283
20
-8.2778988
11
15.9356092
21
-8.3980612
0
LINE
8
layer1
10
15.9356092
20
-8.3980612
11
16.0874112
21
-8.5451078
0
LINE
8
layer1
10
16.0874112
20
-8.5451078
11
16.2545511
21
-8.7211508
0
LINE
8
layer1
10
16.2545511
20
-8.7211508
11
16.4332359
21
-8.9258843
0
LINE
8
layer1
10
16.4332359
20
-8.9258843
11
16.6231325
21
-9.162766
0
LINE
8
layer1
10
16.6231325
20
-9.162766
11
16.7214786
21
-9.2936149
0
LINE
8
layer1
10
16.7214786
20
-9.2936149
11
16.8210055
21
-9.4319915
0
LINE
8
layer1
10
16.8210055
20
-9.4319915
11
16.9977174
21
-9.6934216
0
ARC
8
layer1
10
-0.0000061
20
0.0000037
40
19.56745
50
327.9808689
51
330.3048453
0
LINE
8
layer1
10
16.5906694
20
-10.3747053
11
16.276717
21
-10.342977
0
LINE
8
layer1
10
16.276717
20
-10.342977
11
16.1077004
21
-10.3209065
0
LINE
8
layer1
10
16.1077004
20
-10.3209065
11
15.9458723
21
-10.2963085
0
LINE
8
layer1
10
15.9458723
20
-10.2963085
11
15.6472893
21
-10.2413373
0
LINE
8
layer1
10
15.6472893
20
-10.2413373
11
15.3823288
21
-10.181005
0
LINE
8
layer1
10
15.3823288
20
-10.181005
11
15.1481038
21
-10.1172436
0
LINE
8
layer1
10
15.1481038
20
-10.1172436
11
14.946681
21
-10.0532482
0
LINE
8
layer1
10
14.946681
20
-10.0532482
11
14.7769507
21
-9.991414
0
LINE
8
layer1
10
14.7769507
20
-9.991414
11
14.528588
21
-9.8902369
0
LINE
8
layer1
10
14.528588
20
-9.8902369
11
14.477683
21
-9.8759341
0
LINE
8
layer1
10
14.477683
20
-9.8759341
11
14.432673
21
-9.8679785
0
LINE
8
layer1
10
14.432673
20
-9.8679785
11
14.39378
21
-9.8660988
0
LINE
8
layer1
10
14.39378
20
-9.8660988
11
14.3612383
21
-9.8700573
0
LINE
8
layer1
10
14.3612383
20
-9.8700573
11
14.3352957
21
-9.8795643
0
LINE
8
layer1
10
14.3352957
20
-9.8795643
11
14.3161379
21
-9.8943468
0
LINE
8
layer1
10
14.3161379
20
-9.8943468
11
14.2642744
21
-9.9681467
0
LINE
8
layer1
10
14.2642744
20
-9.9681467
11
14.0785542
21
-10.2286683
0
LINE
8
layer1
10
14.0785542
20
-10.2286683
11
13.8881741
21
-10.4858043
0
LINE
8
layer1
10
13.8881741
20
-10.4858043
11
13.8340129
21
-10.5579349
0
LINE
8
layer1
10
13.8340129
20
-10.5579349
11
13.825874
21
-10.5807231
0
LINE
8
layer1
10
13.825874
20
-10.5807231
11
13.824849
21
-10.6083339
0
LINE
8
layer1
10
13.824849
20
-10.6083339
11
13.8311402
21
-10.6405061
0
LINE
8
layer1
10
13.8311402
20
-10.6405061
11
13.8449465
21
-10.6769146
0
LINE
8
layer1
10
13.8449465
20
-10.6769146
11
13.8664216
21
-10.7172633
0
LINE
8
layer1
10
13.8664216
20
-10.7172633
11
13.8957549
21
-10.761257
0
LINE
8
layer1
10
13.8957549
20
-10.761257
11
14.0687282
21
-10.9661985
0
LINE
8
layer1
10
14.0687282
20
-10.9661985
11
14.1799857
21
-11.1085138
0
LINE
8
layer1
10
14.1799857
20
-11.1085138
11
14.303092
21
-11.2803026
0
LINE
8
layer1
10
14.303092
20
-11.2803026
11
14.4361121
21
-11.4833605
0
LINE
8
layer1
10
14.4361121
20
-11.4833605
11
14.5753689
21
-11.7167092
0
LINE
8
layer1
10
14.5753689
20
-11.7167092
11
14.7199169
21
-11.9836915
0
LINE
8
layer1
10
14.7199169
20
-11.9836915
11
14.7933185
21
-12.1299979
0
LINE
8
layer1
10
14.7933185
20
-12.1299979
11
14.8665379
21
-12.2839221
0
LINE
8
layer1
10
14.8665379
20
-12.2839221
11
14.9937298
21
-12.572704
0
ARC
8
layer1
10
-0.0000053
20
0.0000048
40
19.56745
50
317.6951541
51
320.0191307
0
LINE
8
layer1
10
14.4715754
20
-13.1703579
11
14.1683336
21
-13.0830812
0
LINE
8
layer1
10
14.1683336
20
-13.0830812
11
14.005974
21
-13.0311862
0
LINE
8
layer1
10
14.005974
20
-13.0311862
11
13.8511387
21
-12.9780881
0
LINE
8
layer1
10
13.8511387
20
-12.9780881
11
13.5671696
21
-12.8706862
0
LINE
8
layer1
10
13.5671696
20
-12.8706862
11
13.3172398
21
-12.7640129
0
LINE
8
layer1
10
13.3172398
20
-12.7640129
11
13.0981639
21
-12.6594537
0
LINE
8
layer1
10
13.0981639
20
-12.6594537
11
12.9114049
21
-12.5605213
0
LINE
8
layer1
10
12.9114049
20
-12.5605213
11
12.7554432
21
-12.4693742
0
LINE
8
layer1
10
12.7554432
20
-12.4693742
11
12.5291376
21
-12.3254763
0
LINE
8
layer1
10
12.5291376
20
-12.3254763
11
12.4816045
21
-12.3023139
0
LINE
8
layer1
10
12.4816045
20
-12.3023139
11
12.4387384
21
-12.2864494
0
LINE
8
layer1
10
12.4387384
20
-12.2864494
11
12.4008061
21
-12.2776552
0
LINE
8
layer1
10
12.4008061
20
-12.2776552
11
12.3680805
21
-12.2757396
0
LINE
8
layer1
10
12.3680805
20
-12.2757396
11
12.3408573
21
-12.2804615
0
LINE
8
layer1
10
12.3408573
20
-12.2804615
11
12.3193678
21
-12.2915857
0
LINE
8
layer1
10
12.3193678
20
-12.2915857
11
12.2551603
21
-12.354939
0
LINE
8
layer1
10
12.2551603
20
-12.354939
11
12.0259068
21
-12.5781124
0
LINE
8
layer1
10
12.0259068
20
-12.5781124
11
11.7926727
21
-12.7971224
0
LINE
8
layer1
10
11.7926727
20
-12.7971224
11
11.7265026
21
-12.858423
0
LINE
8
layer1
10
11.7265026
20
-12.858423
11
11.7144254
21
-12.8793917
0
LINE
8
layer1
10
11.7144254
20
-12.8793917
11
11.7084869
21
-12.9063757
0
LINE
8
layer1
10
11.7084869
20
-12.9063757
11
11.7089324
21
-12.9391542
0
LINE
8
layer1
10
11.7089324
20
-12.9391542
11
11.7160158
21
-12.9774429
0
LINE
8
layer1
10
11.7160158
20
-12.9774429
11
11.7299412
21
-13.0209776
0
LINE
8
layer1
10
11.7299412
20
-13.0209776
11
11.7509477
21
-13.069502
0
LINE
8
layer1
10
11.7509477
20
-13.069502
11
11.8845476
21
-13.3020356
0
LINE
8
layer1
10
11.8845476
20
-13.3020356
11
11.9686057
21
-13.4619296
0
LINE
8
layer1
10
11.9686057
20
-13.4619296
11
12.0590596
21
-13.6529392
0
LINE
8
layer1
10
12.0590596
20
-13.6529392
11
12.1536847
21
-13.8764855
0
LINE
8
layer1
10
12.1536847
20
-13.8764855
11
12.2490375
21
-14.1309495
0
LINE
8
layer1
10
12.2490375
20
-14.1309495
11
12.343591
21
-14.4194513
0
LINE
8
layer1
10
12.343591
20
-14.4194513
11
12.3896891
21
-14.5765129
0
LINE
8
layer1
10
12.3896891
20
-14.5765129
11
12.4342475
21
-14.7410372
0
LINE
8
layer1
10
12.4342475
20
-14.7410372
11
12.5078315
21
-15.0478893
0
ARC
8
layer1
10
-0.0000045
20
0.0000055
40
19.56745
50
307.4094406
51
309.7334172
0
LINE
8
layer1
10
11.887353
20
-15.5427044
11
11.6045683
21
-15.4026843
0
LINE
8
layer1
10
11.6045683
20
-15.4026843
11
11.4540841
21
-15.322633
0
LINE
8
layer1
10
11.4540841
20
-15.322633
11
11.3112181
21
-15.2427412
0
LINE
8
layer1
10
11.3112181
20
-15.2427412
11
11.0509898
21
-15.0863606
0
LINE
8
layer1
10
11.0509898
20
-15.0863606
11
10.8241238
21
-14.9367749
0
LINE
8
layer1
10
10.8241238
20
-14.9367749
11
10.6272383
21
-14.7947786
0
LINE
8
layer1
10
10.6272383
20
-14.7947786
11
10.4611456
21
-14.664089
0
LINE
8
layer1
10
10.4611456
20
-14.664089
11
10.3239652
21
-14.5465586
0
LINE
8
layer1
10
10.3239652
20
-14.5465586
11
10.1269904
21
-14.3645647
0
LINE
8
layer1
10
10.1269904
20
-14.3645647
11
10.084357
21
-14.3332872
0
LINE
8
layer1
10
10.084357
20
-14.3332872
11
10.0450125
21
-14.3100236
0
LINE
8
layer1
10
10.0450125
20
-14.3100236
11
10.00926
21
-14.2945977
0
LINE
8
layer1
10
10.00926
20
-14.2945977
11
9.9774025
21
-14.2868694
0
LINE
8
layer1
10
9.9774025
20
-14.2868694
11
9.9497735
21
-14.2866546
0
LINE
8
layer1
10
9.9497735
20
-14.2866546
11
9.9266431
21
-14.293763
0
LINE
8
layer1
10
9.9266431
20
-14.293763
11
9.8521553
21
-14.3446334
0
LINE
8
layer1
10
9.8521553
20
-14.3446334
11
9.5867368
21
-14.5232855
0
LINE
8
layer1
10
9.5867368
20
-14.5232855
11
9.3181452
21
-14.6971304
0
LINE
8
layer1
10
9.3181452
20
-14.6971304
11
9.2420928
21
-14.7456307
0
LINE
8
layer1
10
9.2420928
20
-14.7456307
11
9.2264656
21
-14.764106
0
LINE
8
layer1
10
9.2264656
20
-14.764106
11
9.2158043
21
-14.789596
0
LINE
8
layer1
10
9.2158043
20
-14.789596
11
9.2103898
21
-14.8219273
0
LINE
8
layer1
10
9.2103898
20
-14.8219273
11
9.2105227
21
-14.8608655
0
LINE
8
layer1
10
9.2105227
20
-14.8608655
11
9.2164509
21
-14.906187
0
LINE
8
layer1
10
9.2164509
20
-14.906187
11
9.2284555
21
-14.9576825
0
LINE
8
layer1
10
9.2284555
20
-14.9576825
11
9.3183879
21
-15.2103344
0
LINE
8
layer1
10
9.3183879
20
-15.2103344
11
9.372545
21
-15.382668
0
LINE
8
layer1
10
9.372545
20
-15.382668
11
9.4274391
21
-15.5867591
0
LINE
8
layer1
10
9.4274391
20
-15.5867591
11
9.4806278
21
-15.8236089
0
LINE
8
layer1
10
9.4806278
20
-15.8236089
11
9.529012
21
-16.0910094
0
LINE
8
layer1
10
9.529012
20
-16.0910094
11
9.570532
21
-16.391758
0
LINE
8
layer1
10
9.570532
20
-16.391758
11
9.5878448
21
-16.5545267
0
LINE
8
layer1
10
9.5878448
20
-16.5545267
11
9.6023102
21
-16.7243633
0
LINE
8
layer1
10
9.6023102
20
-16.7243633
11
9.6199211
21
-17.0394231
0
ARC
8
layer1
10
-0.0000035
20
0.0000062
40
19.56745
50
297.1237264
51
299.447703
0
LINE
8
layer1
10
8.9210613
20
-17.4154956
11
8.6678226
21
-17.2272325
0
LINE
8
layer1
10
8.6678226
20
-17.2272325
11
8.5340505
21
-17.1215976
0
LINE
8
layer1
10
8.5340505
20
-17.1215976
11
8.4077456
21
-17.01748
0
LINE
8
layer1
10
8.4077456
20
-17.01748
11
8.1796222
21
-16.817147
0
LINE
8
layer1
10
8.1796222
20
-16.817147
11
7.9831115
21
-16.6294568
0
LINE
8
layer1
10
7.9831115
20
-16.6294568
11
7.8147445
21
-16.4545871
0
LINE
8
layer1
10
7.8147445
20
-16.4545871
11
7.6746565
21
-16.2963407
0
LINE
8
layer1
10
7.6746565
20
-16.2963407
11
7.5606665
21
-16.1562046
0
LINE
8
layer1
10
7.5606665
20
-16.1562046
11
7.3993535
21
-15.9419642
0
LINE
8
layer1
10
7.3993535
20
-15.9419642
11
7.36299
21
-15.9035769
0
LINE
8
layer1
10
7.36299
20
-15.9035769
11
7.3284317
21
-15.8736618
0
LINE
8
layer1
10
7.3284317
20
-15.8736618
11
7.2960081
21
-15.8521
0
LINE
8
layer1
10
7.2960081
20
-15.8521
11
7.2660425
21
-15.8388076
0
LINE
8
layer1
10
7.2660425
20
-15.8388076
11
7.2388959
21
-15.8336628
0
LINE
8
layer1
10
7.2388959
20
-15.8336628
11
7.214868
21
-15.8365269
0
LINE
8
layer1
10
7.214868
20
-15.8365269
11
7.1324939
21
-15.8732795
0
LINE
8
layer1
10
7.1324939
20
-15.8732795
11
6.8394413
21
-16.0016683
0
LINE
8
layer1
10
6.8394413
20
-16.0016683
11
6.5441248
21
-16.1247605
0
LINE
8
layer1
10
6.5441248
20
-16.1247605
11
6.4606345
21
-16.1589017
0
LINE
8
layer1
10
6.4606345
20
-16.1589017
11
6.4419596
21
-16.1742898
0
LINE
8
layer1
10
6.4419596
20
-16.1742898
11
6.4269182
21
-16.1974665
0
LINE
8
layer1
10
6.4269182
20
-16.1974665
11
6.4158177
21
-16.2283114
0
LINE
8
layer1
10
6.4158177
20
-16.2283114
11
6.4089958
21
-16.2666476
0
LINE
8
layer1
10
6.4089958
20
-16.2666476
11
6.4067363
21
-16.3122993
0
LINE
8
layer1
10
6.4067363
20
-16.3122993
11
6.4093531
21
-16.3651107
0
LINE
8
layer1
10
6.4093531
20
-16.3651107
11
6.4527275
21
-16.6297604
0
LINE
8
layer1
10
6.4527275
20
-16.6297604
11
6.4752429
21
-16.8089947
0
LINE
8
layer1
10
6.4752429
20
-16.8089947
11
6.492813
21
-17.0196077
0
LINE
8
layer1
10
6.492813
20
-17.0196077
11
6.5028557
21
-17.2621485
0
LINE
8
layer1
10
6.5028557
20
-17.2621485
11
6.5027161
21
-17.5338911
0
LINE
8
layer1
10
6.5027161
20
-17.5338911
11
6.4898682
21
-17.8372202
0
LINE
8
layer1
10
6.4898682
20
-17.8372202
11
6.4778393
21
-18.0004645
0
LINE
8
layer1
10
6.4778393
20
-18.0004645
11
6.4617467
21
-18.1701546
0
LINE
8
layer1
10
6.4617467
20
-18.1701546
11
6.4228185
21
-18.4832958
0
ARC
8
layer1
10
-0.0000023
20
0.0000067
40
19.56745
50
286.8380122
51
289.1619886
0
LINE
8
layer1
10
5.6680394
20
-18.7285384
11
5.452486
21
-18.4980833
0
LINE
8
layer1
10
5.452486
20
-18.4980833
11
5.3397255
21
-18.3702601
0
LINE
8
layer1
10
5.3397255
20
-18.3702601
11
5.2340413
21
-18.2452631
0
LINE
8
layer1
10
5.2340413
20
-18.2452631
11
5.0453547
21
-18.0074165
0
LINE
8
layer1
10
5.0453547
20
-18.0074165
11
4.8855155
21
-17.7876542
0
LINE
8
layer1
10
4.8855155
20
-17.7876542
11
4.7510784
21
-17.5855316
0
LINE
8
layer1
10
4.7510784
20
-17.5855316
11
4.6414976
21
-17.4048146
0
LINE
8
layer1
10
4.6414976
20
-17.4048146
11
4.5543617
21
-17.2465769
0
LINE
8
layer1
10
4.5543617
20
-17.2465769
11
4.4338952
21
-17.0069759
0
LINE
8
layer1
10
4.4338952
20
-17.0069759
11
4.4049704
21
-16.9627125
0
LINE
8
layer1
10
4.4049704
20
-16.9627125
11
4.376309
21
-16.9271076
0
LINE
8
layer1
10
4.376309
20
-16.9271076
11
4.3482565
21
-16.9001028
0
LINE
8
layer1
10
4.3482565
20
-16.9001028
11
4.3211459
21
-16.8816734
0
LINE
8
layer1
10
4.3211459
20
-16.8816734
11
4.2953542
21
-16.8717641
0
LINE
8
layer1
10
4.2953542
20
-16.8717641
11
4.271201
21
-16.8702918
0
LINE
8
layer1
10
4.271201
20
-16.8702918
11
4.1835882
21
-16.8917454
0
LINE
8
layer1
10
4.1835882
20
-16.8917454
11
3.8723204
21
-16.9657443
0
LINE
8
layer1
10
3.8723204
20
-16.9657443
11
3.5597709
21
-17.0341276
0
LINE
8
layer1
10
3.5597709
20
-17.0341276
11
3.4715261
21
-17.0528124
0
LINE
8
layer1
10
3.4715261
20
-17.0528124
11
3.4504037
21
-17.0646186
0
LINE
8
layer1
10
3.4504037
20
-17.0646186
11
3.4314657
21
-17.0847371
0
LINE
8
layer1
10
3.4314657
20
-17.0847371
11
3.415036
21
-17.1131042
0
LINE
8
layer1
10
3.415036
20
-17.1131042
11
3.4014786
21
-17.1496062
0
LINE
8
layer1
10
3.4014786
20
-17.1496062
11
3.3911039
21
-17.1941209
0
LINE
8
layer1
10
3.3911039
20
-17.1941209
11
3.3842488
21
-17.2465508
0
LINE
8
layer1
10
3.3842488
20
-17.2465508
11
3.3796711
21
-17.5146923
0
LINE
8
layer1
10
3.3796711
20
-17.5146923
11
3.3698212
21
-17.6950665
0
LINE
8
layer1
10
3.3698212
20
-17.6950665
11
3.3495025
21
-17.9054321
0
LINE
8
layer1
10
3.3495025
20
-17.9054321
11
3.3160765
21
-18.1458684
0
LINE
8
layer1
10
3.3160765
20
-18.1458684
11
3.2674177
21
-18.413219
0
LINE
8
layer1
10
3.2674177
20
-18.413219
11
3.2006147
21
-18.7093794
0
LINE
8
layer1
10
3.2006147
20
-18.7093794
11
3.1596307
21
-18.8678525
0
LINE
8
layer1
10
3.1596307
20
-18.8678525
11
3.1134974
21
-19.0319422
0
LINE
8
layer1
10
3.1134974
20
-19.0319422
11
3.0192813
21
-19.3331001
0
ARC
8
layer1
10
1e-7
20
0.0000073
40
19.56745
50
276.5522944
51
278.8762709
0
LINE
8
layer1
10
2.232842
20
-19.4396306
11
2.061902
21
-19.1743905
0
LINE
8
layer1
10
2.061902
20
-19.1743905
11
1.9737773
21
-19.0284872
0
LINE
8
layer1
10
1.9737773
20
-19.0284872
11
1.8921106
21
-18.8866284
0
LINE
8
layer1
10
1.8921106
20
-18.8866284
11
1.7489254
21
-18.6189128
0
LINE
8
layer1
10
1.7489254
20
-18.6189128
11
1.630895
21
-18.3741417
0
LINE
8
layer1
10
1.630895
20
-18.3741417
11
1.5347087
21
-18.1512627
0
LINE
8
layer1
10
1.5347087
20
-18.1512627
11
1.4591572
21
-17.9538835
0
LINE
8
layer1
10
1.4591572
20
-17.9538835
11
1.4016761
21
-17.78263
0
LINE
8
layer1
10
1.4016761
20
-17.78263
11
1.3259278
21
-17.5253694
0
LINE
8
layer1
10
1.3259278
20
-17.5253694
11
1.3053715
21
-17.4766526
0
LINE
8
layer1
10
1.3053715
20
-17.4766526
11
1.2835281
21
-17.4365021
0
LINE
8
layer1
10
1.2835281
20
-17.4365021
11
1.2607484
21
-17.4049223
0
LINE
8
layer1
10
1.2607484
20
-17.4049223
11
1.2373641
21
-17.3819483
0
LINE
8
layer1
10
1.2373641
20
-17.3819483
11
1.2137563
21
-17.367593
0
LINE
8
layer1
10
1.2137563
20
-17.367593
11
1.1902541
21
-17.3618317
0
LINE
8
layer1
10
1.1902541
20
-17.3618317
11
1.1002187
21
-17.3672966
0
LINE
8
layer1
10
1.1002187
20
-17.3672966
11
0.78074
21
-17.3845273
0
LINE
8
layer1
10
0.78074
20
-17.3845273
11
0.461003
21
-17.3960038
0
LINE
8
layer1
10
0.461003
20
-17.3960038
11
0.3708401
21
-17.3986316
0
LINE
8
layer1
10
0.3708401
20
-17.3986316
11
0.347949
21
-17.4064765
0
LINE
8
layer1
10
0.347949
20
-17.4064765
11
0.325723
21
-17.4228902
0
LINE
8
layer1
10
0.325723
20
-17.4228902
11
0.3044922
21
-17.4478678
0
LINE
8
layer1
10
0.3044922
20
-17.4478678
11
0.284635
21
-17.4813625
0
LINE
8
layer1
10
0.284635
20
-17.4813625
11
0.2664786
21
-17.5233093
0
LINE
8
layer1
10
0.2664786
20
-17.5233093
11
0.2503719
21
-17.5736726
0
LINE
8
layer1
10
0.2503719
20
-17.5736726
11
0.1979893
21
-17.8366876
0
LINE
8
layer1
10
0.1979893
20
-17.8366876
11
0.1560906
21
-18.0124043
0
LINE
8
layer1
10
0.1560906
20
-18.0124043
11
0.0985363
21
-18.2157612
0
LINE
8
layer1
10
0.0985363
20
-18.2157612
11
0.0227159
21
-18.4463651
0
LINE
8
layer1
10
0.0227159
20
-18.4463651
11
-0.0728983
21
-18.700731
0
LINE
8
layer1
10
-0.0728983
20
-18.700731
11
-0.1915092
21
-18.9802038
0
LINE
8
layer1
10
-0.1915092
20
-18.9802038
11
-0.260131
21
-19.1288122
0
LINE
8
layer1
10
-0.260131
20
-19.1288122
11
-0.3348223
21
-19.2820275
0
LINE
8
layer1
10
-0.3348223
20
-19.2820275
11
-0.4812982
21
-19.5615228
0
ARC
8
layer1
10
2e-7
20
0.0000071
40
19.56745
50
266.2665835
51
268.5905599
0
LINE
8
layer1
10
-1.2741208
20
-19.5259171
11
-1.3949533
21
-19.2344169
0
LINE
8
layer1
10
-1.3949533
20
-19.2344169
11
-1.4556097
21
-19.0751232
0
LINE
8
layer1
10
-1.4556097
20
-19.0751232
11
-1.5106341
21
-18.9209619
0
LINE
8
layer1
10
-1.5106341
20
-18.9209619
11
-1.6037158
21
-18.6319819
0
LINE
8
layer1
10
-1.6037158
20
-18.6319819
11
-1.6761439
21
-18.3700692
0
LINE
8
layer1
10
-1.6761439
20
-18.3700692
11
-1.7309878
21
-18.1335972
0
LINE
8
layer1
10
-1.7309878
20
-18.1335972
11
-1.7700817
21
-17.9258998
0
LINE
8
layer1
10
-1.7700817
20
-17.9258998
11
-1.7960606
21
-17.7471347
0
LINE
8
layer1
10
-1.7960606
20
-17.7471347
11
-1.8246559
21
-17.480483
0
LINE
8
layer1
10
-1.8246559
20
-17.480483
11
-1.8361832
21
-17.4288786
0
LINE
8
layer1
10
-1.8361832
20
-17.4288786
11
-1.8505064
21
-17.3854732
0
LINE
8
layer1
10
-1.8505064
20
-17.3854732
11
-1.8672813
21
-17.3503334
0
LINE
8
layer1
10
-1.8672813
20
-17.3503334
11
-1.8861876
21
-17.3235532
0
LINE
8
layer1
10
-1.8861876
20
-17.3235532
11
-1.9068528
21
-17.3052132
0
LINE
8
layer1
10
-1.9068528
20
-17.3052132
11
-1.9289485
21
-17.295348
0
LINE
8
layer1
10
-1.9289485
20
-17.295348
11
-2.0185129
21
-17.2846486
0
LINE
8
layer1
10
-2.0185129
20
-17.2846486
11
-2.335934
21
-17.2445573
0
LINE
8
layer1
10
-2.335934
20
-17.2445573
11
-2.652582
21
-17.1987581
0
LINE
8
layer1
10
-2.652582
20
-17.1987581
11
-2.7417651
21
-17.1852445
0
LINE
8
layer1
10
-2.7417651
20
-17.1852445
11
-2.7656891
21
-17.1888759
0
LINE
8
layer1
10
-2.7656891
20
-17.1888759
11
-2.7904887
21
-17.2010573
0
LINE
8
layer1
10
-2.7904887
20
-17.2010573
11
-2.8158382
21
-17.2218426
0
LINE
8
layer1
10
-2.8158382
20
-17.2218426
11
-2.841357
21
-17.2512533
0
LINE
8
layer1
10
-2.841357
20
-17.2512533
11
-2.8667115
21
-17.2892841
0
LINE
8
layer1
10
-2.8667115
20
-17.2892841
11
-2.891552
21
-17.3359621
0
LINE
8
layer1
10
-2.891552
20
-17.3359621
11
-2.990056
21
-17.5853971
0
LINE
8
layer1
10
-2.990056
20
-17.5853971
11
-3.0626568
21
-17.7508086
0
LINE
8
layer1
10
-3.0626568
20
-17.7508086
11
-3.155597
21
-17.9406208
0
LINE
8
layer1
10
-3.155597
20
-17.9406208
11
-3.2713748
21
-18.1539805
0
LINE
8
layer1
10
-3.2713748
20
-18.1539805
11
-3.4108712
21
-18.387186
0
LINE
8
layer1
10
-3.4108712
20
-18.387186
11
-3.5774778
21
-18.6409889
0
LINE
8
layer1
10
-3.5774778
20
-18.6409889
11
-3.6715319
21
-18.7749561
0
LINE
8
layer1
10
-3.6715319
20
-18.7749561
11
-3.7723805
21
-18.9123725
0
LINE
8
layer1
10
-3.7723805
20
-18.9123725
11
-3.9664083
21
-19.1612219
0
ARC
8
layer1
10
0.0000026
20
0.0000068
40
19.56745
50
255.9808657
51
258.3048423
0
LINE
8
layer1
10
-4.7401323
20
-18.9846245
11
-4.8069735
21
-18.6762334
0
LINE
8
layer1
10
-4.8069735
20
-18.6762334
11
-4.8382122
21
-18.5086689
0
LINE
8
layer1
10
-4.8382122
20
-18.5086689
11
-4.8648258
21
-18.3471601
0
LINE
8
layer1
10
-4.8648258
20
-18.3471601
11
-4.9048122
21
-18.0462037
0
LINE
8
layer1
10
-4.9048122
20
-18.0462037
11
-4.9293101
21
-17.7755676
0
LINE
8
layer1
10
-4.9293101
20
-17.7755676
11
-4.941049
21
-17.533103
0
LINE
8
layer1
10
-4.941049
20
-17.533103
11
-4.9424288
21
-17.3217629
0
LINE
8
layer1
10
-4.9424288
20
-17.3217629
11
-4.9360705
21
-17.1412319
0
LINE
8
layer1
10
-4.9360705
20
-17.1412319
11
-4.9165937
21
-16.8737596
0
LINE
8
layer1
10
-4.9165937
20
-16.8737596
11
-4.9187214
21
-16.8209262
0
LINE
8
layer1
10
-4.9187214
20
-16.8209262
11
-4.9250641
21
-16.7756608
0
LINE
8
layer1
10
-4.9250641
20
-16.7756608
11
-4.9352949
21
-16.7380905
0
LINE
8
layer1
10
-4.9352949
20
-16.7380905
11
-4.9491156
21
-16.7083647
0
LINE
8
layer1
10
-4.9491156
20
-16.7083647
11
-4.966174
21
-16.6866296
0
LINE
8
layer1
10
-4.966174
20
-16.6866296
11
-4.9861531
21
-16.6729776
0
LINE
8
layer1
10
-4.9861531
20
-16.6729776
11
-5.0723677
21
-16.6464578
0
LINE
8
layer1
10
-5.0723677
20
-16.6464578
11
-5.3775292
21
-16.550333
0
LINE
8
layer1
10
-5.3775292
20
-16.550333
11
-5.6809107
21
-16.4487302
0
LINE
8
layer1
10
-5.6809107
20
-16.4487302
11
-5.7662477
21
-16.4195095
0
LINE
8
layer1
10
-5.7662477
20
-16.4195095
11
-5.7904357
21
-16.4188108
0
LINE
8
layer1
10
-5.7904357
20
-16.4188108
11
-5.8170117
21
-16.4263682
0
LINE
8
layer1
10
-5.8170117
20
-16.4263682
11
-5.8456652
21
-16.4422932
0
LINE
8
layer1
10
-5.8456652
20
-16.4422932
11
-5.8760255
21
-16.4666747
0
LINE
8
layer1
10
-5.8760255
20
-16.4666747
11
-5.9077631
21
-16.4995671
0
LINE
8
layer1
10
-5.9077631
20
-16.4995671
11
-5.9405392
21
-16.5410595
0
LINE
8
layer1
10
-5.9405392
20
-16.5410595
11
-6.0819985
21
-16.7688974
0
LINE
8
layer1
10
-6.0819985
20
-16.7688974
11
-6.1829679
21
-16.9186873
0
LINE
8
layer1
10
-6.1829679
20
-16.9186873
11
-6.3083068
21
-17.088854
0
LINE
8
layer1
10
-6.3083068
20
-17.088854
11
-6.4603209
21
-17.2781121
0
LINE
8
layer1
10
-6.4603209
20
-17.2781121
11
-6.639216
21
-17.4826618
0
LINE
8
layer1
10
-6.639216
20
-17.4826618
11
-6.8484634
21
-17.7026372
0
LINE
8
layer1
10
-6.8484634
20
-17.7026372
11
-6.9649267
21
-17.8176575
0
LINE
8
layer1
10
-6.9649267
20
-17.8176575
11
-7.0886913
21
-17.9348584
0
LINE
8
layer1
10
-7.0886913
20
-17.9348584
11
-7.3240347
21
-18.1450637
0
ARC
8
layer1
10
0.0000029
20
0.0000065
40
19.56745
50
245.6951545
51
248.0191309
0
LINE
8
layer1
10
-8.053792
20
-17.8331505
11
-8.0644937
21
-17.5177804
0
LINE
8
layer1
10
-8.0644937
20
-17.5177804
11
-8.0653106
21
-17.3473309
0
LINE
8
layer1
10
-8.0653106
20
-17.3473309
11
-8.062658
21
-17.1836655
0
LINE
8
layer1
10
-8.062658
20
-17.1836655
11
-8.048264
21
-16.8804058
0
LINE
8
layer1
10
-8.048264
20
-16.8804058
11
-8.0240442
21
-16.6097446
0
LINE
8
layer1
10
-8.0240442
20
-16.6097446
11
-7.9923007
21
-16.3690805
0
LINE
8
layer1
10
-7.9923007
20
-16.3690805
11
-7.9559221
21
-16.1608903
0
LINE
8
layer1
10
-7.9559221
20
-16.1608903
11
-7.9174309
21
-15.9843959
0
LINE
8
layer1
10
-7.9174309
20
-15.9843959
11
-7.8505081
21
-15.7246996
0
LINE
8
layer1
10
-7.8505081
20
-15.7246996
11
-7.8431679
21
-15.6723354
0
LINE
8
layer1
10
-7.8431679
20
-15.6723354
11
-7.8413262
21
-15.6266649
0
LINE
8
layer1
10
-7.8413262
20
-15.6266649
11
-7.8446842
21
-15.5878715
0
LINE
8
layer1
10
-7.8446842
20
-15.5878715
11
-7.852975
21
-15.5561557
0
LINE
8
layer1
10
-7.852975
20
-15.5561557
11
-7.8658783
21
-15.531724
0
LINE
8
layer1
10
-7.8658783
20
-15.531724
11
-7.8830987
21
-15.5147239
0
LINE
8
layer1
10
-7.8830987
20
-15.5147239
11
-7.9631925
21
-15.4732362
0
LINE
8
layer1
10
-7.9631925
20
-15.4732362
11
-8.2462862
21
-15.3241675
0
LINE
8
layer1
10
-8.2462862
20
-15.3241675
11
-8.5266503
21
-15.1700266
0
LINE
8
layer1
10
-8.5266503
20
-15.1700266
11
-8.6053984
21
-15.1260379
0
LINE
8
layer1
10
-8.6053984
20
-15.1260379
11
-8.6290728
21
-15.1210315
0
LINE
8
layer1
10
-8.6290728
20
-15.1210315
11
-8.6565713
21
-15.1237221
0
LINE
8
layer1
10
-8.6565713
20
-15.1237221
11
-8.6876078
21
-15.134275
0
LINE
8
layer1
10
-8.6876078
20
-15.134275
11
-8.7218336
21
-15.1528436
0
LINE
8
layer1
10
-8.7218336
20
-15.1528436
11
-8.7589344
21
-15.1795404
0
LINE
8
layer1
10
-8.7589344
20
-15.1795404
11
-8.7985925
21
-15.2145137
0
LINE
8
layer1
10
-8.7985925
20
-15.2145137
11
-8.9784605
21
-15.4134315
0
LINE
8
layer1
10
-8.9784605
20
-15.4134315
11
-9.1045533
21
-15.5427855
0
LINE
8
layer1
10
-9.1045533
20
-15.5427855
11
-9.2582624
21
-15.6878374
0
LINE
8
layer1
10
-9.2582624
20
-15.6878374
11
-9.4416269
21
-15.8469109
0
LINE
8
layer1
10
-9.4416269
20
-15.8469109
11
-9.6541708
21
-16.0162305
0
LINE
8
layer1
10
-9.6541708
20
-16.0162305
11
-9.8993337
21
-16.1953081
0
LINE
8
layer1
10
-9.8993337
20
-16.1953081
11
-10.0344631
21
-16.2876847
0
LINE
8
layer1
10
-10.0344631
20
-16.2876847
11
-10.1771657
21
-16.3809031
0
LINE
8
layer1
10
-10.1771657
20
-16.3809031
11
-10.4462607
21
-16.5457081
0
ARC
8
layer1
10
0.0000033
20
0.0000064
40
19.56745
50
235.4094426
51
237.7334191
0
LINE
8
layer1
10
-11.1085962
20
-16.1085043
11
-11.0628145
21
-15.7962915
0
LINE
8
layer1
10
-11.0628145
20
-15.7962915
11
-11.0331833
21
-15.6284353
0
LINE
8
layer1
10
-11.0331833
20
-15.6284353
11
-11.0013497
21
-15.4678737
0
LINE
8
layer1
10
-11.0013497
20
-15.4678737
11
-10.9330379
21
-15.1720577
0
LINE
8
layer1
10
-10.9330379
20
-15.1720577
11
-10.8608789
21
-14.9100708
0
LINE
8
layer1
10
-10.8608789
20
-14.9100708
11
-10.7866733
21
-14.6789423
0
LINE
8
layer1
10
-10.7866733
20
-14.6789423
11
-10.7137056
21
-14.4805934
0
LINE
8
layer1
10
-10.7137056
20
-14.4805934
11
-10.6443186
21
-14.3138082
0
LINE
8
layer1
10
-10.6443186
20
-14.3138082
11
-10.5321008
21
-14.0702349
0
LINE
8
layer1
10
-10.5321008
20
-14.0702349
11
-10.5155285
21
-14.0200228
0
LINE
8
layer1
10
-10.5155285
20
-14.0200228
11
-10.5055616
21
-13.9754151
0
LINE
8
layer1
10
-10.5055616
20
-13.9754151
11
-10.5019388
21
-13.9366456
0
LINE
8
layer1
10
-10.5019388
20
-13.9366456
11
-10.5044333
21
-13.9039591
0
LINE
8
layer1
10
-10.5044333
20
-13.9039591
11
-10.5127668
21
-13.877616
0
LINE
8
layer1
10
-10.5127668
20
-13.877616
11
-10.526675
21
-13.8578143
0
LINE
8
layer1
10
-10.526675
20
-13.8578143
11
-10.5980737
21
-13.802692
0
LINE
8
layer1
10
-10.5980737
20
-13.802692
11
-10.8500007
21
-13.6054705
0
LINE
8
layer1
10
-10.8500007
20
-13.6054705
11
-11.0983364
21
-13.4037458
0
LINE
8
layer1
10
-11.0983364
20
-13.4037458
11
-11.1679644
21
-13.346403
0
LINE
8
layer1
10
-11.1679644
20
-13.346403
11
-11.1903645
21
-13.3372499
0
LINE
8
layer1
10
-11.1903645
20
-13.3372499
11
-11.2179015
21
-13.3349872
0
LINE
8
layer1
10
-11.2179015
20
-13.3349872
11
-11.2503235
21
-13.3398287
0
LINE
8
layer1
10
-11.2503235
20
-13.3398287
11
-11.2873149
21
-13.3519876
0
LINE
8
layer1
10
-11.2873149
20
-13.3519876
11
-11.3285863
21
-13.3716308
0
LINE
8
layer1
10
-11.3285863
20
-13.3716308
11
-11.3738518
21
-13.3989608
0
LINE
8
layer1
10
-11.3738518
20
-13.3989608
11
-11.5863474
21
-13.5625653
0
LINE
8
layer1
10
-11.5863474
20
-13.5625653
11
-11.7335109
21
-13.6673258
0
LINE
8
layer1
10
-11.7335109
20
-13.6673258
11
-11.9106499
21
-13.7826008
0
LINE
8
layer1
10
-11.9106499
20
-13.7826008
11
-12.1194713
21
-13.9063769
0
LINE
8
layer1
10
-12.1194713
20
-13.9063769
11
-12.3588327
21
-14.0350243
0
LINE
8
layer1
10
-12.3588327
20
-14.0350243
11
-12.6320312
21
-14.1674486
0
LINE
8
layer1
10
-12.6320312
20
-14.1674486
11
-12.7814836
21
-14.2342124
0
LINE
8
layer1
10
-12.7814836
20
-14.2342124
11
-12.9385377
21
-14.3004522
0
LINE
8
layer1
10
-12.9385377
20
-14.3004522
11
-13.2327353
21
-14.4145599
0
ARC
8
layer1
10
0.0000046
20
0.0000055
40
19.56745
50
225.1237275
51
227.4477038
0
LINE
8
layer1
10
-13.806361
20
-13.8661176
11
-13.7055673
21
-13.5670968
0
LINE
8
layer1
10
-13.7055673
20
-13.5670968
11
-13.6464404
21
-13.407229
0
LINE
8
layer1
10
-13.6464404
20
-13.407229
11
-13.586449
21
-13.2549318
0
LINE
8
layer1
10
-13.586449
20
-13.2549318
11
-13.466415
21
-12.9760672
0
LINE
8
layer1
10
-13.466415
20
-12.9760672
11
-13.3486361
21
-12.731175
0
LINE
8
layer1
10
-13.3486361
20
-12.731175
11
-13.2343534
21
-12.5170107
0
LINE
8
layer1
10
-13.2343534
20
-12.5170107
11
-13.1271417
21
-12.3348783
0
LINE
8
layer1
10
-13.1271417
20
-12.3348783
11
-13.0290892
21
-12.1831629
0
LINE
8
layer1
10
-13.0290892
20
-12.1831629
11
-12.875183
21
-11.9635412
0
LINE
8
layer1
10
-12.875183
20
-11.9635412
11
-12.8499114
21
-11.9170952
0
LINE
8
layer1
10
-12.8499114
20
-11.9170952
11
-12.8321396
21
-11.874984
0
LINE
8
layer1
10
-12.8321396
20
-11.874984
11
-12.8216525
21
-11.8374844
0
LINE
8
layer1
10
-12.8216525
20
-11.8374844
11
-12.8182705
21
-11.8048777
0
LINE
8
layer1
10
-12.8182705
20
-11.8048777
11
-12.8217663
21
-11.77747
0
LINE
8
layer1
10
-12.8217663
20
-11.77747
11
-12.8319153
21
-11.7555031
0
LINE
8
layer1
10
-12.8319153
20
-11.7555031
11
-12.8923241
21
-11.6885179
0
LINE
8
layer1
10
-12.8923241
20
-11.6885179
11
-13.1049873
21
-11.4494826
0
LINE
8
layer1
10
-13.1049873
20
-11.4494826
11
-13.3133128
21
-11.2066576
0
LINE
8
layer1
10
-13.3133128
20
-11.2066576
11
-13.3715829
21
-11.1378038
0
LINE
8
layer1
10
-13.3715829
20
-11.1378038
11
-13.3919887
21
-11.124798
0
LINE
8
layer1
10
-13.3919887
20
-11.124798
11
-13.4186791
21
-11.1176548
0
LINE
8
layer1
10
-13.4186791
20
-11.1176548
11
-13.4514446
21
-11.1166293
0
LINE
8
layer1
10
-13.4514446
20
-11.1166293
11
-13.4900125
21
-11.1219878
0
LINE
8
layer1
10
-13.4900125
20
-11.1219878
11
-13.5341282
21
-11.133946
0
LINE
8
layer1
10
-13.5341282
20
-11.133946
11
-13.5835462
21
-11.1527543
0
LINE
8
layer1
10
-13.5835462
20
-11.1527543
11
-13.8218396
21
-11.2757871
0
LINE
8
layer1
10
-13.8218396
20
-11.2757871
11
-13.9853438
21
-11.352587
0
LINE
8
layer1
10
-13.9853438
20
-11.352587
11
-14.1802193
21
-11.4343801
0
LINE
8
layer1
10
-14.1802193
20
-11.4343801
11
-14.4077858
21
-11.5188805
0
LINE
8
layer1
10
-14.4077858
20
-11.5188805
11
-14.6662715
21
-11.6027209
0
LINE
8
layer1
10
-14.6662715
20
-11.6027209
11
-14.9587249
21
-11.6842356
0
LINE
8
layer1
10
-14.9587249
20
-11.6842356
11
-15.1176966
21
-11.7232407
0
LINE
8
layer1
10
-15.1176966
20
-11.7232407
11
-15.2840544
21
-11.7603729
0
LINE
8
layer1
10
-15.2840544
20
-11.7603729
11
-15.5938988
21
-11.8201159
0
ARC
8
layer1
10
0.0000055
20
0.0000046
40
19.56745
50
214.8380131
51
217.1619897
0
LINE
8
layer1
10
-16.060378
20
-11.1780624
11
-15.9078118
21
-10.9018444
0
LINE
8
layer1
10
-15.9078118
20
-10.9018444
11
-15.8210896
21
-10.7551033
0
LINE
8
layer1
10
-15.8210896
20
-10.7551033
11
-15.7348686
21
-10.6159655
0
LINE
8
layer1
10
-15.7348686
20
-10.6159655
11
-15.5669704
21
-10.3630152
0
LINE
8
layer1
10
-15.5669704
20
-10.3630152
11
-15.4073571
21
-10.1430888
0
LINE
8
layer1
10
-15.4073571
20
-10.1430888
11
-15.2566705
21
-9.9527722
0
LINE
8
layer1
10
-15.2566705
20
-9.9527722
11
-15.1186607
21
-9.7927101
0
LINE
8
layer1
10
-15.1186607
20
-9.7927101
11
-14.9950941
21
-9.6609408
0
LINE
8
layer1
10
-14.9950941
20
-9.6609408
11
-14.8044463
21
-9.4723295
0
LINE
8
layer1
10
-14.8044463
20
-9.4723295
11
-14.7712875
21
-9.4311423
0
LINE
8
layer1
10
-14.7712875
20
-9.4311423
11
-14.7462821
21
-9.3928811
0
LINE
8
layer1
10
-14.7462821
20
-9.3928811
11
-14.7292677
21
-9.3578567
0
LINE
8
layer1
10
-14.7292677
20
-9.3578567
11
-14.720118
21
-9.3263779
0
LINE
8
layer1
10
-14.720118
20
-9.3263779
11
-14.7186638
21
-9.2987864
0
LINE
8
layer1
10
-14.7186638
20
-9.2987864
11
-14.7247272
21
-9.2753604
0
LINE
8
layer1
10
-14.7247272
20
-9.2753604
11
-14.7722046
21
-9.1986652
0
LINE
8
layer1
10
-14.7722046
20
-9.1986652
11
-14.9387688
21
-8.9254989
0
LINE
8
layer1
10
-14.9387688
20
-8.9254989
11
-15.1003884
21
-8.6493782
0
LINE
8
layer1
10
-15.1003884
20
-8.6493782
11
-15.1454278
21
-8.5712264
0
LINE
8
layer1
10
-15.1454278
20
-8.5712264
11
-15.1631833
21
-8.554786
0
LINE
8
layer1
10
-15.1631833
20
-8.554786
11
-15.1881693
21
-8.5429919
0
LINE
8
layer1
10
-15.1881693
20
-8.5429919
11
-15.2202251
21
-8.5361323
0
LINE
8
layer1
10
-15.2202251
20
-8.5361323
11
-15.2591301
21
-8.5345181
0
LINE
8
layer1
10
-15.2591301
20
-8.5345181
11
-15.304672
21
-8.538407
0
LINE
8
layer1
10
-15.304672
20
-8.538407
11
-15.3566542
21
-8.5480892
0
LINE
8
layer1
10
-15.3566542
20
-8.5480892
11
-15.6130865
21
-8.6265958
0
LINE
8
layer1
10
-15.6130865
20
-8.6265958
11
-15.7876763
21
-8.6729667
0
LINE
8
layer1
10
-15.7876763
20
-8.6729667
11
-15.9940247
21
-8.718649
0
LINE
8
layer1
10
-15.9940247
20
-8.718649
11
-16.2330223
21
-8.7611579
0
LINE
8
layer1
10
-16.2330223
20
-8.7611579
11
-16.5023243
21
-8.7974965
0
LINE
8
layer1
10
-16.5023243
20
-8.7974965
11
-16.8046329
21
-8.8254816
0
LINE
8
layer1
10
-16.8046329
20
-8.8254816
11
-16.9680145
21
-8.8354744
0
LINE
8
layer1
10
-16.9680145
20
-8.8354744
11
-17.138329
21
-8.8423056
0
LINE
8
layer1
10
-17.138329
20
-8.8423056
11
-17.4538617
21
-8.8457636
0
ARC
8
layer1
10
0.0000061
20
0.0000036
40
19.56745
50
204.552299
51
206.8762756
0
LINE
8
layer1
10
-17.7982012
20
-8.1307351
11
-17.5987662
21
-7.8861978
0
LINE
8
layer1
10
-17.5987662
20
-7.8861978
11
-17.487236
21
-7.7572997
0
LINE
8
layer1
10
-17.487236
20
-7.7572997
11
-17.3775566
21
-7.6357933
0
LINE
8
layer1
10
-17.3775566
20
-7.6357933
11
-17.1671906
21
-7.4168874
0
LINE
8
layer1
10
-17.1671906
20
-7.4168874
11
-16.970873
21
-7.2289953
0
LINE
8
layer1
10
-16.970873
20
-7.2289953
11
-16.7886256
21
-7.0686433
0
LINE
8
layer1
10
-16.7886256
20
-7.0686433
11
-16.6242535
21
-6.9357961
0
LINE
8
layer1
10
-16.6242535
20
-6.9357961
11
-16.4791444
21
-6.828208
0
LINE
8
layer1
10
-16.4791444
20
-6.828208
11
-16.2578825
21
-6.6766693
0
LINE
8
layer1
10
-16.2578825
20
-6.6766693
11
-16.2179023
21
-6.6420647
0
LINE
8
layer1
10
-16.2179023
20
-6.6420647
11
-16.186467
21
-6.6088833
0
LINE
8
layer1
10
-16.186467
20
-6.6088833
11
-16.1634721
21
-6.5774597
0
LINE
8
layer1
10
-16.1634721
20
-6.5774597
11
-16.1488487
21
-6.5481206
0
LINE
8
layer1
10
-16.1488487
20
-6.5481206
11
-16.1424912
21
-6.5212322
0
LINE
8
layer1
10
-16.1424912
20
-6.5212322
11
-16.1442744
21
-6.4971
0
LINE
8
layer1
10
-16.1442744
20
-6.4971
11
-16.1772943
21
-6.4131599
0
LINE
8
layer1
10
-16.1772943
20
-6.4131599
11
-16.292406
21
-6.1146423
0
LINE
8
layer1
10
-16.292406
20
-6.1146423
11
-16.402125
21
-5.8141007
0
LINE
8
layer1
10
-16.402125
20
-5.8141007
11
-16.4324861
21
-5.7291627
0
LINE
8
layer1
10
-16.4324861
20
-5.7291627
11
-16.4470207
21
-5.7098162
0
LINE
8
layer1
10
-16.4470207
20
-5.7098162
11
-16.4694993
21
-5.6937501
0
LINE
8
layer1
10
-16.4694993
20
-5.6937501
11
-16.4998151
21
-5.681277
0
LINE
8
layer1
10
-16.4998151
20
-5.681277
11
-16.5378066
21
-5.672742
0
LINE
8
layer1
10
-16.5378066
20
-5.672742
11
-16.5833111
21
-5.6684366
0
LINE
8
layer1
10
-16.5833111
20
-5.6684366
11
-16.6361867
21
-5.6686814
0
LINE
8
layer1
10
-16.6361867
20
-5.6686814
11
-16.9025159
21
-5.7001386
0
LINE
8
layer1
10
-16.9025159
20
-5.7001386
11
-17.0825798
21
-5.7145901
0
LINE
8
layer1
10
-17.0825798
20
-5.7145901
11
-17.2937691
21
-5.7226933
0
LINE
8
layer1
10
-17.2937691
20
-5.7226933
11
-17.5365161
21
-5.7218444
0
LINE
8
layer1
10
-17.5365161
20
-5.7218444
11
-17.8079788
21
-5.7095133
0
LINE
8
layer1
10
-17.8079788
20
-5.7095133
11
-18.1104261
21
-5.6830695
0
LINE
8
layer1
10
-18.1104261
20
-5.6830695
11
-18.2729664
21
-5.6637287
0
LINE
8
layer1
10
-18.2729664
20
-5.6637287
11
-18.4417636
21
-5.6400393
0
LINE
8
layer1
10
-18.4417636
20
-5.6400393
11
-18.752843
21
-5.5871012
0
ARC
8
layer1
10
0.0000071
20
0.0000013
40
19.56745
50
194.2665813
51
196.5905578
0
LINE
8
layer1
10
-18.9639756
20
-4.8220793
11
-18.7240818
21
-4.6170823
0
LINE
8
layer1
10
-18.7240818
20
-4.6170823
11
-18.5913283
21
-4.5101701
0
LINE
8
layer1
10
-18.5913283
20
-4.5101701
11
-18.4617157
21
-4.4102004
0
LINE
8
layer1
10
-18.4617157
20
-4.4102004
11
-18.2156432
21
-4.2323747
0
LINE
8
layer1
10
-18.2156432
20
-4.2323747
11
-17.988931
21
-4.082556
0
LINE
8
layer1
10
-17.988931
20
-4.082556
11
-17.7809805
21
-3.9573225
0
LINE
8
layer1
10
-17.7809805
20
-3.9573225
11
-17.5955292
21
-3.8559599
0
LINE
8
layer1
10
-17.5955292
20
-3.8559599
11
-17.4335414
21
-3.7760111
0
LINE
8
layer1
10
-17.4335414
20
-3.7760111
11
-17.188777
21
-3.6664154
0
LINE
8
layer1
10
-17.188777
20
-3.6664154
11
-17.1432604
21
-3.6395057
0
LINE
8
layer1
10
-17.1432604
20
-3.6395057
11
-17.1064055
21
-3.6124705
0
LINE
8
layer1
10
-17.1064055
20
-3.6124705
11
-17.0781693
21
-3.5856579
0
LINE
8
layer1
10
-17.0781693
20
-3.5856579
11
-17.0585421
21
-3.5594014
0
LINE
8
layer1
10
-17.0585421
20
-3.5594014
11
-17.0474857
21
-3.5340802
0
LINE
8
layer1
10
-17.0474857
20
-3.5340802
11
-17.0449312
21
-3.5100174
0
LINE
8
layer1
10
-17.0449312
20
-3.5100174
11
-17.0624325
21
-3.4215304
0
LINE
8
layer1
10
-17.0624325
20
-3.4215304
11
-17.1223919
21
-3.107256
0
LINE
8
layer1
10
-17.1223919
20
-3.107256
11
-17.1766839
21
-2.7919532
0
LINE
8
layer1
10
-17.1766839
20
-2.7919532
11
-17.1913908
21
-2.702959
0
LINE
8
layer1
10
-17.1913908
20
-2.702959
11
-17.2022374
21
-2.6813281
0
LINE
8
layer1
10
-17.2022374
20
-2.6813281
11
-17.221486
21
-2.6615066
0
LINE
8
layer1
10
-17.221486
20
-2.6615066
11
-17.2490875
21
-2.6438208
0
LINE
8
layer1
10
-17.2490875
20
-2.6438208
11
-17.2849445
21
-2.6286393
0
LINE
8
layer1
10
-17.2849445
20
-2.6286393
11
-17.3289489
21
-2.616278
0
LINE
8
layer1
10
-17.3289489
20
-2.616278
11
-17.3810185
21
-2.6070775
0
LINE
8
layer1
10
-17.3810185
20
-2.6070775
11
-17.6486846
21
-2.5904743
0
LINE
8
layer1
10
-17.6486846
20
-2.5904743
11
-17.8284352
21
-2.5725418
0
LINE
8
layer1
10
-17.8284352
20
-2.5725418
11
-18.0376774
21
-2.5428056
0
LINE
8
layer1
10
-18.0376774
20
-2.5428056
11
-18.2763719
21
-2.4986262
0
LINE
8
layer1
10
-18.2763719
20
-2.4986262
11
-18.5412703
21
-2.4380217
0
LINE
8
layer1
10
-18.5412703
20
-2.4380217
11
-18.8341354
21
-2.3579987
0
LINE
8
layer1
10
-18.8341354
20
-2.3579987
11
-18.9906101
21
-2.3099462
0
LINE
8
layer1
10
-18.9906101
20
-2.3099462
11
-19.1524648
21
-2.2564975
0
LINE
8
layer1
10
-19.1524648
20
-2.2564975
11
-19.4490925
21
-2.1488648
0
ARC
8
layer1
10
0.0000072
20
4e-7
40
19.56745
50
183.9808681
51
186.3048447
0
LINE
8
layer1
10
-19.5202322
20
-1.3584379
11
-19.24759
21
-1.19957
0
LINE
8
layer1
10
-19.24759
20
-1.19957
11
-19.09788
21
-1.11808
0
LINE
8
layer1
10
-19.09788
20
-1.11808
11
-18.9525
21
-1.04286
0
LINE
8
layer1
10
-18.9525
20
-1.04286
11
-18.67863
21
-0.91183
0
LINE
8
layer1
10
-18.67863
20
-0.91183
11
-18.42881
21
-0.8049
0
LINE
8
layer1
10
-18.42881
20
-0.8049
11
-18.20184
21
-0.71881
0
LINE
8
layer1
10
-18.20184
20
-0.71881
11
-18.00127
21
-0.65219
0
LINE
8
layer1
10
-18.00127
20
-0.65219
11
-17.82761
21
-0.60245
0
LINE
8
layer1
10
-17.82761
20
-0.60245
11
-17.56721
21
-0.53832
0
LINE
8
layer1
10
-17.56721
20
-0.53832
11
-17.51762
21
-0.51997
0
LINE
8
layer1
10
-17.51762
20
-0.51997
11
-17.47653
21
-0.49995
0
LINE
8
layer1
10
-17.47653
20
-0.49995
11
-17.44396
21
-0.47861
0
LINE
8
layer1
10
-17.44396
20
-0.47861
11
-17.41996
21
-0.45628
0
LINE
8
layer1
10
-17.41996
20
-0.45628
11
-17.40456
21
-0.43334
0
LINE
8
layer1
10
-17.40456
20
-0.43334
11
-17.39775
21
-0.41012
0
LINE
8
layer1
10
-17.39775
20
-0.41012
11
-17.39917
21
-0.31993
0
LINE
8
layer1
10
-17.39917
20
-0.31993
11
-17.40205
21
0
0
LINE
8
layer1
10
-17.40205
20
0
11
-17.39917
21
0.31993
0
LINE
8
layer1
10
-17.39917
20
0.31993
11
-17.39775
21
0.41012
0
LINE
8
layer1
10
-17.39775
20
0.41012
11
-17.40456
21
0.43334
0
LINE
8
layer1
10
-17.40456
20
0.43334
11
-17.41996
21
0.45628
0
LINE
8
layer1
10
-17.41996
20
0.45628
11
-17.44396
21
0.47861
0
LINE
8
layer1
10
-17.44396
20
0.47861
11
-17.47653
21
0.49995
0
LINE
8
layer1
10
-17.47653
20
0.49995
11
-17.51762
21
0.51997
0
LINE
8
layer1
10
-17.51762
20
0.51997
11
-17.56721
21
0.53832
0
LINE
8
layer1
10
-17.56721
20
0.53832
11
-17.82761
21
0.60245
0
LINE
8
layer1
10
-17.82761
20
0.60245
11
-18.00127
21
0.65219
0
LINE
8
layer1
10
-18.00127
20
0.65219
11
-18.20184
21
0.71881
0
LINE
8
layer1
10
-18.20184
20
0.71881
11
-18.42881
21
0.8049
0
LINE
8
layer1
10
-18.42881
20
0.8049
11
-18.67863
21
0.91183
0
LINE
8
layer1
10
-18.67863
20
0.91183
11
-18.9525
21
1.04286
0
LINE
8
layer1
10
-18.9525
20
1.04286
11
-19.09788
21
1.11808
0
LINE
8
layer1
10
-19.09788
20
1.11808
11
-19.24759
21
1.19957
0
LINE
8
layer1
10
-19.24759
20
1.19957
11
-19.5202322
21
1.3584379
0
ARC
8
layer1
10
0.0000072
20
-4e-7
40
19.56745
50
173.6951553
51
176.0191319
0
LINE
8
layer1
10
-19.4490925
20
2.1488648
11
-19.1524648
21
2.2564975
0
LINE
8
layer1
10
-19.1524648
20
2.2564975
11
-18.9906101
21
2.3099462
0
LINE
8
layer1
10
-18.9906101
20
2.3099462
11
-18.8341354
21
2.3579987
0
LINE
8
layer1
10
-18.8341354
20
2.3579987
11
-18.5412703
21
2.4380217
0
LINE
8
layer1
10
-18.5412703
20
2.4380217
11
-18.2763719
21
2.4986262
0
LINE
8
layer1
10
-18.2763719
20
2.4986262
11
-18.0376774
21
2.5428056
0
LINE
8
layer1
10
-18.0376774
20
2.5428056
11
-17.8284352
21
2.5725418
0
LINE
8
layer1
10
-17.8284352
20
2.5725418
11
-17.6486846
21
2.5904743
0
LINE
8
layer1
10
-17.6486846
20
2.5904743
11
-17.3810185
21
2.6070775
0
LINE
8
layer1
10
-17.3810185
20
2.6070775
11
-17.3289489
21
2.616278
0
LINE
8
layer1
10
-17.3289489
20
2.616278
11
-17.2849445
21
2.6286393
0
LINE
8
layer1
10
-17.2849445
20
2.6286393
11
-17.2490875
21
2.6438208
0
LINE
8
layer1
10
-17.2490875
20
2.6438208
11
-17.221486
21
2.6615066
0
LINE
8
layer1
10
-17.221486
20
2.6615066
11
-17.2022374
21
2.6813281
0
LINE
8
layer1
10
-17.2022374
20
2.6813281
11
-17.1913908
21
2.702959
0
LINE
8
layer1
10
-17.1913908
20
2.702959
11
-17.1766839
21
2.7919532
0
LINE
8
layer1
10
-17.1766839
20
2.7919532
11
-17.1223919
21
3.107256
0
LINE
8
layer1
10
-17.1223919
20
3.107256
11
-17.0624325
21
3.4215304
0
LINE
8
layer1
10
-17.0624325
20
3.4215304
11
-17.0449312
21
3.5100174
0
LINE
8
layer1
10
-17.0449312
20
3.5100174
11
-17.0474857
21
3.5340802
0
LINE
8
layer1
10
-17.0474857
20
3.5340802
11
-17.0585421
21
3.5594014
0
LINE
8
layer1
10
-17.0585421
20
3.5594014
11
-17.0781693
21
3.5856579
0
LINE
8
layer1
10
-17.0781693
20
3.5856579
11
-17.1064055
21
3.6124705
0
LINE
8
layer1
10
-17.1064055
20
3.6124705
11
-17.1432604
21
3.6395057
0
LINE
8
layer1
10
-17.1432604
20
3.6395057
11
-17.188777
21
3.6664154
0
LINE
8
layer1
10
-17.188777
20
3.6664154
11
-17.4335414
21
3.7760111
0
LINE
8
layer1
10
-17.4335414
20
3.7760111
11
-17.5955292
21
3.8559599
0
LINE
8
layer1
10
-17.5955292
20
3.8559599
11
-17.7809805
21
3.9573225
0
LINE
8
layer1
10
-17.7809805
20
3.9573225
11
-17.988931
21
4.082556
0
LINE
8
layer1
10
-17.988931
20
4.082556
11
-18.2156432
21
4.2323747
0
LINE
8
layer1
10
-18.2156432
20
4.2323747
11
-18.4617157
21
4.4102004
0
LINE
8
layer1
10
-18.4617157
20
4.4102004
11
-18.5913283
21
4.5101701
0
LINE
8
layer1
10
-18.5913283
20
4.5101701
11
-18.7240818
21
4.6170823
0
LINE
8
layer1
10
-18.7240818
20
4.6170823
11
-18.9639756
21
4.8220793
0
ARC
8
layer1
10
0.0000071
20
-0.0000012
40
19.56745
50
163.4094425
51
165.733419
0
LINE
8
layer1
10
-18.752843
20
5.5871012
11
-18.4417636
21
5.6400393
0
LINE
8
layer1
10
-18.4417636
20
5.6400393
11
-18.2729664
21
5.6637287
0
LINE
8
layer1
10
-18.2729664
20
5.6637287
11
-18.1104261
21
5.6830695
0
LINE
8
layer1
10
-18.1104261
20
5.6830695
11
-17.8079788
21
5.7095133
0
LINE
8
layer1
10
-17.8079788
20
5.7095133
11
-17.5365161
21
5.7218444
0
LINE
8
layer1
10
-17.5365161
20
5.7218444
11
-17.2937691
21
5.7226933
0
LINE
8
layer1
10
-17.2937691
20
5.7226933
11
-17.0825798
21
5.7145901
0
LINE
8
layer1
10
-17.0825798
20
5.7145901
11
-16.9025159
21
5.7001386
0
LINE
8
layer1
10
-16.9025159
20
5.7001386
11
-16.6361867
21
5.6686814
0
LINE
8
layer1
10
-16.6361867
20
5.6686814
11
-16.5833111
21
5.6684366
0
LINE
8
layer1
10
-16.5833111
20
5.6684366
11
-16.5378066
21
5.672742
0
LINE
8
layer1
10
-16.5378066
20
5.672742
11
-16.4998151
21
5.681277
0
LINE
8
layer1
10
-16.4998151
20
5.681277
11
-16.4694993
21
5.6937501
0
LINE
8
layer1
10
-16.4694993
20
5.6937501
11
-16.4470207
21
5.7098162
0
LINE
8
layer1
10
-16.4470207
20
5.7098162
11
-16.4324861
21
5.7291627
0
LINE
8
layer1
10
-16.4324861
20
5.7291627
11
-16.402125
21
5.8141007
0
LINE
8
layer1
10
-16.402125
20
5.8141007
11
-16.292406
21
6.1146423
0
LINE
8
layer1
10
-16.292406
20
6.1146423
11
-16.1772943
21
6.4131599
0
LINE
8
layer1
10
-16.1772943
20
6.4131599
11
-16.1442744
21
6.4971
0
LINE
8
layer1
10
-16.1442744
20
6.4971
11
-16.1424912
21
6.5212322
0
LINE
8
layer1
10
-16.1424912
20
6.5212322
11
-16.1488487
21
6.5481206
0
LINE
8
layer1
10
-16.1488487
20
6.5481206
11
-16.1634721
21
6.5774597
0
LINE
8
layer1
10
-16.1634721
20
6.5774597
11
-16.186467
21
6.6088833
0
LINE
8
layer1
10
-16.186467
20
6.6088833
11
-16.2179023
21
6.6420647
0
LINE
8
layer1
10
-16.2179023
20
6.6420647
11
-16.2578825
21
6.6766693
0
LINE
8
layer1
10
-16.2578825
20
6.6766693
11
-16.4791444
21
6.828208
0
LINE
8
layer1
10
-16.4791444
20
6.828208
11
-16.6242535
21
6.9357961
0
LINE
8
layer1
10
-16.6242535
20
6.9357961
11
-16.7886256
21
7.0686433
0
LINE
8
layer1
10
-16.7886256
20
7.0686433
11
-16.970873
21
7.2289953
0
LINE
8
layer1
10
-16.970873
20
7.2289953
11
-17.1671906
21
7.4168874
0
LINE
8
layer1
10
-17.1671906
20
7.4168874
11
-17.3775566
21
7.6357933
0
LINE
8
layer1
10
-17.3775566
20
7.6357933
11
-17.487236
21
7.7572997
0
LINE
8
layer1
10
-17.487236
20
7.7572997
11
-17.5987662
21
7.8861978
0
LINE
8
layer1
10
-17.5987662
20
7.8861978
11
-17.7982012
21
8.1307351
0
ARC
8
layer1
10
0.0000062
20
-0.0000036
40
19.56745
50
153.1237244
51
155.447701
0
LINE
8
layer1
10
-17.4538617
20
8.8457636
11
-17.138329
21
8.8423056
0
LINE
8
layer1
10
-17.138329
20
8.8423056
11
-16.9680145
21
8.8354744
0
LINE
8
layer1
10
-16.9680145
20
8.8354744
11
-16.8046329
21
8.8254816
0
LINE
8
layer1
10
-16.8046329
20
8.8254816
11
-16.5023243
21
8.7974965
0
LINE
8
layer1
10
-16.5023243
20
8.7974965
11
-16.2330223
21
8.7611579
0
LINE
8
layer1
10
-16.2330223
20
8.7611579
11
-15.9940247
21
8.718649
0
LINE
8
layer1
10
-15.9940247
20
8.718649
11
-15.7876763
21
8.6729667
0
LINE
8
layer1
10
-15.7876763
20
8.6729667
11
-15.6130865
21
8.6265958
0
LINE
8
layer1
10
-15.6130865
20
8.6265958
11
-15.3566542
21
8.5480892
0
LINE
8
layer1
10
-15.3566542
20
8.5480892
11
-15.304672
21
8.538407
0
LINE
8
layer1
10
-15.304672
20
8.538407
11
-15.2591301
21
8.5345181
0
LINE
8
layer1
10
-15.2591301
20
8.5345181
11
-15.2202251
21
8.5361323
0
LINE
8
layer1
10
-15.2202251
20
8.5361323
11
-15.1881693
21
8.5429919
0
LINE
8
layer1
10
-15.1881693
20
8.5429919
11
-15.1631833
21
8.554786
0
LINE
8
layer1
10
-15.1631833
20
8.554786
11
-15.1454278
21
8.5712264
0
LINE
8
layer1
10
-15.1454278
20
8.5712264
11
-15.1003884
21
8.6493782
0
LINE
8
layer1
10
-15.1003884
20
8.6493782
11
-14.9387688
21
8.9254989
0
LINE
8
layer1
10
-14.9387688
20
8.9254989
11
-14.7722046
21
9.1986652
0
LINE
8
layer1
10
-14.7722046
20
9.1986652
11
-14.7247272
21
9.2753604
0
LINE
8
layer1
10
-14.7247272
20
9.2753604
11
-14.7186638
21
9.2987864
0
LINE
8
layer1
10
-14.7186638
20
9.2987864
11
-14.720118
21
9.3263779
0
LINE
8
layer1
10
-14.720118
20
9.3263779
11
-14.7292677
21
9.3578567
0
LINE
8
layer1
10
-14.7292677
20
9.3578567
11
-14.7462821
21
9.3928811
0
LINE
8
layer1
10
-14.7462821
20
9.3928811
11
-14.7712875
21
9.4311423
0
LINE
8
layer1
10
-14.7712875
20
9.4311423
11
-14.8044463
21
9.4723295
0
LINE
8
layer1
10
-14.8044463
20
9.4723295
11
-14.9950941
21
9.6609408
0
LINE
8
layer1
10
-14.9950941
20
9.6609408
11
-15.1186607
21
9.7927101
0
LINE
8
layer1
10
-15.1186607
20
9.7927101
11
-15.2566705
21
9.9527722
0
LINE
8
layer1
10
-15.2566705
20
9.9527722
11
-15.4073571
21
10.1430888
0
LINE
8
layer1
10
-15.4073571
20
10.1430888
11
-15.5669704
21
10.3630152
0
LINE
8
layer1
10
-15.5669704
20
10.3630152
11
-15.7348686
21
10.6159655
0
LINE
8
layer1
10
-15.7348686
20
10.6159655
11
-15.8210896
21
10.7551033
0
LINE
8
layer1
10
-15.8210896
20
10.7551033
11
-15.9078118
21
10.9018444
0
LINE
8
layer1
10
-15.9078118
20
10.9018444
11
-16.060378
21
11.1780624
0
ARC
8
layer1
10
0.0000055
20
-0.0000046
40
19.56745
50
142.8380103
51
145.1619869
0
LINE
8
layer1
10
-15.5938988
20
11.8201159
11
-15.2840544
21
11.7603729
0
LINE
8
layer1
10
-15.2840544
20
11.7603729
11
-15.1176966
21
11.7232407
0
LINE
8
layer1
10
-15.1176966
20
11.7232407
11
-14.9587249
21
11.6842356
0
LINE
8
layer1
10
-14.9587249
20
11.6842356
11
-14.6662715
21
11.6027209
0
LINE
8
layer1
10
-14.6662715
20
11.6027209
11
-14.4077858
21
11.5188805
0
LINE
8
layer1
10
-14.4077858
20
11.5188805
11
-14.1802193
21
11.4343801
0
LINE
8
layer1
10
-14.1802193
20
11.4343801
11
-13.9853438
21
11.352587
0
LINE
8
layer1
10
-13.9853438
20
11.352587
11
-13.8218396
21
11.2757871
0
LINE
8
layer1
10
-13.8218396
20
11.2757871
11
-13.5835462
21
11.1527543
0
LINE
8
layer1
10
-13.5835462
20
11.1527543
11
-13.5341282
21
11.133946
0
LINE
8
layer1
10
-13.5341282
20
11.133946
11
-13.4900125
21
11.1219878
0
LINE
8
layer1
10
-13.4900125
20
11.1219878
11
-13.4514446
21
11.1166293
0
LINE
8
layer1
10
-13.4514446
20
11.1166293
11
-13.4186791
21
11.1176548
0
LINE
8
layer1
10
-13.4186791
20
11.1176548
11
-13.3919887
21
11.124798
0
LINE
8
layer1
10
-13.3919887
20
11.124798
11
-13.3715829
21
11.1378038
0
LINE
8
layer1
10
-13.3715829
20
11.1378038
11
-13.3133128
21
11.2066576
0
LINE
8
layer1
10
-13.3133128
20
11.2066576
11
-13.1049873
21
11.4494826
0
LINE
8
layer1
10
-13.1049873
20
11.4494826
11
-12.8923241
21
11.6885179
0
LINE
8
layer1
10
-12.8923241
20
11.6885179
11
-12.8319153
21
11.7555031
0
LINE
8
layer1
10
-12.8319153
20
11.7555031
11
-12.8217663
21
11.77747
0
LINE
8
layer1
10
-12.8217663
20
11.77747
11
-12.8182705
21
11.8048777
0
LINE
8
layer1
10
-12.8182705
20
11.8048777
11
-12.8216525
21
11.8374844
0
LINE
8
layer1
10
-12.8216525
20
11.8374844
11
-12.8321396
21
11.874984
0
LINE
8
layer1
10
-12.8321396
20
11.874984
11
-12.8499114
21
11.9170952
0
LINE
8
layer1
10
-12.8499114
20
11.9170952
11
-12.875183
21
11.9635412
0
LINE
8
layer1
10
-12.875183
20
11.9635412
11
-13.0290892
21
12.1831629
0
LINE
8
layer1
10
-13.0290892
20
12.1831629
11
-13.1271417
21
12.3348783
0
LINE
8
layer1
10
-13.1271417
20
12.3348783
11
-13.2343534
21
12.5170107
0
LINE
8
layer1
10
-13.2343534
20
12.5170107
11
-13.3486361
21
12.731175
0
LINE
8
layer1
10
-13.3486361
20
12.731175
11
-13.466415
21
12.9760672
0
LINE
8
layer1
10
-13.466415
20
12.9760672
11
-13.586449
21
13.2549318
0
LINE
8
layer1
10
-13.586449
20
13.2549318
11
-13.6464404
21
13.407229
0
LINE
8
layer1
10
-13.6464404
20
13.407229
11
-13.7055673
21
13.5670968
0
LINE
8
layer1
10
-13.7055673
20
13.5670968
11
-13.806361
21
13.8661176
0
ARC
8
layer1
10
0.0000046
20
-0.0000055
40
19.56745
50
132.5522962
51
134.8762725
0
LINE
8
layer1
10
-13.2327353
20
14.4145599
11
-12.9385377
21
14.3004522
0
LINE
8
layer1
10
-12.9385377
20
14.3004522
11
-12.7814836
21
14.2342124
0
LINE
8
layer1
10
-12.7814836
20
14.2342124
11
-12.6320312
21
14.1674486
0
LINE
8
layer1
10
-12.6320312
20
14.1674486
11
-12.3588327
21
14.0350243
0
LINE
8
layer1
10
-12.3588327
20
14.0350243
11
-12.1194713
21
13.9063769
0
LINE
8
layer1
10
-12.1194713
20
13.9063769
11
-11.9106499
21
13.7826008
0
LINE
8
layer1
10
-11.9106499
20
13.7826008
11
-11.7335109
21
13.6673258
0
LINE
8
layer1
10
-11.7335109
20
13.6673258
11
-11.5863474
21
13.5625653
0
LINE
8
layer1
10
-11.5863474
20
13.5625653
11
-11.3738518
21
13.3989608
0
LINE
8
layer1
10
-11.3738518
20
13.3989608
11
-11.3285863
21
13.3716308
0
LINE
8
layer1
10
-11.3285863
20
13.3716308
11
-11.2873149
21
13.3519876
0
LINE
8
layer1
10
-11.2873149
20
13.3519876
11
-11.2503235
21
13.3398287
0
LINE
8
layer1
10
-11.2503235
20
13.3398287
11
-11.2179015
21
13.3349872
0
LINE
8
layer1
10
-11.2179015
20
13.3349872
11
-11.1903645
21
13.3372499
0
LINE
8
layer1
10
-11.1903645
20
13.3372499
11
-11.1679644
21
13.346403
0
LINE
8
layer1
10
-11.1679644
20
13.346403
11
-11.0983364
21
13.4037458
0
LINE
8
layer1
10
-11.0983364
20
13.4037458
11
-10.8500007
21
13.6054705
0
LINE
8
layer1
10
-10.8500007
20
13.6054705
11
-10.5980737
21
13.802692
0
LINE
8
layer1
10
-10.5980737
20
13.802692
11
-10.526675
21
13.8578143
0
LINE
8
layer1
10
-10.526675
20
13.8578143
11
-10.5127668
21
13.877616
0
LINE
8
layer1
10
-10.5127668
20
13.877616
11
-10.5044333
21
13.9039591
0
LINE
8
layer1
10
-10.5044333
20
13.9039591
11
-10.5019388
21
13.9366456
0
LINE
8
layer1
10
-10.5019388
20
13.9366456
11
-10.5055616
21
13.9754151
0
LINE
8
layer1
10
-10.5055616
20
13.9754151
11
-10.5155285
21
14.0200228
0
LINE
8
layer1
10
-10.5155285
20
14.0200228
11
-10.5321008
21
14.0702349
0
LINE
8
layer1
10
-10.5321008
20
14.0702349
11
-10.6443186
21
14.3138082
0
LINE
8
layer1
10
-10.6443186
20
14.3138082
11
-10.7137056
21
14.4805934
0
LINE
8
layer1
10
-10.7137056
20
14.4805934
11
-10.7866733
21
14.6789423
0
LINE
8
layer1
10
-10.7866733
20
14.6789423
11
-10.8608789
21
14.9100708
0
LINE
8
layer1
10
-10.8608789
20
14.9100708
11
-10.9330379
21
15.1720577
0
LINE
8
layer1
10
-10.9330379
20
15.1720577
11
-11.0013497
21
15.4678737
0
LINE
8
layer1
10
-11.0013497
20
15.4678737
11
-11.0331833
21
15.6284353
0
LINE
8
layer1
10
-11.0331833
20
15.6284353
11
-11.0628145
21
15.7962915
0
LINE
8
layer1
10
-11.0628145
20
15.7962915
11
-11.1085962
21
16.1085043
0
ARC
8
layer1
10
0.0000033
20
-0.0000064
40
19.56745
50
122.2665809
51
124.5905574
0
LINE
8
layer1
10
-10.4462607
20
16.5457081
11
-10.1771657
21
16.3809031
0
LINE
8
layer1
10
-10.1771657
20
16.3809031
11
-10.0344631
21
16.2876847
0
LINE
8
layer1
10
-10.0344631
20
16.2876847
11
-9.8993337
21
16.1953081
0
LINE
8
layer1
10
-9.8993337
20
16.1953081
11
-9.6541708
21
16.0162305
0
LINE
8
layer1
10
-9.6541708
20
16.0162305
11
-9.4416269
21
15.8469109
0
LINE
8
layer1
10
-9.4416269
20
15.8469109
11
-9.2582624
21
15.6878374
0
LINE
8
layer1
10
-9.2582624
20
15.6878374
11
-9.1045533
21
15.5427855
0
LINE
8
layer1
10
-9.1045533
20
15.5427855
11
-8.9784605
21
15.4134315
0
LINE
8
layer1
10
-8.9784605
20
15.4134315
11
-8.7985925
21
15.2145137
0
LINE
8
layer1
10
-8.7985925
20
15.2145137
11
-8.7589344
21
15.1795404
0
LINE
8
layer1
10
-8.7589344
20
15.1795404
11
-8.7218336
21
15.1528436
0
LINE
8
layer1
10
-8.7218336
20
15.1528436
11
-8.6876078
21
15.134275
0
LINE
8
layer1
10
-8.6876078
20
15.134275
11
-8.6565713
21
15.1237221
0
LINE
8
layer1
10
-8.6565713
20
15.1237221
11
-8.6290728
21
15.1210315
0
LINE
8
layer1
10
-8.6290728
20
15.1210315
11
-8.6053984
21
15.1260379
0
LINE
8
layer1
10
-8.6053984
20
15.1260379
11
-8.5266503
21
15.1700266
0
LINE
8
layer1
10
-8.5266503
20
15.1700266
11
-8.2462862
21
15.3241675
0
LINE
8
layer1
10
-8.2462862
20
15.3241675
11
-7.9631925
21
15.4732362
0
LINE
8
layer1
10
-7.9631925
20
15.4732362
11
-7.8830987
21
15.5147239
0
LINE
8
layer1
10
-7.8830987
20
15.5147239
11
-7.8658783
21
15.531724
0
LINE
8
layer1
10
-7.8658783
20
15.531724
11
-7.852975
21
15.5561557
0
LINE
8
layer1
10
-7.852975
20
15.5561557
11
-7.8446842
21
15.5878715
0
LINE
8
layer1
10
-7.8446842
20
15.5878715
11
-7.8413262
21
15.6266649
0
LINE
8
layer1
10
-7.8413262
20
15.6266649
11
-7.8431679
21
15.6723354
0
LINE
8
layer1
10
-7.8431679
20
15.6723354
11
-7.8505081
21
15.7246996
0
LINE
8
layer1
10
-7.8505081
20
15.7246996
11
-7.9174309
21
15.9843959
0
LINE
8
layer1
10
-7.9174309
20
15.9843959
11
-7.9559221
21
16.1608903
0
LINE
8
layer1
10
-7.9559221
20
16.1608903
11
-7.9923007
21
16.3690805
0
LINE
8
layer1
10
-7.9923007
20
16.3690805
11
-8.0240442
21
16.6097446
0
LINE
8
layer1
10
-8.0240442
20
16.6097446
11
-8.048264
21
16.8804058
0
LINE
8
layer1
10
-8.048264
20
16.8804058
11
-8.062658
21
17.1836655
0
LINE
8
layer1
10
-8.062658
20
17.1836655
11
-8.0653106
21
17.3473309
0
LINE
8
layer1
10
-8.0653106
20
17.3473309
11
-8.0644937
21
17.5177804
0
LINE
8
layer1
10
-8.0644937
20
17.5177804
11
-8.053792
21
17.8331505
0
ARC
8
layer1
10
0.0000028
20
-0.0000065
40
19.56745
50
111.9808691
51
114.3048455
0
LINE
8
layer1
10
-7.3240347
20
18.1450637
11
-7.0886913
21
17.9348584
0
LINE
8
layer1
10
-7.0886913
20
17.9348584
11
-6.9649267
21
17.8176575
0
LINE
8
layer1
10
-6.9649267
20
17.8176575
11
-6.8484634
21
17.7026372
0
LINE
8
layer1
10
-6.8484634
20
17.7026372
11
-6.639216
21
17.4826618
0
LINE
8
layer1
10
-6.639216
20
17.4826618
11
-6.4603209
21
17.2781121
0
LINE
8
layer1
10
-6.4603209
20
17.2781121
11
-6.3083068
21
17.088854
0
LINE
8
layer1
10
-6.3083068
20
17.088854
11
-6.1829679
21
16.9186873
0
LINE
8
layer1
10
-6.1829679
20
16.9186873
11
-6.0819985
21
16.7688974
0
LINE
8
layer1
10
-6.0819985
20
16.7688974
11
-5.9405392
21
16.5410595
0
LINE
8
layer1
10
-5.9405392
20
16.5410595
11
-5.9077631
21
16.4995671
0
LINE
8
layer1
10
-5.9077631
20
16.4995671
11
-5.8760255
21
16.4666747
0
LINE
8
layer1
10
-5.8760255
20
16.4666747
11
-5.8456652
21
16.4422932
0
LINE
8
layer1
10
-5.8456652
20
16.4422932
11
-5.8170117
21
16.4263682
0
LINE
8
layer1
10
-5.8170117
20
16.4263682
11
-5.7904357
21
16.4188108
0
LINE
8
layer1
10
-5.7904357
20
16.4188108
11
-5.7662477
21
16.4195095
0
LINE
8
layer1
10
-5.7662477
20
16.4195095
11
-5.6809107
21
16.4487302
0
LINE
8
layer1
10
-5.6809107
20
16.4487302
11
-5.3775292
21
16.550333
0
LINE
8
layer1
10
-5.3775292
20
16.550333
11
-5.0723677
21
16.6464578
0
LINE
8
layer1
10
-5.0723677
20
16.6464578
11
-4.9861531
21
16.6729776
0
LINE
8
layer1
10
-4.9861531
20
16.6729776
11
-4.966174
21
16.6866296
0
LINE
8
layer1
10
-4.966174
20
16.6866296
11
-4.9491156
21
16.7083647
0
LINE
8
layer1
10
-4.9491156
20
16.7083647
11
-4.9352949
21
16.7380905
0
LINE
8
layer1
10
-4.9352949
20
16.7380905
11
-4.9250641
21
16.7756608
0
LINE
8
layer1
10
-4.9250641
20
16.7756608
11
-4.9187214
21
16.8209262
0
LINE
8
layer1
10
-4.9187214
20
16.8209262
11
-4.9165937
21
16.8737596
0
LINE
8
layer1
10
-4.9165937
20
16.8737596
11
-4.9360705
21
17.1412319
0
LINE
8
layer1
10
-4.9360705
20
17.1412319
11
-4.9424288
21
17.3217629
0
LINE
8
layer1
10
-4.9424288
20
17.3217629
11
-4.941049
21
17.533103
0
LINE
8
layer1
10
-4.941049
20
17.533103
11
-4.9293101
21
17.7755676
0
LINE
8
layer1
10
-4.9293101
20
17.7755676
11
-4.9048122
21
18.0462037
0
LINE
8
layer1
10
-4.9048122
20
18.0462037
11
-4.8648258
21
18.3471601
0
LINE
8
layer1
10
-4.8648258
20
18.3471601
11
-4.8382122
21
18.5086689
0
LINE
8
layer1
10
-4.8382122
20
18.5086689
11
-4.8069735
21
18.6762334
0
LINE
8
layer1
10
-4.8069735
20
18.6762334
11
-4.7401323
21
18.9846245
0
ARC
8
layer1
10
0.0000026
20
-0.0000067
40
19.56745
50
101.6951577
51
104.0191343
0
LINE
8
layer1
10
-3.9664083
20
19.1612219
11
-3.7723805
21
18.9123725
0
LINE
8
layer1
10
-3.7723805
20
18.9123725
11
-3.6715319
21
18.7749561
0
LINE
8
layer1
10
-3.6715319
20
18.7749561
11
-3.5774778
21
18.6409889
0
LINE
8
layer1
10
-3.5774778
20
18.6409889
11
-3.4108712
21
18.387186
0
LINE
8
layer1
10
-3.4108712
20
18.387186
11
-3.2713748
21
18.1539805
0
LINE
8
layer1
10
-3.2713748
20
18.1539805
11
-3.155597
21
17.9406208
0
LINE
8
layer1
10
-3.155597
20
17.9406208
11
-3.0626568
21
17.7508086
0
LINE
8
layer1
10
-3.0626568
20
17.7508086
11
-2.990056
21
17.5853971
0
LINE
8
layer1
10
-2.990056
20
17.5853971
11
-2.891552
21
17.3359621
0
LINE
8
layer1
10
-2.891552
20
17.3359621
11
-2.8667115
21
17.2892841
0
LINE
8
layer1
10
-2.8667115
20
17.2892841
11
-2.841357
21
17.2512533
0
LINE
8
layer1
10
-2.841357
20
17.2512533
11
-2.8158382
21
17.2218426
0
LINE
8
layer1
10
-2.8158382
20
17.2218426
11
-2.7904887
21
17.2010573
0
LINE
8
layer1
10
-2.7904887
20
17.2010573
11
-2.7656891
21
17.1888759
0
LINE
8
layer1
10
-2.7656891
20
17.1888759
11
-2.7417651
21
17.1852445
0
LINE
8
layer1
10
-2.7417651
20
17.1852445
11
-2.652582
21
17.1987581
0
LINE
8
layer1
10
-2.652582
20
17.1987581
11
-2.335934
21
17.2445573
0
LINE
8
layer1
10
-2.335934
20
17.2445573
11
-2.0185129
21
17.2846486
0
LINE
8
layer1
10
-2.0185129
20
17.2846486
11
-1.9289485
21
17.295348
0
LINE
8
layer1
10
-1.9289485
20
17.295348
11
-1.9068528
21
17.3052132
0
LINE
8
layer1
10
-1.9068528
20
17.3052132
11
-1.8861876
21
17.3235532
0
LINE
8
layer1
10
-1.8861876
20
17.3235532
11
-1.8672813
21
17.3503334
0
LINE
8
layer1
10
-1.8672813
20
17.3503334
11
-1.8505064
21
17.3854732
0
LINE
8
layer1
10
-1.8505064
20
17.3854732
11
-1.8361832
21
17.4288786
0
LINE
8
layer1
10
-1.8361832
20
17.4288786
11
-1.8246559
21
17.480483
0
LINE
8
layer1
10
-1.8246559
20
17.480483
11
-1.7960606
21
17.7471347
0
LINE
8
layer1
10
-1.7960606
20
17.7471347
11
-1.7700817
21
17.9258998
0
LINE
8
layer1
10
-1.7700817
20
17.9258998
11
-1.7309878
21
18.1335972
0
LINE
8
layer1
10
-1.7309878
20
18.1335972
11
-1.6761439
21
18.3700692
0
LINE
8
layer1
10
-1.6761439
20
18.3700692
11
-1.6037158
21
18.6319819
0
LINE
8
layer1
10
-1.6037158
20
18.6319819
11
-1.5106341
21
18.9209619
0
LINE
8
layer1
10
-1.5106341
20
18.9209619
11
-1.4556097
21
19.0751232
0
LINE
8
layer1
10
-1.4556097
20
19.0751232
11
-1.3949533
21
19.2344169
0
LINE
8
layer1
10
-1.3949533
20
19.2344169
11
-1.2741208
21
19.5259171
0
ARC
8
layer1
10
2e-7
20
-0.0000071
40
19.56745
50
91.4094401
51
93.7334165
0
LINE
8
layer1
10
-0.4812982
20
19.5615228
11
-0.3348223
21
19.2820275
0
LINE
8
layer1
10
-0.3348223
20
19.2820275
11
-0.260131
21
19.1288122
0
LINE
8
layer1
10
-0.260131
20
19.1288122
11
-0.1915092
21
18.9802038
0
LINE
8
layer1
10
-0.1915092
20
18.9802038
11
-0.0728983
21
18.700731
0
LINE
8
layer1
10
-0.0728983
20
18.700731
11
0.0227159
21
18.4463651
0
LINE
8
layer1
10
0.0227159
20
18.4463651
11
0.0985363
21
18.2157612
0
LINE
8
layer1
10
0.0985363
20
18.2157612
11
0.1560906
21
18.0124043
0
LINE
8
layer1
10
0.1560906
20
18.0124043
11
0.1979893
21
17.8366876
0
LINE
8
layer1
10
0.1979893
20
17.8366876
11
0.2503719
21
17.5736726
0
LINE
8
layer1
10
0.2503719
20
17.5736726
11
0.2664786
21
17.5233093
0
LINE
8
layer1
10
0.2664786
20
17.5233093
11
0.284635
21
17.4813625
0
LINE
8
layer1
10
0.284635
20
17.4813625
11
0.3044922
21
17.4478678
0
LINE
8
layer1
10
0.3044922
20
17.4478678
11
0.325723
21
17.4228902
0
LINE
8
layer1
10
0.325723
20
17.4228902
11
0.347949
21
17.4064765
0
LINE
8
layer1
10
0.347949
20
17.4064765
11
0.3708401
21
17.3986316
0
LINE
8
layer1
10
0.3708401
20
17.3986316
11
0.461003
21
17.3960038
0
LINE
8
layer1
10
0.461003
20
17.3960038
11
0.78074
21
17.3845273
0
LINE
8
layer1
10
0.78074
20
17.3845273
11
1.1002187
21
17.3672966
0
LINE
8
layer1
10
1.1002187
20
17.3672966
11
1.1902541
21
17.3618317
0
LINE
8
layer1
10
1.1902541
20
17.3618317
11
1.2137563
21
17.367593
0
LINE
8
layer1
10
1.2137563
20
17.367593
11
1.2373641
21
17.3819483
0
LINE
8
layer1
10
1.2373641
20
17.3819483
11
1.2607484
21
17.4049223
0
LINE
8
layer1
10
1.2607484
20
17.4049223
11
1.2835281
21
17.4365021
0
LINE
8
layer1
10
1.2835281
20
17.4365021
11
1.3053715
21
17.4766526
0
LINE
8
layer1
10
1.3053715
20
17.4766526
11
1.3259278
21
17.5253694
0
LINE
8
layer1
10
1.3259278
20
17.5253694
11
1.4016761
21
17.78263
0
LINE
8
layer1
10
1.4016761
20
17.78263
11
1.4591572
21
17.9538835
0
LINE
8
layer1
10
1.4591572
20
17.9538835
11
1.5347087
21
18.1512627
0
LINE
8
layer1
10
1.5347087
20
18.1512627
11
1.630895
21
18.3741417
0
LINE
8
layer1
10
1.630895
20
18.3741417
11
1.7489254
21
18.6189128
0
LINE
8
layer1
10
1.7489254
20
18.6189128
11
1.8921106
21
18.8866284
0
LINE
8
layer1
10
1.8921106
20
18.8866284
11
1.9737773
21
19.0284872
0
LINE
8
layer1
10
1.9737773
20
19.0284872
11
2.061902
21
19.1743905
0
LINE
8
layer1
10
2.061902
20
19.1743905
11
2.232842
21
19.4396306
0
ARC
8
layer1
10
1e-7
20
-0.0000072
40
19.56745
50
81.1237291
51
83.4477056
0
LINE
8
layer1
10
3.0192813
20
19.3331001
11
3.1134974
21
19.0319422
0
LINE
8
layer1
10
3.1134974
20
19.0319422
11
3.1596307
21
18.8678525
0
LINE
8
layer1
10
3.1596307
20
18.8678525
11
3.2006147
21
18.7093794
0
LINE
8
layer1
10
3.2006147
20
18.7093794
11
3.2674177
21
18.413219
0
LINE
8
layer1
10
3.2674177
20
18.413219
11
3.3160765
21
18.1458684
0
LINE
8
layer1
10
3.3160765
20
18.1458684
11
3.3495025
21
17.9054321
0
LINE
8
layer1
10
3.3495025
20
17.9054321
11
3.3698212
21
17.6950665
0
LINE
8
layer1
10
3.3698212
20
17.6950665
11
3.3796711
21
17.5146923
0
LINE
8
layer1
10
3.3796711
20
17.5146923
11
3.3842488
21
17.2465508
0
LINE
8
layer1
10
3.3842488
20
17.2465508
11
3.3911039
21
17.1941209
0
LINE
8
layer1
10
3.3911039
20
17.1941209
11
3.4014786
21
17.1496062
0
LINE
8
layer1
10
3.4014786
20
17.1496062
11
3.415036
21
17.1131042
0
LINE
8
layer1
10
3.415036
20
17.1131042
11
3.4314657
21
17.0847371
0
LINE
8
layer1
10
3.4314657
20
17.0847371
11
3.4504037
21
17.0646186
0
LINE
8
layer1
10
3.4504037
20
17.0646186
11
3.4715261
21
17.0528124
0
LINE
8
layer1
10
3.4715261
20
17.0528124
11
3.5597709
21
17.0341276
0
LINE
8
layer1
10
3.5597709
20
17.0341276
11
3.8723204
21
16.9657443
0
LINE
8
layer1
10
3.8723204
20
16.9657443
11
4.1835882
21
16.8917454
0
LINE
8
layer1
10
4.1835882
20
16.8917454
11
4.271201
21
16.8702918
0
LINE
8
layer1
10
4.271201
20
16.8702918
11
4.2953542
21
16.8717641
0
LINE
8
layer1
10
4.2953542
20
16.8717641
11
4.3211459
21
16.8816734
0
LINE
8
layer1
10
4.3211459
20
16.8816734
11
4.3482565
21
16.9001028
0
LINE
8
layer1
10
4.3482565
20
16.9001028
11
4.376309
21
16.9271076
0
LINE
8
layer1
10
4.376309
20
16.9271076
11
4.4049704
21
16.9627125
0
LINE
8
layer1
10
4.4049704
20
16.9627125
11
4.4338952
21
17.0069759
0
LINE
8
layer1
10
4.4338952
20
17.0069759
11
4.5543617
21
17.2465769
0
LINE
8
layer1
10
4.5543617
20
17.2465769
11
4.6414976
21
17.4048146
0
LINE
8
layer1
10
4.6414976
20
17.4048146
11
4.7510784
21
17.5855316
0
LINE
8
layer1
10
4.7510784
20
17.5855316
11
4.8855155
21
17.7876542
0
LINE
8
layer1
10
4.8855155
20
17.7876542
11
5.0453547
21
18.0074165
0
LINE
8
layer1
10
5.0453547
20
18.0074165
11
5.2340413
21
18.2452631
0
LINE
8
layer1
10
5.2340413
20
18.2452631
11
5.3397255
21
18.3702601
0
LINE
8
layer1
10
5.3397255
20
18.3702601
11
5.452486
21
18.4980833
0
LINE
8
layer1
10
5.452486
20
18.4980833
11
5.6680394
21
18.7285384
0
ARC
8
layer1
10
-0.0000023
20
-0.0000067
40
19.56745
50
70.8380114
51
73.1619878
0
LINE
8
layer1
10
6.4228185
20
18.4832958
11
6.4617467
21
18.1701546
0
LINE
8
layer1
10
6.4617467
20
18.1701546
11
6.4778393
21
18.0004645
0
LINE
8
layer1
10
6.4778393
20
18.0004645
11
6.4898682
21
17.8372202
0
LINE
8
layer1
10
6.4898682
20
17.8372202
11
6.5027161
21
17.5338911
0
LINE
8
layer1
10
6.5027161
20
17.5338911
11
6.5028557
21
17.2621485
0
LINE
8
layer1
10
6.5028557
20
17.2621485
11
6.492813
21
17.0196077
0
LINE
8
layer1
10
6.492813
20
17.0196077
11
6.4752429
21
16.8089947
0
LINE
8
layer1
10
6.4752429
20
16.8089947
11
6.4527275
21
16.6297604
0
LINE
8
layer1
10
6.4527275
20
16.6297604
11
6.4093531
21
16.3651107
0
LINE
8
layer1
10
6.4093531
20
16.3651107
11
6.4067363
21
16.3122993
0
LINE
8
layer1
10
6.4067363
20
16.3122993
11
6.4089958
21
16.2666476
0
LINE
8
layer1
10
6.4089958
20
16.2666476
11
6.4158177
21
16.2283114
0
LINE
8
layer1
10
6.4158177
20
16.2283114
11
6.4269182
21
16.1974665
0
LINE
8
layer1
10
6.4269182
20
16.1974665
11
6.4419596
21
16.1742898
0
LINE
8
layer1
10
6.4419596
20
16.1742898
11
6.4606345
21
16.1589017
0
LINE
8
layer1
10
6.4606345
20
16.1589017
11
6.5441248
21
16.1247605
0
LINE
8
layer1
10
6.5441248
20
16.1247605
11
6.8394413
21
16.0016683
0
LINE
8
layer1
10
6.8394413
20
16.0016683
11
7.1324939
21
15.8732795
0
LINE
8
layer1
10
7.1324939
20
15.8732795
11
7.214868
21
15.8365269
0
LINE
8
layer1
10
7.214868
20
15.8365269
11
7.2388959
21
15.8336628
0
LINE
8
layer1
10
7.2388959
20
15.8336628
11
7.2660425
21
15.8388076
0
LINE
8
layer1
10
7.2660425
20
15.8388076
11
7.2960081
21
15.8521
0
LINE
8
layer1
10
7.2960081
20
15.8521
11
7.3284317
21
15.8736618
0
LINE
8
layer1
10
7.3284317
20
15.8736618
11
7.36299
21
15.9035769
0
LINE
8
layer1
10
7.36299
20
15.9035769
11
7.3993535
21
15.9419642
0
LINE
8
layer1
10
7.3993535
20
15.9419642
11
7.5606665
21
16.1562046
0
LINE
8
layer1
10
7.5606665
20
16.1562046
11
7.6746565
21
16.2963407
0
LINE
8
layer1
10
7.6746565
20
16.2963407
11
7.8147445
21
16.4545871
0
LINE
8
layer1
10
7.8147445
20
16.4545871
11
7.9831115
21
16.6294568
0
LINE
8
layer1
10
7.9831115
20
16.6294568
11
8.1796222
21
16.817147
0
LINE
8
layer1
10
8.1796222
20
16.817147
11
8.4077456
21
17.01748
0
LINE
8
layer1
10
8.4077456
20
17.01748
11
8.5340505
21
17.1215976
0
LINE
8
layer1
10
8.5340505
20
17.1215976
11
8.6678226
21
17.2272325
0
LINE
8
layer1
10
8.6678226
20
17.2272325
11
8.9210613
21
17.4154956
0
ARC
8
layer1
10
-0.0000035
20
-0.0000062
40
19.56745
50
60.552297
51
62.8762736
0
LINE
8
layer1
10
9.6199211
20
17.0394231
11
9.6023102
21
16.7243633
0
LINE
8
layer1
10
9.6023102
20
16.7243633
11
9.5878448
21
16.5545267
0
LINE
8
layer1
10
9.5878448
20
16.5545267
11
9.570532
21
16.391758
0
LINE
8
layer1
10
9.570532
20
16.391758
11
9.529012
21
16.0910094
0
LINE
8
layer1
10
9.529012
20
16.0910094
11
9.4806278
21
15.8236089
0
LINE
8
layer1
10
9.4806278
20
15.8236089
11
9.4274391
21
15.5867591
0
LINE
8
layer1
10
9.4274391
20
15.5867591
11
9.372545
21
15.382668
0
LINE
8
layer1
10
9.372545
20
15.382668
11
9.3183879
21
15.2103344
0
LINE
8
layer1
10
9.3183879
20
15.2103344
11
9.2284555
21
14.9576825
0
LINE
8
layer1
10
9.2284555
20
14.9576825
11
9.2164509
21
14.906187
0
LINE
8
layer1
10
9.2164509
20
14.906187
11
9.2105227
21
14.8608655
0
LINE
8
layer1
10
9.2105227
20
14.8608655
11
9.2103898
21
14.8219273
0
LINE
8
layer1
10
9.2103898
20
14.8219273
11
9.2158043
21
14.789596
0
LINE
8
layer1
10
9.2158043
20
14.789596
11
9.2264656
21
14.764106
0
LINE
8
layer1
10
9.2264656
20
14.764106
11
9.2420928
21
14.7456307
0
LINE
8
layer1
10
9.2420928
20
14.7456307
11
9.3181452
21
14.6971304
0
LINE
8
layer1
10
9.3181452
20
14.6971304
11
9.5867368
21
14.5232855
0
LINE
8
layer1
10
9.5867368
20
14.5232855
11
9.8521553
21
14.3446334
0
LINE
8
layer1
10
9.8521553
20
14.3446334
11
9.9266431
21
14.293763
0
LINE
8
layer1
10
9.9266431
20
14.293763
11
9.9497735
21
14.2866546
0
LINE
8
layer1
10
9.9497735
20
14.2866546
11
9.9774025
21
14.2868694
0
LINE
8
layer1
10
9.9774025
20
14.2868694
11
10.00926
21
14.2945977
0
LINE
8
layer1
10
10.00926
20
14.2945977
11
10.0450125
21
14.3100236
0
LINE
8
layer1
10
10.0450125
20
14.3100236
11
10.084357
21
14.3332872
0
LINE
8
layer1
10
10.084357
20
14.3332872
11
10.1269904
21
14.3645647
0
LINE
8
layer1
10
10.1269904
20
14.3645647
11
10.3239652
21
14.5465586
0
LINE
8
layer1
10
10.3239652
20
14.5465586
11
10.4611456
21
14.664089
0
LINE
8
layer1
10
10.4611456
20
14.664089
11
10.6272383
21
14.7947786
0
LINE
8
layer1
10
10.6272383
20
14.7947786
11
10.8241238
21
14.9367749
0
LINE
8
layer1
10
10.8241238
20
14.9367749
11
11.0509898
21
15.0863606
0
LINE
8
layer1
10
11.0509898
20
15.0863606
11
11.3112181
21
15.2427412
0
LINE
8
layer1
10
11.3112181
20
15.2427412
11
11.4540841
21
15.322633
0
LINE
8
layer1
10
11.4540841
20
15.322633
11
11.6045683
21
15.4026843
0
LINE
8
layer1
10
11.6045683
20
15.4026843
11
11.887353
21
15.5427044
0
ARC
8
layer1
10
-0.0000045
20
-0.0000055
40
19.56745
50
50.2665828
51
52.5905594
0
LINE
8
layer1
10
12.5078315
20
15.0478893
11
12.4342475
21
14.7410372
0
LINE
8
layer1
10
12.4342475
20
14.7410372
11
12.3896891
21
14.5765129
0
LINE
8
layer1
10
12.3896891
20
14.5765129
11
12.343591
21
14.4194513
0
LINE
8
layer1
10
12.343591
20
14.4194513
11
12.2490375
21
14.1309495
0
LINE
8
layer1
10
12.2490375
20
14.1309495
11
12.1536847
21
13.8764855
0
LINE
8
layer1
10
12.1536847
20
13.8764855
11
12.0590596
21
13.6529392
0
LINE
8
layer1
10
12.0590596
20
13.6529392
11
11.9686057
21
13.4619296
0
LINE
8
layer1
10
11.9686057
20
13.4619296
11
11.8845476
21
13.3020356
0
LINE
8
layer1
10
11.8845476
20
13.3020356
11
11.7509477
21
13.069502
0
LINE
8
layer1
10
11.7509477
20
13.069502
11
11.7299412
21
13.0209776
0
LINE
8
layer1
10
11.7299412
20
13.0209776
11
11.7160158
21
12.9774429
0
LINE
8
layer1
10
11.7160158
20
12.9774429
11
11.7089324
21
12.9391542
0
LINE
8
layer1
10
11.7089324
20
12.9391542
11
11.7084869
21
12.9063757
0
LINE
8
layer1
10
11.7084869
20
12.9063757
11
11.7144254
21
12.8793917
0
LINE
8
layer1
10
11.7144254
20
12.8793917
11
11.7265026
21
12.858423
0
LINE
8
layer1
10
11.7265026
20
12.858423
11
11.7926727
21
12.7971224
0
LINE
8
layer1
10
11.7926727
20
12.7971224
11
12.0259068
21
12.5781124
0
LINE
8
layer1
10
12.0259068
20
12.5781124
11
12.2551603
21
12.354939
0
LINE
8
layer1
10
12.2551603
20
12.354939
11
12.3193678
21
12.2915857
0
LINE
8
layer1
10
12.3193678
20
12.2915857
11
12.3408573
21
12.2804615
0
LINE
8
layer1
10
12.3408573
20
12.2804615
11
12.3680805
21
12.2757396
0
LINE
8
layer1
10
12.3680805
20
12.2757396
11
12.4008061
21
12.2776552
0
LINE
8
layer1
10
12.4008061
20
12.2776552
11
12.4387384
21
12.2864494
0
LINE
8
layer1
10
12.4387384
20
12.2864494
11
12.4816045
21
12.3023139
0
LINE
8
layer1
10
12.4816045
20
12.3023139
11
12.5291376
21
12.3254763
0
LINE
8
layer1
10
12.5291376
20
12.3254763
11
12.7554432
21
12.4693742
0
LINE
8
layer1
10
12.7554432
20
12.4693742
11
12.9114049
21
12.5605213
0
LINE
8
layer1
10
12.9114049
20
12.5605213
11
13.0981639
21
12.6594537
0
LINE
8
layer1
10
13.0981639
20
12.6594537
11
13.3172398
21
12.7640129
0
LINE
8
layer1
10
13.3172398
20
12.7640129
11
13.5671696
21
12.8706862
0
LINE
8
layer1
10
13.5671696
20
12.8706862
11
13.8511387
21
12.9780881
0
LINE
8
layer1
10
13.8511387
20
12.9780881
11
14.005974
21
13.0311862
0
LINE
8
layer1
10
14.005974
20
13.0311862
11
14.1683336
21
13.0830812
0
LINE
8
layer1
10
14.1683336
20
13.0830812
11
14.4715754
21
13.1703579
0
ARC
8
layer1
10
-0.0000052
20
-0.0000049
40
19.56745
50
39.9808696
51
42.3048461
0
LINE
8
layer1
10
14.9937298
20
12.572704
11
14.8665379
21
12.2839221
0
LINE
8
layer1
10
14.8665379
20
12.2839221
11
14.7933185
21
12.1299979
0
LINE
8
layer1
10
14.7933185
20
12.1299979
11
14.7199169
21
11.9836915
0
LINE
8
layer1
10
14.7199169
20
11.9836915
11
14.5753689
21
11.7167092
0
LINE
8
layer1
10
14.5753689
20
11.7167092
11
14.4361121
21
11.4833605
0
LINE
8
layer1
10
14.4361121
20
11.4833605
11
14.303092
21
11.2803026
0
LINE
8
layer1
10
14.303092
20
11.2803026
11
14.1799857
21
11.1085138
0
LINE
8
layer1
10
14.1799857
20
11.1085138
11
14.0687282
21
10.9661985
0
LINE
8
layer1
10
14.0687282
20
10.9661985
11
13.8957549
21
10.761257
0
LINE
8
layer1
10
13.8957549
20
10.761257
11
13.8664216
21
10.7172633
0
LINE
8
layer1
10
13.8664216
20
10.7172633
11
13.8449465
21
10.6769146
0
LINE
8
layer1
10
13.8449465
20
10.6769146
11
13.8311402
21
10.6405061
0
LINE
8
layer1
10
13.8311402
20
10.6405061
11
13.824849
21
10.6083339
0
LINE
8
layer1
10
13.824849
20
10.6083339
11
13.825874
21
10.5807231
0
LINE
8
layer1
10
13.825874
20
10.5807231
11
13.8340129
21
10.5579349
0
LINE
8
layer1
10
13.8340129
20
10.5579349
11
13.8881741
21
10.4858043
0
LINE
8
layer1
10
13.8881741
20
10.4858043
11
14.0785542
21
10.2286683
0
LINE
8
layer1
10
14.0785542
20
10.2286683
11
14.2642744
21
9.9681467
0
LINE
8
layer1
10
14.2642744
20
9.9681467
11
14.3161379
21
9.8943468
0
LINE
8
layer1
10
14.3161379
20
9.8943468
11
14.3352957
21
9.8795643
0
LINE
8
layer1
10
14.3352957
20
9.8795643
11
14.3612383
21
9.8700573
0
LINE
8
layer1
10
14.3612383
20
9.8700573
11
14.39378
21
9.8660988
0
LINE
8
layer1
10
14.39378
20
9.8660988
11
14.432673
21
9.8679785
0
LINE
8
layer1
10
14.432673
20
9.8679785
11
14.477683
21
9.8759341
0
LINE
8
layer1
10
14.477683
20
9.8759341
11
14.528588
21
9.8902369
0
LINE
8
layer1
10
14.528588
20
9.8902369
11
14.7769507
21
9.991414
0
LINE
8
layer1
10
14.7769507
20
9.991414
11
14.946681
21
10.0532482
0
LINE
8
layer1
10
14.946681
20
10.0532482
11
15.1481038
21
10.1172436
0
LINE
8
layer1
10
15.1481038
20
10.1172436
11
15.3823288
21
10.181005
0
LINE
8
layer1
10
15.3823288
20
10.181005
11
15.6472893
21
10.2413373
0
LINE
8
layer1
10
15.6472893
20
10.2413373
11
15.9458723
21
10.2963085
0
LINE
8
layer1
10
15.9458723
20
10.2963085
11
16.1077004
21
10.3209065
0
LINE
8
layer1
10
16.1077004
20
10.3209065
11
16.276717
21
10.342977
0
LINE
8
layer1
10
16.276717
20
10.342977
11
16.5906694
21
10.3747053
0
ARC
8
layer1
10
-0.0000062
20
-0.0000036
40
19.56745
50
29.6951545
51
32.0191309
0
LINE
8
layer1
10
16.9977174
20
9.6934216
11
16.8210055
21
9.4319915
0
LINE
8
layer1
10
16.8210055
20
9.4319915
11
16.7214786
21
9.2936149
0
LINE
8
layer1
10
16.7214786
20
9.2936149
11
16.6231325
21
9.162766
0
LINE
8
layer1
10
16.6231325
20
9.162766
11
16.4332359
21
8.9258843
0
LINE
8
layer1
10
16.4332359
20
8.9258843
11
16.2545511
21
8.7211508
0
LINE
8
layer1
10
16.2545511
20
8.7211508
11
16.0874112
21
8.5451078
0
LINE
8
layer1
10
16.0874112
20
8.5451078
11
15.9356092
21
8.3980612
0
LINE
8
layer1
10
15.9356092
20
8.3980612
11
15.8007283
21
8.2778988
0
LINE
8
layer1
10
15.8007283
20
8.2778988
11
15.593941
21
8.1071363
0
LINE
8
layer1
10
15.593941
20
8.1071363
11
15.5572237
21
8.0690872
0
LINE
8
layer1
10
15.5572237
20
8.0690872
11
15.5288893
21
8.0332216
0
LINE
8
layer1
10
15.5288893
20
8.0332216
11
15.5088038
21
7.9998633
0
LINE
8
layer1
10
15.5088038
20
7.9998633
11
15.4968692
21
7.9693315
0
LINE
8
layer1
10
15.4968692
20
7.9693315
11
15.4929475
21
7.9419814
0
LINE
8
layer1
10
15.4929475
20
7.9419814
11
15.4968867
21
7.9181062
0
LINE
8
layer1
10
15.4968867
20
7.9181062
11
15.5372981
21
7.8374639
0
LINE
8
layer1
10
15.5372981
20
7.8374639
11
15.6787053
21
7.5504665
0
LINE
8
layer1
10
15.6787053
20
7.5504665
11
15.8149229
21
7.26097
0
LINE
8
layer1
10
15.8149229
20
7.26097
11
15.8527755
21
7.1790955
0
LINE
8
layer1
10
15.8527755
20
7.1790955
11
15.8689859
21
7.1611297
0
LINE
8
layer1
10
15.8689859
20
7.1611297
11
15.8928141
21
7.1471433
0
LINE
8
layer1
10
15.8928141
20
7.1471433
11
15.924126
21
7.1374379
0
LINE
8
layer1
10
15.924126
20
7.1374379
11
15.9627296
21
7.1323428
0
LINE
8
layer1
10
15.9627296
20
7.1323428
11
16.0084368
21
7.1321337
0
LINE
8
layer1
10
16.0084368
20
7.1321337
11
16.0610776
21
7.1371172
0
LINE
8
layer1
10
16.0610776
20
7.1371172
11
16.3235149
21
7.1923214
0
LINE
8
layer1
10
16.3235149
20
7.1923214
11
16.5015585
21
7.2228555
0
LINE
8
layer1
10
16.5015585
20
7.2228555
11
16.7111711
21
7.249857
0
LINE
8
layer1
10
16.7111711
20
7.249857
11
16.9530171
21
7.2707711
0
LINE
8
layer1
10
16.9530171
20
7.2707711
11
17.2244923
21
7.2828234
0
LINE
8
layer1
10
17.2244923
20
7.2828234
11
17.5280925
21
7.2835972
0
LINE
8
layer1
10
17.5280925
20
7.2835972
11
17.6917121
21
7.2789043
0
LINE
8
layer1
10
17.6917121
20
7.2789043
11
17.8619533
21
7.2704411
0
LINE
8
layer1
10
17.8619533
20
7.2704411
11
18.1765257
21
7.2456011
0
ARC
8
layer1
10
-0.0000068
20
-0.0000021
40
19.56745
50
19.409439
51
21.7334156
0
LINE
8
layer1
10
18.4553844
20
6.5025847
11
18.2348321
21
6.2769091
0
LINE
8
layer1
10
18.2348321
20
6.2769091
11
18.1121966
21
6.1585273
0
LINE
8
layer1
10
18.1121966
20
6.1585273
11
17.9920669
21
6.0473416
0
LINE
8
layer1
10
17.9920669
20
6.0473416
11
17.7629252
21
5.8481741
0
LINE
8
layer1
10
17.7629252
20
5.8481741
11
17.5505553
21
5.6786362
0
LINE
8
layer1
10
17.5505553
20
5.6786362
11
17.3546678
21
5.5352662
0
LINE
8
layer1
10
17.3546678
20
5.5352662
11
17.1790492
21
5.417688
0
LINE
8
layer1
10
17.1790492
20
5.417688
11
17.02488
21
5.3235406
0
LINE
8
layer1
10
17.02488
20
5.3235406
11
16.7909251
21
5.1924456
0
LINE
8
layer1
10
16.7909251
20
5.1924456
11
16.7480039
21
5.1615641
0
LINE
8
layer1
10
16.7480039
20
5.1615641
11
16.7137207
21
5.1313341
0
LINE
8
layer1
10
16.7137207
20
5.1313341
11
16.6880017
21
5.1020984
0
LINE
8
layer1
10
16.6880017
20
5.1020984
11
16.6708072
21
5.0741882
0
LINE
8
layer1
10
16.6708072
20
5.0741882
11
16.662065
21
5.0479779
0
LINE
8
layer1
10
16.662065
20
5.0479779
11
16.6616778
21
5.023783
0
LINE
8
layer1
10
16.6616778
20
5.023783
11
16.6870405
21
4.9372209
0
LINE
8
layer1
10
16.6870405
20
4.9372209
11
16.7749299
21
4.6295865
0
LINE
8
layer1
10
16.7749299
20
4.6295865
11
16.8572669
21
4.3204197
0
LINE
8
layer1
10
16.8572669
20
4.3204197
11
16.8798919
21
4.2331021
0
LINE
8
layer1
10
16.8798919
20
4.2331021
11
16.8926339
21
4.2125306
0
LINE
8
layer1
10
16.8926339
20
4.2125306
11
16.9135818
21
4.1945142
0
LINE
8
layer1
10
16.9135818
20
4.1945142
11
16.9426575
21
4.1793738
0
LINE
8
layer1
10
16.9426575
20
4.1793738
11
16.979731
21
4.1674677
0
LINE
8
layer1
10
16.979731
20
4.1674677
11
17.0246663
21
4.1591006
0
LINE
8
layer1
10
17.0246663
20
4.1591006
11
17.077351
21
4.1546046
0
LINE
8
layer1
10
17.077351
20
4.1546046
11
17.3454278
21
4.1620617
0
LINE
8
layer1
10
17.3454278
20
4.1620617
11
17.5260623
21
4.1603141
0
LINE
8
layer1
10
17.5260623
20
4.1603141
11
17.7371277
21
4.149454
0
LINE
8
layer1
10
17.7371277
20
4.149454
11
17.9788215
21
4.1268488
0
LINE
8
layer1
10
17.9788215
20
4.1268488
11
18.248086
21
4.0902335
0
LINE
8
layer1
10
18.248086
20
4.0902335
11
18.5469453
21
4.036785
0
LINE
8
layer1
10
18.5469453
20
4.036785
11
18.7070975
21
4.0029522
0
LINE
8
layer1
10
18.7070975
20
4.0029522
11
18.8730917
21
3.9642272
0
LINE
8
layer1
10
18.8730917
20
3.9642272
11
19.1781735
21
3.8836173
0
ARC
8
layer1
10
-0.0000071
20
-5e-7
40
19.56745
50
9.1237238
51
11.4477002
0
LINE
8
layer1
10
19.3198801
20
3.1027494
11
19.0625762
21
2.9200815
0
ENDSEC
0
EOF